<svg width="256" height="256" viewBox="0 0 256 256" fill="none" xmlns="http://www.w3.org/2000/svg">
<g clip-path="url(#clip0_704_67)">
<path d="M240 212.268H220.892V69.9764H189.28V212.268H178.888V123.716H147.28V212.268H136.888V82.3764H105.28V212.268H94.888V115.448H63.28V212.268H43.828V16.7764H35.828V212.268H16V220.24H35.832V240H43.832V220.24H75.088V229.02H83.088V220.24H117.088V229.02H125.088V220.24H159.088V229.02H167.088V220.24H201.088V229.02H209.088V220.24H240V212.268ZM197.28 77.9484H212.892V212.268H197.28V77.9484ZM155.28 131.688H170.892V212.268H155.28V131.688ZM113.28 90.3484H128.892V212.268H113.28V90.3484ZM71.28 123.42H86.892V212.268H71.28V123.42ZM20.852 24.1204H30.284V33.5204H20.852V24.1204ZM20.852 43.1164H30.284V52.5164H20.852V43.1164Z" fill="white"/>
<path d="M20.8516 62.112H30.2836V71.512H20.8516V62.112ZM20.8516 81.108H30.2836V90.508H20.8516V81.108ZM20.8516 100.108H30.2836V109.508H20.8516V100.108ZM20.8516 119.104H30.2836V128.504H20.8516V119.104ZM20.8516 138.104H30.2836V147.504H20.8516V138.104ZM20.8516 157.1H30.2836V166.5H20.8516V157.1ZM20.8516 176.1H30.2836V185.5H20.8516V176.1ZM20.8516 195.096H30.2836V204.496H20.8516V195.096ZM79.0876 109.604C82.6094 109.606 85.9883 108.211 88.4831 105.726C90.978 103.24 92.385 99.8658 92.3956 96.344C92.3956 93.624 91.5636 91.096 90.1516 88.988L115.74 59.94C117.38 60.66 119.184 61.076 121.088 61.076C123.044 61.076 124.888 60.632 126.56 59.876L151.688 87.896C150.452 89.9251 149.792 92.2524 149.78 94.628C149.78 101.944 155.752 107.892 163.088 107.892C170.424 107.892 176.396 101.944 176.396 94.628C176.381 91.4741 175.231 88.431 173.156 86.056L201.42 41.948C202.592 42.288 203.808 42.524 205.088 42.524C212.424 42.524 218.396 36.576 218.396 29.264C218.396 21.952 212.424 16 205.088 16C197.752 16 191.78 21.948 191.78 29.264C191.78 32.404 192.924 35.252 194.76 37.524L166.376 81.828C165.303 81.5368 164.199 81.3823 163.088 81.368C161.14 81.368 159.3 81.808 157.632 82.564L132.496 54.532C133.726 52.5056 134.383 50.1828 134.396 47.812C134.396 40.5 128.424 34.552 121.088 34.552C113.752 34.552 107.78 40.5 107.78 47.816C107.78 50.328 108.524 52.656 109.748 54.656L83.8876 84.008C82.3591 83.4031 80.7313 83.0884 79.0876 83.08C71.7516 83.08 65.7796 89.028 65.7796 96.344C65.7796 103.66 71.7476 109.604 79.0876 109.604ZM205.088 23.972C208.012 23.972 210.396 26.348 210.396 29.264C210.396 30.6718 209.836 32.0219 208.841 33.0173C207.845 34.0128 206.495 34.572 205.088 34.572C203.68 34.572 202.33 34.0128 201.334 33.0173C200.339 32.0219 199.78 30.6718 199.78 29.264C199.78 26.344 202.16 23.972 205.088 23.972ZM168.396 94.628C168.396 96.0358 167.836 97.3859 166.841 98.3813C165.845 99.3768 164.495 99.936 163.088 99.936C161.68 99.936 160.33 99.3768 159.334 98.3813C158.339 97.3859 157.78 96.0358 157.78 94.628C157.78 93.2202 158.339 91.8701 159.334 90.8747C160.33 89.8792 161.68 89.32 163.088 89.32C164.495 89.32 165.845 89.8792 166.841 90.8747C167.836 91.8701 168.396 93.2202 168.396 94.628ZM121.088 42.524C124.012 42.524 126.396 44.9 126.396 47.816C126.396 49.2238 125.836 50.5739 124.841 51.5693C123.845 52.5648 122.495 53.124 121.088 53.124C119.68 53.124 118.33 52.5648 117.334 51.5693C116.339 50.5739 115.78 49.2238 115.78 47.816C115.78 44.896 118.16 42.524 121.088 42.524ZM79.0876 91.052C82.0116 91.052 84.3956 93.428 84.3956 96.344C84.3956 97.7518 83.8363 99.1019 82.8409 100.097C81.8454 101.093 80.4953 101.652 79.0876 101.652C77.6798 101.652 76.3297 101.093 75.3342 100.097C74.3388 99.1019 73.7796 97.7518 73.7796 96.344C73.7796 93.424 76.1596 91.052 79.0876 91.052Z" fill="white"/>
</g>
<defs>
<clipPath id="clip0_704_67">
<rect width="256" height="256" fill="white"/>
</clipPath>
</defs>
</svg>
