<svg width="256" height="256" viewBox="0 0 256 256" fill="none" xmlns="http://www.w3.org/2000/svg">
<path d="M236 56H228V12C228 10.9391 227.579 9.92172 226.828 9.17157C226.078 8.42143 225.061 8 224 8H32C30.9391 8 29.9217 8.42143 29.1716 9.17157C28.4214 9.92172 28 10.9391 28 12V56H20C16.8174 56 13.7652 57.2643 11.5147 59.5147C9.26428 61.7652 8 64.8174 8 68V196C8 199.183 9.26428 202.235 11.5147 204.485C13.7652 206.736 16.8174 208 20 208H108V224H92C90.9391 224 89.9217 224.421 89.1716 225.172C88.4214 225.922 88 226.939 88 228V240H80V248H176V240H168V228C168 226.939 167.579 225.922 166.828 225.172C166.078 224.421 165.061 224 164 224H148V208H236C239.183 208 242.235 206.736 244.485 204.485C246.736 202.235 248 199.183 248 196V68C248 64.8174 246.736 61.7652 244.485 59.5147C242.235 57.2643 239.183 56 236 56ZM220 164H36V48H220V164ZM220 16V40H36V16H220ZM20 64H28V168C28 169.061 28.4214 170.078 29.1716 170.828C29.9217 171.579 30.9391 172 32 172H224C225.061 172 226.078 171.579 226.828 170.828C227.579 170.078 228 169.061 228 168V64H236C237.061 64 238.078 64.4214 238.828 65.1716C239.579 65.9217 240 66.9391 240 68V180H16V68C16 66.9391 16.4214 65.9217 17.1716 65.1716C17.9217 64.4214 18.9391 64 20 64ZM160 240H96V232H160V240ZM140 224H116V208H140V224ZM236 200H20C18.9391 200 17.9217 199.579 17.1716 198.828C16.4214 198.078 16 197.061 16 196V188H240V196C240 197.061 239.579 198.078 238.828 198.828C238.078 199.579 237.061 200 236 200Z" fill="white"/>
<path d="M44 24H52V32H44V24ZM60 24H68V32H60V24ZM76 24H84V32H76V24ZM132 60C132 58.9391 131.579 57.9217 130.828 57.1716C130.078 56.4214 129.061 56 128 56H112C110.939 56 109.922 56.4214 109.172 57.1716C108.421 57.9217 108 58.9391 108 60V116H100V72C100 70.9391 99.5786 69.9217 98.8284 69.1716C98.0783 68.4214 97.0609 68 96 68H80C78.9391 68 77.9217 68.4214 77.1716 69.1716C76.4214 69.9217 76 70.9391 76 72V116H68V92C68 90.9391 67.5786 89.9217 66.8284 89.1716C66.0783 88.4214 65.0609 88 64 88H48C46.9391 88 45.9217 88.4214 45.1716 89.1716C44.4214 89.9217 44 90.9391 44 92V116H40V124H136V116H132V60ZM52 116V96H60V116H52ZM84 116V76H92V116H84ZM116 116V64H124V116H116ZM200 124H176V100C176 98.9391 175.579 97.9217 174.828 97.1716C174.078 96.4214 173.061 96 172 96C165.671 96 159.484 97.8768 154.222 101.393C148.959 104.909 144.858 109.907 142.436 115.754C140.014 121.601 139.38 128.035 140.615 134.243C141.85 140.45 144.897 146.152 149.373 150.627C153.848 155.103 159.55 158.15 165.757 159.385C171.965 160.62 178.399 159.986 184.246 157.564C190.093 155.142 195.091 151.041 198.607 145.778C202.123 140.516 204 134.329 204 128C204 126.939 203.579 125.922 202.828 125.172C202.078 124.421 201.061 124 200 124ZM172 152C165.978 152.005 160.175 149.747 155.741 145.673C151.306 141.599 148.566 136.007 148.062 130.007C147.559 124.006 149.329 118.036 153.022 113.28C156.716 108.524 162.062 105.33 168 104.332V128C168 129.061 168.421 130.078 169.172 130.828C169.922 131.579 170.939 132 172 132H195.668C194.715 137.59 191.817 142.662 187.486 146.322C183.155 149.982 177.67 151.993 172 152Z" fill="white"/>
<path d="M184 84C182.939 84 181.922 84.4214 181.172 85.1716C180.421 85.9217 180 86.9391 180 88V116C180 117.061 180.421 118.078 181.172 118.828C181.922 119.579 182.939 120 184 120H212C213.061 120 214.078 119.579 214.828 118.828C215.579 118.078 216 117.061 216 116C215.99 107.516 212.616 99.3822 206.617 93.3831C200.618 87.384 192.484 84.0095 184 84ZM188 112V92.332C192.911 93.1715 197.44 95.5143 200.963 99.0372C204.486 102.56 206.828 107.089 207.668 112H188ZM56 132C53.6266 132 51.3066 132.704 49.3332 134.022C47.3598 135.341 45.8217 137.215 44.9135 139.408C44.0052 141.601 43.7676 144.013 44.2306 146.341C44.6936 148.669 45.8365 150.807 47.5147 152.485C49.193 154.164 51.3312 155.306 53.6589 155.769C55.9867 156.232 58.3995 155.995 60.5922 155.087C62.7849 154.178 64.6591 152.64 65.9776 150.667C67.2962 148.693 68 146.373 68 144C68 140.817 66.7357 137.765 64.4853 135.515C62.2349 133.264 59.1826 132 56 132ZM56 148C55.2089 148 54.4355 147.765 53.7777 147.326C53.1199 146.886 52.6072 146.262 52.3045 145.531C52.0017 144.8 51.9225 143.996 52.0769 143.22C52.2312 142.444 52.6122 141.731 53.1716 141.172C53.731 140.612 54.4437 140.231 55.2196 140.077C55.9956 139.923 56.7998 140.002 57.5307 140.304C58.2616 140.607 58.8864 141.12 59.3259 141.778C59.7654 142.436 60 143.209 60 144C60 145.061 59.5786 146.078 58.8284 146.828C58.0783 147.579 57.0609 148 56 148ZM148 56H156V64H148V56ZM164 56H212V64H164V56ZM148 72H164V80H148V72ZM76 140H136V148H76V140Z" fill="white"/>
</svg>
