<svg width="2129" height="600" viewBox="0 0 2129 600" fill="none" xmlns="http://www.w3.org/2000/svg">
<path d="M539.781 22.0898C539.828 22.3165 539.871 22.4865 539.911 22.5998C539.978 22.7665 540.011 22.9398 540.011 23.1198C539.998 42.5265 539.998 61.9332 540.011 81.3398C540.011 81.6132 540.075 81.8665 540.201 82.0998C540.261 82.1998 540.341 82.2765 540.441 82.3298C540.921 82.5698 540.945 82.8232 540.511 83.0898L539.961 83.4298" stroke="#262730" stroke-opacity="0.741" stroke-width="2"/>
<path d="M964.699 22.0391L964.819 329.989" stroke="#262730" stroke-opacity="0.741" stroke-width="2"/>
<path d="M133.359 376.51L133.369 405.5" stroke="#7EB2E7" stroke-width="2"/>
<path d="M261.329 376.5L261.289 405.5" stroke="#327FB5" stroke-width="2"/>
<path d="M384.949 376.5L384.809 405.5" stroke="#3199B4" stroke-width="2"/>
<path d="M509.87 376.51L509.75 405.5" stroke="#4A7F9B" stroke-width="2"/>
<path d="M633.811 376.52L633.801 405.5" stroke="#4C659B" stroke-width="2"/>
<path d="M757.841 376.609L757.801 405.499" stroke="#99647D" stroke-width="2"/>
<path d="M885.461 376.6L885.511 405.5" stroke="#E74B47" stroke-width="2"/>
<path d="M1009.08 376.52C1009.66 386.126 1009.73 395.786 1009.28 405.5" stroke="#FF6644" stroke-width="2"/>
<path d="M1136.48 376.5L1136.51 405.5" stroke="#CD4A60" stroke-width="2"/>
<path d="M1260.65 376.5L1260.63 405.5" stroke="#671767" stroke-width="2"/>
<path d="M1384.46 376.488L1384.51 405.498" stroke="#4E0034" stroke-width="2"/>
<path d="M1508.48 376.488L1508.53 405.498" stroke="#9B334C" stroke-width="2"/>
<path d="M1632.33 376.5L1632.38 405.5" stroke="#B4667F" stroke-width="2"/>
<path d="M1756.52 376.5L1756.51 405.5" stroke="#674C81" stroke-width="2"/>
<path d="M2006.91 376.51L2006.63 405.49" stroke="#4D4C82" stroke-width="2"/>
<path d="M1384.69 278.371C1384.24 278.584 1383.91 278.911 1383.7 279.351C1378.42 290.257 1372.85 301.207 1366.98 312.201C1363.91 317.951 1360.38 323.241 1357.5 328.841C1357.32 329.198 1357.04 329.498 1356.7 329.707C1356.36 329.915 1355.97 330.024 1355.57 330.021C1334.48 329.967 1313.49 329.981 1292.59 330.061C1290.62 330.067 1288.71 329.887 1286.86 329.521C1286.35 329.421 1286.29 329.204 1286.7 328.871C1287.57 328.151 1288.29 327.297 1288.84 326.311C1291.22 322.051 1293.66 317.781 1295.83 313.401C1301.74 301.494 1308 289.927 1314.61 278.701C1318.06 272.834 1321.29 266.964 1324.29 261.091C1329.95 249.997 1336.21 238.611 1343.08 226.931C1348.3 218.051 1353.84 206.081 1359.53 196.151C1365.21 186.251 1370.65 176.811 1376.12 166.121C1380.56 157.434 1385.11 149.164 1389.78 141.311C1393.31 135.371 1398.96 124.791 1406.73 109.571C1410.33 102.521 1414.94 95.7907 1418.71 88.7107C1423.31 80.0907 1427.85 71.514 1432.34 62.9807C1435.77 56.4507 1439.78 50.0207 1443.3 43.6107C1449.49 32.344 1456.09 19.764 1463.11 5.87066C1463.18 5.72415 1463.29 5.59803 1463.42 5.5036C1463.56 5.40916 1463.71 5.34936 1463.88 5.32955C1464.04 5.30973 1464.2 5.33052 1464.36 5.39005C1464.51 5.44958 1464.64 5.54599 1464.75 5.67066C1465.68 6.77733 1466.55 8.10733 1467.35 9.66066C1472.67 20.0073 1478.03 30.2373 1483.44 40.3507C1486.86 46.7407 1490.92 52.5607 1494.11 58.7507C1499.18 68.5973 1504.19 78.0207 1509.12 87.0207C1513.78 95.5406 1519.19 103.921 1523.75 113.061C1528.26 122.121 1532.53 130.054 1536.55 136.861C1541.89 145.921 1547.02 155.254 1551.95 164.861C1555.06 170.927 1558.28 176.817 1561.61 182.531C1568.58 194.497 1575.25 206.811 1581.63 219.471C1584.85 225.871 1589.26 232.131 1592.78 238.751C1597.29 247.197 1601.73 255.634 1606.11 264.061C1610.19 271.901 1615.06 279.251 1619.27 287.181C1623.51 295.147 1627.74 303.151 1631.95 311.191C1635.39 317.751 1638.76 323.474 1642.07 328.361C1642.81 329.454 1642.52 330.001 1641.2 330.001H1573.54C1573.08 330.001 1572.63 329.874 1572.24 329.634C1571.85 329.394 1571.53 329.05 1571.32 328.641C1567.68 321.541 1562.65 313.561 1559.41 307.621C1554.3 298.221 1549.44 288.821 1544.84 279.421C1544.63 278.992 1544.3 278.631 1543.9 278.378C1543.49 278.125 1543.03 277.991 1542.55 277.991C1489.18 278.004 1437.14 278.004 1386.45 277.991C1385.83 277.991 1385.24 278.117 1384.69 278.371ZM1464.41 133.881C1464.38 133.781 1464.33 133.691 1464.26 133.611C1463.99 133.244 1463.73 133.251 1463.48 133.631C1461.37 136.901 1460.18 140.501 1458.33 143.891C1454.22 151.397 1450.22 159.017 1446.31 166.751C1442.54 174.211 1437.04 182.271 1433.88 188.401C1429.66 196.574 1425.21 204.874 1420.54 213.301C1420.09 214.114 1419.82 215.264 1419.75 216.751C1419.73 217.104 1419.9 217.251 1420.25 217.191C1421 217.071 1421.75 217.007 1422.49 217.001C1451.14 216.961 1479.77 216.967 1508.38 217.021C1508.74 217.021 1508.88 216.847 1508.8 216.501C1508.35 214.507 1507.71 212.707 1506.87 211.101C1503.15 203.971 1498.91 197.041 1495.27 189.661C1491.81 182.641 1487.36 175.921 1483.58 168.981C1477.77 158.314 1471.9 147.131 1465.97 135.431C1465.72 134.937 1465.33 134.577 1464.82 134.351C1464.72 134.306 1464.63 134.242 1464.56 134.161C1464.49 134.08 1464.44 133.984 1464.41 133.881Z" fill="#2E2F39"/>
<path d="M210.588 279.66C204.022 293.113 197.102 306.596 189.828 320.11C188.248 323.06 186.258 325.7 184.598 328.58C184.35 329.014 183.989 329.375 183.554 329.626C183.118 329.877 182.623 330.01 182.118 330.01C162.238 329.983 140.698 329.99 117.498 330.03C116.538 330.036 115.608 329.856 114.708 329.49C114.402 329.37 114.332 329.163 114.498 328.87C114.745 328.45 114.968 328.053 115.168 327.68C120.328 318.18 125.868 307.716 131.788 296.29C133.615 292.776 135.738 289 138.158 284.96C146.718 270.71 153.648 255.62 162.178 241C167.885 231.22 173.172 221.573 178.038 212.06C180.985 206.313 184.188 200.44 187.648 194.44C194.202 183.107 200.738 170.99 207.258 158.09C208.158 156.316 210.128 152.936 213.168 147.95C219.948 136.84 225.838 124.88 231.808 113.47C235.718 105.99 241.358 97.3198 244.568 90.9798C250.702 78.8265 257.305 66.6032 264.378 54.3098C272.338 40.4798 279.188 27.0298 286.438 13.3198C287.708 10.9198 289.198 8.88983 290.508 6.59983C291.288 5.24649 292.035 5.26649 292.748 6.65983C298.902 18.6998 304.872 29.9432 310.658 40.3898C314.258 46.8898 318.288 53.0598 321.598 59.6398C326.958 70.2932 332.658 80.8132 338.698 91.1998C345.448 102.8 351.358 114.42 357.618 126.13C360.978 132.39 364.988 138.68 368.258 144.74C373.738 154.907 379.155 165.113 384.508 175.36C386.078 178.35 388.278 181.19 389.958 184.23C395.332 194.01 400.628 203.983 405.848 214.15C407.735 217.823 409.668 221.276 411.648 224.51C418.728 236.08 424.788 248.08 431.318 260.62C436.148 269.88 441.768 278.02 446.318 287.09C453.612 301.61 461.202 315.366 469.088 328.36C469.748 329.453 469.438 330 468.158 330H400.348C399.912 330 399.484 329.879 399.112 329.652C398.739 329.424 398.437 329.098 398.238 328.71C393.778 319.97 389.148 311.8 384.218 303.34C379.848 295.81 375.788 287.25 371.598 279.28C371.393 278.893 371.086 278.57 370.711 278.344C370.336 278.119 369.906 278 369.468 278H213.248C212.694 278 212.151 278.155 211.68 278.449C211.21 278.742 210.832 279.162 210.588 279.66ZM307.348 163C302.348 153.54 297.398 144.52 292.858 135.06C292.105 133.48 291.298 133.453 290.438 134.98C285.668 143.46 280.878 151.69 276.498 160.5C272.838 167.867 269.032 174.893 265.078 181.58C261.732 187.24 258.742 192.54 256.108 197.48C253.255 202.813 250.362 208.166 247.428 213.54C246.868 214.56 246.998 215.74 246.738 216.85C246.727 216.908 246.728 216.969 246.742 217.027C246.756 217.084 246.782 217.139 246.819 217.185C246.857 217.232 246.903 217.27 246.957 217.297C247.01 217.323 247.069 217.338 247.128 217.34C247.255 217.34 247.365 217.293 247.458 217.2C247.612 217.046 247.798 216.97 248.018 216.97L335.248 217C335.575 217 335.715 216.843 335.668 216.53C335.388 214.496 334.745 212.573 333.738 210.76C330.008 204.06 326.208 197.5 322.768 190.52C318.008 180.87 312.248 172.29 307.348 163Z" fill="#2E2F39"/>
<path d="M539.779 22.0898C539.825 22.3165 539.869 22.4865 539.909 22.5998C539.975 22.7665 540.009 22.9398 540.009 23.1198C539.995 42.5265 539.995 61.9332 540.009 81.3398C540.009 81.6132 540.072 81.8665 540.199 82.0998C540.259 82.1998 540.339 82.2765 540.439 82.3298C540.919 82.5698 540.942 82.8232 540.509 83.0898L539.959 83.4298L538.599 83.5398C538.407 83.5551 538.214 83.5304 538.033 83.4674C537.851 83.4043 537.685 83.3044 537.544 83.1738C537.403 83.0431 537.29 82.8847 537.214 82.7085C537.137 82.5322 537.098 82.342 537.099 82.1498L537.059 22.7598C537.059 22.4198 537.232 22.2398 537.579 22.2198L539.779 22.0898Z" fill="#15161D" fill-opacity="0.482"/>
<path d="M539.961 83.4298L540.511 83.0898C540.945 82.8232 540.921 82.5698 540.441 82.3298C540.341 82.2765 540.261 82.1998 540.201 82.0998C540.075 81.8665 540.011 81.6132 540.011 81.3398C539.998 61.9332 539.998 42.5265 540.011 23.1198C540.011 22.9398 539.978 22.7665 539.911 22.5998C539.871 22.4865 539.828 22.3165 539.781 22.0898L805.361 22.1598C805.708 22.1598 805.881 22.3332 805.881 22.6798C805.921 41.2398 805.915 61.1532 805.861 82.4198C805.861 82.5807 805.826 82.7396 805.761 82.8864C805.695 83.0331 805.599 83.1645 805.479 83.2719C805.36 83.3793 805.219 83.4605 805.066 83.5101C804.913 83.5597 804.751 83.5766 804.591 83.5598C802.745 83.3665 800.991 83.2698 799.331 83.2698C767.265 83.1632 735.451 83.1432 703.891 83.2098C703.655 83.2098 703.429 83.3036 703.262 83.4705C703.095 83.6374 703.001 83.8638 703.001 84.0998C703.028 158.013 703.031 231.99 703.011 306.03C703.005 313.077 703.075 319.99 703.221 326.77C703.228 327.056 703.135 327.303 702.941 327.51C702.575 327.91 702.458 328.387 702.591 328.94C702.623 329.065 702.626 329.195 702.599 329.322C702.572 329.448 702.517 329.567 702.437 329.669C702.357 329.771 702.254 329.854 702.137 329.911C702.02 329.969 701.892 329.999 701.761 330H642.501C642.168 330 642.001 329.833 642.001 329.5V84.1998C642.001 84.0292 641.934 83.8653 641.814 83.7437C641.695 83.6221 641.532 83.5525 641.361 83.5498L539.961 83.4298Z" fill="#2E2F39"/>
<path d="M964.7 22.0391L964.82 329.989L962.539 329.869C962.193 329.856 962.023 329.672 962.03 329.319C962.14 315.429 962.539 301.689 962.549 287.869C962.616 210.929 962.606 134.362 962.52 58.1691C962.5 46.4791 962.1 34.4591 962.02 22.6091C962.02 22.2557 962.196 22.0757 962.549 22.0691L964.7 22.0391Z" fill="#15161D" fill-opacity="0.482"/>
<path d="M964.819 329.99L964.699 22.0398L1024.33 22.0098C1024.42 22.0098 1024.5 22.0268 1024.59 22.06C1024.67 22.0932 1024.74 22.1418 1024.8 22.2031C1024.87 22.2644 1024.91 22.3371 1024.95 22.4172C1024.98 22.4973 1025 22.5831 1025 22.6698C1025 104.416 1025 185.84 1025 266.94C1025 267.76 1025.21 268.613 1025.63 269.5C1025.7 269.646 1025.82 269.706 1025.98 269.68C1026.04 269.67 1026.1 269.643 1026.14 269.601C1026.19 269.558 1026.22 269.504 1026.23 269.444C1026.25 269.383 1026.24 269.32 1026.22 269.263C1026.2 269.205 1026.16 269.155 1026.11 269.12C1026.01 269.053 1025.98 268.963 1026.01 268.85C1026.06 268.676 1026.18 268.596 1026.37 268.61C1030.62 268.85 1034.83 268.97 1039.02 268.97C1090.29 269.01 1139.61 269.003 1186.98 268.95C1187.55 268.95 1188.12 268.873 1188.69 268.72C1188.84 268.678 1189 268.673 1189.16 268.703C1189.31 268.733 1189.46 268.799 1189.58 268.894C1189.71 268.99 1189.81 269.113 1189.88 269.255C1189.95 269.396 1189.99 269.552 1189.99 269.71L1190 329.28C1190 329.471 1189.92 329.654 1189.79 329.789C1189.66 329.924 1189.48 330 1189.29 330L964.819 329.99Z" fill="#2E2F39"/>
<path d="M1841.47 23.0897C1841.37 23.0964 1841.31 23.0397 1841.3 22.9197C1841.29 22.8875 1841.29 22.8545 1841.3 22.8227C1841.31 22.7909 1841.33 22.761 1841.35 22.7348C1841.37 22.7086 1841.39 22.6866 1841.42 22.6703C1841.45 22.6539 1841.48 22.6435 1841.52 22.6397C1849.02 21.8597 1856.29 22.1697 1863.9 22.1297C1866.32 22.1097 1868.49 22.3997 1870.42 22.9997C1871.84 23.4464 1873.09 23.7464 1874.16 23.8997C1893.69 26.7897 1910.46 37.5497 1923.08 50.7997C1929.63 57.6597 1934.64 66.3797 1939.25 74.7897C1941.69 79.2364 1943.55 84.023 1944.83 89.1497C1945.18 90.5297 1945.33 91.9264 1945.28 93.3397C1945.28 93.4132 1945.25 93.4839 1945.21 93.5427C1945.17 93.6015 1945.11 93.6457 1945.04 93.6697C1926.01 100.196 1907.74 106.4 1890.21 112.28C1889.28 112.593 1888.3 112.85 1887.27 113.05C1886.6 113.176 1886.23 112.9 1886.16 112.22C1885.17 103.24 1881.03 95.5597 1873.75 89.1797C1871.46 87.173 1869.1 85.7664 1866.65 84.9597C1856.06 81.493 1846.44 82.833 1837.81 88.9797C1835.15 90.873 1832.57 93.6597 1830.06 97.3397C1823.13 107.53 1823.33 121.55 1830.55 131.4C1836.68 139.78 1846.09 145.24 1856.52 145.04C1861.29 144.95 1866.83 144.76 1871.3 146.39C1873.47 147.18 1876.05 146.91 1878.43 147.56C1886.48 149.746 1893.05 152.18 1898.14 154.86C1910.15 161.193 1920.34 169.863 1928.72 180.87C1931.63 184.683 1934.89 189.89 1938.52 196.49C1942.36 203.476 1944.72 209.923 1945.59 215.83C1945.93 218.17 1946.33 220.18 1946.78 221.86C1947.34 223.926 1947.67 225.906 1947.77 227.8C1948.07 233.546 1948.1 239.446 1947.86 245.5C1947.76 248.073 1947.44 250.553 1946.9 252.94C1946.37 255.313 1945.83 257.78 1945.28 260.34C1943.87 266.91 1941.73 273.01 1938.04 279.19C1935.42 283.596 1932.85 287.77 1930.33 291.71C1924.66 300.58 1917.49 306.5 1909.04 313.02C1899.15 320.646 1887.83 325.633 1875.08 327.98C1872.21 328.51 1869.25 329.6 1866.36 329.75C1859.65 330.096 1853.62 330.106 1848.25 329.78C1832.95 328.84 1815.06 323.21 1802.54 313.42C1793.88 306.66 1785.08 299.17 1779.19 289.74C1773.34 280.38 1768.28 269.77 1766.63 258.89C1766.55 258.39 1766.75 258.056 1767.23 257.89C1782.5 252.596 1797.6 247.363 1812.51 242.19C1816.56 240.79 1820.44 238.92 1824.18 236.85C1824.22 236.825 1824.27 236.811 1824.32 236.809C1824.37 236.806 1824.42 236.816 1824.47 236.836C1824.51 236.857 1824.55 236.887 1824.58 236.926C1824.62 236.965 1824.64 237.011 1824.65 237.06C1825.12 239.38 1825.2 241.76 1825.7 244.07C1827.54 252.603 1832.61 259.44 1840.9 264.58C1849.07 269.64 1857.69 270.383 1866.78 266.81C1869.77 265.636 1872.88 263.456 1876.09 260.27C1883.99 252.436 1887.13 243.133 1885.52 232.36C1884.95 228.573 1883.67 225 1881.66 221.64C1876.78 213.46 1869.94 207.58 1860.14 206.63C1855.47 206.176 1851 205.793 1846.71 205.48C1829.91 204.25 1812.78 198.04 1799.93 187.31C1792.08 180.74 1784.62 174.26 1779.07 165.61C1772.84 155.896 1768.49 145.38 1766.01 134.06C1764.59 127.58 1764.42 120.4 1764.01 113.63C1764 113.536 1763.96 113.47 1763.88 113.43C1763.85 113.41 1763.81 113.396 1763.77 113.39C1763.57 113.336 1763.57 113.32 1763.78 113.34C1763.82 113.346 1763.85 113.333 1763.87 113.3C1763.9 113.26 1763.91 113.213 1763.91 113.16C1764.18 95.573 1768.78 79.3364 1777.71 64.4497C1780.79 59.323 1784.78 54.4197 1789.67 49.7397C1795.34 44.3197 1800.19 40.1464 1804.22 37.2197C1810.67 32.5464 1819.78 28.423 1831.53 24.8497C1834.86 23.8397 1838.11 24.0097 1841.49 23.2197C1842.01 23.093 1842 23.0497 1841.47 23.0897Z" fill="#2E2F39"/>
<path d="M133.36 376.51L133.37 405.5L6.27 405.49C6.19839 405.49 6.12972 405.461 6.07908 405.411C6.02845 405.36 6 405.291 6 405.22V376.79C6 376.721 6.02739 376.655 6.07615 376.606C6.12491 376.557 6.19104 376.53 6.26 376.53L133.36 376.51Z" fill="#97CBFF"/>
<path d="M133.359 376.51L261.329 376.5L261.289 405.5H133.369L133.359 376.51Z" fill="#6498CE"/>
<path d="M261.329 376.5H384.949L384.809 405.5H261.289L261.329 376.5Z" fill="#00659B"/>
<path d="M384.949 376.5L509.869 376.51L509.749 405.5H384.809L384.949 376.5Z" fill="#61CCCD"/>
<path d="M509.87 376.51L633.81 376.52L633.8 405.5H509.75L509.87 376.51Z" fill="#333268"/>
<path d="M633.811 376.52L757.841 376.61L757.801 405.5H633.801L633.811 376.52Z" fill="#6498CE"/>
<path d="M885.461 376.6L885.511 405.5H757.801L757.841 376.61L885.461 376.6Z" fill="#CE302C"/>
<path d="M885.461 376.6L1009.08 376.52C1009.67 386.126 1009.73 395.786 1009.28 405.5H885.511L885.461 376.6Z" fill="#FF6562"/>
<path d="M1009.08 376.52L1136.48 376.5L1136.51 405.5H1009.28C1009.73 395.787 1009.66 386.127 1009.08 376.52Z" fill="#FF6626"/>
<path d="M1136.48 376.5H1260.65L1260.63 405.5H1136.51L1136.48 376.5Z" fill="#9A2D9A"/>
<path d="M1260.65 376.5L1384.46 376.49L1384.51 405.5H1260.63L1260.65 376.5Z" fill="#340034"/>
<path d="M1384.46 376.49H1508.48L1508.53 405.5H1384.51L1384.46 376.49Z" fill="#670033"/>
<path d="M1508.48 376.49L1632.33 376.5L1632.38 405.5H1508.53L1508.48 376.49Z" fill="#CE6664"/>
<path d="M1632.33 376.5H1756.52L1756.51 405.5H1632.38L1632.33 376.5Z" fill="#9A659A"/>
<path d="M1756.52 376.5L2006.91 376.51L2006.63 405.49L1756.51 405.5L1756.52 376.5Z" fill="#333268"/>
<path d="M2006.91 376.51L2127.8 376.56C2127.92 376.56 2128.03 376.606 2128.12 376.689C2128.2 376.771 2128.25 376.883 2128.25 377V404.95C2128.25 405.29 2128.08 405.46 2127.73 405.46L2006.63 405.49L2006.91 376.51Z" fill="#66659B"/>
<path d="M136.16 546.441C130.147 560.148 119.3 566.301 103.62 564.901C85.7704 563.301 77.3804 548.551 74.7804 532.131C73.2004 522.184 72.8104 511.724 73.6104 500.751C74.9104 482.871 80.9804 460.291 102.71 458.171C105.557 457.898 108.474 457.864 111.46 458.071C130.41 459.381 138.33 476.221 140.72 492.881C142.374 504.428 142.464 516.171 140.99 528.111C140.157 534.898 138.547 541.008 136.16 546.441ZM111.03 468.491C82.1804 463.591 84.0904 511.891 86.3504 527.531C87.8404 537.891 92.8704 553.541 105.53 554.721C120.1 556.071 126.6 543.291 128.54 531.201C130.814 517.108 130.6 503.488 127.9 490.341C126.14 481.771 120.86 470.171 111.03 468.491Z" fill="#333333"/>
<path d="M452.309 554.541C459.282 555.561 465.786 554.047 471.819 550.001C471.847 549.982 471.879 549.97 471.912 549.966C471.945 549.963 471.979 549.967 472.01 549.978C472.041 549.99 472.069 550.009 472.092 550.034C472.114 550.059 472.131 550.088 472.139 550.121L474.729 559.041C474.782 559.214 474.739 559.357 474.599 559.471C468.069 564.891 457.129 565.591 448.949 564.841C426.969 562.841 419.379 541.871 417.709 522.981C415.859 502.111 417.979 468.201 442.279 459.761C446.566 458.267 451.762 457.674 457.869 457.981C463.089 458.241 468.162 459.297 473.089 461.151C473.252 461.215 473.386 461.335 473.465 461.488C473.545 461.641 473.564 461.817 473.519 461.981L471.029 471.221C470.902 471.681 470.632 471.791 470.219 471.551C464.929 468.481 457.749 467.741 451.919 468.371C443.299 469.291 437.059 475.571 433.829 483.391C428.819 495.521 428.439 510.371 429.809 523.281C431.199 536.331 437.279 552.341 452.309 554.541Z" fill="#333333"/>
<path d="M576.07 527.551C573.56 548.601 564.08 566.831 539.27 564.961C520.74 563.571 512.05 548.331 509.64 531.211C507.493 515.938 507.726 501.621 510.34 488.261C514.29 468.121 525.87 456.161 547.06 458.131C565.3 459.831 573.06 475.721 575.55 491.901C577.343 503.568 577.516 515.451 576.07 527.551ZM545.73 468.441C517.12 464.021 519.08 512.031 521.39 527.741C522.89 537.991 527.91 553.471 540.38 554.711C554.97 556.161 561.54 543.461 563.51 531.351C565.79 517.318 565.616 503.798 562.99 490.791C561.21 481.981 555.98 470.021 545.73 468.441Z" fill="#333333"/>
<path d="M628.8 482.52C629.37 489 630.29 495.36 630.28 501.91C630.24 521.897 630.233 542.08 630.26 562.46C630.26 562.82 630.083 563 629.73 563H619.75C619.617 563 619.49 562.947 619.396 562.854C619.303 562.76 619.25 562.633 619.25 562.5V458.5C619.25 458.367 619.303 458.24 619.396 458.146C619.49 458.053 619.617 458 619.75 458H625.73C626.137 458 626.44 458.177 626.64 458.53C638.053 478.657 649.883 499.43 662.13 520.85C663.903 523.957 665.393 527.11 666.6 530.31C667.853 533.623 669.107 536.89 670.36 540.11C670.72 541.03 670.867 541 670.8 540.02C670.33 533.5 669.25 526.94 669.25 520.41C669.25 499.557 669.25 479.263 669.25 459.53C669.25 459.177 669.423 459 669.77 459H679.75C680.083 459 680.25 459.167 680.25 459.5V564.5C680.25 564.633 680.197 564.76 680.104 564.854C680.01 564.947 679.883 565 679.75 565H673.76C673.327 565 673.007 564.813 672.8 564.44C660.94 543.26 649.317 522.66 637.93 502.64C635.957 499.167 634.377 495.83 633.19 492.63C631.917 489.197 630.577 485.797 629.17 482.43C628.843 481.65 628.72 481.68 628.8 482.52Z" fill="#333333"/>
<path d="M791.081 527.52C788.651 548.53 779.171 566.64 754.461 564.99C733.821 563.61 726.101 545.42 724.141 527.55C721.771 505.98 721.521 461.43 752.541 458.2C755.675 457.874 758.838 457.847 762.031 458.12C781.111 459.76 788.661 477.3 790.871 493.83C792.338 504.864 792.408 516.094 791.081 527.52ZM759.161 468.26C732.031 466.22 734.131 512.16 736.361 527.62C737.771 537.41 742.711 552.81 754.271 554.54C769.431 556.81 776.431 544.07 778.491 531.43C780.718 517.844 780.638 504.69 778.251 491.97C776.331 481.75 770.811 469.13 759.161 468.26Z" fill="#333333"/>
<path d="M1048.31 554.54C1055.33 555.547 1061.83 554.033 1067.82 550C1067.85 549.981 1067.88 549.969 1067.91 549.966C1067.95 549.962 1067.98 549.966 1068.01 549.978C1068.04 549.989 1068.07 550.008 1068.09 550.033C1068.12 550.058 1068.13 550.088 1068.14 550.12L1070.73 559.03C1070.79 559.217 1070.74 559.37 1070.59 559.49C1063.93 564.89 1053.19 565.6 1044.91 564.84C1022.99 562.81 1015.26 541.77 1013.69 522.84C1012.91 513.353 1013.09 504.417 1014.22 496.03C1016.57 478.63 1025.53 460.34 1045.23 458.23C1053.75 457.317 1061.72 458.313 1069.15 461.22C1069.29 461.274 1069.41 461.379 1069.48 461.516C1069.55 461.653 1069.56 461.811 1069.52 461.96L1067.03 471.22C1066.91 471.693 1066.63 471.803 1066.2 471.55C1061.14 468.51 1054.04 467.81 1048.28 468.33C1031.2 469.87 1026.16 490.03 1025.41 503.96C1025.05 510.66 1025.17 516.987 1025.78 522.94C1027.14 536.12 1033.17 552.36 1048.31 554.54Z" fill="#333333"/>
<path d="M1196.45 554.57C1203.49 555.504 1209.95 553.98 1215.82 550C1215.85 549.982 1215.88 549.97 1215.91 549.966C1215.95 549.962 1215.98 549.966 1216.01 549.978C1216.04 549.99 1216.07 550.009 1216.09 550.033C1216.12 550.058 1216.13 550.088 1216.14 550.12L1218.73 559.03C1218.78 559.217 1218.74 559.37 1218.59 559.49C1211.98 564.88 1201.16 565.6 1192.92 564.84C1170.79 562.79 1163.18 541.45 1161.66 522.46C1160 501.64 1162.07 468.15 1186.27 459.77C1190.64 458.257 1195.91 457.66 1202.06 457.98C1207.35 458.254 1212.38 459.34 1217.14 461.24C1217.28 461.294 1217.4 461.4 1217.47 461.536C1217.54 461.673 1217.55 461.831 1217.51 461.98L1215.02 471.23C1214.89 471.73 1214.6 471.837 1214.17 471.55C1210.41 469.04 1204.67 468.27 1199.91 468.17C1180.07 467.75 1174.24 487.93 1173.39 504.31C1172.76 516.36 1173.27 528.92 1178.09 539.58C1181.48 547.1 1188.04 553.44 1196.45 554.57Z" fill="#333333"/>
<path d="M1319.93 528.701C1317.27 549.581 1307.36 566.791 1283.13 564.961C1264.5 563.541 1256.13 548.031 1253.66 531.411C1252.01 520.351 1251.76 509.021 1252.9 497.421C1254.65 479.661 1261.42 460.701 1281.33 458.251C1304.95 455.341 1316.36 470.591 1319.59 492.091C1321.4 504.084 1321.51 516.287 1319.93 528.701ZM1289.68 468.421C1261.13 464.261 1263.09 511.681 1265.36 527.561C1266.86 538.071 1271.98 553.781 1284.87 554.761C1299 555.831 1305.47 543.561 1307.44 531.691C1309.75 517.737 1309.64 504.287 1307.11 491.341C1305.37 482.441 1300.15 469.951 1289.68 468.421Z" fill="#333333"/>
<path d="M1495.75 524.291V562.251C1495.75 562.751 1495.5 563.001 1495 563.001H1485C1484.67 563.001 1484.5 562.834 1484.5 562.501V460.751C1484.5 460.526 1484.58 460.308 1484.72 460.132C1484.86 459.956 1485.05 459.833 1485.27 459.781C1491.57 458.368 1498.72 457.758 1506.71 457.951C1513.88 458.121 1521.42 459.491 1527.18 464.041C1532.55 468.288 1535.83 474.024 1537.04 481.251C1537.92 486.491 1538.02 491.514 1537.35 496.321C1535.24 511.334 1527.25 520.334 1513.38 523.321C1508.17 524.441 1501.84 524.141 1496.37 523.721C1495.96 523.694 1495.75 523.884 1495.75 524.291ZM1525.6 485.941C1524.83 477.591 1520.05 470.311 1511.44 468.741C1506.65 467.871 1500.96 468.031 1496.08 468.891C1495.99 468.905 1495.91 468.952 1495.84 469.024C1495.78 469.095 1495.75 469.186 1495.75 469.281V512.741C1495.75 513.141 1495.95 513.368 1496.35 513.421C1502.3 514.201 1507.44 514.041 1511.78 512.941C1523.73 509.931 1526.64 497.091 1525.6 485.941Z" fill="#333333"/>
<path d="M196.07 506H227.93C228.015 506 228.096 506.034 228.156 506.094C228.216 506.154 228.25 506.235 228.25 506.32V515.68C228.25 515.722 228.242 515.764 228.226 515.802C228.21 515.841 228.186 515.877 228.156 515.906C228.127 515.936 228.091 515.96 228.052 515.976C228.014 515.992 227.972 516 227.93 516H196.07C196.028 516 195.986 516.008 195.948 516.024C195.909 516.04 195.873 516.064 195.844 516.094C195.814 516.123 195.79 516.159 195.774 516.198C195.758 516.236 195.75 516.278 195.75 516.32V562.68C195.75 562.722 195.742 562.764 195.726 562.802C195.71 562.841 195.686 562.877 195.656 562.906C195.627 562.936 195.591 562.96 195.552 562.976C195.514 562.992 195.472 563 195.43 563H184.82C184.778 563 184.736 562.992 184.698 562.976C184.659 562.96 184.623 562.936 184.594 562.906C184.564 562.877 184.54 562.841 184.524 562.802C184.508 562.764 184.5 562.722 184.5 562.68V459.32C184.5 459.235 184.534 459.154 184.594 459.094C184.654 459.034 184.735 459 184.82 459H230.18C230.265 459 230.346 459.034 230.406 459.094C230.466 459.154 230.5 459.235 230.5 459.32V468.68C230.5 468.765 230.466 468.846 230.406 468.906C230.346 468.966 230.265 469 230.18 469H196.07C195.985 469 195.904 469.034 195.844 469.094C195.784 469.154 195.75 469.235 195.75 469.32V505.68C195.75 505.765 195.784 505.846 195.844 505.906C195.904 505.966 195.985 506 196.07 506Z" fill="#333333"/>
<path d="M342.07 553H376.93C376.972 553 377.014 553.008 377.052 553.024C377.091 553.04 377.127 553.064 377.156 553.094C377.186 553.123 377.21 553.159 377.226 553.198C377.242 553.236 377.25 553.278 377.25 553.32V562.68C377.25 562.722 377.242 562.764 377.226 562.802C377.21 562.841 377.186 562.877 377.156 562.906C377.127 562.936 377.091 562.96 377.052 562.976C377.014 562.992 376.972 563 376.93 563H330.82C330.778 563 330.736 562.992 330.698 562.976C330.659 562.96 330.623 562.936 330.594 562.906C330.564 562.877 330.54 562.841 330.524 562.802C330.508 562.764 330.5 562.722 330.5 562.68V459.32C330.5 459.235 330.534 459.154 330.594 459.094C330.654 459.034 330.735 459 330.82 459H376.18C376.265 459 376.346 459.034 376.406 459.094C376.466 459.154 376.5 459.235 376.5 459.32V468.68C376.5 468.765 376.466 468.846 376.406 468.906C376.346 468.966 376.265 469 376.18 469H342.07C341.985 469 341.904 469.034 341.844 469.094C341.784 469.154 341.75 469.235 341.75 469.32V503.68C341.75 503.765 341.784 503.846 341.844 503.906C341.904 503.966 341.985 504 342.07 504H373.43C373.515 504 373.596 504.034 373.656 504.094C373.716 504.154 373.75 504.235 373.75 504.32L373.76 513.68C373.76 513.722 373.752 513.764 373.736 513.802C373.72 513.841 373.696 513.877 373.666 513.906C373.637 513.936 373.601 513.96 373.562 513.976C373.524 513.992 373.482 514 373.44 514H342.07C342.028 514 341.986 514.008 341.948 514.024C341.909 514.04 341.873 514.064 341.844 514.094C341.814 514.123 341.79 514.159 341.774 514.198C341.758 514.236 341.75 514.278 341.75 514.32V552.68C341.75 552.722 341.758 552.764 341.774 552.802C341.79 552.841 341.814 552.877 341.844 552.906C341.873 552.936 341.909 552.96 341.948 552.976C341.986 552.992 342.028 553 342.07 553Z" fill="#333333"/>
<path d="M899.82 479.58C899.823 479.529 899.807 479.477 899.775 479.436C899.743 479.395 899.698 479.366 899.648 479.356C899.598 479.346 899.547 479.356 899.504 479.382C899.462 479.409 899.432 479.451 899.42 479.5C897.47 485.44 895.91 491.46 893.29 497.15C887.263 510.217 880.893 524.02 874.18 538.56C874.047 538.853 873.82 539 873.5 539H870.49C870.09 539 869.803 538.82 869.63 538.46C862.943 524.487 856.52 511.187 850.36 498.56C847.32 492.32 845.67 485.78 843.59 479.4C843.557 479.3 843.49 479.263 843.39 479.29H843.38C843.287 479.31 843.247 479.37 843.26 479.47C843.747 482.997 844.22 486.483 844.68 489.93C845.12 493.19 845.33 496.703 845.31 500.47C845.223 520.303 845.213 540.96 845.28 562.44C845.28 562.813 845.09 563 844.71 563H834.75C834.417 563 834.25 562.833 834.25 562.5V459.5C834.25 459.367 834.303 459.24 834.396 459.146C834.49 459.053 834.617 459 834.75 459H843.5C843.65 459 843.797 459.042 843.925 459.122C844.052 459.201 844.154 459.315 844.22 459.45C851.933 475.31 859.757 491.377 867.69 507.65C869.78 511.93 870.82 516.71 872.26 521.21C872.493 521.943 872.723 521.94 872.95 521.2C874.45 516.31 875.48 511.46 877.71 506.68C885.01 491.073 892.33 475.317 899.67 459.41C899.797 459.137 900.01 459 900.31 459H909.25C909.583 459 909.75 459.167 909.75 459.5V562.25C909.75 562.75 909.5 563 909 563H899.04C898.68 563 898.5 562.82 898.5 562.46C898.493 541.793 898.493 520.843 898.5 499.61C898.5 492.89 899.45 486.25 899.82 479.58Z" fill="#333333"/>
<path d="M968.712 459H957.792C957.637 459 957.512 459.125 957.512 459.28V562.72C957.512 562.875 957.637 563 957.792 563H968.712C968.866 563 968.992 562.875 968.992 562.72V459.28C968.992 459.125 968.866 459 968.712 459Z" fill="#333333"/>
<path d="M1428.84 479.65C1428.85 479.588 1428.83 479.525 1428.79 479.475C1428.75 479.425 1428.7 479.391 1428.64 479.38C1428.57 479.369 1428.51 479.381 1428.46 479.414C1428.41 479.448 1428.37 479.5 1428.35 479.56C1426.49 485.74 1424.66 492.03 1421.98 497.84C1415.74 511.36 1409.47 524.937 1403.16 538.57C1403.03 538.857 1402.81 539 1402.5 539H1399.48C1399.08 539 1398.79 538.82 1398.62 538.46C1392.66 525.947 1386.47 513.13 1380.05 500.01C1378.2 496.23 1376.82 492.897 1375.93 490.01C1374.84 486.503 1373.73 482.967 1372.61 479.4C1372.58 479.307 1372.52 479.27 1372.42 479.29H1372.41C1372.3 479.31 1372.26 479.373 1372.28 479.48C1372.75 483 1373.21 486.493 1373.68 489.96C1374.1 493 1374.3 496.357 1374.29 500.03C1374.24 521.783 1374.23 542.583 1374.27 562.43C1374.27 562.81 1374.08 563 1373.7 563H1363.75C1363.42 563 1363.25 562.833 1363.25 562.5V459.5C1363.25 459.167 1363.42 459 1363.75 459H1372.5C1372.65 459 1372.8 459.042 1372.92 459.122C1373.05 459.201 1373.15 459.315 1373.22 459.45C1380.79 475.023 1388.67 491.19 1396.84 507.95C1398.86 512.09 1399.84 516.87 1401.26 521.28C1401.47 521.913 1401.68 521.913 1401.89 521.28C1403.42 516.62 1404.32 511.88 1406.41 507.36C1413.6 491.887 1421.01 475.94 1428.65 459.52C1428.81 459.173 1429.08 459 1429.47 459H1438.25C1438.58 459 1438.75 459.167 1438.75 459.5V562.25C1438.75 562.75 1438.5 563 1438 563H1428.03C1427.89 563 1427.75 562.943 1427.65 562.842C1427.55 562.741 1427.49 562.603 1427.49 562.46C1427.5 543.127 1427.51 522.177 1427.5 499.61C1427.49 492.96 1428.4 486.27 1428.84 479.65Z" fill="#333333"/>
<path d="M1588.81 553H1627.19C1627.27 553 1627.35 553.033 1627.41 553.091C1627.47 553.149 1627.5 553.228 1627.5 553.31V562.69C1627.5 562.772 1627.47 562.851 1627.41 562.909C1627.35 562.967 1627.27 563 1627.19 563H1577.82C1577.74 563 1577.66 562.967 1577.6 562.909C1577.54 562.851 1577.51 562.772 1577.51 562.69V459.31C1577.51 459.228 1577.54 459.149 1577.6 459.091C1577.66 459.033 1577.74 459 1577.82 459H1588.19C1588.27 459 1588.35 459.033 1588.41 459.091C1588.47 459.149 1588.5 459.228 1588.5 459.31V552.69C1588.5 552.772 1588.53 552.851 1588.59 552.909C1588.65 552.967 1588.73 553 1588.81 553Z" fill="#333333"/>
<path d="M1678.07 553H1712.93C1712.97 553 1713.01 553.008 1713.05 553.024C1713.09 553.04 1713.13 553.064 1713.16 553.094C1713.19 553.123 1713.21 553.159 1713.23 553.198C1713.24 553.236 1713.25 553.278 1713.25 553.32V562.68C1713.25 562.722 1713.24 562.764 1713.23 562.802C1713.21 562.841 1713.19 562.877 1713.16 562.906C1713.13 562.936 1713.09 562.96 1713.05 562.976C1713.01 562.992 1712.97 563 1712.93 563H1666.82C1666.78 563 1666.74 562.992 1666.7 562.976C1666.66 562.96 1666.62 562.936 1666.59 562.906C1666.56 562.877 1666.54 562.841 1666.52 562.802C1666.51 562.764 1666.5 562.722 1666.5 562.68V459.32C1666.5 459.235 1666.53 459.154 1666.59 459.094C1666.65 459.034 1666.74 459 1666.82 459H1712.18C1712.26 459 1712.35 459.034 1712.41 459.094C1712.47 459.154 1712.5 459.235 1712.5 459.32V468.68C1712.5 468.765 1712.47 468.846 1712.41 468.906C1712.35 468.966 1712.26 469 1712.18 469H1678.07C1677.99 469 1677.9 469.034 1677.84 469.094C1677.78 469.154 1677.75 469.235 1677.75 469.32V503.68C1677.75 503.765 1677.78 503.846 1677.84 503.906C1677.9 503.966 1677.99 504 1678.07 504H1709.43C1709.51 504 1709.6 504.034 1709.66 504.094C1709.72 504.154 1709.75 504.235 1709.75 504.32L1709.76 513.68C1709.76 513.722 1709.75 513.764 1709.74 513.802C1709.72 513.841 1709.7 513.877 1709.67 513.906C1709.64 513.936 1709.6 513.96 1709.56 513.976C1709.52 513.992 1709.48 514 1709.44 514H1678.07C1678.03 514 1677.99 514.008 1677.95 514.024C1677.91 514.04 1677.87 514.064 1677.84 514.094C1677.81 514.123 1677.79 514.159 1677.77 514.198C1677.76 514.236 1677.75 514.278 1677.75 514.32V552.68C1677.75 552.722 1677.76 552.764 1677.77 552.802C1677.79 552.841 1677.81 552.877 1677.84 552.906C1677.87 552.936 1677.91 552.96 1677.95 552.976C1677.99 552.992 1678.03 553 1678.07 553Z" fill="#333333"/>
<path d="M1783.44 517.82C1782.21 521.31 1781.16 524.83 1779.52 528.19C1773.95 539.577 1768.31 551.057 1762.58 562.63C1762.53 562.741 1762.44 562.835 1762.33 562.9C1762.23 562.966 1762.11 563 1761.98 563H1750.08C1750.03 563.001 1749.98 562.989 1749.94 562.964C1749.89 562.94 1749.86 562.905 1749.83 562.862C1749.81 562.819 1749.79 562.769 1749.79 562.718C1749.79 562.667 1749.8 562.616 1749.82 562.57L1776.61 510.57C1776.68 510.428 1776.72 510.27 1776.73 510.11C1776.73 509.95 1776.69 509.793 1776.62 509.65L1752.22 459.47C1752.19 459.422 1752.18 459.368 1752.18 459.313C1752.19 459.259 1752.2 459.205 1752.23 459.158C1752.26 459.111 1752.3 459.072 1752.35 459.044C1752.4 459.017 1752.45 459.001 1752.51 459H1765.05C1765.46 459 1765.76 459.187 1765.93 459.56C1770.8 470.22 1775.68 480.863 1780.56 491.49C1782.08 494.79 1783.14 498.26 1784.28 501.71C1784.43 502.15 1784.58 502.153 1784.75 501.72C1786.21 497.88 1787.34 494.04 1789.19 490.3C1794.62 479.267 1799.58 469.013 1804.07 459.54C1804.15 459.378 1804.27 459.241 1804.42 459.145C1804.57 459.05 1804.75 458.999 1804.93 459H1816.5C1816.56 459 1816.61 459.015 1816.66 459.044C1816.71 459.072 1816.76 459.114 1816.79 459.163C1816.82 459.213 1816.83 459.27 1816.83 459.329C1816.84 459.388 1816.83 459.447 1816.8 459.5L1791.52 508.61C1791.36 508.923 1791.36 509.237 1791.52 509.55L1818.06 562.62C1818.08 562.66 1818.09 562.704 1818.09 562.748C1818.09 562.793 1818.08 562.836 1818.05 562.875C1818.03 562.913 1818 562.944 1817.96 562.966C1817.92 562.988 1817.87 563 1817.83 563H1805.45C1805.26 563 1805.06 562.944 1804.9 562.84C1804.74 562.735 1804.6 562.586 1804.52 562.41C1799.01 550.87 1793.76 539.95 1788.77 529.65C1786.89 525.77 1785.47 521.84 1783.98 517.82C1783.79 517.333 1783.61 517.333 1783.44 517.82Z" fill="#333333"/>
<path d="M1869.48 459H1859.04C1858.75 459 1858.52 459.233 1858.52 459.52V562.48C1858.52 562.767 1858.75 563 1859.04 563H1869.48C1869.77 563 1870 562.767 1870 562.48V459.52C1870 459.233 1869.77 459 1869.48 459Z" fill="#333333"/>
<path d="M1947.75 469.38V562.62C1947.75 562.721 1947.71 562.817 1947.64 562.889C1947.57 562.96 1947.47 563 1947.37 563H1936.88C1936.78 563 1936.68 562.96 1936.61 562.889C1936.54 562.817 1936.5 562.721 1936.5 562.62V469.38C1936.5 469.279 1936.46 469.183 1936.39 469.111C1936.32 469.04 1936.22 469 1936.12 469H1911.38C1911.28 469 1911.18 468.96 1911.11 468.889C1911.04 468.817 1911 468.721 1911 468.62L1911.01 459.38C1911.01 459.279 1911.05 459.183 1911.12 459.111C1911.19 459.04 1911.29 459 1911.39 459H1972.87C1972.97 459 1973.07 459.04 1973.14 459.111C1973.21 459.183 1973.25 459.279 1973.25 459.38V468.62C1973.25 468.721 1973.21 468.817 1973.14 468.889C1973.07 468.96 1972.97 469 1972.87 469H1948.13C1948.03 469 1947.93 469.04 1947.86 469.111C1947.79 469.183 1947.75 469.279 1947.75 469.38Z" fill="#333333"/>
<path d="M2033.72 512.33C2034.47 508.84 2034.86 505.34 2036.22 501.93C2041.65 488.363 2047.32 474.24 2053.21 459.56C2053.36 459.187 2053.64 459 2054.04 459H2065.03C2065.54 459 2065.7 459.237 2065.49 459.71C2056.76 479.697 2048.03 499.673 2039.31 519.64C2038.76 520.907 2038.48 522.19 2038.48 523.49C2038.5 536.91 2038.51 549.893 2038.51 562.44C2038.51 562.813 2038.32 563 2037.95 563H2027.75C2027.42 563 2027.25 562.833 2027.25 562.5V522.74C2027.25 522.226 2027.14 521.722 2026.94 521.26L1999.85 459.66C1999.66 459.22 1999.8 459 2000.28 459H2012.29C2012.7 459 2012.99 459.19 2013.14 459.57C2018.88 473.497 2024.62 487.427 2030.36 501.36C2031.88 505.05 2032.44 508.58 2033.32 512.34C2033.46 512.94 2033.59 512.937 2033.72 512.33Z" fill="#333333"/>
</svg>
