<svg width="1566" height="1110" viewBox="0 0 1566 1110" fill="none" xmlns="http://www.w3.org/2000/svg">
<path d="M1012.18 367.02H917.729C917.685 367.02 917.642 367.029 917.602 367.045C917.562 367.062 917.526 367.086 917.495 367.117C917.465 367.148 917.44 367.184 917.424 367.224C917.407 367.264 917.399 367.307 917.399 367.35V700.21C917.399 700.298 917.364 700.382 917.302 700.444C917.24 700.506 917.156 700.54 917.069 700.54L891.879 700.55C891.791 700.55 891.707 700.516 891.645 700.454C891.584 700.392 891.549 700.308 891.549 700.22V367.35C891.549 367.307 891.54 367.264 891.524 367.224C891.507 367.184 891.483 367.148 891.452 367.117C891.421 367.086 891.385 367.062 891.345 367.045C891.305 367.029 891.262 367.02 891.219 367.02H796.759C796.715 367.02 796.673 367.029 796.632 367.045C796.592 367.062 796.556 367.086 796.525 367.117C796.495 367.148 796.47 367.184 796.454 367.224C796.437 367.264 796.429 367.307 796.429 367.35V700.22C796.429 700.308 796.394 700.392 796.332 700.454C796.27 700.516 796.186 700.55 796.099 700.55L770.899 700.54C770.811 700.54 770.727 700.506 770.665 700.444C770.603 700.382 770.569 700.298 770.569 700.21V367.35C770.569 367.307 770.56 367.264 770.544 367.224C770.527 367.184 770.503 367.148 770.472 367.117C770.441 367.086 770.405 367.062 770.365 367.045C770.325 367.029 770.282 367.02 770.239 367.02H675.799C675.711 367.02 675.627 367.055 675.565 367.117C675.504 367.179 675.469 367.263 675.469 367.35V700.22C675.469 700.264 675.46 700.307 675.444 700.347C675.427 700.387 675.403 700.423 675.372 700.454C675.341 700.484 675.305 700.509 675.265 700.525C675.225 700.542 675.182 700.55 675.139 700.55L649.949 700.54C649.905 700.54 649.863 700.532 649.822 700.515C649.782 700.499 649.746 700.474 649.715 700.444C649.685 700.413 649.66 700.377 649.644 700.337C649.627 700.297 649.619 700.254 649.619 700.21V367.35C649.619 367.307 649.61 367.264 649.594 367.224C649.577 367.184 649.553 367.148 649.522 367.117C649.491 367.086 649.455 367.062 649.415 367.045C649.375 367.029 649.332 367.02 649.289 367.02H554.819C554.775 367.02 554.733 367.029 554.692 367.045C554.652 367.062 554.616 367.086 554.585 367.117C554.555 367.148 554.53 367.184 554.514 367.224C554.497 367.264 554.489 367.307 554.489 367.35V700.22C554.489 700.308 554.454 700.392 554.392 700.454C554.33 700.516 554.246 700.55 554.159 700.55H403.549C403.461 700.55 403.377 700.516 403.315 700.454C403.254 700.392 403.219 700.308 403.219 700.22V29.4003C403.219 29.3128 403.254 29.2289 403.315 29.167C403.377 29.1051 403.461 29.0703 403.549 29.0703H1163.46C1163.55 29.0703 1163.63 29.1051 1163.69 29.167C1163.75 29.2289 1163.79 29.3128 1163.79 29.4003V700.21C1163.79 700.298 1163.75 700.382 1163.69 700.444C1163.63 700.506 1163.55 700.54 1163.46 700.54L1012.84 700.55C1012.8 700.55 1012.75 700.542 1012.71 700.525C1012.67 700.509 1012.64 700.484 1012.61 700.454C1012.57 700.423 1012.55 700.387 1012.53 700.347C1012.52 700.307 1012.51 700.264 1012.51 700.22V367.35C1012.51 367.307 1012.5 367.264 1012.48 367.224C1012.47 367.184 1012.44 367.148 1012.41 367.117C1012.38 367.086 1012.35 367.062 1012.31 367.045C1012.27 367.029 1012.22 367.02 1012.18 367.02ZM951.739 93.0103C951.739 92.9414 951.711 92.8752 951.663 92.8265C951.614 92.7777 951.548 92.7503 951.479 92.7503H615.519C615.45 92.7503 615.384 92.7777 615.335 92.8265C615.286 92.8752 615.259 92.9414 615.259 93.0103V118.21C615.259 118.279 615.286 118.345 615.335 118.394C615.384 118.443 615.45 118.47 615.519 118.47H951.479C951.548 118.47 951.614 118.443 951.663 118.394C951.711 118.345 951.739 118.279 951.739 118.21V93.0103ZM1071.12 142.56C1071.12 142.489 1071.09 142.42 1071.04 142.369C1070.99 142.319 1070.92 142.29 1070.85 142.29H496.029C495.957 142.29 495.888 142.319 495.838 142.369C495.787 142.42 495.759 142.489 495.759 142.56V167.78C495.759 167.852 495.787 167.921 495.838 167.971C495.888 168.022 495.957 168.05 496.029 168.05H1070.85C1070.92 168.05 1070.99 168.022 1071.04 167.971C1071.09 167.921 1071.12 167.852 1071.12 167.78V142.56ZM590.889 192.12C590.889 192.051 590.861 191.985 590.813 191.936C590.764 191.888 590.698 191.86 590.629 191.86H496.009C495.94 191.86 495.874 191.888 495.825 191.936C495.776 191.985 495.749 192.051 495.749 192.12V255.36C495.749 255.429 495.776 255.495 495.825 255.544C495.874 255.593 495.94 255.62 496.009 255.62H590.629C590.698 255.62 590.764 255.593 590.813 255.544C590.861 255.495 590.889 255.429 590.889 255.36V192.12ZM710.959 192.12C710.959 192.051 710.931 191.985 710.883 191.936C710.834 191.888 710.768 191.86 710.699 191.86H616.039C615.97 191.86 615.904 191.888 615.855 191.936C615.806 191.985 615.779 192.051 615.779 192.12V255.36C615.779 255.429 615.806 255.495 615.855 255.544C615.904 255.593 615.97 255.62 616.039 255.62H710.699C710.768 255.62 710.834 255.593 710.883 255.544C710.931 255.495 710.959 255.429 710.959 255.36V192.12ZM830.999 192.12C830.999 192.051 830.971 191.985 830.923 191.936C830.874 191.888 830.808 191.86 830.739 191.86H736.059C735.99 191.86 735.924 191.888 735.875 191.936C735.826 191.985 735.799 192.051 735.799 192.12V255.36C735.799 255.429 735.826 255.495 735.875 255.544C735.924 255.593 735.99 255.62 736.059 255.62H830.739C830.808 255.62 830.874 255.593 830.923 255.544C830.971 255.495 830.999 255.429 830.999 255.36V192.12ZM951.069 192.19C951.069 192.103 951.034 192.019 950.972 191.957C950.91 191.895 950.826 191.86 950.739 191.86H856.219C856.131 191.86 856.047 191.895 855.985 191.957C855.923 192.019 855.889 192.103 855.889 192.19V255.29C855.889 255.378 855.923 255.462 855.985 255.524C856.047 255.586 856.131 255.62 856.219 255.62H950.739C950.826 255.62 950.91 255.586 950.972 255.524C951.034 255.462 951.069 255.378 951.069 255.29V192.19ZM1071.13 192.13C1071.13 192.095 1071.12 192.06 1071.11 192.027C1071.09 191.994 1071.07 191.964 1071.05 191.939C1071.02 191.914 1070.99 191.894 1070.96 191.881C1070.93 191.867 1070.89 191.86 1070.86 191.86H976.239C976.167 191.86 976.099 191.889 976.048 191.939C975.997 191.99 975.969 192.059 975.969 192.13V255.35C975.969 255.422 975.997 255.491 976.048 255.541C976.099 255.592 976.167 255.62 976.239 255.62H1070.86C1070.89 255.62 1070.93 255.613 1070.96 255.6C1070.99 255.586 1071.02 255.566 1071.05 255.541C1071.07 255.516 1071.09 255.486 1071.11 255.454C1071.12 255.421 1071.13 255.386 1071.13 255.35V192.13ZM496.079 280.03L528.109 342.17C528.455 342.837 528.629 342.794 528.629 342.04V280.04C528.629 279.647 528.432 279.45 528.039 279.45H496.429C495.995 279.45 495.879 279.644 496.079 280.03ZM649.619 279.84C649.619 279.734 649.577 279.632 649.502 279.557C649.427 279.482 649.325 279.44 649.219 279.44H554.879C554.773 279.44 554.671 279.482 554.596 279.557C554.521 279.632 554.479 279.734 554.479 279.84V342.82C554.479 342.926 554.521 343.028 554.596 343.103C554.671 343.178 554.773 343.22 554.879 343.22H649.219C649.325 343.22 649.427 343.178 649.502 343.103C649.577 343.028 649.619 342.926 649.619 342.82V279.84ZM770.569 279.8C770.569 279.707 770.532 279.618 770.466 279.553C770.401 279.487 770.312 279.45 770.219 279.45H675.819C675.726 279.45 675.637 279.487 675.571 279.553C675.506 279.618 675.469 279.707 675.469 279.8V342.88C675.469 342.973 675.506 343.062 675.571 343.128C675.637 343.193 675.726 343.23 675.819 343.23H770.219C770.312 343.23 770.401 343.193 770.466 343.128C770.532 343.062 770.569 342.973 770.569 342.88V279.8ZM891.549 279.79C891.549 279.746 891.54 279.701 891.523 279.66C891.506 279.619 891.481 279.581 891.449 279.55C891.418 279.518 891.38 279.493 891.339 279.476C891.298 279.459 891.253 279.45 891.209 279.45H796.769C796.724 279.45 796.68 279.459 796.639 279.476C796.597 279.493 796.56 279.518 796.528 279.55C796.497 279.581 796.472 279.619 796.455 279.66C796.438 279.701 796.429 279.746 796.429 279.79V342.89C796.429 342.935 796.438 342.979 796.455 343.02C796.472 343.062 796.497 343.099 796.528 343.131C796.56 343.162 796.597 343.187 796.639 343.204C796.68 343.222 796.724 343.23 796.769 343.23H891.209C891.253 343.23 891.298 343.222 891.339 343.204C891.38 343.187 891.418 343.162 891.449 343.131C891.481 343.099 891.506 343.062 891.523 343.02C891.54 342.979 891.549 342.935 891.549 342.89V279.79ZM1012.52 279.8C1012.52 279.705 1012.48 279.613 1012.41 279.546C1012.35 279.478 1012.25 279.44 1012.16 279.44H917.759C917.663 279.44 917.572 279.478 917.504 279.546C917.437 279.613 917.399 279.705 917.399 279.8V342.86C917.399 342.956 917.437 343.047 917.504 343.115C917.572 343.182 917.663 343.22 917.759 343.22H1012.16C1012.25 343.22 1012.35 343.182 1012.41 343.115C1012.48 343.047 1012.52 342.956 1012.52 342.86V279.8ZM1038.37 341.65C1038.37 342.677 1038.6 342.734 1039.07 341.82L1070.92 280.04C1071.13 279.647 1071.01 279.45 1070.56 279.45H1038.96C1038.57 279.45 1038.38 279.647 1038.38 280.04L1038.37 341.65Z" fill="#967D2D"/>
<path d="M517.691 858.231C507.151 850.941 493.511 847.041 480.911 846.441C457.531 845.311 440.071 859.441 436.831 882.661C434.421 899.981 439.311 919.921 453.771 931.041C475.601 947.831 502.611 936.981 522.681 922.291C522.715 922.265 522.756 922.248 522.798 922.244C522.841 922.24 522.884 922.247 522.922 922.266C522.96 922.285 522.993 922.314 523.016 922.35C523.039 922.386 523.051 922.428 523.051 922.471L523.031 944.731C523.031 945.084 522.885 945.357 522.591 945.551C519.791 947.391 517.031 949.341 513.971 950.751C477.771 967.431 431.631 958.011 415.521 918.121C411.361 907.801 410.341 895.521 411.391 884.261C414.271 853.441 439.861 830.561 470.281 827.671C476.288 827.097 482.875 827.157 490.041 827.851C500.821 828.901 510.541 831.231 519.811 836.361C520.085 836.507 520.205 836.734 520.171 837.041L518.231 857.981C518.198 858.367 518.018 858.451 517.691 858.231Z" fill="#967D2D"/>
<path d="M620.56 956.52C588.63 964.22 556.16 949.78 543.41 918.81C539.777 909.977 538.243 899.944 538.81 888.71C540.59 853.74 567.17 827.87 602.27 827.31C634.03 826.8 661.85 846.98 667.73 878.95C674.23 914.28 655.87 948.02 620.56 956.52ZM606.054 939.648C611.29 939.401 616.418 937.948 621.146 935.372C625.873 932.795 630.106 929.146 633.605 924.632C637.103 920.119 639.797 914.829 641.534 909.065C643.27 903.301 644.015 897.176 643.726 891.04C643.141 878.647 638.38 866.959 630.488 858.549C622.597 850.138 612.222 845.693 601.646 846.192C596.41 846.439 591.282 847.892 586.554 850.469C581.827 853.045 577.594 856.694 574.095 861.208C570.597 865.722 567.903 871.012 566.166 876.775C564.43 882.539 563.685 888.664 563.974 894.801C564.559 907.194 569.32 918.881 577.212 927.292C585.103 935.702 595.478 940.147 606.054 939.648Z" fill="#967D2D"/>
<path d="M827.76 858.229C817.31 850.869 803.51 847.019 790.99 846.439C766.16 845.279 748.58 861.249 746.59 885.839C745.34 901.309 749.54 917.899 761.23 928.749C778.14 944.419 801.53 940.949 820.11 930.519C824.45 928.086 828.607 925.396 832.58 922.449C833 922.136 833.21 922.243 833.21 922.769L833.2 944.549C833.2 944.963 833.033 945.293 832.7 945.539C830 947.506 827.383 949.103 824.85 950.329C791.54 966.509 746.76 959.609 728.36 924.089C722.66 913.099 720.74 901.279 721.24 888.539C722.61 853.969 750.62 828.639 784.29 827.399C799.93 826.819 816.41 828.799 829.85 836.279C830.217 836.486 830.38 836.796 830.34 837.209L828.36 857.959C828.32 858.393 828.12 858.483 827.76 858.229Z" fill="#967D2D"/>
<path d="M219.819 919.171H176.039C175.972 919.172 175.907 919.193 175.853 919.233C175.8 919.272 175.759 919.327 175.739 919.391L164.049 955.921C164.028 955.984 163.988 956.039 163.934 956.079C163.88 956.118 163.815 956.14 163.749 956.141H140.109C140.057 956.141 140.006 956.128 139.961 956.104C139.915 956.08 139.876 956.046 139.847 956.004C139.817 955.962 139.798 955.913 139.792 955.862C139.785 955.811 139.791 955.759 139.809 955.711L185.139 829.021C185.162 828.958 185.204 828.903 185.26 828.866C185.315 828.828 185.381 828.809 185.449 828.811H210.869C210.934 828.811 210.998 828.831 211.052 828.869C211.105 828.906 211.146 828.959 211.169 829.021L258.809 955.711C258.826 955.759 258.832 955.811 258.825 955.862C258.819 955.913 258.8 955.962 258.771 956.004C258.741 956.046 258.702 956.08 258.656 956.104C258.611 956.128 258.56 956.141 258.509 956.141H233.989C233.923 956.141 233.859 956.12 233.806 956.083C233.752 956.045 233.711 955.992 233.689 955.931L220.119 919.381C220.096 919.319 220.055 919.266 220.002 919.229C219.948 919.191 219.884 919.171 219.819 919.171ZM181.519 901.021C181.503 901.07 181.499 901.122 181.507 901.173C181.515 901.224 181.535 901.272 181.565 901.314C181.595 901.355 181.635 901.39 181.681 901.413C181.726 901.437 181.777 901.45 181.829 901.451H213.099C213.151 901.451 213.203 901.438 213.25 901.413C213.297 901.389 213.337 901.354 213.367 901.311C213.398 901.268 213.417 901.218 213.424 901.166C213.432 901.114 213.426 901.06 213.409 901.011L196.849 855.451C196.826 855.384 196.782 855.327 196.724 855.287C196.666 855.247 196.597 855.226 196.526 855.229C196.456 855.231 196.388 855.256 196.333 855.299C196.277 855.343 196.237 855.403 196.219 855.471L181.519 901.021Z" fill="#967D2D"/>
<path d="M1351.08 919.381L1339.39 955.931C1339.37 955.992 1339.33 956.046 1339.28 956.084C1339.23 956.121 1339.17 956.141 1339.1 956.141H1315.4C1315.35 956.142 1315.3 956.131 1315.26 956.109C1315.22 956.088 1315.18 956.056 1315.15 956.017C1315.12 955.977 1315.1 955.932 1315.1 955.884C1315.09 955.835 1315.09 955.786 1315.11 955.741L1360.49 829.011C1360.51 828.953 1360.55 828.902 1360.6 828.866C1360.65 828.831 1360.71 828.811 1360.77 828.811L1386.24 828.821C1386.3 828.82 1386.36 828.838 1386.41 828.872C1386.46 828.906 1386.5 828.954 1386.52 829.011L1434.14 955.731C1434.16 955.776 1434.17 955.825 1434.16 955.874C1434.15 955.923 1434.14 955.969 1434.11 956.01C1434.08 956.05 1434.04 956.083 1434 956.106C1433.96 956.129 1433.91 956.141 1433.86 956.141H1409.29C1409.23 956.14 1409.17 956.12 1409.12 956.085C1409.07 956.049 1409.03 955.999 1409.01 955.941L1395.43 919.371C1395.41 919.313 1395.37 919.262 1395.32 919.226C1395.27 919.191 1395.21 919.171 1395.15 919.171H1351.37C1351.31 919.17 1351.24 919.19 1351.19 919.228C1351.14 919.265 1351.1 919.319 1351.08 919.381ZM1372.27 855.181C1372.24 855.087 1372.18 855.021 1372.09 854.981C1371.88 854.881 1371.73 854.944 1371.66 855.171L1356.83 901.091C1356.82 901.132 1356.81 901.176 1356.82 901.219C1356.82 901.262 1356.84 901.303 1356.87 901.339C1356.89 901.374 1356.93 901.403 1356.97 901.422C1357 901.442 1357.05 901.451 1357.09 901.451H1388.29C1388.76 901.451 1388.92 901.231 1388.75 900.791C1382.9 885.231 1377.41 870.027 1372.27 855.181Z" fill="#967D2D"/>
<path d="M1234.76 904.979V955.559C1234.76 955.946 1234.57 956.139 1234.19 956.139H1209.94C1209.86 956.139 1209.77 956.105 1209.71 956.045C1209.65 955.985 1209.62 955.904 1209.62 955.819V830.279C1209.62 829.946 1209.79 829.776 1210.13 829.769C1219.85 829.656 1229.77 829.496 1239.9 829.289C1247.38 829.129 1254.84 829.589 1262.22 830.569C1277.55 832.609 1294.52 840.439 1297.04 857.529C1299.13 871.609 1295.22 883.152 1285.31 892.159C1282.2 894.992 1278.38 897.349 1273.85 899.229C1273.45 899.396 1273.35 899.669 1273.55 900.049C1278.42 909.336 1283.83 918.999 1289.8 929.039C1293.45 935.169 1298.39 937.599 1305.31 938.439C1305.7 938.492 1305.87 938.716 1305.8 939.109L1302.77 956.849C1302.73 957.102 1302.58 957.236 1302.32 957.249C1299.71 957.369 1297.02 957.329 1294.26 957.129C1283.35 956.339 1276.17 950.539 1270.67 941.739C1263.32 929.979 1256.24 917.829 1249.43 905.289C1249.24 904.942 1248.94 904.759 1248.54 904.739L1235.52 904.239C1235.01 904.219 1234.76 904.466 1234.76 904.979ZM1235.27 888.779C1246.19 889.769 1258.98 889.589 1266.83 880.569C1270.56 876.289 1272.21 870.859 1271.78 864.279C1270.57 845.619 1248.96 844.859 1235.34 846.299C1234.95 846.339 1234.76 846.556 1234.76 846.949V888.219C1234.76 888.559 1234.93 888.746 1235.27 888.779Z" fill="#967D2D"/>
<path d="M101.329 890.189C115.409 892.429 128.819 901.919 129.949 917.079C131.389 936.329 120.909 949.909 102.349 954.469C97.7619 955.596 93.4319 956.213 89.3586 956.319C77.1119 956.639 60.7586 956.583 40.2986 956.149C40.2349 956.149 40.1739 956.124 40.1289 956.079C40.0839 956.034 40.0586 955.973 40.0586 955.909V830.519C40.0586 830.415 40.0993 830.315 40.1722 830.24C40.2451 830.165 40.3442 830.122 40.4486 830.119C56.8553 829.459 72.5353 829.553 87.4886 830.399C102.899 831.279 123.679 837.239 125.099 855.939C126.089 868.899 121.619 879.369 110.489 886.139C107.559 887.919 104.459 888.549 101.279 889.619C100.525 889.873 100.542 890.063 101.329 890.189ZM65.5986 883.899C72.5586 884.339 81.6186 884.459 88.0686 881.739C96.6153 878.133 100.495 871.213 99.7086 860.979C98.4186 844.209 77.7486 844.819 65.8086 846.319C65.4219 846.366 65.2286 846.589 65.2286 846.989L65.2186 883.499C65.2185 883.602 65.2579 883.701 65.3286 883.775C65.3993 883.85 65.496 883.894 65.5986 883.899ZM69.8486 939.069C77.0019 940.036 83.8986 939.826 90.5386 938.439C101.159 936.229 105.479 928.569 104.779 918.109C103.489 898.799 79.5886 899.299 65.9886 900.049C65.5819 900.076 65.3786 900.293 65.3786 900.699L65.3686 937.979C65.3686 938.419 65.5886 938.656 66.0286 938.689C67.3153 938.776 68.5886 938.903 69.8486 939.069Z" fill="#967D2D"/>
<path d="M300.369 871.621L300.379 955.811C300.379 955.898 300.344 955.982 300.282 956.044C300.22 956.106 300.136 956.141 300.049 956.141H277.549C277.461 956.141 277.377 956.106 277.315 956.044C277.254 955.982 277.219 955.898 277.219 955.811L277.579 830.061C277.579 829.973 277.614 829.889 277.675 829.827C277.737 829.765 277.821 829.731 277.909 829.731H297.619C297.668 829.73 297.717 829.74 297.762 829.761C297.807 829.782 297.847 829.812 297.879 829.851L363.619 911.821C363.661 911.874 363.719 911.914 363.784 911.934C363.85 911.953 363.92 911.952 363.985 911.93C364.05 911.908 364.106 911.866 364.146 911.811C364.186 911.755 364.208 911.689 364.209 911.621L364.709 830.061C364.709 830.017 364.717 829.974 364.734 829.934C364.75 829.894 364.775 829.858 364.805 829.827C364.836 829.797 364.872 829.772 364.912 829.756C364.953 829.739 364.995 829.731 365.039 829.731H387.189C387.276 829.731 387.36 829.765 387.422 829.827C387.484 829.889 387.519 829.973 387.519 830.061L386.999 957.351C386.999 957.438 386.964 957.522 386.902 957.584C386.84 957.646 386.756 957.681 386.669 957.681L370.629 957.701C370.579 957.701 370.53 957.691 370.485 957.67C370.44 957.649 370.4 957.619 370.369 957.581L300.959 871.411C300.916 871.356 300.857 871.316 300.791 871.297C300.724 871.277 300.653 871.28 300.588 871.303C300.523 871.326 300.466 871.369 300.427 871.426C300.388 871.483 300.367 871.551 300.369 871.621Z" fill="#967D2D"/>
<path d="M882.071 900.04L882.061 937.391C882.061 937.481 882.097 937.567 882.161 937.631C882.224 937.695 882.311 937.73 882.401 937.73H935.141C935.231 937.73 935.318 937.766 935.382 937.83C935.445 937.894 935.481 937.98 935.481 938.07L935.471 955.8C935.471 955.891 935.435 955.977 935.372 956.041C935.308 956.105 935.221 956.141 935.131 956.141H856.961C856.871 956.141 856.784 956.105 856.721 956.041C856.657 955.977 856.621 955.891 856.621 955.8V830.07C856.621 829.98 856.657 829.894 856.721 829.83C856.784 829.766 856.871 829.73 856.961 829.73H932.161C932.251 829.73 932.338 829.766 932.401 829.83C932.465 829.894 932.501 829.98 932.501 830.07V847.651C932.501 847.741 932.465 847.827 932.401 847.891C932.338 847.955 932.251 847.99 932.161 847.99L882.401 847.98C882.311 847.98 882.224 848.016 882.161 848.08C882.097 848.144 882.061 848.23 882.061 848.32L882.071 881.141C882.071 881.231 882.107 881.317 882.171 881.381C882.234 881.445 882.321 881.48 882.411 881.48L922.601 881.49C922.691 881.49 922.778 881.526 922.841 881.59C922.905 881.654 922.941 881.74 922.941 881.831L922.951 899.36C922.951 899.451 922.915 899.537 922.852 899.601C922.788 899.665 922.701 899.701 922.611 899.701H882.411C882.321 899.701 882.234 899.736 882.171 899.8C882.107 899.864 882.071 899.95 882.071 900.04Z" fill="#967D2D"/>
<path d="M1044.09 829.73H1066.26C1066.34 829.73 1066.42 829.763 1066.48 829.821C1066.54 829.879 1066.57 829.958 1066.57 830.04L1066.1 957.36C1066.1 957.443 1066.07 957.522 1066.01 957.58C1065.95 957.638 1065.87 957.67 1065.79 957.67L1049.69 957.701C1049.64 957.7 1049.6 957.689 1049.55 957.668C1049.51 957.647 1049.48 957.617 1049.45 957.581L980.049 871.391C980.008 871.341 979.954 871.306 979.893 871.288C979.832 871.271 979.767 871.273 979.707 871.294C979.647 871.314 979.595 871.353 979.558 871.404C979.521 871.456 979.5 871.517 979.499 871.581V955.831C979.499 955.913 979.466 955.992 979.408 956.05C979.35 956.108 979.271 956.141 979.189 956.141H956.619C956.536 956.141 956.458 956.108 956.399 956.05C956.341 955.992 956.309 955.913 956.309 955.831L956.649 830.04C956.649 829.958 956.681 829.879 956.739 829.821C956.798 829.763 956.876 829.73 956.959 829.73H976.699C976.745 829.731 976.791 829.742 976.832 829.763C976.874 829.784 976.91 829.814 976.939 829.85L1042.76 911.87C1042.8 911.92 1042.85 911.955 1042.91 911.973C1042.98 911.99 1043.04 911.988 1043.1 911.967C1043.16 911.947 1043.21 911.908 1043.25 911.857C1043.29 911.805 1043.31 911.744 1043.31 911.68L1043.78 830.04C1043.78 829.958 1043.81 829.879 1043.87 829.821C1043.93 829.763 1044.01 829.73 1044.09 829.73Z" fill="#967D2D"/>
<path d="M1150.44 849.67V955.79C1150.44 955.836 1150.43 955.882 1150.41 955.924C1150.4 955.967 1150.37 956.005 1150.34 956.038C1150.31 956.07 1150.27 956.096 1150.22 956.114C1150.18 956.131 1150.14 956.14 1150.09 956.14H1125.59C1125.5 956.14 1125.41 956.103 1125.34 956.038C1125.28 955.972 1125.24 955.883 1125.24 955.79V849.67C1125.24 849.577 1125.2 849.488 1125.14 849.423C1125.07 849.357 1124.98 849.32 1124.89 849.32H1086.08C1085.99 849.32 1085.9 849.283 1085.83 849.218C1085.77 849.152 1085.73 849.063 1085.73 848.97V830.09C1085.73 829.997 1085.77 829.908 1085.83 829.843C1085.9 829.777 1085.99 829.74 1086.08 829.74H1189.55C1189.6 829.74 1189.64 829.749 1189.68 829.767C1189.73 829.784 1189.77 829.81 1189.8 829.843C1189.83 829.875 1189.86 829.914 1189.87 829.956C1189.89 829.999 1189.9 830.044 1189.9 830.09L1189.91 848.97C1189.91 849.063 1189.87 849.152 1189.81 849.218C1189.74 849.283 1189.65 849.32 1189.56 849.32H1150.79C1150.7 849.32 1150.61 849.357 1150.54 849.423C1150.48 849.488 1150.44 849.577 1150.44 849.67Z" fill="#967D2D"/>
<path d="M1478.07 936.5H1526.64C1526.72 936.5 1526.8 936.533 1526.86 936.591C1526.92 936.649 1526.95 936.728 1526.95 936.81L1526.93 955.83C1526.93 955.912 1526.9 955.991 1526.84 956.049C1526.78 956.108 1526.7 956.14 1526.62 956.14H1452.91C1452.83 956.14 1452.75 956.108 1452.69 956.049C1452.63 955.991 1452.6 955.912 1452.6 955.83V830.05C1452.6 829.968 1452.63 829.889 1452.69 829.831C1452.75 829.773 1452.83 829.74 1452.91 829.74H1477.45C1477.53 829.74 1477.61 829.773 1477.67 829.831C1477.73 829.889 1477.76 829.968 1477.76 830.05V936.19C1477.76 936.272 1477.79 936.351 1477.85 936.409C1477.91 936.468 1477.99 936.5 1478.07 936.5Z" fill="#967D2D"/>
<path d="M407.859 1006.34L399.089 1018.01C399.057 1018.05 399.016 1018.09 398.969 1018.11C398.923 1018.13 398.871 1018.14 398.819 1018.14L393.479 1018.11C393.426 1018.11 393.374 1018.1 393.327 1018.07C393.281 1018.04 393.241 1018.01 393.212 1017.96C393.182 1017.92 393.164 1017.87 393.158 1017.82C393.152 1017.76 393.16 1017.71 393.179 1017.66L398.039 1006.01C398.064 1005.95 398.106 1005.9 398.159 1005.87C398.212 1005.83 398.275 1005.81 398.339 1005.81H407.599C407.66 1005.81 407.72 1005.83 407.772 1005.86C407.824 1005.89 407.866 1005.94 407.893 1006C407.92 1006.05 407.931 1006.11 407.925 1006.17C407.919 1006.23 407.896 1006.29 407.859 1006.34Z" fill="#967D2D"/>
<path d="M636.699 1024.73C636.893 1024.82 636.979 1024.98 636.959 1025.19L636.099 1034.63C636.098 1034.65 636.09 1034.67 636.078 1034.69C636.065 1034.71 636.048 1034.73 636.028 1034.74C636.008 1034.75 635.985 1034.75 635.963 1034.75C635.94 1034.75 635.918 1034.74 635.899 1034.73C631.706 1032.06 626.976 1030.37 621.709 1029.67C606.369 1027.62 597.529 1038.74 599.369 1053.32C599.956 1057.98 601.633 1061.9 604.399 1065.08C613.629 1075.7 627.739 1071.37 637.889 1063.77C637.926 1063.74 637.968 1063.73 638.013 1063.73C638.057 1063.72 638.102 1063.73 638.141 1063.75C638.181 1063.77 638.214 1063.8 638.236 1063.84C638.259 1063.88 638.27 1063.93 638.269 1063.97L638.259 1073.75C638.259 1073.92 638.186 1074.06 638.039 1074.16C632.159 1078.33 624.729 1080.06 617.449 1079.94C603.959 1079.72 592.779 1072.34 588.919 1059.15C586.779 1051.83 587.329 1042.62 591.199 1035.93C600.629 1019.63 620.689 1017.33 636.699 1024.73Z" fill="#967D2D"/>
<path d="M847.006 1080.04C839.172 1080.68 831.401 1078.18 825.405 1073.08C819.408 1067.98 815.676 1060.7 815.03 1052.84C814.71 1048.95 815.157 1045.03 816.346 1041.31C817.535 1037.6 819.443 1034.15 821.96 1031.17C824.476 1028.2 827.553 1025.75 831.015 1023.96C834.477 1022.18 838.255 1021.1 842.134 1020.78C849.969 1020.14 857.739 1022.64 863.736 1027.74C869.733 1032.84 873.464 1040.12 874.111 1047.98C874.43 1051.87 873.983 1055.79 872.794 1059.5C871.605 1063.22 869.698 1066.67 867.181 1069.64C864.664 1072.62 861.587 1075.07 858.125 1076.85C854.664 1078.64 850.886 1079.72 847.006 1080.04ZM845.6 1071.47C850.371 1071.24 854.838 1068.8 858.018 1064.69C861.199 1060.57 862.832 1055.12 862.559 1049.54C862.423 1046.77 861.824 1044.06 860.795 1041.55C859.766 1039.04 858.328 1036.78 856.562 1034.91C854.796 1033.04 852.737 1031.58 850.503 1030.63C848.269 1029.68 845.903 1029.25 843.54 1029.36C838.77 1029.6 834.303 1032.04 831.122 1036.15C827.942 1040.27 826.309 1045.71 826.582 1051.3C826.717 1054.06 827.316 1056.78 828.345 1059.29C829.374 1061.8 830.813 1064.06 832.579 1065.93C834.345 1067.8 836.404 1069.26 838.638 1070.21C840.872 1071.16 843.238 1071.59 845.6 1071.47Z" fill="#967D2D"/>
<path d="M1165 1024.8C1165.07 1024.84 1165.12 1024.89 1165.16 1024.96C1165.2 1025.03 1165.22 1025.1 1165.21 1025.18L1164.31 1034.56C1164.29 1034.75 1164.2 1034.8 1164.04 1034.69C1152.86 1027.46 1133.6 1025.9 1128.48 1042C1126.18 1049.27 1127.28 1058.52 1132.19 1064.53C1141.49 1075.9 1156.09 1071.48 1166.38 1063.53C1166.39 1063.53 1166.39 1063.53 1166.4 1063.53C1166.41 1063.53 1166.41 1063.53 1166.42 1063.53C1166.43 1063.53 1166.43 1063.54 1166.43 1063.54C1166.44 1063.55 1166.44 1063.55 1166.44 1063.56C1166.5 1067.04 1166.52 1070.45 1166.49 1073.78C1166.49 1073.94 1166.42 1074.06 1166.29 1074.15C1162.78 1076.57 1158.85 1078.23 1154.52 1079.13C1133.6 1083.47 1114.91 1070.8 1116.01 1048.36C1116.77 1032.81 1128.96 1021.66 1144.41 1020.87C1152.03 1020.48 1158.89 1021.79 1165 1024.8Z" fill="#967D2D"/>
<path d="M668.589 1062.46L663.429 1078.67C663.41 1078.73 663.371 1078.78 663.319 1078.82C663.266 1078.86 663.203 1078.88 663.139 1078.88L652.819 1078.89C652.77 1078.89 652.722 1078.88 652.679 1078.86C652.635 1078.84 652.597 1078.8 652.569 1078.77C652.54 1078.73 652.522 1078.68 652.515 1078.63C652.508 1078.58 652.513 1078.54 652.529 1078.49L672.839 1021.73C672.859 1021.67 672.897 1021.62 672.947 1021.59C672.997 1021.55 673.057 1021.53 673.119 1021.53L684.369 1021.54C684.429 1021.54 684.488 1021.56 684.538 1021.59C684.588 1021.62 684.627 1021.67 684.649 1021.73L705.999 1078.49C706.017 1078.53 706.023 1078.58 706.018 1078.63C706.013 1078.68 705.995 1078.73 705.968 1078.77C705.94 1078.81 705.903 1078.84 705.86 1078.86C705.816 1078.89 705.768 1078.9 705.719 1078.9L694.999 1078.88C694.937 1078.88 694.878 1078.86 694.827 1078.82C694.777 1078.79 694.739 1078.74 694.719 1078.68L688.709 1062.45C688.688 1062.39 688.651 1062.34 688.6 1062.31C688.55 1062.27 688.49 1062.25 688.429 1062.25H668.879C668.814 1062.25 668.751 1062.27 668.699 1062.31C668.647 1062.34 668.608 1062.4 668.589 1062.46ZM678.289 1033.9C678.268 1033.84 678.229 1033.79 678.177 1033.75C678.125 1033.72 678.064 1033.7 678 1033.7C677.937 1033.7 677.876 1033.72 677.825 1033.76C677.775 1033.8 677.738 1033.85 677.719 1033.91L671.299 1053.87C671.285 1053.91 671.281 1053.96 671.289 1054.01C671.296 1054.05 671.314 1054.1 671.341 1054.13C671.369 1054.17 671.404 1054.2 671.445 1054.22C671.487 1054.25 671.532 1054.26 671.579 1054.26H685.259C685.307 1054.26 685.354 1054.25 685.396 1054.22C685.438 1054.2 685.474 1054.17 685.502 1054.13C685.529 1054.09 685.547 1054.05 685.553 1054C685.56 1053.95 685.555 1053.9 685.539 1053.86L678.289 1033.9Z" fill="#967D2D"/>
<path d="M1196.8 1062.47L1191.63 1078.66C1191.61 1078.72 1191.57 1078.78 1191.52 1078.82C1191.46 1078.86 1191.4 1078.88 1191.33 1078.88L1181.03 1078.9C1180.98 1078.9 1180.93 1078.89 1180.88 1078.86C1180.84 1078.84 1180.8 1078.81 1180.77 1078.77C1180.75 1078.72 1180.73 1078.68 1180.72 1078.63C1180.71 1078.58 1180.72 1078.53 1180.74 1078.48L1201.04 1021.75C1201.06 1021.69 1201.1 1021.64 1201.15 1021.6C1201.2 1021.56 1201.26 1021.54 1201.33 1021.54H1212.6C1212.66 1021.54 1212.72 1021.56 1212.78 1021.59C1212.83 1021.63 1212.87 1021.68 1212.89 1021.74L1234.24 1078.5C1234.26 1078.55 1234.26 1078.6 1234.26 1078.65C1234.25 1078.7 1234.23 1078.74 1234.2 1078.79C1234.18 1078.83 1234.14 1078.86 1234.09 1078.88C1234.05 1078.91 1234 1078.92 1233.95 1078.92L1223.19 1078.87C1223.13 1078.87 1223.07 1078.85 1223.02 1078.81C1222.97 1078.78 1222.93 1078.73 1222.91 1078.67L1216.9 1062.45C1216.88 1062.39 1216.84 1062.34 1216.79 1062.3C1216.73 1062.27 1216.67 1062.25 1216.61 1062.25H1197.1C1197.03 1062.25 1196.97 1062.27 1196.91 1062.31C1196.86 1062.35 1196.82 1062.4 1196.8 1062.47ZM1199.49 1053.93C1199.47 1053.98 1199.47 1054.03 1199.48 1054.08C1199.48 1054.13 1199.5 1054.17 1199.53 1054.21C1199.56 1054.25 1199.6 1054.28 1199.65 1054.31C1199.69 1054.33 1199.74 1054.34 1199.79 1054.34L1213.43 1054.17C1213.48 1054.17 1213.52 1054.15 1213.57 1054.13C1213.61 1054.11 1213.64 1054.07 1213.67 1054.03C1213.7 1053.99 1213.72 1053.95 1213.72 1053.9C1213.73 1053.85 1213.72 1053.8 1213.71 1053.76L1206.65 1033.97C1206.63 1033.91 1206.59 1033.86 1206.53 1033.83C1206.48 1033.79 1206.42 1033.77 1206.36 1033.77C1206.29 1033.77 1206.23 1033.79 1206.18 1033.83C1206.13 1033.87 1206.09 1033.92 1206.07 1033.98L1199.49 1053.93Z" fill="#967D2D"/>
<path d="M1335.65 1062.47L1330.47 1078.66C1330.45 1078.72 1330.41 1078.78 1330.35 1078.82C1330.3 1078.86 1330.24 1078.88 1330.17 1078.88L1319.87 1078.89C1319.82 1078.89 1319.76 1078.88 1319.72 1078.86C1319.67 1078.83 1319.63 1078.8 1319.6 1078.76C1319.57 1078.71 1319.55 1078.67 1319.54 1078.61C1319.53 1078.56 1319.54 1078.51 1319.56 1078.46L1339.89 1021.74C1339.91 1021.68 1339.95 1021.62 1340.01 1021.58C1340.07 1021.55 1340.13 1021.53 1340.2 1021.53L1351.46 1021.54C1351.52 1021.54 1351.59 1021.56 1351.64 1021.6C1351.7 1021.63 1351.74 1021.69 1351.76 1021.75L1373.04 1078.47C1373.06 1078.52 1373.06 1078.57 1373.06 1078.62C1373.05 1078.67 1373.03 1078.72 1373 1078.76C1372.97 1078.8 1372.93 1078.84 1372.89 1078.86C1372.84 1078.89 1372.79 1078.9 1372.74 1078.9L1362.07 1078.88C1362 1078.88 1361.94 1078.86 1361.89 1078.82C1361.83 1078.78 1361.79 1078.73 1361.77 1078.67L1355.7 1062.46C1355.68 1062.4 1355.64 1062.34 1355.58 1062.31C1355.53 1062.27 1355.46 1062.25 1355.4 1062.25H1335.95C1335.88 1062.25 1335.82 1062.27 1335.76 1062.31C1335.71 1062.35 1335.67 1062.41 1335.65 1062.47ZM1338.33 1053.96C1338.31 1054 1338.31 1054.05 1338.32 1054.1C1338.33 1054.15 1338.35 1054.19 1338.37 1054.23C1338.4 1054.27 1338.44 1054.3 1338.48 1054.32C1338.52 1054.34 1338.57 1054.35 1338.62 1054.35L1352.25 1054.16C1352.3 1054.16 1352.34 1054.15 1352.39 1054.12C1352.43 1054.1 1352.46 1054.07 1352.49 1054.03C1352.52 1053.99 1352.54 1053.95 1352.54 1053.9C1352.55 1053.85 1352.54 1053.8 1352.53 1053.76L1345.44 1033.94C1345.42 1033.88 1345.38 1033.83 1345.33 1033.79C1345.28 1033.76 1345.21 1033.74 1345.15 1033.74C1345.09 1033.74 1345.03 1033.76 1344.98 1033.8C1344.92 1033.84 1344.89 1033.89 1344.87 1033.95L1338.33 1053.96Z" fill="#967D2D"/>
<path d="M226.778 1054C229.498 1059.13 232.022 1063.54 234.348 1067.25C235.788 1069.54 237.975 1070.74 240.908 1070.85C241.122 1070.86 241.208 1070.97 241.168 1071.18L239.858 1078.99C239.812 1079.24 239.662 1079.38 239.408 1079.41C233.188 1080.04 228.402 1077.6 225.048 1072.09C221.835 1066.82 218.782 1061.56 215.888 1056.29C215.695 1055.94 215.405 1055.76 215.018 1055.74L209.838 1055.51C209.385 1055.49 209.158 1055.71 209.158 1056.16L209.178 1078.23C209.178 1078.67 208.958 1078.89 208.518 1078.89L198.428 1078.88C197.968 1078.88 197.738 1078.65 197.738 1078.19V1022.5C197.738 1022.12 197.932 1021.92 198.318 1021.91C203.912 1021.76 209.565 1021.72 215.278 1021.78C225.348 1021.89 237.518 1025.18 237.498 1037.26C237.478 1045.05 233.668 1049.72 227.048 1053.14C226.668 1053.33 226.578 1053.62 226.778 1054ZM209.048 1030.02V1047.76C209.048 1047.97 209.134 1048.18 209.286 1048.33C209.437 1048.48 209.643 1048.57 209.858 1048.57H215.328C218.102 1048.57 220.763 1047.62 222.725 1045.93C224.686 1044.25 225.788 1041.96 225.788 1039.57V1038.21C225.788 1035.82 224.686 1033.53 222.725 1031.85C220.763 1030.16 218.102 1029.21 215.328 1029.21H209.858C209.643 1029.21 209.437 1029.3 209.286 1029.45C209.134 1029.6 209.048 1029.81 209.048 1030.02Z" fill="#967D2D"/>
<path d="M272.38 1045.25H290.14C290.23 1045.25 290.317 1045.28 290.381 1045.35C290.444 1045.41 290.48 1045.5 290.48 1045.59L290.49 1053.16C290.49 1053.25 290.454 1053.34 290.391 1053.4C290.327 1053.46 290.24 1053.5 290.15 1053.5H272.37C272.28 1053.5 272.194 1053.53 272.13 1053.6C272.066 1053.66 272.03 1053.75 272.03 1053.84L272.04 1070.28C272.04 1070.37 272.076 1070.46 272.14 1070.52C272.204 1070.58 272.29 1070.62 272.38 1070.62L295.85 1070.63C295.94 1070.63 296.027 1070.66 296.091 1070.73C296.154 1070.79 296.19 1070.88 296.19 1070.97L296.18 1078.54C296.18 1078.63 296.144 1078.72 296.081 1078.78C296.017 1078.84 295.93 1078.88 295.84 1078.88H260.91C260.866 1078.88 260.821 1078.87 260.78 1078.85C260.739 1078.84 260.701 1078.81 260.67 1078.78C260.638 1078.75 260.613 1078.71 260.596 1078.67C260.579 1078.63 260.57 1078.58 260.57 1078.54V1022.21C260.57 1022.16 260.579 1022.12 260.596 1022.08C260.613 1022.04 260.638 1022 260.67 1021.97C260.701 1021.94 260.739 1021.91 260.78 1021.9C260.821 1021.88 260.866 1021.87 260.91 1021.87H294.43C294.52 1021.87 294.607 1021.9 294.671 1021.97C294.734 1022.03 294.77 1022.12 294.77 1022.21L294.76 1029.83C294.76 1029.92 294.724 1030.01 294.661 1030.07C294.597 1030.13 294.51 1030.17 294.42 1030.17L272.37 1030.18C272.28 1030.18 272.194 1030.21 272.13 1030.28C272.066 1030.34 272.03 1030.43 272.03 1030.52L272.04 1044.91C272.04 1045 272.076 1045.09 272.14 1045.15C272.204 1045.21 272.29 1045.25 272.38 1045.25Z" fill="#967D2D"/>
<path d="M326.819 1056.54C326.757 1056.53 326.694 1056.53 326.632 1056.55C326.571 1056.56 326.515 1056.59 326.466 1056.63C326.417 1056.67 326.378 1056.72 326.351 1056.78C326.324 1056.83 326.31 1056.9 326.309 1056.96L326.319 1078.41C326.319 1078.74 326.159 1078.9 325.839 1078.9L315.279 1078.87C315.192 1078.87 315.108 1078.83 315.046 1078.77C314.984 1078.71 314.949 1078.62 314.949 1078.53V1022.28C314.949 1022.06 315.059 1021.95 315.279 1021.94C321.673 1021.69 327.883 1021.67 333.909 1021.88C342.639 1022.18 353.269 1025.6 354.459 1035.95C356.429 1053.07 341.019 1059.26 326.819 1056.54ZM326.249 1030.77L326.189 1047.23C326.188 1047.44 326.229 1047.66 326.31 1047.86C326.392 1048.06 326.512 1048.24 326.663 1048.39C326.815 1048.54 326.995 1048.66 327.193 1048.74C327.392 1048.83 327.604 1048.87 327.819 1048.87L333.129 1048.88C335.796 1048.89 338.357 1047.92 340.249 1046.19C342.141 1044.45 343.209 1042.1 343.219 1039.64V1038.48C343.224 1037.26 342.969 1036.05 342.467 1034.92C341.966 1033.8 341.228 1032.77 340.297 1031.9C339.365 1031.04 338.258 1030.35 337.039 1029.88C335.819 1029.41 334.511 1029.16 333.189 1029.16L327.879 1029.15C327.449 1029.15 327.036 1029.32 326.73 1029.62C326.425 1029.93 326.252 1030.34 326.249 1030.77Z" fill="#967D2D"/>
<path d="M398.16 1071.4C406.89 1071.13 410.04 1064.03 410.02 1056.37C409.986 1045.5 409.976 1034.24 409.99 1022.58C409.99 1022.11 410.223 1021.88 410.69 1021.88H420.36C420.82 1021.88 421.05 1022.11 421.05 1022.58C420.943 1032.23 420.95 1042.23 421.07 1052.58C421.143 1059.24 420.61 1064.03 419.47 1066.96C416.63 1074.25 411.076 1078.47 402.81 1079.6C391.29 1081.19 378.65 1078.28 374.45 1066.44C373.416 1063.53 372.943 1058.48 373.03 1051.31C373.156 1040.97 373.163 1031.4 373.05 1022.59C373.05 1022.12 373.286 1021.88 373.76 1021.88L384.11 1021.87C384.187 1021.87 384.262 1021.9 384.318 1021.95C384.374 1022.01 384.407 1022.08 384.41 1022.16C384.51 1032.53 384.5 1043.15 384.38 1054.04C384.28 1063.76 386.83 1071.76 398.16 1071.4Z" fill="#967D2D"/>
<path d="M471.402 1049.29C477.892 1050.64 483.602 1054.64 483.922 1061.68C484.522 1074.79 474.172 1079.07 463.042 1079.1C456.722 1079.12 450.298 1079.07 443.772 1078.94C443.659 1078.94 443.552 1078.89 443.474 1078.81C443.395 1078.73 443.351 1078.61 443.352 1078.5V1022.4C443.351 1022.32 443.379 1022.25 443.429 1022.19C443.479 1022.14 443.548 1022.1 443.622 1022.1C450.782 1021.75 458.068 1021.83 465.482 1022.33C473.862 1022.89 482.372 1026.41 481.752 1036.17C481.338 1042.72 477.882 1046.94 471.382 1048.81C470.742 1048.99 470.748 1049.15 471.402 1049.29ZM454.682 1029.81L454.702 1045.69C454.702 1045.78 454.719 1045.87 454.754 1045.95C454.789 1046.04 454.84 1046.11 454.904 1046.17C454.968 1046.24 455.045 1046.29 455.128 1046.32C455.212 1046.35 455.301 1046.37 455.392 1046.37L461.052 1046.36C463.516 1046.35 465.877 1045.51 467.617 1044.01C469.357 1042.52 470.333 1040.49 470.332 1038.38V1037.08C470.331 1036.03 470.089 1034.99 469.62 1034.03C469.151 1033.06 468.464 1032.18 467.598 1031.44C466.733 1030.7 465.705 1030.12 464.575 1029.72C463.445 1029.32 462.234 1029.12 461.012 1029.12L455.352 1029.13C455.173 1029.13 455.003 1029.21 454.877 1029.33C454.752 1029.46 454.682 1029.63 454.682 1029.81ZM472.592 1061.92C472.012 1053.27 461.502 1053.18 455.332 1053.61C454.952 1053.64 454.762 1053.84 454.762 1054.22V1070.48C454.762 1070.85 454.942 1071.05 455.302 1071.1C462.312 1072.07 473.292 1072.28 472.592 1061.92Z" fill="#967D2D"/>
<path d="M516.5 1070.07L537.96 1070.05C538.042 1070.05 538.121 1070.08 538.179 1070.14C538.237 1070.2 538.27 1070.28 538.27 1070.36L538.28 1078.57C538.28 1078.61 538.272 1078.65 538.256 1078.69C538.241 1078.73 538.218 1078.76 538.189 1078.79C538.16 1078.82 538.126 1078.84 538.089 1078.86C538.051 1078.87 538.011 1078.88 537.97 1078.88H505.06C505.019 1078.88 504.979 1078.87 504.941 1078.86C504.904 1078.84 504.87 1078.82 504.841 1078.79C504.812 1078.76 504.789 1078.73 504.774 1078.69C504.758 1078.65 504.75 1078.61 504.75 1078.57V1022.19C504.75 1022.11 504.783 1022.03 504.841 1021.97C504.899 1021.91 504.978 1021.88 505.06 1021.88L515.88 1021.89C515.921 1021.89 515.961 1021.9 515.999 1021.91C516.036 1021.93 516.07 1021.95 516.099 1021.98C516.128 1022.01 516.151 1022.04 516.166 1022.08C516.182 1022.12 516.19 1022.16 516.19 1022.2V1069.76C516.19 1069.84 516.223 1069.92 516.281 1069.98C516.339 1070.04 516.418 1070.07 516.5 1070.07Z" fill="#967D2D"/>
<path d="M567.341 1021.87H556.761C556.546 1021.87 556.371 1022.04 556.371 1022.26V1078.5C556.371 1078.71 556.546 1078.89 556.761 1078.89H567.341C567.557 1078.89 567.731 1078.71 567.731 1078.5V1022.26C567.731 1022.04 567.557 1021.87 567.341 1021.87Z" fill="#967D2D"/>
<path d="M749.699 1022.25C749.699 1022.2 749.72 1022.15 749.758 1022.11C749.795 1022.07 749.846 1022.05 749.899 1022.05H769.809C777.471 1022.05 784.82 1024.83 790.238 1029.79C795.655 1034.74 798.699 1041.46 798.699 1048.47V1052.47C798.699 1059.48 795.655 1066.2 790.238 1071.15C784.82 1076.11 777.471 1078.89 769.809 1078.89H749.899C749.846 1078.89 749.795 1078.87 749.758 1078.83C749.72 1078.79 749.699 1078.74 749.699 1078.69V1022.25ZM760.919 1030.75L761.059 1069.81C761.062 1070.09 761.174 1070.35 761.37 1070.55C761.567 1070.74 761.832 1070.85 762.109 1070.85L768.869 1070.83C771.288 1070.82 773.681 1070.34 775.912 1069.42C778.143 1068.5 780.169 1067.15 781.873 1065.45C783.577 1063.75 784.926 1061.74 785.844 1059.52C786.761 1057.31 787.228 1054.93 787.219 1052.54L787.199 1047.82C787.181 1042.99 785.225 1038.36 781.761 1034.96C778.298 1031.56 773.61 1029.65 768.729 1029.67L761.969 1029.69C761.83 1029.69 761.693 1029.72 761.565 1029.77C761.437 1029.83 761.321 1029.9 761.223 1030C761.126 1030.1 761.048 1030.22 760.996 1030.35C760.944 1030.47 760.918 1030.61 760.919 1030.75Z" fill="#967D2D"/>
<path d="M904.811 1042.66L904.261 1078.44C904.255 1078.73 904.105 1078.88 903.811 1078.88L893.961 1078.89C893.904 1078.89 893.847 1078.88 893.794 1078.86C893.742 1078.83 893.694 1078.8 893.654 1078.76C893.614 1078.72 893.582 1078.67 893.561 1078.62C893.54 1078.56 893.53 1078.51 893.531 1078.45L894.781 1022.54C894.795 1022.1 895.021 1021.88 895.461 1021.88L907.361 1021.87C907.506 1021.87 907.648 1021.91 907.767 1022C907.887 1022.08 907.979 1022.19 908.031 1022.33L923.751 1060.93C923.845 1061.15 923.925 1061.15 923.991 1060.92C924.871 1058.07 925.875 1055.25 927.001 1052.45C931.075 1042.28 935.111 1032.24 939.111 1022.31C939.225 1022.02 939.441 1021.87 939.761 1021.87L951.431 1021.89C951.798 1021.89 951.985 1022.07 951.991 1022.43L953.311 1078.29C953.318 1078.7 953.118 1078.9 952.711 1078.9L942.551 1078.87C942.165 1078.87 941.968 1078.68 941.961 1078.3L941.091 1042.77C941.071 1042.02 940.918 1041.99 940.631 1042.68L925.851 1078.19C925.665 1078.65 925.321 1078.88 924.821 1078.88L920.231 1078.9C920.087 1078.9 919.946 1078.86 919.826 1078.78C919.707 1078.7 919.614 1078.59 919.561 1078.46L905.171 1042.6C904.938 1042.03 904.818 1042.05 904.811 1042.66Z" fill="#967D2D"/>
<path d="M987.471 1021.87H976.751C976.591 1021.87 976.461 1022 976.461 1022.16V1078.6C976.461 1078.76 976.591 1078.89 976.751 1078.89H987.471C987.631 1078.89 987.761 1078.76 987.761 1078.6V1022.16C987.761 1022 987.631 1021.87 987.471 1021.87Z" fill="#967D2D"/>
<path d="M1021.74 1041.26L1021.75 1078.61C1021.75 1078.65 1021.74 1078.69 1021.73 1078.72C1021.71 1078.76 1021.69 1078.79 1021.66 1078.82C1021.63 1078.85 1021.6 1078.87 1021.56 1078.89C1021.53 1078.9 1021.49 1078.91 1021.45 1078.91L1011.66 1078.88C1011.62 1078.88 1011.58 1078.87 1011.54 1078.86C1011.51 1078.84 1011.48 1078.82 1011.45 1078.79C1011.42 1078.76 1011.4 1078.73 1011.38 1078.69C1011.37 1078.66 1011.36 1078.62 1011.36 1078.58L1011.51 1022.16C1011.51 1022.08 1011.54 1022 1011.6 1021.95C1011.65 1021.89 1011.73 1021.86 1011.81 1021.86L1020.39 1021.88C1020.43 1021.88 1020.48 1021.89 1020.52 1021.91C1020.56 1021.93 1020.59 1021.96 1020.62 1021.99L1050.04 1058.64C1050.08 1058.69 1050.13 1058.72 1050.19 1058.74C1050.25 1058.75 1050.31 1058.75 1050.37 1058.73C1050.42 1058.71 1050.47 1058.68 1050.51 1058.63C1050.55 1058.58 1050.57 1058.52 1050.57 1058.46L1050.79 1022.17C1050.79 1022.09 1050.82 1022.01 1050.88 1021.96C1050.93 1021.9 1051.01 1021.87 1051.09 1021.87L1060.77 1021.89C1060.85 1021.89 1060.93 1021.92 1060.98 1021.98C1061.04 1022.03 1061.07 1022.11 1061.07 1022.19L1060.75 1079.27C1060.75 1079.35 1060.72 1079.43 1060.66 1079.48C1060.61 1079.54 1060.53 1079.57 1060.45 1079.57L1053.48 1079.59C1053.44 1079.59 1053.39 1079.58 1053.35 1079.56C1053.31 1079.54 1053.28 1079.51 1053.25 1079.48L1022.27 1041.07C1022.23 1041.02 1022.18 1040.99 1022.12 1040.97C1022.06 1040.96 1022 1040.96 1021.94 1040.98C1021.88 1041 1021.83 1041.04 1021.79 1041.09C1021.76 1041.14 1021.74 1041.2 1021.74 1041.26Z" fill="#967D2D"/>
<path d="M1095.54 1021.87H1084.98C1084.75 1021.87 1084.57 1022.05 1084.57 1022.28V1078.48C1084.57 1078.71 1084.75 1078.89 1084.98 1078.89H1095.54C1095.77 1078.89 1095.95 1078.71 1095.95 1078.48V1022.28C1095.95 1022.05 1095.77 1021.87 1095.54 1021.87Z" fill="#967D2D"/>
<path d="M1291.24 1058.74L1291.49 1022.56C1291.49 1022.1 1291.72 1021.87 1292.19 1021.87H1301.06C1301.52 1021.87 1301.75 1022.1 1301.75 1022.56L1301.5 1079.04C1301.49 1079.4 1301.31 1079.58 1300.96 1079.57L1294.7 1079.56C1294.26 1079.56 1293.9 1079.39 1293.63 1079.05L1262.99 1041.05C1262.64 1040.62 1262.46 1040.68 1262.46 1041.24L1262.47 1078.47C1262.47 1078.59 1262.42 1078.7 1262.34 1078.78C1262.26 1078.86 1262.15 1078.91 1262.03 1078.91L1252.57 1078.86C1252.42 1078.86 1252.28 1078.8 1252.18 1078.7C1252.08 1078.6 1252.02 1078.46 1252.02 1078.32L1252.25 1022.24C1252.25 1022.14 1252.29 1022.05 1252.35 1021.98C1252.42 1021.91 1252.51 1021.87 1252.61 1021.87H1260.79C1260.94 1021.87 1261.08 1021.9 1261.22 1021.97C1261.35 1022.04 1261.47 1022.13 1261.56 1022.25L1290.91 1058.86C1290.93 1058.89 1290.97 1058.91 1291 1058.92C1291.04 1058.92 1291.08 1058.92 1291.11 1058.91C1291.15 1058.9 1291.18 1058.87 1291.2 1058.84C1291.23 1058.81 1291.24 1058.78 1291.24 1058.74Z" fill="#967D2D"/>
</svg>
