<svg width="1000" height="600" viewBox="0 0 1000 600" fill="none" xmlns="http://www.w3.org/2000/svg">
<path d="M562.531 315.769C562.081 295.899 572.141 276.179 591.871 269.749C598.431 267.616 605.221 267.496 612.241 269.389C630.211 274.219 639.371 290.349 642.821 307.429C643.448 310.509 643.758 313.656 643.751 316.869C643.731 343.429 643.724 369.672 643.731 395.599C643.731 395.879 643.588 396.019 643.301 396.019C596.514 395.959 548.404 395.972 498.971 396.059C491.618 396.072 485.148 395.682 479.561 394.889C452.241 391.003 428.188 379.726 407.401 361.059C377.431 334.159 359.831 296.769 356.131 256.599C352.598 218.259 361.018 183.146 381.391 151.259C393.311 132.589 409.751 116.599 428.451 105.229C444.721 95.3292 463.741 88.8591 483.041 86.5491C488.181 85.9358 494.651 85.6392 502.451 85.6592C550.358 85.7925 597.261 85.8158 643.161 85.7292C643.541 85.7292 643.731 85.9191 643.731 86.2991V169.759C643.731 169.823 643.706 169.884 643.661 169.929C643.616 169.974 643.555 169.999 643.491 169.999H580.031C579.764 169.999 579.554 170.109 579.401 170.329L539.281 227.229C539.167 227.39 539.016 227.521 538.842 227.611C538.668 227.702 538.476 227.749 538.281 227.749H480.201C479.834 227.749 479.651 227.932 479.651 228.299L480.311 290.969C480.318 291.322 480.141 291.499 479.781 291.499H475.191C474.824 291.499 474.634 291.686 474.621 292.059L473.941 315.089C473.928 315.536 474.144 315.762 474.591 315.769L561.811 316.499C562.298 316.506 562.538 316.262 562.531 315.769Z" fill="#76B608"/>
<path d="M254.268 224.58C254.702 224.193 254.628 224 254.048 224L101.788 222.99C101.668 222.987 101.551 222.96 101.442 222.912C101.334 222.864 101.238 222.795 101.158 222.71L82.5584 201.96C82.4293 201.815 82.2713 201.697 82.0943 201.615C81.9172 201.532 81.7247 201.486 81.5284 201.48L61.7084 200.77C61.2884 200.75 60.9251 200.6 60.6184 200.32L48.3484 188.93C48.0484 188.657 47.8984 188.317 47.8984 187.91L47.9084 87.12C47.9084 86.7067 48.1151 86.5 48.5284 86.5C97.3351 86.5067 146.188 86.5067 195.088 86.5C221.478 86.49 247.928 95.45 269.568 110.24C303.288 133.28 325.658 170.44 333.068 210.5C334.408 217.753 335.332 225.493 335.838 233.72C339.418 291.65 310.018 350.61 259.448 379.23C238.828 390.897 216.172 396.733 191.478 396.74C143.812 396.753 96.1384 396.757 48.4584 396.75C48.0918 396.75 47.9084 396.567 47.9084 396.2L47.8984 311.55C47.8984 311.017 48.1651 310.75 48.6984 310.75H155.278C155.625 310.75 155.932 310.633 156.198 310.4L254.268 224.58Z" fill="#1A246C"/>
<path d="M763.539 229.75C763.481 229.751 763.424 229.765 763.373 229.791C763.322 229.817 763.277 229.855 763.243 229.902C763.209 229.949 763.186 230.003 763.177 230.06C763.168 230.117 763.172 230.175 763.189 230.23L800.369 349.95C800.396 350.041 800.405 350.136 800.396 350.23C800.386 350.325 800.357 350.415 800.311 350.498C800.265 350.58 800.203 350.652 800.129 350.709C800.055 350.766 799.97 350.807 799.879 350.83C792.419 352.73 773.169 358.25 771.169 365.57C768.439 375.62 784.449 380.32 791.449 382.06C798.109 383.727 804.412 385.103 810.359 386.19C810.538 386.223 810.704 386.304 810.841 386.424C810.979 386.543 811.081 386.697 811.139 386.87L814.199 396.05C814.352 396.517 814.186 396.75 813.699 396.75H682.009C681.642 396.75 681.525 396.58 681.659 396.24L800.129 90.11C800.289 89.7033 800.586 89.5 801.019 89.5H845.819C846.239 89.5 846.525 89.6933 846.679 90.08L956.229 365.56C956.415 366.033 956.279 366.163 955.819 365.95C947.765 362.243 939.709 358.627 931.649 355.1C930.176 354.453 928.859 353.54 927.699 352.36C887.906 311.567 848.159 270.833 808.459 230.16C808.199 229.887 807.879 229.75 807.499 229.75H763.539Z" fill="#668FD0"/>
<path d="M67.939 484.431C65.839 489.344 63.8023 494.127 61.829 498.781C58.359 506.981 61.679 509.461 69.639 509.661C69.7884 509.663 69.9309 509.726 70.0356 509.834C70.1404 509.943 70.199 510.089 70.199 510.241L70.209 511.771C70.209 512.091 70.049 512.251 69.729 512.251H43.749C43.5823 512.251 43.4956 512.167 43.489 512.001L43.469 510.221C43.4623 509.934 43.6023 509.774 43.889 509.741C46.509 509.441 49.589 508.641 51.279 506.411C53.3723 503.664 55.1723 500.524 56.679 496.991C66.859 473.137 76.9423 449.571 86.929 426.291C87.0494 426.012 87.2489 425.775 87.5028 425.609C87.7567 425.442 88.0538 425.354 88.3573 425.355C88.6608 425.357 88.9573 425.447 89.21 425.615C89.4627 425.783 89.6606 426.021 89.779 426.301C100.066 450.907 110.242 475.207 120.309 499.201C122.729 504.961 126.269 509.651 133.209 509.671C133.291 509.671 133.37 509.703 133.428 509.761C133.486 509.82 133.519 509.898 133.519 509.981V511.991C133.519 512.164 133.432 512.251 133.259 512.251H100.509C100.189 512.251 100.029 512.087 100.029 511.761L100.039 510.281C100.046 509.894 100.242 509.714 100.629 509.741C104.019 509.991 107.999 509.071 108.639 505.191C108.866 503.791 108.342 501.474 107.069 498.241C105.236 493.627 103.282 488.954 101.209 484.221C101.069 483.907 100.826 483.751 100.479 483.751H68.969C68.4756 483.751 68.1323 483.977 67.939 484.431ZM70.399 478.721C70.3756 478.772 70.3655 478.829 70.3698 478.886C70.374 478.943 70.3924 478.997 70.4232 479.045C70.454 479.093 70.4964 479.132 70.5463 479.159C70.5962 479.186 70.6521 479.201 70.709 479.201L98.829 479.301C98.8858 479.301 98.9418 479.286 98.9917 479.259C99.0416 479.232 99.0839 479.193 99.1148 479.145C99.1456 479.097 99.164 479.043 99.1682 478.986C99.1724 478.929 99.1624 478.872 99.139 478.821L85.199 445.731C85.1735 445.668 85.13 445.614 85.0738 445.577C85.0177 445.539 84.9516 445.519 84.884 445.519C84.8163 445.519 84.7502 445.539 84.6941 445.577C84.638 445.614 84.5944 445.668 84.569 445.731L70.399 478.721Z" fill="black"/>
<path d="M487.679 484.29C484.652 491.07 482.289 496.75 480.589 501.33C477.979 508.34 484.059 509.44 489.309 509.7C489.655 509.713 489.829 509.893 489.829 510.24L489.809 511.72C489.809 511.789 489.795 511.858 489.768 511.922C489.742 511.987 489.703 512.045 489.653 512.094C489.604 512.144 489.546 512.183 489.482 512.209C489.417 512.236 489.348 512.25 489.279 512.25H463.669C463.275 512.25 463.075 512.053 463.069 511.66L463.059 510.52C463.052 510.046 463.282 509.78 463.749 509.72C466.249 509.41 469.139 508.59 470.789 506.54C472.755 504.086 474.325 501.503 475.499 498.79C485.605 475.303 495.959 451.123 506.559 426.25C506.679 425.971 506.879 425.734 507.133 425.568C507.386 425.401 507.684 425.313 507.987 425.314C508.291 425.316 508.587 425.406 508.84 425.574C509.092 425.742 509.29 425.98 509.409 426.26C519.502 450.393 529.692 474.726 539.979 499.26C540.785 501.186 541.999 503.24 543.619 505.42C545.679 508.193 548.775 509.613 552.909 509.68C553.102 509.68 553.202 509.78 553.209 509.98L553.219 512.01C553.219 512.073 553.195 512.134 553.151 512.179C553.108 512.224 553.05 512.25 552.989 512.25H520.239C519.899 512.25 519.729 512.08 519.729 511.74L519.739 510.04C519.745 509.813 519.862 509.706 520.089 509.72C521.189 509.806 522.312 509.753 523.459 509.56C529.629 508.56 528.669 503.2 527.009 499C525.109 494.193 523.075 489.266 520.909 484.22C520.85 484.08 520.751 483.961 520.625 483.878C520.498 483.794 520.35 483.75 520.199 483.75H488.519C488.119 483.75 487.839 483.93 487.679 484.29ZM490.049 478.74C490.027 478.79 490.019 478.844 490.023 478.898C490.028 478.952 490.046 479.004 490.076 479.05C490.105 479.095 490.146 479.133 490.193 479.159C490.241 479.185 490.294 479.199 490.349 479.2L518.489 479.3C518.544 479.301 518.598 479.288 518.647 479.263C518.696 479.237 518.738 479.2 518.769 479.154C518.8 479.108 518.819 479.056 518.824 479.001C518.829 478.946 518.82 478.89 518.799 478.84L504.839 445.71C504.815 445.649 504.773 445.597 504.72 445.559C504.666 445.522 504.602 445.502 504.537 445.501C504.472 445.5 504.408 445.518 504.353 445.553C504.298 445.589 504.255 445.64 504.229 445.7L490.049 478.74Z" fill="black"/>
<path d="M799.79 483.749H768.27C767.85 483.749 767.557 483.946 767.39 484.339C765.584 488.573 763.614 493.196 761.48 498.209C760.92 499.529 760.434 500.949 760.02 502.469C758.31 508.809 764.85 509.499 769.08 509.689C769.407 509.703 769.57 509.873 769.57 510.199L769.58 511.829C769.58 512.109 769.444 512.249 769.17 512.249H743.7C743.12 512.249 742.827 511.959 742.82 511.379V510.579C742.814 510.033 743.08 509.729 743.62 509.669C746.06 509.409 748.89 508.619 750.49 506.629C752.51 504.103 754.117 501.456 755.31 498.689C765.95 473.936 776.287 449.796 786.32 426.269C786.439 425.988 786.639 425.748 786.894 425.579C787.149 425.411 787.448 425.321 787.754 425.322C788.059 425.323 788.358 425.415 788.612 425.585C788.866 425.755 789.063 425.997 789.18 426.279C799.634 451.293 809.654 475.206 819.24 498.019C821.77 504.049 824.81 509.479 832.34 509.639C832.511 509.642 832.674 509.713 832.794 509.836C832.913 509.96 832.98 510.126 832.98 510.299L832.99 511.759C832.99 512.086 832.824 512.249 832.49 512.249H799.75C799.684 512.249 799.621 512.223 799.574 512.176C799.527 512.129 799.5 512.066 799.5 511.999V510.029C799.5 509.993 799.508 509.957 799.522 509.924C799.536 509.89 799.557 509.86 799.583 509.835C799.609 509.81 799.64 509.79 799.674 509.777C799.708 509.764 799.744 509.758 799.78 509.759C807.84 510.029 809.48 505.849 806.91 499.349C804.884 494.236 802.827 489.246 800.74 484.379C800.56 483.959 800.244 483.749 799.79 483.749ZM769.79 478.779C769.771 478.825 769.762 478.874 769.766 478.923C769.77 478.973 769.786 479.02 769.813 479.062C769.84 479.103 769.876 479.137 769.919 479.161C769.963 479.186 770.011 479.199 770.06 479.199L798.3 479.299C798.35 479.298 798.398 479.286 798.441 479.261C798.485 479.237 798.521 479.203 798.548 479.162C798.575 479.12 798.591 479.073 798.595 479.023C798.598 478.974 798.59 478.925 798.57 478.879L784.57 445.649C784.548 445.595 784.51 445.549 784.462 445.516C784.414 445.483 784.357 445.465 784.299 445.464C784.24 445.463 784.183 445.479 784.133 445.51C784.084 445.541 784.045 445.586 784.02 445.639L769.79 478.779Z" fill="black"/>
<path d="M897.741 509.311C894.911 508.621 893.171 510.981 893.011 513.561C892.978 514.028 892.728 514.261 892.261 514.261L891.021 514.251C890.897 514.248 890.779 514.197 890.692 514.107C890.604 514.018 890.554 513.897 890.551 513.771V485.491C890.551 485.178 890.705 485.021 891.011 485.021L892.491 484.991C892.798 484.991 892.975 485.144 893.021 485.451C894.861 497.481 899.731 505.851 912.371 508.601C918.451 509.921 926.461 508.921 930.921 504.461C935.081 500.311 936.241 494.471 933.391 489.291C931.778 486.364 929.835 484.224 927.561 482.871C919.995 478.364 912.545 473.961 905.211 469.661C896.291 464.431 889.191 457.631 889.851 446.371C890.131 441.624 891.918 437.404 895.211 433.711C904.071 423.761 918.621 423.611 930.131 429.371C933.411 431.011 937.291 430.571 937.941 426.181C937.97 425.98 938.072 425.798 938.227 425.667C938.381 425.536 938.579 425.466 938.781 425.471L939.761 425.501C940.255 425.514 940.501 425.768 940.501 426.261V454.241C940.501 454.374 940.45 454.503 940.358 454.598C940.267 454.693 940.142 454.748 940.011 454.751L938.631 454.781C938.285 454.794 938.091 454.628 938.051 454.281C936.551 441.321 930.501 432.651 917.331 430.751C911.021 429.841 905.181 432.001 901.591 437.331C896.521 444.851 902.101 451.611 908.221 455.491C913.668 458.938 920.105 462.681 927.531 466.721C931.821 469.051 936.871 472.201 940.021 475.481C947.631 483.391 948.091 495.321 941.311 504.171C933.091 514.891 919.061 516.131 906.811 511.991C903.491 510.871 900.468 509.978 897.741 509.311Z" fill="black"/>
<path d="M248.069 507.16C240.609 510.8 232.619 512.12 224.339 512.18C212.265 512.273 199.155 512.287 185.009 512.22C184.662 512.22 184.495 512.05 184.509 511.71L184.549 510.1C184.555 509.773 184.722 509.627 185.049 509.66C192.239 510.48 196.649 508.19 196.689 500.42C196.769 481.02 196.782 461.75 196.729 442.61C196.719 437.79 197.009 431.63 191.059 430.26C188.992 429.78 187.012 429.627 185.119 429.8C184.719 429.833 184.519 429.65 184.519 429.25V427.75C184.519 427.417 184.689 427.25 185.029 427.25C197.529 427.25 209.989 427.253 222.409 427.26C230.389 427.26 237.625 428.263 244.119 430.27C250.699 432.29 256.325 436.2 260.999 442C267.629 450.23 270.199 460.44 269.919 471.09C269.519 486.19 261.829 500.45 248.069 507.16ZM237.079 504.34C245.589 500.41 252.439 491.04 254.429 481.72C256.195 473.42 256.105 465.27 254.159 457.27C251.219 445.16 241.869 435.38 229.519 432.92C222.259 431.467 215.489 431.797 209.209 433.91C208.902 434.01 208.749 434.223 208.749 434.55V505.45C208.749 505.584 208.793 505.714 208.875 505.819C208.956 505.924 209.07 505.999 209.199 506.03C218.919 508.35 227.919 508.56 237.079 504.34Z" fill="black"/>
<path d="M412.879 429.77C405.169 429.43 401.219 432.27 401.209 440.13C401.189 451.937 401.183 463.973 401.189 476.24C401.199 485.16 400.799 495.77 395.349 502.85C386.779 513.98 373.469 515.36 360.259 513.57C348.139 511.937 340.389 505.88 337.009 495.4C335.916 492.007 335.353 487.253 335.319 481.14C335.246 467.413 335.213 453.987 335.219 440.86C335.219 431.85 332.159 429.28 323.289 429.79C323.063 429.803 322.949 429.697 322.949 429.47L322.959 427.52C322.959 427.34 323.049 427.25 323.229 427.25H359.019C359.366 427.25 359.543 427.423 359.549 427.77L359.569 429.26C359.569 429.324 359.557 429.388 359.532 429.448C359.507 429.507 359.471 429.561 359.426 429.606C359.38 429.652 359.326 429.688 359.267 429.713C359.207 429.737 359.144 429.75 359.079 429.75C351.589 429.66 347.399 431.1 347.319 439.33C347.193 451.837 347.199 465.867 347.339 481.42C347.379 486.77 348.059 494.71 350.749 499.3C358.149 511.97 376.349 510.77 387.049 503.36C394.359 498.3 395.379 489.06 395.439 481.02C395.539 468.633 395.563 455.543 395.509 441.75C395.503 440.103 395.396 438.337 395.189 436.45C394.499 430.31 388.839 429.39 383.889 429.78C383.523 429.807 383.339 429.64 383.339 429.28L383.319 427.72C383.313 427.407 383.466 427.25 383.779 427.25H412.999C413.097 427.25 413.191 427.289 413.261 427.358C413.33 427.428 413.369 427.522 413.369 427.62L413.359 429.31C413.359 429.63 413.199 429.783 412.879 429.77Z" fill="black"/>
<path d="M675.159 490.19C675.232 473.33 675.219 456.587 675.119 439.96C675.106 437.84 674.816 435.813 674.249 433.88C673.159 430.13 666.979 429.53 663.709 429.78C663.362 429.807 663.189 429.643 663.189 429.29L663.199 427.52C663.199 427.34 663.292 427.25 663.479 427.25H692.229C692.549 427.25 692.709 427.41 692.709 427.73L692.719 429.26C692.719 429.62 692.539 429.787 692.179 429.76C685.729 429.38 680.769 430.9 680.749 438.58C680.689 464.493 680.679 489.217 680.719 512.75C680.719 513.077 680.569 513.303 680.269 513.43C679.342 513.837 678.549 513.637 677.889 512.83C659.576 490.477 641.262 468.127 622.949 445.78C622.656 445.42 622.509 445.473 622.509 445.94C622.502 463.52 622.502 480.987 622.509 498.34C622.509 503.22 622.749 508.79 628.609 509.57C630.336 509.803 632.126 509.847 633.979 509.7C634.048 509.694 634.116 509.703 634.181 509.726C634.246 509.749 634.305 509.785 634.355 509.832C634.405 509.879 634.445 509.936 634.471 510C634.498 510.063 634.511 510.131 634.509 510.2V511.75C634.509 512.083 634.339 512.25 633.999 512.25H605.499C605.166 512.25 604.999 512.083 604.999 511.75V510.23C604.999 509.877 605.179 509.71 605.539 509.73C609.399 509.95 614.719 509.53 616.089 505.33C616.722 503.39 617.036 501.16 617.029 498.64C616.976 478.073 616.972 458.303 617.019 439.33C617.019 438.97 616.919 438.64 616.719 438.34C612.799 432.507 607.392 429.617 600.499 429.67C600.359 429.67 600.289 429.603 600.289 429.47V427.48C600.289 427.327 600.366 427.25 600.519 427.25H622.699C623.112 427.25 623.449 427.41 623.709 427.73L674.659 490.37C674.986 490.777 675.152 490.717 675.159 490.19Z" fill="black"/>
</svg>
