<svg width="860" height="283" viewBox="0 0 860 283" fill="none" xmlns="http://www.w3.org/2000/svg">
<path d="M716.785 108.411C716.717 108.412 716.652 108.391 716.598 108.351C716.544 108.311 716.504 108.255 716.485 108.191L715.275 104.271C715.257 104.205 715.218 104.146 715.164 104.104C715.11 104.062 715.043 104.039 714.975 104.039C714.906 104.039 714.839 104.062 714.785 104.104C714.731 104.146 714.692 104.205 714.675 104.271L713.475 108.201C713.455 108.265 713.415 108.321 713.361 108.361C713.307 108.401 713.242 108.422 713.175 108.421L709.064 108.361C708.999 108.362 708.936 108.383 708.884 108.421C708.831 108.46 708.793 108.514 708.773 108.576C708.753 108.638 708.753 108.705 708.773 108.767C708.793 108.828 708.832 108.882 708.885 108.921L712.254 111.281C712.309 111.319 712.351 111.373 712.372 111.436C712.394 111.499 712.395 111.567 712.374 111.631L711.045 115.521C711.022 115.584 711.021 115.652 711.041 115.716C711.06 115.78 711.1 115.835 711.154 115.875C711.208 115.914 711.273 115.935 711.34 115.934C711.407 115.934 711.471 115.911 711.525 115.871L714.804 113.391C714.858 113.351 714.923 113.33 714.989 113.33C715.056 113.33 715.121 113.351 715.175 113.391L718.465 115.861C718.518 115.901 718.582 115.924 718.649 115.924C718.716 115.925 718.781 115.904 718.835 115.865C718.889 115.825 718.929 115.77 718.948 115.706C718.968 115.642 718.967 115.574 718.944 115.511L717.605 111.621C717.583 111.559 717.582 111.491 717.602 111.428C717.622 111.365 717.661 111.31 717.715 111.271L721.075 108.901C721.127 108.862 721.166 108.808 721.186 108.747C721.206 108.685 721.206 108.618 721.186 108.556C721.166 108.494 721.128 108.44 721.075 108.401C721.023 108.363 720.96 108.342 720.895 108.341L716.785 108.411Z" stroke="#80994A" stroke-width="2"/>
<path d="M700.915 112.571C700.848 112.571 700.783 112.55 700.728 112.511C700.674 112.471 700.635 112.415 700.615 112.351L699.395 108.471C699.375 108.408 699.336 108.354 699.283 108.315C699.23 108.277 699.166 108.256 699.1 108.256C699.035 108.256 698.971 108.277 698.918 108.315C698.865 108.354 698.825 108.408 698.805 108.471L697.625 112.361C697.606 112.425 697.566 112.481 697.512 112.521C697.458 112.56 697.392 112.581 697.325 112.581L693.255 112.531C693.187 112.528 693.121 112.548 693.065 112.587C693.01 112.626 692.968 112.682 692.948 112.747C692.928 112.812 692.929 112.881 692.952 112.945C692.975 113.009 693.018 113.064 693.075 113.101L696.405 115.431C696.46 115.468 696.501 115.523 696.523 115.586C696.545 115.649 696.545 115.717 696.525 115.781L695.225 119.631C695.203 119.694 695.202 119.762 695.221 119.826C695.241 119.889 695.281 119.945 695.335 119.984C695.389 120.024 695.454 120.045 695.521 120.044C695.587 120.043 695.652 120.021 695.705 119.981L698.945 117.531C698.999 117.488 699.066 117.466 699.135 117.466C699.204 117.466 699.271 117.488 699.325 117.531L702.585 119.961C702.638 120.001 702.703 120.023 702.77 120.024C702.836 120.025 702.902 120.004 702.955 119.964C703.009 119.925 703.049 119.869 703.069 119.806C703.089 119.742 703.087 119.674 703.065 119.611L701.735 115.761C701.714 115.698 701.713 115.631 701.733 115.568C701.753 115.505 701.792 115.45 701.845 115.411L705.165 113.061C705.223 113.023 705.267 112.968 705.29 112.903C705.313 112.838 705.313 112.767 705.292 112.702C705.27 112.636 705.227 112.58 705.17 112.542C705.112 112.504 705.044 112.486 704.975 112.491L700.915 112.571Z" stroke="#80994A" stroke-width="2"/>
<path d="M732.575 112.531C732.5 112.529 732.428 112.505 732.369 112.46C732.309 112.415 732.266 112.352 732.245 112.281L731.085 108.681C731.061 108.612 731.016 108.553 730.957 108.512C730.898 108.47 730.827 108.447 730.755 108.447C730.682 108.447 730.612 108.47 730.553 108.512C730.493 108.553 730.449 108.612 730.425 108.681L729.265 112.281C729.243 112.352 729.2 112.415 729.141 112.46C729.081 112.505 729.009 112.529 728.935 112.531L725.155 112.511C725.081 112.511 725.01 112.534 724.95 112.577C724.89 112.62 724.846 112.68 724.823 112.75C724.799 112.82 724.799 112.895 724.821 112.965C724.842 113.035 724.886 113.097 724.945 113.141L728.015 115.351C728.077 115.394 728.123 115.457 728.146 115.529C728.17 115.601 728.169 115.679 728.145 115.751L726.955 119.341C726.932 119.411 726.932 119.487 726.955 119.557C726.978 119.628 727.023 119.689 727.083 119.732C727.143 119.776 727.215 119.799 727.289 119.798C727.363 119.798 727.435 119.774 727.495 119.731L730.545 117.491C730.605 117.445 730.679 117.421 730.755 117.421C730.83 117.421 730.904 117.445 730.965 117.491L734.015 119.731C734.074 119.774 734.146 119.798 734.22 119.798C734.294 119.799 734.367 119.776 734.427 119.732C734.487 119.689 734.531 119.628 734.554 119.557C734.577 119.487 734.577 119.411 734.555 119.341L733.365 115.751C733.34 115.679 733.339 115.601 733.363 115.529C733.386 115.457 733.433 115.394 733.495 115.351L736.565 113.141C736.623 113.097 736.667 113.035 736.689 112.965C736.711 112.895 736.71 112.82 736.687 112.75C736.664 112.68 736.619 112.62 736.559 112.577C736.5 112.534 736.428 112.511 736.355 112.511L732.575 112.531Z" stroke="#80994A" stroke-width="2"/>
<path d="M689.666 124.102C689.601 124.103 689.538 124.083 689.486 124.045C689.434 124.007 689.395 123.953 689.376 123.892L688.146 120.062C688.126 120.002 688.088 119.95 688.037 119.912C687.985 119.875 687.924 119.855 687.861 119.855C687.797 119.855 687.736 119.875 687.685 119.912C687.634 119.95 687.595 120.002 687.576 120.062L686.376 123.902C686.356 123.963 686.318 124.017 686.265 124.055C686.213 124.093 686.15 124.113 686.086 124.112L682.066 124.102C682.003 124.102 681.941 124.122 681.89 124.158C681.839 124.195 681.801 124.247 681.781 124.307C681.761 124.367 681.761 124.431 681.779 124.491C681.798 124.551 681.835 124.604 681.886 124.642L685.166 126.982C685.216 127.019 685.254 127.07 685.273 127.129C685.293 127.188 685.294 127.252 685.276 127.312L684.026 131.142C684.008 131.201 684.01 131.265 684.03 131.324C684.05 131.383 684.088 131.434 684.139 131.47C684.189 131.506 684.25 131.526 684.312 131.526C684.374 131.526 684.435 131.507 684.486 131.472L687.716 129.072C687.768 129.033 687.831 129.012 687.896 129.012C687.961 129.012 688.024 129.033 688.076 129.072L691.326 131.452C691.377 131.489 691.439 131.509 691.503 131.509C691.567 131.509 691.629 131.488 691.68 131.45C691.731 131.412 691.769 131.359 691.788 131.298C691.807 131.237 691.806 131.172 691.786 131.112L690.496 127.302C690.475 127.241 690.475 127.175 690.495 127.114C690.514 127.052 690.553 126.999 690.606 126.962L693.876 124.602C693.926 124.564 693.963 124.511 693.982 124.451C694.001 124.391 694 124.327 693.98 124.267C693.96 124.207 693.922 124.155 693.871 124.118C693.82 124.082 693.759 124.062 693.696 124.062L689.666 124.102Z" stroke="#80994A" stroke-width="2"/>
<path d="M744.095 124.091C744.03 124.092 743.967 124.072 743.915 124.034C743.863 123.996 743.824 123.942 743.805 123.881L742.595 120.071C742.578 120.007 742.54 119.95 742.488 119.91C742.435 119.87 742.371 119.848 742.305 119.848C742.238 119.848 742.174 119.87 742.122 119.91C742.069 119.95 742.032 120.007 742.015 120.071L740.825 123.891C740.805 123.952 740.767 124.006 740.714 124.044C740.662 124.082 740.599 124.102 740.535 124.101L736.525 124.071C736.462 124.073 736.403 124.094 736.353 124.132C736.304 124.169 736.267 124.221 736.248 124.281C736.23 124.34 736.23 124.404 736.249 124.463C736.268 124.522 736.305 124.574 736.355 124.611L739.615 126.931C739.667 126.968 739.706 127.021 739.726 127.083C739.746 127.144 739.745 127.21 739.725 127.271L738.465 131.071C738.444 131.131 738.443 131.196 738.462 131.257C738.481 131.318 738.519 131.371 738.57 131.409C738.621 131.447 738.683 131.468 738.747 131.468C738.811 131.468 738.873 131.448 738.925 131.411L742.145 129.021C742.196 128.984 742.257 128.965 742.32 128.965C742.382 128.965 742.444 128.984 742.495 129.021L745.725 131.401C745.776 131.438 745.838 131.458 745.902 131.458C745.966 131.458 746.028 131.437 746.079 131.399C746.13 131.361 746.168 131.308 746.187 131.247C746.206 131.186 746.205 131.121 746.185 131.061L744.905 127.261C744.886 127.201 744.887 127.137 744.907 127.078C744.927 127.019 744.964 126.968 745.015 126.931L748.275 124.591C748.325 124.553 748.362 124.5 748.381 124.44C748.4 124.38 748.399 124.316 748.379 124.256C748.359 124.196 748.321 124.144 748.27 124.107C748.219 124.071 748.158 124.051 748.095 124.051L744.095 124.091Z" stroke="#80994A" stroke-width="2"/>
<path d="M748.457 139.671C748.381 139.672 748.306 139.648 748.245 139.603C748.184 139.558 748.139 139.494 748.117 139.421L746.977 135.521C746.958 135.445 746.915 135.377 746.853 135.329C746.791 135.28 746.715 135.254 746.637 135.254C746.558 135.254 746.482 135.28 746.421 135.329C746.359 135.377 746.315 135.445 746.297 135.521L745.177 139.421C745.157 139.497 745.111 139.565 745.047 139.612C744.984 139.659 744.906 139.683 744.827 139.681L740.767 139.561C740.691 139.558 740.616 139.579 740.553 139.623C740.49 139.666 740.444 139.729 740.42 139.801C740.396 139.874 740.397 139.952 740.421 140.024C740.446 140.096 740.494 140.158 740.557 140.201L743.927 142.471C743.991 142.515 744.039 142.579 744.062 142.654C744.086 142.728 744.084 142.808 744.057 142.881L742.687 146.711C742.664 146.781 742.664 146.857 742.687 146.927C742.71 146.998 742.755 147.059 742.815 147.102C742.875 147.146 742.947 147.169 743.021 147.169C743.095 147.168 743.167 147.145 743.227 147.101L746.437 144.611C746.498 144.563 746.574 144.537 746.652 144.537C746.73 144.537 746.805 144.563 746.867 144.611L750.087 147.091C750.147 147.135 750.219 147.158 750.293 147.159C750.367 147.159 750.439 147.136 750.499 147.092C750.559 147.049 750.603 146.988 750.627 146.917C750.65 146.847 750.65 146.771 750.627 146.701L749.247 142.871C749.222 142.799 749.222 142.721 749.245 142.649C749.268 142.577 749.315 142.514 749.377 142.471L752.737 140.171C752.796 140.127 752.839 140.065 752.861 139.995C752.883 139.925 752.882 139.85 752.859 139.78C752.836 139.71 752.791 139.65 752.731 139.607C752.672 139.564 752.6 139.541 752.527 139.541L748.457 139.671Z" stroke="#80994A" stroke-width="2"/>
<path d="M685.356 139.502C685.29 139.5 685.227 139.478 685.175 139.439C685.123 139.399 685.085 139.344 685.066 139.282L684.046 135.722C684.027 135.659 683.988 135.604 683.936 135.564C683.883 135.525 683.82 135.503 683.754 135.502C683.689 135.501 683.624 135.521 683.571 135.558C683.517 135.596 683.477 135.65 683.456 135.712L682.246 139.322C682.224 139.384 682.184 139.438 682.13 139.476C682.076 139.514 682.011 139.533 681.946 139.532L677.736 139.482C677.668 139.479 677.601 139.499 677.545 139.538C677.49 139.577 677.449 139.634 677.428 139.698C677.408 139.763 677.409 139.833 677.432 139.896C677.455 139.96 677.499 140.015 677.556 140.052L681.056 142.472C681.111 142.51 681.152 142.564 681.174 142.627C681.195 142.69 681.196 142.758 681.176 142.822L679.866 146.732C679.843 146.795 679.842 146.863 679.862 146.927C679.882 146.991 679.921 147.046 679.975 147.086C680.029 147.125 680.094 147.146 680.161 147.145C680.228 147.144 680.292 147.122 680.346 147.082L683.506 144.662C683.56 144.62 683.627 144.597 683.696 144.597C683.764 144.597 683.831 144.62 683.886 144.662L686.996 147.022C687.048 147.06 687.111 147.081 687.176 147.082C687.241 147.082 687.305 147.062 687.358 147.025C687.411 146.987 687.451 146.934 687.472 146.872C687.493 146.811 687.494 146.744 687.476 146.682L686.236 142.912C686.217 142.851 686.217 142.785 686.237 142.724C686.256 142.664 686.294 142.61 686.346 142.572L689.766 140.082C689.818 140.043 689.857 139.989 689.877 139.927C689.897 139.866 689.897 139.799 689.877 139.737C689.858 139.675 689.819 139.621 689.766 139.582C689.714 139.544 689.651 139.523 689.586 139.522L685.356 139.502Z" stroke="#80994A" stroke-width="2"/>
<path d="M689.644 155.801C689.58 155.802 689.517 155.782 689.465 155.744C689.412 155.706 689.374 155.652 689.354 155.591L688.144 151.741C688.127 151.677 688.09 151.62 688.037 151.58C687.985 151.539 687.921 151.518 687.854 151.518C687.788 151.518 687.724 151.539 687.671 151.58C687.619 151.62 687.581 151.677 687.564 151.741L686.364 155.601C686.345 155.662 686.306 155.716 686.254 155.754C686.202 155.792 686.139 155.812 686.074 155.811L682.034 155.781C681.971 155.781 681.91 155.801 681.859 155.837C681.808 155.874 681.77 155.926 681.75 155.986C681.73 156.046 681.729 156.11 681.748 156.17C681.767 156.23 681.804 156.283 681.854 156.321L685.154 158.661C685.207 158.698 685.246 158.751 685.266 158.813C685.285 158.874 685.285 158.94 685.264 159.001L683.984 162.831C683.961 162.893 683.958 162.96 683.977 163.024C683.996 163.087 684.035 163.143 684.088 163.182C684.142 163.221 684.207 163.241 684.273 163.239C684.339 163.237 684.403 163.213 684.454 163.171L687.694 160.751C687.745 160.714 687.807 160.694 687.869 160.694C687.932 160.694 687.993 160.714 688.044 160.751L691.294 163.151C691.345 163.19 691.407 163.213 691.472 163.215C691.536 163.216 691.599 163.197 691.652 163.16C691.705 163.123 691.744 163.07 691.764 163.009C691.784 162.948 691.785 162.882 691.764 162.821L690.464 158.991C690.444 158.93 690.443 158.864 690.463 158.803C690.483 158.741 690.522 158.688 690.574 158.651L693.864 156.301C693.915 156.263 693.952 156.21 693.971 156.15C693.99 156.09 693.989 156.026 693.969 155.966C693.949 155.906 693.911 155.854 693.86 155.817C693.809 155.781 693.747 155.761 693.684 155.761L689.644 155.801Z" stroke="#80994A" stroke-width="2"/>
<path d="M744.086 155.782C744.022 155.783 743.959 155.763 743.906 155.725C743.854 155.687 743.815 155.633 743.796 155.572L742.576 151.732C742.556 151.672 742.518 151.619 742.467 151.582C742.416 151.545 742.354 151.525 742.291 151.525C742.228 151.525 742.166 151.545 742.115 151.582C742.064 151.619 742.026 151.672 742.006 151.732L740.816 155.582C740.797 155.643 740.758 155.697 740.706 155.735C740.654 155.773 740.591 155.793 740.526 155.792L736.506 155.762C736.44 155.758 736.376 155.777 736.321 155.814C736.267 155.851 736.227 155.906 736.206 155.968C736.186 156.031 736.186 156.098 736.208 156.16C736.23 156.222 736.271 156.275 736.326 156.312L739.616 158.632C739.668 158.669 739.707 158.722 739.727 158.784C739.747 158.845 739.747 158.911 739.726 158.972L738.456 162.792C738.436 162.853 738.436 162.919 738.456 162.98C738.477 163.041 738.516 163.094 738.569 163.131C738.621 163.168 738.685 163.187 738.749 163.185C738.813 163.184 738.875 163.161 738.926 163.122L742.146 160.712C742.198 160.673 742.261 160.652 742.326 160.652C742.391 160.652 742.454 160.673 742.506 160.712L745.746 163.102C745.798 163.139 745.86 163.159 745.924 163.159C745.987 163.159 746.049 163.138 746.101 163.1C746.152 163.062 746.19 163.009 746.209 162.948C746.228 162.887 746.227 162.822 746.206 162.762L744.906 158.952C744.886 158.891 744.885 158.825 744.905 158.764C744.925 158.702 744.964 158.649 745.016 158.612L748.296 156.272C748.351 156.235 748.392 156.182 748.414 156.12C748.436 156.058 748.436 155.991 748.416 155.928C748.395 155.866 748.355 155.811 748.301 155.774C748.247 155.737 748.182 155.718 748.116 155.722L744.086 155.782Z" stroke="#80994A" stroke-width="2"/>
<path d="M732.517 167.101C732.453 167.102 732.39 167.082 732.337 167.044C732.285 167.006 732.247 166.953 732.227 166.891L731.017 163.051C731 162.987 730.963 162.931 730.91 162.89C730.858 162.85 730.793 162.828 730.727 162.828C730.661 162.828 730.597 162.85 730.544 162.89C730.492 162.931 730.454 162.987 730.437 163.051L729.237 166.901C729.218 166.963 729.179 167.016 729.127 167.054C729.075 167.092 729.012 167.112 728.947 167.111L724.917 167.081C724.854 167.081 724.793 167.101 724.742 167.138C724.691 167.175 724.653 167.227 724.633 167.286C724.613 167.346 724.612 167.411 724.631 167.471C724.65 167.531 724.687 167.584 724.737 167.621L728.027 169.961C728.08 169.999 728.119 170.052 728.138 170.113C728.158 170.174 728.158 170.24 728.137 170.301L726.867 174.121C726.847 174.182 726.846 174.247 726.865 174.308C726.884 174.369 726.921 174.422 726.973 174.46C727.024 174.498 727.086 174.518 727.15 174.518C727.213 174.519 727.276 174.499 727.327 174.461L730.567 172.051C730.618 172.015 730.679 171.995 730.742 171.995C730.805 171.995 730.866 172.015 730.917 172.051L734.167 174.451C734.219 174.489 734.281 174.509 734.345 174.508C734.408 174.508 734.47 174.488 734.522 174.45C734.573 174.412 734.611 174.359 734.63 174.298C734.649 174.237 734.648 174.172 734.627 174.111L733.337 170.291C733.317 170.23 733.316 170.164 733.336 170.103C733.356 170.042 733.395 169.989 733.447 169.951L736.727 167.601C736.778 167.564 736.815 167.511 736.834 167.451C736.852 167.391 736.852 167.326 736.832 167.266C736.812 167.207 736.774 167.155 736.723 167.118C736.672 167.081 736.61 167.061 736.547 167.061L732.517 167.101Z" stroke="#80994A" stroke-width="2"/>
<path d="M701.076 167.121C701.01 167.122 700.946 167.103 700.892 167.065C700.838 167.027 700.797 166.973 700.776 166.911L699.566 163.101C699.549 163.035 699.51 162.976 699.456 162.934C699.401 162.892 699.335 162.869 699.266 162.869C699.197 162.869 699.131 162.892 699.076 162.934C699.022 162.976 698.983 163.035 698.966 163.101L697.756 166.911C697.735 166.973 697.694 167.027 697.64 167.065C697.586 167.103 697.522 167.122 697.456 167.121L693.466 167.101C693.398 167.099 693.331 167.118 693.276 167.157C693.22 167.197 693.179 167.253 693.159 167.317C693.138 167.382 693.14 167.452 693.163 167.516C693.186 167.58 693.229 167.634 693.286 167.671L696.526 170.001C696.579 170.04 696.619 170.095 696.638 170.158C696.658 170.221 696.657 170.289 696.636 170.351L695.386 174.141C695.364 174.204 695.362 174.272 695.382 174.336C695.402 174.4 695.442 174.455 695.496 174.495C695.55 174.534 695.615 174.555 695.681 174.554C695.748 174.554 695.813 174.531 695.866 174.491L699.086 172.121C699.139 172.084 699.201 172.063 699.266 172.063C699.331 172.063 699.393 172.084 699.446 172.121L702.666 174.491C702.719 174.531 702.784 174.554 702.851 174.554C702.917 174.555 702.982 174.534 703.036 174.495C703.09 174.455 703.13 174.4 703.15 174.336C703.17 174.272 703.168 174.204 703.146 174.141L701.896 170.351C701.875 170.289 701.874 170.221 701.894 170.158C701.914 170.095 701.953 170.04 702.006 170.001L705.246 167.671C705.303 167.634 705.346 167.58 705.369 167.516C705.392 167.452 705.394 167.382 705.373 167.317C705.353 167.253 705.312 167.197 705.256 167.157C705.201 167.118 705.134 167.099 705.066 167.101L701.076 167.121Z" stroke="#80994A" stroke-width="2"/>
<path d="M716.955 171.301C716.888 171.301 716.822 171.28 716.768 171.241C716.714 171.201 716.674 171.145 716.655 171.081L715.465 167.281C715.448 167.214 715.409 167.156 715.354 167.114C715.3 167.072 715.233 167.049 715.165 167.049C715.096 167.049 715.03 167.072 714.975 167.114C714.921 167.156 714.882 167.214 714.865 167.281L713.675 171.081C713.655 171.145 713.616 171.201 713.562 171.241C713.507 171.28 713.442 171.301 713.375 171.301L709.385 171.261C709.32 171.261 709.257 171.283 709.204 171.321C709.152 171.36 709.113 171.414 709.093 171.476C709.073 171.538 709.073 171.604 709.093 171.666C709.113 171.728 709.152 171.782 709.205 171.821L712.445 174.141C712.5 174.178 712.541 174.233 712.563 174.296C712.584 174.359 712.585 174.427 712.565 174.491L711.295 178.271C711.273 178.334 711.271 178.402 711.291 178.466C711.311 178.53 711.351 178.585 711.404 178.625C711.458 178.664 711.524 178.685 711.59 178.684C711.657 178.683 711.722 178.661 711.775 178.621L714.985 176.251C715.037 176.213 715.1 176.193 715.165 176.193C715.229 176.193 715.292 176.213 715.345 176.251L718.555 178.621C718.608 178.661 718.673 178.683 718.739 178.684C718.806 178.685 718.871 178.664 718.925 178.625C718.979 178.585 719.019 178.53 719.039 178.466C719.058 178.402 719.057 178.334 719.035 178.271L717.765 174.491C717.745 174.427 717.745 174.359 717.767 174.296C717.789 174.233 717.83 174.178 717.885 174.141L721.125 171.821C721.177 171.782 721.216 171.728 721.236 171.666C721.257 171.604 721.257 171.538 721.237 171.476C721.217 171.414 721.178 171.36 721.125 171.321C721.073 171.283 721.01 171.261 720.945 171.261L716.955 171.301Z" stroke="#80994A" stroke-width="2"/>
<path d="M476.645 130.69C476.631 147.603 476.641 159.217 476.675 165.53C476.681 167.13 477.181 168.647 478.175 170.08C480.635 173.61 488.565 172.4 492.165 172.02C492.651 171.973 492.895 172.193 492.895 172.68V186.97C492.895 187.357 492.701 187.573 492.315 187.62C484.588 188.573 477.585 188.537 471.305 187.51C464.585 186.41 460.178 183.293 458.085 178.16C457.018 175.547 456.511 171.357 456.565 165.59C456.685 152.123 456.705 140.43 456.625 130.51C456.625 130.17 456.455 130 456.115 130H447.395C447.262 130 447.135 129.947 447.041 129.854C446.947 129.76 446.895 129.633 446.895 129.5V114C446.895 113.867 446.947 113.74 447.041 113.646C447.135 113.553 447.262 113.5 447.395 113.5H456.145C456.478 113.5 456.645 113.333 456.645 113V94.5C456.645 94.1667 456.811 94 457.145 94H476.145C476.478 94 476.645 94.1667 476.645 94.5V113C476.645 113.333 476.811 113.5 477.145 113.5H492.395C492.527 113.5 492.654 113.553 492.748 113.646C492.842 113.74 492.895 113.867 492.895 114V129.5C492.895 129.833 492.728 130 492.395 130H477.335C476.875 130 476.645 130.23 476.645 130.69Z" fill="#787878"/>
<path d="M589.705 130H577.895C577.561 130 577.395 129.833 577.395 129.5V114C577.395 113.667 577.561 113.5 577.895 113.5H589.895C590.228 113.5 590.395 113.333 590.395 113V94.25C590.395 94.1837 590.421 94.1201 590.468 94.0732C590.515 94.0263 590.578 94 590.645 94H609.645C609.978 94 610.145 94.1667 610.145 94.5V113C610.145 113.34 610.311 113.51 610.645 113.51L622.645 113.5C622.978 113.5 623.145 113.667 623.145 114V129.5C623.145 129.833 622.978 130 622.645 130H610.685C610.351 130 610.185 130.167 610.185 130.5C610.118 141.98 610.118 153.81 610.185 165.99C610.191 167.583 610.458 168.92 610.985 170C612.605 173.31 619.705 172.64 622.535 172.02C622.941 171.933 623.145 172.097 623.145 172.51V187.06C623.145 187.242 623.078 187.418 622.956 187.553C622.834 187.688 622.666 187.773 622.485 187.79C614.478 188.55 607.598 188.4 601.845 187.34C593.795 185.86 590.295 180.41 590.345 172.65C590.418 159.81 590.431 145.817 590.385 130.67C590.385 130.223 590.158 130 589.705 130Z" fill="#787878"/>
<path d="M784.895 188.19C784.895 188.272 784.862 188.351 784.804 188.409C784.746 188.467 784.667 188.5 784.585 188.5H643.205C643.122 188.5 643.043 188.467 642.985 188.409C642.927 188.351 642.895 188.272 642.895 188.19V94.31C642.895 94.2278 642.927 94.1489 642.985 94.0908C643.043 94.0327 643.122 94 643.205 94H784.585C784.667 94 784.746 94.0327 784.804 94.0908C784.862 94.1489 784.895 94.2278 784.895 94.31V188.19ZM716.785 108.41C716.717 108.411 716.652 108.39 716.598 108.35C716.544 108.31 716.504 108.254 716.485 108.19L715.275 104.27C715.257 104.204 715.218 104.145 715.164 104.103C715.11 104.061 715.043 104.038 714.975 104.038C714.906 104.038 714.839 104.061 714.785 104.103C714.731 104.145 714.692 104.204 714.675 104.27L713.475 108.2C713.455 108.264 713.415 108.32 713.361 108.36C713.307 108.4 713.242 108.421 713.175 108.42L709.065 108.36C708.999 108.361 708.936 108.382 708.884 108.42C708.831 108.459 708.793 108.513 708.773 108.575C708.753 108.637 708.753 108.704 708.773 108.766C708.793 108.828 708.832 108.882 708.885 108.92L712.255 111.28C712.309 111.318 712.351 111.372 712.372 111.435C712.394 111.498 712.395 111.567 712.375 111.63L711.045 115.52C711.022 115.583 711.021 115.651 711.041 115.715C711.06 115.779 711.1 115.834 711.154 115.874C711.208 115.913 711.273 115.934 711.34 115.933C711.407 115.933 711.471 115.91 711.525 115.87L714.805 113.39C714.858 113.35 714.923 113.329 714.99 113.329C715.056 113.329 715.121 113.35 715.175 113.39L718.465 115.86C718.518 115.9 718.582 115.923 718.649 115.923C718.716 115.924 718.781 115.903 718.835 115.864C718.889 115.824 718.929 115.769 718.948 115.705C718.968 115.641 718.967 115.573 718.945 115.51L717.605 111.62C717.583 111.558 717.582 111.49 717.602 111.427C717.622 111.364 717.661 111.309 717.715 111.27L721.075 108.9C721.127 108.862 721.166 108.808 721.186 108.746C721.206 108.684 721.206 108.617 721.186 108.555C721.166 108.493 721.128 108.439 721.075 108.4C721.023 108.362 720.96 108.341 720.895 108.34L716.785 108.41ZM700.915 112.57C700.847 112.571 700.782 112.55 700.728 112.51C700.674 112.47 700.634 112.414 700.615 112.35L699.395 108.47C699.374 108.408 699.335 108.353 699.282 108.315C699.229 108.276 699.165 108.255 699.1 108.255C699.034 108.255 698.97 108.276 698.917 108.315C698.864 108.353 698.825 108.408 698.805 108.47L697.625 112.36C697.605 112.424 697.565 112.48 697.511 112.52C697.457 112.56 697.392 112.581 697.325 112.58L693.255 112.53C693.187 112.527 693.12 112.547 693.064 112.586C693.009 112.625 692.968 112.682 692.947 112.746C692.927 112.811 692.928 112.881 692.951 112.945C692.974 113.009 693.018 113.063 693.075 113.1L696.405 115.43C696.46 115.468 696.501 115.522 696.522 115.585C696.544 115.648 696.545 115.717 696.525 115.78L695.225 119.63C695.202 119.693 695.201 119.761 695.221 119.825C695.24 119.889 695.28 119.944 695.334 119.984C695.388 120.023 695.453 120.044 695.52 120.043C695.587 120.043 695.651 120.02 695.705 119.98L698.945 117.53C698.999 117.488 699.066 117.465 699.135 117.465C699.203 117.465 699.27 117.488 699.325 117.53L702.585 119.96C702.638 120 702.702 120.023 702.769 120.023C702.836 120.024 702.901 120.003 702.955 119.964C703.009 119.924 703.049 119.869 703.068 119.805C703.088 119.741 703.087 119.673 703.065 119.61L701.735 115.76C701.713 115.698 701.712 115.63 701.732 115.567C701.752 115.504 701.791 115.449 701.845 115.41L705.165 113.06C705.223 113.023 705.266 112.967 705.289 112.902C705.312 112.837 705.313 112.767 705.291 112.701C705.269 112.636 705.226 112.58 705.169 112.541C705.112 112.503 705.043 112.485 704.975 112.49L700.915 112.57ZM732.575 112.53C732.5 112.529 732.428 112.504 732.369 112.459C732.309 112.414 732.266 112.351 732.245 112.28L731.085 108.68C731.06 108.612 731.016 108.553 730.957 108.511C730.898 108.469 730.827 108.447 730.755 108.447C730.682 108.447 730.612 108.469 730.552 108.511C730.493 108.553 730.449 108.612 730.425 108.68L729.265 112.28C729.243 112.351 729.2 112.414 729.14 112.459C729.081 112.504 729.009 112.529 728.935 112.53L725.155 112.51C725.081 112.51 725.009 112.533 724.95 112.576C724.89 112.619 724.846 112.68 724.823 112.749C724.799 112.819 724.799 112.894 724.82 112.964C724.842 113.034 724.886 113.096 724.945 113.14L728.015 115.35C728.077 115.394 728.123 115.456 728.146 115.528C728.17 115.6 728.169 115.678 728.145 115.75L726.955 119.34C726.932 119.41 726.932 119.486 726.955 119.557C726.978 119.627 727.023 119.688 727.083 119.732C727.143 119.775 727.215 119.798 727.289 119.798C727.363 119.798 727.435 119.774 727.495 119.73L730.545 117.49C730.605 117.445 730.679 117.42 730.755 117.42C730.83 117.42 730.904 117.445 730.965 117.49L734.015 119.73C734.074 119.774 734.146 119.798 734.22 119.798C734.294 119.798 734.366 119.775 734.426 119.732C734.486 119.688 734.531 119.627 734.554 119.557C734.577 119.486 734.577 119.41 734.555 119.34L733.365 115.75C733.34 115.678 733.339 115.6 733.363 115.528C733.386 115.456 733.432 115.394 733.495 115.35L736.565 113.14C736.623 113.096 736.667 113.034 736.689 112.964C736.711 112.894 736.71 112.819 736.687 112.749C736.663 112.68 736.619 112.619 736.559 112.576C736.5 112.533 736.428 112.51 736.355 112.51L732.575 112.53ZM689.665 124.1C689.6 124.101 689.537 124.081 689.485 124.043C689.433 124.005 689.394 123.952 689.375 123.89L688.145 120.06C688.125 120 688.087 119.948 688.035 119.911C687.984 119.874 687.923 119.854 687.86 119.854C687.796 119.854 687.735 119.874 687.684 119.911C687.632 119.948 687.594 120 687.575 120.06L686.375 123.9C686.355 123.962 686.317 124.015 686.264 124.053C686.212 124.091 686.149 124.111 686.085 124.11L682.065 124.1C682.002 124.1 681.94 124.12 681.889 124.157C681.838 124.193 681.8 124.245 681.78 124.305C681.76 124.365 681.759 124.429 681.778 124.489C681.797 124.55 681.834 124.602 681.885 124.64L685.165 126.98C685.215 127.017 685.253 127.068 685.272 127.127C685.292 127.187 685.293 127.25 685.275 127.31L684.025 131.14C684.007 131.2 684.009 131.263 684.029 131.322C684.049 131.381 684.087 131.432 684.138 131.468C684.188 131.504 684.249 131.524 684.311 131.524C684.373 131.525 684.434 131.506 684.485 131.47L687.715 129.07C687.766 129.031 687.83 129.01 687.895 129.01C687.959 129.01 688.023 129.031 688.075 129.07L691.325 131.45C691.376 131.487 691.438 131.507 691.502 131.507C691.566 131.507 691.628 131.486 691.679 131.448C691.73 131.411 691.768 131.357 691.787 131.296C691.806 131.236 691.805 131.17 691.785 131.11L690.495 127.3C690.474 127.239 690.474 127.173 690.493 127.112C690.513 127.051 690.552 126.997 690.605 126.96L693.875 124.6C693.925 124.562 693.962 124.51 693.981 124.449C694 124.389 693.999 124.325 693.979 124.265C693.959 124.205 693.921 124.153 693.87 124.117C693.819 124.08 693.757 124.06 693.695 124.06L689.665 124.1ZM744.095 124.09C744.03 124.091 743.967 124.071 743.915 124.033C743.863 123.995 743.824 123.942 743.805 123.88L742.595 120.07C742.578 120.006 742.54 119.949 742.487 119.909C742.435 119.869 742.371 119.847 742.305 119.847C742.238 119.847 742.174 119.869 742.122 119.909C742.069 119.949 742.031 120.006 742.015 120.07L740.825 123.89C740.805 123.952 740.767 124.005 740.714 124.043C740.662 124.081 740.599 124.101 740.535 124.1L736.525 124.07C736.462 124.072 736.402 124.093 736.353 124.131C736.303 124.168 736.267 124.22 736.248 124.28C736.23 124.339 736.23 124.403 736.249 124.462C736.268 124.521 736.305 124.573 736.355 124.61L739.615 126.93C739.667 126.967 739.706 127.021 739.726 127.082C739.746 127.143 739.745 127.209 739.725 127.27L738.465 131.07C738.444 131.13 738.443 131.196 738.462 131.256C738.481 131.317 738.519 131.371 738.57 131.408C738.621 131.446 738.683 131.467 738.747 131.467C738.811 131.467 738.873 131.447 738.925 131.41L742.145 129.02C742.196 128.983 742.257 128.964 742.32 128.964C742.382 128.964 742.444 128.983 742.495 129.02L745.725 131.4C745.776 131.437 745.838 131.457 745.902 131.457C745.966 131.457 746.028 131.436 746.079 131.398C746.13 131.361 746.168 131.307 746.187 131.246C746.206 131.186 746.205 131.12 746.185 131.06L744.905 127.26C744.886 127.2 744.887 127.137 744.907 127.077C744.927 127.018 744.964 126.967 745.015 126.93L748.275 124.59C748.325 124.552 748.362 124.5 748.381 124.439C748.4 124.379 748.399 124.315 748.379 124.255C748.359 124.195 748.321 124.143 748.27 124.107C748.219 124.07 748.158 124.05 748.095 124.05L744.095 124.09ZM748.455 139.67C748.378 139.671 748.304 139.647 748.243 139.602C748.181 139.557 748.136 139.493 748.115 139.42L746.975 135.52C746.956 135.444 746.912 135.376 746.851 135.328C746.789 135.279 746.713 135.253 746.635 135.253C746.556 135.253 746.48 135.279 746.418 135.328C746.357 135.376 746.313 135.444 746.295 135.52L745.175 139.42C745.154 139.497 745.109 139.564 745.045 139.611C744.981 139.658 744.904 139.683 744.825 139.68L740.765 139.56C740.688 139.557 740.613 139.579 740.551 139.622C740.488 139.665 740.441 139.728 740.417 139.801C740.394 139.873 740.394 139.951 740.419 140.023C740.444 140.095 740.491 140.157 740.555 140.2L743.925 142.47C743.989 142.514 744.036 142.578 744.06 142.653C744.083 142.727 744.082 142.807 744.055 142.88L742.685 146.71C742.662 146.78 742.662 146.856 742.685 146.927C742.708 146.997 742.753 147.058 742.813 147.102C742.873 147.145 742.945 147.168 743.019 147.168C743.093 147.168 743.165 147.144 743.225 147.1L746.435 144.61C746.496 144.562 746.572 144.536 746.65 144.536C746.727 144.536 746.803 144.562 746.865 144.61L750.085 147.09C750.144 147.134 750.216 147.158 750.29 147.158C750.364 147.158 750.436 147.135 750.496 147.092C750.556 147.048 750.601 146.987 750.624 146.917C750.647 146.846 750.647 146.77 750.625 146.7L749.245 142.87C749.22 142.798 749.219 142.72 749.243 142.648C749.266 142.576 749.312 142.514 749.375 142.47L752.735 140.17C752.793 140.126 752.837 140.064 752.859 139.994C752.88 139.924 752.88 139.849 752.857 139.779C752.833 139.71 752.789 139.649 752.729 139.606C752.67 139.563 752.598 139.54 752.525 139.54L748.455 139.67ZM685.355 139.5C685.289 139.499 685.226 139.477 685.174 139.437C685.122 139.398 685.083 139.343 685.065 139.28L684.045 135.72C684.025 135.657 683.987 135.602 683.935 135.563C683.882 135.523 683.819 135.501 683.753 135.5C683.688 135.499 683.623 135.519 683.57 135.556C683.516 135.594 683.476 135.648 683.455 135.71L682.245 139.32C682.223 139.382 682.183 139.436 682.129 139.474C682.075 139.512 682.01 139.531 681.945 139.53L677.735 139.48C677.667 139.477 677.6 139.497 677.544 139.536C677.489 139.575 677.448 139.632 677.427 139.696C677.407 139.761 677.408 139.831 677.431 139.895C677.454 139.959 677.498 140.013 677.555 140.05L681.055 142.47C681.109 142.508 681.151 142.562 681.172 142.625C681.194 142.688 681.195 142.757 681.175 142.82L679.865 146.73C679.842 146.793 679.841 146.861 679.861 146.925C679.88 146.989 679.92 147.044 679.974 147.084C680.028 147.123 680.093 147.144 680.16 147.143C680.227 147.143 680.291 147.12 680.345 147.08L683.505 144.66C683.559 144.618 683.626 144.595 683.695 144.595C683.763 144.595 683.83 144.618 683.885 144.66L686.995 147.02C687.047 147.058 687.11 147.079 687.175 147.08C687.24 147.081 687.304 147.061 687.357 147.023C687.41 146.985 687.45 146.932 687.471 146.87C687.492 146.809 687.493 146.742 687.475 146.68L686.235 142.91C686.216 142.849 686.216 142.783 686.236 142.723C686.255 142.662 686.293 142.608 686.345 142.57L689.765 140.08C689.817 140.042 689.856 139.988 689.876 139.926C689.896 139.864 689.896 139.797 689.876 139.735C689.856 139.673 689.818 139.619 689.765 139.58C689.713 139.542 689.65 139.521 689.585 139.52L685.355 139.5ZM689.645 155.8C689.58 155.801 689.517 155.781 689.465 155.743C689.413 155.705 689.374 155.652 689.355 155.59L688.145 151.74C688.128 151.676 688.09 151.619 688.037 151.579C687.985 151.539 687.921 151.517 687.855 151.517C687.788 151.517 687.724 151.539 687.672 151.579C687.619 151.619 687.581 151.676 687.565 151.74L686.365 155.6C686.345 155.662 686.307 155.715 686.254 155.753C686.202 155.791 686.139 155.811 686.075 155.81L682.035 155.78C681.972 155.78 681.91 155.8 681.859 155.837C681.808 155.873 681.77 155.925 681.75 155.985C681.73 156.045 681.729 156.109 681.748 156.169C681.767 156.23 681.804 156.282 681.855 156.32L685.155 158.66C685.207 158.697 685.246 158.751 685.266 158.812C685.285 158.873 685.285 158.939 685.265 159L683.985 162.83C683.961 162.892 683.958 162.96 683.977 163.023C683.996 163.087 684.035 163.142 684.089 163.181C684.142 163.22 684.207 163.24 684.273 163.238C684.34 163.236 684.403 163.212 684.455 163.17L687.695 160.75C687.746 160.713 687.807 160.694 687.87 160.694C687.932 160.694 687.994 160.713 688.045 160.75L691.295 163.15C691.345 163.19 691.407 163.212 691.472 163.214C691.536 163.215 691.599 163.196 691.652 163.159C691.705 163.122 691.744 163.069 691.764 163.008C691.785 162.947 691.785 162.881 691.765 162.82L690.465 158.99C690.444 158.929 690.444 158.863 690.463 158.802C690.483 158.741 690.522 158.687 690.575 158.65L693.865 156.3C693.915 156.262 693.952 156.21 693.971 156.149C693.99 156.089 693.989 156.025 693.969 155.965C693.949 155.905 693.911 155.853 693.86 155.817C693.809 155.78 693.747 155.76 693.685 155.76L689.645 155.8ZM744.085 155.78C744.02 155.781 743.957 155.761 743.905 155.723C743.853 155.685 743.814 155.632 743.795 155.57L742.575 151.73C742.555 151.67 742.517 151.618 742.465 151.581C742.414 151.544 742.353 151.524 742.29 151.524C742.226 151.524 742.165 151.544 742.114 151.581C742.062 151.618 742.024 151.67 742.005 151.73L740.815 155.58C740.795 155.642 740.757 155.695 740.704 155.733C740.652 155.771 740.589 155.791 740.525 155.79L736.505 155.76C736.439 155.757 736.374 155.775 736.32 155.812C736.266 155.85 736.225 155.904 736.205 155.966C736.184 156.029 736.185 156.096 736.207 156.158C736.228 156.221 736.27 156.274 736.325 156.31L739.615 158.63C739.667 158.667 739.706 158.721 739.726 158.782C739.746 158.843 739.745 158.909 739.725 158.97L738.455 162.79C738.434 162.851 738.434 162.917 738.455 162.978C738.475 163.039 738.514 163.092 738.567 163.129C738.62 163.166 738.683 163.185 738.747 163.184C738.812 163.182 738.874 163.16 738.925 163.12L742.145 160.71C742.196 160.671 742.26 160.65 742.325 160.65C742.389 160.65 742.453 160.671 742.505 160.71L745.745 163.1C745.796 163.137 745.858 163.157 745.922 163.157C745.986 163.157 746.048 163.136 746.099 163.098C746.15 163.061 746.188 163.007 746.207 162.946C746.226 162.886 746.225 162.82 746.205 162.76L744.905 158.95C744.884 158.889 744.884 158.823 744.903 158.762C744.923 158.701 744.962 158.647 745.015 158.61L748.295 156.27C748.349 156.234 748.391 156.181 748.413 156.118C748.434 156.056 748.435 155.989 748.414 155.926C748.394 155.864 748.353 155.81 748.299 155.773C748.245 155.735 748.18 155.717 748.115 155.72L744.085 155.78ZM732.515 167.1C732.45 167.101 732.387 167.081 732.335 167.043C732.283 167.005 732.244 166.952 732.225 166.89L731.015 163.05C730.998 162.986 730.96 162.929 730.908 162.889C730.855 162.849 730.791 162.827 730.725 162.827C730.658 162.827 730.594 162.849 730.542 162.889C730.489 162.929 730.451 162.986 730.435 163.05L729.235 166.9C729.215 166.962 729.177 167.015 729.124 167.053C729.072 167.091 729.009 167.111 728.945 167.11L724.915 167.08C724.852 167.08 724.79 167.1 724.739 167.137C724.688 167.173 724.65 167.225 724.63 167.285C724.61 167.345 724.609 167.409 724.628 167.469C724.647 167.53 724.684 167.582 724.735 167.62L728.025 169.96C728.077 169.997 728.116 170.051 728.136 170.112C728.155 170.173 728.155 170.239 728.135 170.3L726.865 174.12C726.844 174.18 726.843 174.246 726.862 174.306C726.881 174.367 726.919 174.421 726.97 174.458C727.021 174.496 727.083 174.517 727.147 174.517C727.211 174.517 727.273 174.497 727.325 174.46L730.565 172.05C730.616 172.013 730.677 171.994 730.74 171.994C730.802 171.994 730.864 172.013 730.915 172.05L734.165 174.45C734.216 174.487 734.278 174.507 734.342 174.507C734.406 174.507 734.468 174.486 734.519 174.448C734.57 174.411 734.608 174.357 734.627 174.296C734.646 174.236 734.645 174.17 734.625 174.11L733.335 170.29C733.314 170.229 733.314 170.163 733.333 170.102C733.353 170.041 733.392 169.987 733.445 169.95L736.725 167.6C736.775 167.562 736.812 167.51 736.831 167.449C736.85 167.389 736.849 167.325 736.829 167.265C736.809 167.205 736.771 167.153 736.72 167.117C736.669 167.08 736.608 167.06 736.545 167.06L732.515 167.1ZM701.075 167.12C701.009 167.121 700.944 167.102 700.89 167.064C700.836 167.026 700.796 166.972 700.775 166.91L699.565 163.1C699.547 163.034 699.508 162.975 699.454 162.933C699.4 162.891 699.333 162.868 699.265 162.868C699.196 162.868 699.129 162.891 699.075 162.933C699.021 162.975 698.982 163.034 698.965 163.1L697.755 166.91C697.733 166.972 697.693 167.026 697.639 167.064C697.585 167.102 697.52 167.121 697.455 167.12L693.465 167.1C693.397 167.097 693.33 167.117 693.274 167.156C693.219 167.195 693.178 167.252 693.157 167.316C693.137 167.381 693.138 167.451 693.161 167.515C693.184 167.579 693.228 167.633 693.285 167.67L696.525 170C696.578 170.039 696.617 170.094 696.637 170.157C696.657 170.22 696.656 170.288 696.635 170.35L695.385 174.14C695.362 174.203 695.361 174.271 695.381 174.335C695.4 174.399 695.44 174.454 695.494 174.494C695.548 174.533 695.613 174.554 695.68 174.553C695.747 174.553 695.811 174.53 695.865 174.49L699.085 172.12C699.137 172.083 699.2 172.062 699.265 172.062C699.329 172.062 699.392 172.083 699.445 172.12L702.665 174.49C702.718 174.53 702.782 174.553 702.849 174.553C702.916 174.554 702.981 174.533 703.035 174.494C703.089 174.454 703.129 174.399 703.148 174.335C703.168 174.271 703.167 174.203 703.145 174.14L701.895 170.35C701.873 170.288 701.872 170.22 701.892 170.157C701.912 170.094 701.951 170.039 702.005 170L705.245 167.67C705.301 167.633 705.345 167.579 705.368 167.515C705.391 167.451 705.392 167.381 705.372 167.316C705.351 167.252 705.31 167.195 705.255 167.156C705.199 167.117 705.132 167.097 705.065 167.1L701.075 167.12ZM716.955 171.3C716.887 171.301 716.822 171.28 716.768 171.24C716.714 171.2 716.674 171.144 716.655 171.08L715.465 167.28C715.447 167.214 715.408 167.155 715.354 167.113C715.3 167.071 715.233 167.048 715.165 167.048C715.096 167.048 715.029 167.071 714.975 167.113C714.921 167.155 714.882 167.214 714.865 167.28L713.675 171.08C713.655 171.144 713.615 171.2 713.561 171.24C713.507 171.28 713.442 171.301 713.375 171.3L709.385 171.26C709.319 171.261 709.256 171.282 709.204 171.32C709.151 171.359 709.113 171.413 709.093 171.475C709.073 171.537 709.073 171.604 709.093 171.666C709.113 171.728 709.152 171.782 709.205 171.82L712.445 174.14C712.499 174.178 712.541 174.232 712.562 174.295C712.584 174.358 712.585 174.427 712.565 174.49L711.295 178.27C711.272 178.333 711.271 178.401 711.291 178.465C711.31 178.529 711.35 178.584 711.404 178.624C711.458 178.663 711.523 178.684 711.59 178.683C711.657 178.683 711.721 178.66 711.775 178.62L714.985 176.25C715.037 176.213 715.1 176.192 715.165 176.192C715.229 176.192 715.292 176.213 715.345 176.25L718.555 178.62C718.608 178.66 718.672 178.683 718.739 178.683C718.806 178.684 718.871 178.663 718.925 178.624C718.979 178.584 719.019 178.529 719.038 178.465C719.058 178.401 719.057 178.333 719.035 178.27L717.765 174.49C717.744 174.427 717.745 174.358 717.767 174.295C717.788 174.232 717.83 174.178 717.885 174.14L721.125 171.82C721.177 171.782 721.216 171.728 721.236 171.666C721.256 171.604 721.256 171.537 721.236 171.475C721.216 171.413 721.178 171.359 721.125 171.32C721.073 171.282 721.01 171.261 720.945 171.26L716.955 171.3Z" fill="#004494"/>
<path d="M716.785 108.411L720.895 108.341C720.96 108.342 721.023 108.363 721.075 108.401C721.128 108.44 721.166 108.494 721.186 108.556C721.206 108.618 721.206 108.685 721.186 108.747C721.166 108.808 721.127 108.862 721.075 108.901L717.715 111.271C717.661 111.31 717.622 111.365 717.602 111.428C717.582 111.491 717.583 111.559 717.605 111.621L718.944 115.511C718.967 115.574 718.968 115.642 718.948 115.706C718.929 115.77 718.889 115.825 718.835 115.865C718.781 115.904 718.716 115.925 718.649 115.924C718.582 115.924 718.518 115.901 718.465 115.861L715.175 113.391C715.121 113.351 715.056 113.33 714.989 113.33C714.923 113.33 714.858 113.351 714.804 113.391L711.525 115.871C711.471 115.911 711.407 115.934 711.34 115.934C711.273 115.935 711.208 115.914 711.154 115.875C711.1 115.835 711.06 115.78 711.041 115.716C711.021 115.652 711.022 115.584 711.045 115.521L712.374 111.631C712.395 111.567 712.394 111.499 712.372 111.436C712.351 111.373 712.309 111.319 712.254 111.281L708.885 108.921C708.832 108.882 708.793 108.828 708.773 108.767C708.753 108.705 708.753 108.638 708.773 108.576C708.793 108.514 708.831 108.46 708.884 108.421C708.936 108.383 708.999 108.362 709.064 108.361L713.175 108.421C713.242 108.422 713.307 108.401 713.361 108.361C713.415 108.321 713.455 108.265 713.475 108.201L714.675 104.271C714.692 104.205 714.731 104.146 714.785 104.104C714.839 104.062 714.906 104.039 714.975 104.039C715.043 104.039 715.11 104.062 715.164 104.104C715.218 104.146 715.257 104.205 715.275 104.271L716.485 108.191C716.504 108.255 716.544 108.311 716.598 108.351C716.652 108.391 716.717 108.412 716.785 108.411Z" fill="#FFED00"/>
<path d="M700.915 112.571L704.975 112.491C705.044 112.486 705.112 112.504 705.17 112.542C705.227 112.58 705.27 112.636 705.292 112.702C705.313 112.767 705.313 112.838 705.29 112.903C705.267 112.968 705.223 113.023 705.165 113.061L701.845 115.411C701.792 115.45 701.753 115.505 701.733 115.568C701.713 115.631 701.714 115.698 701.735 115.761L703.065 119.611C703.087 119.674 703.089 119.742 703.069 119.806C703.049 119.869 703.009 119.925 702.955 119.964C702.902 120.004 702.836 120.025 702.77 120.024C702.703 120.023 702.638 120.001 702.585 119.961L699.325 117.531C699.271 117.488 699.204 117.466 699.135 117.466C699.066 117.466 698.999 117.488 698.945 117.531L695.705 119.981C695.652 120.021 695.587 120.043 695.521 120.044C695.454 120.045 695.389 120.024 695.335 119.984C695.281 119.945 695.241 119.889 695.221 119.826C695.202 119.762 695.203 119.694 695.225 119.631L696.525 115.781C696.545 115.717 696.545 115.649 696.523 115.586C696.501 115.523 696.46 115.468 696.405 115.431L693.075 113.101C693.018 113.064 692.975 113.009 692.952 112.945C692.929 112.881 692.928 112.812 692.948 112.747C692.968 112.682 693.01 112.626 693.065 112.587C693.121 112.548 693.187 112.528 693.255 112.531L697.325 112.581C697.392 112.581 697.458 112.56 697.512 112.521C697.566 112.481 697.606 112.425 697.625 112.361L698.805 108.471C698.825 108.408 698.865 108.354 698.918 108.315C698.971 108.277 699.035 108.256 699.1 108.256C699.166 108.256 699.23 108.277 699.283 108.315C699.336 108.354 699.375 108.408 699.395 108.471L700.615 112.351C700.635 112.415 700.674 112.471 700.728 112.511C700.783 112.55 700.848 112.571 700.915 112.571Z" fill="#FFED00"/>
<path d="M732.575 112.531L736.355 112.511C736.428 112.511 736.5 112.534 736.559 112.577C736.619 112.62 736.664 112.68 736.687 112.75C736.71 112.82 736.711 112.895 736.689 112.965C736.667 113.035 736.623 113.097 736.565 113.141L733.495 115.351C733.433 115.394 733.386 115.457 733.363 115.529C733.339 115.601 733.34 115.679 733.365 115.751L734.555 119.341C734.577 119.411 734.577 119.487 734.554 119.557C734.531 119.628 734.487 119.689 734.427 119.732C734.367 119.776 734.294 119.799 734.22 119.798C734.146 119.798 734.074 119.774 734.015 119.731L730.965 117.491C730.904 117.445 730.83 117.421 730.755 117.421C730.679 117.421 730.605 117.445 730.545 117.491L727.495 119.731C727.435 119.774 727.363 119.798 727.289 119.798C727.215 119.799 727.143 119.776 727.083 119.732C727.023 119.689 726.978 119.628 726.955 119.557C726.932 119.487 726.932 119.411 726.955 119.341L728.145 115.751C728.169 115.679 728.17 115.601 728.146 115.529C728.123 115.457 728.077 115.394 728.015 115.351L724.945 113.141C724.886 113.097 724.842 113.035 724.821 112.965C724.799 112.895 724.799 112.82 724.823 112.75C724.846 112.68 724.89 112.62 724.95 112.577C725.01 112.534 725.081 112.511 725.155 112.511L728.935 112.531C729.009 112.529 729.081 112.505 729.141 112.46C729.2 112.415 729.243 112.352 729.265 112.281L730.425 108.681C730.449 108.612 730.493 108.553 730.553 108.512C730.612 108.47 730.682 108.447 730.755 108.447C730.827 108.447 730.898 108.47 730.957 108.512C731.016 108.553 731.061 108.612 731.085 108.681L732.245 112.281C732.266 112.352 732.309 112.415 732.369 112.46C732.428 112.505 732.5 112.529 732.575 112.531Z" fill="#FFED00"/>
<path d="M96.3646 156.38C96.9946 164.59 99.8646 171.67 108.595 173.5C117.005 175.27 125.515 173.17 129.755 165.27C129.941 164.924 130.235 164.75 130.635 164.75H147.175C147.615 164.75 147.768 164.96 147.635 165.38C145.388 172.24 142.111 177.564 137.805 181.35C128.515 189.52 114.085 190.77 102.455 188.01C79.8446 182.65 71.4946 157.29 78.3046 137.05C84.4746 118.72 102.565 109.34 121.315 113.01C141.695 116.99 149.885 136.27 149.135 155.23C149.121 155.577 148.941 155.75 148.595 155.75H96.9546C96.5346 155.75 96.338 155.96 96.3646 156.38ZM96.6746 143.06L128.355 142.94C128.392 142.94 128.427 142.926 128.454 142.899C128.48 142.873 128.495 142.838 128.495 142.8V142.73C128.487 140.749 128.087 138.788 127.319 136.96C126.551 135.132 125.429 133.473 124.018 132.078C122.606 130.682 120.933 129.577 119.093 128.826C117.253 128.075 115.283 127.693 113.295 127.7H111.615C109.626 127.708 107.659 128.106 105.825 128.872C103.992 129.638 102.327 130.756 100.927 132.163C99.5263 133.569 98.4177 135.237 97.6642 137.071C96.9106 138.905 96.5268 140.869 96.5346 142.85V142.92C96.5346 142.958 96.5494 142.993 96.5756 143.019C96.6019 143.046 96.6375 143.06 96.6746 143.06Z" fill="#787878"/>
<path d="M265.125 126.341C269.615 118.871 276.295 114.091 285.195 113.051C286.881 112.858 288.521 112.951 290.115 113.331C290.468 113.418 290.645 113.644 290.645 114.011V131.701C290.645 132.121 290.438 132.294 290.025 132.221C273.105 129.241 264.555 138.531 264.615 154.971C264.655 166.838 264.661 177.918 264.635 188.211C264.635 188.571 264.455 188.751 264.095 188.751H245.395C245.061 188.751 244.895 188.584 244.895 188.251V114.001C244.895 113.668 245.061 113.501 245.395 113.501H264.145C264.478 113.501 264.645 113.668 264.645 114.001L264.635 126.201C264.635 126.828 264.798 126.874 265.125 126.341Z" fill="#787878"/>
<path d="M366.254 159.33C363.034 179.22 347.704 190.01 327.724 189.48C308.404 188.97 295.004 177.34 292.204 157.92C291.217 151.067 291.677 144.454 293.584 138.08C298.984 120 314.414 111.94 332.424 113.04C357.624 114.57 370.124 135.45 366.254 159.33ZM344.184 164.92C347.414 157.78 347.674 146.25 344.514 138.31C342.494 133.25 337.604 128.85 332.074 128.32C321.881 127.347 315.534 131.867 313.034 141.88C310.104 153.62 311.914 172.33 326.914 174.19C334.434 175.12 340.994 172 344.184 164.92Z" fill="#787878"/>
<path d="M400.516 127.049C396.936 127.799 394.026 130.539 395.046 134.489C395.856 137.649 399.996 139.609 402.936 140.379C407.789 141.653 412.903 142.849 418.276 143.969C430.006 146.409 440.626 151.399 440.426 164.819C440.046 190.219 408.956 192.129 391.656 187.239C383.329 184.893 377.583 179.563 374.416 171.249C373.463 168.749 373.066 165.896 373.226 162.689C373.239 162.396 373.393 162.249 373.686 162.249H391.456C391.803 162.249 392.033 162.413 392.146 162.739C392.506 163.779 392.236 164.809 392.496 165.789C394.836 174.349 403.236 176.769 411.236 175.509C413.649 175.129 415.749 174.206 417.536 172.739C421.426 169.529 421.216 163.539 416.436 161.199C413.356 159.693 410.016 158.549 406.416 157.769C400.216 156.416 394.426 154.943 389.046 153.349C382.206 151.319 375.686 146.349 374.916 139.109C373.296 123.889 382.796 115.609 396.626 113.629C404.466 112.509 411.833 112.723 418.726 114.269C430.539 116.916 437.096 124.129 438.396 135.909C438.436 136.303 438.259 136.499 437.866 136.499H419.906C419.479 136.499 419.246 136.289 419.206 135.869C418.719 131.303 416.213 128.459 411.686 127.339C407.819 126.386 404.096 126.289 400.516 127.049Z" fill="#787878"/>
<path d="M549.726 181.48C549.716 181.42 549.689 181.363 549.648 181.317C549.607 181.271 549.554 181.237 549.495 181.219C549.435 181.2 549.371 181.198 549.31 181.213C549.249 181.227 549.192 181.257 549.146 181.3C546.586 183.78 543.886 185.53 541.046 186.55C531.966 189.824 523.346 190.254 515.186 187.84C507.593 185.594 502.996 180.837 501.396 173.57C500.189 168.09 500.483 163.174 502.276 158.82C505.906 149.97 514.926 147.12 523.816 145.83C529.216 145.05 534.526 144.327 539.746 143.66C542.916 143.25 548.396 141.42 548.786 137.58C549.946 126.27 539.226 125.6 531.196 126.87C526.246 127.66 524.166 131.23 523.206 135.82C523.113 136.274 522.833 136.5 522.366 136.5H503.576C503.189 136.5 503.016 136.307 503.056 135.92C504.906 116.76 522.866 112.65 539.286 112.92C545.766 113.027 551.333 113.907 555.986 115.56C563.919 118.374 567.893 124.204 567.906 133.05C567.926 145.49 567.906 157.977 567.846 170.51C567.826 174.36 568.576 178.08 569.216 181.87C569.506 183.62 570.156 185.36 570.996 186.91C571.209 187.304 571.093 187.5 570.646 187.5H551.506C551.086 187.5 550.836 187.294 550.756 186.88L549.726 181.48ZM521.306 169.76C523.006 175.69 530.296 176.36 535.606 175.87C543.646 175.12 548.686 169.68 548.096 161.32C547.916 158.767 547.859 156.194 547.926 153.6C547.939 153.067 547.703 152.914 547.216 153.14C545.263 154.067 543.276 154.67 541.256 154.95C537.263 155.517 533.479 156.17 529.906 156.91C523.536 158.22 519.386 163.04 521.306 169.76Z" fill="#787878"/>
<path d="M208.363 180.05C207.449 181.043 206.526 182.01 205.593 182.95C198.983 189.58 189.693 190.66 180.683 189.34C170.643 187.88 163.823 182.41 161.513 172.22C160.703 168.68 160.133 165.04 160.133 161.39C160.146 144.057 160.146 128.273 160.133 114.04C160.133 113.68 160.316 113.5 160.683 113.5H179.343C179.716 113.5 179.903 113.69 179.903 114.07C179.876 129.703 179.879 144.207 179.913 157.58C179.923 164.06 182.153 172.19 189.823 173.4C192.603 173.84 195.359 173.737 198.093 173.09C206.873 171.01 208.933 161.89 208.913 154.03C208.879 141.257 208.876 127.927 208.903 114.04C208.903 113.68 209.079 113.5 209.433 113.5H228.643C228.809 113.5 228.893 113.583 228.893 113.75V188.25C228.893 188.383 228.84 188.51 228.746 188.604C228.653 188.697 228.525 188.75 228.393 188.75H209.393C209.059 188.75 208.893 188.583 208.893 188.25V180.25C208.893 179.73 208.716 179.663 208.363 180.05Z" fill="#787878"/>
<path d="M689.666 124.1L693.696 124.06C693.759 124.06 693.82 124.08 693.871 124.116C693.922 124.153 693.96 124.205 693.98 124.265C694 124.325 694.001 124.389 693.982 124.449C693.963 124.509 693.926 124.562 693.876 124.6L690.606 126.96C690.553 126.997 690.514 127.05 690.495 127.112C690.475 127.173 690.475 127.239 690.496 127.3L691.786 131.11C691.806 131.17 691.807 131.235 691.788 131.296C691.769 131.357 691.731 131.41 691.68 131.448C691.629 131.486 691.567 131.507 691.503 131.507C691.439 131.507 691.377 131.487 691.326 131.45L688.076 129.07C688.024 129.031 687.961 129.01 687.896 129.01C687.831 129.01 687.768 129.031 687.716 129.07L684.486 131.47C684.435 131.505 684.374 131.524 684.312 131.524C684.25 131.524 684.189 131.504 684.139 131.468C684.088 131.432 684.05 131.381 684.03 131.322C684.01 131.263 684.008 131.199 684.026 131.14L685.276 127.31C685.294 127.25 685.293 127.186 685.273 127.127C685.254 127.068 685.216 127.017 685.166 126.98L681.886 124.64C681.835 124.602 681.798 124.549 681.779 124.489C681.761 124.429 681.761 124.365 681.781 124.305C681.801 124.245 681.839 124.193 681.89 124.156C681.941 124.12 682.003 124.1 682.066 124.1L686.086 124.11C686.15 124.111 686.213 124.091 686.265 124.053C686.318 124.015 686.356 123.961 686.376 123.9L687.576 120.06C687.595 120 687.634 119.948 687.685 119.911C687.736 119.873 687.797 119.854 687.861 119.854C687.924 119.854 687.985 119.873 688.037 119.911C688.088 119.948 688.126 120 688.146 120.06L689.376 123.89C689.395 123.951 689.434 124.005 689.486 124.043C689.538 124.081 689.601 124.101 689.666 124.1Z" fill="#FFED00"/>
<path d="M744.095 124.091L748.095 124.051C748.158 124.051 748.219 124.071 748.27 124.107C748.321 124.144 748.359 124.196 748.379 124.256C748.399 124.316 748.4 124.38 748.381 124.44C748.362 124.5 748.325 124.553 748.275 124.591L745.015 126.931C744.964 126.968 744.927 127.019 744.907 127.078C744.887 127.137 744.886 127.201 744.905 127.261L746.185 131.061C746.205 131.121 746.206 131.186 746.187 131.247C746.168 131.308 746.13 131.361 746.079 131.399C746.028 131.437 745.966 131.458 745.902 131.458C745.838 131.458 745.776 131.438 745.725 131.401L742.495 129.021C742.444 128.984 742.382 128.965 742.32 128.965C742.257 128.965 742.196 128.984 742.145 129.021L738.925 131.411C738.873 131.448 738.811 131.468 738.747 131.468C738.683 131.468 738.621 131.447 738.57 131.409C738.519 131.371 738.481 131.318 738.462 131.257C738.443 131.196 738.444 131.131 738.465 131.071L739.725 127.271C739.745 127.21 739.746 127.144 739.726 127.083C739.706 127.021 739.667 126.968 739.615 126.931L736.355 124.611C736.305 124.574 736.268 124.522 736.249 124.463C736.23 124.404 736.23 124.34 736.248 124.281C736.267 124.221 736.304 124.169 736.353 124.132C736.403 124.094 736.462 124.073 736.525 124.071L740.535 124.101C740.599 124.102 740.662 124.082 740.714 124.044C740.767 124.006 740.805 123.952 740.825 123.891L742.015 120.071C742.032 120.007 742.069 119.95 742.122 119.91C742.174 119.87 742.238 119.848 742.305 119.848C742.371 119.848 742.435 119.87 742.488 119.91C742.54 119.95 742.578 120.007 742.595 120.071L743.805 123.881C743.824 123.942 743.863 123.996 743.915 124.034C743.967 124.072 744.03 124.092 744.095 124.091Z" fill="#FFED00"/>
<path d="M748.453 139.671L752.523 139.541C752.596 139.541 752.668 139.564 752.728 139.607C752.787 139.65 752.832 139.71 752.855 139.78C752.878 139.85 752.879 139.925 752.857 139.995C752.835 140.065 752.792 140.127 752.733 140.171L749.373 142.471C749.311 142.514 749.265 142.577 749.241 142.649C749.218 142.721 749.218 142.799 749.243 142.871L750.623 146.701C750.646 146.771 750.646 146.847 750.623 146.917C750.6 146.988 750.555 147.049 750.495 147.092C750.435 147.136 750.363 147.159 750.289 147.159C750.215 147.158 750.143 147.135 750.083 147.091L746.863 144.611C746.801 144.563 746.726 144.537 746.648 144.537C746.57 144.537 746.494 144.563 746.433 144.611L743.223 147.101C743.163 147.145 743.091 147.168 743.017 147.169C742.943 147.169 742.871 147.146 742.811 147.102C742.751 147.059 742.706 146.998 742.683 146.927C742.66 146.857 742.66 146.781 742.683 146.711L744.053 142.881C744.08 142.808 744.082 142.728 744.058 142.654C744.035 142.579 743.987 142.515 743.923 142.471L740.553 140.201C740.49 140.158 740.442 140.096 740.417 140.024C740.393 139.952 740.392 139.874 740.416 139.801C740.44 139.729 740.486 139.666 740.549 139.623C740.612 139.579 740.687 139.558 740.763 139.561L744.823 139.681C744.902 139.683 744.98 139.659 745.043 139.612C745.107 139.565 745.153 139.497 745.173 139.421L746.293 135.521C746.312 135.445 746.355 135.377 746.417 135.329C746.478 135.28 746.555 135.254 746.633 135.254C746.711 135.254 746.787 135.28 746.849 135.329C746.911 135.377 746.954 135.445 746.973 135.521L748.113 139.421C748.135 139.494 748.18 139.558 748.241 139.603C748.302 139.648 748.377 139.672 748.453 139.671Z" fill="#FFED00"/>
<path d="M685.356 139.5L689.586 139.52C689.651 139.521 689.714 139.542 689.766 139.58C689.819 139.619 689.858 139.673 689.877 139.735C689.897 139.797 689.897 139.864 689.877 139.925C689.857 139.987 689.818 140.041 689.766 140.08L686.346 142.57C686.294 142.608 686.256 142.662 686.237 142.722C686.217 142.783 686.217 142.849 686.236 142.91L687.476 146.68C687.494 146.742 687.493 146.809 687.472 146.87C687.451 146.932 687.411 146.985 687.358 147.023C687.305 147.061 687.241 147.08 687.176 147.08C687.111 147.079 687.048 147.058 686.996 147.02L683.886 144.66C683.831 144.618 683.764 144.595 683.696 144.595C683.627 144.595 683.56 144.618 683.506 144.66L680.346 147.08C680.292 147.12 680.228 147.142 680.161 147.143C680.094 147.144 680.029 147.123 679.975 147.084C679.921 147.044 679.882 146.989 679.862 146.925C679.842 146.861 679.843 146.793 679.866 146.73L681.176 142.82C681.196 142.756 681.195 142.688 681.174 142.625C681.152 142.562 681.111 142.508 681.056 142.47L677.556 140.05C677.499 140.013 677.455 139.958 677.432 139.895C677.409 139.831 677.408 139.761 677.428 139.696C677.449 139.632 677.49 139.575 677.545 139.536C677.601 139.497 677.668 139.477 677.736 139.48L681.946 139.53C682.011 139.531 682.076 139.512 682.13 139.474C682.184 139.436 682.224 139.382 682.246 139.32L683.456 135.71C683.477 135.648 683.517 135.594 683.571 135.556C683.624 135.519 683.689 135.499 683.754 135.5C683.82 135.501 683.883 135.523 683.936 135.563C683.988 135.602 684.027 135.657 684.046 135.72L685.066 139.28C685.085 139.342 685.123 139.397 685.175 139.437C685.227 139.476 685.29 139.498 685.356 139.5Z" fill="#FFED00"/>
<path d="M689.644 155.801L693.684 155.761C693.747 155.761 693.809 155.781 693.86 155.817C693.911 155.854 693.949 155.906 693.969 155.966C693.989 156.026 693.99 156.09 693.971 156.15C693.952 156.21 693.915 156.263 693.864 156.301L690.574 158.651C690.522 158.688 690.483 158.741 690.463 158.803C690.443 158.864 690.444 158.93 690.464 158.991L691.764 162.821C691.785 162.882 691.784 162.948 691.764 163.009C691.744 163.07 691.705 163.123 691.652 163.16C691.599 163.197 691.536 163.216 691.472 163.215C691.407 163.213 691.345 163.19 691.294 163.151L688.044 160.751C687.993 160.714 687.932 160.694 687.869 160.694C687.807 160.694 687.745 160.714 687.694 160.751L684.454 163.171C684.403 163.213 684.339 163.237 684.273 163.239C684.207 163.241 684.142 163.221 684.088 163.182C684.035 163.143 683.996 163.087 683.977 163.024C683.958 162.96 683.961 162.893 683.984 162.831L685.264 159.001C685.285 158.94 685.285 158.874 685.266 158.813C685.246 158.751 685.207 158.698 685.154 158.661L681.854 156.321C681.804 156.283 681.767 156.23 681.748 156.17C681.729 156.11 681.73 156.046 681.75 155.986C681.77 155.926 681.808 155.874 681.859 155.837C681.91 155.801 681.971 155.781 682.034 155.781L686.074 155.811C686.139 155.812 686.202 155.792 686.254 155.754C686.306 155.716 686.345 155.662 686.364 155.601L687.564 151.741C687.581 151.677 687.619 151.62 687.671 151.58C687.724 151.539 687.788 151.518 687.854 151.518C687.921 151.518 687.985 151.539 688.037 151.58C688.09 151.62 688.127 151.677 688.144 151.741L689.354 155.591C689.374 155.652 689.412 155.706 689.465 155.744C689.517 155.782 689.58 155.802 689.644 155.801Z" fill="#FFED00"/>
<path d="M744.086 155.78L748.116 155.72C748.182 155.717 748.247 155.735 748.301 155.772C748.355 155.81 748.395 155.864 748.416 155.926C748.436 155.989 748.436 156.056 748.414 156.118C748.392 156.18 748.351 156.234 748.296 156.27L745.016 158.61C744.964 158.647 744.925 158.7 744.905 158.762C744.885 158.823 744.886 158.889 744.906 158.95L746.206 162.76C746.227 162.82 746.228 162.885 746.209 162.946C746.19 163.007 746.152 163.06 746.101 163.098C746.049 163.136 745.987 163.157 745.924 163.157C745.86 163.157 745.798 163.137 745.746 163.1L742.506 160.71C742.454 160.671 742.391 160.65 742.326 160.65C742.261 160.65 742.198 160.671 742.146 160.71L738.926 163.12C738.875 163.159 738.813 163.182 738.749 163.184C738.685 163.185 738.621 163.166 738.569 163.129C738.516 163.092 738.477 163.039 738.456 162.978C738.436 162.917 738.436 162.851 738.456 162.79L739.726 158.97C739.747 158.909 739.747 158.843 739.727 158.782C739.707 158.72 739.668 158.667 739.616 158.63L736.326 156.31C736.271 156.274 736.23 156.22 736.208 156.158C736.186 156.096 736.186 156.029 736.206 155.966C736.227 155.904 736.267 155.85 736.321 155.812C736.376 155.775 736.44 155.757 736.506 155.76L740.526 155.79C740.591 155.791 740.654 155.771 740.706 155.733C740.758 155.695 740.797 155.641 740.816 155.58L742.006 151.73C742.026 151.67 742.064 151.617 742.115 151.58C742.166 151.543 742.228 151.523 742.291 151.523C742.354 151.523 742.416 151.543 742.467 151.58C742.518 151.617 742.556 151.67 742.576 151.73L743.796 155.57C743.815 155.631 743.854 155.685 743.906 155.723C743.959 155.761 744.022 155.781 744.086 155.78Z" fill="#FFED00"/>
<path d="M732.513 167.099L736.543 167.059C736.606 167.059 736.668 167.079 736.719 167.116C736.77 167.153 736.808 167.205 736.828 167.264C736.848 167.324 736.848 167.389 736.83 167.449C736.811 167.509 736.774 167.562 736.723 167.599L733.443 169.949C733.391 169.987 733.352 170.04 733.332 170.101C733.312 170.162 733.313 170.228 733.333 170.289L734.623 174.109C734.644 174.17 734.645 174.235 734.626 174.296C734.607 174.357 734.569 174.41 734.518 174.448C734.467 174.486 734.405 174.506 734.341 174.507C734.277 174.507 734.215 174.487 734.163 174.449L730.913 172.049C730.862 172.013 730.801 171.993 730.738 171.993C730.675 171.993 730.614 172.013 730.563 172.049L727.323 174.459C727.272 174.497 727.21 174.517 727.146 174.517C727.082 174.516 727.02 174.496 726.969 174.458C726.918 174.42 726.88 174.367 726.861 174.306C726.842 174.245 726.843 174.18 726.863 174.119L728.133 170.299C728.154 170.238 728.154 170.172 728.134 170.111C728.115 170.05 728.076 169.997 728.023 169.959L724.733 167.619C724.683 167.582 724.646 167.529 724.627 167.469C724.608 167.409 724.609 167.344 724.629 167.284C724.649 167.225 724.687 167.173 724.738 167.136C724.789 167.099 724.85 167.079 724.913 167.079L728.943 167.109C729.008 167.11 729.071 167.09 729.123 167.052C729.175 167.015 729.214 166.961 729.233 166.899L730.433 163.049C730.45 162.985 730.488 162.929 730.54 162.888C730.593 162.848 730.657 162.826 730.723 162.826C730.789 162.826 730.854 162.848 730.906 162.888C730.959 162.929 730.996 162.985 731.013 163.049L732.223 166.889C732.243 166.951 732.281 167.005 732.334 167.042C732.386 167.08 732.449 167.1 732.513 167.099Z" fill="#FFED00"/>
<path d="M701.076 167.119L705.066 167.099C705.134 167.097 705.201 167.116 705.256 167.155C705.312 167.195 705.353 167.251 705.373 167.316C705.394 167.38 705.392 167.45 705.369 167.514C705.346 167.578 705.303 167.632 705.246 167.669L702.006 169.999C701.953 170.038 701.914 170.093 701.894 170.156C701.874 170.219 701.875 170.287 701.896 170.349L703.146 174.139C703.168 174.202 703.17 174.27 703.15 174.334C703.13 174.398 703.09 174.454 703.036 174.493C702.983 174.532 702.917 174.553 702.851 174.552C702.784 174.552 702.719 174.529 702.666 174.489L699.446 172.119C699.393 172.082 699.331 172.061 699.266 172.061C699.201 172.061 699.139 172.082 699.086 172.119L695.866 174.489C695.813 174.529 695.748 174.552 695.681 174.552C695.615 174.553 695.55 174.532 695.496 174.493C695.442 174.454 695.402 174.398 695.382 174.334C695.362 174.27 695.364 174.202 695.386 174.139L696.636 170.349C696.657 170.287 696.658 170.219 696.638 170.156C696.619 170.093 696.579 170.038 696.526 169.999L693.286 167.669C693.229 167.632 693.186 167.578 693.163 167.514C693.14 167.45 693.138 167.38 693.159 167.316C693.179 167.251 693.22 167.195 693.276 167.155C693.331 167.116 693.398 167.097 693.466 167.099L697.456 167.119C697.522 167.12 697.586 167.101 697.64 167.063C697.694 167.025 697.735 166.971 697.756 166.909L698.966 163.099C698.983 163.033 699.022 162.974 699.076 162.932C699.131 162.89 699.197 162.867 699.266 162.867C699.335 162.867 699.401 162.89 699.456 162.932C699.51 162.974 699.549 163.033 699.566 163.099L700.776 166.909C700.797 166.971 700.838 167.025 700.892 167.063C700.946 167.101 701.01 167.12 701.076 167.119Z" fill="#FFED00"/>
<path d="M716.955 171.301L720.945 171.261C721.01 171.261 721.073 171.283 721.125 171.321C721.178 171.36 721.217 171.414 721.237 171.476C721.257 171.538 721.257 171.604 721.236 171.666C721.216 171.728 721.177 171.782 721.125 171.821L717.885 174.141C717.83 174.178 717.789 174.233 717.767 174.296C717.745 174.359 717.745 174.427 717.765 174.491L719.035 178.271C719.057 178.334 719.058 178.402 719.039 178.466C719.019 178.53 718.979 178.585 718.925 178.625C718.871 178.664 718.806 178.685 718.739 178.684C718.673 178.683 718.608 178.661 718.555 178.621L715.345 176.251C715.292 176.213 715.229 176.193 715.165 176.193C715.1 176.193 715.037 176.213 714.985 176.251L711.775 178.621C711.722 178.661 711.657 178.683 711.59 178.684C711.524 178.685 711.458 178.664 711.404 178.625C711.351 178.585 711.311 178.53 711.291 178.466C711.271 178.402 711.273 178.334 711.295 178.271L712.565 174.491C712.585 174.427 712.584 174.359 712.563 174.296C712.541 174.233 712.5 174.178 712.445 174.141L709.205 171.821C709.152 171.782 709.113 171.728 709.093 171.666C709.073 171.604 709.073 171.538 709.093 171.476C709.113 171.414 709.152 171.36 709.204 171.321C709.257 171.283 709.32 171.261 709.385 171.261L713.375 171.301C713.442 171.301 713.507 171.28 713.562 171.241C713.616 171.201 713.655 171.145 713.675 171.081L714.865 167.281C714.882 167.214 714.921 167.156 714.975 167.114C715.03 167.072 715.096 167.049 715.165 167.049C715.233 167.049 715.3 167.072 715.354 167.114C715.409 167.156 715.448 167.214 715.465 167.281L716.655 171.081C716.674 171.145 716.714 171.201 716.768 171.241C716.822 171.28 716.888 171.301 716.955 171.301Z" fill="#FFED00"/>
</svg>
