<svg width="540" height="549" viewBox="0 0 540 549" fill="none" xmlns="http://www.w3.org/2000/svg">
<path d="M270.485 542.65C200.587 542.65 133.552 514.386 84.126 464.078C34.7005 413.769 6.93359 345.535 6.93359 274.387C6.93359 203.24 34.7005 135.006 84.126 84.6972C133.552 34.3883 200.587 6.125 270.485 6.125C340.383 6.125 407.419 34.3883 456.844 84.6972C481.317 109.608 500.73 139.181 513.975 171.728C527.22 204.275 534.037 239.159 534.037 274.387C534.037 345.535 506.27 413.769 456.844 464.078C407.419 514.386 340.383 542.65 270.485 542.65ZM271.39 267.357C271.808 264.308 272.038 261.065 272.596 258.246C273.901 251.611 277.067 246.089 282.095 241.682C284.408 239.655 286.771 237.685 289.183 235.773C295.289 230.94 299.965 224.973 303.187 217.934C327.349 165.15 351.286 112.85 374.998 61.034C375.067 60.8809 375.026 60.7653 374.876 60.6872C348.077 47.2152 320.209 39.2091 291.271 36.669C251.782 33.1982 213.779 39.4448 177.263 55.4089C173.396 57.0993 169.639 58.8993 165.991 60.8088C165.979 60.8146 165.968 60.8227 165.959 60.8326C165.95 60.8426 165.944 60.8542 165.939 60.8668C165.935 60.8794 165.934 60.8928 165.935 60.906C165.936 60.9192 165.939 60.9322 165.946 60.9439C189.478 112.355 213.01 163.753 236.542 215.137C238.069 218.47 239.423 221.13 240.605 223.117C244.844 230.256 250.834 235.115 257.192 240.2C264.127 245.739 268.015 252.999 268.874 261.637C269.057 263.487 269.293 265.431 269.581 267.47C269.605 267.644 269.705 267.731 269.882 267.731L270.971 267.722C271.214 267.722 271.354 267.6 271.39 267.357ZM231.497 249.716C231.233 247.461 231.106 245.056 231.115 242.501C231.133 238.631 231.317 234.626 231.668 230.485C231.689 230.249 231.65 230.01 231.556 229.792L159.731 64.2992C159.722 64.2788 159.709 64.2605 159.692 64.2454C159.676 64.2304 159.656 64.2189 159.635 64.2117C159.614 64.2045 159.592 64.2018 159.57 64.2037C159.547 64.2055 159.526 64.212 159.506 64.2226C153.911 67.3061 148.345 70.6869 142.807 74.3649C142.767 74.3913 142.738 74.4309 142.725 74.477C142.712 74.5231 142.715 74.5727 142.735 74.6171C170.941 139.131 199.159 203.669 227.389 268.231C229.399 272.831 230.633 275.567 231.092 276.441C233.819 281.662 237.34 286.189 241.654 290.02C246.838 294.622 253.061 298.176 258.353 302.297C261.305 304.597 263.509 307.249 264.964 310.255C267.271 315.017 268.7 320.16 269.252 325.684C269.27 325.865 269.371 325.955 269.554 325.955H271.381C271.579 325.955 271.687 325.856 271.705 325.657C272.209 320.322 273.635 315.174 275.984 310.214C277.753 306.476 280.925 303.387 284.359 300.937C286.927 299.102 289.528 297.308 292.162 295.555C300.203 290.195 307.03 283.125 310.94 274.18C339.83 208.159 368.926 141.641 398.227 74.6261C398.249 74.5744 398.253 74.5167 398.237 74.4631C398.221 74.4095 398.187 74.3636 398.141 74.3334C392.753 70.7305 387.194 67.3602 381.464 64.2226C381.344 64.1566 381.257 64.1866 381.203 64.3127C357.398 119.237 333.56 174.23 309.689 229.292C309.44 229.868 309.34 230.464 309.388 231.08C309.541 233.119 309.673 235.169 309.784 237.232C310.123 243.615 309.7 250.234 308.515 257.089C305.959 271.883 295.361 283.904 282.415 291.218C278.98 293.16 275.317 294.652 271.426 295.694C270.82 295.857 270.199 295.853 269.563 295.685C252.661 291.204 236.542 276.243 232.771 258.85C232.127 255.886 231.857 252.756 231.497 249.716ZM321.745 283.989C321.749 300.666 317.591 317.988 308.308 331.841C299.494 344.992 287.2 353.589 271.426 357.634C270.799 357.796 270.173 357.797 269.549 357.638C256.277 354.266 245.435 347.607 237.023 337.66C224.63 323.009 219.266 303.13 219.217 284.12C219.217 283.802 219.155 283.488 219.037 283.197L137.078 78.4408C137.072 78.4255 137.062 78.4118 137.049 78.4007C137.037 78.3896 137.022 78.3814 137.007 78.3767C136.991 78.3719 136.974 78.3708 136.957 78.3733C136.941 78.3758 136.925 78.3819 136.912 78.3912C131.614 82.1173 126.484 86.0595 121.522 90.2179C121.486 90.2483 121.461 90.2888 121.45 90.334C121.439 90.3792 121.442 90.4267 121.459 90.4701C154.189 169.468 186.871 248.424 219.505 327.337C220.978 330.901 222.338 333.886 223.586 336.291C227.564 343.953 233.105 350.054 240.209 354.594C243.203 356.509 246.431 358.419 249.893 360.322C257.651 364.587 263.537 369.776 266.327 378.54C267.608 382.56 268.525 387.232 269.077 392.555C269.095 392.747 269.2 392.844 269.392 392.844L271.61 392.839C271.79 392.839 271.889 392.749 271.907 392.569C272.207 389.509 272.783 386.095 273.635 382.327C275.288 374.992 278.569 369.352 283.477 365.407C287.752 361.971 292.787 359.368 297.562 356.616C303.58 353.148 308.503 348.988 312.331 344.136C315.67 339.903 318.257 335.048 320.372 329.936C353.417 250.098 386.461 170.268 419.503 90.4476C419.521 90.4044 419.525 90.3565 419.513 90.311C419.502 90.2655 419.476 90.2249 419.44 90.1954C414.595 86.1511 409.48 82.2179 404.095 78.3957C404.076 78.3834 404.055 78.3753 404.034 78.3721C404.012 78.3688 403.989 78.3705 403.968 78.377C403.947 78.3834 403.928 78.3945 403.911 78.4095C403.895 78.4244 403.882 78.4428 403.874 78.4633L321.857 283.39C321.783 283.581 321.745 283.784 321.745 283.989ZM37.8531 244.722C33.0381 284.885 37.8006 323.769 52.1406 361.372C53.2086 364.176 54.3396 366.95 55.5336 369.695C73.2591 410.448 101.474 445.744 137.956 471.158C173.857 496.172 215.378 510.529 259.037 512.759C259.202 512.768 259.295 512.69 259.316 512.525C261.949 491.38 262.516 470.1 261.836 448.536C261.734 445.269 261.407 441.995 260.855 438.714C259.753 432.143 257.071 426.707 251.212 423.099C248.363 421.343 245.258 420.14 242.063 419.01C219.883 411.183 209.929 389.281 208.255 367.015C207.55 357.656 207.956 348.272 209.474 338.862C209.527 338.541 209.493 338.21 209.375 337.903L115.721 95.4692C115.715 95.4537 115.705 95.44 115.692 95.4293C115.679 95.4185 115.664 95.411 115.647 95.4075C115.631 95.4039 115.614 95.4044 115.598 95.4089C115.582 95.4134 115.567 95.4217 115.555 95.4332C72.5571 134.269 44.7426 187.25 37.8531 244.722ZM503.5 247.798C496.975 189.074 469.426 135.138 425.564 95.5053C425.543 95.4853 425.516 95.471 425.488 95.4637C425.46 95.4564 425.43 95.4563 425.401 95.4634C425.372 95.4705 425.345 95.4846 425.323 95.5044C425.3 95.5243 425.283 95.5493 425.272 95.5773L331.505 338.106C331.445 338.256 331.429 338.412 331.456 338.574C335.065 361.403 333.647 389.15 317.056 407.129C313.207 411.303 308.38 414.785 302.575 417.578C302.173 417.773 300.323 418.477 297.026 419.69C290.888 421.951 285.434 424.964 282.518 430.882C279.562 436.876 279.179 444.532 279.013 451.572C278.522 472.284 279.157 492.371 281.663 512.538C281.672 512.608 281.707 512.672 281.76 512.717C281.814 512.762 281.882 512.785 281.951 512.781C320.933 510.68 356.971 499.614 390.064 479.585C411.655 466.518 430.678 450.366 447.133 431.129C473.329 400.504 490.807 365.288 499.567 325.482C500.2 322.608 500.776 319.669 501.295 316.664C505.288 293.461 506.023 270.505 503.5 247.798Z" fill="#009EDB"/>
<path d="M247.596 171.839H224.439C224.415 171.839 224.392 171.834 224.371 171.824C224.35 171.813 224.331 171.798 224.317 171.779C224.302 171.76 224.293 171.739 224.288 171.715C224.283 171.692 224.284 171.668 224.291 171.645L254.747 63.8091C254.756 63.7766 254.775 63.7479 254.802 63.7276C254.829 63.7072 254.861 63.6963 254.895 63.6965L287.061 63.6875C287.095 63.6873 287.128 63.6982 287.154 63.7186C287.181 63.7389 287.201 63.7676 287.21 63.8001L316.586 171.645C316.592 171.668 316.593 171.692 316.588 171.715C316.584 171.739 316.574 171.76 316.559 171.779C316.545 171.798 316.527 171.813 316.505 171.824C316.484 171.834 316.461 171.839 316.437 171.839L291.417 171.835C291.384 171.834 291.351 171.822 291.325 171.8C291.299 171.779 291.281 171.75 291.273 171.718L285.248 147.807C285.24 147.775 285.221 147.746 285.195 147.725C285.169 147.703 285.137 147.691 285.104 147.69H254.571C254.537 147.69 254.505 147.701 254.478 147.721C254.451 147.742 254.432 147.77 254.423 147.803L247.745 171.727C247.736 171.759 247.716 171.788 247.689 171.808C247.663 171.828 247.63 171.839 247.596 171.839ZM270.663 82.4229C270.656 82.3923 270.639 82.365 270.614 82.3454C270.59 82.3257 270.559 82.315 270.528 82.3148L269.048 82.3103C269.016 82.3105 268.986 82.3212 268.961 82.3409C268.937 82.3605 268.92 82.3878 268.913 82.4184L258.68 129.203C258.675 129.223 258.675 129.245 258.68 129.266C258.684 129.287 258.694 129.306 258.707 129.323C258.721 129.339 258.738 129.352 258.757 129.361C258.777 129.37 258.798 129.374 258.819 129.374H280.599C280.62 129.374 280.641 129.369 280.659 129.36C280.678 129.35 280.695 129.337 280.708 129.321C280.721 129.304 280.73 129.285 280.734 129.265C280.739 129.244 280.739 129.223 280.734 129.203L270.663 82.4229Z" fill="#009EDB"/>
<path d="M252.51 193.259C256.704 184.558 262.295 176.394 269.282 168.768C269.308 168.739 269.339 168.716 269.374 168.7C269.409 168.685 269.447 168.676 269.485 168.676C269.524 168.675 269.562 168.683 269.597 168.698C269.633 168.713 269.665 168.735 269.691 168.763C276.369 175.984 281.883 183.969 286.233 192.718C289.928 200.158 291.948 208.148 290.279 216.385C288.89 223.246 285.455 228.314 279.974 231.59C273.974 235.175 267.84 235.613 261.573 232.905C251.196 228.414 246.921 217.286 248.361 206.414C248.916 202.226 250.299 197.84 252.51 193.259Z" fill="#009EDB"/>
<path d="M432.709 290.974C419.313 289.902 408.189 283.525 401.047 271.96C397.564 266.326 395.125 259.642 393.838 253.116C391.735 242.443 391.551 231.548 393.285 220.433C394.518 212.52 397.195 204.364 401.596 197.658C409.072 186.267 419.98 180.184 434.32 179.409C440.029 179.103 445.429 179.667 450.52 181.102C473.02 187.448 481.422 209.696 482.313 231.026C482.983 247.018 480.144 264.948 469.483 277.324C460.182 288.128 446.776 292.1 432.709 290.974ZM418.494 248.194C419.722 258.377 423.723 271.978 435.94 272.865C450.673 273.928 455.119 257.548 456.276 246.266C457.666 232.719 458.193 196.753 436.341 197.622C415.744 198.437 416.923 235.142 418.494 248.194Z" fill="#009EDB"/>
<path d="M95.0564 244.254V289.156C95.0564 289.196 95.0403 289.235 95.0116 289.264C94.9829 289.293 94.944 289.309 94.9034 289.309H71.1569C71.1368 289.309 71.1169 289.305 71.0984 289.297C71.0798 289.289 71.0629 289.278 71.0487 289.264C71.0345 289.25 71.0232 289.233 71.0156 289.214C71.0079 289.196 71.0039 289.176 71.0039 289.156V181.319C71.0039 181.299 71.0079 181.279 71.0156 181.261C71.0232 181.242 71.0345 181.225 71.0487 181.211C71.0629 181.197 71.0798 181.185 71.0984 181.178C71.1169 181.17 71.1368 181.166 71.1569 181.166H136.632C136.652 181.166 136.672 181.17 136.69 181.178C136.709 181.185 136.726 181.197 136.74 181.211C136.754 181.225 136.766 181.242 136.773 181.261C136.781 181.279 136.785 181.299 136.785 181.319V199.901C136.785 199.921 136.781 199.941 136.773 199.96C136.766 199.979 136.754 199.995 136.74 200.01C136.726 200.024 136.709 200.035 136.69 200.043C136.672 200.051 136.652 200.054 136.632 200.054H95.2139C95.1733 200.054 95.1344 200.071 95.1057 200.099C95.077 200.128 95.0609 200.167 95.0609 200.208L95.0564 225.032C95.0564 225.073 95.0725 225.112 95.1012 225.14C95.1299 225.169 95.1688 225.185 95.2094 225.185H135.286C135.307 225.185 135.326 225.189 135.345 225.197C135.364 225.204 135.38 225.216 135.395 225.23C135.409 225.244 135.42 225.261 135.428 225.28C135.435 225.298 135.439 225.318 135.439 225.338V243.947C135.439 243.968 135.435 243.987 135.428 244.006C135.42 244.025 135.409 244.042 135.395 244.056C135.38 244.07 135.364 244.081 135.345 244.089C135.326 244.097 135.307 244.101 135.286 244.101H95.2094C95.1688 244.101 95.1299 244.117 95.1012 244.145C95.0725 244.174 95.0564 244.213 95.0564 244.254Z" fill="#009EDB"/>
<path d="M465.394 358.171C465.175 358.065 465.148 357.924 465.313 357.747C467.44 355.405 469.069 352.963 470.2 350.42C471.699 347.051 471.703 342.2 468.085 340.187C464.886 338.408 461.983 339.985 459.684 342.322C454.671 347.425 449.694 354.09 441.45 351.203C434.043 348.609 431.581 341.795 433.435 334.513C434.47 330.435 436.314 326.702 438.966 323.312C438.982 323.291 439.005 323.276 439.031 323.27C439.056 323.264 439.082 323.268 439.105 323.28L445.486 326.667C445.642 326.751 445.662 326.858 445.545 326.987C442.615 330.239 440.028 334.495 440.23 338.715C440.383 341.935 443.515 344.087 446.476 342.777C447.55 342.302 448.564 341.595 449.518 340.656C454.486 335.76 459.463 329.378 467.437 331.063C474.507 332.558 478.971 337.733 478.597 345.078C478.384 349.27 477.306 353.021 475.362 356.333C474.489 357.825 473.436 359.421 472.203 361.12C472.101 361.265 471.97 361.299 471.811 361.224L465.394 358.171Z" fill="#009EDB"/>
<path d="M98.1269 361.367L106.209 377.162C106.278 377.3 106.246 377.408 106.114 377.486L100.255 380.927C100.231 380.941 100.204 380.95 100.175 380.954C100.147 380.957 100.118 380.954 100.091 380.946C100.064 380.937 100.038 380.923 100.016 380.904C99.9939 380.886 99.9759 380.863 99.9629 380.837L91.7909 364.695C91.7772 364.669 91.7583 364.645 91.7354 364.626C91.7126 364.607 91.6861 364.593 91.6576 364.584C91.6292 364.575 91.5992 364.572 91.5696 364.575C91.5399 364.578 91.5112 364.587 91.4849 364.601L74.5604 373.478C74.5366 373.491 74.5105 373.499 74.4835 373.501C74.4566 373.504 74.4294 373.501 74.4036 373.492C74.3779 373.484 74.3542 373.47 74.3339 373.452C74.3137 373.434 74.2973 373.412 74.2859 373.388L70.6139 366.001C70.5954 365.964 70.5926 365.92 70.606 365.88C70.6194 365.84 70.6481 365.806 70.6859 365.785L109.894 344.992C110.053 344.908 110.17 344.948 110.245 345.113C114.1 353.58 118.315 361.609 122.89 369.199C122.989 369.364 122.956 369.495 122.791 369.591L117.018 373C116.995 373.014 116.97 373.023 116.944 373.027C116.918 373.03 116.891 373.029 116.865 373.022C116.84 373.015 116.816 373.004 116.795 372.988C116.774 372.971 116.756 372.951 116.743 372.928C113.512 367.305 110.568 361.702 107.91 356.12C107.9 356.098 107.885 356.078 107.866 356.062C107.848 356.046 107.826 356.034 107.803 356.026C107.779 356.018 107.754 356.016 107.729 356.018C107.704 356.02 107.68 356.028 107.658 356.039L98.2484 360.989C98.0834 361.076 98.0429 361.202 98.1269 361.367Z" fill="#009EDB"/>
<path d="M457.044 391.379L418.029 368.393C418.012 368.383 417.996 368.37 417.984 368.354C417.972 368.338 417.963 368.32 417.958 368.3C417.953 368.281 417.952 368.261 417.955 368.241C417.958 368.221 417.965 368.202 417.975 368.185L422.002 361.533C422.023 361.5 422.056 361.476 422.094 361.467C422.131 361.458 422.171 361.464 422.205 361.484L461.022 384.394C461.056 384.414 461.081 384.446 461.091 384.484C461.101 384.522 461.096 384.563 461.076 384.597L457.251 391.325C457.241 391.343 457.228 391.358 457.212 391.37C457.196 391.383 457.178 391.391 457.159 391.396C457.14 391.401 457.119 391.403 457.1 391.4C457.08 391.397 457.061 391.39 457.044 391.379Z" fill="#009EDB"/>
<path d="M398.174 411.696L420.895 435.764C421.021 435.896 421.016 436.023 420.881 436.146L415.256 441.312C415.178 441.384 415.102 441.381 415.027 441.303L383.558 408.778C383.408 408.621 383.413 408.47 383.572 408.323L390.637 401.914C390.748 401.812 390.877 401.783 391.024 401.828L425.561 412.196C426.05 412.343 426.106 412.245 425.728 411.903C417.796 404.727 409.79 397.632 401.711 390.619C401.57 390.496 401.56 390.362 401.68 390.218L406.463 384.498C406.583 384.354 406.711 384.345 406.846 384.471L440.168 414.731C440.306 414.857 440.315 414.991 440.195 415.132L434.512 421.915C434.454 421.983 434.378 422.033 434.294 422.059C434.209 422.084 434.119 422.084 434.035 422.059L398.269 411.547C398.056 411.487 398.024 411.537 398.174 411.696Z" fill="#009EDB"/>
<path d="M100.634 414.79L134.726 385.8C134.741 385.787 134.758 385.777 134.777 385.771C134.796 385.765 134.816 385.763 134.835 385.764C134.855 385.766 134.874 385.771 134.892 385.781C134.909 385.79 134.925 385.802 134.937 385.818L140.216 392.299C140.24 392.329 140.251 392.368 140.247 392.407C140.243 392.445 140.223 392.481 140.193 392.506L106.173 421.437C106.143 421.462 106.105 421.474 106.066 421.471C106.027 421.467 105.992 421.449 105.966 421.419L100.616 414.997C100.591 414.967 100.579 414.929 100.583 414.89C100.586 414.851 100.604 414.815 100.634 414.79Z" fill="#009EDB"/>
<path d="M140.167 440.762L131.243 446.135C131.105 446.219 130.975 446.207 130.852 446.099L124.597 440.658C124.465 440.547 124.474 440.448 124.624 440.361L166.33 416.451C166.498 416.352 166.661 416.361 166.82 416.478L173.138 421.054C173.285 421.159 173.342 421.3 173.309 421.477L164.615 468.923C164.573 469.14 164.458 469.192 164.269 469.081L157.064 464.866C156.905 464.773 156.844 464.636 156.88 464.456L158.95 454.174C158.963 454.106 158.955 454.036 158.928 453.973C158.9 453.911 158.855 453.858 158.797 453.823C152.614 450.012 146.618 445.675 140.81 440.811C140.609 440.643 140.395 440.627 140.167 440.762ZM160.804 445.18C162.091 438.746 163.381 432.39 164.674 426.111C164.679 426.087 164.677 426.062 164.668 426.039C164.66 426.015 164.644 425.995 164.624 425.981C164.604 425.967 164.58 425.958 164.555 425.958C164.53 425.957 164.506 425.963 164.485 425.976L146.912 436.609C146.899 436.617 146.887 436.627 146.879 436.64C146.871 436.653 146.866 436.667 146.865 436.683C146.863 436.698 146.866 436.714 146.872 436.729C146.878 436.743 146.887 436.757 146.899 436.767C151.045 440.283 155.479 443.511 160.201 446.45C160.342 446.537 160.438 446.503 160.489 446.346C160.621 445.962 160.726 445.573 160.804 445.18Z" fill="#009EDB"/>
<path d="M368.089 462.205L369.718 472.42C369.728 472.474 369.719 472.529 369.694 472.578C369.669 472.627 369.628 472.666 369.579 472.69L362.527 476.122C362.51 476.13 362.491 476.135 362.471 476.135C362.452 476.134 362.432 476.129 362.415 476.12C362.398 476.111 362.383 476.097 362.372 476.081C362.361 476.065 362.354 476.046 362.352 476.027L355.912 428.067C355.906 428.017 355.914 427.965 355.936 427.92C355.959 427.874 355.994 427.836 356.038 427.81L362.316 424.108C362.345 424.091 362.379 424.083 362.413 424.084C362.448 424.086 362.481 424.097 362.509 424.117L401.002 452.824C401.014 452.833 401.024 452.844 401.03 452.857C401.037 452.87 401.04 452.885 401.039 452.899C401.039 452.914 401.035 452.928 401.028 452.941C401.021 452.954 401.01 452.965 400.998 452.973L394.455 457.679C394.317 457.778 394.18 457.775 394.045 457.67L385.891 451.378C385.829 451.329 385.751 451.301 385.671 451.299C385.591 451.298 385.512 451.322 385.446 451.369C380.097 455.176 374.385 458.641 368.31 461.764C368.13 461.857 368.056 462.004 368.089 462.205ZM363.756 434.485L366.825 454.432C366.829 454.455 366.838 454.477 366.852 454.496C366.866 454.515 366.884 454.53 366.905 454.541C366.925 454.551 366.948 454.557 366.971 454.557C366.994 454.557 367.016 454.551 367.036 454.54C371.38 452.237 375.595 449.679 379.681 446.866C379.707 446.848 379.728 446.824 379.743 446.797C379.758 446.77 379.766 446.739 379.767 446.708C379.768 446.677 379.761 446.646 379.748 446.618C379.735 446.59 379.715 446.565 379.69 446.546L363.99 434.341C363.795 434.188 363.717 434.236 363.756 434.485Z" fill="#009EDB"/>
<path d="M206.064 446.991C201.402 445.207 196.785 443.149 192.213 440.816C192.16 440.791 192.12 440.746 192.1 440.692C192.08 440.637 192.081 440.577 192.105 440.524L194.782 434.101C194.809 434.035 194.856 434.017 194.922 434.047C206.496 439.476 218.46 443.753 230.814 446.878C230.994 446.923 231.058 447.036 231.007 447.216L229.144 453.553C229.121 453.63 229.07 453.696 229 453.737C228.929 453.778 228.846 453.791 228.766 453.773C223.948 452.723 219.238 451.477 214.636 450.035C214.583 450.018 214.525 450.023 214.476 450.048C214.426 450.074 214.388 450.117 214.371 450.17L202.225 485.484C202.165 485.658 202.05 485.715 201.879 485.655L194.373 483.002C194.205 482.942 194.149 482.828 194.206 482.66L206.244 447.378C206.307 447.192 206.247 447.063 206.064 446.991Z" fill="#009EDB"/>
<path d="M325.625 471.555C325.594 471.563 325.565 471.578 325.54 471.597C325.516 471.617 325.495 471.642 325.48 471.67C325.465 471.698 325.455 471.729 325.452 471.762C325.449 471.794 325.453 471.826 325.463 471.857L330.467 488.21C330.524 488.39 330.461 488.504 330.278 488.552L322.983 490.498C322.921 490.513 322.855 490.505 322.8 490.474C322.745 490.443 322.704 490.392 322.686 490.331L309.56 447.033C309.512 446.873 309.567 446.768 309.726 446.717C313.731 445.438 317.793 444.159 321.912 442.88C328.892 440.714 336.884 440.903 340.713 448.24C342.972 452.572 343.683 457.864 341.253 462.233C338.081 467.925 331.506 469.952 325.625 471.555ZM319.226 451.487L323.244 464.565C323.255 464.598 323.277 464.625 323.308 464.641C323.338 464.657 323.373 464.661 323.406 464.651L328.581 463.057C330.598 462.436 332.325 461.168 333.383 459.532C334.442 457.896 334.744 456.026 334.224 454.333L334.053 453.775C333.796 452.936 333.344 452.166 332.724 451.509C332.104 450.852 331.327 450.321 330.439 449.945C329.55 449.569 328.567 449.357 327.546 449.32C326.525 449.283 325.485 449.423 324.486 449.73L319.311 451.325C319.279 451.335 319.251 451.358 319.235 451.388C319.219 451.418 319.216 451.454 319.226 451.487Z" fill="#009EDB"/>
</svg>
