<svg width="829" height="829" viewBox="0 0 829 829" fill="none" xmlns="http://www.w3.org/2000/svg">
<path d="M576.6 151.352C586.9 135.681 593.77 116.944 589.22 98.2364C585.15 81.5265 572.53 65.5159 558.6 54.6989C555.327 52.162 551.743 49.5817 547.85 46.9582C547.657 46.8251 547.547 46.6453 547.52 46.4189C547.467 46.026 547.62 45.9095 547.98 46.0693C566.587 54.2528 582.827 64.7634 596.7 77.6013C602.54 83.0048 608.73 89.4869 612.67 96.1189C623.897 114.963 626.23 134.899 619.67 155.927C614.34 173.006 602.79 189.596 590.56 203.05C578.827 215.961 565.033 228.273 549.18 239.985C531.44 253.076 512.247 265.275 491.6 276.581C439.573 305.06 386.457 327.507 332.25 343.92C313.297 349.66 294.183 354.304 274.91 357.853C270.177 358.725 265.31 359.068 260.31 358.882C259.923 358.869 259.73 358.669 259.73 358.283C259.6 342.172 259.13 324.953 260.55 308.483C260.57 308.266 260.656 308.061 260.796 307.895C260.935 307.729 261.121 307.61 261.33 307.554C265.017 306.528 268.83 305.546 272.77 304.607C286.43 301.358 299.323 298.192 311.45 295.109C359.08 283.004 407.03 266.713 450.07 246.877C480.23 232.984 510.56 215.805 536.2 195.04C552.853 181.549 566.32 166.987 576.6 151.352Z" fill="#1B3E94"/>
<path d="M154.851 243.471C139.461 235.75 129.131 222.426 128.381 204.797C128.148 199.337 129.005 192.918 130.951 185.54C133.338 176.498 136.288 167.739 139.801 159.262C143.071 151.352 146.751 143.311 152.571 137.608C152.951 137.235 153.091 137.312 152.991 137.838C151.711 144.583 150.971 152.903 150.771 162.798C150.678 167.512 151.218 171.557 152.391 174.933C158.081 191.274 174.381 202.61 191.041 205.636C200.168 207.294 209.581 207.96 219.281 207.634C256.771 206.375 295.191 196.737 329.681 181.336C368.121 164.156 404.141 141.544 434.421 112.459C434.533 112.353 434.682 112.295 434.835 112.299C434.989 112.303 435.135 112.367 435.241 112.479L468.561 147.656C468.595 147.692 468.622 147.733 468.639 147.779C468.657 147.824 468.666 147.873 468.665 147.921C468.664 147.969 468.654 148.017 468.634 148.06C468.614 148.104 468.586 148.143 468.551 148.176C465.391 151.099 462.215 154.182 459.021 157.424C443.195 173.458 424.808 187.255 403.861 198.814C360.781 222.606 313.601 240.964 266.071 249.733C250.418 252.623 230.925 254.111 207.591 254.198C199.871 254.224 193.225 253.938 187.651 253.339C176.498 252.14 165.565 248.851 154.851 243.471Z" fill="#EF4035"/>
<path d="M709.881 351.51C737.871 320.048 757.931 278.568 759.121 236.998C759.501 223.744 758.291 210.51 756.031 197.706C755.797 196.407 756.077 196.287 756.871 197.346C759.631 201.055 762.087 205.23 764.241 209.871C770.061 222.426 774.521 234.691 775.911 248.444C776.677 256.022 776.817 263.2 776.331 269.978C774.084 301.421 764.224 331.111 746.751 359.051C738.917 371.583 729.734 383.808 719.201 395.727C684.391 435.089 642.331 467.87 596.831 494.707C557.111 518.146 515.027 538.022 470.581 554.335C430.671 568.988 389.661 580.464 347.971 585.977C333.841 587.855 319.781 588.444 304.941 589.004C304.681 589.01 304.551 588.884 304.551 588.624C304.431 572.863 304.484 557.828 304.711 543.519C304.751 541.111 304.681 536.547 307.771 535.938C313.021 534.919 318.241 534.899 323.641 534.15C377.461 526.619 429.771 511.947 481.531 493.039C528.611 475.84 574.081 454.666 616.531 428.787C652.344 406.967 683.461 381.208 709.881 351.51Z" fill="#EF4035"/>
<path d="M74.7508 423.682C86.2708 428.976 99.4342 432.974 114.241 435.678C128.768 438.328 143.888 440.119 159.601 441.051C195.874 443.209 232.511 441.294 269.511 435.308C327.884 425.866 384.344 408.417 438.891 382.961C461.978 372.181 484.271 359.566 505.771 345.117C515.051 338.884 523.651 332.113 532.211 325.131C532.323 325.04 532.465 324.993 532.611 325.001C532.757 325.008 532.895 325.069 533.001 325.171L569.351 360.109C569.504 360.262 569.504 360.415 569.351 360.568C559.944 369.977 549.557 378.25 538.191 385.388C501.411 408.48 464.258 427.048 426.731 441.091C378.351 459.196 328.838 471.851 278.191 479.055C268.171 480.48 257.424 481.489 245.951 482.082C230.964 482.847 215.041 483.413 198.181 483.78C189.221 483.979 181.284 483.776 174.371 483.17C167.738 482.591 160.821 481.845 153.621 480.933C134.308 478.496 116.714 474.138 100.841 467.859C61.6409 452.358 28.6408 422.633 25.0108 378.517C24.9575 377.917 25.1008 377.867 25.4408 378.367C29.0142 383.607 32.6475 388.591 36.3408 393.319C46.6275 406.523 59.4308 416.644 74.7508 423.682Z" fill="#00853E"/>
<path d="M745.319 574.141C767.929 541.69 787.079 506.273 802.459 468.988C802.999 467.683 803.716 466.398 804.609 465.133C805.476 463.901 805.933 464.037 805.979 465.542C806.013 466.474 805.989 467.406 805.909 468.339C805.249 476.476 804.459 484.353 803.539 491.97C801.949 505.154 798.819 518.748 794.859 531.552C771.399 607.471 722.349 675.279 658.109 721.383C617.483 750.535 572.529 769.632 523.249 778.674C505.829 781.87 486.379 783.722 464.899 784.228C464.546 784.234 464.369 784.061 464.369 783.708L464.359 729.753C464.359 729.562 464.433 729.379 464.565 729.241C464.698 729.103 464.878 729.022 465.069 729.014C503.096 727.176 539.459 719.679 574.159 706.521C625.839 686.915 672.189 655.703 711.059 615.341C724.439 601.451 735.859 587.718 745.319 574.141Z" fill="#00853E"/>
<path d="M193.71 685.406C174.43 680.312 154.95 672.711 137.96 662.793C132.553 659.637 127.023 655.669 121.37 650.888C111.63 642.644 103.627 634.657 97.3601 626.927C95.5068 624.63 93.9201 621.923 92.6001 618.807C92.3934 618.327 92.5068 618.234 92.9401 618.527C101.733 624.453 110.957 629.427 120.61 633.449C145.62 643.876 171.52 650.039 198.21 651.657C217.43 652.822 237.463 652.875 258.31 651.817C322.003 648.594 385.81 638.586 449.73 621.793C481.983 613.323 513.183 603.205 543.33 591.44C567.697 581.931 590.457 570.778 611.61 557.98C614.15 556.442 616.727 556.482 619.34 558.1C622.273 559.918 625.137 561.962 627.93 564.232C638.983 573.228 649.607 581.874 659.8 590.171C659.876 590.235 659.924 590.327 659.933 590.426C659.943 590.525 659.913 590.623 659.85 590.7C657.003 594.13 653.83 597.089 650.33 599.58C644.103 604.014 637.467 608.199 630.42 612.135C602.72 627.616 573.703 640.913 543.37 652.026C487.25 672.595 429.47 685.965 370.03 692.138C346.163 694.615 322.887 696.207 300.2 696.912C283.287 697.438 264.44 696.629 243.66 694.485C226.6 692.727 209.95 689.701 193.71 685.406Z" fill="#1B3E94"/>
</svg>
