<svg width="730" height="371" viewBox="0 0 730 371" fill="none" xmlns="http://www.w3.org/2000/svg">
<path d="M710.458 186.09L589.248 186.08C589.19 186.081 589.132 186.094 589.08 186.119C589.027 186.144 588.981 186.18 588.944 186.225C588.907 186.269 588.88 186.322 588.865 186.378C588.85 186.434 588.848 186.493 588.858 186.55L591.298 200.93" stroke="#001832" stroke-width="2"/>
<path d="M706.877 231.2C706.264 231.98 705.014 233.876 703.127 236.89C699.18 243.183 694.027 249.253 687.667 255.1C674.727 266.99 658.187 272.12 641.097 274.08C624.697 275.96 609.234 275.646 594.707 273.14C578.737 270.38 564.547 263.81 553.357 251.87C526.747 223.49 520.077 183.78 524.657 145.63C525.957 134.83 528.427 124.793 532.067 115.52" stroke="#001832" stroke-width="2"/>
<path d="M491.148 275.609L432.978 275.54C432.645 275.54 432.478 275.373 432.478 275.04C432.345 235.473 432.321 196.329 432.408 157.609C432.448 143.819 430.088 123.599 411.938 122.269C397.938 121.239 389.288 131.359 386.078 144.099" stroke="#001832" stroke-width="2"/>
<path d="M375.811 275.619L317.701 275.549C317.514 275.549 317.421 275.455 317.421 275.269L317.391 77.7988" stroke="#001832" stroke-width="2"/>
<path d="M25.1797 355.6C25.9664 354.313 26.9064 353.283 27.9997 352.51" stroke="#5D0A12" stroke-width="2"/>
<path d="M27.9983 352.51C35.8283 356.55 43.8883 353.04 47.8583 345.86C52.3383 337.75 50.8183 326.52 43.5383 320.8C39.6916 317.78 35.8449 316.77 31.9983 317.77C27.7249 318.883 24.5149 321.156 22.3683 324.59C18.3949 330.943 17.9949 337.77 21.1683 345.07" stroke="#808080" stroke-width="2"/>
<path d="M21.1688 345.07C20.8754 347.31 19.3087 349.787 16.4688 352.5" stroke="#00293E" stroke-width="2"/>
<path d="M27.997 352.51L25.897 351.13C25.597 350.937 25.337 350.98 25.117 351.26L21.707 355.5" stroke="#DC8A91" stroke-width="2"/>
<path d="M18.4671 355.54C18.3271 355.227 18.3538 354.96 18.5471 354.74C20.1138 352.92 21.6371 351.037 23.1171 349.09C23.3238 348.824 23.3371 348.547 23.1571 348.26L21.1671 345.07" stroke="#80A8BD" stroke-width="2"/>
<path d="M58.2578 211.959L22.8578 254.039C22.4978 254.466 22.3145 254.959 22.3078 255.519L22.2578 273.759C22.2578 273.86 22.2978 273.956 22.3691 274.028C22.4404 274.099 22.537 274.139 22.6378 274.139L33.9678 274.179" stroke="#00293E" stroke-width="2"/>
<path d="M33.9688 274.179C34.0754 274.159 34.1787 274.142 34.2787 274.129" stroke="#808080" stroke-width="2"/>
<path d="M34.2773 274.129L83.1573 274.199C83.4907 274.199 83.7673 274.072 83.9873 273.819L101.507 253.219" stroke="#5D0A12" stroke-width="2"/>
<path d="M101.51 253.219C108.53 256.933 114.653 259.559 119.88 261.099C144.807 268.446 168.823 267.303 191.93 257.669C230.84 241.449 256.32 203.719 262.05 162.749C267.5 123.819 254.96 83.7694 227.53 56.1294C197.02 25.3794 151.67 14.7294 111.29 31.7494C69.2099 49.4894 42.5899 91.0394 39.7599 136.249C38.0599 163.476 44.2266 188.713 58.2599 211.959" stroke="#808080" stroke-width="2"/>
<path d="M101.507 253.219L85.4473 242.799C85.1673 242.612 84.9173 242.649 84.6973 242.909L59.4173 272.829C59.0792 273.233 58.6559 273.558 58.1773 273.78C57.6987 274.003 57.1764 274.119 56.6473 274.119L34.2773 274.129" stroke="#DC8A91" stroke-width="2"/>
<path d="M33.9678 274.179L32.9278 274.039C32.8681 274.031 32.8115 274.007 32.7639 273.97C32.7164 273.933 32.6795 273.884 32.6571 273.828C32.6347 273.772 32.6276 273.711 32.6365 273.652C32.6454 273.592 32.67 273.536 32.7078 273.489L70.3578 228.849C70.4303 228.764 70.4702 228.656 70.4702 228.544C70.4702 228.432 70.4303 228.324 70.3578 228.239C65.9311 223.199 61.8978 217.772 58.2578 211.959" stroke="#80A8BD" stroke-width="2"/>
<path d="M95.2773 166.289C97.4373 172.762 100.834 179.239 105.467 185.719C105.794 186.172 106.134 186.185 106.487 185.759L185.267 92.2888C185.284 92.2677 185.297 92.2436 185.304 92.2179C185.312 92.1922 185.315 92.1655 185.312 92.1394C185.309 92.1132 185.301 92.0881 185.288 92.0657C185.275 92.0433 185.258 92.0239 185.237 92.0088C179.571 87.5422 173.274 84.3888 166.347 82.5488" stroke="#80A8BD" stroke-width="2"/>
<path d="M166.349 82.5486C135.559 74.0986 105.129 93.0186 95.5288 122.969C93.3422 129.809 92.1355 136.149 91.9088 141.989C91.6155 149.682 92.7388 157.782 95.2788 166.289" stroke="#808080" stroke-width="2"/>
<path d="M166.347 82.5488C166.707 83.1755 166.467 83.8755 165.627 84.6488C165.054 85.1688 164.521 85.7188 164.027 86.2988C141.581 112.825 119.111 139.439 96.6173 166.139C96.4707 166.312 96.2873 166.402 96.0673 166.409C95.8473 166.422 95.584 166.382 95.2773 166.289" stroke="#00293E" stroke-width="2"/>
<path d="M139.629 207.809C157.129 211.162 172.409 207.709 185.469 197.449C197.862 187.716 205.762 175.109 209.169 159.629C211.562 148.709 211.276 137.622 208.309 126.369" stroke="#808080" stroke-width="2"/>
<path d="M208.309 126.37C206.582 119.823 203.689 113.44 199.629 107.22C199.589 107.16 199.536 107.11 199.475 107.074C199.413 107.037 199.343 107.016 199.272 107.011C199.201 107.006 199.131 107.018 199.066 107.046C199.001 107.073 198.944 107.116 198.899 107.17L120.929 199.7C120.91 199.721 120.896 199.745 120.888 199.772C120.879 199.799 120.877 199.827 120.881 199.855C120.885 199.882 120.894 199.909 120.91 199.932C120.925 199.956 120.945 199.975 120.969 199.99C126.796 203.85 133.016 206.457 139.629 207.81" stroke="#DC8A91" stroke-width="2"/>
<path d="M208.309 126.369L139.629 207.809" stroke="#5D0A12" stroke-width="2"/>
<path d="M642.91 147.95L652.04 147.91C652.103 147.91 652.165 147.897 652.223 147.872C652.281 147.847 652.333 147.811 652.376 147.765C652.419 147.719 652.453 147.664 652.474 147.605C652.495 147.546 652.504 147.483 652.5 147.42C651.24 130.7 646.44 108.86 626.55 105.22C615.54 103.21 605.72 107.13 598.97 116.21C595.763 120.517 593.47 125.093 592.09 129.94" stroke="#001832" stroke-width="2"/>
<path d="M33.2576 326.219C27.7109 328.279 25.5709 332.572 26.8376 339.099" stroke="#808080" stroke-width="2"/>
<path d="M26.8399 339.099C26.8333 339.699 27.2466 340.592 28.0799 341.779C28.1175 341.833 28.1672 341.876 28.2251 341.907C28.2829 341.937 28.3474 341.953 28.4134 341.954C28.4794 341.955 28.5451 341.941 28.6052 341.912C28.6654 341.883 28.7183 341.841 28.7599 341.789L39.3299 328.239C39.4699 328.052 39.4533 327.883 39.2799 327.729C37.6199 326.256 35.6133 325.752 33.2599 326.219" stroke="#80A8BD" stroke-width="2"/>
<path d="M26.8398 339.1L36.1798 327.59C36.3998 327.316 36.3765 327.06 36.1098 326.82C35.5098 326.286 34.5598 326.086 33.2598 326.22" stroke="#00293E" stroke-width="2"/>
<path d="M33.0273 345.389C34.8207 345.842 36.2273 345.796 37.2473 345.249C42.0207 342.702 43.7973 338.632 42.5773 333.039" stroke="#808080" stroke-width="2"/>
<path d="M42.5785 333.039C42.5119 332.293 42.2719 331.533 41.8585 330.759C41.8173 330.683 41.7577 330.618 41.685 330.571C41.6124 330.523 41.529 330.495 41.4425 330.488C41.3561 330.481 41.2692 330.496 41.1899 330.531C41.1106 330.566 41.0414 330.621 40.9885 330.689L30.7685 343.769C30.5885 343.996 30.5985 344.213 30.7985 344.419C31.4252 345.079 32.1685 345.403 33.0285 345.389" stroke="#DC8A91" stroke-width="2"/>
<path d="M42.5773 333.039L33.0273 345.389" stroke="#5D0A12" stroke-width="2"/>
<path d="M275.949 276.051L276.039 290.031C276.039 290.091 276.027 290.151 276.004 290.207C275.98 290.263 275.947 290.313 275.904 290.356C275.861 290.399 275.81 290.433 275.755 290.456C275.699 290.479 275.639 290.491 275.579 290.491L13.7686 290.501C13.6466 290.501 13.5296 290.452 13.4433 290.366C13.3571 290.28 13.3086 290.163 13.3086 290.041V27.7907C13.3086 27.7303 13.3205 27.6705 13.3436 27.6147C13.3667 27.5589 13.4006 27.5081 13.4433 27.4654C13.486 27.4227 13.5367 27.3888 13.5926 27.3657C13.6484 27.3426 13.7082 27.3307 13.7686 27.3307L20.2786 27.3507C20.4006 27.3507 20.5176 27.3022 20.6039 27.216C20.6901 27.1297 20.7386 27.0127 20.7386 26.8907L20.7186 12.9407C20.7186 12.8187 20.7671 12.7017 20.8533 12.6154C20.9396 12.5292 21.0566 12.4807 21.1786 12.4807L282.969 12.4707C283.091 12.4707 283.208 12.5192 283.294 12.6054C283.38 12.6917 283.429 12.8087 283.429 12.9307V275.161C283.429 275.283 283.38 275.4 283.294 275.486C283.208 275.572 283.091 275.621 282.969 275.621L276.419 275.581C276.357 275.579 276.295 275.591 276.237 275.614C276.179 275.637 276.127 275.671 276.083 275.715C276.039 275.759 276.005 275.812 275.982 275.869C275.958 275.927 275.947 275.989 275.949 276.051ZM58.2586 211.961L22.8586 254.041C22.4986 254.467 22.3153 254.961 22.3086 255.521L22.2586 273.761C22.2586 273.861 22.2986 273.958 22.3699 274.029C22.4412 274.101 22.5378 274.141 22.6386 274.141L33.9686 274.181C34.0753 274.161 34.1786 274.144 34.2786 274.131L83.1586 274.201C83.4919 274.201 83.7686 274.074 83.9886 273.821L101.509 253.221C108.529 256.934 114.652 259.561 119.879 261.101C144.805 268.447 168.822 267.304 191.929 257.671C230.839 241.451 256.319 203.721 262.049 162.751C267.499 123.821 254.959 83.7707 227.529 56.1307C197.019 25.3807 151.669 14.7307 111.289 31.7507C69.2086 49.4907 42.5886 91.0407 39.7586 136.251C38.0586 163.477 44.2253 188.714 58.2586 211.961Z" fill="black"/>
<path d="M101.512 253.219L85.4517 242.799C85.1717 242.613 84.9217 242.649 84.7017 242.909L59.4217 272.829C59.0835 273.233 58.6602 273.558 58.1816 273.781C57.703 274.004 57.1808 274.119 56.6517 274.119L34.2817 274.129C34.1817 274.143 34.0784 274.159 33.9717 274.179L32.9317 274.039C32.872 274.031 32.8154 274.008 32.7678 273.971C32.7203 273.934 32.6834 273.885 32.661 273.829C32.6387 273.773 32.6315 273.712 32.6404 273.652C32.6494 273.593 32.6739 273.536 32.7117 273.489L70.3617 228.849C70.4343 228.764 70.4741 228.656 70.4741 228.544C70.4741 228.433 70.4343 228.324 70.3617 228.239C65.935 223.199 61.9017 217.773 58.2617 211.959C44.2284 188.713 38.0617 163.476 39.7617 136.249C42.5917 91.0394 69.2117 49.4894 111.292 31.7494C151.672 14.7294 197.022 25.3794 227.532 56.1294C254.962 83.7694 267.502 123.819 262.052 162.749C256.322 203.719 230.842 241.449 191.932 257.669C168.825 267.303 144.808 268.446 119.882 261.099C114.655 259.559 108.532 256.933 101.512 253.219ZM95.2817 166.289C97.4417 172.763 100.838 179.239 105.472 185.719C105.798 186.173 106.138 186.186 106.492 185.759L185.272 92.2894C185.289 92.2683 185.301 92.2442 185.309 92.2185C185.316 92.1928 185.319 92.1661 185.316 92.1399C185.313 92.1137 185.305 92.0887 185.292 92.0662C185.28 92.0438 185.262 92.0245 185.242 92.0094C179.575 87.5427 173.278 84.3894 166.352 82.5494C135.562 74.0994 105.132 93.0194 95.5317 122.969C93.345 129.809 92.1384 136.149 91.9117 141.989C91.6184 149.683 92.7417 157.783 95.2817 166.289ZM139.632 207.809C157.132 211.163 172.412 207.709 185.472 197.449C197.865 187.716 205.765 175.109 209.172 159.629C211.565 148.709 211.278 137.623 208.312 126.369C206.585 119.823 203.692 113.439 199.632 107.219C199.592 107.159 199.539 107.109 199.477 107.073C199.415 107.036 199.346 107.015 199.275 107.01C199.204 107.005 199.133 107.017 199.069 107.045C199.004 107.072 198.947 107.115 198.902 107.169L120.932 199.699C120.913 199.72 120.899 199.744 120.89 199.771C120.882 199.798 120.88 199.826 120.883 199.854C120.887 199.881 120.897 199.908 120.912 199.931C120.928 199.955 120.948 199.975 120.972 199.989C126.798 203.849 133.018 206.456 139.632 207.809Z" fill="white"/>
<path d="M710.461 186.091L589.251 186.081C589.193 186.081 589.135 186.095 589.083 186.12C589.03 186.145 588.984 186.181 588.947 186.225C588.91 186.27 588.883 186.322 588.868 186.379C588.853 186.435 588.851 186.494 588.861 186.551L591.301 200.931C593.971 212.941 602.341 224.621 614.661 227.441C624.951 229.801 636.231 226.541 643.351 219.211C645.871 216.624 648.284 213.518 650.591 209.891C650.804 209.551 651.111 209.404 651.511 209.451L714.161 216.581C714.199 216.585 714.235 216.598 714.266 216.62C714.298 216.641 714.324 216.669 714.343 216.702C714.361 216.735 714.372 216.773 714.373 216.811C714.375 216.849 714.367 216.886 714.351 216.921L706.881 231.201C706.267 231.981 705.017 233.878 703.131 236.891C699.184 243.184 694.031 249.254 687.671 255.101C674.731 266.991 658.191 272.121 641.101 274.081C624.701 275.961 609.237 275.648 594.711 273.141C578.741 270.381 564.551 263.811 553.361 251.871C526.751 223.491 520.081 183.781 524.661 145.631C525.961 134.831 528.431 124.794 532.071 115.521C536.164 105.248 541.544 96.0742 548.211 88.0009C563.531 69.4809 584.731 59.4309 608.631 57.7509C626.931 56.4709 647.381 58.0009 664.201 65.1109C689.671 75.8809 705.601 99.3609 712.381 126.051C717.301 145.411 718.241 165.211 718.011 185.481C718.004 185.834 717.824 186.011 717.471 186.011L710.461 186.091ZM592.091 129.941C590.397 135.574 589.354 141.491 588.961 147.691C588.947 147.891 589.041 147.991 589.241 147.991L642.911 147.951L652.041 147.911C652.104 147.911 652.166 147.898 652.224 147.873C652.282 147.848 652.334 147.812 652.377 147.766C652.42 147.72 652.454 147.665 652.475 147.606C652.496 147.547 652.505 147.484 652.501 147.421C651.241 130.701 646.441 108.861 626.551 105.221C615.541 103.211 605.721 107.131 598.971 116.211C595.764 120.518 593.471 125.094 592.091 129.941Z" fill="#003063"/>
<path d="M491.151 275.61L432.981 275.54C432.647 275.54 432.481 275.373 432.481 275.04C432.347 235.473 432.324 196.33 432.411 157.61C432.451 143.82 430.091 123.6 411.941 122.27C397.941 121.24 389.291 131.36 386.081 144.1C384.187 152.193 383.237 161.243 383.231 171.25C383.224 205.81 383.224 240.38 383.231 274.96C383.231 275.3 383.061 275.473 382.721 275.48L375.811 275.62L317.701 275.55C317.514 275.55 317.421 275.457 317.421 275.27L317.391 77.7999L317.431 63.6899C317.431 63.2965 317.627 63.0999 318.021 63.0999L377.971 63.0899C378.391 63.0899 378.601 63.2999 378.601 63.7199L378.571 96.6999C378.571 97.5932 378.807 97.6599 379.281 96.8999C386.071 85.9899 395.151 75.0699 405.361 68.0399C411.187 64.0199 417.844 61.2432 425.331 59.7099C437.971 57.1199 452.841 57.5899 464.461 63.0999C493.551 76.8699 498.591 111.85 498.561 140.5C498.507 183.013 498.501 227.927 498.541 275.24C498.541 275.341 498.502 275.437 498.432 275.509C498.363 275.58 498.269 275.62 498.171 275.62L491.151 275.61Z" fill="#003063"/>
<path d="M317.391 77.8008L317.421 275.271C317.421 275.457 317.514 275.551 317.701 275.551L375.811 275.621V289.701C375.811 290.234 375.544 290.501 375.011 290.501H310.201C310.114 290.501 310.03 290.466 309.968 290.404C309.906 290.342 309.871 290.258 309.871 290.171V78.4908C309.871 78.1708 310.031 78.0074 310.351 78.0008L317.391 77.8008Z" fill="black"/>
<path d="M166.349 82.5506C166.709 83.1772 166.469 83.8772 165.629 84.6506C165.056 85.1706 164.522 85.7206 164.029 86.3006C141.582 112.827 119.112 139.441 96.6188 166.141C96.4722 166.314 96.2888 166.404 96.0688 166.411C95.8488 166.424 95.5855 166.384 95.2788 166.291C92.7388 157.784 91.6155 149.684 91.9088 141.991C92.1355 136.151 93.3422 129.811 95.5288 122.971C105.129 93.0206 135.559 74.1006 166.349 82.5506Z" fill="black"/>
<path d="M166.351 82.5508C173.278 84.3908 179.575 87.5441 185.241 92.0108C185.262 92.0259 185.279 92.0452 185.292 92.0677C185.305 92.0901 185.313 92.1152 185.316 92.1413C185.318 92.1675 185.316 92.1942 185.308 92.2199C185.301 92.2456 185.288 92.2697 185.271 92.2908L106.491 185.761C106.138 186.187 105.798 186.174 105.471 185.721C100.838 179.241 97.4413 172.764 95.2812 166.291C95.5879 166.384 95.8513 166.424 96.0713 166.411C96.2913 166.404 96.4746 166.314 96.6213 166.141C119.115 139.441 141.585 112.827 164.031 86.3008C164.525 85.7208 165.058 85.1708 165.631 84.6508C166.471 83.8774 166.711 83.1774 166.351 82.5508Z" fill="#00517B"/>
<path d="M642.91 147.95C639.5 131.12 629.1 117.82 610.48 119.79C602.83 120.59 597.03 124.23 592.09 129.94C593.47 125.093 595.763 120.517 598.97 116.21C605.72 107.13 615.54 103.21 626.55 105.22C646.44 108.86 651.24 130.7 652.5 147.42C652.504 147.483 652.495 147.546 652.474 147.605C652.453 147.664 652.419 147.719 652.376 147.765C652.333 147.811 652.281 147.847 652.223 147.872C652.165 147.897 652.103 147.91 652.04 147.91L642.91 147.95Z" fill="black"/>
<path d="M208.309 126.37L139.629 207.81C133.016 206.457 126.796 203.85 120.969 199.99C120.945 199.975 120.925 199.956 120.91 199.932C120.894 199.909 120.885 199.882 120.881 199.855C120.877 199.827 120.879 199.799 120.888 199.772C120.896 199.745 120.91 199.721 120.929 199.7L198.899 107.17C198.944 107.116 199.001 107.073 199.066 107.046C199.131 107.018 199.201 107.006 199.272 107.011C199.343 107.016 199.413 107.037 199.475 107.074C199.536 107.11 199.589 107.16 199.629 107.22C203.689 113.44 206.582 119.823 208.309 126.37Z" fill="#B91423"/>
<path d="M532.071 115.52C528.431 124.793 525.961 134.83 524.661 145.63C520.081 183.78 526.751 223.49 553.361 251.87C564.551 263.81 578.741 270.38 594.711 273.14C609.237 275.646 624.701 275.96 641.101 274.08C658.191 272.12 674.731 266.99 687.671 255.1C694.031 249.253 699.184 243.183 703.131 236.89C705.017 233.876 706.267 231.98 706.881 231.2C704.254 237.48 700.597 244.223 695.911 251.43C690.631 259.543 684.461 266.506 677.401 272.32C666.681 281.15 653.431 285.83 639.821 288C620.651 291.05 599.351 291.18 580.181 286.47C560.551 281.65 546.161 270.1 535.211 253.18C526.931 240.4 521.511 226.57 518.651 211.49C514.537 189.816 514.907 168.073 519.761 146.26C522.194 135.32 526.297 125.073 532.071 115.52Z" fill="black"/>
<path d="M491.148 275.609V289.91C491.148 290.303 490.951 290.499 490.558 290.499H425.228C425.146 290.499 425.067 290.467 425.009 290.409C424.951 290.351 424.918 290.272 424.918 290.189C424.978 250.063 424.971 210.046 424.898 170.139C424.885 161.599 423.541 154.369 420.868 148.449C417.648 141.329 411.158 137.329 403.298 136.989C396.791 136.703 391.051 139.073 386.078 144.099C389.288 131.359 397.938 121.239 411.938 122.269C430.088 123.599 432.448 143.819 432.408 157.609C432.321 196.329 432.345 235.473 432.478 275.04C432.478 275.373 432.645 275.54 432.978 275.54L491.148 275.609Z" fill="black"/>
<path d="M208.309 126.369C211.276 137.622 211.562 148.709 209.169 159.629C205.762 175.109 197.862 187.716 185.469 197.449C172.409 207.709 157.129 211.162 139.629 207.809L208.309 126.369Z" fill="black"/>
<path d="M710.462 186.09L710.392 200.37C710.392 200.71 710.222 200.88 709.882 200.88L591.302 200.93L588.862 186.55C588.851 186.493 588.854 186.434 588.869 186.378C588.884 186.322 588.911 186.269 588.948 186.225C588.985 186.18 589.031 186.144 589.084 186.119C589.136 186.094 589.194 186.081 589.252 186.08L710.462 186.09Z" fill="black"/>
<path d="M58.2617 211.961C61.9017 217.774 65.9351 223.201 70.3617 228.241C70.4343 228.326 70.4741 228.434 70.4741 228.546C70.4741 228.658 70.4343 228.766 70.3617 228.851L32.7117 273.491C32.674 273.538 32.6494 273.594 32.6405 273.654C32.6316 273.713 32.6387 273.774 32.6611 273.83C32.6834 273.886 32.7203 273.935 32.7679 273.972C32.8154 274.009 32.872 274.033 32.9317 274.041L33.9717 274.181L22.6417 274.141C22.5409 274.141 22.4443 274.101 22.373 274.03C22.3018 273.958 22.2617 273.862 22.2617 273.761L22.3117 255.521C22.3184 254.961 22.5017 254.468 22.8617 254.041L58.2617 211.961Z" fill="#00517B"/>
<path d="M101.511 253.221L83.9912 273.821C83.7712 274.074 83.4946 274.201 83.1613 274.201L34.2812 274.131L56.6513 274.121C57.1803 274.121 57.7026 274.005 58.1812 273.782C58.6598 273.559 59.0831 273.235 59.4212 272.831L84.7012 242.911C84.9212 242.651 85.1712 242.614 85.4512 242.801L101.511 253.221Z" fill="#B91423"/>
<path d="M25.1788 355.6C25.9654 354.313 26.9054 353.283 27.9988 352.51C35.8288 356.55 43.8888 353.04 47.8588 345.86C52.3388 337.75 50.8188 326.52 43.5388 320.8C39.6921 317.78 35.8454 316.77 31.9988 317.77C27.7254 318.883 24.5154 321.157 22.3688 324.59C18.3954 330.943 17.9954 337.77 21.1688 345.07C20.8754 347.31 19.3087 349.787 16.4688 352.5L16.5288 316.26C16.5288 315.92 16.6988 315.75 17.0388 315.75L52.4987 315.76C52.9987 315.76 53.2487 316.007 53.2487 316.5L53.2688 355.24C53.2688 355.473 53.1521 355.59 52.9187 355.59L25.1788 355.6Z" fill="black"/>
<path d="M28.001 352.51L25.901 351.13C25.601 350.936 25.341 350.98 25.121 351.26L21.711 355.5L18.471 355.54C18.331 355.226 18.3577 354.96 18.551 354.74C20.1177 352.92 21.641 351.036 23.121 349.09C23.3277 348.823 23.341 348.546 23.161 348.26L21.171 345.07C17.9977 337.77 18.3977 330.943 22.371 324.59C24.5177 321.156 27.7277 318.883 32.001 317.77C35.8477 316.77 39.6943 317.78 43.541 320.8C50.821 326.52 52.341 337.75 47.861 345.86C43.891 353.04 35.831 356.55 28.001 352.51ZM33.261 326.22C27.7143 328.28 25.5743 332.573 26.841 339.1C26.8343 339.7 27.2477 340.593 28.081 341.78C28.1186 341.833 28.1683 341.877 28.2261 341.907C28.284 341.937 28.3485 341.954 28.4145 341.955C28.4805 341.956 28.5462 341.941 28.6063 341.913C28.6664 341.884 28.7194 341.842 28.761 341.79L39.331 328.24C39.471 328.053 39.4543 327.883 39.281 327.73C37.621 326.256 35.6143 325.753 33.261 326.22ZM33.031 345.39C34.8243 345.843 36.231 345.796 37.251 345.25C42.0243 342.703 43.801 338.633 42.581 333.04C42.5143 332.293 42.2743 331.533 41.861 330.76C41.8198 330.683 41.7602 330.618 41.6875 330.571C41.6149 330.524 41.5315 330.495 41.445 330.488C41.3586 330.481 41.2717 330.496 41.1924 330.531C41.1131 330.566 41.0439 330.621 40.991 330.69L30.771 343.77C30.591 343.996 30.601 344.213 30.801 344.42C31.4277 345.08 32.171 345.403 33.031 345.39Z" fill="white"/>
<path d="M601.169 321.45L595.359 328.15C595.328 328.186 595.29 328.214 595.247 328.233C595.203 328.252 595.157 328.261 595.109 328.26L591.839 328.28C591.785 328.281 591.732 328.269 591.684 328.244C591.636 328.219 591.595 328.183 591.565 328.138C591.536 328.093 591.517 328.041 591.513 327.987C591.508 327.933 591.517 327.879 591.539 327.83L594.429 321.16C594.454 321.104 594.495 321.056 594.546 321.022C594.598 320.989 594.658 320.97 594.719 320.97L600.919 320.92C600.981 320.918 601.043 320.935 601.096 320.967C601.149 321 601.191 321.047 601.217 321.103C601.244 321.16 601.254 321.222 601.245 321.284C601.236 321.345 601.21 321.403 601.169 321.45Z" fill="black"/>
<path d="M64.8998 336.77L62.6798 336.7C62.5436 336.695 62.4149 336.637 62.3214 336.538C62.2279 336.438 62.1771 336.307 62.1798 336.17L62.2698 332.09C62.2831 331.677 62.4965 331.474 62.9098 331.48L64.7898 331.52C64.8917 331.523 64.993 331.505 65.0874 331.466C65.1818 331.427 65.267 331.368 65.3377 331.294C65.4083 331.22 65.4628 331.131 65.4976 331.034C65.5324 330.937 65.5468 330.833 65.5398 330.73C64.8598 322.32 69.9298 319.71 77.5398 321.72C78.0265 321.854 78.2331 322.17 78.1598 322.67L77.6698 325.98C77.6541 326.092 77.6146 326.2 77.5539 326.295C77.4932 326.39 77.4128 326.472 77.318 326.533C77.2232 326.595 77.1162 326.635 77.0044 326.652C76.8926 326.669 76.7785 326.662 76.6698 326.63C73.1631 325.657 71.5531 326.947 71.8398 330.5C71.8602 330.776 71.9857 331.034 72.1904 331.22C72.395 331.406 72.6633 331.506 72.9398 331.5L76.0598 331.47C76.4598 331.464 76.6598 331.66 76.6598 332.06L76.6498 335.82C76.6498 336.64 76.2431 337.027 75.4298 336.98L72.5398 336.82C72.0865 336.794 71.8631 337.004 71.8698 337.45L71.9298 356.52C71.9298 356.987 71.6965 357.22 71.2298 357.22H66.2098C65.7831 357.22 65.5665 357.004 65.5598 356.57L65.5198 337.4C65.5198 336.987 65.3131 336.777 64.8998 336.77Z" fill="black"/>
<path d="M85.6507 321.742L80.8708 321.759C80.4179 321.76 80.0521 322.129 80.0536 322.582L80.07 327.262C80.0716 327.715 80.44 328.08 80.8928 328.079L85.6728 328.062C86.1257 328.061 86.4915 327.692 86.4899 327.239L86.4736 322.559C86.472 322.106 86.1036 321.741 85.6507 321.742Z" fill="black"/>
<path d="M123.985 321.766L119.025 321.774C118.655 321.775 118.356 322.075 118.357 322.445L118.365 327.405C118.366 327.775 118.666 328.075 119.036 328.074L123.996 328.066C124.366 328.065 124.666 327.764 124.665 327.394L124.657 322.434C124.656 322.064 124.355 321.765 123.985 321.766Z" fill="black"/>
<path d="M285.795 321.737L280.535 321.765C280.22 321.766 279.966 322.023 279.968 322.338L279.995 327.537C279.997 327.852 280.253 328.106 280.568 328.105L285.828 328.077C286.143 328.075 286.397 327.819 286.395 327.504L286.368 322.304C286.366 321.989 286.11 321.735 285.795 321.737Z" fill="black"/>
<path d="M380.002 321.77H374.782C374.495 321.77 374.262 322.002 374.262 322.29V356.73C374.262 357.017 374.495 357.25 374.782 357.25H380.002C380.289 357.25 380.522 357.017 380.522 356.73V322.29C380.522 322.002 380.289 321.77 380.002 321.77Z" fill="black"/>
<path d="M414.471 354.2C413.301 355.15 412.451 356.36 411.031 356.98C407.484 358.533 404.264 357.973 401.371 355.3C396.721 351.02 396.721 342.46 398.751 337.2C401.191 330.89 408.991 328.49 413.831 333.96C414.278 334.467 414.501 334.38 414.501 333.7L414.471 322.27C414.47 322.204 414.482 322.137 414.507 322.076C414.532 322.014 414.569 321.958 414.617 321.91C414.664 321.863 414.721 321.825 414.783 321.799C414.846 321.773 414.913 321.76 414.981 321.76L420.231 321.75C420.295 321.75 420.359 321.762 420.419 321.787C420.478 321.811 420.532 321.846 420.577 321.891C420.623 321.935 420.659 321.988 420.684 322.046C420.708 322.105 420.721 322.167 420.721 322.23V356.51C420.721 357.003 420.478 357.247 419.991 357.24L415.481 357.23C414.974 357.23 414.751 356.977 414.811 356.47L415.061 354.54C415.134 353.933 414.938 353.82 414.471 354.2ZM409.182 352.65C409.889 352.652 410.589 352.44 411.243 352.025C411.897 351.611 412.492 351.001 412.995 350.232C413.497 349.463 413.896 348.55 414.17 347.544C414.444 346.538 414.587 345.459 414.591 344.369C414.599 342.168 414.039 340.054 413.036 338.494C412.032 336.934 410.667 336.055 409.24 336.05C408.534 336.048 407.833 336.26 407.179 336.675C406.525 337.09 405.93 337.699 405.427 338.468C404.925 339.237 404.526 340.15 404.252 341.156C403.978 342.162 403.835 343.241 403.831 344.331C403.823 346.532 404.383 348.646 405.386 350.206C406.39 351.766 407.755 352.645 409.182 352.65Z" fill="black"/>
<path d="M580.062 333.82L579.922 322.18C579.922 322.074 579.964 321.972 580.039 321.897C580.114 321.822 580.216 321.78 580.322 321.78L586.022 321.74C586.209 321.74 586.302 321.834 586.302 322.02V356.47C586.302 356.984 586.045 357.24 585.532 357.24L581.382 357.25C580.795 357.25 580.502 356.96 580.502 356.38V354.3C580.502 353.62 580.295 353.554 579.882 354.1C577.589 357.147 574.715 358.324 571.262 357.63C566.462 356.67 563.792 351.97 563.252 347.32C562.522 341.1 563.702 333.53 570.342 331.38C573.762 330.267 576.829 331.154 579.542 334.04C579.895 334.42 580.069 334.347 580.062 333.82ZM574.737 352.65C575.444 352.651 576.144 352.438 576.797 352.022C577.451 351.606 578.045 350.996 578.546 350.226C579.047 349.456 579.445 348.542 579.717 347.535C579.989 346.529 580.13 345.45 580.132 344.36C580.134 343.27 579.997 342.19 579.728 341.183C579.459 340.175 579.065 339.26 578.566 338.488C578.068 337.716 577.476 337.104 576.824 336.686C576.172 336.267 575.473 336.051 574.766 336.05C574.06 336.049 573.36 336.262 572.706 336.678C572.053 337.094 571.459 337.705 570.958 338.475C570.457 339.244 570.059 340.159 569.787 341.165C569.515 342.172 569.374 343.251 569.372 344.341C569.37 345.431 569.507 346.51 569.776 347.518C570.045 348.525 570.439 349.441 570.937 350.213C571.436 350.984 572.028 351.597 572.68 352.015C573.332 352.433 574.031 352.649 574.737 352.65Z" fill="black"/>
<path d="M651.712 321.77H646.472C646.168 321.77 645.922 322.016 645.922 322.32V327.52C645.922 327.823 646.168 328.07 646.472 328.07H651.712C652.016 328.07 652.262 327.823 652.262 327.52V322.32C652.262 322.016 652.016 321.77 651.712 321.77Z" fill="black"/>
<path d="M524 330.84L523.859 327.4C523.85 327.12 523.913 326.843 524.043 326.595C524.173 326.348 524.365 326.139 524.599 325.99L529.549 322.83C530.043 322.516 530.286 322.653 530.28 323.24L530.25 330.76C530.249 330.86 530.27 330.959 530.308 331.051C530.347 331.144 530.404 331.227 530.476 331.297C530.548 331.367 530.633 331.422 530.726 331.458C530.82 331.495 530.919 331.512 531.02 331.51L533.729 331.45C534.263 331.443 534.53 331.706 534.53 332.24L534.539 336.27C534.539 336.81 534.269 337.06 533.729 337.02L530.94 336.83C530.858 336.823 530.775 336.833 530.697 336.86C530.619 336.887 530.547 336.93 530.487 336.986C530.426 337.043 530.377 337.111 530.343 337.187C530.309 337.263 530.291 337.346 530.289 337.43C530.256 341.61 530.253 345.913 530.28 350.34C530.29 351.97 531.82 352.71 533.18 351.98C533.4 351.86 533.633 351.773 533.88 351.72C534.28 351.64 534.506 351.8 534.56 352.2L535.06 356.21C535.085 356.398 535.044 356.588 534.944 356.749C534.843 356.91 534.69 357.031 534.51 357.09C531.55 358.09 526.15 358.52 524.76 354.98C524.166 353.473 523.87 351.683 523.87 349.61C523.87 345.236 523.903 341.233 523.969 337.6C523.971 337.507 523.953 337.416 523.918 337.331C523.882 337.245 523.83 337.168 523.763 337.105C523.696 337.041 523.617 336.991 523.531 336.96C523.444 336.928 523.352 336.914 523.26 336.92L521.78 336.99C521.286 337.01 521.039 336.773 521.039 336.28L521.02 332.13C521.02 331.723 521.22 331.516 521.62 331.51L523.409 331.47C523.816 331.456 524.013 331.246 524 330.84Z" fill="black"/>
<path d="M630.81 330.951L630.96 328.001C631.02 326.867 631.526 325.994 632.479 325.381L635.96 323.141C637.02 322.454 637.53 322.741 637.49 324.001L637.31 330.361C637.306 330.502 637.33 330.643 637.38 330.775C637.431 330.907 637.507 331.027 637.605 331.13C637.703 331.232 637.82 331.314 637.949 331.371C638.079 331.427 638.218 331.458 638.359 331.461L640.78 331.521C641.273 331.534 641.52 331.787 641.52 332.281L641.49 336.291C641.49 336.389 641.47 336.487 641.43 336.577C641.39 336.667 641.332 336.748 641.258 336.815C641.185 336.882 641.098 336.933 641.004 336.965C640.909 336.997 640.809 337.009 640.71 337.001L638.13 336.791C638.015 336.781 637.899 336.795 637.79 336.833C637.681 336.87 637.581 336.929 637.497 337.008C637.412 337.086 637.345 337.18 637.299 337.286C637.253 337.392 637.229 337.506 637.229 337.621L637.27 350.551C637.271 350.801 637.329 351.048 637.438 351.273C637.547 351.498 637.704 351.696 637.899 351.852C638.093 352.008 638.32 352.119 638.562 352.176C638.805 352.233 639.057 352.234 639.299 352.181L640.87 351.831C640.95 351.813 641.033 351.813 641.114 351.83C641.194 351.847 641.271 351.88 641.338 351.928C641.404 351.976 641.46 352.038 641.502 352.109C641.544 352.18 641.57 352.259 641.58 352.341L642.039 356.261C642.059 356.432 642.021 356.606 641.931 356.754C641.84 356.903 641.703 357.017 641.539 357.081C637.059 358.761 631.21 358.131 631.03 351.951C630.883 346.851 630.856 342.071 630.95 337.611C630.956 337.144 630.726 336.917 630.26 336.931L628.88 336.971C628.768 336.973 628.656 336.954 628.552 336.913C628.448 336.872 628.353 336.81 628.273 336.732C628.192 336.654 628.129 336.56 628.085 336.457C628.042 336.354 628.019 336.243 628.02 336.131L628.03 332.221C628.03 331.894 628.186 331.691 628.5 331.611C629.046 331.477 629.616 331.431 630.21 331.471C630.59 331.504 630.79 331.331 630.81 330.951Z" fill="black"/>
<path d="M204.45 329.769C206.123 326.949 208.083 325.242 210.33 324.649C217.66 322.739 220.88 328.789 221.03 335.189C221.19 341.903 221.23 349.359 221.15 357.559C221.15 357.839 221.013 357.979 220.74 357.979H212.16C211.827 357.979 211.66 357.813 211.66 357.479C211.667 351.406 211.66 345.089 211.64 338.529C211.633 337.169 211.23 336.023 210.43 335.089C208.92 333.339 206.2 334.449 205.48 336.369C204.793 338.216 204.473 340.452 204.52 343.079C204.613 348.026 204.617 352.843 204.53 357.529C204.523 357.843 204.367 357.999 204.06 357.999L195.74 357.979C195.676 357.979 195.612 357.966 195.552 357.942C195.493 357.917 195.439 357.881 195.394 357.836C195.348 357.79 195.312 357.736 195.287 357.677C195.263 357.617 195.25 357.554 195.25 357.489V326.229C195.25 325.376 195.673 324.949 196.52 324.949H202.6C203.807 324.949 204.287 325.539 204.04 326.719C203.84 327.713 203.77 328.679 203.83 329.619C203.877 330.339 204.083 330.389 204.45 329.769Z" fill="#003063"/>
<path d="M472.741 345.63C473.101 348.87 475.421 352.99 479.281 351C480.291 350.49 480.731 349.69 481.441 348.88C481.53 348.779 481.643 348.701 481.771 348.654C481.898 348.607 482.035 348.592 482.171 348.61L490.241 349.65C490.421 349.67 490.477 349.767 490.411 349.94C487.964 356.333 483.017 359.22 475.571 358.6C470.361 358.16 466.651 355.22 465.021 350.5C462.561 343.34 462.961 336.923 466.221 331.25C468.434 327.403 471.914 325.42 476.661 325.3C488.481 324.99 491.361 334.87 491.061 344.53C491.055 344.678 490.992 344.818 490.884 344.92C490.776 345.023 490.631 345.08 490.481 345.08L473.271 345.04C472.877 345.04 472.701 345.237 472.741 345.63ZM473.091 339.19L481.511 339.21C481.565 339.21 481.617 339.189 481.656 339.152C481.695 339.115 481.718 339.064 481.721 339.01V338.7C481.724 337.893 481.616 337.094 481.402 336.347C481.189 335.601 480.875 334.922 480.477 334.35C480.08 333.778 479.607 333.324 479.086 333.013C478.565 332.703 478.006 332.542 477.441 332.54H477.201C476.061 332.537 474.966 333.179 474.156 334.327C473.346 335.474 472.887 337.033 472.881 338.66V338.97C472.879 338.998 472.884 339.027 472.894 339.054C472.904 339.08 472.919 339.105 472.938 339.125C472.958 339.146 472.982 339.162 473.008 339.173C473.034 339.184 473.062 339.19 473.091 339.19Z" fill="#003063"/>
<path d="M26.8399 339.099L36.1799 327.589C36.3999 327.316 36.3766 327.059 36.1099 326.819C35.5099 326.286 34.5599 326.086 33.2599 326.219C35.6133 325.752 37.6199 326.256 39.2799 327.729C39.4533 327.883 39.4699 328.052 39.3299 328.239L28.7599 341.789C28.7183 341.841 28.6654 341.883 28.6052 341.912C28.5451 341.941 28.4794 341.955 28.4134 341.954C28.3474 341.953 28.2829 341.937 28.2251 341.907C28.1672 341.876 28.1175 341.833 28.0799 341.779C27.2466 340.592 26.8333 339.699 26.8399 339.099Z" fill="#00517B"/>
<path d="M33.2615 326.22C34.5615 326.086 35.5115 326.286 36.1115 326.82C36.3782 327.06 36.4015 327.316 36.1815 327.59L26.8415 339.1C25.5748 332.573 27.7148 328.28 33.2615 326.22Z" fill="black"/>
<path d="M42.5785 333.039L33.0285 345.389C32.1685 345.403 31.4252 345.079 30.7985 344.419C30.5985 344.213 30.5885 343.996 30.7685 343.769L40.9885 330.689C41.0414 330.621 41.1106 330.566 41.1899 330.531C41.2692 330.496 41.3561 330.481 41.4425 330.488C41.529 330.495 41.6124 330.523 41.685 330.571C41.7577 330.618 41.8173 330.683 41.8585 330.759C42.2719 331.533 42.5119 332.293 42.5785 333.039Z" fill="#B91423"/>
<path d="M98.3003 347.68C99.1303 353 106.21 354.42 107.4 348.57C107.574 347.703 108.094 347.357 108.96 347.53L112.58 348.27C113.514 348.457 113.847 349.007 113.58 349.92C112.267 354.38 109.504 356.95 105.29 357.63C93.7003 359.52 89.3103 348.13 92.2703 338.9C94.1236 333.113 98.2403 330.49 104.62 331.03C108.834 331.383 111.71 333.743 113.25 338.11C113.49 338.79 113.257 339.2 112.55 339.34L108.55 340.12C107.73 340.28 107.214 339.957 107 339.15C105.75 334.3 98.8603 336.24 98.2403 340.81C97.9203 343.123 97.9403 345.413 98.3003 347.68Z" fill="black"/>
<path d="M137.301 334.71C142.251 328.35 152.421 330.06 152.611 338.95C152.718 344.19 152.738 350.087 152.671 356.64C152.664 357.047 152.458 357.25 152.051 357.25H146.971C146.618 357.25 146.441 357.07 146.441 356.71C146.474 351.617 146.464 346.367 146.411 340.96C146.351 334.95 139.911 334.84 137.771 339.5C137.451 340.207 137.291 341.957 137.291 344.75C137.291 348.75 137.291 352.82 137.291 356.96C137.291 357.153 137.194 357.25 137.001 357.25L131.221 357.24C131.152 357.24 131.086 357.213 131.037 357.164C130.988 357.115 130.961 357.049 130.961 356.98V332.26C130.961 331.74 131.221 331.48 131.741 331.48L136.221 331.49C136.821 331.49 137.048 331.78 136.901 332.36C136.714 333.087 136.661 333.817 136.741 334.55C136.801 335.063 136.988 335.117 137.301 334.71Z" fill="black"/>
<path d="M172.82 355.01C172.785 354.939 172.733 354.876 172.669 354.829C172.605 354.782 172.53 354.751 172.451 354.739C172.373 354.728 172.292 354.735 172.217 354.761C172.142 354.788 172.074 354.832 172.02 354.89C168.77 358.42 162.48 359.16 159.11 355.18C156.28 351.83 157.03 346.34 160.67 344.1C163.85 342.14 168.14 341.94 171.74 340.65C172.08 340.53 172.253 340.294 172.26 339.94C172.306 337.62 171.126 336.377 168.72 336.21C166.073 336.024 164.466 336.994 163.9 339.12C163.88 339.18 163.84 339.217 163.78 339.23C163.193 339.37 161.35 339.05 158.25 338.27C158.123 338.237 158.076 338.157 158.11 338.03C159.33 333.544 162.376 331.177 167.25 330.93C172.48 330.67 178.16 331.9 178.29 338.25C178.37 342.037 178.36 345.964 178.26 350.03C178.206 352.45 178.633 354.68 179.54 356.72C179.7 357.074 179.583 357.25 179.19 357.25L174 357.24C173.807 357.241 173.621 357.17 173.479 357.04C173.336 356.911 173.247 356.732 173.23 356.54C173.183 356.007 173.046 355.497 172.82 355.01ZM167.98 352.99C172.32 351.95 171.86 349.3 172.26 345.72C172.32 345.187 172.093 345 171.58 345.16C170.033 345.634 168.406 346.044 166.7 346.39C161.57 347.44 163.71 354.01 167.98 352.99Z" fill="black"/>
<path d="M242.86 355.11C242.836 355.02 242.788 354.938 242.722 354.873C242.656 354.808 242.573 354.762 242.483 354.74C242.394 354.718 242.3 354.722 242.213 354.75C242.126 354.778 242.049 354.83 241.99 354.9C237.44 360.02 227.56 358.43 227.42 350.49C227.26 342.19 236.24 342.61 241.71 340.66C242.063 340.533 242.24 340.283 242.24 339.91C242.26 337.35 240.827 336.106 237.94 336.18C235.74 336.24 234.357 337.25 233.79 339.21C233.737 339.376 233.623 339.443 233.45 339.41L228.27 338.32C228.117 338.286 228.06 338.193 228.1 338.04C229.187 334.02 231.7 331.713 235.64 331.12C241.32 330.27 248.21 331.35 248.29 338.6C248.33 342.586 248.313 346.45 248.24 350.19C248.193 352.57 248.617 354.756 249.51 356.75C249.663 357.083 249.557 357.25 249.19 357.25H243.86C243.547 357.25 243.353 357.096 243.28 356.79L242.86 355.11ZM242.18 345.78C242.133 345.24 241.847 345.05 241.32 345.21C239.793 345.676 238.217 346.083 236.59 346.43C230.74 347.67 234.51 355.69 239.87 352.24C241.683 351.073 242.453 348.92 242.18 345.78Z" fill="black"/>
<path d="M265.902 336.51C258.492 335.4 258.962 345.23 260.552 349.45C261.182 351.14 263.052 352.36 264.822 352.33C267.335 352.29 268.842 350.73 269.342 347.65C269.362 347.537 269.428 347.487 269.542 347.5C272.315 347.74 274.265 348.134 275.392 348.68C275.425 348.694 275.438 348.72 275.432 348.76C274.512 353.934 271.658 356.88 266.872 357.6C256.612 359.13 252.662 351.31 253.272 342.55C253.642 337.15 256.522 332.37 261.992 331.22C267.832 329.99 272.722 332.11 274.982 338.09C275.235 338.764 275.008 339.17 274.302 339.31L270.112 340.15C269.332 340.304 268.875 339.99 268.742 339.21C268.512 337.87 267.222 336.7 265.902 336.51Z" fill="black"/>
<path d="M303.294 357.978C300.008 357.92 296.882 356.435 294.604 353.848C292.325 351.261 291.08 347.785 291.143 344.184C291.206 340.583 292.571 337.152 294.939 334.646C297.307 332.14 300.482 330.765 303.768 330.822C307.054 330.879 310.179 332.365 312.458 334.952C314.737 337.539 315.982 341.015 315.919 344.616C315.856 348.217 314.491 351.648 312.123 354.154C309.755 356.66 306.58 358.035 303.294 357.978ZM303.581 352.4C304.354 352.4 305.12 352.194 305.835 351.793C306.55 351.393 307.199 350.806 307.746 350.066C308.293 349.325 308.727 348.447 309.023 347.48C309.319 346.513 309.471 345.477 309.471 344.43C309.471 342.316 308.85 340.289 307.746 338.794C306.641 337.3 305.143 336.46 303.581 336.46C302.019 336.46 300.521 337.3 299.416 338.794C298.312 340.289 297.691 342.316 297.691 344.43C297.691 346.544 298.312 348.571 299.416 350.066C300.521 351.56 302.019 352.4 303.581 352.4Z" fill="black"/>
<path d="M326.428 334.501C326.415 335.227 326.632 335.304 327.078 334.731C329.738 331.324 333.102 330.207 337.168 331.381C340.908 332.461 342.418 335.971 342.408 339.721C342.395 345.581 342.398 351.284 342.418 356.831C342.42 356.885 342.41 356.94 342.389 356.99C342.369 357.041 342.338 357.088 342.299 357.127C342.26 357.166 342.213 357.197 342.161 357.218C342.11 357.24 342.054 357.251 341.998 357.251L336.518 357.231C336.205 357.231 336.052 357.071 336.058 356.751C336.238 351.557 336.185 345.974 335.898 340.001C335.618 334.121 327.508 335.631 327.228 340.971C326.888 347.224 326.818 352.454 327.018 356.661C327.038 357.034 326.862 357.224 326.488 357.231L321.078 357.251C320.967 357.251 320.86 357.206 320.781 357.128C320.703 357.049 320.658 356.942 320.658 356.831L320.648 332.291C320.648 331.751 320.918 331.481 321.458 331.481H325.748C325.849 331.481 325.948 331.501 326.04 331.54C326.132 331.578 326.216 331.635 326.286 331.707C326.356 331.779 326.411 331.864 326.447 331.957C326.484 332.051 326.501 332.15 326.498 332.251L326.428 334.501Z" fill="black"/>
<path d="M361.78 354.85C358.1 358.76 350.75 359.21 348.01 354C345.67 349.57 347.73 344.36 352.72 342.99C355.207 342.31 357.86 341.65 360.68 341.01C361.03 340.931 361.341 340.734 361.562 340.451C361.783 340.169 361.899 339.818 361.89 339.46C361.843 337.74 360.997 336.71 359.35 336.37C356.33 335.743 354.35 336.667 353.41 339.14C353.337 339.333 353.2 339.41 353 339.37L347.99 338.34C347.83 338.307 347.77 338.21 347.81 338.05C348.89 334.063 351.347 331.77 355.18 331.17C360.57 330.32 367.76 331.16 367.92 338.15C368 342.083 368.023 346.367 367.99 351C367.977 352.913 368.38 354.767 369.2 356.56C369.4 357.013 369.257 357.237 368.77 357.23L363.64 357.22C363.233 357.22 362.987 357.023 362.9 356.63L362.55 355.06C362.43 354.507 362.173 354.437 361.78 354.85ZM356.62 353.03C361.1 353.02 362.2 349.4 361.8 345.62C361.753 345.147 361.507 344.993 361.06 345.16C359.7 345.647 358.25 346.023 356.71 346.29C353.83 346.79 352.25 349.32 354.18 351.84C354.466 352.213 354.835 352.514 355.258 352.72C355.682 352.927 356.148 353.033 356.62 353.03Z" fill="black"/>
<path d="M431.838 348.76C432.145 349.307 432.448 349.853 432.748 350.4C433.688 352.087 435.122 352.857 437.048 352.71C438.782 352.576 439.888 351.606 440.368 349.8C440.495 349.333 440.795 349.14 441.268 349.22L446.028 349.98C446.148 350.001 446.261 350.049 446.36 350.119C446.459 350.189 446.541 350.281 446.6 350.386C446.658 350.492 446.692 350.609 446.699 350.729C446.705 350.849 446.685 350.969 446.638 351.08C445.132 354.7 442.718 356.843 439.398 357.51C427.288 359.95 422.888 348.44 425.938 338.64C429.118 328.45 442.778 328.33 446.168 338.31C446.995 340.723 447.362 343.237 447.268 345.85C447.255 346.23 447.062 346.42 446.688 346.42H433.218C431.432 346.42 430.972 347.2 431.838 348.76ZM432.008 342.24L440.608 342.22C440.705 342.217 440.796 342.177 440.863 342.108C440.931 342.039 440.968 341.946 440.968 341.85V341.64C440.965 340.208 440.486 338.836 439.637 337.825C438.787 336.814 437.637 336.248 436.438 336.25H436.138C435.545 336.251 434.957 336.392 434.409 336.664C433.861 336.937 433.363 337.336 432.945 337.838C432.526 338.34 432.194 338.936 431.968 339.592C431.742 340.248 431.627 340.951 431.628 341.66V341.87C431.628 341.919 431.638 341.968 431.657 342.014C431.676 342.059 431.705 342.101 431.74 342.135C431.775 342.17 431.817 342.197 431.864 342.215C431.91 342.233 431.959 342.241 432.008 342.24Z" fill="black"/>
<path d="M510.699 348.409C508.106 347.716 505.383 346.946 502.529 346.099C498.249 344.839 495.599 340.819 497.209 336.439C499.089 331.339 504.269 330.519 509.189 331.039C513.236 331.466 515.873 333.462 517.099 337.029C517.279 337.562 517.093 337.882 516.539 337.989L512.259 338.779C511.839 338.859 511.519 338.716 511.299 338.349C509.786 335.822 507.229 335.206 503.629 336.499C503.319 336.609 503.05 336.813 502.861 337.083C502.672 337.353 502.572 337.675 502.576 338.005C502.579 338.334 502.685 338.655 502.879 338.921C503.074 339.187 503.347 339.386 503.659 339.489C507.059 340.639 510.689 341.289 513.909 342.729C519.169 345.099 519.479 351.609 515.469 355.239C512.229 358.189 506.579 358.359 502.669 357.189C499.329 356.189 497.103 353.886 495.989 350.279C495.977 350.241 495.974 350.201 495.979 350.161C495.984 350.121 495.997 350.083 496.018 350.049C496.038 350.015 496.066 349.986 496.099 349.963C496.133 349.941 496.17 349.926 496.209 349.919L501.799 348.979C501.999 348.952 502.133 349.032 502.199 349.219C503.366 352.539 505.883 353.662 509.749 352.589C511.503 352.102 512.119 350.999 511.599 349.279C511.538 349.069 511.423 348.878 511.266 348.726C511.108 348.573 510.913 348.464 510.699 348.409Z" fill="black"/>
<path d="M551.942 354.881C549.455 357.447 546.485 358.344 543.032 357.571C535.622 355.921 535.232 345.121 542.772 343.051C545.352 342.344 548.162 341.631 551.202 340.911C551.492 340.843 551.748 340.676 551.928 340.438C552.107 340.201 552.197 339.908 552.182 339.611C552.082 337.677 551.098 336.564 549.232 336.271C546.345 335.831 544.475 336.837 543.622 339.291C543.589 339.391 543.522 339.427 543.422 339.401L538.252 338.321C538.065 338.287 537.998 338.177 538.052 337.991C539.165 333.964 541.679 331.677 545.592 331.131C551.582 330.291 558.502 331.451 558.262 339.251C558.162 342.777 558.195 347.327 558.362 352.901C558.402 354.301 559.002 355.381 559.412 356.671C559.538 357.057 559.398 357.251 558.992 357.251L554.162 357.241C553.906 357.241 553.657 357.154 553.456 356.994C553.255 356.835 553.112 356.612 553.052 356.361L552.732 355.091C552.598 354.544 552.335 354.474 551.942 354.881ZM551.402 345.161C549.269 345.701 547.302 346.257 545.502 346.831C544.202 347.237 543.565 348.151 543.592 349.571C543.692 354.501 550.612 353.741 551.682 349.881C552.009 348.681 552.168 347.304 552.162 345.751C552.162 345.658 552.14 345.567 552.099 345.483C552.059 345.4 551.999 345.327 551.926 345.27C551.853 345.213 551.767 345.174 551.677 345.155C551.586 345.136 551.492 345.138 551.402 345.161Z" fill="black"/>
<path d="M609.679 337.56C609.446 338.64 609.969 339.367 611.249 339.74C614.809 340.78 619.779 341.74 622.369 343.63C626.579 346.72 625.799 352.7 621.939 355.7C618.579 358.32 612.559 358.33 608.979 356.96C605.906 355.773 603.909 353.517 602.989 350.19C602.98 350.16 602.978 350.128 602.983 350.097C602.987 350.065 602.998 350.035 603.015 350.009C603.032 349.982 603.055 349.96 603.082 349.943C603.108 349.925 603.138 349.914 603.169 349.91L608.969 348.96C609.143 348.933 609.249 349.007 609.289 349.18C610.076 352.207 612.323 353.42 616.029 352.82C617.216 352.627 618.069 352.07 618.589 351.15C618.737 350.887 618.821 350.593 618.837 350.292C618.852 349.99 618.797 349.69 618.677 349.413C618.557 349.136 618.375 348.891 618.145 348.696C617.914 348.501 617.642 348.362 617.349 348.29C614.603 347.603 611.896 346.837 609.229 345.99C605.709 344.88 603.249 341.72 603.859 337.97C604.869 331.85 610.269 330.54 615.749 331C620.069 331.36 622.876 333.41 624.169 337.15C624.198 337.234 624.209 337.323 624.2 337.411C624.191 337.5 624.164 337.585 624.119 337.662C624.075 337.739 624.014 337.805 623.942 337.857C623.869 337.908 623.787 337.943 623.699 337.96L619.239 338.79C619.059 338.825 618.871 338.802 618.703 338.725C618.534 338.648 618.393 338.52 618.299 338.36C616.793 335.827 614.223 335.213 610.589 336.52C610.096 336.7 609.793 337.047 609.679 337.56Z" fill="black"/>
<path d="M668.782 352.32C671.389 352.347 672.952 350.777 673.472 347.61C673.499 347.437 673.599 347.367 673.772 347.4L679.432 348.48C679.619 348.513 679.689 348.623 679.642 348.81C678.275 354.63 674.889 357.623 669.482 357.79C659.132 358.1 656.232 349.19 657.642 340.6C658.592 334.84 662.792 330.97 668.762 330.93C673.935 330.897 677.372 333.273 679.072 338.06C679.319 338.747 679.085 339.16 678.372 339.3L674.202 340.13C673.495 340.27 673.055 339.99 672.882 339.29C671.652 334.31 664.792 336.11 664.042 340.76C663.442 344.5 663.342 352.26 668.782 352.32Z" fill="black"/>
<path d="M698.05 355.02C698.034 354.944 697.997 354.873 697.944 354.816C697.891 354.759 697.823 354.717 697.748 354.696C697.673 354.674 697.593 354.673 697.518 354.694C697.443 354.714 697.374 354.754 697.32 354.81C692.73 359.49 683.27 358.93 682.58 351.11C681.81 342.43 691.17 342.59 696.76 340.73C697.16 340.597 697.36 340.32 697.36 339.9C697.393 337.474 696.11 336.234 693.51 336.18C691.237 336.134 689.806 336.947 689.22 338.62C689.02 339.194 688.623 339.417 688.03 339.29L683.97 338.46C683.45 338.354 683.266 338.047 683.42 337.54C684.633 333.554 687.39 331.37 691.69 330.99C697.46 330.49 703.58 331.83 703.48 338.95C703.413 343.597 703.423 347.957 703.51 352.03C703.537 353.51 703.903 355.057 704.61 356.67C704.776 357.057 704.65 357.25 704.23 357.25L699.24 357.24C699.039 357.24 698.845 357.172 698.688 357.047C698.532 356.921 698.423 356.746 698.38 356.55L698.05 355.02ZM692.09 353.02C696.66 352.94 697.63 349.32 697.3 345.53C697.266 345.124 697.06 344.99 696.68 345.13C695.246 345.63 693.737 346.02 692.15 346.3C689.22 346.82 687.52 349.48 689.84 352.05C690.123 352.361 690.469 352.608 690.857 352.776C691.245 352.943 691.665 353.026 692.09 353.02Z" fill="black"/>
<path d="M124.021 331.391H119.001C118.664 331.391 118.391 331.664 118.391 332.001V356.641C118.391 356.978 118.664 357.251 119.001 357.251H124.021C124.358 357.251 124.631 356.978 124.631 356.641V332.001C124.631 331.664 124.358 331.391 124.021 331.391Z" fill="black"/>
<path d="M285.81 331.381H280.57C280.255 331.381 280 331.636 280 331.951V356.671C280 356.986 280.255 357.241 280.57 357.241H285.81C286.125 357.241 286.38 356.986 286.38 356.671V331.951C286.38 331.636 286.125 331.381 285.81 331.381Z" fill="black"/>
<path d="M85.8711 331.434L80.7311 331.425C80.3942 331.424 80.1206 331.697 80.12 332.034L80.0771 356.634C80.0765 356.971 80.3491 357.244 80.686 357.245L85.826 357.254C86.1629 357.254 86.4365 356.982 86.4371 356.645L86.48 332.045C86.4806 331.708 86.208 331.434 85.8711 331.434Z" fill="black"/>
<path d="M598.328 331.48H592.868C592.658 331.48 592.488 331.651 592.488 331.86V356.86C592.488 357.07 592.658 357.24 592.868 357.24H598.328C598.538 357.24 598.708 357.07 598.708 356.86V331.86C598.708 331.651 598.538 331.48 598.328 331.48Z" fill="black"/>
<path d="M651.842 331.424L646.362 331.415C646.119 331.414 645.922 331.611 645.921 331.854L645.878 356.794C645.877 357.037 646.074 357.234 646.317 357.235L651.797 357.244C652.04 357.245 652.237 357.048 652.238 356.805L652.281 331.865C652.282 331.622 652.085 331.425 651.842 331.424Z" fill="black"/>
<path d="M42.5813 333.039C43.8013 338.632 42.0246 342.702 37.2513 345.249C36.2313 345.796 34.8246 345.842 33.0312 345.389L42.5813 333.039Z" fill="black"/>
<path d="M21.1688 345.07L23.1588 348.26C23.3388 348.547 23.3254 348.824 23.1188 349.09C21.6388 351.037 20.1154 352.92 18.5487 354.74C18.3554 354.96 18.3288 355.227 18.4688 355.54C17.9554 355.694 17.4754 355.724 17.0288 355.63C16.6821 355.55 16.5088 355.334 16.5088 354.98L16.4688 352.5C19.3087 349.787 20.8754 347.31 21.1688 345.07Z" fill="#00517B"/>
<path d="M28.0009 352.51C26.9076 353.284 25.9676 354.314 25.1809 355.6L21.7109 355.5L25.1209 351.26C25.3409 350.98 25.6009 350.937 25.9009 351.13L28.0009 352.51Z" fill="#B91423"/>
</svg>
