<svg width="583" height="557" viewBox="0 0 583 557" fill="none" xmlns="http://www.w3.org/2000/svg">
<g clip-path="url(#clip0_882_578)">
<path d="M233.929 98.7957C233.798 98.6642 233.62 98.5902 233.434 98.5898C233.248 98.5895 233.07 98.6629 232.939 98.7939L195.581 136.022C195.516 136.087 195.464 136.164 195.429 136.248C195.393 136.333 195.375 136.424 195.375 136.516C195.375 136.608 195.393 136.699 195.428 136.784C195.463 136.869 195.514 136.947 195.579 137.012L264.811 206.486C264.942 206.617 265.12 206.691 265.306 206.691C265.491 206.692 265.669 206.618 265.801 206.487L303.159 169.26C303.224 169.195 303.276 169.118 303.311 169.033C303.346 168.948 303.365 168.857 303.365 168.765C303.365 168.673 303.347 168.582 303.312 168.497C303.277 168.412 303.226 168.335 303.161 168.27L233.929 98.7957Z" stroke="#9CCCEA" stroke-width="2"/>
<path d="M421.996 151.692C422.069 151.62 422.126 151.534 422.166 151.439C422.205 151.344 422.225 151.243 422.225 151.14C422.225 151.038 422.205 150.937 422.166 150.842C422.126 150.747 422.069 150.661 421.996 150.589L384.845 113.437C384.773 113.365 384.687 113.308 384.592 113.268C384.497 113.229 384.396 113.209 384.293 113.209C384.191 113.209 384.09 113.229 383.995 113.268C383.9 113.308 383.814 113.365 383.742 113.437L311.971 185.209C311.898 185.281 311.841 185.367 311.802 185.462C311.762 185.556 311.742 185.658 311.742 185.76C311.742 185.863 311.762 185.964 311.802 186.059C311.841 186.153 311.898 186.239 311.971 186.312L349.122 223.463C349.194 223.536 349.28 223.593 349.375 223.632C349.47 223.672 349.571 223.692 349.674 223.692C349.776 223.692 349.877 223.672 349.972 223.632C350.067 223.593 350.153 223.536 350.225 223.463L421.996 151.692Z" stroke="#EB8EAA" stroke-width="2"/>
<path d="M180.852 150.495C180.753 150.395 180.618 150.339 180.478 150.338C180.337 150.337 180.202 150.392 180.102 150.491L142.302 187.898C142.202 187.997 142.145 188.131 142.145 188.272C142.144 188.412 142.199 188.547 142.298 188.647L195.854 242.767C195.953 242.867 196.088 242.924 196.228 242.925C196.369 242.925 196.504 242.87 196.604 242.771L234.404 205.365C234.504 205.266 234.561 205.131 234.561 204.991C234.562 204.85 234.507 204.715 234.408 204.615L180.852 150.495Z" stroke="#BCCCE0" stroke-width="2"/>
<path d="M414.1 187.206C414.031 187.137 413.95 187.082 413.86 187.045C413.77 187.008 413.674 186.988 413.577 186.988C413.48 186.988 413.383 187.007 413.294 187.044C413.204 187.081 413.122 187.135 413.053 187.204L362.804 237.279C362.665 237.417 362.586 237.605 362.586 237.802C362.586 237.998 362.663 238.186 362.802 238.325L400.1 275.754C400.169 275.823 400.25 275.877 400.34 275.915C400.43 275.952 400.526 275.971 400.623 275.972C400.72 275.972 400.816 275.953 400.906 275.916C400.996 275.879 401.078 275.824 401.147 275.756L451.396 225.681C451.535 225.543 451.613 225.354 451.614 225.158C451.614 224.962 451.537 224.774 451.398 224.635L414.1 187.206Z" stroke="#8A96A9" stroke-width="2"/>
<path d="M288.126 258.086C288.15 258.062 288.169 258.033 288.182 258.002C288.195 257.97 288.202 257.936 288.202 257.902C288.202 257.868 288.195 257.834 288.182 257.803C288.169 257.771 288.15 257.742 288.126 257.718L250.084 219.676C250.06 219.652 250.031 219.632 249.999 219.619C249.968 219.606 249.934 219.6 249.9 219.6C249.866 219.6 249.832 219.606 249.8 219.619C249.769 219.632 249.74 219.652 249.716 219.676L120.697 348.694C120.673 348.719 120.654 348.747 120.641 348.779C120.628 348.81 120.621 348.844 120.621 348.878C120.621 348.912 120.628 348.946 120.641 348.978C120.654 349.009 120.673 349.038 120.697 349.062L158.74 387.105C158.764 387.129 158.792 387.148 158.824 387.161C158.856 387.174 158.889 387.181 158.923 387.181C158.958 387.181 158.991 387.174 159.023 387.161C159.055 387.148 159.083 387.129 159.107 387.105L288.126 258.086Z" stroke="#8A96A9" stroke-width="2"/>
<path d="M335.639 240.322C335.521 240.204 335.361 240.137 335.194 240.137C335.027 240.136 334.867 240.202 334.748 240.32L297.22 277.718C297.162 277.776 297.115 277.845 297.083 277.922C297.052 277.998 297.035 278.08 297.035 278.163C297.035 278.245 297.051 278.327 297.083 278.404C297.114 278.48 297.161 278.55 297.219 278.609L424.106 405.94C424.224 406.058 424.384 406.125 424.552 406.125C424.719 406.125 424.879 406.059 424.997 405.941L462.525 368.544C462.584 368.486 462.63 368.416 462.662 368.34C462.694 368.264 462.71 368.182 462.711 368.099C462.711 368.016 462.694 367.934 462.663 367.858C462.631 367.781 462.585 367.712 462.527 367.653L335.639 240.322Z" stroke="#BCCCE0" stroke-width="2"/>
<path d="M317.963 331.261C318.113 331.109 318.197 330.904 318.197 330.691C318.197 330.477 318.113 330.272 317.963 330.121L280.843 292.981C280.691 292.83 280.486 292.746 280.273 292.746C280.059 292.746 279.854 292.83 279.703 292.981L174.063 399.381C173.912 399.532 173.828 399.737 173.828 399.951C173.828 400.164 173.912 400.369 174.063 400.521L211.193 437.681C211.344 437.831 211.549 437.915 211.763 437.915C211.976 437.915 212.181 437.831 212.333 437.681L317.963 331.261Z" stroke="#EB8EAA" stroke-width="2"/>
<path d="M370.003 460.051C370.119 460.165 370.275 460.229 370.438 460.229C370.601 460.229 370.757 460.165 370.873 460.051L408.333 422.621C408.39 422.563 408.435 422.494 408.466 422.418C408.497 422.342 408.512 422.261 408.511 422.179C408.51 422.097 408.493 422.016 408.461 421.941C408.428 421.866 408.382 421.798 408.323 421.741L332.883 347.561C332.767 347.447 332.611 347.383 332.448 347.383C332.285 347.383 332.129 347.447 332.013 347.561L294.573 384.991C294.515 385.049 294.47 385.118 294.439 385.194C294.409 385.27 294.394 385.351 294.395 385.433C294.396 385.515 294.413 385.596 294.445 385.671C294.477 385.746 294.524 385.814 294.583 385.871L370.003 460.051Z" stroke="#9CCCEA" stroke-width="2"/>
<path d="M232.94 98.7938L195.582 136.022C195.308 136.294 195.307 136.738 195.58 137.011L264.812 206.485C265.085 206.759 265.528 206.76 265.802 206.487L303.16 169.259C303.434 168.987 303.434 168.543 303.161 168.27L233.93 98.7956C233.657 98.5217 233.213 98.521 232.94 98.7938Z" fill="#3998D4"/>
<path d="M421.992 150.588L384.841 113.436C384.536 113.132 384.042 113.132 383.738 113.436L311.966 185.208C311.662 185.512 311.662 186.006 311.966 186.311L349.118 223.462C349.422 223.767 349.916 223.767 350.221 223.462L421.992 151.691C422.297 151.386 422.297 150.892 421.992 150.588Z" fill="#D71C55"/>
<path d="M180.099 150.49L142.299 187.897C142.091 188.103 142.089 188.438 142.295 188.646L195.851 242.767C196.057 242.975 196.393 242.976 196.601 242.77L234.401 205.364C234.609 205.158 234.611 204.822 234.405 204.614L180.848 150.494C180.643 150.286 180.307 150.284 180.099 150.49Z" fill="#7999C1"/>
<path d="M413.055 187.204L362.805 237.278C362.516 237.567 362.515 238.035 362.804 238.325L400.102 275.754C400.39 276.043 400.859 276.044 401.148 275.755L451.398 225.681C451.687 225.392 451.688 224.924 451.4 224.634L414.102 187.206C413.813 186.916 413.345 186.915 413.055 187.204Z" fill="#152C53"/>
<path d="M288.125 257.718L250.082 219.676C249.981 219.574 249.816 219.574 249.715 219.676L120.696 348.695C120.594 348.796 120.594 348.961 120.696 349.062L158.738 387.105C158.84 387.206 159.004 387.206 159.106 387.105L288.125 258.086C288.226 257.985 288.226 257.82 288.125 257.718Z" fill="#152C53"/>
<path d="M334.744 240.32L297.216 277.717C296.969 277.963 296.969 278.362 297.214 278.608L424.102 405.94C424.347 406.186 424.746 406.187 424.993 405.941L462.521 368.544C462.767 368.298 462.768 367.9 462.522 367.653L335.635 240.322C335.389 240.075 334.99 240.075 334.744 240.32Z" fill="#7999C1"/>
<path d="M317.959 331.261L212.329 437.681C212.177 437.831 211.972 437.915 211.759 437.915C211.545 437.915 211.34 437.831 211.189 437.681L174.059 400.521C173.908 400.369 173.824 400.164 173.824 399.951C173.824 399.737 173.908 399.532 174.059 399.381L279.699 292.981C279.85 292.83 280.055 292.746 280.269 292.746C280.482 292.746 280.687 292.83 280.839 292.981L317.959 330.121C318.109 330.272 318.193 330.477 318.193 330.691C318.193 330.904 318.109 331.109 317.959 331.261Z" fill="#D71C55"/>
<path d="M369.999 460.049L294.579 385.869C294.52 385.812 294.473 385.744 294.441 385.669C294.409 385.594 294.392 385.513 294.391 385.431C294.39 385.349 294.405 385.268 294.436 385.192C294.466 385.116 294.511 385.047 294.569 384.989L332.009 347.559C332.125 347.445 332.281 347.381 332.444 347.381C332.607 347.381 332.763 347.445 332.879 347.559L408.319 421.739C408.378 421.796 408.424 421.864 408.457 421.939C408.489 422.014 408.506 422.095 408.507 422.177C408.508 422.259 408.493 422.34 408.462 422.416C408.432 422.492 408.386 422.561 408.329 422.619L370.869 460.049C370.753 460.163 370.597 460.227 370.434 460.227C370.271 460.227 370.115 460.163 369.999 460.049Z" fill="#3998D4"/>
</g>
<defs>
<clipPath id="clip0_882_578">
<rect width="583" height="557" fill="white"/>
</clipPath>
</defs>
</svg>
