<svg width="2071" height="1011" viewBox="0 0 2071 1011" fill="none" xmlns="http://www.w3.org/2000/svg">
<path d="M178.882 665.289C117.372 664.569 63.2717 631.399 35.1217 577.199C11.0717 530.879 11.2217 474.309 35.6617 427.929C63.8017 374.539 118.222 341.369 178.532 340.869C179.152 340.863 179.462 341.169 179.462 341.789V381.459C179.462 381.806 179.292 381.996 178.952 382.029C150.852 385.069 126.698 396.203 106.492 415.429C67.5517 452.489 57.7717 512.449 83.1117 559.729C102.612 596.109 138.032 620.079 179.082 624.119C179.186 624.129 179.283 624.178 179.353 624.256C179.423 624.333 179.462 624.434 179.462 624.539V664.719C179.462 665.106 179.268 665.296 178.882 665.289Z" fill="#00ABD3"/>
<path d="M271.731 478.42C290.791 462.05 284.321 432.69 260.911 424.73C257.837 423.69 252.561 423.19 245.081 423.23C227.221 423.33 209.824 423.346 192.891 423.28C192.677 423.28 192.571 423.173 192.571 422.96V341.45C192.571 341.37 192.587 341.291 192.618 341.218C192.649 341.144 192.695 341.078 192.753 341.022C192.811 340.966 192.879 340.922 192.954 340.892C193.029 340.863 193.11 340.848 193.191 340.85C234.431 341.543 270.297 355.34 300.791 382.24C323.791 402.53 340.581 429.98 348.711 459.02C377.801 562.83 300.281 664.6 192.831 665.27C192.764 665.27 192.701 665.243 192.654 665.196C192.607 665.15 192.581 665.086 192.581 665.02L192.551 582.78C192.551 582.466 192.707 582.31 193.021 582.31C210.781 582.27 228.631 582.283 246.571 582.35C252.971 582.376 257.634 581.946 260.561 581.06C284.451 573.85 290.431 543.8 271.941 527.47C271.681 527.243 271.677 527.013 271.931 526.78C280.977 518.273 284.411 508.293 282.231 496.84C280.937 490.053 277.434 484.163 271.721 479.17C271.441 478.916 271.444 478.666 271.731 478.42Z" fill="#00ABD3"/>
<path d="M268.308 455.313C268.3 459.743 266.534 463.987 263.396 467.114C260.259 470.24 256.008 471.992 251.579 471.984L120.319 471.755C115.89 471.747 111.646 469.981 108.519 466.843C105.393 463.706 103.641 459.455 103.648 455.026L103.65 454.286C103.658 449.857 105.424 445.612 108.562 442.486C111.699 439.36 115.95 437.608 120.379 437.615L251.639 437.844C256.068 437.852 260.312 439.619 263.439 442.756C266.565 445.894 268.317 450.144 268.309 454.573L268.308 455.313ZM244.229 454.2C244.229 451.505 243.159 448.921 241.253 447.016C239.348 445.11 236.764 444.04 234.069 444.04C231.374 444.04 228.79 445.11 226.885 447.016C224.979 448.921 223.909 451.505 223.909 454.2C223.909 456.894 224.979 459.479 226.885 461.384C228.79 463.289 231.374 464.36 234.069 464.36C236.764 464.36 239.348 463.289 241.253 461.384C243.159 459.479 244.229 456.894 244.229 454.2Z" fill="#00ABD3"/>
<path d="M1254.75 489.8L1254.74 446.77C1254.74 446.436 1254.9 446.27 1255.23 446.27H1272.54C1272.88 446.27 1273.05 446.443 1273.05 446.79V562.97C1273.05 563.323 1272.88 563.5 1272.53 563.5H1258.65C1258.52 563.5 1258.39 563.455 1258.28 563.371C1258.18 563.287 1258.11 563.17 1258.08 563.04L1256.17 553.98C1256.16 553.926 1256.13 553.878 1256.09 553.84C1256.06 553.802 1256.01 553.776 1255.95 553.766C1255.9 553.755 1255.84 553.76 1255.79 553.78C1255.74 553.801 1255.69 553.835 1255.66 553.88C1251.68 559.64 1246.48 563.17 1240.07 564.47C1220.52 568.44 1206.23 555.68 1203.1 537.07C1199.19 513.83 1205.29 477.93 1237.17 480.83C1243.8 481.43 1249.73 484.77 1254.12 490.03C1254.54 490.53 1254.75 490.453 1254.75 489.8ZM1253.74 503.62C1249.58 497.77 1243.56 495.07 1236.42 495.85C1220.08 497.63 1219.32 521.39 1221.14 533.51C1222.63 543.43 1228.1 550.32 1239.04 550.14C1245.2 550.046 1250.1 547.44 1253.73 542.32C1254.42 541.34 1254.77 540.276 1254.76 539.13C1254.73 528.056 1254.73 517.256 1254.77 506.73C1254.77 505.616 1254.43 504.58 1253.74 503.62Z" fill="black"/>
<path d="M1750.89 553.77L1749.09 563C1749.03 563.333 1748.82 563.5 1748.48 563.5H1734.5C1734.18 563.5 1734.01 563.333 1734.01 563V447.01C1734.01 446.516 1734.26 446.27 1734.74 446.27H1751.75C1752.16 446.27 1752.36 446.473 1752.36 446.88V490.06C1752.36 490.846 1752.61 490.933 1753.1 490.32C1757.67 484.646 1763.32 481.49 1770.07 480.85C1791.52 478.83 1802.47 494.55 1804.84 513.69C1806.73 529.01 1805.52 546.23 1794.61 557.21C1790.94 560.916 1786.52 563.293 1781.36 564.34C1769.46 566.76 1758.34 563.92 1751.53 553.64C1751.21 553.16 1751 553.203 1750.89 553.77ZM1771.91 495.96C1764.22 494.82 1757.55 497.56 1753.3 504.25C1752.65 505.276 1752.32 506.423 1752.33 507.69C1752.38 517.956 1752.38 528.12 1752.32 538.18C1752.31 539.433 1752.66 540.613 1753.34 541.72C1758.02 549.27 1766.09 551.47 1774.45 549.47C1788.02 546.23 1787.86 526.63 1786.61 516.04C1785.55 507.09 1781.81 497.42 1771.91 495.96Z" fill="black"/>
<path d="M778.468 489.87H761.758C761.325 489.87 761.102 489.654 761.088 489.22C760.838 479.98 757.288 472.28 748.648 469.06C743.641 467.2 738.468 466.757 733.128 467.73C723.188 469.52 716.878 478.56 714.808 488.04C714.021 491.647 713.638 495.684 713.658 500.15C713.698 507.89 713.748 515.23 713.808 522.17C713.868 528.53 716.138 535.89 720.018 541.21C725.965 549.35 734.641 552.117 746.048 549.51C756.418 547.13 761.028 538.43 760.998 528.4C760.998 527.934 761.228 527.7 761.688 527.7L778.218 527.71C778.638 527.71 778.851 527.92 778.858 528.34C779.078 537.64 776.498 545.477 771.118 551.85C761.498 563.24 746.328 566.38 731.668 564.72C709.948 562.24 696.038 543.24 695.528 522.12C695.355 514.934 695.321 506.707 695.428 497.44C695.688 475.75 707.958 456.79 729.908 453.07C739.798 451.39 752.888 452.77 762.108 458.02C773.555 464.527 779.178 474.974 778.978 489.36C778.975 489.497 778.921 489.626 778.825 489.722C778.73 489.817 778.602 489.87 778.468 489.87Z" fill="black"/>
<path d="M530.931 527.26C530.861 547.73 516.781 561.6 497.041 564.51C470.921 568.37 445.981 555.73 445.851 526.93C445.731 502.743 445.718 478.577 445.811 454.43C445.811 454.321 445.854 454.217 445.931 454.14C446.008 454.063 446.113 454.02 446.221 454.02L463.711 454C464.045 454 464.211 454.167 464.211 454.5C464.305 476.547 464.291 498.913 464.171 521.6C464.145 527.587 464.578 532.11 465.471 535.17C468.641 546.05 478.941 551.11 489.941 550.36C500.855 549.62 507.945 544.64 511.211 535.42C512.125 532.84 512.575 529.18 512.561 524.44C512.508 501.32 512.495 478.07 512.521 454.69C512.524 454.511 512.596 454.341 512.721 454.216C512.846 454.09 513.015 454.02 513.191 454.02L530.281 454C530.462 454 530.635 454.072 530.762 454.199C530.89 454.327 530.961 454.5 530.961 454.68C531.028 479.107 531.018 503.3 530.931 527.26Z" fill="black"/>
<path d="M619.621 454.02L637.321 454C637.408 454 637.492 454.035 637.554 454.097C637.616 454.159 637.651 454.242 637.651 454.33V563.17C637.651 563.258 637.616 563.341 637.554 563.403C637.492 563.465 637.408 563.5 637.321 563.5H619.411C619.354 563.5 619.299 563.485 619.25 563.457C619.201 563.429 619.16 563.388 619.131 563.34L571.131 485.26C571.093 485.199 571.035 485.152 570.968 485.126C570.901 485.1 570.827 485.098 570.757 485.118C570.688 485.138 570.628 485.181 570.585 485.239C570.542 485.297 570.52 485.368 570.521 485.44V563.17C570.521 563.258 570.486 563.341 570.424 563.403C570.362 563.465 570.278 563.5 570.191 563.5H552.381C552.293 563.5 552.209 563.465 552.147 563.403C552.086 563.341 552.051 563.258 552.051 563.17V454.35C552.051 454.262 552.086 454.179 552.147 454.117C552.209 454.055 552.293 454.02 552.381 454.02H570.301C570.357 454.02 570.413 454.035 570.462 454.063C570.511 454.091 570.552 454.132 570.581 454.18L618.681 532.43C618.719 532.491 618.776 532.538 618.844 532.564C618.911 532.59 618.985 532.592 619.054 532.572C619.123 532.552 619.184 532.509 619.227 532.451C619.269 532.393 619.292 532.322 619.291 532.25V454.35C619.291 454.307 619.299 454.264 619.316 454.224C619.333 454.184 619.357 454.147 619.387 454.117C619.418 454.086 619.454 454.062 619.495 454.045C619.535 454.029 619.577 454.02 619.621 454.02Z" fill="black"/>
<path d="M1412.96 454.86C1412.96 454.607 1413.06 454.364 1413.24 454.185C1413.42 454.005 1413.66 453.903 1413.91 453.9L1450.79 453.84C1456.77 453.829 1462.69 454.994 1468.22 457.268C1473.74 459.542 1478.77 462.88 1483 467.092C1487.24 471.304 1490.6 476.308 1492.9 481.817C1495.19 487.326 1496.38 493.233 1496.39 499.2L1496.43 518.12C1496.44 524.087 1495.27 529.998 1493 535.515C1490.72 541.032 1487.37 546.047 1483.16 550.274C1478.94 554.501 1473.92 557.857 1468.4 560.15C1462.89 562.444 1456.97 563.629 1450.99 563.64L1414.11 563.7C1413.98 563.701 1413.86 563.677 1413.74 563.63C1413.62 563.582 1413.52 563.512 1413.43 563.422C1413.34 563.333 1413.26 563.227 1413.21 563.11C1413.17 562.992 1413.14 562.867 1413.14 562.74L1412.96 454.86ZM1460.31 546.95C1471.88 542.44 1477.67 530.47 1477.87 518.13C1477.98 511.383 1477.97 504.97 1477.83 498.89C1477.48 482.93 1467.5 469.32 1450.75 468.93C1444.66 468.79 1438.37 468.773 1431.89 468.88C1431.8 468.88 1431.7 468.918 1431.64 468.985C1431.57 469.053 1431.53 469.144 1431.53 469.24V548.3C1431.53 548.37 1431.55 548.44 1431.57 548.505C1431.6 548.57 1431.64 548.629 1431.69 548.678C1431.74 548.728 1431.8 548.766 1431.87 548.792C1431.93 548.818 1432 548.831 1432.07 548.83C1436.94 548.717 1441.81 548.723 1446.66 548.85C1452.13 548.997 1456.68 548.363 1460.31 546.95Z" fill="black"/>
<path d="M1039.32 482.21L1052.7 482.18C1052.84 482.18 1052.97 482.236 1053.07 482.335C1053.17 482.434 1053.23 482.569 1053.23 482.71V495.28C1053.23 495.415 1053.18 495.545 1053.08 495.64C1052.98 495.736 1052.85 495.79 1052.72 495.79L1039.24 495.77C1038.87 495.77 1038.69 495.953 1038.69 496.32C1038.66 510.993 1038.67 525.913 1038.7 541.08C1038.72 549.21 1045.11 551.67 1051.88 548.98C1051.93 548.961 1051.98 548.954 1052.03 548.958C1052.08 548.962 1052.13 548.977 1052.18 549.003C1052.22 549.029 1052.26 549.065 1052.29 549.107C1052.32 549.15 1052.34 549.199 1052.35 549.25L1054.19 561.74C1054.22 561.966 1054.18 562.196 1054.07 562.395C1053.95 562.593 1053.78 562.75 1053.57 562.84C1048.86 564.88 1043.65 565.556 1037.95 564.87C1025.53 563.37 1020.5 553.65 1020.49 542.18C1020.47 525.633 1020.47 510.31 1020.48 496.21C1020.48 496.096 1020.43 495.986 1020.35 495.906C1020.27 495.825 1020.16 495.78 1020.04 495.78H1008.24C1008.16 495.78 1008.09 495.749 1008.04 495.695C1007.99 495.64 1007.96 495.567 1007.96 495.49L1007.95 482.74C1007.95 482.594 1008.01 482.454 1008.11 482.351C1008.22 482.248 1008.36 482.19 1008.51 482.19L1020 482.21C1020.31 482.21 1020.46 482.056 1020.47 481.75L1020.49 462.73C1020.49 462.658 1020.52 462.589 1020.57 462.539C1020.62 462.488 1020.69 462.46 1020.77 462.46L1037.93 462.43C1038.13 462.43 1038.32 462.509 1038.46 462.649C1038.6 462.79 1038.68 462.981 1038.68 463.18L1038.67 481.56C1038.67 481.993 1038.89 482.21 1039.32 482.21Z" fill="black"/>
<path d="M1602.22 495.769L1590.72 495.789C1590.63 495.789 1590.55 495.756 1590.49 495.696C1590.43 495.636 1590.4 495.554 1590.4 495.469L1590.38 482.559C1590.38 482.459 1590.42 482.362 1590.49 482.291C1590.57 482.219 1590.67 482.179 1590.77 482.179L1602.43 482.209C1602.48 482.211 1602.54 482.201 1602.59 482.181C1602.64 482.161 1602.69 482.131 1602.73 482.093C1602.76 482.055 1602.8 482.009 1602.82 481.959C1602.84 481.908 1602.85 481.854 1602.85 481.799L1602.8 463.079C1602.8 462.659 1603.01 462.449 1603.43 462.449L1620.5 462.439C1620.87 462.439 1621.06 462.626 1621.06 462.999L1621.05 481.749C1621.05 481.869 1621.1 481.983 1621.18 482.068C1621.27 482.152 1621.38 482.199 1621.5 482.199L1635.29 482.179C1635.38 482.179 1635.47 482.217 1635.54 482.285C1635.6 482.352 1635.64 482.444 1635.64 482.539L1635.65 495.189C1635.65 495.589 1635.45 495.789 1635.05 495.789L1621.54 495.759C1621.41 495.759 1621.29 495.81 1621.21 495.9C1621.12 495.99 1621.07 496.112 1621.07 496.239C1621.02 511.266 1621.03 526.166 1621.1 540.939C1621.13 548.989 1627.16 551.639 1634 549.079C1634.09 549.046 1634.18 549.033 1634.28 549.042C1634.38 549.051 1634.47 549.082 1634.55 549.132C1634.63 549.182 1634.7 549.249 1634.76 549.33C1634.81 549.411 1634.85 549.503 1634.86 549.599L1636.58 561.819C1636.61 562.036 1636.57 562.258 1636.46 562.448C1636.35 562.638 1636.18 562.787 1635.98 562.869C1625.37 567.349 1609.78 565.929 1604.88 553.409C1603.34 549.469 1602.87 545.679 1602.84 541.129C1602.77 526.456 1602.8 511.573 1602.93 496.479C1602.93 496.006 1602.69 495.769 1602.22 495.769Z" fill="black"/>
<path d="M865.761 524.051C865.481 549.151 850.431 567.291 823.891 564.921C806.271 563.351 794.651 550.551 791.831 533.741C787.841 510.041 796.681 483.631 823.361 480.901C843.551 478.841 859.751 489.281 864.361 509.501C865.354 513.874 865.821 518.724 865.761 524.051ZM826.401 495.531C809.701 496.961 808.051 518.341 809.991 531.631C811.611 542.711 817.531 551.111 829.981 550.371C839.831 549.781 844.961 541.631 846.541 532.841C849.101 518.621 847.121 493.761 826.401 495.531Z" fill="black"/>
<path d="M898.942 491.791C898.988 492.351 899.178 492.404 899.512 491.951C906.562 482.241 918.632 478.781 930.012 481.521C936.918 483.181 941.845 487.418 944.792 494.231C944.992 494.684 945.222 494.698 945.482 494.271C951.688 484.151 960.878 479.674 973.052 480.841C990.482 482.521 995.922 499.041 995.952 514.021C995.972 528.914 995.975 545.241 995.962 563.001C995.962 563.334 995.798 563.501 995.472 563.501H978.262C977.828 563.501 977.612 563.281 977.612 562.841C977.625 546.934 977.622 531.054 977.602 515.201C977.582 506.141 975.942 496.331 964.602 495.761C957.462 495.401 952.192 498.344 948.792 504.591C948.078 505.898 947.725 507.248 947.732 508.641C947.785 528.294 947.788 546.401 947.742 562.961C947.735 563.321 947.555 563.501 947.202 563.501H930.032C929.652 563.501 929.465 563.311 929.472 562.931C929.485 547.098 929.482 531.388 929.462 515.801C929.442 507.781 928.282 497.881 918.572 496.071C911.842 494.811 905.072 496.731 900.632 502.281C899.945 503.148 899.602 504.094 899.602 505.121C899.595 522.781 899.592 542.044 899.592 562.911C899.592 563.304 899.395 563.501 899.002 563.501H882.012C881.512 563.501 881.262 563.254 881.262 562.761V482.721C881.262 482.653 881.275 482.585 881.301 482.522C881.327 482.459 881.366 482.402 881.414 482.353C881.462 482.305 881.52 482.267 881.583 482.241C881.646 482.214 881.713 482.201 881.782 482.201L897.252 482.191C897.798 482.191 898.095 482.461 898.142 483.001L898.942 491.791Z" fill="black"/>
<path d="M1167.9 514.84C1167.8 512.94 1167.78 511.073 1167.85 509.24C1168.14 501.48 1164.06 495.98 1155.87 495.12C1148.84 494.37 1140.32 496.9 1139.95 504.97C1139.94 505.132 1139.87 505.284 1139.76 505.396C1139.64 505.508 1139.49 505.57 1139.33 505.57L1122.8 505.77C1122.59 505.77 1122.38 505.687 1122.23 505.539C1122.08 505.391 1121.99 505.19 1121.99 504.98C1121.88 490.75 1136.13 482.18 1149.16 480.9C1163.78 479.47 1179.83 483.76 1184.77 498.59C1185.91 502.017 1186.43 507.133 1186.32 513.94C1186.15 525.107 1186.14 535.953 1186.27 546.48C1186.34 552.18 1187.24 557.733 1188.96 563.14C1188.98 563.181 1188.98 563.225 1188.97 563.268C1188.97 563.312 1188.95 563.353 1188.93 563.388C1188.9 563.424 1188.87 563.452 1188.83 563.472C1188.79 563.491 1188.74 563.501 1188.7 563.5H1170.94C1170.8 563.5 1170.67 563.456 1170.55 563.373C1170.44 563.291 1170.36 563.174 1170.31 563.04C1169.22 559.687 1168.5 556.29 1168.14 552.85C1168.07 552.23 1167.86 552.173 1167.49 552.68C1162.43 559.79 1154.81 564.46 1146.61 565.04C1129.27 566.25 1116.99 556.65 1118.18 538.5C1118.95 526.77 1127.95 519.7 1138.9 517.17C1148.06 515.05 1157.79 515.53 1167.22 515.56C1167.7 515.56 1167.93 515.32 1167.9 514.84ZM1142.22 549.28C1150.87 552.81 1162.38 547.96 1167.13 540.57C1167.63 539.797 1167.87 538.95 1167.85 538.03C1167.78 534.71 1167.8 531.243 1167.91 527.63C1167.91 527.492 1167.86 527.359 1167.76 527.259C1167.67 527.16 1167.53 527.103 1167.39 527.1C1162.41 527.067 1157.55 527.07 1152.82 527.11C1145.84 527.18 1138.91 530.4 1136.92 537.32C1135.53 542.13 1137.43 547.33 1142.22 549.28Z" fill="black"/>
<path d="M1307.78 528.439C1308.26 538.789 1312.96 548.839 1324.16 550.129C1333.95 551.256 1342.71 549.139 1350.44 543.779C1350.51 543.735 1350.58 543.705 1350.65 543.691C1350.73 543.678 1350.81 543.68 1350.88 543.699C1350.96 543.718 1351.03 543.753 1351.09 543.801C1351.15 543.85 1351.2 543.91 1351.23 543.979L1356.67 554.849C1356.78 555.057 1356.8 555.294 1356.75 555.519C1356.69 555.744 1356.56 555.943 1356.37 556.079C1344.98 564.529 1329.86 566.949 1316.47 563.999C1299.55 560.279 1290.16 545.539 1289.08 528.599C1288.07 512.609 1291.2 497.529 1304.16 487.289C1308.7 483.709 1314.08 481.586 1320.3 480.919C1332.96 479.549 1345.26 482.959 1352.19 494.079C1358.55 504.289 1358.38 515.409 1358.09 527.169C1358.09 527.543 1357.9 527.729 1357.52 527.729L1308.46 527.719C1307.99 527.719 1307.76 527.959 1307.78 528.439ZM1310.03 506.699C1309.13 508.926 1308.56 511.216 1308.33 513.569C1308.32 513.655 1308.34 513.741 1308.36 513.822C1308.39 513.903 1308.43 513.978 1308.49 514.041C1308.55 514.104 1308.62 514.154 1308.7 514.188C1308.77 514.222 1308.86 514.24 1308.94 514.239H1339.46C1339.84 514.239 1340.03 514.053 1340.03 513.679C1340.19 507.469 1337.97 498.379 1331.28 496.439C1321.11 493.493 1314.03 496.913 1310.03 506.699Z" fill="black"/>
<path d="M1560.04 552.71C1552.83 562.663 1542.98 566.64 1530.49 564.64C1521.11 563.14 1513.95 557.46 1511.67 548.34C1509.49 539.59 1510.85 530.13 1517.82 523.97C1529.07 514.02 1545.94 515.58 1559.87 515.55C1560.35 515.55 1560.58 515.31 1560.57 514.83C1560.51 512.91 1560.48 510.877 1560.48 508.73C1560.47 498.63 1553.42 494.17 1544.22 495.07C1537.2 495.75 1533.28 499.043 1532.48 504.95C1532.42 505.37 1532.17 505.583 1531.75 505.59L1515.27 505.76C1515.12 505.763 1514.98 505.708 1514.88 505.607C1514.78 505.506 1514.71 505.367 1514.71 505.22C1514.55 500.567 1515.83 496.497 1518.56 493.01C1527.45 481.64 1542.26 478.99 1555.98 481.46C1566.42 483.35 1575.72 490.06 1577.98 500.59C1578.61 503.543 1578.91 507.077 1578.89 511.19C1578.82 521.977 1578.79 532.52 1578.8 542.82C1578.8 549.54 1579.42 556.36 1581.54 562.77C1581.57 562.854 1581.57 562.944 1581.56 563.032C1581.54 563.119 1581.51 563.202 1581.45 563.273C1581.4 563.344 1581.33 563.402 1581.25 563.442C1581.17 563.481 1581.09 563.501 1581 563.5H1563.53C1563.21 563.5 1563.01 563.347 1562.92 563.04C1561.91 559.673 1561.18 556.29 1560.72 552.89C1560.63 552.263 1560.4 552.203 1560.04 552.71ZM1530.35 535.37C1528.38 539.157 1528.67 542.88 1531.21 546.54C1532.77 548.773 1535.52 550.023 1539.46 550.29C1546.99 550.8 1555.01 547.49 1559.42 541.13C1560.23 539.95 1560.62 538.58 1560.58 537.02C1560.48 533.6 1560.47 530.453 1560.55 527.58C1560.55 527.481 1560.51 527.385 1560.45 527.312C1560.38 527.239 1560.29 527.195 1560.19 527.19C1554.51 526.943 1549 526.973 1543.67 527.28C1537.4 527.633 1532.96 530.33 1530.35 535.37Z" fill="black"/>
<path d="M1697.16 552.77C1697.11 552.21 1696.92 552.156 1696.59 552.61C1688.65 563.436 1677.9 567.256 1664.33 564.07C1651.26 560.99 1645.79 549.39 1647.42 536.73C1649.69 519.25 1669.63 515.38 1683.79 515.53C1687.95 515.57 1692.13 515.57 1696.33 515.53C1696.64 515.53 1696.81 515.373 1696.82 515.06C1697.1 510.58 1696.95 507.033 1696.36 504.42C1694.33 495.41 1684.3 493.5 1676.67 495.86C1671.96 497.313 1669.38 500.35 1668.94 504.97C1668.9 505.37 1668.68 505.573 1668.27 505.58L1651.79 505.76C1651.35 505.766 1651.12 505.55 1651.11 505.11C1651 501.156 1651.86 497.746 1653.7 494.88C1661.52 482.67 1676.22 479.28 1690.18 481.08C1700.79 482.45 1710.65 488.32 1713.86 498.75C1714.91 502.156 1715.4 506.513 1715.33 511.82C1715.16 524.18 1715.16 535.973 1715.33 547.2C1715.41 552.566 1716.29 557.816 1717.96 562.95C1718.08 563.316 1717.95 563.5 1717.56 563.5H1699.97C1699.83 563.5 1699.69 563.455 1699.58 563.373C1699.46 563.29 1699.38 563.173 1699.34 563.04C1698.2 559.433 1697.47 556.01 1697.16 552.77ZM1696.94 527.68C1696.95 527.273 1696.75 527.073 1696.34 527.08C1690.19 527.17 1683.3 526.6 1677.45 527.6C1671.43 528.64 1665.8 533.43 1665.56 539.84C1665.25 547.73 1671.72 550.86 1678.72 550.34C1685.07 549.86 1690.36 547.316 1694.61 542.71C1696.14 541.05 1696.9 539.323 1696.88 537.53C1696.84 534.31 1696.86 531.026 1696.94 527.68Z" fill="black"/>
<path d="M1866.97 552.6C1858.16 564.26 1846.51 567.82 1832 563.28C1825.7 561.31 1820.47 555.67 1818.66 549.19C1815.13 536.61 1819.08 525.08 1831.66 519.43C1842.02 514.78 1855.11 515.34 1866.58 515.6C1866.98 515.606 1867.19 515.413 1867.21 515.02C1867.67 506.51 1867.33 497.24 1856.93 495.35C1849.39 493.98 1840.21 496.14 1839.24 504.96C1839.19 505.38 1838.96 505.59 1838.55 505.59L1822.2 505.76C1822.1 505.761 1822 505.742 1821.9 505.703C1821.81 505.665 1821.72 505.608 1821.65 505.535C1821.57 505.463 1821.51 505.376 1821.47 505.281C1821.43 505.186 1821.41 505.083 1821.41 504.98C1821.4 499.526 1823.28 494.836 1827.05 490.91C1835.68 481.92 1847.9 479.58 1859.94 480.99C1871.13 482.31 1881.29 488.39 1884.46 499.47C1885.35 502.603 1885.75 507.93 1885.66 515.45C1885.53 526.356 1885.52 536.816 1885.65 546.83C1885.71 551.776 1886.57 557.133 1888.23 562.9C1888.35 563.3 1888.2 563.5 1887.78 563.5H1870.45C1870.04 563.5 1869.77 563.303 1869.65 562.91C1868.56 559.41 1867.84 556.02 1867.49 552.74C1867.44 552.26 1867.26 552.213 1866.97 552.6ZM1839.56 531.86C1833.3 538.1 1835.03 549.06 1844.96 550.19C1852.97 551.1 1861.3 547.9 1866.05 541.28C1866.93 540.053 1867.35 538.666 1867.31 537.12C1867.23 533.793 1867.23 530.69 1867.3 527.81C1867.31 527.336 1867.08 527.1 1866.61 527.1C1861.48 527.026 1856.54 527.04 1851.79 527.14C1846.69 527.246 1842.61 528.82 1839.56 531.86Z" fill="black"/>
<path d="M1949.77 506.26C1948.51 495.56 1937.53 492.33 1928.61 495.64C1921.76 498.18 1919.03 507.46 1925.9 511.7C1928.12 513.073 1930.68 514.05 1933.57 514.63C1949.97 517.92 1973.27 523.33 1967.8 546.27C1966.65 551.117 1963.65 555.27 1958.81 558.73C1950.13 564.93 1938.17 566.09 1927.57 564.54C1914.18 562.59 1901.62 552.94 1901.79 538.48C1901.8 538.007 1902.04 537.77 1902.51 537.77H1918.49C1918.92 537.77 1919.14 537.983 1919.17 538.41C1919.79 550.24 1932.47 552.8 1941.95 550.65C1949.78 548.87 1953.94 540.62 1947.2 534.64C1944.74 532.46 1940.14 531.03 1936.76 530.27C1921.11 526.77 1899.36 521.35 1904.81 499.33C1907.48 488.51 1919.47 481.94 1930.5 480.88C1943.06 479.68 1956.02 482.67 1963.57 493.05C1966.4 496.95 1967.7 501.353 1967.46 506.26C1967.45 506.573 1967.29 506.73 1966.98 506.73H1950.29C1949.98 506.73 1949.8 506.573 1949.77 506.26Z" fill="black"/>
<path d="M1999.88 528.359C2000.27 538.529 2004.82 547.829 2014.64 549.859C2023.68 551.729 2034.6 549.429 2042.41 543.819C2042.49 543.764 2042.58 543.726 2042.67 543.708C2042.77 543.69 2042.87 543.692 2042.96 543.715C2043.05 543.738 2043.14 543.78 2043.21 543.84C2043.29 543.899 2043.35 543.974 2043.39 544.059L2048.82 554.919C2049.03 555.339 2048.95 555.693 2048.58 555.979C2038.22 564.019 2024.21 566.429 2011.38 564.549C2001.7 563.129 1994.07 558.483 1988.48 550.609C1981.07 540.149 1979.85 525.939 1981.68 513.359C1983.93 497.909 1994.07 484.189 2009.87 481.269C2021.95 479.029 2035.45 481.909 2043.04 492.209C2050.81 502.769 2050.43 514.879 2050.22 527.239C2050.22 527.37 2050.16 527.495 2050.07 527.586C2049.98 527.678 2049.86 527.729 2049.73 527.729H2000.5C2000.07 527.729 1999.87 527.939 1999.88 528.359ZM2020.52 495.699C2008.57 493.869 2001.77 502.259 2000.41 513.549C2000.36 514.009 2000.56 514.239 2001.02 514.239H2031.8C2032.05 514.239 2032.18 514.116 2032.18 513.869C2032.3 505.919 2029.65 497.099 2020.52 495.699Z" fill="black"/>
<path d="M1086.34 492.48C1091.16 483.49 1099.5 478.9 1109.85 481.32C1110.01 481.359 1110.16 481.455 1110.25 481.592C1110.34 481.729 1110.38 481.896 1110.36 482.06L1108.31 498.21C1108.25 498.63 1108.01 498.82 1107.59 498.78C1099.62 498.03 1092.15 497.69 1087.06 505.08C1086.35 506.114 1085.99 507.267 1085.99 508.54C1086.01 527.54 1086.02 545.76 1086.02 563.2C1086.02 563.277 1085.99 563.351 1085.93 563.405C1085.88 563.46 1085.8 563.49 1085.72 563.49L1067.96 563.5C1067.88 563.5 1067.81 563.47 1067.76 563.415C1067.7 563.361 1067.67 563.287 1067.67 563.21V482.76C1067.67 482.387 1067.86 482.2 1068.24 482.2L1083.82 482.19C1084.24 482.19 1084.47 482.4 1084.51 482.82L1085.45 492.3C1085.56 493.334 1085.86 493.394 1086.34 492.48Z" fill="black"/>
<path d="M268.321 504.43C268.321 508.862 266.56 513.112 263.426 516.246C260.293 519.38 256.042 521.14 251.611 521.14H120.351C115.919 521.14 111.669 519.38 108.535 516.246C105.401 513.112 103.641 508.862 103.641 504.43V503.69C103.641 499.259 105.401 495.008 108.535 491.875C111.669 488.741 115.919 486.98 120.351 486.98H251.611C256.042 486.98 260.293 488.741 263.426 491.875C266.56 495.008 268.321 499.259 268.321 503.69V504.43ZM244.231 504.02C244.231 501.326 243.16 498.742 241.255 496.836C239.349 494.931 236.765 493.86 234.071 493.86C231.376 493.86 228.792 494.931 226.886 496.836C224.981 498.742 223.911 501.326 223.911 504.02C223.911 506.715 224.981 509.299 226.886 511.205C228.792 513.11 231.376 514.18 234.071 514.18C236.765 514.18 239.349 513.11 241.255 511.205C243.16 509.299 244.231 506.715 244.231 504.02Z" fill="#00ABD3"/>
<path d="M268.309 551.749C268.309 556.184 266.547 560.436 263.412 563.572C260.276 566.708 256.023 568.469 251.589 568.469H120.349C115.914 568.469 111.662 566.708 108.526 563.572C105.39 560.436 103.629 556.184 103.629 551.749V551.009C103.629 546.575 105.39 542.322 108.526 539.186C111.662 536.051 115.914 534.289 120.349 534.289H251.589C256.023 534.289 260.276 536.051 263.412 539.186C266.547 542.322 268.309 546.575 268.309 551.009V551.749ZM244.229 552.199C244.229 550.865 243.966 549.544 243.456 548.311C242.945 547.078 242.197 545.958 241.253 545.015C240.31 544.071 239.19 543.323 237.957 542.812C236.724 542.302 235.403 542.039 234.069 542.039C232.735 542.039 231.414 542.302 230.181 542.812C228.948 543.323 227.828 544.071 226.885 545.015C225.941 545.958 225.193 547.078 224.682 548.311C224.172 549.544 223.909 550.865 223.909 552.199C223.909 554.894 224.979 557.478 226.885 559.383C228.79 561.289 231.374 562.359 234.069 562.359C236.764 562.359 239.348 561.289 241.253 559.383C243.158 557.478 244.229 554.894 244.229 552.199Z" fill="#00ABD3"/>
</svg>
