<svg width="500" height="500" viewBox="0 0 500 500" fill="none" xmlns="http://www.w3.org/2000/svg">
<path d="M346.171 89.8996C397.901 148.01 380.131 237.17 312.451 273.59C248.171 308.18 167.501 275.77 143.671 207.13C129.091 165.14 138.981 119.61 169.501 87.2396C217.601 36.1996 299.521 37.4896 346.171 89.8996ZM252.441 56.9896C225.291 58.2396 200.311 68.4496 180.461 86.6096C180.135 86.9096 180.128 87.2163 180.441 87.5296L190.691 97.8296C190.965 98.0963 191.245 98.1063 191.531 97.8596C209.071 82.3196 229.405 73.9796 252.531 72.8396C252.865 72.8263 253.031 72.6529 253.031 72.3196L253.021 57.5396C253.021 57.1529 252.828 56.9696 252.441 56.9896ZM313.781 86.8696C312.981 86.6563 312.245 86.2629 311.571 85.6896C311.505 85.6296 311.438 85.6296 311.371 85.6896C311.345 85.7096 311.335 85.7396 311.341 85.7796C311.348 85.8529 311.378 85.9096 311.431 85.9496C312.338 86.6829 313.295 87.3229 314.301 87.8696C317.391 89.5396 319.701 93.0496 320.981 96.2596C321.105 96.5691 321.343 96.819 321.645 96.9569C321.947 97.0949 322.29 97.1102 322.601 96.9996C323.055 96.8396 323.445 96.5896 323.771 96.2496C326.705 93.2296 329.758 90.2063 332.931 87.1796C332.967 87.1467 332.994 87.1067 333.013 87.0622C333.032 87.0176 333.041 86.9694 333.04 86.9206C333.039 86.8718 333.028 86.8235 333.008 86.7785C332.987 86.7336 332.958 86.6931 332.921 86.6596C312.288 68.1596 288.245 58.2629 260.791 56.9696C260.431 56.9563 260.251 57.1329 260.251 57.4996L260.231 68.7696C260.232 68.8459 260.254 68.9206 260.294 68.9856C260.334 69.0506 260.391 69.1034 260.459 69.1383C260.527 69.1733 260.603 69.1891 260.679 69.184C260.755 69.179 260.829 69.1532 260.891 69.1096C261.965 68.3563 263.175 68.0029 264.521 68.0496C267.561 68.1396 271.171 66.3396 273.931 65.2696C274.578 65.0163 275.215 65.0463 275.841 65.3596C276.871 65.8696 278.101 66.0196 279.231 65.8396C279.578 65.7796 279.815 65.9163 279.941 66.2496C280.251 67.0596 279.911 67.8296 279.091 68.1296C277.465 68.7363 275.868 69.0529 274.301 69.0796C271.641 69.1096 270.021 70.8996 267.311 69.8596C266.945 69.7196 266.745 69.8463 266.711 70.2396C266.538 72.1996 267.465 73.3163 269.491 73.5896C281.531 75.2196 291.901 79.0896 302.811 84.3596C303.138 84.5263 303.485 84.5763 303.851 84.5096L305.651 84.1696C306.018 84.1029 306.361 84.1596 306.681 84.3396C307.815 84.9796 309.018 85.3496 310.291 85.4496C310.898 85.4963 310.945 85.3529 310.431 85.0196C310.025 84.7596 309.648 84.4396 309.301 84.0596C308.801 83.5129 308.711 82.9729 309.031 82.4396C309.245 82.0863 309.615 81.8963 310.141 81.8696C312.961 81.7229 314.541 83.0696 314.881 85.9096C314.899 86.0527 314.882 86.198 314.831 86.3327C314.779 86.4675 314.696 86.5876 314.587 86.6824C314.478 86.7772 314.348 86.8438 314.208 86.8765C314.067 86.9091 313.921 86.9068 313.781 86.8696ZM262.289 72.5779C262.3 72.5052 262.283 72.4289 262.239 72.3533C262.194 72.2777 262.124 72.2043 262.031 72.1373C261.938 72.0703 261.824 72.011 261.697 71.9627C261.569 71.9145 261.43 71.8783 261.287 71.8562C261.144 71.8341 261.001 71.8265 260.865 71.8339C260.728 71.8413 260.602 71.8635 260.493 71.8993C260.384 71.935 260.295 71.9836 260.23 72.0423C260.165 72.101 260.126 72.1686 260.114 72.2413C260.103 72.314 260.12 72.3903 260.164 72.4659C260.209 72.5415 260.279 72.6149 260.372 72.6819C260.465 72.7489 260.579 72.8083 260.706 72.8565C260.834 72.9047 260.973 72.9409 261.116 72.963C261.259 72.9851 261.402 72.9927 261.538 72.9853C261.675 72.9779 261.801 72.9557 261.91 72.9199C262.018 72.8842 262.108 72.8356 262.173 72.7769C262.238 72.7182 262.277 72.6506 262.289 72.5779ZM238.141 98.2196C242.401 97.1129 247.148 96.3663 252.381 95.9796C252.815 95.9529 253.031 95.7196 253.031 95.2796L253.021 80.5496C253.021 80.1963 252.845 80.0296 252.491 80.0496C231.151 81.3029 212.611 88.9063 196.871 102.86C196.794 102.927 196.732 103.01 196.689 103.103C196.645 103.196 196.621 103.297 196.619 103.4C196.616 103.503 196.634 103.606 196.672 103.702C196.711 103.798 196.768 103.886 196.841 103.96L206.971 114.09C207.12 114.241 207.322 114.329 207.534 114.336C207.746 114.344 207.952 114.27 208.111 114.13C216.878 106.443 226.888 101.14 238.141 98.2196ZM279.571 94.5496C280.698 95.6829 281.881 96.8529 283.121 98.0596C284.371 99.2696 285.971 100.08 287.511 100.87C287.805 101.016 287.978 101.256 288.031 101.59C288.298 103.323 289.321 104.133 291.101 104.02C291.495 104 291.761 103.803 291.901 103.43C292.095 102.91 292.471 102.643 293.031 102.63C293.378 102.616 293.601 102.776 293.701 103.11C294.055 104.323 294.791 105.3 295.911 106.04C296.391 106.353 296.548 106.236 296.381 105.69C296.055 104.623 295.425 103.646 294.491 102.76C294.085 102.373 294.068 101.97 294.441 101.55L294.681 101.28C294.767 101.185 294.884 101.125 295.01 101.112C295.136 101.099 295.262 101.134 295.361 101.21C296.941 102.41 298.325 103.926 299.511 105.76C300.278 106.953 301.348 107.436 302.721 107.21C302.805 107.195 302.883 107.162 302.952 107.113C303.021 107.064 303.078 107 303.119 106.926C303.16 106.853 303.184 106.771 303.19 106.687C303.195 106.603 303.182 106.518 303.151 106.44C302.081 103.69 302.291 100.66 300.841 98.1796C299.621 96.0896 299.261 93.9996 297.461 92.1696C295.471 90.1396 293.901 88.0196 291.101 86.8696C281.455 82.9029 271.395 80.6363 260.921 80.0696C260.501 80.0429 260.291 80.2396 260.291 80.6596L260.261 95.3196C260.261 95.7663 260.485 96.0029 260.931 96.0296C269.365 96.4963 277.628 98.4463 285.721 101.88C285.935 101.973 286.081 101.913 286.161 101.7L286.351 101.21C286.362 101.184 286.367 101.156 286.365 101.128C286.364 101.1 286.356 101.072 286.343 101.046C286.33 101.021 286.311 100.998 286.289 100.98C286.266 100.962 286.24 100.948 286.211 100.94C282.311 99.8529 279.955 97.8063 279.141 94.7996C278.975 94.1729 279.118 94.0896 279.571 94.5496ZM160.251 164.31C160.991 141.64 170.521 119.92 185.861 103.43C186.101 103.17 186.095 102.913 185.841 102.66L175.441 92.2596C175.181 92.0063 174.928 92.0129 174.681 92.2796C155.788 112.653 145.665 136.6 144.311 164.12C144.306 164.228 144.323 164.336 144.361 164.438C144.4 164.539 144.459 164.631 144.535 164.708C144.612 164.786 144.703 164.846 144.804 164.886C144.905 164.926 145.013 164.944 145.121 164.94C150.108 164.753 154.941 164.74 159.621 164.9C159.702 164.902 159.781 164.889 159.856 164.861C159.932 164.833 160 164.79 160.059 164.735C160.117 164.68 160.164 164.615 160.197 164.542C160.231 164.469 160.249 164.39 160.251 164.31ZM352.521 161.28C352.568 162.32 352.691 163.323 352.891 164.29C352.958 164.596 353.148 164.75 353.461 164.75L368.031 164.73C368.15 164.73 368.267 164.706 368.376 164.659C368.485 164.612 368.584 164.544 368.665 164.457C368.746 164.371 368.809 164.269 368.85 164.158C368.891 164.047 368.908 163.928 368.901 163.81C367.381 136.176 357.195 112.25 338.341 92.0296C338.168 91.8429 337.991 91.8396 337.811 92.0196L326.051 103.78C325.478 104.353 325.495 104.91 326.101 105.45C330.075 109.01 333.971 113.22 337.791 118.08C341.218 122.446 344.011 127.48 346.171 133.18C349.958 143.173 352.075 152.54 352.521 161.28ZM252.561 119.04C252.875 119.013 253.031 118.84 253.031 118.52L253.021 103.54C253.022 103.491 253.012 103.443 252.993 103.398C252.974 103.354 252.946 103.314 252.911 103.281C252.876 103.248 252.835 103.223 252.791 103.207C252.746 103.191 252.699 103.185 252.651 103.19C237.578 104.263 224.381 109.666 213.061 119.4C212.775 119.64 212.765 119.893 213.031 120.16L223.331 130.44C223.454 130.563 223.619 130.636 223.794 130.645C223.97 130.655 224.143 130.599 224.281 130.49C232.395 123.763 241.821 119.946 252.561 119.04ZM264.721 103.59C263.435 103.423 262.118 103.323 260.771 103.29C260.425 103.276 260.251 103.443 260.251 103.79V118.46C260.251 118.826 260.435 119.03 260.801 119.07C271.301 120.076 280.595 123.943 288.681 130.67C288.807 130.774 288.967 130.828 289.132 130.821C289.296 130.813 289.453 130.745 289.571 130.63L300.121 120.06C300.162 120.019 300.194 119.97 300.215 119.917C300.236 119.863 300.246 119.805 300.243 119.748C300.24 119.69 300.225 119.634 300.199 119.583C300.173 119.531 300.136 119.486 300.091 119.45C289.611 110.556 277.821 105.27 264.721 103.59ZM305.391 107.54C305.101 107.727 304.882 108.006 304.77 108.332C304.658 108.659 304.658 109.014 304.771 109.34L305.441 111.25C305.523 111.489 305.663 111.704 305.848 111.876C306.032 112.048 306.257 112.173 306.501 112.238C306.745 112.303 307.001 112.307 307.247 112.25C307.493 112.193 307.721 112.076 307.911 111.91L310.231 109.87C310.388 109.732 310.516 109.564 310.606 109.376C310.696 109.187 310.746 108.982 310.755 108.774C310.763 108.565 310.729 108.357 310.655 108.162C310.58 107.967 310.467 107.789 310.321 107.64L309.221 106.51C308.972 106.256 308.643 106.096 308.289 106.058C307.935 106.02 307.579 106.105 307.281 106.3L305.391 107.54ZM190.941 108.67C176.701 123.93 168.731 143.21 167.411 164.22C167.406 164.298 167.417 164.376 167.443 164.45C167.469 164.524 167.51 164.592 167.564 164.649C167.617 164.706 167.682 164.752 167.754 164.783C167.826 164.814 167.903 164.83 167.981 164.83H182.981C183.098 164.83 183.211 164.786 183.297 164.706C183.382 164.626 183.434 164.516 183.441 164.4C184.535 147.386 190.765 132.586 202.131 120C202.266 119.851 202.339 119.657 202.336 119.458C202.332 119.259 202.252 119.069 202.111 118.93L191.841 108.65C191.782 108.59 191.711 108.543 191.633 108.511C191.555 108.479 191.471 108.464 191.387 108.466C191.303 108.468 191.22 108.487 191.143 108.522C191.067 108.557 190.998 108.607 190.941 108.67ZM328.431 150.31C328.451 150.643 328.465 150.99 328.471 151.35C328.478 152.33 328.298 153.183 327.931 153.91C327.571 154.63 327.681 155.273 328.261 155.84C328.595 156.173 328.788 156.576 328.841 157.05L329.601 164.18C329.619 164.332 329.692 164.472 329.806 164.573C329.921 164.675 330.068 164.731 330.221 164.73H344.951C345.025 164.73 345.099 164.715 345.167 164.686C345.235 164.657 345.296 164.615 345.348 164.562C345.399 164.508 345.439 164.445 345.465 164.376C345.492 164.307 345.504 164.234 345.501 164.16C345.008 153.68 342.655 143.493 338.441 133.6C338.409 133.521 338.359 133.451 338.296 133.394C338.233 133.337 338.158 133.294 338.076 133.269C337.994 133.245 337.907 133.238 337.822 133.25C337.736 133.262 337.654 133.293 337.581 133.34C336.895 133.78 336.148 134.01 335.341 134.03C334.981 134.043 334.701 133.896 334.501 133.59C331.261 128.55 327.891 125.98 322.971 123.39C321.071 122.4 319.511 120.78 318.101 119.2C317.808 118.873 317.445 118.7 317.011 118.68L315.931 118.62C315.728 118.61 315.53 118.552 315.354 118.449C315.178 118.346 315.03 118.202 314.921 118.03C314.608 117.543 314.195 117.156 313.681 116.87C313.321 116.663 313.011 116.723 312.751 117.05L311.051 119.19C310.818 119.49 310.821 119.786 311.061 120.08C313.861 123.42 316.495 126.77 318.961 130.13C320.991 132.9 321.901 136.14 323.621 139.14C323.901 139.633 324.071 139.596 324.131 139.03C324.198 138.383 324.608 137.95 325.361 137.73C325.498 137.689 325.644 137.692 325.778 137.739C325.913 137.785 326.029 137.873 326.111 137.99C327.781 140.34 328.161 144.38 328.831 147.21C328.869 147.369 328.87 147.534 328.835 147.694C328.8 147.854 328.729 148.003 328.629 148.132C328.528 148.261 328.399 148.365 328.253 148.437C328.106 148.51 327.945 148.548 327.781 148.55C325.888 148.563 324.891 149.696 324.791 151.95C324.771 152.45 324.845 152.463 325.011 151.99C325.371 150.983 326.005 150.176 326.911 149.57C327.851 148.936 328.358 149.183 328.431 150.31ZM208.751 150.22C209.531 149.64 210.271 148.99 210.701 148.09C212.808 143.663 215.441 139.636 218.601 136.01C218.671 135.928 218.708 135.823 218.704 135.716C218.7 135.608 218.657 135.506 218.581 135.43L208.111 124.91C207.851 124.65 207.601 124.66 207.361 124.94C197.348 136.306 191.795 149.316 190.701 163.97C190.655 164.57 190.931 164.866 191.531 164.86L198.651 164.8C198.874 164.798 199.088 164.713 199.251 164.561C199.414 164.409 199.514 164.202 199.531 163.98C199.651 162.65 199.211 161.62 199.861 160.33C200.961 158.123 202.155 156.013 203.441 154C203.661 153.653 203.975 153.486 204.381 153.5C205.708 153.54 206.928 153.273 208.041 152.7C208.475 152.473 208.618 152.13 208.471 151.67L208.381 151.36C208.317 151.156 208.318 150.937 208.384 150.732C208.45 150.528 208.579 150.349 208.751 150.22ZM302.081 141.72C301.961 142.713 301.471 143.146 300.611 143.02C300.265 142.973 300.075 143.12 300.041 143.46L300.011 143.73C300.009 143.751 300.01 143.773 300.017 143.793C300.023 143.814 300.033 143.833 300.048 143.849C300.062 143.865 300.079 143.878 300.099 143.887C300.119 143.895 300.14 143.9 300.161 143.9C304.911 144.16 304.661 148.59 308.711 149.75C308.777 149.768 308.838 149.799 308.891 149.842C308.944 149.884 308.989 149.936 309.021 149.996C309.054 150.056 309.074 150.121 309.081 150.189C309.088 150.256 309.081 150.325 309.061 150.39C308.901 150.903 308.558 151.27 308.031 151.49C307.685 151.636 307.598 151.876 307.771 152.21C307.891 152.45 308.088 152.593 308.361 152.64C308.493 152.66 308.629 152.64 308.749 152.58C308.868 152.521 308.967 152.427 309.031 152.31C310.441 149.69 312.721 147.67 315.701 150C317.415 151.333 317.471 153.193 315.871 155.58C315.717 155.805 315.653 156.083 315.691 156.36C315.785 157.073 316.031 157.456 316.431 157.51C317.358 157.636 318.068 157.316 318.561 156.55C319.461 155.15 320.401 153.693 321.381 152.18C321.608 151.84 321.561 151.543 321.241 151.29C320.381 150.6 319.731 150 319.401 148.91C318.471 145.91 317.131 140.35 313.611 139.55C313.145 139.443 313.018 139.173 313.231 138.74L313.801 137.56C313.961 137.233 313.958 136.91 313.791 136.59C311.691 132.596 308.985 128.746 305.671 125.04C305.613 124.975 305.543 124.923 305.464 124.887C305.386 124.85 305.301 124.83 305.215 124.827C305.129 124.824 305.043 124.839 304.964 124.87C304.884 124.902 304.812 124.949 304.751 125.01L294.341 135.49C294.061 135.77 294.051 136.06 294.311 136.36L298.691 141.35C298.784 141.454 298.9 141.534 299.029 141.583C299.158 141.632 299.296 141.648 299.431 141.63L301.681 141.32C301.988 141.28 302.121 141.413 302.081 141.72ZM251.421 139.73L252.371 139.4C252.798 139.253 253.011 138.956 253.011 138.51L253.031 126.54C253.032 126.494 253.022 126.449 253.004 126.407C252.986 126.365 252.96 126.328 252.927 126.298C252.893 126.268 252.854 126.245 252.812 126.231C252.77 126.218 252.725 126.214 252.681 126.22C243.808 127.14 235.975 130.336 229.181 135.81C228.995 135.963 228.985 136.123 229.151 136.29L241.711 148.84C242.098 149.226 242.495 149.233 242.901 148.86C244.231 147.6 245.241 148.35 246.031 145.89C246.618 144.09 248.088 142.22 250.441 140.28C250.735 140.04 251.061 139.856 251.421 139.73ZM274.631 138.55C276.331 138.263 277.805 138.316 279.051 138.71C279.305 138.79 279.528 138.74 279.721 138.56L282.651 135.79C282.701 135.743 282.74 135.686 282.766 135.623C282.792 135.559 282.804 135.492 282.801 135.424C282.798 135.356 282.781 135.291 282.75 135.231C282.719 135.172 282.675 135.12 282.621 135.08C276.081 130.093 268.725 127.163 260.551 126.29C260.515 126.285 260.478 126.289 260.443 126.3C260.408 126.311 260.375 126.33 260.348 126.354C260.32 126.379 260.299 126.409 260.284 126.443C260.269 126.476 260.261 126.513 260.261 126.55L260.241 141.23C260.241 141.335 260.265 141.439 260.311 141.533C260.357 141.628 260.424 141.711 260.507 141.775C260.59 141.84 260.687 141.885 260.79 141.906C260.893 141.928 261 141.926 261.101 141.9C261.915 141.7 262.708 141.76 263.481 142.08C263.821 142.22 264.145 142.19 264.451 141.99C266.891 140.423 270.285 139.276 274.631 138.55ZM276.131 139.63C274.178 139.656 272.105 139.796 269.911 140.05C269.671 140.078 269.448 140.185 269.276 140.354C269.104 140.522 268.993 140.742 268.961 140.98L268.711 142.97C268.684 143.176 268.606 143.372 268.486 143.541C268.366 143.71 268.206 143.847 268.021 143.94L263.981 145.97C263.615 146.15 263.535 146.42 263.741 146.78L263.911 147.07C264.005 147.23 264.128 147.26 264.281 147.16C267.441 145.23 268.441 146.24 271.011 148.16C271.153 148.266 271.319 148.335 271.495 148.36C271.67 148.385 271.849 148.365 272.015 148.302C272.181 148.239 272.328 148.135 272.443 148C272.557 147.865 272.636 147.703 272.671 147.53C273.338 144.256 274.728 142.3 276.841 141.66C277.341 141.513 277.455 141.22 277.181 140.78C276.995 140.48 276.911 140.15 276.931 139.79C276.933 139.725 276.92 139.661 276.891 139.603C276.863 139.544 276.821 139.494 276.769 139.456C276.717 139.417 276.656 139.392 276.592 139.382C276.528 139.373 276.463 139.379 276.401 139.4C276.281 139.44 276.191 139.516 276.131 139.63ZM251.951 140.19L250.871 141.43C250.545 141.796 250.625 142.013 251.111 142.08C251.751 142.166 252.305 142.03 252.771 141.67C253.065 141.443 253.195 141.136 253.161 140.75C253.148 140.603 253.111 140.466 253.051 140.34C252.758 139.733 252.391 139.683 251.951 140.19ZM223.411 141.46L220.711 144.99C220.151 145.723 220.331 146.043 221.251 145.95C223.931 145.67 226.341 146.586 228.481 148.7C228.813 149.028 229.218 149.272 229.663 149.413C230.108 149.554 230.58 149.587 231.041 149.51L231.531 149.42C232.098 149.326 232.181 149.076 231.781 148.67L224.571 141.38C224.158 140.96 223.771 140.986 223.411 141.46ZM326.333 146.088C326.424 146.059 326.43 145.779 326.349 145.31C326.269 144.842 326.109 144.222 325.904 143.589C325.803 143.275 325.694 142.968 325.583 142.683C325.472 142.399 325.362 142.144 325.258 141.932C325.155 141.721 325.06 141.557 324.98 141.45C324.899 141.344 324.835 141.297 324.79 141.311C324.699 141.34 324.693 141.62 324.774 142.089C324.854 142.558 325.014 143.177 325.219 143.81C325.32 144.124 325.429 144.432 325.54 144.716C325.651 145 325.761 145.255 325.865 145.467C325.968 145.678 326.063 145.842 326.143 145.949C326.223 146.055 326.288 146.103 326.333 146.088ZM291.091 149.78L291.341 149.41C291.356 149.389 291.364 149.365 291.364 149.34C291.364 149.314 291.356 149.29 291.341 149.27C290.401 147.863 290.611 146.83 291.971 146.17C292.205 146.056 292.301 145.873 292.261 145.62C292.181 145.013 291.858 144.536 291.291 144.19C290.938 143.976 290.648 144.04 290.421 144.38C289.321 146.033 289.448 147.836 290.801 149.79C290.895 149.93 290.991 149.926 291.091 149.78ZM245.371 160.25C246.971 161.643 248.058 163.246 248.631 165.06C248.998 166.233 249.715 167.27 250.781 168.17C251.311 168.62 251.711 169.36 251.851 170.05C251.925 170.39 252.125 170.626 252.451 170.76C254.891 171.786 255.585 173.676 254.531 176.43C253.771 178.43 252.948 180.29 252.061 182.01C251.926 182.272 251.73 182.499 251.49 182.671C251.25 182.844 250.973 182.956 250.681 183L244.611 183.91C244.546 183.919 244.486 183.949 244.438 183.994C244.39 184.039 244.357 184.098 244.344 184.162C244.331 184.227 244.338 184.294 244.365 184.354C244.391 184.415 244.435 184.465 244.491 184.5L248.051 186.7C248.418 186.926 248.701 186.846 248.901 186.46C249.068 186.146 249.085 185.816 248.951 185.47C248.904 185.354 248.893 185.227 248.921 185.105C248.949 184.983 249.014 184.873 249.108 184.789C249.202 184.705 249.319 184.651 249.445 184.635C249.571 184.619 249.699 184.642 249.811 184.7C250.761 185.2 252.311 185.02 252.891 185.53C253.218 185.816 253.328 186.17 253.221 186.59C253.175 186.79 253.091 186.97 252.971 187.13C252.878 187.256 252.781 187.38 252.681 187.5C252.235 188.02 252.355 188.296 253.041 188.33L257.821 188.54C258.334 188.561 258.836 188.387 259.225 188.053C259.615 187.719 259.864 187.25 259.921 186.74C260.148 184.7 260.941 182.84 262.301 181.16C262.518 180.896 262.808 180.701 263.135 180.602C263.463 180.502 263.813 180.501 264.141 180.6C265.361 180.966 266.555 180.976 267.721 180.63C268.068 180.527 268.361 180.294 268.541 179.98C269.541 178.2 270.591 175.92 269.201 174.11C268.651 173.39 268.501 172.26 269.071 171.5C269.258 171.24 269.258 170.98 269.071 170.72L266.691 167.41C266.576 167.251 266.412 167.135 266.225 167.077C266.037 167.019 265.836 167.024 265.651 167.09L264.281 167.57C263.701 167.776 263.625 167.656 264.051 167.21C265.145 166.063 266.068 164.746 266.821 163.26C266.968 162.966 267.005 162.663 266.931 162.35L266.341 159.78C266.255 159.393 266.038 159.106 265.691 158.92C265.005 158.533 264.398 158.013 263.871 157.36C262.071 155.126 260.068 153.92 257.861 153.74C256.915 153.66 256.065 153.303 255.311 152.67C254.425 151.923 253.865 151.17 253.631 150.41C252.985 148.35 252.698 148.396 252.771 150.55C252.791 151.143 252.885 151.72 253.051 152.28C253.165 152.673 253.108 153.04 252.881 153.38C251.541 155.42 249.101 156.43 246.771 157.07C245.671 157.38 245.071 158.19 244.701 159.23C244.593 159.518 244.377 159.751 244.101 159.88C243.321 160.233 242.671 160.783 242.151 161.53C241.865 161.943 241.975 162.15 242.481 162.15L244.251 162.14C244.618 162.14 244.758 161.963 244.671 161.61C244.585 161.203 244.621 160.8 244.781 160.4C244.908 160.073 245.105 160.023 245.371 160.25ZM322.731 156.27C322.438 156.77 322.528 156.853 323.001 156.52C323.715 156.026 324.121 155.2 324.221 154.04C324.241 153.826 324.195 153.81 324.081 153.99L322.731 156.27ZM322.121 162.22L321.791 158.48C321.718 157.593 321.435 157.52 320.941 158.26L320.201 159.37C320.126 159.486 320.026 159.586 319.909 159.661C319.792 159.737 319.66 159.788 319.521 159.81L314.961 160.53C314.793 160.556 314.632 160.62 314.49 160.716C314.349 160.812 314.231 160.938 314.144 161.085C314.057 161.232 314.003 161.397 313.987 161.567C313.972 161.737 313.993 161.909 314.051 162.07C314.285 162.736 314.308 163.423 314.121 164.13C314.021 164.483 314.158 164.676 314.531 164.71C316.618 164.863 318.571 164.783 320.391 164.47C321.658 164.256 322.235 163.506 322.121 162.22ZM202.861 164.96L209.041 164.71C209.077 164.707 209.11 164.691 209.134 164.665C209.158 164.639 209.172 164.605 209.171 164.57V164.53C209.16 164.222 209.075 163.921 208.922 163.642C208.769 163.364 208.551 163.114 208.28 162.907C208.008 162.699 207.69 162.539 207.342 162.435C206.994 162.331 206.623 162.285 206.251 162.3L205.451 162.34C204.703 162.371 203.994 162.646 203.483 163.105C202.971 163.565 202.697 164.17 202.721 164.79V164.83C202.724 164.865 202.74 164.898 202.766 164.922C202.792 164.946 202.826 164.96 202.861 164.96ZM245.371 166.3C245.318 165.793 245.168 165.28 244.921 164.76C244.808 164.52 244.625 164.436 244.371 164.51C243.525 164.756 242.671 164.876 241.811 164.87C241.613 164.869 241.419 164.934 241.26 165.055C241.102 165.176 240.986 165.346 240.931 165.54C240.838 165.866 240.855 166.19 240.981 166.51C241.101 166.83 241.301 166.886 241.581 166.68C241.841 166.486 242.141 166.37 242.481 166.33C242.775 166.303 242.995 166.416 243.141 166.67C243.355 167.056 243.501 167.463 243.581 167.89C243.596 167.964 243.626 168.034 243.67 168.095C243.714 168.156 243.771 168.207 243.836 168.244C243.902 168.281 243.975 168.304 244.05 168.31C244.125 168.316 244.201 168.306 244.271 168.28L244.731 168.11C244.855 168.062 244.99 168.052 245.119 168.083C245.248 168.115 245.364 168.184 245.453 168.283C245.541 168.382 245.596 168.506 245.612 168.638C245.628 168.769 245.604 168.902 245.541 169.02L241.351 177.19C241.218 177.456 241.001 177.593 240.701 177.6C240.388 177.613 240.085 177.55 239.791 177.41C238.665 176.883 238.388 177.17 238.961 178.27C239.248 178.816 239.608 179.32 240.041 179.78C240.087 179.829 240.144 179.867 240.206 179.892C240.269 179.917 240.336 179.927 240.403 179.922C240.471 179.918 240.536 179.898 240.594 179.864C240.653 179.831 240.703 179.785 240.741 179.73C241.781 178.23 242.991 176.943 244.371 175.87C244.665 175.635 244.88 175.322 244.991 174.97C245.678 172.716 246.768 170.643 248.261 168.75C248.528 168.41 248.535 168.063 248.281 167.71L247.411 166.5C247.382 166.461 247.363 166.416 247.357 166.368C247.351 166.32 247.358 166.271 247.377 166.225C247.396 166.18 247.427 166.14 247.466 166.109C247.506 166.078 247.552 166.058 247.601 166.05C247.701 166.036 247.795 166.003 247.881 165.95C248.361 165.67 248.331 165.45 247.791 165.29C247.158 165.11 246.545 165.176 245.951 165.49C245.903 165.514 245.861 165.548 245.828 165.591C245.795 165.633 245.771 165.682 245.759 165.734C245.746 165.787 245.746 165.841 245.756 165.894C245.767 165.947 245.789 165.996 245.821 166.04C245.935 166.193 245.928 166.33 245.801 166.45C245.548 166.71 245.405 166.66 245.371 166.3ZM235.571 170.16C235.891 168.9 236.591 168.77 237.011 167.88C237.058 167.78 237.071 167.676 237.051 167.57C236.951 167.123 236.688 166.983 236.261 167.15C235.408 167.483 234.545 167.42 233.671 166.96C233.463 166.849 233.234 166.784 232.998 166.768C232.763 166.753 232.527 166.787 232.306 166.869C232.085 166.951 231.884 167.079 231.716 167.245C231.548 167.411 231.417 167.61 231.331 167.83L229.971 171.37C229.838 171.716 229.595 171.95 229.241 172.07C229.001 172.15 228.778 172.276 228.571 172.45C228.502 172.511 228.453 172.592 228.429 172.681C228.406 172.771 228.409 172.865 228.439 172.953C228.469 173.04 228.524 173.117 228.597 173.173C228.671 173.23 228.759 173.263 228.851 173.27C229.138 173.283 229.368 173.19 229.541 172.99C229.821 172.69 230.168 172.56 230.581 172.6C232.661 172.82 234.825 172.603 237.071 171.95C237.573 171.806 238.107 171.82 238.601 171.99C238.908 172.096 239.185 172.253 239.431 172.46C239.553 172.564 239.704 172.627 239.862 172.639C240.02 172.652 240.178 172.613 240.311 172.53C240.618 172.336 240.798 172.063 240.851 171.71C240.911 171.256 240.715 171.046 240.261 171.08C239.288 171.153 238.471 170.873 237.811 170.24C237.605 170.04 237.415 170.053 237.241 170.28C236.955 170.66 236.561 170.836 236.061 170.81C235.984 170.806 235.908 170.785 235.84 170.749C235.771 170.712 235.711 170.661 235.664 170.599C235.618 170.537 235.585 170.466 235.569 170.39C235.553 170.314 235.554 170.235 235.571 170.16ZM240.751 168.02C240.658 168.32 240.615 168.613 240.621 168.9C240.641 169.486 240.871 169.586 241.311 169.2C241.465 169.06 241.645 168.953 241.851 168.88C242.231 168.746 242.298 168.52 242.051 168.2C241.951 168.073 241.838 167.946 241.711 167.82C241.258 167.38 240.938 167.446 240.751 168.02ZM251.76 170.481C251.754 170.442 251.721 170.408 251.663 170.38C251.604 170.352 251.522 170.331 251.421 170.318C251.319 170.305 251.201 170.301 251.071 170.305C250.942 170.309 250.804 170.322 250.667 170.343C250.389 170.385 250.127 170.457 249.939 170.542C249.751 170.627 249.651 170.719 249.663 170.798C249.669 170.837 249.702 170.872 249.76 170.9C249.818 170.928 249.901 170.949 250.002 170.961C250.104 170.974 250.222 170.979 250.352 170.974C250.481 170.97 250.619 170.957 250.756 170.936C251.034 170.894 251.296 170.823 251.484 170.737C251.672 170.652 251.771 170.56 251.76 170.481ZM150.501 202.6C150.701 202.966 150.965 203.263 151.291 203.49C151.351 203.529 151.418 203.555 151.489 203.565C151.559 203.574 151.631 203.568 151.698 203.546C151.765 203.523 151.825 203.486 151.874 203.436C151.924 203.387 151.96 203.326 151.981 203.26C152.135 202.813 152.055 202.4 151.741 202.02C150.141 200.08 150.118 198.006 151.671 195.8C151.825 195.58 152.035 195.483 152.301 195.51C152.548 195.536 152.751 195.643 152.911 195.83C153.198 196.15 153.148 196.41 152.761 196.61C152.248 196.87 151.841 197.193 151.541 197.58C151.255 197.953 151.345 198.116 151.811 198.07C154.151 197.84 153.441 195.32 155.171 194.53C155.485 194.383 155.791 194.393 156.091 194.56C156.785 194.953 156.988 195.53 156.701 196.29C156.501 196.83 156.671 197.196 157.211 197.39C157.425 197.463 157.645 197.463 157.871 197.39C158.247 197.273 158.572 197.029 158.791 196.7C160.091 194.753 161.748 194.34 163.761 195.46C163.802 195.482 163.847 195.491 163.893 195.487C163.939 195.483 163.982 195.465 164.017 195.436C164.053 195.407 164.079 195.368 164.092 195.324C164.105 195.28 164.105 195.233 164.091 195.19C161.765 187.85 160.468 179.963 160.201 171.53C160.199 171.423 160.155 171.321 160.078 171.246C160.001 171.171 159.898 171.13 159.791 171.13L144.761 171.12C144.448 171.12 144.298 171.276 144.311 171.59C144.658 181.89 146.358 191.833 149.411 201.42C149.511 201.72 149.715 201.953 150.021 202.12C150.224 202.231 150.391 202.397 150.501 202.6ZM175.481 196.08C177.121 195.986 177.855 195.063 177.681 193.31C177.261 188.983 178.358 185.316 180.971 182.31C181.958 181.17 182.868 179.89 183.701 178.47C183.868 178.183 183.938 177.873 183.911 177.54L183.381 171.74C183.348 171.34 183.131 171.14 182.731 171.14L167.971 171.1C167.618 171.1 167.448 171.273 167.461 171.62C167.775 179.986 169.258 188.153 171.911 196.12C171.985 196.348 172.143 196.541 172.352 196.66C172.561 196.778 172.807 196.814 173.041 196.76C173.921 196.57 174.561 196.14 175.481 196.08ZM190.701 171.58C190.701 174.33 191.101 177.15 191.501 179.91C191.648 180.956 192.321 181.323 193.521 181.01C193.688 180.968 193.84 180.883 193.964 180.764C194.087 180.645 194.177 180.496 194.226 180.331C194.274 180.165 194.279 179.99 194.239 179.821C194.2 179.653 194.118 179.497 194.001 179.37C193.331 178.64 193.111 178.12 193.291 177.09C193.665 174.943 194.328 173.106 195.281 171.58C195.508 171.213 195.405 171.033 194.971 171.04H191.231C190.878 171.046 190.701 171.226 190.701 171.58ZM206.321 195.61C206.975 195.056 207.178 194.383 206.931 193.59C206.178 191.17 205.131 188.703 203.791 186.19C203.165 185.01 202.955 183.8 203.161 182.56C203.208 182.253 203.138 181.976 202.951 181.73L201.481 179.83C201.408 179.735 201.361 179.622 201.348 179.503C201.334 179.384 201.354 179.263 201.405 179.154C201.455 179.046 201.535 178.953 201.635 178.887C201.735 178.821 201.852 178.784 201.971 178.78L203.111 178.74C203.478 178.72 203.708 178.533 203.801 178.18C204.188 176.666 204.078 175.133 203.471 173.58C203.338 173.24 203.441 173.006 203.781 172.88C204.235 172.713 204.635 172.806 204.981 173.16C205.435 173.613 205.895 174.076 206.361 174.55C206.701 174.896 207.088 174.966 207.521 174.76C208.688 174.2 209.495 173.32 209.941 172.12C209.983 172.004 209.996 171.88 209.98 171.758C209.964 171.636 209.918 171.519 209.848 171.418C209.777 171.318 209.684 171.235 209.575 171.178C209.466 171.121 209.345 171.09 209.221 171.09L201.031 171.15C200.485 171.15 200.191 171.423 200.151 171.97L200.001 174.03C199.986 174.225 199.92 174.412 199.809 174.574C199.699 174.735 199.548 174.865 199.371 174.95C198.798 175.223 198.171 175.343 197.491 175.31C197.172 175.295 196.855 175.369 196.575 175.522C196.294 175.675 196.061 175.901 195.9 176.177C195.74 176.454 195.658 176.768 195.663 177.088C195.669 177.407 195.761 177.719 195.931 177.99C196.465 178.836 196.655 179.78 196.501 180.82C196.47 181.033 196.485 181.251 196.546 181.458C196.606 181.665 196.71 181.857 196.851 182.02C198.241 183.63 199.491 185.38 200.091 187.46C200.871 190.166 201.878 192.86 203.111 195.54C203.246 195.828 203.482 196.054 203.771 196.17C204.065 196.283 204.365 196.316 204.671 196.27C205.278 196.183 205.348 196.303 204.881 196.63L203.421 197.67C203.276 197.774 203.152 197.907 203.058 198.062C202.964 198.216 202.9 198.389 202.871 198.57C202.571 200.696 202.878 202.536 203.791 204.09C205.071 206.26 205.981 207.98 205.751 210.66C205.725 211 205.578 211.28 205.311 211.5C204.771 211.966 204.265 212.45 203.791 212.95C202.978 213.803 203.158 214.163 204.331 214.03C205.741 213.88 206.461 212.62 207.391 211.69C210.865 208.25 214.368 204.77 217.901 201.25C218.195 200.956 218.208 200.646 217.941 200.32C213.181 194.526 209.528 187.413 206.981 178.98C206.881 178.633 206.945 178.32 207.171 178.04C207.331 177.846 207.411 177.62 207.411 177.36C207.418 177.033 207.258 176.84 206.931 176.78C206.798 176.753 206.671 176.763 206.551 176.81C206.098 176.99 205.981 177.293 206.201 177.72C206.475 178.253 206.451 178.743 206.131 179.19C205.946 179.449 205.843 179.759 205.836 180.078C205.828 180.398 205.918 180.712 206.091 180.98C206.538 181.66 206.478 182.273 205.911 182.82C205.625 183.1 205.561 183.426 205.721 183.8C205.981 184.39 206.261 185.02 206.241 185.68C206.155 188.306 206.571 190.84 207.491 193.28C207.891 194.32 207.461 195.37 206.451 195.82C205.931 196.046 205.888 195.976 206.321 195.61ZM317.671 178.45C318.771 177.503 319.961 177.353 321.241 178C321.308 178.033 321.382 178.05 321.456 178.049C321.53 178.047 321.603 178.028 321.667 177.992C321.732 177.957 321.786 177.906 321.825 177.844C321.864 177.783 321.887 177.712 321.891 177.64L322.381 171.73C322.421 171.256 322.205 171.016 321.731 171.01L311.721 171C311.128 171 310.961 171.266 311.221 171.8L313.791 176.97C313.98 177.347 314.281 177.654 314.651 177.85L317.121 179.13C317.181 179.163 317.238 179.16 317.291 179.12C317.391 179.053 317.445 178.966 317.451 178.86C317.471 178.693 317.545 178.556 317.671 178.45ZM316.861 218.97C318.908 218.936 320.201 220 320.741 222.16C321.168 223.86 321.578 225.63 321.971 227.47C321.988 227.544 322.025 227.612 322.077 227.666C322.13 227.721 322.197 227.76 322.271 227.778C322.345 227.797 322.422 227.795 322.494 227.772C322.567 227.749 322.632 227.707 322.681 227.65C336.771 211.82 344.581 192.65 345.551 171.6C345.565 171.206 345.375 171.01 344.981 171.01L330.221 171C329.848 171 329.655 171.183 329.641 171.55C328.728 188.656 322.675 203.63 311.481 216.47C311.367 216.6 311.306 216.769 311.309 216.941C311.313 217.114 311.382 217.277 311.501 217.4L314.951 220.97C315.285 221.31 315.528 221.253 315.681 220.8L316.121 219.51C316.175 219.355 316.274 219.22 316.407 219.123C316.539 219.027 316.698 218.973 316.861 218.97ZM352.811 171.62C351.911 194.65 343.121 215.87 327.681 232.92C327.609 233.002 327.57 233.109 327.574 233.219C327.578 233.328 327.623 233.432 327.701 233.51L338.381 244.12C338.428 244.166 338.483 244.203 338.544 244.227C338.605 244.251 338.67 244.263 338.736 244.261C338.801 244.259 338.866 244.244 338.925 244.216C338.985 244.188 339.038 244.149 339.081 244.1C357.808 223.326 367.748 199.17 368.901 171.63C368.906 171.551 368.894 171.472 368.866 171.398C368.839 171.325 368.797 171.257 368.743 171.2C368.688 171.143 368.623 171.097 368.551 171.066C368.478 171.035 368.4 171.02 368.321 171.02L353.441 171.01C353.035 171.01 352.825 171.213 352.811 171.62ZM273.181 171.781C273.184 171.622 273.059 171.467 272.834 171.35C272.609 171.234 272.303 171.165 271.982 171.16C271.823 171.157 271.665 171.17 271.518 171.197C271.371 171.225 271.237 171.267 271.123 171.32C271.01 171.374 270.92 171.439 270.858 171.511C270.796 171.582 270.763 171.66 270.762 171.739C270.759 171.898 270.884 172.052 271.109 172.169C271.334 172.285 271.64 172.354 271.961 172.36C272.12 172.362 272.277 172.35 272.425 172.322C272.572 172.294 272.706 172.252 272.82 172.199C272.933 172.145 273.023 172.08 273.085 172.009C273.147 171.937 273.18 171.859 273.181 171.781ZM227.591 185.93C225.581 186.17 223.621 183.6 223.201 181.96C223.146 181.738 223.019 181.542 222.84 181.401C222.661 181.259 222.44 181.182 222.211 181.18C221.118 181.166 220.328 180.683 219.841 179.73C219.635 179.316 219.305 179.076 218.851 179.01C217.618 178.81 216.458 178.803 215.371 178.99C215.31 179 215.251 179.023 215.2 179.058C215.148 179.092 215.104 179.137 215.071 179.189C215.038 179.241 215.016 179.299 215.008 179.359C214.999 179.42 215.004 179.481 215.021 179.54C216.768 185.46 219.485 190.67 223.171 195.17C223.217 195.225 223.274 195.27 223.338 195.302C223.403 195.334 223.473 195.352 223.545 195.355C223.617 195.357 223.688 195.345 223.755 195.318C223.821 195.292 223.882 195.251 223.931 195.2L229.191 189.94C229.545 189.593 229.621 189.19 229.421 188.73L228.411 186.4C228.258 186.033 227.985 185.876 227.591 185.93ZM304.471 205.97C304.865 206.156 305.158 206.556 305.351 207.17C305.685 208.263 305.971 209.326 306.211 210.36C306.232 210.447 306.277 210.526 306.341 210.589C306.405 210.652 306.485 210.696 306.572 210.716C306.66 210.736 306.751 210.731 306.836 210.701C306.92 210.672 306.995 210.619 307.051 210.55C314.338 201.63 319.045 191.87 321.171 181.27C321.345 180.376 320.978 179.96 320.071 180.02L318.441 180.13C318.015 180.163 317.951 180.33 318.251 180.63C318.958 181.336 319.225 182.123 319.051 182.99C318.971 183.39 318.731 183.623 318.331 183.69C316.078 184.063 313.898 184.7 311.791 185.6C310.811 186.02 309.821 185.84 308.831 185.58C308.378 185.46 308.041 185.606 307.821 186.02L307.451 186.7C307.285 187.013 307.028 187.196 306.681 187.25C305.641 187.43 304.955 187.033 304.621 186.06C304.461 185.593 304.305 185.593 304.151 186.06C303.371 188.42 302.181 190.753 300.581 193.06C299.971 193.94 299.091 194.18 298.151 194.56C297.751 194.713 297.445 194.976 297.231 195.35C296.211 197.103 294.675 197.906 292.621 197.76C292.215 197.733 291.998 197.923 291.971 198.33L291.951 198.59C291.931 198.896 292.075 199.053 292.381 199.06C293.668 199.086 294.985 198.83 296.331 198.29C296.925 198.043 297.318 197.613 297.511 197C299.231 191.45 304.631 194.88 303.641 199.5C302.835 203.233 301.631 206.766 300.031 210.1C299.8 210.584 299.408 210.972 298.922 211.199C298.437 211.425 297.889 211.475 297.371 211.34L283.111 207.64C282.92 207.59 282.719 207.599 282.535 207.667C282.35 207.735 282.192 207.858 282.081 208.02C281.695 208.6 281.738 208.876 282.211 208.85C282.998 208.803 283.755 208.926 284.481 209.22C288.061 210.66 291.365 211.673 294.391 212.26C295.811 212.533 297.578 212.4 299.691 211.86C300.045 211.773 300.285 211.56 300.411 211.22C301.058 209.433 301.995 207.78 303.221 206.26C303.366 206.077 303.569 205.949 303.796 205.896C304.023 205.843 304.261 205.869 304.471 205.97ZM227.851 182.69C227.565 182.916 227.398 183.24 227.351 183.66C227.338 183.766 227.355 183.874 227.4 183.971C227.445 184.068 227.516 184.151 227.606 184.209C227.696 184.268 227.8 184.3 227.907 184.302C228.014 184.303 228.12 184.275 228.211 184.22C228.691 183.933 228.785 183.473 228.491 182.84C228.464 182.782 228.425 182.732 228.376 182.693C228.327 182.653 228.269 182.625 228.208 182.61C228.146 182.596 228.082 182.596 228.021 182.609C227.959 182.623 227.901 182.65 227.851 182.69ZM231.841 186.46C231.328 187.366 231.468 187.483 232.261 186.81C232.915 186.256 233.565 185.576 234.211 184.77C234.311 184.65 234.361 184.51 234.361 184.35C234.361 184.243 234.328 184.143 234.261 184.05C234.128 183.843 233.968 183.823 233.781 183.99C233.068 184.623 232.421 185.446 231.841 186.46ZM263.201 193.6C262.521 193.066 262.048 192.2 261.781 191C261.775 190.953 261.748 190.936 261.701 190.95L261.401 191.01C261.008 191.09 260.911 191.306 261.111 191.66L262.331 193.86C262.585 194.306 262.965 194.523 263.471 194.51C265.098 194.45 265.945 193.346 266.011 191.2C266.024 190.757 265.898 190.324 265.651 189.96C265.078 189.126 264.945 188.216 265.251 187.23C265.351 186.91 265.238 186.696 264.911 186.59L264.661 186.52C264.495 186.466 264.385 186.523 264.331 186.69C263.461 189.29 265.751 190.74 264.331 193.37C264.051 193.896 263.675 193.973 263.201 193.6ZM283.891 190.46L283.651 189.92C283.285 189.073 282.981 189.096 282.741 189.99C282.555 190.71 282.735 191.31 283.281 191.79C283.741 192.19 284.275 192.336 284.881 192.23C285.921 192.05 286.751 192.353 287.371 193.14C287.771 193.646 288.208 193.683 288.681 193.25C288.788 193.143 288.875 193.023 288.941 192.89C289.168 192.436 289.085 192.053 288.691 191.74C287.645 190.906 286.385 190.653 284.911 190.98C284.425 191.086 284.085 190.913 283.891 190.46ZM253.771 200.1C253.818 199.593 253.768 199.083 253.621 198.57C253.515 198.21 253.618 197.93 253.931 197.73C254.191 197.57 254.308 197.33 254.281 197.01C254.275 196.953 254.252 196.898 254.215 196.852C254.178 196.806 254.128 196.771 254.071 196.75C253.985 196.723 253.895 196.72 253.801 196.74C253.535 196.8 253.341 196.956 253.221 197.21C253.061 197.563 252.805 197.8 252.451 197.92C251.891 198.113 251.528 197.923 251.361 197.35C251.255 196.963 251.298 196.586 251.491 196.22C251.831 195.586 251.648 195.21 250.941 195.09C247.195 194.45 243.588 192.816 240.121 190.19C239.595 189.79 239.095 189.823 238.621 190.29L228.791 200.07C228.731 200.129 228.685 200.201 228.654 200.28C228.623 200.359 228.609 200.444 228.613 200.528C228.617 200.613 228.638 200.696 228.676 200.772C228.713 200.848 228.766 200.915 228.831 200.97C234.698 205.83 241.411 208.983 248.971 210.43C249.851 210.596 250.678 210.686 251.451 210.7C252.718 210.726 252.815 210.406 251.741 209.74L250.881 209.21C250.535 209.003 250.368 208.696 250.381 208.29C250.461 206.37 249.981 202.29 253.491 203.18C253.998 203.306 254.445 203.196 254.831 202.85C254.918 202.763 254.991 202.67 255.051 202.57C255.159 202.385 255.192 202.167 255.143 201.96C255.095 201.753 254.969 201.574 254.791 201.46L254.261 201.1C253.901 200.866 253.738 200.533 253.771 200.1ZM274.921 197.23C274.904 197.217 274.884 197.209 274.862 197.207C274.841 197.205 274.819 197.209 274.8 197.218C274.78 197.228 274.764 197.242 274.752 197.26C274.74 197.277 274.733 197.298 274.731 197.32C274.725 198.806 274.328 200.233 273.541 201.6C273.537 201.606 273.534 201.613 273.533 201.62C273.532 201.628 273.533 201.636 273.536 201.643C273.539 201.651 273.544 201.658 273.55 201.664C273.556 201.671 273.563 201.676 273.571 201.68L273.811 201.82C274.078 201.973 274.285 201.913 274.431 201.64C275.485 199.706 277.428 198.483 280.261 197.97C280.635 197.903 280.888 197.673 281.021 197.28C281.161 196.88 281.028 196.63 280.621 196.53C279.301 196.196 278.058 196.503 276.891 197.45C276.638 197.656 276.358 197.743 276.051 197.71C275.638 197.663 275.261 197.503 274.921 197.23ZM257.657 197.714C257.631 197.672 257.575 197.649 257.495 197.645C257.414 197.642 257.309 197.658 257.187 197.694C257.064 197.729 256.926 197.783 256.781 197.853C256.635 197.922 256.485 198.006 256.338 198.098C256.042 198.285 255.78 198.499 255.609 198.691C255.438 198.884 255.372 199.04 255.426 199.125C255.452 199.167 255.508 199.191 255.588 199.194C255.669 199.198 255.774 199.181 255.896 199.145C256.019 199.11 256.157 199.056 256.302 198.986C256.448 198.917 256.598 198.833 256.745 198.741C257.04 198.554 257.303 198.34 257.474 198.148C257.645 197.955 257.711 197.799 257.657 197.714ZM276.011 206.63C275.951 206.823 275.845 206.993 275.691 207.14C274.871 207.9 275.011 208.213 276.111 208.08C278.111 207.84 282.421 206.33 281.531 203.56C281.418 203.206 281.298 203.206 281.171 203.56C281.058 203.866 280.881 204.11 280.641 204.29C280.401 204.47 280.125 204.53 279.811 204.47C279.278 204.37 279.151 204.086 279.431 203.62C279.518 203.48 279.545 203.32 279.511 203.14C279.431 202.626 279.211 202.556 278.851 202.93L277.341 204.51C277.173 204.691 276.947 204.808 276.701 204.84C275.475 205.013 274.541 204.516 273.901 203.35C273.775 203.116 273.615 203.09 273.421 203.27L273.181 203.5C273.101 203.58 273.085 203.67 273.131 203.77L274.021 205.64C274.221 206.06 274.088 206.293 273.621 206.34L271.871 206.49C271.431 206.53 271.068 206.386 270.781 206.06C269.451 204.56 268.921 202.08 266.361 202.36C265.361 202.473 265.321 202.733 266.241 203.14L268.191 203.99C268.551 204.143 268.758 204.413 268.811 204.8C268.985 206.046 268.595 206.793 267.641 207.04C267.381 207.106 267.248 207.273 267.241 207.54V207.94C267.241 208.246 267.091 208.443 266.791 208.53C266.411 208.63 266.045 208.586 265.691 208.4C265.644 208.374 265.59 208.362 265.536 208.365C265.483 208.367 265.43 208.384 265.385 208.414C265.34 208.444 265.304 208.485 265.281 208.533C265.257 208.582 265.247 208.636 265.251 208.69C265.291 209.13 265.495 209.453 265.861 209.66C266.101 209.8 266.355 209.84 266.621 209.78C269.808 209.113 272.661 207.863 275.181 206.03C275.273 205.964 275.384 205.928 275.497 205.928C275.61 205.929 275.721 205.965 275.812 206.031C275.904 206.097 275.973 206.191 276.008 206.298C276.044 206.406 276.045 206.522 276.011 206.63ZM267.111 206.81C267.191 206.903 267.278 206.916 267.371 206.85C267.428 206.81 267.475 206.758 267.509 206.698C267.543 206.638 267.563 206.571 267.568 206.503C267.573 206.435 267.562 206.367 267.537 206.304C267.511 206.241 267.472 206.185 267.421 206.14C266.548 205.373 265.531 204.896 264.371 204.71C264.125 204.676 263.938 204.553 263.811 204.34C263.358 203.593 262.691 203.416 261.811 203.81C259.818 204.716 258.295 206.123 257.241 208.03C257.118 208.263 256.918 208.45 256.671 208.56L253.331 210.04C252.625 210.36 252.648 210.613 253.401 210.8C255.731 211.36 256.821 208.76 259.241 208.65C260.881 208.57 262.671 208.38 264.611 208.08C264.808 208.048 264.995 207.972 265.158 207.858C265.321 207.744 265.455 207.594 265.551 207.42C265.771 207.013 266.108 206.75 266.561 206.63C266.781 206.57 266.965 206.63 267.111 206.81ZM238.511 222.52C239.578 221.946 240.218 221.1 240.431 219.98C240.685 218.686 241.261 217.583 242.161 216.67C242.435 216.39 242.381 216.193 242.001 216.08C235.408 214.2 229.295 210.88 223.661 206.12C223.348 205.853 223.048 205.863 222.761 206.15L212.391 216.46C212.352 216.499 212.32 216.547 212.299 216.599C212.279 216.652 212.269 216.708 212.271 216.764C212.273 216.82 212.286 216.876 212.31 216.926C212.335 216.977 212.369 217.023 212.411 217.06C221.718 225.433 232.575 230.826 244.981 233.24C245.415 233.32 245.845 233.333 246.271 233.28C246.865 233.193 246.878 233.056 246.311 232.87C242.921 231.72 239.781 226.46 238.271 223.25C238.125 222.93 238.205 222.686 238.511 222.52ZM155.341 214.07C155.221 214.11 155.098 214.126 154.971 214.12C154.525 214.1 154.368 214.3 154.501 214.72C154.581 214.973 154.735 215.166 154.961 215.3C155.168 215.413 155.355 215.39 155.521 215.23L155.741 215.02C155.797 214.966 155.863 214.925 155.935 214.898C156.007 214.87 156.084 214.858 156.162 214.862C156.239 214.866 156.316 214.885 156.386 214.919C156.457 214.953 156.52 215.001 156.571 215.06C156.778 215.3 156.935 215.556 157.041 215.83C157.235 216.343 157.091 216.726 156.611 216.98C156.051 217.273 155.915 217.703 156.201 218.27C161.081 227.776 167.068 236.343 174.161 243.97C174.224 244.037 174.3 244.091 174.385 244.129C174.469 244.167 174.56 244.187 174.652 244.189C174.745 244.191 174.836 244.174 174.922 244.14C175.008 244.106 175.086 244.055 175.151 243.99L185.331 233.81C185.437 233.707 185.5 233.569 185.507 233.422C185.514 233.276 185.466 233.132 185.371 233.02C182.858 230.08 180.218 226.84 177.451 223.3C175.711 221.09 173.181 220.75 171.551 219.04C170.071 217.48 168.931 215.83 167.161 214.57C165.411 213.31 163.461 212.5 162.231 210.69C162.182 210.616 162.117 210.555 162.041 210.51C161.965 210.465 161.881 210.437 161.793 210.428C161.705 210.42 161.616 210.431 161.533 210.46C161.45 210.49 161.374 210.537 161.311 210.6C160.511 211.41 159.171 211.46 158.441 210.53C157.715 209.623 156.885 208.77 155.951 207.97C155.878 207.904 155.784 207.865 155.684 207.859C155.584 207.854 155.485 207.882 155.401 207.94L155.181 208.09C154.748 208.376 154.665 208.74 154.931 209.18C155.858 210.733 156.168 212.173 155.861 213.5C155.795 213.786 155.621 213.976 155.341 214.07ZM306.151 237.09C306.965 238.056 307.428 239.17 307.541 240.43C307.548 240.505 307.576 240.577 307.62 240.638C307.665 240.7 307.725 240.748 307.795 240.777C307.865 240.807 307.941 240.818 308.016 240.807C308.091 240.797 308.162 240.767 308.221 240.72L317.141 233.41C317.368 233.223 317.378 233.026 317.171 232.82L306.551 222.14C306.325 221.906 306.095 221.906 305.861 222.14L304.241 223.76C304.041 223.96 304.018 224.18 304.171 224.42C304.471 224.9 304.921 225.45 305.431 225.69C307.298 226.556 308.738 227.846 309.751 229.56C309.996 229.971 310.11 230.448 310.077 230.924C310.045 231.401 309.869 231.857 309.571 232.23L306.141 236.5C306.076 236.584 306.041 236.689 306.042 236.796C306.044 236.904 306.083 237.007 306.151 237.09ZM252.411 241.3C239.771 240.75 226.351 236.24 216.221 229.13C215.868 228.883 215.535 228.91 215.221 229.21C214.031 230.34 212.741 231.1 211.021 230.97C208.635 230.796 206.255 231.263 203.881 232.37C201.581 233.443 199.431 233.433 197.431 232.34C196.838 232.013 196.391 232.16 196.091 232.78C195.938 233.093 195.991 233.363 196.251 233.59C212.418 248.096 231.205 255.973 252.611 257.22C252.666 257.222 252.72 257.214 252.771 257.195C252.822 257.176 252.868 257.147 252.907 257.11C252.947 257.072 252.978 257.027 252.999 256.977C253.021 256.928 253.032 256.874 253.031 256.82V241.95C253.031 241.536 252.825 241.32 252.411 241.3ZM262.031 233.38C261.345 233.04 260.871 232.973 260.611 233.18C259.765 233.873 259.895 234.18 261.001 234.1L263.471 233.92C263.645 233.906 263.648 233.886 263.481 233.86C262.995 233.773 262.511 233.613 262.031 233.38ZM252.544 233.987C252.547 233.954 252.494 233.917 252.388 233.878C252.283 233.839 252.126 233.798 251.928 233.759C251.73 233.719 251.495 233.681 251.234 233.647C250.974 233.613 250.695 233.584 250.412 233.56C250.129 233.537 249.849 233.521 249.587 233.512C249.324 233.503 249.085 233.502 248.884 233.508C248.682 233.515 248.521 233.529 248.41 233.551C248.3 233.572 248.241 233.6 248.239 233.633C248.236 233.665 248.289 233.702 248.395 233.741C248.5 233.781 248.657 233.821 248.855 233.861C249.053 233.9 249.288 233.938 249.549 233.972C249.809 234.006 250.088 234.036 250.371 234.059C250.654 234.082 250.934 234.099 251.196 234.108C251.459 234.117 251.697 234.118 251.899 234.111C252.101 234.104 252.262 234.09 252.373 234.068C252.483 234.047 252.542 234.019 252.544 233.987ZM191.521 258C191.128 258.553 191.201 259.023 191.741 259.41C209.621 272.156 229.808 279.106 252.301 280.26C252.788 280.28 253.031 280.046 253.031 279.56V264.77C253.032 264.683 252.999 264.599 252.939 264.536C252.88 264.473 252.798 264.435 252.711 264.43C229.005 263.11 208.485 254.55 191.151 238.75C191.005 238.618 190.815 238.547 190.62 238.551C190.425 238.555 190.239 238.633 190.101 238.77L179.901 248.98C179.84 249.041 179.792 249.113 179.761 249.194C179.729 249.274 179.714 249.36 179.717 249.446C179.72 249.532 179.74 249.617 179.777 249.695C179.814 249.773 179.867 249.843 179.931 249.9L187.811 256.63C188.351 257.09 188.511 256.983 188.291 256.31L188.151 255.88C188.091 255.689 188.096 255.484 188.168 255.298C188.239 255.111 188.372 254.954 188.544 254.853C188.716 254.752 188.917 254.712 189.115 254.741C189.313 254.769 189.495 254.864 189.631 255.01L191.451 256.98C191.751 257.3 191.775 257.64 191.521 258ZM288.981 259.54C287.711 260.16 286.531 259.68 285.231 260.09C277.351 262.543 269.218 263.973 260.831 264.38C260.438 264.4 260.241 264.603 260.241 264.99L260.251 279.73C260.251 280.09 260.431 280.263 260.791 280.25C288.498 278.93 312.678 268.803 333.331 249.87C333.397 249.809 333.45 249.735 333.487 249.654C333.524 249.573 333.544 249.485 333.546 249.396C333.547 249.307 333.531 249.219 333.498 249.137C333.464 249.055 333.415 248.981 333.351 248.92L322.971 238.52C322.853 238.405 322.695 238.339 322.531 238.337C322.367 238.336 322.209 238.397 322.091 238.51C312.171 247.98 301.291 253.48 288.981 259.54ZM271.021 239.97C267.568 240.736 264.201 241.163 260.921 241.25C260.739 241.255 260.566 241.33 260.439 241.459C260.313 241.587 260.241 241.76 260.241 241.94L260.251 256.78C260.251 256.831 260.262 256.882 260.282 256.93C260.303 256.977 260.332 257.02 260.37 257.056C260.407 257.091 260.451 257.119 260.5 257.137C260.548 257.155 260.6 257.162 260.651 257.16C266.751 256.86 272.815 255.94 278.841 254.4C279.221 254.3 279.298 254.093 279.071 253.78C277.831 252.07 276.141 252.05 274.731 250.69C272.785 248.81 272.345 246.843 273.411 244.79C273.513 244.593 273.564 244.375 273.56 244.155C273.557 243.935 273.499 243.72 273.391 243.53L271.441 240.15C271.402 240.078 271.34 240.022 271.264 239.989C271.188 239.956 271.103 239.95 271.021 239.97Z" fill="#278BCB"/>
<path d="M133.688 98.6609C136.558 88.8809 141.968 78.2709 150.478 72.1709C156.358 67.9509 162.545 64.2976 169.038 61.2109C169.825 60.8376 169.952 60.9942 169.418 61.6809C164.232 68.3276 159.155 75.1109 154.188 82.0309C149.198 88.9909 140.638 93.5609 134.228 99.0109C133.662 99.4976 133.482 99.3809 133.688 98.6609Z" fill="#278BCB"/>
<path d="M276.106 62.4198C276.705 62.5232 277.241 62.3114 277.304 61.9468C277.367 61.5822 276.933 61.2027 276.334 61.0993C275.735 60.9959 275.199 61.2077 275.136 61.5723C275.073 61.937 275.507 62.3164 276.106 62.4198Z" fill="#278BCB"/>
<path d="M362.761 72.5298C370.851 78.4498 376.241 89.0798 379.151 98.5598C379.358 99.2332 379.181 99.3598 378.621 98.9398C374.215 95.6065 369.895 92.3532 365.661 89.1798C363.348 87.4465 361.218 85.3332 359.271 82.8398C356.345 79.0865 352.965 74.5065 349.131 69.0998C347.311 66.5298 345.181 64.1298 343.301 61.5698C342.921 61.0632 343.018 60.9465 343.591 61.2198C350.518 64.4798 356.908 68.2498 362.761 72.5298Z" fill="#278BCB"/>
<path d="M282.762 65.1302L281.572 65.0902C281.058 65.0769 280.922 64.8436 281.162 64.3902C281.482 63.8036 281.972 63.6036 282.632 63.7902C283.225 63.9636 283.402 64.3236 283.162 64.8702C283.126 64.9476 283.069 65.0132 282.998 65.0592C282.927 65.1052 282.845 65.1299 282.762 65.1302Z" fill="#278BCB"/>
<path d="M126.612 112.229L126.872 112.359C126.971 112.409 127.085 112.42 127.192 112.39C127.299 112.361 127.392 112.293 127.452 112.199C131.885 105.379 137.085 100.092 143.052 96.3391C147.325 93.6391 151.465 90.6991 155.472 87.5191C156.962 86.3491 158.172 84.8091 159.672 83.6091C161.192 82.3957 161.515 82.6591 160.642 84.3991C154.148 97.3857 145.635 107.862 135.102 115.829C129.102 120.369 124.472 124.649 120.262 131.179C119.888 131.766 119.722 131.709 119.762 131.009C120.102 125.582 119.885 119.666 119.112 113.259C117.272 97.9291 126.962 78.0391 139.292 69.3691C140.458 68.5491 140.668 68.7457 139.922 69.9591C136.868 74.9191 134.762 80.0257 133.602 85.2791C132.608 89.7391 131.642 94.4557 130.702 99.4291C130.208 102.029 128.822 106.232 126.542 112.039C126.508 112.119 126.532 112.182 126.612 112.229Z" fill="#278BCB"/>
<path d="M385.809 112.469L386.069 112.209C386.139 112.139 386.187 112.048 386.205 111.95C386.223 111.852 386.21 111.75 386.169 111.659C383.775 106.219 382.109 100.653 381.169 94.9592C379.729 86.2892 377.719 78.4492 373.419 71.0292C372.132 68.8226 372.479 68.5259 374.459 70.1392C381.559 75.9259 386.842 83.3159 390.309 92.3092C393.539 100.689 394.429 107.449 393.419 116.209C392.905 120.629 392.792 125.323 393.079 130.289C393.152 131.529 392.845 131.633 392.159 130.599C390.192 127.626 388.102 125.036 385.889 122.829C381.509 118.469 376.119 114.919 371.589 110.719C363.309 103.046 356.849 94.2692 352.209 84.3892C351.122 82.0759 351.449 81.8526 353.189 83.7192C358.569 89.4892 365.989 93.9193 372.639 98.4793C376.992 101.453 381.262 106.106 385.449 112.439C385.468 112.468 385.493 112.493 385.523 112.51C385.553 112.528 385.587 112.539 385.621 112.542C385.656 112.544 385.691 112.539 385.723 112.527C385.756 112.514 385.785 112.495 385.809 112.469Z" fill="#278BCB"/>
<path d="M274.972 85.6803C274.478 85.6003 273.992 85.6069 273.512 85.7003C273.472 85.7136 273.445 85.6969 273.432 85.6503L273.382 85.3903C273.368 85.3036 273.405 85.2503 273.492 85.2303C274.632 84.9503 275.678 84.9003 276.632 85.0803C276.998 85.1469 277.352 85.2569 277.692 85.4103C279.425 86.2036 280.062 87.0403 279.602 87.9203C279.522 88.0726 279.39 88.191 279.23 88.2535C279.07 88.316 278.893 88.3184 278.732 88.2603C277.678 87.8736 276.792 87.2269 276.072 86.3203C275.802 85.9792 275.409 85.7508 274.972 85.6803Z" fill="#278BCB"/>
<path d="M272.97 86.3905C273.05 87.7772 273.83 88.9572 275.31 89.9305C275.386 89.9812 275.451 90.0471 275.5 90.1241C275.549 90.201 275.582 90.2873 275.596 90.3776C275.61 90.4678 275.605 90.56 275.582 90.6483C275.559 90.7366 275.517 90.819 275.46 90.8905C275.187 91.2305 274.89 91.3572 274.57 91.2705C274.164 91.1638 273.947 90.9005 273.92 90.4805C273.834 88.8672 273.017 87.6538 271.47 86.8405C271.117 86.6538 271.09 86.4272 271.39 86.1605C271.624 85.9538 271.924 85.8338 272.29 85.8005C272.717 85.7672 272.944 85.9638 272.97 86.3905Z" fill="#278BCB"/>
<path d="M246.36 90.0904C246.62 89.957 246.77 90.0137 246.81 90.2604C246.883 90.7937 246.67 90.9637 246.17 90.7704L243.96 89.9404C243.727 89.8471 243.66 89.6904 243.76 89.4704L243.89 89.1904C243.99 88.9837 244.13 88.9471 244.31 89.0804L245.68 90.0504C245.776 90.1191 245.891 90.1593 246.011 90.1663C246.131 90.1734 246.252 90.1471 246.36 90.0904Z" fill="#278BCB"/>
<path d="M112.738 151.78C112.898 152.76 113.108 152.773 113.368 151.82C115.538 143.99 117.558 137.44 123.618 131.68C130.412 125.213 137.105 118.93 143.698 112.83C144.312 112.263 144.448 112.36 144.108 113.12C140.442 121.366 136.292 129.67 131.658 138.03C125.658 148.84 113.228 159.54 111.798 172.14C111.718 172.84 111.595 172.846 111.428 172.16C109.475 164.02 107.488 155.96 105.468 147.98C102.455 136.1 102.788 123.98 106.468 111.62C108.695 104.12 112.138 97.6131 116.798 92.0998C117.578 91.1731 117.768 91.2831 117.368 92.4298C114.908 99.4031 114.065 107.05 114.838 115.37C115.172 118.996 115.525 122.496 115.898 125.87C116.808 134.1 114.978 142.05 112.828 150.05C112.668 150.623 112.638 151.2 112.738 151.78Z" fill="#278BCB"/>
<path d="M399.671 152.5L399.921 152.44C399.977 152.428 400.03 152.405 400.078 152.373C400.125 152.34 400.165 152.298 400.196 152.25C400.226 152.201 400.247 152.147 400.257 152.09C400.266 152.034 400.264 151.976 400.251 151.92C399.131 146.993 398.158 142.42 397.331 138.2C395.781 130.32 397.461 121.94 398.111 114.11C398.731 106.603 397.871 99.5099 395.531 92.8299C395.084 91.5499 395.301 91.4266 396.181 92.4599C399.748 96.6399 402.528 101.327 404.521 106.52C409.928 120.587 410.778 134.797 407.071 149.15C405.264 156.123 403.404 163.687 401.491 171.84C401.264 172.807 401.078 172.8 400.931 171.82C399.621 162.89 392.751 154.24 387.011 146.99C384.278 143.537 381.624 139.34 379.051 134.4C375.064 126.733 371.528 119.47 368.441 112.61C368.261 112.203 368.331 112.15 368.651 112.45C375.104 118.49 381.721 124.683 388.501 131.03C391.201 133.557 393.241 136.06 394.621 138.54C396.348 141.64 397.981 146.26 399.521 152.4C399.541 152.487 399.591 152.52 399.671 152.5Z" fill="#278BCB"/>
<path d="M215.288 98.1302H214.498C214.138 98.1302 214.028 97.9636 214.168 97.6302C214.288 97.3436 214.528 97.1536 214.888 97.0602C214.992 97.0308 215.103 97.0321 215.208 97.064C215.312 97.0958 215.406 97.157 215.478 97.2402C215.572 97.3536 215.638 97.4836 215.678 97.6302C215.758 97.9636 215.628 98.1302 215.288 98.1302Z" fill="#278BCB"/>
<path d="M236.58 119.9C235.534 120.207 234.52 120.317 233.54 120.23C233.107 120.19 232.927 119.954 233 119.52L233.05 119.22C233.157 118.587 233.53 118.31 234.17 118.39C235.037 118.504 235.854 118.717 236.62 119.03C237.42 119.364 237.407 119.654 236.58 119.9Z" fill="#278BCB"/>
<path d="M320.13 127.999C319.58 126.259 317.73 125.159 316.71 123.589C316.673 123.533 316.656 123.466 316.661 123.399C316.667 123.332 316.694 123.269 316.74 123.219L316.93 123.009C316.986 122.946 317.054 122.896 317.13 122.861C317.206 122.826 317.289 122.808 317.373 122.807C317.457 122.806 317.54 122.822 317.617 122.856C317.694 122.889 317.763 122.938 317.82 122.999C319.14 124.369 320.66 125.869 321.37 127.659C321.86 128.899 322.82 129.519 323.36 130.839C324 132.419 324.647 133.979 325.3 135.519C326.147 137.513 325.89 137.669 324.53 135.989C323.584 134.816 322.89 133.596 322.45 132.329C321.89 130.699 320.65 129.629 320.13 127.999Z" fill="#278BCB"/>
<path d="M307.56 135.019L305.67 135.339C305.591 135.351 305.509 135.341 305.435 135.31C305.361 135.279 305.297 135.229 305.249 135.164C305.202 135.099 305.173 135.022 305.166 134.942C305.159 134.862 305.175 134.782 305.21 134.709L306.92 131.279C307.07 130.981 307.308 130.737 307.602 130.578C307.896 130.42 308.231 130.355 308.562 130.394C308.894 130.432 309.206 130.571 309.456 130.792C309.706 131.013 309.882 131.305 309.96 131.629C310.194 132.609 310.55 133.583 311.03 134.549C311.197 134.889 311.094 135.079 310.72 135.119C309.32 135.266 308.544 136.233 308.39 138.019C308.321 138.822 307.955 139.57 307.365 140.118C306.776 140.665 306.004 140.972 305.2 140.979L303.47 140.989C303.343 140.992 303.218 140.957 303.11 140.888C303.003 140.82 302.918 140.722 302.866 140.606C302.814 140.49 302.797 140.361 302.817 140.236C302.837 140.11 302.894 139.993 302.98 139.899L305.79 136.739C305.914 136.603 306.077 136.505 306.26 136.459C306.874 136.313 307.4 136.003 307.84 135.529C308.247 135.089 308.154 134.919 307.56 135.019Z" fill="#278BCB"/>
<path d="M113.78 192.229C113.193 181.936 115.62 171.736 121.06 161.629C124.053 156.063 127.406 150.499 131.12 144.939C131.58 144.259 131.81 144.329 131.81 145.149C131.8 157.869 129.66 170.429 124.05 181.659C122.17 185.406 120.543 189.363 119.17 193.529C117.61 198.249 117.08 202.919 117.58 207.539C117.606 207.799 117.55 207.819 117.41 207.599C113.843 201.699 109.946 195.659 105.72 189.479C101.66 183.559 97.7598 177.209 95.7398 170.289C92.1098 157.839 90.6298 144.069 93.8298 131.859C94.1231 130.753 94.3231 130.766 94.4298 131.899C95.0198 138.369 96.9698 144.579 99.7798 150.329C103.24 157.409 106.8 164.249 108.65 172.019C110.176 178.466 111.67 185.326 113.13 192.599C113.136 192.639 113.16 192.656 113.2 192.649L113.45 192.619C113.683 192.593 113.793 192.463 113.78 192.229Z" fill="#278BCB"/>
<path d="M399.071 192.079C399.064 192.312 399.177 192.442 399.411 192.469L399.681 192.499C399.721 192.506 399.744 192.489 399.751 192.449C401.577 183.396 403.111 176.326 404.351 171.239C405.071 168.289 405.991 165.299 407.291 162.489C409.811 157.069 412.351 151.649 414.911 146.229C416.591 142.676 417.737 137.869 418.351 131.809C418.417 131.122 418.567 131.106 418.801 131.759C419.254 133.039 419.601 134.369 419.841 135.749C421.274 144.049 420.941 153.279 418.841 163.439C417.094 171.879 414.041 179.299 409.681 185.699C404.754 192.932 400.024 200.169 395.491 207.409C395.197 207.869 395.097 207.829 395.191 207.289C396.741 197.919 391.281 186.969 387.361 178.619C385.881 175.486 384.714 172.152 383.861 168.619C381.894 160.506 380.954 152.779 381.041 145.439C381.054 144.532 381.311 144.459 381.811 145.219C391.451 159.759 399.911 174.299 399.071 192.079Z" fill="#278BCB"/>
<path d="M310.841 139.849C311.43 139.902 311.925 139.743 311.947 139.496C311.969 139.248 311.51 139.005 310.921 138.953C310.333 138.9 309.838 139.058 309.815 139.306C309.793 139.553 310.253 139.796 310.841 139.849Z" fill="#278BCB"/>
<path d="M263.72 160.109L263.22 159.969C262.974 159.909 262.847 159.752 262.84 159.499C262.84 159.412 262.83 159.326 262.81 159.239C262.806 159.226 262.804 159.212 262.805 159.198C262.806 159.184 262.81 159.171 262.817 159.159C262.823 159.146 262.832 159.136 262.843 159.127C262.854 159.119 262.867 159.113 262.88 159.109C263.42 158.982 263.82 159.166 264.08 159.659C264.11 159.712 264.123 159.772 264.117 159.832C264.112 159.892 264.089 159.949 264.051 159.997C264.013 160.045 263.961 160.081 263.902 160.1C263.844 160.12 263.78 160.123 263.72 160.109Z" fill="#278BCB"/>
<path d="M264.308 172.72C264.255 172.513 264.312 172.346 264.478 172.22L264.728 172.03C264.882 171.916 264.998 171.943 265.078 172.11C265.732 173.47 266.645 174.583 267.818 175.45C268.238 175.756 268.255 176.083 267.868 176.43L267.548 176.73C267.43 176.836 267.276 176.895 267.116 176.895C266.956 176.895 266.8 176.836 266.678 176.73C265.565 175.75 264.775 174.413 264.308 172.72Z" fill="#278BCB"/>
<path d="M259.922 178.06C259.922 178.107 259.903 178.153 259.869 178.187C259.835 178.221 259.789 178.24 259.742 178.24H259.682C259.263 178.239 258.861 178.059 258.564 177.739C258.268 177.418 258.102 176.983 258.102 176.53V176.31C258.102 176.085 258.142 175.863 258.222 175.655C258.301 175.448 258.417 175.259 258.564 175.1C258.711 174.941 258.885 174.816 259.077 174.73C259.269 174.644 259.474 174.6 259.682 174.6H259.742C259.789 174.6 259.835 174.619 259.869 174.652C259.903 174.686 259.922 174.732 259.922 174.78V178.06Z" fill="#278BCB"/>
<path d="M129.589 237.09L129.819 236.98C130.026 236.893 130.083 236.746 129.989 236.54C121.539 218.55 124.389 194.56 130.229 175.54C130.389 175.02 130.563 175.013 130.749 175.52C135.023 186.846 136.639 198.83 135.599 211.47C135.059 218.05 134.526 224.46 133.999 230.7C133.549 236.1 133.929 242.02 136.499 247.04C136.799 247.62 136.696 247.703 136.189 247.29C129.276 241.59 122.453 235.673 115.719 229.54C110.689 224.97 105.949 220 102.639 213.8C96.6727 202.613 93.5294 190.933 93.2094 178.76C93.2061 178.743 93.2062 178.725 93.2097 178.708C93.2132 178.691 93.2201 178.675 93.2298 178.66C93.2396 178.646 93.252 178.634 93.2666 178.624C93.2811 178.614 93.2973 178.608 93.3144 178.605C93.3315 178.601 93.349 178.601 93.3661 178.605C93.3831 178.608 93.3993 178.615 93.4137 178.625C93.4281 178.635 93.4404 178.647 93.45 178.662C93.4595 178.676 93.4661 178.693 93.4694 178.71C97.9194 192.03 106.549 202.4 115.829 212.55C117.269 214.123 118.583 215.86 119.769 217.76C122.909 222.793 126.156 229.223 129.509 237.05C129.523 237.09 129.549 237.103 129.589 237.09Z" fill="#278BCB"/>
<path d="M382.848 237.07C384.928 233.63 386.902 229.773 388.768 225.5C390.968 220.47 394.308 215.65 398.058 211.47C406.848 201.69 414.678 192.22 418.948 179.94C419.382 178.706 419.568 178.743 419.508 180.05C418.988 191.536 416.085 202.416 410.798 212.69C408.665 216.83 406.252 220.323 403.558 223.17C395.158 232.05 385.688 239.76 376.238 247.69C376.105 247.803 376.075 247.783 376.148 247.63C378.428 242.836 379.338 237.673 378.878 232.14C378.298 225.046 377.725 217.983 377.158 210.95C376.172 198.65 377.805 186.89 382.058 175.67C382.245 175.176 382.418 175.183 382.578 175.69C387.078 190.316 388.772 204.693 387.658 218.82C387.198 224.686 385.555 230.746 382.728 237C382.388 237.746 382.428 237.77 382.848 237.07Z" fill="#278BCB"/>
<path d="M353.149 190.32C353.094 190.304 353.043 190.275 353.002 190.235C352.961 190.195 352.931 190.146 352.914 190.092C352.897 190.038 352.894 189.981 352.905 189.927C352.917 189.872 352.942 189.822 352.979 189.78C353.452 189.213 353.996 189.013 354.609 189.18C355.156 189.333 355.219 189.597 354.799 189.97C354.332 190.377 353.782 190.493 353.149 190.32Z" fill="#278BCB"/>
<path d="M305.641 202.826C305.541 203.481 305.849 204.072 306.33 204.146C306.81 204.219 307.281 203.748 307.381 203.092C307.481 202.437 307.173 201.847 306.693 201.773C306.212 201.7 305.741 202.171 305.641 202.826Z" fill="#278BCB"/>
<path d="M355.751 206.861C355.717 206.844 355.686 206.82 355.661 206.791C355.636 206.762 355.617 206.729 355.605 206.693C355.593 206.656 355.588 206.618 355.591 206.58C355.593 206.542 355.604 206.505 355.621 206.471L355.691 206.341C355.85 206.018 356.028 205.707 356.213 205.427C356.398 205.147 356.588 204.903 356.771 204.709C356.954 204.515 357.127 204.374 357.279 204.296C357.432 204.217 357.562 204.202 357.661 204.251L357.871 204.361C357.97 204.409 358.037 204.521 358.068 204.689C358.098 204.858 358.092 205.08 358.049 205.343C358.007 205.605 357.928 205.904 357.819 206.221C357.709 206.538 357.57 206.868 357.411 207.191L357.341 207.321C357.306 207.387 357.248 207.438 357.177 207.462C357.106 207.486 357.029 207.482 356.961 207.451L355.751 206.861Z" fill="#278BCB"/>
<path d="M263.154 206.994C263.471 206.745 263.566 206.335 263.365 206.079C263.163 205.823 262.743 205.816 262.426 206.065C262.109 206.314 262.015 206.723 262.216 206.98C262.417 207.236 262.837 207.243 263.154 206.994Z" fill="#278BCB"/>
<path d="M155.011 272.459C150.121 266.499 145.931 260.559 143.161 253.429C142.161 250.863 141.535 247.796 141.281 244.229C140.988 240.109 140.611 235.969 140.151 231.809C139.518 226.103 139.301 220.126 139.501 213.879C139.521 213.246 139.668 213.216 139.941 213.789C143.595 221.469 147.535 229.113 151.761 236.719C155.228 242.953 157.481 249.206 158.521 255.479C159.841 263.459 159.751 271.289 163.361 279.149C163.561 279.589 163.431 279.746 162.971 279.619C155.491 277.599 148.005 275.589 140.511 273.589C133.611 271.756 127.298 267.949 121.571 262.169C111.178 251.669 104.938 238.946 102.851 223.999C102.765 223.393 102.885 223.349 103.211 223.869C107.698 231.063 113.235 237.399 119.821 242.879C127.011 248.859 134.931 253.989 141.621 260.419C146.608 265.219 151.005 269.296 154.811 272.649C155.665 273.403 155.731 273.339 155.011 272.459Z" fill="#278BCB"/>
<path d="M357.459 272.949C357.432 272.983 357.429 273.006 357.449 273.019L357.649 273.189C357.689 273.223 357.726 273.223 357.759 273.189C361.266 270.023 364.612 266.856 367.799 263.689C374.859 256.679 382.899 250.909 390.489 244.999C396.502 240.326 401.949 234.739 406.829 228.239C407.809 226.919 408.519 225.389 409.489 224.079C409.949 223.473 410.119 223.546 409.999 224.299C407.772 238.779 401.846 251.109 392.219 261.289C385.129 268.789 377.499 272.629 367.169 275.119C361.116 276.586 355.316 278.149 349.769 279.809C349.289 279.956 349.152 279.803 349.359 279.349C352.499 272.399 352.979 265.759 353.789 258.509C354.619 251.069 357.329 243.639 361.169 236.619C365.422 228.873 369.319 221.326 372.859 213.979C373.072 213.539 373.192 213.563 373.219 214.049C373.869 224.409 372.319 234.749 371.449 245.019C371.136 248.686 370.406 251.879 369.259 254.599C366.409 261.379 362.219 267.369 357.459 272.949Z" fill="#278BCB"/>
<path d="M328.03 216.24C327.916 216.414 327.903 216.607 327.99 216.82C328.21 217.387 328.036 217.777 327.47 217.99C327.016 218.164 326.756 218.05 326.69 217.65C326.61 217.15 326.8 216.787 327.26 216.56C328.14 216.134 328.396 215.447 328.03 214.5C327.883 214.107 328.016 213.887 328.43 213.84L328.79 213.8C328.945 213.783 329.1 213.829 329.222 213.926C329.344 214.024 329.422 214.165 329.44 214.32C329.486 214.734 329.33 215.064 328.97 215.31C328.59 215.557 328.276 215.867 328.03 216.24Z" fill="#278BCB"/>
<path d="M161.22 220.204L161.153 220.249C160.868 220.438 160.79 220.823 160.98 221.108L164.444 226.322C164.634 226.608 165.018 226.685 165.304 226.496L165.37 226.451C165.655 226.262 165.733 225.877 165.544 225.592L162.079 220.378C161.89 220.093 161.505 220.015 161.22 220.204Z" fill="#278BCB"/>
<path d="M238.969 240.559C239.033 240.495 239.113 240.448 239.201 240.424C239.289 240.4 239.382 240.4 239.47 240.424C239.558 240.447 239.639 240.493 239.703 240.557C239.768 240.621 239.815 240.701 239.839 240.789C239.985 241.323 239.825 241.683 239.359 241.869C239.145 241.956 238.985 241.899 238.879 241.699C238.639 241.239 238.669 240.859 238.969 240.559Z" fill="#278BCB"/>
<path d="M189.94 292.95C181.36 289.23 174.01 284.3 169.82 276.66C164.85 267.59 161.16 255.5 158.96 245.33C158.753 244.383 158.987 244.26 159.66 244.96C166.667 252.32 173.743 260.063 180.89 268.19C188.29 276.6 190.77 290.29 201.23 295.68C201.623 295.88 201.607 296.033 201.18 296.14C191.093 298.707 181.797 300.31 173.29 300.95C169.803 301.217 165.637 300.72 160.79 299.46C144.397 295.2 132.133 285.797 124 271.25C123.767 270.837 123.85 270.757 124.25 271.01C132.39 276.257 141.377 280.17 151.21 282.75C156.503 284.143 162.09 285.52 167.97 286.88C175.39 288.59 182.65 291.13 189.84 293.4C189.953 293.433 190.03 293.397 190.07 293.29V293.28C190.13 293.127 190.087 293.017 189.94 292.95Z" fill="#278BCB"/>
<path d="M322.348 293.26C322.302 293.274 322.288 293.304 322.308 293.35L322.398 293.58C322.418 293.62 322.445 293.634 322.478 293.62C329.868 291.42 336.938 288.67 344.318 287.07C359.788 283.71 375.288 279.87 388.408 271.14C388.942 270.787 389.052 270.89 388.738 271.45C381.638 284.15 371.095 293.03 357.108 298.09C347.908 301.41 339.378 301.67 329.688 299.95C323.482 298.85 317.482 297.664 311.688 296.39C311.122 296.27 311.095 296.074 311.608 295.8C322.158 290.11 324.508 276.79 332.088 268.14C339.068 260.18 346.125 252.43 353.258 244.89C353.878 244.237 354.092 244.35 353.898 245.23C351.628 255.42 348.488 265.68 343.868 275.13C340.368 282.31 334.558 287.25 327.368 290.94C325.155 292.08 323.482 292.854 322.348 293.26Z" fill="#278BCB"/>
<path d="M249.239 250.04C249.163 250.089 249.075 250.117 248.984 250.121C248.893 250.126 248.802 250.106 248.721 250.065C248.64 250.023 248.572 249.961 248.522 249.885C248.473 249.808 248.444 249.72 248.439 249.63C248.419 249.33 248.573 249.136 248.899 249.05C248.964 249.033 249.031 249.029 249.097 249.038C249.163 249.047 249.226 249.069 249.283 249.103C249.339 249.136 249.389 249.181 249.428 249.233C249.467 249.286 249.494 249.346 249.509 249.41C249.569 249.676 249.479 249.886 249.239 250.04Z" fill="#278BCB"/>
<path d="M262.561 306.01C261.421 306.117 261.387 306.367 262.461 306.76C276.727 311.933 288.957 320.323 299.151 331.93C299.167 331.947 299.179 331.968 299.185 331.991C299.19 332.014 299.19 332.039 299.184 332.062C299.178 332.085 299.167 332.106 299.15 332.123C299.134 332.14 299.113 332.153 299.091 332.16L293.231 334.01C293.117 334.043 293.027 334.013 292.961 333.92C284.411 322.02 271.911 311.36 257.781 307.42C256.981 307.193 256.224 307.183 255.511 307.39C241.431 311.51 229.441 321.5 220.771 333.36C220.364 333.913 219.834 334.087 219.181 333.88L214.991 332.58C214.277 332.353 214.167 331.96 214.661 331.4C224.711 319.87 236.911 312.13 251.191 306.64C251.937 306.347 251.911 306.15 251.111 306.05C246.144 305.437 241.037 306.02 235.791 307.8C226.921 310.81 217.741 314.5 208.821 316.51C193.734 319.917 178.357 319.027 162.691 313.84C158.264 312.373 154.221 309.943 150.561 306.55C148.861 304.977 149.091 304.613 151.251 305.46C168.221 312.13 183.991 306.18 200.441 302.13C218.651 297.64 238.231 299.24 256.011 304.5C256.52 304.65 257.061 304.65 257.571 304.5C274.131 299.58 293.571 297.62 310.441 301.71C317.787 303.49 324.977 305.253 332.011 307C342.631 309.64 352.811 309.093 362.551 305.36C363.851 304.86 364.027 305.12 363.081 306.14C353.711 316.21 334.121 318.6 321.291 318.62C305.761 318.64 291.191 312.72 276.771 307.7C272.224 306.113 267.487 305.55 262.561 306.01Z" fill="#278BCB"/>
<path d="M352.267 391.337C348.634 391.401 345.122 389.855 342.504 387.04C339.885 384.226 338.374 380.372 338.303 376.329C338.268 374.326 338.588 372.337 339.244 370.475C339.9 368.613 340.88 366.915 342.127 365.477C343.374 364.039 344.865 362.889 346.513 362.094C348.162 361.299 349.936 360.873 351.735 360.842C355.368 360.778 358.88 362.324 361.499 365.139C364.118 367.953 365.629 371.806 365.699 375.85C365.734 377.853 365.414 379.842 364.758 381.704C364.102 383.566 363.123 385.264 361.875 386.702C360.628 388.14 359.138 389.29 357.489 390.085C355.841 390.88 354.066 391.306 352.267 391.337ZM352.095 387.959C354.68 387.936 357.149 386.667 358.958 384.431C360.767 382.195 361.768 379.174 361.741 376.034C361.713 372.894 360.66 369.892 358.812 367.687C356.964 365.483 354.474 364.257 351.888 364.28C349.302 364.302 346.833 365.572 345.024 367.808C343.215 370.044 342.214 373.065 342.242 376.205C342.269 379.345 343.323 382.347 345.17 384.551C347.018 386.756 349.509 387.981 352.095 387.959Z" fill="#278BCB"/>
<path d="M415.25 369.209C414.37 362.729 401.96 363.069 402.25 369.029C402.33 370.676 403.284 371.783 405.11 372.349C409.31 373.649 414.98 374.199 418.03 377.379C420.83 380.299 420.41 385.219 417.6 388.109C413.76 392.069 406.21 391.809 402.09 389.509C399.33 387.969 397.79 385.486 397.47 382.059C397.424 381.499 397.68 381.199 398.24 381.159L400.25 381.019C400.784 380.979 401.087 381.223 401.16 381.749C401.9 387.059 408.02 388.439 412.45 387.129C417.05 385.769 417.8 380.239 412.94 378.719C408.71 377.409 402.03 376.719 399.48 372.689C397.33 369.279 398.83 364.469 402.29 362.549C407.88 359.459 418.96 361.109 419.01 369.229C419.017 369.709 418.78 369.956 418.3 369.969L416.21 370.029C415.65 370.043 415.33 369.769 415.25 369.209Z" fill="#278BCB"/>
<path d="M106.77 391.161C99.5501 391.331 95.4801 387.641 95.4201 380.361C95.3734 374.361 95.3601 368.391 95.3801 362.451C95.3814 362.328 95.4069 362.207 95.4551 362.095C95.5033 361.982 95.5733 361.881 95.6608 361.796C95.7484 361.711 95.8518 361.645 95.965 361.601C96.0782 361.557 96.199 361.537 96.3201 361.541L98.3701 361.601C98.9701 361.621 99.2668 361.931 99.2601 362.531C99.1868 368.964 99.1968 375.107 99.2901 380.961C99.3701 386.021 103.42 388.311 107.95 387.581C111.777 386.961 113.707 384.474 113.74 380.121C113.787 373.687 113.793 367.787 113.76 362.421C113.759 362.3 113.782 362.18 113.829 362.069C113.875 361.958 113.944 361.857 114.032 361.774C114.119 361.69 114.222 361.625 114.336 361.584C114.449 361.542 114.57 361.524 114.69 361.531L116.74 361.651C117.32 361.684 117.613 361.994 117.62 362.581C117.64 368.567 117.61 374.457 117.53 380.251C117.43 387.357 113.843 390.994 106.77 391.161Z" fill="#278BCB"/>
<path d="M127.27 369.25V389.75C127.27 390.43 126.93 390.773 126.25 390.78L124.65 390.8C124.531 390.801 124.413 390.779 124.303 390.734C124.193 390.69 124.092 390.624 124.008 390.54C123.923 390.456 123.856 390.357 123.81 390.247C123.764 390.137 123.74 390.019 123.74 389.9L123.73 362.17C123.73 361.763 123.934 361.563 124.34 361.57L126.96 361.61C127.427 361.617 127.787 361.817 128.04 362.21L141.54 382.99C142.094 383.837 142.37 383.757 142.37 382.75L142.32 362.59C142.32 362.449 142.349 362.31 142.404 362.18C142.459 362.051 142.541 361.934 142.643 361.836C142.744 361.739 142.865 361.664 142.997 361.614C143.129 361.565 143.27 361.543 143.41 361.55L145.08 361.62C145.687 361.653 145.99 361.973 145.99 362.58L146 389.99C146 390.503 145.744 390.763 145.23 390.77C143.69 390.79 142.4 391.13 141.38 389.58C136.834 382.587 132.39 375.733 128.05 369.02C127.53 368.207 127.27 368.283 127.27 369.25Z" fill="#278BCB"/>
<path d="M156.09 361.6H153.51C153.14 361.6 152.84 361.9 152.84 362.27V390.07C152.84 390.44 153.14 390.74 153.51 390.74H156.09C156.46 390.74 156.76 390.44 156.76 390.07V362.27C156.76 361.9 156.46 361.6 156.09 361.6Z" fill="#278BCB"/>
<path d="M169.658 365.031L161.608 365.111C161.527 365.112 161.447 365.097 161.372 365.067C161.297 365.037 161.228 364.993 161.17 364.936C161.113 364.879 161.067 364.811 161.036 364.737C161.004 364.662 160.988 364.582 160.988 364.501L160.998 362.241C160.998 362.161 161.014 362.081 161.045 362.007C161.075 361.933 161.12 361.866 161.177 361.81C161.234 361.753 161.301 361.708 161.375 361.677C161.449 361.647 161.528 361.631 161.608 361.631L182.978 361.651C183.06 361.651 183.141 361.667 183.216 361.699C183.292 361.731 183.36 361.778 183.417 361.837C183.474 361.895 183.518 361.965 183.548 362.041C183.577 362.118 183.591 362.199 183.588 362.281L183.508 364.461C183.503 364.619 183.437 364.769 183.323 364.879C183.209 364.989 183.057 365.051 182.898 365.051H174.638C174.558 365.051 174.479 365.067 174.405 365.097C174.331 365.128 174.264 365.173 174.207 365.23C174.15 365.286 174.105 365.353 174.075 365.427C174.044 365.501 174.028 365.581 174.028 365.661L174.048 390.161C174.048 390.242 174.032 390.322 174.001 390.397C173.97 390.471 173.924 390.539 173.866 390.596C173.808 390.653 173.74 390.697 173.665 390.727C173.59 390.757 173.509 390.772 173.428 390.771L170.878 390.721C170.718 390.718 170.566 390.653 170.453 390.539C170.341 390.425 170.278 390.271 170.278 390.111V365.641C170.278 365.56 170.262 365.48 170.231 365.405C170.2 365.33 170.154 365.263 170.096 365.206C170.038 365.149 169.97 365.104 169.895 365.074C169.82 365.044 169.739 365.03 169.658 365.031Z" fill="#278BCB"/>
<path d="M191.68 387.04H207.66C207.834 387.04 208 387.108 208.124 387.23C208.247 387.351 208.318 387.517 208.32 387.69L208.35 390.09C208.352 390.177 208.336 390.264 208.303 390.345C208.271 390.427 208.222 390.501 208.161 390.563C208.099 390.625 208.026 390.675 207.945 390.709C207.865 390.742 207.778 390.76 207.69 390.76L187.91 390.75C187.735 390.75 187.568 390.68 187.444 390.557C187.32 390.433 187.25 390.265 187.25 390.09L187.23 362.25C187.23 362.075 187.3 361.907 187.424 361.783C187.548 361.659 187.715 361.59 187.89 361.59L207.13 361.63C207.219 361.63 207.306 361.648 207.388 361.682C207.469 361.716 207.543 361.767 207.604 361.83C207.666 361.894 207.714 361.969 207.746 362.051C207.778 362.134 207.793 362.222 207.79 362.31L207.72 364.39C207.715 364.561 207.643 364.724 207.52 364.844C207.397 364.963 207.232 365.03 207.06 365.03L191.69 365.01C191.604 365.01 191.518 365.027 191.438 365.06C191.358 365.093 191.285 365.142 191.224 365.203C191.162 365.264 191.114 365.337 191.081 365.417C191.048 365.497 191.03 365.583 191.03 365.67L191 373.3C191 373.475 191.07 373.643 191.194 373.767C191.318 373.89 191.485 373.96 191.66 373.96L205.96 373.95C206.124 373.952 206.281 374.014 206.401 374.125C206.521 374.236 206.596 374.387 206.61 374.55L206.8 376.58C206.809 376.671 206.798 376.764 206.769 376.851C206.739 376.938 206.692 377.018 206.63 377.086C206.568 377.154 206.492 377.208 206.408 377.245C206.323 377.281 206.232 377.3 206.14 377.3L191.66 377.26C191.485 377.26 191.318 377.329 191.194 377.453C191.07 377.577 191 377.745 191 377.92L191.02 386.38C191.02 386.467 191.038 386.552 191.071 386.632C191.104 386.712 191.152 386.785 191.214 386.847C191.275 386.908 191.348 386.956 191.428 386.99C191.508 387.023 191.594 387.04 191.68 387.04Z" fill="#278BCB"/>
<path d="M213.469 362.2C213.469 362.11 213.486 362.022 213.521 361.939C213.555 361.857 213.605 361.782 213.668 361.719C213.731 361.656 213.806 361.605 213.889 361.571C213.971 361.537 214.059 361.52 214.149 361.52H224.739C227.924 361.52 230.979 362.825 233.231 365.148C235.483 367.472 236.749 370.624 236.749 373.91V378.37C236.749 381.656 235.483 384.807 233.231 387.131C230.979 389.454 227.924 390.76 224.739 390.76H214.149C214.059 390.76 213.971 390.742 213.889 390.708C213.806 390.674 213.731 390.624 213.668 390.56C213.605 390.497 213.555 390.422 213.521 390.34C213.486 390.257 213.469 390.169 213.469 390.08V362.2ZM217.219 365.62L217.179 386.5C217.179 386.653 217.24 386.801 217.349 386.91C217.457 387.018 217.605 387.08 217.759 387.08L224.769 387.09C225.829 387.092 226.88 386.862 227.86 386.412C228.841 385.963 229.732 385.303 230.484 384.47C231.235 383.637 231.832 382.647 232.239 381.557C232.647 380.468 232.857 379.3 232.859 378.12V374.04C232.862 371.659 232.016 369.376 230.506 367.69C228.997 366.004 226.948 365.055 224.809 365.05L217.799 365.04C217.723 365.04 217.647 365.055 217.577 365.084C217.506 365.113 217.442 365.156 217.389 365.209C217.335 365.263 217.292 365.327 217.263 365.398C217.234 365.468 217.219 365.543 217.219 365.62Z" fill="#278BCB"/>
<path d="M256.53 369.21L256.52 389.99C256.52 390.496 256.263 390.75 255.75 390.75H253.77C253.11 390.75 252.78 390.423 252.78 389.77L252.75 362.28C252.75 361.793 252.993 361.556 253.48 361.57L256.1 361.62C256.52 361.626 256.847 361.806 257.08 362.16L270.41 382.66C271.117 383.746 271.47 383.643 271.47 382.35L271.46 362.41C271.46 361.823 271.753 361.54 272.34 361.56L274.09 361.63C274.71 361.65 275.02 361.97 275.02 362.59L275.03 390.03C275.03 390.463 274.813 390.703 274.38 390.75C273.12 390.88 271.4 391.03 270.6 389.8C266.007 382.76 261.533 375.833 257.18 369.02C257.14 368.953 257.079 368.902 257.007 368.874C256.935 368.845 256.856 368.842 256.782 368.864C256.707 368.885 256.642 368.931 256.597 368.994C256.551 369.056 256.528 369.132 256.53 369.21Z" fill="#278BCB"/>
<path d="M296.671 381.92L285.691 381.89C285.577 381.89 285.465 381.925 285.372 381.992C285.279 382.058 285.209 382.152 285.171 382.26L282.341 390.37C282.304 390.478 282.233 390.572 282.14 390.638C282.047 390.704 281.935 390.74 281.821 390.74L278.921 390.76C278.832 390.76 278.744 390.74 278.665 390.699C278.586 390.658 278.518 390.599 278.467 390.526C278.416 390.453 278.383 390.369 278.372 390.281C278.36 390.193 278.37 390.103 278.401 390.02L288.841 361.95C288.88 361.844 288.951 361.752 289.044 361.688C289.137 361.623 289.248 361.589 289.361 361.59L292.761 361.63C292.87 361.63 292.977 361.662 293.068 361.722C293.159 361.783 293.229 361.869 293.271 361.97L304.451 390.01C304.484 390.094 304.496 390.185 304.485 390.274C304.474 390.364 304.442 390.449 304.391 390.523C304.339 390.597 304.271 390.658 304.19 390.699C304.11 390.74 304.021 390.761 303.931 390.76L300.701 390.72C300.591 390.719 300.483 390.686 300.392 390.623C300.301 390.561 300.231 390.473 300.191 390.37L297.181 382.28C297.143 382.175 297.073 382.085 296.982 382.02C296.891 381.956 296.783 381.921 296.671 381.92ZM290.741 366.41L286.711 378C286.682 378.082 286.674 378.171 286.687 378.257C286.701 378.344 286.734 378.426 286.786 378.498C286.838 378.569 286.906 378.627 286.985 378.668C287.064 378.708 287.152 378.729 287.241 378.73L295.191 378.71C295.264 378.711 295.335 378.694 295.4 378.661C295.465 378.629 295.52 378.581 295.563 378.522C295.605 378.463 295.632 378.395 295.642 378.323C295.653 378.251 295.645 378.178 295.621 378.11L291.381 366.41C291.168 365.803 290.954 365.803 290.741 366.41Z" fill="#278BCB"/>
<path d="M315.73 365.629L315.74 390.129C315.74 390.291 315.676 390.446 315.562 390.561C315.447 390.675 315.292 390.739 315.13 390.739L312.42 390.749C312.259 390.749 312.104 390.685 311.989 390.571C311.875 390.456 311.81 390.301 311.81 390.139L311.8 365.669C311.8 365.508 311.736 365.352 311.622 365.238C311.507 365.124 311.352 365.059 311.19 365.059L303.09 365.119C302.929 365.119 302.774 365.055 302.659 364.941C302.545 364.826 302.48 364.671 302.48 364.509L302.5 362.209C302.503 362.049 302.569 361.897 302.683 361.785C302.797 361.672 302.95 361.609 303.11 361.609L324.3 361.629C324.461 361.629 324.614 361.692 324.728 361.805C324.842 361.917 324.908 362.069 324.91 362.229L324.95 364.479C324.952 364.561 324.937 364.642 324.906 364.718C324.875 364.794 324.83 364.863 324.772 364.921C324.714 364.979 324.645 365.024 324.569 365.055C324.493 365.086 324.412 365.101 324.33 365.099L316.35 365.019C316.27 365.018 316.189 365.033 316.114 365.063C316.039 365.093 315.97 365.138 315.913 365.194C315.855 365.251 315.809 365.319 315.778 365.394C315.747 365.468 315.73 365.548 315.73 365.629Z" fill="#278BCB"/>
<path d="M332.402 361.6H330.002C329.593 361.6 329.262 361.931 329.262 362.34V390.02C329.262 390.428 329.593 390.76 330.002 390.76H332.402C332.81 390.76 333.142 390.428 333.142 390.02V362.34C333.142 361.931 332.81 361.6 332.402 361.6Z" fill="#278BCB"/>
<path d="M388.899 382.72L388.849 362.16C388.849 361.773 389.043 361.583 389.429 361.59L391.949 361.61C392.343 361.616 392.539 361.813 392.539 362.2L392.549 389.98C392.549 390.506 392.286 390.776 391.759 390.79C390.179 390.82 388.849 391.1 387.819 389.52C383.346 382.68 378.946 375.853 374.619 369.04C374.039 368.126 373.753 368.21 373.759 369.29L373.859 389.85C373.859 390.45 373.559 390.75 372.959 390.75H371.229C370.543 390.756 370.199 390.416 370.199 389.73L370.219 362.28C370.219 361.78 370.469 361.54 370.969 361.56L373.549 361.63C373.969 361.643 374.296 361.826 374.529 362.18L388.059 382.97C388.626 383.83 388.906 383.746 388.899 382.72Z" fill="#278BCB"/>
<path d="M418.681 401.68H93.6411C93.3539 401.68 93.1211 401.913 93.1211 402.2V402.62C93.1211 402.907 93.3539 403.14 93.6411 403.14H418.681C418.968 403.14 419.201 402.907 419.201 402.62V402.2C419.201 401.913 418.968 401.68 418.681 401.68Z" fill="#278BCB"/>
<path d="M230.741 453.421C239.111 455.511 245.541 451.001 247.371 442.801C247.384 442.748 247.421 442.721 247.481 442.721C248.721 442.754 250.661 443.188 253.301 444.021C253.356 444.037 253.404 444.074 253.434 444.124C253.463 444.174 253.473 444.234 253.461 444.291C250.351 456.411 240.911 460.581 229.471 458.571C214.701 455.981 211.331 437.621 215.271 426.081C217.344 419.994 221.344 415.938 227.271 413.911C237.771 410.311 248.811 413.841 252.551 425.071C252.582 425.165 252.594 425.265 252.585 425.365C252.575 425.464 252.545 425.56 252.496 425.647C252.447 425.734 252.38 425.809 252.3 425.868C252.22 425.928 252.128 425.969 252.031 425.991L247.731 426.961C247.111 427.094 246.697 426.861 246.491 426.261C244.064 419.234 238.781 416.584 230.641 418.311C225.421 419.421 221.831 423.891 220.741 429.061C218.791 438.291 220.031 450.751 230.741 453.421Z" fill="#278BCB"/>
<path d="M111.961 453.68C120.781 453.8 123.641 448.89 123.681 440.75C123.721 432.883 123.744 423.95 123.751 413.95C123.751 413.576 123.934 413.39 124.301 413.39L129.211 413.4C129.644 413.4 129.861 413.616 129.861 414.05C129.794 422.516 129.761 431.34 129.761 440.52C129.761 448.54 127.321 456.01 118.751 458.24C113.698 459.56 108.704 459.39 103.771 457.73C96.1609 455.18 94.401 447.73 94.361 440.38C94.3143 431.613 94.3043 422.906 94.331 414.26C94.331 413.7 94.6109 413.416 95.1709 413.41L99.541 413.35C99.6516 413.348 99.7615 413.369 99.864 413.41C99.9665 413.451 100.06 413.512 100.138 413.59C100.216 413.667 100.278 413.759 100.32 413.86C100.362 413.962 100.382 414.07 100.381 414.18C100.281 422.72 100.318 432.196 100.491 442.61C100.611 449.896 104.434 453.586 111.961 453.68Z" fill="#278BCB"/>
<path d="M184.479 447.47L184.469 413.69C184.469 413.61 184.5 413.534 184.556 413.478C184.613 413.421 184.689 413.39 184.769 413.39L189.939 413.34C189.978 413.34 190.017 413.348 190.053 413.363C190.09 413.378 190.123 413.4 190.151 413.428C190.179 413.456 190.201 413.489 190.216 413.525C190.231 413.561 190.239 413.6 190.239 413.64L190.259 457.97C190.259 458.049 190.227 458.126 190.171 458.182C190.114 458.238 190.038 458.27 189.959 458.27L184.109 458.23C184.059 458.23 184.011 458.219 183.967 458.196C183.924 458.173 183.886 458.14 183.859 458.1L161.099 423.91C161.063 423.857 161.012 423.816 160.952 423.794C160.892 423.772 160.826 423.77 160.765 423.788C160.703 423.805 160.649 423.842 160.61 423.893C160.571 423.944 160.55 424.006 160.549 424.07V457.96C160.549 458.039 160.517 458.116 160.461 458.172C160.404 458.228 160.328 458.26 160.249 458.26H155.109C155.029 458.26 154.953 458.228 154.896 458.172C154.84 458.116 154.809 458.039 154.809 457.96V413.64C154.809 413.56 154.84 413.484 154.896 413.428C154.953 413.371 155.029 413.34 155.109 413.34L160.889 413.41C160.938 413.409 160.986 413.421 161.03 413.444C161.073 413.466 161.111 413.499 161.139 413.54L183.929 447.64C183.964 447.694 184.017 447.735 184.078 447.757C184.139 447.778 184.205 447.78 184.267 447.761C184.329 447.742 184.383 447.703 184.421 447.65C184.459 447.598 184.48 447.535 184.479 447.47Z" fill="#278BCB"/>
<path d="M286.941 418.891L273.111 418.861C273.038 418.86 272.965 418.844 272.899 418.814C272.832 418.785 272.771 418.742 272.721 418.689C272.671 418.636 272.632 418.574 272.606 418.505C272.58 418.437 272.568 418.364 272.571 418.291L272.761 413.911C272.766 413.768 272.826 413.634 272.929 413.535C273.031 413.436 273.168 413.381 273.311 413.381L307.721 413.411C307.867 413.411 308.006 413.469 308.11 413.572C308.213 413.675 308.271 413.815 308.271 413.961L308.251 418.341C308.251 418.487 308.193 418.627 308.09 418.73C307.986 418.833 307.847 418.891 307.701 418.891L294.061 418.861C293.915 418.861 293.775 418.919 293.672 419.022C293.569 419.125 293.511 419.265 293.511 419.411L293.521 457.711C293.521 457.857 293.463 457.997 293.36 458.1C293.256 458.203 293.117 458.261 292.971 458.261L288.041 458.251C287.895 458.251 287.755 458.193 287.652 458.09C287.549 457.987 287.491 457.847 287.491 457.701V419.441C287.491 419.369 287.476 419.297 287.449 419.23C287.421 419.164 287.381 419.103 287.33 419.052C287.279 419.001 287.218 418.96 287.151 418.933C287.084 418.905 287.013 418.891 286.941 418.891Z" fill="#278BCB"/>
<path d="M349.92 444.799L331.6 444.789C331.529 444.79 331.46 444.812 331.403 444.853C331.346 444.894 331.303 444.952 331.28 445.019L326.61 458.019C326.587 458.086 326.544 458.144 326.486 458.185C326.429 458.227 326.36 458.249 326.29 458.249H320.6C320.545 458.25 320.49 458.236 320.441 458.211C320.392 458.186 320.35 458.149 320.319 458.103C320.287 458.058 320.267 458.006 320.26 457.951C320.254 457.896 320.26 457.841 320.28 457.789L337.31 413.589C337.334 413.526 337.376 413.471 337.431 413.432C337.486 413.393 337.552 413.371 337.62 413.369H343.6C343.668 413.368 343.735 413.387 343.792 413.425C343.849 413.462 343.894 413.516 343.92 413.579L362.02 457.769C362.041 457.821 362.049 457.876 362.044 457.932C362.039 457.987 362.02 458.04 361.989 458.086C361.959 458.133 361.917 458.171 361.869 458.198C361.82 458.224 361.765 458.239 361.71 458.239L355.5 458.269C355.43 458.27 355.362 458.249 355.305 458.209C355.248 458.17 355.204 458.114 355.18 458.049L350.23 445.019C350.206 444.956 350.164 444.901 350.108 444.862C350.053 444.823 349.987 444.801 349.92 444.799ZM339.41 422.639C337.616 427.999 335.596 433.513 333.35 439.179C333.322 439.249 333.312 439.325 333.32 439.4C333.328 439.475 333.355 439.546 333.397 439.609C333.44 439.671 333.497 439.722 333.563 439.757C333.63 439.792 333.704 439.81 333.78 439.809L347.66 439.789C347.721 439.789 347.782 439.773 347.836 439.744C347.891 439.715 347.937 439.673 347.972 439.621C348.006 439.57 348.028 439.511 348.034 439.45C348.041 439.389 348.032 439.327 348.01 439.269L340.76 419.819C340.486 419.086 340.276 419.106 340.13 419.879C339.95 420.826 339.71 421.746 339.41 422.639Z" fill="#278BCB"/>
<path d="M382.238 413.74C382.238 413.686 382.249 413.633 382.27 413.583C382.29 413.533 382.32 413.488 382.358 413.45C382.396 413.412 382.442 413.382 382.491 413.361C382.541 413.341 382.594 413.33 382.648 413.33H400.998C405.836 413.33 410.475 415.398 413.896 419.08C417.317 422.761 419.238 427.754 419.238 432.96V438.66C419.238 443.866 417.317 448.859 413.896 452.541C410.475 456.222 405.836 458.29 400.998 458.29H382.648C382.54 458.29 382.435 458.247 382.358 458.17C382.281 458.093 382.238 457.989 382.238 457.88V413.74ZM388.158 419.44L388.038 452.4C388.038 452.586 388.112 452.764 388.243 452.895C388.375 453.026 388.553 453.1 388.738 453.1L399.778 453.14C401.523 453.146 403.252 452.788 404.866 452.086C406.48 451.385 407.948 450.353 409.186 449.05C410.424 447.747 411.407 446.199 412.08 444.493C412.753 442.788 413.103 440.958 413.108 439.11L413.128 432.89C413.14 429.16 411.753 425.578 409.272 422.932C406.791 420.286 403.419 418.793 399.898 418.78L388.858 418.74C388.673 418.74 388.495 418.814 388.363 418.945C388.232 419.076 388.158 419.254 388.158 419.44Z" fill="#278BCB"/>
</svg>
