<svg width="900" height="900" viewBox="0 0 900 900" fill="none" xmlns="http://www.w3.org/2000/svg">
<g clip-path="url(#clip0_879_60)">
<path d="M373.741 327.259C373.741 326.508 373.593 325.764 373.305 325.07C373.018 324.376 372.597 323.746 372.065 323.214C371.534 322.683 370.904 322.262 370.21 321.974C369.516 321.687 368.772 321.539 368.021 321.539C366.504 321.539 365.049 322.142 363.976 323.214C362.903 324.287 362.301 325.742 362.301 327.259C362.301 328.776 362.903 330.231 363.976 331.304C365.049 332.376 366.504 332.979 368.021 332.979C368.772 332.979 369.516 332.831 370.21 332.544C370.904 332.256 371.534 331.835 372.065 331.304C372.597 330.773 373.018 330.142 373.305 329.448C373.593 328.754 373.741 328.01 373.741 327.259Z" stroke="#808080" stroke-width="2"/>
<path d="M481.471 381.729L481.391 384.189C481.377 384.736 481.644 385.006 482.191 384.999L493.951 384.989C494.491 384.989 494.761 384.719 494.761 384.179V378.629C494.761 378.049 494.467 377.762 493.881 377.769L490.751 377.789C490.391 377.789 490.211 377.609 490.211 377.249L490.221 322.529C490.221 322.149 490.027 321.959 489.641 321.959L477.071 322.009C476.291 322.016 475.901 322.409 475.901 323.189L475.911 328.209C475.917 328.902 476.267 329.249 476.961 329.249L480.981 329.259C481.108 329.259 481.23 329.31 481.32 329.4C481.41 329.49 481.461 329.612 481.461 329.739L481.451 343.679C481.451 343.745 481.431 343.809 481.395 343.865C481.359 343.92 481.308 343.963 481.247 343.99C481.187 344.016 481.12 344.025 481.055 344.014C480.99 344.003 480.929 343.974 480.881 343.929C478.801 342.019 476.081 340.159 473.191 339.709C453.271 336.609 451.971 362.309 455.731 374.589C456.504 377.122 457.744 379.372 459.451 381.339C463.791 386.329 471.751 387.009 477.221 384.169C478.561 383.469 479.501 382.309 480.621 381.329C481.207 380.809 481.491 380.942 481.471 381.729Z" stroke="#808080" stroke-width="2"/>
<path d="M388.301 348.189C388.241 356.835 388.241 365.699 388.301 374.779C388.371 385.859 397.061 387.939 405.811 384.169C405.945 384.111 406.05 384.001 406.104 383.863C406.158 383.724 406.157 383.569 406.101 383.429L404.121 378.709C403.974 378.362 403.714 378.219 403.341 378.279C400.711 378.709 397.221 378.629 397.211 374.999C397.184 365.979 397.181 356.979 397.201 347.999C397.201 347.612 397.394 347.422 397.781 347.429L406.491 347.489C406.984 347.495 407.228 347.252 407.221 346.759L407.181 340.879C407.174 340.459 406.964 340.249 406.551 340.249L397.741 340.279C397.595 340.279 397.455 340.222 397.352 340.12C397.249 340.019 397.191 339.882 397.191 339.739L397.151 323.289C397.152 323.258 397.144 323.228 397.129 323.201C397.114 323.174 397.092 323.152 397.065 323.136C397.038 323.12 397.006 323.111 396.974 323.11C396.942 323.108 396.91 323.115 396.881 323.129L388.571 327.369C388.493 327.407 388.427 327.467 388.381 327.539C388.335 327.611 388.311 327.694 388.311 327.779L388.261 339.519C388.258 339.721 388.175 339.914 388.029 340.057C387.883 340.199 387.686 340.279 387.481 340.279L383.391 340.259C382.644 340.252 382.268 340.618 382.261 341.358L382.211 346.209C382.204 347.042 382.621 347.455 383.461 347.449L387.531 347.429C388.044 347.422 388.301 347.675 388.301 348.189Z" stroke="#808080" stroke-width="2"/>
<path d="M571.991 340.289L567.891 340.259C567.158 340.259 566.794 340.625 566.801 341.359L566.861 346.539C566.868 347.152 567.178 347.455 567.791 347.449L572.211 347.429C572.584 347.429 572.771 347.615 572.771 347.989C572.811 356.722 572.831 365.642 572.831 374.749C572.831 379.029 574.591 384.369 579.251 385.389C582.944 386.202 586.578 385.819 590.151 384.239C590.329 384.161 590.47 384.018 590.544 383.839C590.619 383.66 590.621 383.459 590.551 383.279L588.961 379.169C588.688 378.462 588.181 378.189 587.441 378.349C583.781 379.159 581.721 377.769 581.731 374.249C581.744 365.442 581.741 356.702 581.721 348.029C581.721 347.662 581.901 347.479 582.261 347.479L591.041 347.439C591.231 347.436 591.413 347.358 591.547 347.222C591.682 347.085 591.758 346.901 591.761 346.709L591.771 340.999C591.771 340.492 591.514 340.239 591.001 340.239L582.311 340.259C581.918 340.259 581.721 340.062 581.721 339.669C581.741 334.029 581.731 328.502 581.691 323.089C581.691 323.074 581.687 323.061 581.68 323.048C581.673 323.036 581.663 323.026 581.651 323.019C581.639 323.012 581.625 323.008 581.611 323.008C581.597 323.008 581.583 323.011 581.571 323.019C578.924 324.359 576.088 325.872 573.061 327.559C572.908 327.645 572.831 327.779 572.831 327.959L572.781 339.509C572.781 340.029 572.518 340.289 571.991 340.289Z" stroke="#808080" stroke-width="2"/>
<path d="M643.8 348.049C643.793 356.335 643.793 364.979 643.8 373.979C643.8 376.305 644.206 378.509 645.02 380.589C647.59 387.179 655.96 386.649 661.29 384.199C661.643 384.032 661.753 383.769 661.62 383.409L659.97 378.939C659.816 378.519 659.513 378.332 659.06 378.379C655.6 378.729 652.78 378.679 652.74 374.189C652.666 364.995 652.64 356.289 652.66 348.069C652.66 347.902 652.726 347.741 652.844 347.623C652.962 347.505 653.123 347.439 653.29 347.439L662.01 347.489C662.516 347.495 662.766 347.245 662.76 346.739L662.72 340.979C662.72 340.782 662.642 340.594 662.503 340.455C662.364 340.317 662.176 340.239 661.98 340.239L653.25 340.269C653.08 340.269 652.917 340.201 652.797 340.081C652.677 339.961 652.61 339.798 652.61 339.629V323.249C652.609 323.232 652.605 323.216 652.597 323.202C652.589 323.187 652.578 323.175 652.564 323.166C652.55 323.157 652.534 323.152 652.518 323.151C652.501 323.149 652.485 323.152 652.47 323.159C647.556 325.572 644.686 327.122 643.86 327.809C643.813 327.849 643.79 327.899 643.79 327.959L643.78 339.739C643.78 339.877 643.725 340.009 643.627 340.106C643.53 340.204 643.398 340.259 643.26 340.259H638.75C638.09 340.259 637.763 340.589 637.77 341.249V346.489C637.77 347.129 638.093 347.452 638.74 347.459H643.21C643.603 347.459 643.8 347.655 643.8 348.049Z" stroke="#808080" stroke-width="2"/>
<path d="M551.801 329.37C550.461 327.663 548.898 326.48 547.111 325.82C537.841 322.39 525.901 325.62 523.501 336.29C521.728 344.183 523.711 350.1 529.451 354.04C533.771 356.99 539.771 358.19 544.821 359.92C547.901 360.98 552.351 363.27 552.671 366.51C552.881 368.65 553.081 371.42 552.151 373.38C551.011 375.806 548.964 377.306 546.011 377.88C539.778 379.093 535.024 377.01 531.751 371.63C530.911 370.256 530.444 369.026 530.351 367.94C530.278 367.146 529.841 366.75 529.041 366.75H523.621C522.954 366.75 522.621 367.083 522.621 367.75L522.631 384.48C522.631 385 522.891 385.22 523.411 385.14C525.244 384.866 527.278 384.876 529.511 385.17C530.011 385.236 530.261 385.016 530.261 384.51V381.55C530.261 380.563 530.591 380.436 531.251 381.17C533.291 383.45 536.091 384.96 539.061 385.44C547.941 386.88 558.381 384.35 561.201 374.49C563.271 367.27 561.981 358.64 555.021 354.6C551.534 352.58 547.414 350.96 542.661 349.74C538.861 348.76 532.611 346.18 532.211 341.52C531.671 335.166 534.658 332.09 541.171 332.29C547.501 332.49 551.621 336.75 552.651 342.89C552.751 343.463 553.094 343.753 553.681 343.76L559.481 343.77C560.001 343.77 560.261 343.513 560.261 343L560.251 326.51C560.251 325.856 559.921 325.526 559.261 325.52H553.421C552.648 325.52 552.321 325.903 552.441 326.67C552.588 327.57 552.578 328.423 552.411 329.23C552.304 329.716 552.101 329.763 551.801 329.37Z" stroke="#808080" stroke-width="2"/>
<path d="M257.561 333.709C257.567 342.896 257.564 352.279 257.551 361.859C257.541 370.929 260.281 380.149 268.951 384.019C273.151 385.899 277.921 386.009 282.441 385.609C295.341 384.449 300.461 373.879 300.481 362.179C300.501 352.779 300.504 343.233 300.491 333.539C300.489 333.464 300.504 333.388 300.532 333.318C300.561 333.248 300.603 333.184 300.657 333.13C300.711 333.076 300.775 333.033 300.847 333.004C300.918 332.974 300.994 332.959 301.071 332.959L305.981 333.009C306.112 333.011 306.241 332.986 306.363 332.937C306.484 332.888 306.594 332.815 306.687 332.723C306.78 332.631 306.854 332.521 306.904 332.4C306.955 332.28 306.981 332.15 306.981 332.019L307.001 326.509C307.001 325.856 306.671 325.529 306.011 325.529H285.771C285.204 325.529 284.924 325.813 284.931 326.379L284.991 331.999C284.997 332.666 285.334 332.996 286.001 332.989L290.791 332.979C290.982 332.979 291.165 333.055 291.3 333.19C291.435 333.325 291.511 333.508 291.511 333.699C291.517 343.539 291.514 353.483 291.501 363.529C291.491 369.169 289.631 374.909 284.011 377.159C282.021 377.959 277.501 378.149 275.751 377.709C268.991 375.999 266.541 369.579 266.531 363.289C266.504 353.729 266.501 343.823 266.521 333.569C266.521 333.156 266.727 332.946 267.141 332.939C269.107 332.899 270.544 332.949 271.451 333.089C272.491 333.249 272.961 332.806 272.861 331.759C272.701 330.066 272.731 328.346 272.951 326.599C273.044 325.886 272.731 325.529 272.011 325.529H251.431C251.064 325.529 250.884 325.709 250.891 326.069L250.941 332.469C250.947 332.809 251.124 332.979 251.471 332.979L256.821 332.969C257.314 332.969 257.561 333.216 257.561 333.709Z" stroke="#808080" stroke-width="2"/>
<path d="M774.78 343.199C774.78 339.759 773.413 336.46 770.981 334.027C768.549 331.595 765.25 330.229 761.81 330.229C758.37 330.229 755.071 331.595 752.639 334.027C750.206 336.46 748.84 339.759 748.84 343.199C748.84 346.638 750.206 349.937 752.639 352.37C755.071 354.802 758.37 356.169 761.81 356.169C765.25 356.169 768.549 354.802 770.981 352.37C773.413 349.937 774.78 346.638 774.78 343.199Z" stroke="#808080" stroke-width="2"/>
<path d="M323.189 343.629C323.135 342.856 323.179 342.066 323.319 341.259C323.339 341.136 323.332 341.01 323.299 340.89C323.266 340.769 323.206 340.658 323.125 340.562C323.045 340.467 322.944 340.391 322.831 340.338C322.717 340.286 322.594 340.259 322.469 340.259H310.239C309.971 340.259 309.714 340.365 309.525 340.552C309.335 340.74 309.229 340.994 309.229 341.259L309.219 346.589C309.219 347.169 309.509 347.459 310.089 347.459L313.509 347.439C314.062 347.433 314.339 347.706 314.339 348.259L314.329 377.229C314.329 377.596 314.142 377.779 313.769 377.779H310.229C309.569 377.773 309.239 378.103 309.239 378.769V383.739C309.232 384.573 309.649 384.989 310.489 384.989L327.499 385.019C328.105 385.019 328.409 384.719 328.409 384.119V378.699C328.407 378.575 328.382 378.451 328.333 378.337C328.284 378.222 328.213 378.118 328.123 378.031C328.034 377.943 327.929 377.874 327.813 377.828C327.697 377.781 327.574 377.758 327.449 377.759L323.779 377.809C323.419 377.809 323.239 377.633 323.239 377.279V352.689C323.239 352.289 323.362 351.936 323.609 351.629C329.079 344.689 339.969 344.239 339.869 355.739C339.802 363.539 339.802 370.679 339.869 377.159C339.869 377.586 339.655 377.799 339.229 377.799L335.889 377.769C335.149 377.763 334.779 378.126 334.779 378.859V384.259C334.785 384.746 335.029 384.989 335.509 384.989L353.469 385.009C353.949 385.009 354.189 384.766 354.189 384.279V378.739C354.189 378.099 353.869 377.779 353.229 377.779H349.729C349.155 377.779 348.872 377.493 348.879 376.919C348.939 369.679 348.909 362.359 348.789 354.959C348.669 347.689 346.079 340.659 337.889 339.639C332.569 338.979 327.839 339.929 323.969 343.909C323.502 344.396 323.242 344.303 323.189 343.629Z" stroke="#808080" stroke-width="2"/>
<path d="M420.209 366.349C420.196 365.949 420.389 365.749 420.789 365.749L446.599 365.779C447.193 365.779 447.513 365.482 447.559 364.889C448.179 356.289 446.389 346.889 439.299 342.059C432.719 337.579 422.019 338.769 416.639 345.169C411.969 350.729 411.149 357.589 411.449 364.909C411.799 373.709 416.029 382.669 424.659 384.979C432.153 386.986 439.266 385.589 445.999 380.789C446.579 380.376 446.679 379.869 446.299 379.269L443.189 374.369C442.963 374.009 442.686 373.969 442.359 374.249C438.379 377.649 432.459 379.359 427.259 377.739C422.419 376.229 420.289 371.229 420.209 366.349Z" stroke="#808080" stroke-width="2"/>
<path d="M622.45 381.229L622.38 384.419C622.367 384.792 622.546 384.979 622.92 384.979L634.97 385.009C635.47 385.009 635.72 384.759 635.72 384.259L635.73 378.499C635.73 378.019 635.486 377.779 635 377.779H631.73C631.616 377.779 631.503 377.757 631.398 377.713C631.293 377.67 631.198 377.606 631.118 377.526C631.038 377.446 630.975 377.351 630.932 377.247C630.89 377.143 630.868 377.031 630.87 376.919C630.963 369.312 630.96 361.672 630.86 353.999C630.76 346.379 627.293 341.759 620.46 340.139C613.82 338.559 607.29 339.449 600.87 342.809C600.31 343.102 600.163 343.536 600.43 344.109L602.64 348.779C602.987 349.506 603.51 349.666 604.21 349.259C606.777 347.772 610.036 347.012 613.99 346.979C621.79 346.919 622.17 351.299 622.4 357.519C622.42 358.032 622.187 358.202 621.7 358.029C616.567 356.149 611.463 355.852 606.39 357.139C602.277 358.186 599.343 360.466 597.59 363.979C594.27 370.609 595.87 381.819 603.94 384.709C609.28 386.622 614.36 386.172 619.18 383.359C620.15 382.799 621 381.629 621.94 380.969C622.286 380.722 622.457 380.809 622.45 381.229Z" stroke="#808080" stroke-width="2"/>
<path d="M676.48 365.769L702.71 365.749C703.037 365.749 703.217 365.585 703.25 365.259C704.45 352.239 699.06 338.259 683.75 339.499C668.31 340.749 664.88 358.479 667.99 370.929C669.96 378.819 675.62 385.009 683.81 385.689C690.957 386.289 697.01 384.549 701.97 380.469C702.33 380.175 702.387 379.835 702.14 379.449L698.9 374.269C698.866 374.214 698.821 374.167 698.768 374.131C698.714 374.096 698.654 374.072 698.59 374.061C698.527 374.051 698.462 374.054 698.4 374.071C698.337 374.088 698.28 374.118 698.23 374.159C695.53 376.379 692.584 377.709 689.39 378.149C680.89 379.299 676.34 374.489 675.81 366.489C675.803 366.397 675.815 366.304 675.846 366.217C675.877 366.13 675.925 366.05 675.988 365.982C676.051 365.915 676.127 365.861 676.212 365.824C676.296 365.787 676.388 365.769 676.48 365.769Z" stroke="#808080" stroke-width="2"/>
<path d="M718.322 382.39C722.475 385.776 727.418 386.543 733.152 384.69C739.258 382.71 742.098 378.156 741.672 371.03C741.358 365.876 738.612 362.313 733.432 360.34C729.998 359.026 726.625 357.773 723.312 356.58C716.782 354.22 719.012 345.27 726.252 346.58C730.118 347.28 732.718 349.68 734.052 353.78C734.165 354.126 734.405 354.303 734.772 354.31L739.942 354.33C740.362 354.336 740.568 354.13 740.562 353.71L740.522 341.02C740.522 340.52 740.272 340.27 739.772 340.27L734.472 340.26C733.938 340.26 733.698 340.526 733.752 341.06C733.798 341.526 733.728 341.96 733.542 342.36C733.402 342.653 733.218 342.683 732.992 342.45C729.772 339.23 723.082 338.92 719.032 340.48C713.432 342.633 710.658 346.803 710.712 352.99C710.812 363.37 721.092 365.22 728.732 367.8C731.698 368.8 733.102 370.783 732.942 373.75C732.808 376.37 731.495 377.92 729.002 378.4C723.832 379.41 719.742 376.35 717.292 371.47C717.125 371.136 716.858 370.97 716.492 370.97L711.432 370.94C711.349 370.938 711.268 370.954 711.191 370.985C711.115 371.016 711.045 371.062 710.987 371.121C710.928 371.179 710.882 371.249 710.85 371.326C710.818 371.403 710.802 371.486 710.802 371.57V384.27C710.802 384.461 710.878 384.644 711.013 384.779C711.148 384.914 711.331 384.99 711.522 384.99L717.012 385C717.518 385 717.768 384.746 717.762 384.24L717.732 382.68C717.718 382.153 717.915 382.056 718.322 382.39Z" stroke="#808080" stroke-width="2"/>
<path d="M364.519 377.27C364.519 377.405 364.466 377.535 364.37 377.631C364.274 377.726 364.145 377.78 364.009 377.78H359.369C359.234 377.78 359.104 377.834 359.009 377.929C358.913 378.025 358.859 378.155 358.859 378.29L358.879 384.46C358.879 384.595 358.933 384.725 359.029 384.821C359.124 384.916 359.254 384.97 359.389 384.97L378.219 385C378.355 385 378.484 384.946 378.58 384.851C378.676 384.755 378.729 384.625 378.729 384.49L378.759 378.29C378.759 378.155 378.706 378.025 378.61 377.929C378.514 377.834 378.385 377.78 378.249 377.78H373.899C373.764 377.78 373.634 377.726 373.539 377.631C373.443 377.535 373.389 377.405 373.389 377.27L373.409 340.76C373.409 340.693 373.396 340.627 373.371 340.565C373.345 340.503 373.307 340.447 373.26 340.399C373.213 340.352 373.156 340.314 373.095 340.289C373.033 340.263 372.966 340.25 372.899 340.25L359.389 340.26C359.254 340.26 359.124 340.314 359.029 340.409C358.933 340.505 358.879 340.635 358.879 340.77L358.919 346.94C358.919 347.075 358.973 347.205 359.069 347.301C359.164 347.396 359.294 347.45 359.429 347.45L363.999 347.44C364.135 347.44 364.264 347.494 364.36 347.589C364.456 347.685 364.509 347.815 364.509 347.95L364.519 377.27Z" stroke="#808080" stroke-width="2"/>
<path d="M234.681 373.059C226.071 368.019 216.451 365.269 206.511 364.109C202.037 363.583 196.841 363.509 190.921 363.889C186.021 364.203 180.694 365.263 174.941 367.069C155.041 373.339 139.671 387.809 131.861 407.109C128.501 415.409 126.474 424.709 125.781 435.009C124.461 454.659 127.231 474.009 138.191 489.649C149.024 505.089 163.664 514.249 182.111 517.129C192.304 518.716 202.461 518.669 212.581 516.989C221.981 515.423 230.774 511.793 238.961 506.099C239.341 505.839 239.404 505.513 239.151 505.119L226.861 485.849C226.814 485.778 226.752 485.716 226.681 485.669C226.609 485.622 226.528 485.591 226.444 485.577C226.359 485.563 226.272 485.566 226.189 485.587C226.106 485.609 226.028 485.647 225.961 485.699C217.614 492.219 208.141 495.313 197.541 494.979C191.601 494.786 186.317 493.476 181.691 491.049C164.851 482.229 162.311 463.909 162.041 446.819C161.731 428.079 161.281 402.769 180.291 392.069C193.771 384.479 210.121 386.799 222.831 395.569C222.895 395.612 222.967 395.642 223.043 395.655C223.119 395.669 223.197 395.667 223.272 395.649C223.347 395.631 223.418 395.598 223.48 395.552C223.541 395.505 223.593 395.447 223.631 395.379L235.191 374.929C235.631 374.136 235.461 373.513 234.681 373.059Z" stroke="#808080" stroke-width="2"/>
<path d="M462.821 484.629L454.281 504.989C454.115 505.396 454.228 505.699 454.621 505.899C464.108 510.773 473.481 514.156 482.741 516.049C499.291 519.449 519.241 517.319 531.951 505.789C547.731 491.469 548.041 462.459 526.251 452.569C523.811 451.456 521.308 450.556 518.741 449.869C512.675 448.243 506.455 446.596 500.081 444.929C495.351 443.699 489.431 441.119 489.041 435.549C488.581 428.889 493.931 424.849 500.121 424.329C509.911 423.509 519.621 426.889 528.151 431.439C528.978 431.879 529.558 431.663 529.891 430.789L536.891 412.419C536.928 412.326 536.928 412.222 536.893 412.128C536.858 412.034 536.79 411.956 536.701 411.909C523.588 404.896 509.775 401.856 495.261 402.789C478.691 403.839 462.471 412.669 458.781 430.029C457.348 436.796 457.785 443.546 460.091 450.279C461.971 455.779 465.548 460.096 470.821 463.229C475.361 465.936 479.168 467.589 482.241 468.189C487.535 469.229 492.965 470.269 498.531 471.309C501.531 471.879 504.681 472.919 507.391 474.339C512.521 477.029 514.701 482.639 512.701 487.999C510.651 493.499 504.731 496.559 498.991 496.409C486.651 496.099 474.141 490.739 463.541 484.389C463.215 484.196 462.975 484.276 462.821 484.629Z" stroke="#808080" stroke-width="2"/>
<path d="M740.171 412.67C740.331 412.25 740.211 411.936 739.811 411.73C726.198 404.683 712.191 401.72 697.791 402.84C683.681 403.94 670.221 410.55 664.241 423.68C660.281 432.34 660.421 443.14 664.111 451.96C667.051 459.01 673.591 463.75 680.541 466.52C686.921 469.06 694.561 469.9 701.371 471.17C707.541 472.32 715.511 475.06 716.631 482.11C718.041 490.9 710.091 496.61 702.021 496.4C697.641 496.286 693.208 495.54 688.721 494.16C681.054 491.793 673.828 488.56 667.041 484.46C666.96 484.411 666.869 484.38 666.775 484.369C666.681 484.358 666.585 484.368 666.495 484.397C666.405 484.427 666.322 484.475 666.253 484.539C666.183 484.604 666.128 484.682 666.091 484.77L657.641 504.95C657.561 505.146 657.557 505.365 657.631 505.563C657.705 505.762 657.852 505.925 658.041 506.02C673.821 513.94 690.691 518.99 708.221 517.07C725.101 515.22 741.451 505.99 745.521 488.56C748.481 475.86 745.281 462.95 734.301 455.19C730.781 452.71 725.951 450.83 721.721 449.74C714.668 447.926 708.064 446.166 701.911 444.46C696.171 442.86 690.651 438.89 692.671 432.1C695.621 422.11 709.651 423.45 717.801 425.85C722.828 427.33 727.581 429.273 732.061 431.68C732.149 431.728 732.247 431.756 732.346 431.763C732.446 431.77 732.547 431.756 732.641 431.72C732.734 431.685 732.82 431.631 732.89 431.56C732.961 431.489 733.016 431.404 733.051 431.31L740.171 412.67Z" stroke="#808080" stroke-width="2"/>
<path d="M276.293 469.609C276.295 469.484 276.346 469.364 276.434 469.276C276.522 469.189 276.64 469.139 276.763 469.139L338.643 469.149C338.755 469.149 338.863 469.105 338.943 469.027C339.023 468.948 339.07 468.842 339.073 468.729C339.186 461.123 338.879 453.763 338.153 446.649C337.013 435.539 333.392 424.819 325.862 416.119C313.942 402.359 287.893 400.039 272.393 407.819C258.423 414.829 249.173 428.749 246.723 444.699C245.089 455.366 245.093 465.466 246.733 474.999C250.573 497.409 265.843 513.759 288.793 516.799C306.473 519.149 323.393 514.019 337.403 502.579C337.518 502.487 337.594 502.354 337.617 502.208C337.639 502.061 337.605 501.912 337.522 501.789L327.143 485.799C327.086 485.71 327.011 485.635 326.923 485.577C326.835 485.519 326.735 485.481 326.631 485.465C326.527 485.449 326.421 485.455 326.319 485.484C326.218 485.512 326.123 485.562 326.043 485.629C318.743 491.759 310.083 495.659 300.633 495.919C297.233 496.019 294.639 495.829 292.853 495.349C280.533 492.059 276.193 481.489 276.293 469.609Z" stroke="#808080" stroke-width="2"/>
<path d="M380.631 415.349L380.701 404.969C380.701 404.839 380.651 404.714 380.561 404.622C380.47 404.53 380.348 404.479 380.221 404.479L355.721 404.489C355.675 404.489 355.63 404.498 355.587 404.515C355.545 404.533 355.506 404.559 355.474 404.591C355.441 404.624 355.415 404.662 355.398 404.705C355.38 404.747 355.371 404.793 355.371 404.839L355.381 513.869C355.381 513.964 355.419 514.056 355.487 514.123C355.554 514.191 355.646 514.229 355.741 514.229L383.251 514.239C383.349 514.239 383.443 514.2 383.513 514.13C383.582 514.061 383.621 513.967 383.621 513.869V438.019C383.621 437.889 383.647 437.761 383.699 437.643C383.751 437.524 383.826 437.417 383.921 437.329C389.708 432.122 395.508 428.979 401.321 427.899C410.921 426.119 412.761 433.159 412.771 440.689C412.784 466.022 412.784 490.452 412.771 513.979C412.771 514.048 412.799 514.114 412.847 514.163C412.896 514.211 412.962 514.239 413.031 514.239L440.491 514.229C440.616 514.229 440.735 514.179 440.823 514.091C440.912 514.003 440.961 513.883 440.961 513.759C440.961 488.386 440.954 462.666 440.941 436.599C440.931 426.859 440.471 417.049 432.401 410.429C420.071 400.319 402.621 402.509 389.461 410.389C386.808 411.982 384.164 413.785 381.531 415.799C381.448 415.862 381.348 415.901 381.244 415.911C381.139 415.921 381.034 415.902 380.941 415.855C380.847 415.808 380.768 415.736 380.713 415.646C380.659 415.557 380.63 415.454 380.631 415.349Z" stroke="#808080" stroke-width="2"/>
<path d="M618.631 503.729L618.611 513.548C618.611 514.002 618.841 514.228 619.301 514.228H643.501C643.628 514.228 643.75 514.178 643.84 514.088C643.93 513.998 643.981 513.876 643.981 513.749V404.988C643.981 404.856 643.929 404.729 643.838 404.635C643.746 404.541 643.621 404.488 643.491 404.488H616.251C615.871 404.488 615.678 404.679 615.671 405.059C615.664 429.665 615.671 454.119 615.691 478.419C615.691 479.539 615.931 480.868 614.971 481.678C609.551 486.298 603.301 490.349 596.291 490.849C586.581 491.529 586.331 482.158 586.341 474.928C586.381 451.582 586.401 428.325 586.401 405.159C586.401 404.978 586.329 404.805 586.202 404.678C586.074 404.55 585.901 404.479 585.721 404.479L559.011 404.488C558.624 404.488 558.431 404.682 558.431 405.069C558.484 429.635 558.458 453.615 558.351 477.009C558.281 489.899 557.551 502.789 569.871 510.319C581.531 517.459 597.181 515.538 608.411 509.018C611.231 507.385 614.228 505.412 617.401 503.099C618.221 502.505 618.631 502.715 618.631 503.729Z" stroke="#808080" stroke-width="2"/>
<path d="M586.692 550.849C590.172 549.536 592.085 546.703 592.432 542.349C592.992 535.409 586.982 530.869 580.492 530.749C574.598 530.649 568.472 530.616 562.112 530.649C561.712 530.649 561.512 530.849 561.512 531.249V573.799C561.512 574.293 561.755 574.533 562.242 574.519C565.882 574.419 570.172 574.409 575.112 574.489C580.938 574.583 584.722 574.323 586.462 573.709C594.412 570.889 597.012 559.819 590.812 553.909C589.692 552.839 588.072 552.199 586.662 551.539C586.135 551.286 586.145 551.056 586.692 550.849Z" stroke="#808080" stroke-width="2"/>
<path d="M639.281 544.48L639.211 543.66C639.171 543.173 638.904 542.927 638.411 542.92L632.041 542.89C631.661 542.89 631.471 543.08 631.471 543.46L631.461 574.14C631.461 574.36 631.571 574.47 631.791 574.47L639.501 574.46C639.668 574.46 639.754 574.373 639.761 574.2C639.788 568.753 639.774 561.833 639.721 553.44C639.701 549.95 643.861 548.61 646.671 549.41C647.264 549.577 647.631 549.357 647.771 548.75L649.011 543.4C649.191 542.633 648.898 542.16 648.131 541.98C644.958 541.227 642.304 542.153 640.171 544.76C639.644 545.4 639.348 545.307 639.281 544.48Z" stroke="#808080" stroke-width="2"/>
<path d="M661.429 561.229L677.689 561.199C677.983 561.199 678.139 561.052 678.159 560.759C678.959 550.779 675.469 540.809 663.439 541.689C655.169 542.289 650.979 548.679 650.569 556.439C650.403 559.526 650.536 561.906 650.969 563.579C653.116 571.846 658.506 575.792 667.139 575.419C670.553 575.272 673.969 573.916 677.389 571.349C677.542 571.231 677.645 571.06 677.679 570.872C677.712 570.683 677.673 570.489 677.569 570.329L674.869 566.239C674.636 565.886 674.363 565.849 674.049 566.129C671.569 568.369 668.486 569.259 664.799 568.799C662.913 568.566 661.576 567.582 660.789 565.849C660.663 565.569 660.343 564.862 659.829 563.729C659.076 562.069 659.609 561.236 661.429 561.229Z" stroke="#808080" stroke-width="2"/>
<path d="M701.699 573.43C701.706 573.63 701.742 573.826 701.809 574.02C701.916 574.326 702.136 574.48 702.469 574.48L707.459 574.46C707.549 574.46 707.636 574.424 707.7 574.36C707.763 574.296 707.799 574.21 707.799 574.12C707.699 567.773 707.826 561.21 708.179 554.43C708.519 547.92 706.979 542.53 699.599 541.74C693.806 541.126 688.303 542.586 683.089 546.12C683.003 546.18 682.986 546.253 683.039 546.34L686.439 552.01C686.533 552.163 686.652 552.19 686.799 552.09C689.609 550.25 693.949 547.93 697.359 548.69C697.958 548.824 698.496 549.153 698.889 549.625C699.281 550.097 699.507 550.686 699.529 551.3L699.599 553.32C699.639 554.293 699.173 554.736 698.199 554.65C689.139 553.82 679.999 557.91 682.729 568.87C684.689 576.74 696.009 577.39 700.959 573.09C701.446 572.67 701.693 572.783 701.699 573.43Z" stroke="#808080" stroke-width="2"/>
<path d="M617.712 573.489C617.706 573.642 617.735 573.789 617.802 573.929C617.982 574.289 618.272 574.469 618.672 574.469L623.982 574.479C624.107 574.479 624.226 574.431 624.314 574.344C624.403 574.258 624.452 574.141 624.452 574.019V543.429C624.452 543.089 624.279 542.916 623.932 542.909L616.952 542.869C616.592 542.869 616.412 543.049 616.412 543.409C616.419 549.509 616.432 556.286 616.452 563.739C616.452 566.689 614.852 568.279 611.992 568.669C609.079 569.056 607.609 567.639 607.582 564.419C607.516 557.199 607.512 550.282 607.572 543.669C607.574 543.57 607.555 543.471 607.518 543.379C607.481 543.287 607.426 543.203 607.356 543.132C607.286 543.062 607.203 543.005 607.111 542.967C607.02 542.929 606.922 542.909 606.822 542.909L599.922 542.889C599.685 542.889 599.458 542.983 599.289 543.149C599.121 543.316 599.025 543.542 599.022 543.779C598.949 550.613 598.972 557.462 599.092 564.329C599.142 567.129 599.422 571.169 601.902 572.849C606.762 576.142 611.779 576.212 616.952 573.059C617.466 572.746 617.719 572.889 617.712 573.489Z" stroke="#808080" stroke-width="2"/>
<path d="M732.579 573.529C732.546 573.669 732.556 573.799 732.609 573.919C732.762 574.279 733.036 574.459 733.429 574.459L738.949 574.479C739.002 574.481 739.055 574.471 739.105 574.452C739.155 574.432 739.2 574.403 739.238 574.366C739.276 574.329 739.307 574.284 739.328 574.235C739.348 574.186 739.359 574.133 739.359 574.079L739.329 543.259C739.329 543.039 739.222 542.929 739.009 542.929L731.619 542.869C731.326 542.863 731.179 543.006 731.179 543.299C731.159 550.313 731.172 557.219 731.219 564.019C731.239 566.789 729.629 568.339 726.839 568.679C724.026 569.019 722.596 567.773 722.549 564.939C722.422 557.419 722.396 550.309 722.469 543.609C722.47 543.521 722.454 543.432 722.421 543.35C722.388 543.267 722.339 543.192 722.276 543.129C722.214 543.066 722.14 543.016 722.058 542.981C721.976 542.947 721.888 542.929 721.799 542.929L714.759 542.889C714.671 542.888 714.585 542.904 714.503 542.937C714.422 542.969 714.348 543.018 714.286 543.079C714.223 543.14 714.174 543.214 714.14 543.294C714.106 543.375 714.089 543.462 714.089 543.549C714.069 550.169 714.059 556.533 714.059 562.639C714.059 566.959 713.749 571.649 718.409 573.889C722.989 576.096 727.489 575.813 731.909 573.039C732.529 572.646 732.752 572.809 732.579 573.529Z" stroke="#808080" stroke-width="2"/>
<path d="M542.551 559.549C542.551 555.762 541.046 552.13 538.368 549.452C535.69 546.774 532.058 545.27 528.271 545.27H141.671C137.883 545.27 134.251 546.774 131.573 549.452C128.895 552.13 127.391 555.762 127.391 559.549V560.19C127.391 563.977 128.895 567.609 131.573 570.287C134.251 572.965 137.883 574.469 141.671 574.469H528.271C532.058 574.469 535.69 572.965 538.368 570.287C541.046 567.609 542.551 563.977 542.551 560.19V559.549Z" stroke="#808080" stroke-width="2"/>
<path d="M475.102 347.489C469.052 345.119 464.552 348.979 463.552 354.729C462.552 360.469 462.112 372.319 466.792 376.549C469.432 378.935 472.559 379.315 476.172 377.689C477.545 377.069 479.229 375.545 481.222 373.119C481.435 372.859 481.542 372.562 481.542 372.229V353.059C481.542 352.745 481.445 352.465 481.252 352.219C479.452 349.965 477.402 348.389 475.102 347.489Z" stroke="#808080" stroke-width="2"/>
<path d="M772.52 343.168C772.52 340.336 771.395 337.619 769.392 335.616C767.389 333.614 764.673 332.488 761.84 332.488C759.008 332.488 756.291 333.614 754.288 335.616C752.285 337.619 751.16 340.336 751.16 343.168C751.16 346.001 752.285 348.717 754.288 350.72C756.291 352.723 759.008 353.848 761.84 353.848C764.673 353.848 767.389 352.723 769.392 350.72C771.395 348.717 772.52 346.001 772.52 343.168Z" stroke="#808080" stroke-width="2"/>
<path d="M764.022 344.009C768.302 342.689 767.722 336.549 762.942 336.509C760.795 336.495 758.682 336.502 756.602 336.529C756.469 336.529 756.342 336.582 756.248 336.678C756.154 336.774 756.102 336.903 756.102 337.039L756.152 349.579C756.152 350.125 756.418 350.435 756.952 350.509C757.218 350.542 757.485 350.532 757.752 350.479C757.93 350.44 758.09 350.34 758.205 350.196C758.319 350.053 758.382 349.874 758.382 349.689V345.189C758.382 344.802 758.572 344.569 758.952 344.489C761.752 343.879 763.362 347.129 764.362 349.229C764.538 349.608 764.819 349.93 765.173 350.157C765.528 350.383 765.94 350.505 766.362 350.509H766.802C767.588 350.515 767.792 350.172 767.412 349.479C766.432 347.725 765.248 346.095 763.862 344.589C763.82 344.545 763.79 344.491 763.775 344.432C763.76 344.373 763.76 344.312 763.777 344.253C763.793 344.195 763.824 344.141 763.867 344.098C763.91 344.056 763.963 344.025 764.022 344.009Z" stroke="#808080" stroke-width="2"/>
<path d="M758.353 338.818L758.313 341.918C758.311 341.994 758.325 342.07 758.353 342.141C758.381 342.212 758.422 342.276 758.475 342.331C758.528 342.386 758.592 342.43 758.661 342.46C758.731 342.491 758.806 342.507 758.883 342.508L761.443 342.538C762.217 342.549 762.963 342.348 763.516 341.98C764.069 341.613 764.385 341.108 764.393 340.578V340.318C764.397 340.055 764.325 339.794 764.182 339.55C764.039 339.305 763.827 339.081 763.559 338.892C763.291 338.703 762.971 338.551 762.618 338.445C762.265 338.34 761.886 338.283 761.503 338.278L758.943 338.248C758.866 338.247 758.791 338.261 758.72 338.288C758.649 338.316 758.584 338.358 758.53 338.411C758.475 338.464 758.431 338.527 758.401 338.597C758.37 338.667 758.354 338.742 758.353 338.818Z" stroke="#808080" stroke-width="2"/>
<path d="M420.709 358.69L438.189 358.65C438.319 358.65 438.443 358.598 438.535 358.506C438.627 358.415 438.679 358.29 438.679 358.16V357.77C438.673 354.843 437.744 352.037 436.098 349.971C434.451 347.904 432.222 346.746 429.899 346.75H428.959C427.808 346.752 426.669 347.04 425.607 347.597C424.545 348.154 423.581 348.969 422.769 349.996C421.958 351.023 421.315 352.242 420.877 353.583C420.439 354.923 420.216 356.36 420.219 357.81V358.2C420.219 358.33 420.27 358.455 420.362 358.546C420.454 358.638 420.579 358.69 420.709 358.69Z" stroke="#808080" stroke-width="2"/>
<path d="M620.809 364.649C615.179 362.909 605.759 361.779 604.559 369.769C603.689 375.579 607.569 379.359 613.349 378.429C616.863 377.856 619.739 376.113 621.979 373.199C622.213 372.899 622.329 372.559 622.329 372.179C622.323 370.399 622.343 368.583 622.389 366.729C622.423 365.676 621.896 364.983 620.809 364.649Z" stroke="#808080" stroke-width="2"/>
<path d="M676.342 358.679H694.062C694.117 358.679 694.172 358.668 694.223 358.647C694.274 358.626 694.32 358.595 694.359 358.556C694.398 358.517 694.429 358.471 694.45 358.42C694.471 358.369 694.482 358.314 694.482 358.259V357.689C694.482 354.774 693.508 351.979 691.776 349.918C690.043 347.857 687.692 346.699 685.242 346.699H685.162C682.711 346.699 680.361 347.857 678.628 349.918C676.895 351.979 675.922 354.774 675.922 357.689V358.259C675.922 358.371 675.966 358.477 676.045 358.556C676.124 358.635 676.231 358.679 676.342 358.679Z" stroke="#808080" stroke-width="2"/>
<path d="M277.563 448.369L309.123 448.209C309.196 448.209 309.268 448.195 309.335 448.167C309.403 448.138 309.464 448.097 309.515 448.045C309.566 447.993 309.607 447.931 309.634 447.863C309.661 447.795 309.674 447.723 309.673 447.649L309.653 443.379C309.639 440.861 309.23 438.369 308.447 436.046C307.664 433.723 306.523 431.614 305.089 429.841C303.655 428.067 301.957 426.663 300.091 425.709C298.224 424.755 296.227 424.269 294.213 424.279L292.233 424.299C290.218 424.31 288.226 424.816 286.37 425.79C284.514 426.763 282.83 428.185 281.415 429.974C279.999 431.762 278.881 433.882 278.122 436.213C277.363 438.544 276.979 441.041 276.993 443.559L277.013 447.829C277.015 447.974 277.074 448.111 277.177 448.212C277.28 448.313 277.418 448.369 277.563 448.369Z" stroke="#808080" stroke-width="2"/>
<path d="M570.25 538.699V547.839C570.25 547.951 570.294 548.057 570.373 548.136C570.452 548.215 570.559 548.259 570.67 548.259H578.1C579.45 548.259 580.745 547.744 581.699 546.827C582.654 545.91 583.19 544.666 583.19 543.369V543.169C583.19 541.872 582.654 540.629 581.699 539.711C580.745 538.794 579.45 538.279 578.1 538.279H570.67C570.559 538.279 570.452 538.324 570.373 538.402C570.294 538.481 570.25 538.588 570.25 538.699Z" stroke="#808080" stroke-width="2"/>
<path d="M570.289 556.029L570.309 566.709C570.309 566.86 570.369 567.005 570.476 567.112C570.583 567.219 570.728 567.279 570.879 567.279L578.409 567.269C579.942 567.267 581.411 566.657 582.493 565.575C583.575 564.493 584.182 563.027 584.179 561.499V561.199C584.178 560.443 584.027 559.694 583.735 558.996C583.444 558.297 583.017 557.663 582.479 557.129C581.941 556.595 581.304 556.172 580.602 555.884C579.9 555.596 579.148 555.448 578.389 555.449L570.859 555.459C570.708 555.459 570.563 555.519 570.456 555.626C570.349 555.733 570.289 555.878 570.289 556.029Z" stroke="#808080" stroke-width="2"/>
<path d="M660.331 554.769L669.031 554.749C669.169 554.749 669.301 554.694 669.399 554.597C669.496 554.499 669.551 554.367 669.551 554.229L669.541 553.999C669.538 552.352 669.031 550.774 668.133 549.612C667.235 548.449 666.018 547.797 664.751 547.799H664.571C663.943 547.8 663.321 547.961 662.742 548.275C662.162 548.588 661.636 549.046 661.193 549.624C660.75 550.201 660.399 550.887 660.16 551.641C659.921 552.395 659.799 553.203 659.801 554.019L659.811 554.249C659.811 554.317 659.824 554.385 659.85 554.448C659.877 554.511 659.915 554.568 659.963 554.617C660.011 554.665 660.069 554.703 660.132 554.729C660.195 554.755 660.263 554.769 660.331 554.769Z" stroke="#808080" stroke-width="2"/>
<path d="M698.853 560.309C695.713 560.339 691.773 560.669 691.433 564.539C690.973 569.859 695.873 570.499 699.003 567.569C699.336 567.262 699.503 566.885 699.503 566.439V560.959C699.503 560.525 699.286 560.309 698.853 560.309Z" stroke="#808080" stroke-width="2"/>
<path d="M368.021 332.979C371.18 332.979 373.741 330.418 373.741 327.259C373.741 324.1 371.18 321.539 368.021 321.539C364.862 321.539 362.301 324.1 362.301 327.259C362.301 330.418 364.862 332.979 368.021 332.979Z" fill="black"/>
<path d="M480.621 381.331C479.501 382.311 478.561 383.471 477.221 384.171C471.751 387.011 463.791 386.331 459.451 381.341C457.744 379.374 456.504 377.124 455.731 374.591C451.971 362.311 453.271 336.611 473.191 339.711C476.081 340.161 478.801 342.021 480.881 343.931C480.929 343.976 480.99 344.005 481.055 344.016C481.12 344.027 481.187 344.018 481.247 343.992C481.308 343.965 481.359 343.922 481.395 343.867C481.431 343.811 481.451 343.747 481.451 343.681L481.461 329.741C481.461 329.614 481.41 329.492 481.32 329.402C481.23 329.312 481.108 329.261 480.981 329.261L476.961 329.251C476.267 329.251 475.917 328.904 475.911 328.211L475.901 323.191C475.901 322.411 476.291 322.018 477.071 322.011L489.641 321.961C490.027 321.961 490.221 322.151 490.221 322.531L490.211 377.251C490.211 377.611 490.391 377.791 490.751 377.791L493.881 377.771C494.467 377.764 494.761 378.051 494.761 378.631V384.181C494.761 384.721 494.491 384.991 493.951 384.991L482.191 385.001C481.644 385.008 481.377 384.738 481.391 384.191L481.471 381.731C481.491 380.944 481.207 380.811 480.621 381.331ZM475.101 347.491C469.051 345.121 464.551 348.981 463.551 354.731C462.551 360.471 462.111 372.321 466.791 376.551C469.431 378.938 472.557 379.318 476.171 377.691C477.544 377.071 479.227 375.548 481.221 373.121C481.434 372.861 481.541 372.564 481.541 372.231V353.061C481.541 352.748 481.444 352.468 481.251 352.221C479.451 349.968 477.401 348.391 475.101 347.491Z" fill="black"/>
<path d="M387.531 347.43L383.461 347.45C382.621 347.457 382.204 347.044 382.211 346.21L382.261 341.36C382.268 340.62 382.644 340.254 383.391 340.26L387.481 340.28C387.686 340.281 387.883 340.201 388.029 340.059C388.175 339.916 388.258 339.723 388.261 339.52L388.311 327.78C388.311 327.696 388.335 327.613 388.381 327.541C388.427 327.469 388.493 327.409 388.571 327.37L396.881 323.13C396.91 323.117 396.942 323.11 396.974 323.111C397.006 323.113 397.038 323.122 397.065 323.138C397.092 323.154 397.114 323.176 397.129 323.203C397.144 323.23 397.152 323.26 397.151 323.29L397.191 339.74C397.191 339.884 397.249 340.021 397.352 340.122C397.455 340.224 397.595 340.28 397.741 340.28L406.551 340.25C406.964 340.25 407.174 340.46 407.181 340.88L407.221 346.76C407.228 347.254 406.984 347.497 406.491 347.49L397.781 347.43C397.394 347.424 397.201 347.614 397.201 348C397.181 356.98 397.184 365.98 397.211 375C397.221 378.63 400.711 378.71 403.341 378.28C403.714 378.22 403.974 378.364 404.121 378.71L406.101 383.43C406.157 383.571 406.158 383.726 406.104 383.865C406.05 384.003 405.945 384.113 405.811 384.17C397.061 387.94 388.371 385.86 388.301 374.78C388.241 365.7 388.241 356.837 388.301 348.19C388.301 347.677 388.044 347.424 387.531 347.43Z" fill="black"/>
<path d="M572.781 339.51L572.831 327.96C572.831 327.78 572.908 327.647 573.061 327.56C576.088 325.874 578.924 324.36 581.571 323.02C581.583 323.013 581.597 323.01 581.611 323.01C581.625 323.01 581.639 323.014 581.651 323.021C581.663 323.028 581.673 323.038 581.68 323.05C581.687 323.062 581.691 323.076 581.691 323.09C581.731 328.504 581.741 334.031 581.721 339.671C581.721 340.064 581.918 340.26 582.311 340.26L591.001 340.24C591.514 340.24 591.771 340.494 591.771 341L591.761 346.71C591.758 346.903 591.682 347.087 591.547 347.224C591.413 347.36 591.231 347.438 591.041 347.44L582.261 347.48C581.901 347.48 581.721 347.664 581.721 348.03C581.741 356.704 581.744 365.444 581.731 374.25C581.721 377.77 583.781 379.16 587.441 378.35C588.181 378.19 588.688 378.464 588.961 379.171L590.551 383.28C590.621 383.461 590.619 383.662 590.544 383.841C590.47 384.02 590.329 384.163 590.151 384.24C586.578 385.82 582.944 386.204 579.251 385.391C574.591 384.371 572.831 379.03 572.831 374.75C572.831 365.644 572.811 356.724 572.771 347.99C572.771 347.617 572.584 347.43 572.211 347.43L567.791 347.451C567.178 347.457 566.868 347.154 566.861 346.54L566.801 341.36C566.794 340.627 567.158 340.26 567.891 340.26L571.991 340.29C572.518 340.29 572.781 340.03 572.781 339.51Z" fill="black"/>
<path d="M643.21 347.461H638.74C638.093 347.454 637.77 347.131 637.77 346.491V341.251C637.763 340.591 638.09 340.261 638.75 340.261H643.26C643.398 340.261 643.53 340.206 643.627 340.108C643.725 340.011 643.78 339.879 643.78 339.741L643.79 327.961C643.79 327.901 643.813 327.851 643.86 327.811C644.686 327.124 647.556 325.574 652.47 323.161C652.485 323.154 652.501 323.151 652.518 323.153C652.534 323.154 652.55 323.159 652.564 323.168C652.578 323.177 652.589 323.189 652.597 323.204C652.605 323.218 652.609 323.234 652.61 323.251V339.631C652.61 339.8 652.677 339.963 652.797 340.083C652.917 340.203 653.08 340.271 653.25 340.271L661.98 340.241C662.176 340.241 662.364 340.319 662.503 340.457C662.642 340.596 662.72 340.784 662.72 340.981L662.76 346.741C662.766 347.247 662.516 347.497 662.01 347.491L653.29 347.441C653.123 347.441 652.962 347.507 652.844 347.625C652.726 347.743 652.66 347.904 652.66 348.071C652.64 356.291 652.666 364.997 652.74 374.191C652.78 378.681 655.6 378.731 659.06 378.381C659.513 378.334 659.816 378.521 659.97 378.941L661.62 383.411C661.753 383.771 661.643 384.034 661.29 384.201C655.96 386.651 647.59 387.181 645.02 380.591C644.206 378.511 643.8 376.307 643.8 373.981C643.793 364.981 643.793 356.337 643.8 348.051C643.8 347.657 643.603 347.461 643.21 347.461Z" fill="black"/>
<path d="M552.411 329.23C552.578 328.423 552.588 327.57 552.441 326.67C552.321 325.903 552.648 325.52 553.421 325.52H559.261C559.921 325.526 560.251 325.856 560.251 326.51L560.261 343C560.261 343.513 560.001 343.77 559.481 343.77L553.681 343.76C553.094 343.753 552.751 343.463 552.651 342.89C551.621 336.75 547.501 332.49 541.171 332.29C534.658 332.09 531.671 335.166 532.211 341.52C532.611 346.18 538.861 348.76 542.661 349.74C547.414 350.96 551.534 352.58 555.021 354.6C561.981 358.64 563.271 367.27 561.201 374.49C558.381 384.35 547.941 386.88 539.061 385.44C536.091 384.96 533.291 383.45 531.251 381.17C530.591 380.436 530.261 380.563 530.261 381.55V384.51C530.261 385.016 530.011 385.236 529.511 385.17C527.278 384.876 525.244 384.866 523.411 385.14C522.891 385.22 522.631 385 522.631 384.48L522.621 367.75C522.621 367.083 522.954 366.75 523.621 366.75H529.041C529.841 366.75 530.278 367.146 530.351 367.94C530.444 369.026 530.911 370.256 531.751 371.63C535.024 377.01 539.778 379.093 546.011 377.88C548.964 377.306 551.011 375.806 552.151 373.38C553.081 371.42 552.881 368.65 552.671 366.51C552.351 363.27 547.901 360.98 544.821 359.92C539.771 358.19 533.771 356.99 529.451 354.04C523.711 350.1 521.728 344.183 523.501 336.29C525.901 325.62 537.841 322.39 547.111 325.82C548.898 326.48 550.461 327.663 551.801 329.37C552.101 329.763 552.304 329.716 552.411 329.23Z" fill="black"/>
<path d="M256.821 332.969L251.471 332.979C251.124 332.979 250.947 332.809 250.941 332.469L250.891 326.069C250.884 325.709 251.064 325.529 251.431 325.529H272.011C272.731 325.529 273.044 325.886 272.951 326.599C272.731 328.346 272.701 330.066 272.861 331.759C272.961 332.806 272.491 333.249 271.451 333.089C270.544 332.949 269.107 332.899 267.141 332.939C266.727 332.946 266.521 333.156 266.521 333.569C266.501 343.823 266.504 353.729 266.531 363.289C266.541 369.579 268.991 375.999 275.751 377.709C277.501 378.149 282.021 377.959 284.011 377.159C289.631 374.909 291.491 369.169 291.501 363.529C291.514 353.483 291.517 343.539 291.511 333.699C291.511 333.508 291.435 333.325 291.3 333.19C291.165 333.055 290.982 332.979 290.791 332.979L286.001 332.989C285.334 332.996 284.997 332.666 284.991 331.999L284.931 326.379C284.924 325.813 285.204 325.529 285.771 325.529H306.011C306.671 325.529 307.001 325.856 307.001 326.509L306.981 332.019C306.981 332.15 306.955 332.28 306.904 332.4C306.854 332.521 306.78 332.631 306.687 332.723C306.594 332.815 306.484 332.888 306.363 332.937C306.241 332.986 306.112 333.011 305.981 333.009L301.071 332.959C300.994 332.959 300.918 332.974 300.847 333.004C300.775 333.033 300.711 333.076 300.657 333.13C300.603 333.184 300.561 333.248 300.532 333.318C300.504 333.388 300.489 333.464 300.491 333.539C300.504 343.233 300.501 352.779 300.481 362.179C300.461 373.879 295.341 384.449 282.441 385.609C277.921 386.009 273.151 385.899 268.951 384.019C260.281 380.149 257.541 370.929 257.551 361.859C257.564 352.279 257.567 342.896 257.561 333.709C257.561 333.216 257.314 332.969 256.821 332.969Z" fill="black"/>
<path d="M774.78 343.2C774.78 346.64 773.413 349.939 770.981 352.372C768.549 354.804 765.25 356.17 761.81 356.17C758.37 356.17 755.071 354.804 752.639 352.372C750.206 349.939 748.84 346.64 748.84 343.2C748.84 339.761 750.206 336.462 752.639 334.029C755.071 331.597 758.37 330.23 761.81 330.23C765.25 330.23 768.549 331.597 770.981 334.029C773.413 336.462 774.78 339.761 774.78 343.2ZM772.52 343.17C772.52 340.338 771.395 337.621 769.392 335.619C767.389 333.616 764.672 332.49 761.84 332.49C759.007 332.49 756.291 333.616 754.288 335.619C752.285 337.621 751.16 340.338 751.16 343.17C751.16 346.003 752.285 348.719 754.288 350.722C756.291 352.725 759.007 353.85 761.84 353.85C764.672 353.85 767.389 352.725 769.392 350.722C771.395 348.719 772.52 346.003 772.52 343.17Z" fill="black"/>
<path d="M764.022 344.011C763.963 344.027 763.91 344.058 763.867 344.1C763.824 344.143 763.793 344.197 763.777 344.255C763.76 344.314 763.76 344.375 763.775 344.434C763.79 344.493 763.82 344.547 763.862 344.591C765.248 346.097 766.432 347.727 767.412 349.481C767.792 350.174 767.588 350.517 766.802 350.511H766.362C765.94 350.507 765.528 350.385 765.173 350.159C764.819 349.932 764.538 349.61 764.362 349.231C763.362 347.131 761.752 343.881 758.952 344.491C758.572 344.571 758.382 344.804 758.382 345.191V349.691C758.382 349.876 758.319 350.055 758.205 350.198C758.09 350.342 757.93 350.442 757.752 350.481C757.485 350.534 757.218 350.544 756.952 350.511C756.418 350.437 756.152 350.127 756.152 349.581L756.102 337.041C756.102 336.905 756.154 336.776 756.248 336.68C756.342 336.584 756.469 336.531 756.602 336.531C758.682 336.504 760.795 336.497 762.942 336.511C767.722 336.551 768.302 342.691 764.022 344.011ZM758.352 338.821L758.312 341.921C758.31 341.997 758.324 342.072 758.352 342.143C758.38 342.214 758.421 342.279 758.474 342.334C758.527 342.388 758.591 342.432 758.66 342.463C758.73 342.493 758.805 342.509 758.882 342.511L761.442 342.541C762.216 342.551 762.962 342.35 763.515 341.983C764.068 341.615 764.384 341.111 764.392 340.581V340.321C764.396 340.058 764.324 339.797 764.181 339.552C764.038 339.307 763.826 339.084 763.558 338.894C763.29 338.705 762.97 338.553 762.617 338.448C762.264 338.343 761.885 338.286 761.502 338.281L758.942 338.251C758.865 338.249 758.79 338.263 758.719 338.291C758.648 338.319 758.583 338.36 758.529 338.413C758.474 338.466 758.43 338.529 758.4 338.599C758.369 338.669 758.353 338.744 758.352 338.821Z" fill="black"/>
<path d="M323.189 343.629C323.242 344.303 323.502 344.396 323.969 343.909C327.839 339.929 332.569 338.979 337.889 339.639C346.079 340.659 348.669 347.689 348.789 354.959C348.909 362.359 348.939 369.679 348.879 376.919C348.872 377.493 349.155 377.779 349.729 377.779H353.229C353.869 377.779 354.189 378.099 354.189 378.739V384.279C354.189 384.766 353.949 385.009 353.469 385.009L335.509 384.989C335.029 384.989 334.785 384.746 334.779 384.259V378.859C334.779 378.126 335.149 377.763 335.889 377.769L339.229 377.799C339.655 377.799 339.869 377.586 339.869 377.159C339.802 370.679 339.802 363.539 339.869 355.739C339.969 344.239 329.079 344.689 323.609 351.629C323.362 351.936 323.239 352.289 323.239 352.689V377.279C323.239 377.633 323.419 377.809 323.779 377.809L327.449 377.759C327.574 377.758 327.697 377.781 327.813 377.828C327.929 377.874 328.034 377.943 328.123 378.031C328.213 378.118 328.284 378.222 328.333 378.337C328.382 378.451 328.407 378.575 328.409 378.699V384.119C328.409 384.719 328.105 385.019 327.499 385.019L310.489 384.989C309.649 384.989 309.232 384.573 309.239 383.739V378.769C309.239 378.103 309.569 377.773 310.229 377.779H313.769C314.142 377.779 314.329 377.596 314.329 377.229L314.339 348.259C314.339 347.706 314.062 347.433 313.509 347.439L310.089 347.459C309.509 347.459 309.219 347.169 309.219 346.589L309.229 341.259C309.229 340.994 309.335 340.74 309.525 340.552C309.714 340.365 309.971 340.259 310.239 340.259H322.469C322.594 340.259 322.717 340.286 322.831 340.338C322.944 340.391 323.045 340.467 323.125 340.562C323.206 340.658 323.266 340.769 323.299 340.89C323.332 341.01 323.339 341.136 323.319 341.259C323.179 342.066 323.135 342.856 323.189 343.629Z" fill="black"/>
<path d="M420.209 366.351C420.289 371.231 422.419 376.231 427.259 377.741C432.459 379.361 438.379 377.651 442.359 374.251C442.686 373.971 442.963 374.011 443.189 374.371L446.299 379.271C446.679 379.871 446.579 380.378 445.999 380.791C439.266 385.591 432.153 386.988 424.659 384.981C416.029 382.671 411.799 373.711 411.449 364.911C411.149 357.591 411.969 350.731 416.639 345.171C422.019 338.771 432.719 337.581 439.299 342.061C446.389 346.891 448.179 356.291 447.559 364.891C447.513 365.484 447.193 365.781 446.599 365.781L420.789 365.751C420.389 365.751 420.196 365.951 420.209 366.351ZM420.709 358.691L438.189 358.651C438.319 358.651 438.444 358.599 438.536 358.507C438.628 358.415 438.679 358.291 438.679 358.161V357.771C438.673 354.843 437.745 352.038 436.099 349.972C434.452 347.905 432.222 346.747 429.899 346.751H428.959C427.809 346.753 426.67 347.041 425.608 347.598C424.546 348.155 423.582 348.97 422.77 349.997C421.958 351.024 421.315 352.243 420.878 353.584C420.44 354.924 420.216 356.361 420.219 357.811V358.201C420.219 358.331 420.271 358.455 420.363 358.547C420.455 358.639 420.579 358.691 420.709 358.691Z" fill="black"/>
<path d="M621.94 380.971C621 381.631 620.15 382.801 619.18 383.361C614.36 386.174 609.28 386.624 603.94 384.711C595.87 381.821 594.27 370.611 597.59 363.981C599.343 360.467 602.277 358.188 606.39 357.141C611.463 355.854 616.567 356.151 621.7 358.031C622.187 358.204 622.42 358.034 622.4 357.521C622.17 351.301 621.79 346.921 613.99 346.981C610.036 347.014 606.777 347.774 604.21 349.261C603.51 349.667 602.987 349.507 602.64 348.781L600.43 344.111C600.163 343.537 600.31 343.104 600.87 342.811C607.29 339.451 613.82 338.561 620.46 340.141C627.293 341.761 630.76 346.381 630.86 354.001C630.96 361.674 630.963 369.314 630.87 376.921C630.868 377.033 630.89 377.145 630.932 377.249C630.975 377.353 631.038 377.448 631.118 377.528C631.198 377.608 631.293 377.672 631.398 377.715C631.503 377.758 631.616 377.781 631.73 377.781H635C635.486 377.781 635.73 378.021 635.73 378.501L635.72 384.261C635.72 384.761 635.47 385.011 634.97 385.011L622.92 384.981C622.546 384.981 622.367 384.794 622.38 384.421L622.45 381.231C622.457 380.811 622.286 380.724 621.94 380.971ZM620.81 364.651C615.18 362.911 605.76 361.781 604.56 369.771C603.69 375.581 607.57 379.361 613.35 378.431C616.863 377.857 619.74 376.114 621.98 373.201C622.213 372.901 622.33 372.561 622.33 372.181C622.323 370.401 622.343 368.584 622.39 366.731C622.423 365.677 621.896 364.984 620.81 364.651Z" fill="black"/>
<path d="M676.48 365.771C676.388 365.77 676.296 365.789 676.212 365.826C676.127 365.863 676.051 365.917 675.988 365.984C675.925 366.052 675.877 366.132 675.846 366.219C675.815 366.306 675.803 366.399 675.81 366.491C676.34 374.491 680.89 379.301 689.39 378.151C692.584 377.711 695.53 376.381 698.23 374.161C698.28 374.12 698.337 374.09 698.4 374.073C698.462 374.056 698.527 374.053 698.59 374.063C698.654 374.074 698.714 374.097 698.768 374.133C698.821 374.169 698.866 374.216 698.9 374.271L702.14 379.451C702.387 379.837 702.33 380.177 701.97 380.471C697.01 384.551 690.957 386.291 683.81 385.691C675.62 385.011 669.96 378.821 667.99 370.931C664.88 358.481 668.31 340.751 683.75 339.501C699.06 338.261 704.45 352.241 703.25 365.261C703.217 365.587 703.037 365.751 702.71 365.751L676.48 365.771ZM676.34 358.681H694.06C694.115 358.681 694.17 358.67 694.221 358.649C694.272 358.628 694.318 358.597 694.357 358.558C694.396 358.519 694.427 358.472 694.448 358.421C694.469 358.37 694.48 358.316 694.48 358.261V357.691C694.48 354.776 693.507 351.981 691.774 349.92C690.041 347.859 687.691 346.701 685.24 346.701H685.16C682.71 346.701 680.359 347.859 678.627 349.92C676.894 351.981 675.92 354.776 675.92 357.691V358.261C675.92 358.372 675.964 358.479 676.043 358.558C676.122 358.636 676.229 358.681 676.34 358.681Z" fill="black"/>
<path d="M717.732 382.68L717.762 384.24C717.768 384.746 717.518 385 717.012 385L711.522 384.99C711.331 384.99 711.148 384.914 711.013 384.779C710.878 384.644 710.802 384.461 710.802 384.27V371.57C710.802 371.486 710.818 371.403 710.85 371.326C710.882 371.249 710.928 371.179 710.987 371.121C711.045 371.062 711.115 371.016 711.191 370.985C711.268 370.954 711.349 370.938 711.432 370.94L716.492 370.97C716.858 370.97 717.125 371.136 717.292 371.47C719.742 376.35 723.832 379.41 729.002 378.4C731.495 377.92 732.808 376.37 732.942 373.75C733.102 370.783 731.698 368.8 728.732 367.8C721.092 365.22 710.812 363.37 710.712 352.99C710.658 346.803 713.432 342.633 719.032 340.48C723.082 338.92 729.772 339.23 732.992 342.45C733.218 342.683 733.402 342.653 733.542 342.36C733.728 341.96 733.798 341.526 733.752 341.06C733.698 340.526 733.938 340.26 734.472 340.26L739.772 340.27C740.272 340.27 740.522 340.52 740.522 341.02L740.562 353.71C740.568 354.13 740.362 354.336 739.942 354.33L734.772 354.31C734.405 354.303 734.165 354.126 734.052 353.78C732.718 349.68 730.118 347.28 726.252 346.58C719.012 345.27 716.782 354.22 723.312 356.58C726.625 357.773 729.998 359.026 733.432 360.34C738.612 362.313 741.358 365.876 741.672 371.03C742.098 378.156 739.258 382.71 733.152 384.69C727.418 386.543 722.475 385.776 718.322 382.39C717.915 382.056 717.718 382.153 717.732 382.68Z" fill="black"/>
<path d="M364.519 377.27L364.509 347.95C364.509 347.815 364.456 347.685 364.36 347.589C364.264 347.494 364.135 347.44 363.999 347.44L359.429 347.45C359.294 347.45 359.164 347.396 359.069 347.301C358.973 347.205 358.919 347.075 358.919 346.94L358.879 340.77C358.879 340.635 358.933 340.505 359.029 340.409C359.124 340.314 359.254 340.26 359.389 340.26L372.899 340.25C372.966 340.25 373.033 340.263 373.095 340.289C373.156 340.314 373.213 340.352 373.26 340.399C373.307 340.447 373.345 340.503 373.371 340.565C373.396 340.627 373.409 340.693 373.409 340.76L373.389 377.27C373.389 377.405 373.443 377.535 373.539 377.631C373.634 377.726 373.764 377.78 373.899 377.78H378.249C378.385 377.78 378.514 377.834 378.61 377.929C378.706 378.025 378.759 378.155 378.759 378.29L378.729 384.49C378.729 384.625 378.676 384.755 378.58 384.851C378.484 384.946 378.355 385 378.219 385L359.389 384.97C359.254 384.97 359.124 384.916 359.029 384.821C358.933 384.725 358.879 384.595 358.879 384.46L358.859 378.29C358.859 378.155 358.913 378.025 359.009 377.929C359.104 377.834 359.234 377.78 359.369 377.78H364.009C364.145 377.78 364.274 377.726 364.37 377.631C364.466 377.535 364.519 377.405 364.519 377.27Z" fill="black"/>
<path d="M234.681 373.059C235.461 373.513 235.631 374.136 235.191 374.929L223.631 395.379C223.593 395.447 223.541 395.505 223.48 395.552C223.418 395.598 223.347 395.631 223.272 395.649C223.197 395.667 223.119 395.669 223.043 395.655C222.967 395.642 222.895 395.612 222.831 395.569C210.121 386.799 193.771 384.479 180.291 392.069C161.281 402.769 161.731 428.079 162.041 446.819C162.311 463.909 164.851 482.229 181.691 491.049C186.317 493.476 191.601 494.786 197.541 494.979C208.141 495.313 217.614 492.219 225.961 485.699C226.028 485.647 226.106 485.609 226.189 485.587C226.272 485.566 226.359 485.563 226.444 485.577C226.528 485.591 226.609 485.622 226.681 485.669C226.752 485.716 226.814 485.778 226.861 485.849L239.151 505.119C239.404 505.513 239.341 505.839 238.961 506.099C230.774 511.793 221.981 515.423 212.581 516.989C202.461 518.669 192.304 518.716 182.111 517.129C163.664 514.249 149.024 505.089 138.191 489.649C127.231 474.009 124.461 454.659 125.781 435.009C126.474 424.709 128.501 415.409 131.861 407.109C139.671 387.809 155.041 373.339 174.941 367.069C180.694 365.263 186.021 364.203 190.921 363.889C196.841 363.509 202.037 363.583 206.511 364.109C216.451 365.269 226.071 368.019 234.681 373.059Z" fill="black"/>
<path d="M454.281 504.989L462.821 484.629C462.975 484.276 463.215 484.196 463.541 484.389C474.141 490.739 486.651 496.099 498.991 496.409C504.731 496.559 510.651 493.499 512.701 487.999C514.701 482.639 512.521 477.029 507.391 474.339C504.681 472.919 501.531 471.879 498.531 471.309C492.965 470.269 487.535 469.229 482.241 468.189C479.168 467.589 475.361 465.936 470.821 463.229C465.548 460.096 461.971 455.779 460.091 450.279C457.785 443.546 457.348 436.796 458.781 430.029C462.471 412.669 478.691 403.839 495.261 402.789C509.775 401.856 523.588 404.896 536.701 411.909C536.79 411.956 536.858 412.034 536.893 412.128C536.928 412.222 536.928 412.326 536.891 412.419L529.891 430.789C529.558 431.663 528.978 431.879 528.151 431.439C519.621 426.889 509.911 423.509 500.121 424.329C493.931 424.849 488.581 428.889 489.041 435.549C489.431 441.119 495.351 443.699 500.081 444.929C506.455 446.596 512.675 448.243 518.741 449.869C521.308 450.556 523.811 451.456 526.251 452.569C548.041 462.459 547.731 491.469 531.951 505.789C519.241 517.319 499.291 519.449 482.741 516.049C473.481 514.156 464.108 510.773 454.621 505.899C454.228 505.699 454.115 505.396 454.281 504.989Z" fill="black"/>
<path d="M740.171 412.67L733.051 431.31C733.016 431.404 732.961 431.489 732.89 431.56C732.82 431.631 732.734 431.685 732.641 431.72C732.547 431.756 732.446 431.77 732.346 431.763C732.247 431.756 732.149 431.728 732.061 431.68C727.581 429.273 722.828 427.33 717.801 425.85C709.651 423.45 695.621 422.11 692.671 432.1C690.651 438.89 696.171 442.86 701.911 444.46C708.064 446.166 714.668 447.926 721.721 449.74C725.951 450.83 730.781 452.71 734.301 455.19C745.281 462.95 748.481 475.86 745.521 488.56C741.451 505.99 725.101 515.22 708.221 517.07C690.691 518.99 673.821 513.94 658.041 506.02C657.852 505.925 657.705 505.762 657.631 505.563C657.557 505.365 657.561 505.146 657.641 504.95L666.091 484.77C666.128 484.682 666.183 484.604 666.253 484.539C666.322 484.475 666.405 484.427 666.495 484.397C666.585 484.368 666.681 484.358 666.775 484.369C666.869 484.38 666.96 484.411 667.041 484.46C673.828 488.56 681.054 491.793 688.721 494.16C693.208 495.54 697.641 496.286 702.021 496.4C710.091 496.61 718.041 490.9 716.631 482.11C715.511 475.06 707.541 472.32 701.371 471.17C694.561 469.9 686.921 469.06 680.541 466.52C673.591 463.75 667.051 459.01 664.111 451.96C660.421 443.14 660.281 432.34 664.241 423.68C670.221 410.55 683.681 403.94 697.791 402.84C712.191 401.72 726.198 404.683 739.811 411.73C740.211 411.936 740.331 412.25 740.171 412.67Z" fill="black"/>
<path d="M276.289 469.609C276.189 481.489 280.529 492.059 292.849 495.349C294.635 495.829 297.229 496.019 300.629 495.919C310.079 495.659 318.739 491.759 326.039 485.629C326.119 485.562 326.214 485.512 326.315 485.484C326.417 485.455 326.523 485.449 326.627 485.465C326.731 485.481 326.831 485.519 326.919 485.577C327.007 485.635 327.082 485.71 327.139 485.799L337.519 501.789C337.601 501.912 337.635 502.061 337.613 502.208C337.59 502.354 337.514 502.487 337.399 502.579C323.389 514.019 306.469 519.149 288.789 516.799C265.839 513.759 250.569 497.409 246.729 474.999C245.089 465.466 245.085 455.366 246.719 444.699C249.169 428.749 258.419 414.829 272.389 407.819C287.889 400.039 313.939 402.359 325.859 416.119C333.389 424.819 337.009 435.539 338.149 446.649C338.875 453.763 339.182 461.123 339.069 468.729C339.066 468.842 339.02 468.948 338.939 469.027C338.859 469.105 338.751 469.149 338.639 469.149L276.759 469.139C276.636 469.139 276.518 469.189 276.43 469.276C276.342 469.364 276.291 469.484 276.289 469.609ZM277.559 448.369L309.119 448.209C309.192 448.209 309.264 448.195 309.331 448.167C309.399 448.138 309.46 448.097 309.511 448.045C309.562 447.993 309.603 447.931 309.63 447.863C309.657 447.795 309.67 447.722 309.669 447.649L309.649 443.379C309.635 440.861 309.226 438.369 308.443 436.046C307.66 433.723 306.519 431.614 305.085 429.84C303.651 428.067 301.953 426.663 300.087 425.709C298.22 424.755 296.223 424.269 294.209 424.279L292.229 424.299C290.214 424.31 288.222 424.816 286.366 425.79C284.51 426.763 282.826 428.185 281.411 429.973C279.996 431.762 278.877 433.882 278.118 436.213C277.359 438.544 276.975 441.041 276.989 443.559L277.009 447.829C277.011 447.973 277.07 448.111 277.173 448.212C277.276 448.313 277.414 448.369 277.559 448.369Z" fill="black"/>
<path d="M380.631 415.351C380.63 415.456 380.659 415.559 380.713 415.648C380.768 415.738 380.847 415.81 380.941 415.857C381.034 415.904 381.139 415.923 381.244 415.913C381.348 415.903 381.448 415.864 381.531 415.801C384.164 413.787 386.808 411.984 389.461 410.391C402.621 402.511 420.071 400.321 432.401 410.431C440.471 417.051 440.931 426.861 440.941 436.601C440.954 462.667 440.961 488.387 440.961 513.761C440.961 513.885 440.912 514.005 440.823 514.093C440.735 514.181 440.616 514.231 440.491 514.231L413.031 514.241C412.962 514.241 412.896 514.213 412.847 514.165C412.799 514.116 412.771 514.05 412.771 513.981C412.784 490.454 412.784 466.024 412.771 440.691C412.761 433.161 410.921 426.121 401.321 427.901C395.508 428.981 389.708 432.124 383.921 437.331C383.826 437.419 383.751 437.526 383.699 437.644C383.647 437.763 383.621 437.891 383.621 438.021V513.871C383.621 513.969 383.582 514.063 383.513 514.132C383.443 514.202 383.349 514.241 383.251 514.241L355.741 514.231C355.646 514.231 355.554 514.193 355.487 514.125C355.419 514.058 355.381 513.966 355.381 513.871L355.371 404.841C355.371 404.795 355.38 404.749 355.398 404.707C355.415 404.664 355.441 404.626 355.474 404.593C355.506 404.561 355.545 404.535 355.587 404.517C355.63 404.5 355.675 404.491 355.721 404.491L380.221 404.481C380.348 404.481 380.47 404.532 380.561 404.624C380.651 404.716 380.701 404.841 380.701 404.971L380.631 415.351Z" fill="black"/>
<path d="M618.631 503.73C618.631 502.717 618.221 502.507 617.401 503.1C614.228 505.414 611.231 507.387 608.411 509.02C597.181 515.54 581.531 517.46 569.871 510.32C557.551 502.79 558.281 489.9 558.351 477.01C558.458 453.617 558.484 429.637 558.431 405.07C558.431 404.684 558.624 404.49 559.011 404.49L585.721 404.48C585.901 404.48 586.074 404.552 586.202 404.68C586.329 404.807 586.401 404.98 586.401 405.16C586.401 428.327 586.381 451.584 586.341 474.93C586.331 482.16 586.581 491.53 596.291 490.85C603.301 490.35 609.551 486.3 614.971 481.68C615.931 480.87 615.691 479.54 615.691 478.42C615.671 454.12 615.664 429.667 615.671 405.06C615.678 404.68 615.871 404.49 616.251 404.49H643.491C643.621 404.49 643.746 404.543 643.838 404.637C643.929 404.731 643.981 404.858 643.981 404.99V513.75C643.981 513.878 643.93 514 643.84 514.09C643.75 514.18 643.628 514.23 643.501 514.23H619.301C618.841 514.23 618.611 514.004 618.611 513.55L618.631 503.73Z" fill="black"/>
<path d="M586.662 551.539C588.072 552.199 589.692 552.839 590.812 553.909C597.012 559.819 594.412 570.889 586.462 573.709C584.722 574.323 580.938 574.583 575.112 574.489C570.172 574.409 565.882 574.419 562.242 574.519C561.755 574.533 561.512 574.293 561.512 573.799V531.249C561.512 530.849 561.712 530.649 562.112 530.649C568.472 530.616 574.598 530.649 580.492 530.749C586.982 530.869 592.992 535.409 592.432 542.349C592.085 546.703 590.172 549.536 586.692 550.849C586.145 551.056 586.135 551.286 586.662 551.539ZM570.252 538.699V547.839C570.252 547.951 570.296 548.057 570.375 548.136C570.453 548.215 570.56 548.259 570.672 548.259H578.102C579.452 548.259 580.746 547.744 581.701 546.827C582.655 545.91 583.192 544.666 583.192 543.369V543.169C583.192 541.872 582.655 540.628 581.701 539.711C580.746 538.794 579.452 538.279 578.102 538.279H570.672C570.56 538.279 570.453 538.323 570.375 538.402C570.296 538.481 570.252 538.588 570.252 538.699ZM570.292 556.029L570.312 566.709C570.312 566.86 570.372 567.005 570.479 567.112C570.586 567.219 570.731 567.279 570.882 567.279L578.412 567.269C579.945 567.267 581.414 566.657 582.496 565.575C583.578 564.493 584.184 563.027 584.182 561.499V561.199C584.18 560.443 584.03 559.694 583.738 558.996C583.446 558.297 583.019 557.663 582.482 557.129C581.944 556.595 581.306 556.172 580.604 555.884C579.903 555.596 579.151 555.448 578.392 555.449L570.862 555.459C570.711 555.459 570.566 555.519 570.459 555.626C570.352 555.733 570.292 555.878 570.292 556.029Z" fill="black"/>
<path d="M639.281 544.48C639.348 545.307 639.644 545.4 640.171 544.76C642.304 542.153 644.958 541.227 648.131 541.98C648.898 542.16 649.191 542.633 649.011 543.4L647.771 548.75C647.631 549.357 647.264 549.577 646.671 549.41C643.861 548.61 639.701 549.95 639.721 553.44C639.774 561.833 639.788 568.753 639.761 574.2C639.754 574.373 639.668 574.46 639.501 574.46L631.791 574.47C631.571 574.47 631.461 574.36 631.461 574.14L631.471 543.46C631.471 543.08 631.661 542.89 632.041 542.89L638.411 542.92C638.904 542.927 639.171 543.173 639.211 543.66L639.281 544.48Z" fill="black"/>
<path d="M661.429 561.231C659.609 561.238 659.076 562.071 659.829 563.731C660.343 564.864 660.663 565.571 660.789 565.851C661.576 567.584 662.913 568.568 664.799 568.801C668.486 569.261 671.569 568.371 674.049 566.131C674.363 565.851 674.636 565.888 674.869 566.241L677.569 570.331C677.673 570.491 677.712 570.685 677.679 570.873C677.645 571.062 677.542 571.233 677.389 571.351C673.969 573.918 670.553 575.274 667.139 575.421C658.506 575.794 653.116 571.848 650.969 563.581C650.536 561.908 650.403 559.528 650.569 556.441C650.979 548.681 655.169 542.291 663.439 541.691C675.469 540.811 678.959 550.781 678.159 560.761C678.139 561.054 677.983 561.201 677.689 561.201L661.429 561.231ZM660.329 554.771L669.029 554.751C669.167 554.751 669.3 554.696 669.397 554.599C669.495 554.501 669.549 554.369 669.549 554.231L669.539 554.001C669.536 552.354 669.03 550.776 668.132 549.614C667.233 548.451 666.017 547.799 664.749 547.801H664.569C663.942 547.802 663.32 547.964 662.74 548.277C662.161 548.59 661.635 549.048 661.192 549.626C660.749 550.204 660.398 550.889 660.159 551.643C659.92 552.397 659.798 553.205 659.799 554.021L659.809 554.251C659.809 554.319 659.823 554.387 659.849 554.45C659.875 554.513 659.913 554.57 659.962 554.619C660.01 554.667 660.067 554.705 660.13 554.731C660.194 554.758 660.261 554.771 660.329 554.771Z" fill="black"/>
<path d="M700.959 573.09C696.009 577.39 684.689 576.74 682.729 568.87C679.999 557.91 689.139 553.82 698.199 554.65C699.173 554.736 699.639 554.293 699.599 553.32L699.529 551.3C699.507 550.686 699.281 550.097 698.889 549.625C698.496 549.153 697.958 548.824 697.359 548.69C693.949 547.93 689.609 550.25 686.799 552.09C686.652 552.19 686.533 552.163 686.439 552.01L683.039 546.34C682.986 546.253 683.003 546.18 683.089 546.12C688.303 542.586 693.806 541.126 699.599 541.74C706.979 542.53 708.519 547.92 708.179 554.43C707.826 561.21 707.699 567.773 707.799 574.12C707.799 574.21 707.763 574.296 707.7 574.36C707.636 574.424 707.549 574.46 707.459 574.46L702.469 574.48C702.136 574.48 701.916 574.326 701.809 574.02C701.742 573.826 701.706 573.63 701.699 573.43C701.693 572.783 701.446 572.67 700.959 573.09ZM698.849 560.31C695.709 560.34 691.769 560.67 691.429 564.54C690.969 569.86 695.869 570.5 698.999 567.57C699.333 567.263 699.499 566.886 699.499 566.44V560.96C699.499 560.526 699.282 560.31 698.849 560.31Z" fill="black"/>
<path d="M616.948 573.059C611.775 576.212 606.758 576.142 601.898 572.849C599.418 571.169 599.138 567.129 599.088 564.329C598.968 557.462 598.945 550.613 599.018 543.779C599.021 543.542 599.117 543.316 599.285 543.149C599.454 542.983 599.681 542.889 599.918 542.889L606.818 542.909C606.918 542.909 607.016 542.929 607.108 542.967C607.199 543.005 607.282 543.062 607.352 543.132C607.422 543.203 607.477 543.287 607.514 543.379C607.551 543.471 607.57 543.57 607.568 543.669C607.508 550.282 607.512 557.199 607.578 564.419C607.605 567.639 609.075 569.056 611.988 568.669C614.848 568.279 616.448 566.689 616.448 563.739C616.428 556.286 616.415 549.509 616.408 543.409C616.408 543.049 616.588 542.869 616.948 542.869L623.928 542.909C624.275 542.916 624.448 543.089 624.448 543.429V574.019C624.448 574.141 624.399 574.258 624.311 574.344C624.222 574.431 624.103 574.479 623.978 574.479L618.668 574.469C618.268 574.469 617.978 574.289 617.798 573.929C617.732 573.789 617.702 573.642 617.708 573.489C617.715 572.889 617.462 572.746 616.948 573.059Z" fill="black"/>
<path d="M731.909 573.039C727.489 575.813 722.989 576.096 718.409 573.889C713.749 571.649 714.059 566.959 714.059 562.639C714.059 556.533 714.069 550.169 714.089 543.549C714.089 543.462 714.106 543.375 714.14 543.294C714.174 543.214 714.223 543.14 714.286 543.079C714.348 543.018 714.422 542.969 714.503 542.937C714.585 542.904 714.671 542.888 714.759 542.889L721.799 542.929C721.888 542.929 721.976 542.947 722.058 542.981C722.14 543.016 722.214 543.066 722.276 543.129C722.339 543.192 722.388 543.267 722.421 543.35C722.454 543.432 722.47 543.521 722.469 543.609C722.396 550.309 722.422 557.419 722.549 564.939C722.596 567.773 724.026 569.019 726.839 568.679C729.629 568.339 731.239 566.789 731.219 564.019C731.172 557.219 731.159 550.313 731.179 543.299C731.179 543.006 731.326 542.863 731.619 542.869L739.009 542.929C739.222 542.929 739.329 543.039 739.329 543.259L739.359 574.079C739.359 574.133 739.348 574.186 739.328 574.235C739.307 574.284 739.276 574.329 739.238 574.366C739.2 574.403 739.155 574.432 739.105 574.452C739.055 574.471 739.002 574.481 738.949 574.479L733.429 574.459C733.036 574.459 732.762 574.279 732.609 573.919C732.556 573.799 732.546 573.669 732.579 573.529C732.752 572.809 732.529 572.646 731.909 573.039Z" fill="black"/>
<path d="M528.271 545.27H141.671C133.784 545.27 127.391 551.663 127.391 559.549V560.19C127.391 568.076 133.784 574.469 141.671 574.469H528.271C536.157 574.469 542.551 568.076 542.551 560.19V559.549C542.551 551.663 536.157 545.27 528.271 545.27Z" fill="black"/>
</g>
<defs>
<clipPath id="clip0_879_60">
<rect width="900" height="900" fill="white"/>
</clipPath>
</defs>
</svg>
