<svg width="90" height="90" viewBox="0 0 90 90" fill="none" xmlns="http://www.w3.org/2000/svg">
<path d="M6.79914 69.0209L39.8291 12.0509C40.3552 11.146 41.1095 10.395 42.0168 9.87294C42.924 9.35092 43.9524 9.07617 44.9991 9.07617C46.0459 9.07617 47.0743 9.35092 47.9815 9.87294C48.8888 10.395 49.6431 11.146 50.1691 12.0509L83.1991 69.0209C83.7261 69.9296 84.0044 70.9611 84.0061 72.0115C84.0078 73.0619 83.7327 74.0943 83.2086 75.0046C82.6845 75.9149 81.9298 76.6712 81.0206 77.1972C80.1113 77.7232 79.0796 78.0004 78.0291 78.0009H11.9691C10.9187 78.0004 9.88695 77.7232 8.97771 77.1972C8.06846 76.6712 7.31381 75.9149 6.78971 75.0046C6.26561 74.0943 5.99054 73.0619 5.99219 72.0115C5.99385 70.9611 6.27217 69.9296 6.79914 69.0209ZM41.9391 53.0809C41.9417 53.1879 41.9861 53.2897 42.0627 53.3644C42.1393 53.4391 42.2421 53.481 42.3491 53.4809H47.6391C47.7462 53.481 47.849 53.4391 47.9256 53.3644C48.0022 53.2897 48.0465 53.1879 48.0491 53.0809L48.6191 34.4609C48.6205 34.4062 48.6109 34.3519 48.5909 34.301C48.5708 34.25 48.5409 34.2037 48.5026 34.1645C48.4644 34.1254 48.4188 34.0943 48.3684 34.0731C48.318 34.0518 48.2638 34.0409 48.2091 34.0409L41.7891 34.0509C41.7344 34.0509 41.6803 34.0618 41.6299 34.0831C41.5795 34.1043 41.5338 34.1354 41.4956 34.1745C41.4574 34.2137 41.4274 34.2601 41.4074 34.311C41.3874 34.3619 41.3778 34.4163 41.3791 34.4709L41.9391 53.0809ZM48.9091 62.7009C48.9091 61.8575 48.5741 61.0487 47.9777 60.4523C47.3814 59.856 46.5725 59.5209 45.7291 59.5209H44.2891C43.4458 59.5209 42.6369 59.856 42.0405 60.4523C41.4442 61.0487 41.1091 61.8575 41.1091 62.7009V63.3009C41.1091 64.1443 41.4442 64.9532 42.0405 65.5495C42.6369 66.1459 43.4458 66.4809 44.2891 66.4809H45.7291C46.5725 66.4809 47.3814 66.1459 47.9777 65.5495C48.5741 64.9532 48.9091 64.1443 48.9091 63.3009V62.7009Z" fill="white"/>
</svg>
