<svg width="70" height="70" viewBox="0 0 70 70" fill="none" xmlns="http://www.w3.org/2000/svg">
<path d="M55.3902 16.3405L50.5602 16.4005C50.2135 16.4005 49.9402 16.5438 49.7402 16.8305C47.4402 20.1038 45.6269 22.5038 44.3002 24.0305C42.7702 25.7905 39.0902 25.6705 36.9202 25.8305C36.5802 25.8505 36.2702 25.9638 35.9902 26.1705C31.8502 29.2305 30.5302 32.4005 24.8002 32.7205C23.0869 32.8138 21.7669 33.0805 20.8402 33.5205C18.5102 34.6305 11.7902 40.0905 9.68021 36.0505C8.71021 34.2005 9.85021 33.3105 11.5602 32.8205C14.0202 32.1205 16.2502 30.9238 18.2502 29.2305C20.4102 27.4005 24.0502 28.1805 26.6902 27.8205C27.0154 27.7748 27.3166 27.6277 27.5502 27.4005C29.4435 25.5538 31.3135 23.7238 33.1602 21.9105C34.5902 20.5105 38.5402 21.0805 40.4502 20.9205C40.61 20.9077 40.7653 20.8599 40.9052 20.7804C41.0451 20.701 41.1663 20.5918 41.2602 20.4605C43.1335 17.8271 45.0402 15.2505 46.9802 12.7305C48.3002 11.0105 53.3702 11.6405 55.4802 11.6805C55.8135 11.6871 55.9835 11.5238 55.9902 11.1905L56.0102 8.77047C56.0235 7.63047 56.4369 7.46047 57.2502 8.26047L62.0802 12.9905C62.2082 13.1162 62.31 13.266 62.3798 13.4313C62.4496 13.5966 62.486 13.774 62.4869 13.9534C62.4878 14.1328 62.4533 14.3106 62.3852 14.4766C62.3171 14.6425 62.2168 14.7934 62.0902 14.9205L56.7902 20.3105C56.732 20.3672 56.6586 20.4064 56.579 20.4232C56.4993 20.4399 56.4168 20.4337 56.3415 20.405C56.2663 20.3764 56.2015 20.3267 56.1551 20.262C56.1087 20.1972 56.0827 20.1203 56.0802 20.0405L55.9702 16.8905C55.965 16.7427 55.9016 16.6028 55.7934 16.5002C55.6852 16.3976 55.5406 16.3403 55.3902 16.3405Z" fill="white"/>
<path d="M54.7816 25.6597L57.3516 25.4997C59.5449 25.3664 60.6416 26.3997 60.6416 28.5997L60.6316 59.8197C60.6316 60.353 60.3616 60.6197 59.8216 60.6197L52.0216 60.6297C51.9341 60.631 51.8472 60.6147 51.766 60.5816C51.6847 60.5485 51.6108 60.4994 51.5484 60.437C51.4861 60.3747 51.4366 60.3004 51.4028 60.2184C51.369 60.1365 51.3516 60.0485 51.3516 59.9597L51.4216 29.2197C51.4282 26.9797 52.5482 25.793 54.7816 25.6597Z" fill="white"/>
<path d="M45.7795 32.8404C46.0729 33.5471 46.2329 34.1871 46.2595 34.7604C46.6395 43.3604 46.7462 51.7037 46.5795 59.7904C46.5662 60.3571 46.2762 60.6404 45.7095 60.6404L38.2595 60.6704C37.6462 60.6771 37.3429 60.3704 37.3495 59.7504C37.4695 52.2237 37.4395 44.5671 37.2595 36.7804C37.1495 32.3304 42.3795 32.3004 45.3295 32.5204C45.428 32.5261 45.5226 32.5592 45.6023 32.6159C45.682 32.6726 45.7434 32.7504 45.7795 32.8404Z" fill="white"/>
<path d="M32.4804 40.7503L32.7104 59.2503C32.713 59.4372 32.6785 59.6227 32.6089 59.7961C32.5392 59.9694 32.4357 60.1272 32.3045 60.2603C32.1734 60.3934 32.017 60.499 31.8446 60.5711C31.6722 60.6432 31.4872 60.6803 31.3004 60.6803L24.8104 60.6503C24.4364 60.6503 24.0778 60.5018 23.8134 60.2373C23.5489 59.9729 23.4004 59.6143 23.4004 59.2403L23.4404 41.4203C23.4409 41.0727 23.5698 40.7375 23.8023 40.4791C24.0349 40.2207 24.3547 40.0573 24.7004 40.0203L30.9204 39.3703C31.1153 39.3495 31.3123 39.3694 31.499 39.429C31.6858 39.4885 31.858 39.5864 32.0048 39.7162C32.1516 39.8461 32.2697 40.0051 32.3516 40.1831C32.4335 40.3612 32.4773 40.5544 32.4804 40.7503Z" fill="white"/>
<path d="M10.1403 60.6398C9.92284 60.6398 9.71426 60.5534 9.56048 60.3997C9.40671 60.2459 9.32031 60.0373 9.32031 59.8198L9.34031 49.4898C9.34294 48.72 9.61065 47.9827 10.0848 47.4391C10.559 46.8956 11.201 46.5902 11.8703 46.5898H16.1303C16.4634 46.5897 16.7932 46.6651 17.1008 46.8119C17.4084 46.9587 17.6878 47.1739 17.9228 47.4452C18.1579 47.7165 18.344 48.0385 18.4706 48.3928C18.5971 48.7471 18.6616 49.1267 18.6603 49.5098L18.6403 59.8398C18.6403 60.0573 18.5539 60.2659 18.4001 60.4197C18.2464 60.5735 18.0378 60.6598 17.8203 60.6598L10.1403 60.6398Z" fill="white"/>
</svg>
