<svg width="74" height="74" viewBox="0 0 74 74" fill="none" xmlns="http://www.w3.org/2000/svg">
<path d="M67.2591 34.55L73.1991 34.41C73.2875 34.4076 73.3748 34.4296 73.4515 34.4736C73.5281 34.5176 73.5911 34.582 73.6336 34.6596C73.676 34.7371 73.6961 34.8249 73.6918 34.9132C73.6875 35.0015 73.6589 35.0869 73.6091 35.16L64.4091 48.94C64.3779 48.9854 64.336 49.0225 64.2873 49.0481C64.2385 49.0737 64.1842 49.0871 64.1291 49.0871C64.074 49.0871 64.0197 49.0737 63.971 49.0481C63.9222 49.0225 63.8804 48.9854 63.8491 48.94L54.6391 35.11C54.5987 35.0508 54.5753 34.9817 54.5716 34.9101C54.5679 34.8386 54.584 34.7674 54.6181 34.7043C54.6522 34.6413 54.703 34.5889 54.7649 34.5529C54.8268 34.5168 54.8975 34.4985 54.9691 34.5H60.7491C61.3758 34.5 61.6291 34.1933 61.5091 33.58C57.7091 13.95 36.5291 5.79 20.7691 18.34C19.4558 19.3867 18.3091 19.23 17.3291 17.87L17.0891 17.54C16.7944 17.1267 16.6637 16.6192 16.7229 16.1176C16.7822 15.6159 17.027 15.1565 17.4091 14.83C35.8291 -1.08 63.3291 9.93999 66.4591 33.86C66.5191 34.3267 66.7858 34.5567 67.2591 34.55Z" fill="white"/>
<path d="M7.52925 39.9998C7.5144 39.862 7.4489 39.7345 7.34545 39.6421C7.24199 39.5497 7.10794 39.499 6.96925 39.4998L0.839255 39.5098C0.754518 39.5087 0.671412 39.485 0.598764 39.4413C0.526115 39.3976 0.466635 39.3356 0.426641 39.2617C0.386647 39.1879 0.36763 39.105 0.371612 39.022C0.375594 38.9389 0.402424 38.8587 0.449255 38.7898L9.55926 25.0598C9.75926 24.7665 9.95592 24.7665 10.1493 25.0598L19.3693 38.8598C19.409 38.9217 19.4318 38.9932 19.4352 39.0667C19.4387 39.1402 19.4227 39.213 19.3889 39.2775C19.3551 39.3419 19.3048 39.3957 19.2433 39.4331C19.1818 39.4704 19.1113 39.49 19.0393 39.4898L13.2193 39.4998C13.1069 39.5011 12.9961 39.5267 12.8947 39.5747C12.7934 39.6228 12.7038 39.6921 12.6323 39.7779C12.5608 39.8636 12.5092 39.9637 12.481 40.0712C12.4529 40.1786 12.4488 40.2908 12.4693 40.3998C16.2893 60.0098 37.3893 68.2498 53.1793 55.6598C54.4993 54.6132 55.6526 54.7698 56.6393 56.1298L56.9193 56.5198C57.2153 56.923 57.346 57.424 57.2847 57.9204C57.2233 58.4168 56.9745 58.8709 56.5893 59.1898C38.1393 74.6398 10.1493 64.2298 7.52925 39.9998Z" fill="white"/>
</svg>
