<svg width="90" height="90" viewBox="0 0 90 90" fill="none" xmlns="http://www.w3.org/2000/svg">
<path d="M26.9995 20.9795C30.3022 20.9795 32.9795 18.3022 32.9795 14.9995C32.9795 11.6969 30.3022 9.01953 26.9995 9.01953C23.6969 9.01953 21.0195 11.6969 21.0195 14.9995C21.0195 18.3022 23.6969 20.9795 26.9995 20.9795Z" fill="white"/>
<path d="M62.9995 20.9795C66.3022 20.9795 68.9795 18.3022 68.9795 14.9995C68.9795 11.6969 66.3022 9.01953 62.9995 9.01953C59.6969 9.01953 57.0195 11.6969 57.0195 14.9995C57.0195 18.3022 59.6969 20.9795 62.9995 20.9795Z" fill="white"/>
<path d="M24.0007 51.5V75.05C24.0007 77.09 22.9841 78.0733 20.9507 78L20.4507 77.98C19.7937 77.9592 19.1706 77.6835 18.7133 77.2113C18.256 76.739 18.0004 76.1074 18.0007 75.45V51.74C18.0009 51.6138 17.9737 51.4891 17.9208 51.3744C17.868 51.2598 17.7909 51.1581 17.6948 51.0763C17.5987 50.9944 17.4859 50.9345 17.3644 50.9006C17.2428 50.8667 17.1153 50.8597 16.9907 50.88C10.7207 51.86 8.96074 47.88 9.00074 42.3C9.05074 35.3 6.63074 27.01 16.9807 27.01C36.3207 27.0033 55.6607 27 75.0007 27C79.4707 27 80.9407 30.53 80.9807 34.64C81.0207 38.26 81.0207 41.88 80.9807 45.5C80.9207 50.06 76.3207 51.08 72.5107 50.99C72.1707 50.9833 72.0007 51.1533 72.0007 51.5V75.16C72.0007 77.1 71.0307 78.0467 69.0907 78L68.3207 77.98C67.7149 77.967 67.138 77.7185 66.7124 77.2873C66.2867 76.856 66.0458 76.2759 66.0407 75.67L65.9807 69.74C65.9781 69.5455 65.899 69.3598 65.7605 69.2232C65.622 69.0866 65.4353 69.01 65.2407 69.01L30.9707 68.99C30.2974 68.99 29.9807 68.65 30.0207 67.97L30.2507 63.92C30.2841 63.3267 30.5741 63.03 31.1207 63.03L65.0207 62.99C65.2869 62.9874 65.5412 62.8798 65.7285 62.6907C65.9157 62.5015 66.0208 62.2461 66.0207 61.98V52.02C66.0207 51.7548 65.9154 51.5004 65.7278 51.3129C65.5403 51.1254 65.286 51.02 65.0207 51.02L24.5007 51C24.1674 51 24.0007 51.1667 24.0007 51.5ZM28.2607 33.55C28.6274 33.1833 28.5507 33 28.0307 33H15.5007C15.1674 33 15.0007 33.1667 15.0007 33.5V44.05C15.0012 44.2746 15.0679 44.494 15.1926 44.6808C15.3172 44.8675 15.4943 45.0133 15.7015 45.0998C15.9087 45.1863 16.1369 45.2097 16.3573 45.1671C16.5778 45.1244 16.7808 45.0176 16.9407 44.86L28.2607 33.55ZM25.8007 44.47C25.7571 44.5134 25.7273 44.5687 25.7152 44.6291C25.7031 44.6894 25.7092 44.752 25.7328 44.8088C25.7564 44.8657 25.7964 44.9142 25.8477 44.9483C25.899 44.9823 25.9592 45.0003 26.0207 45H34.6707C34.7115 45.0002 34.752 44.9924 34.7897 44.9769C34.8275 44.9615 34.8618 44.9387 34.8907 44.91L46.2707 33.53C46.3144 33.4866 46.3442 33.4313 46.3563 33.3709C46.3684 33.3106 46.3623 33.248 46.3387 33.1912C46.3151 33.1343 46.2751 33.0858 46.2238 33.0517C46.1725 33.0177 46.1123 32.9997 46.0507 33H37.3907C37.35 32.9998 37.3095 33.0076 37.2718 33.0231C37.234 33.0385 37.1997 33.0613 37.1707 33.09L25.8007 44.47ZM43.8007 44.47C43.7571 44.5134 43.7273 44.5687 43.7152 44.6291C43.7031 44.6894 43.7092 44.752 43.7328 44.8088C43.7564 44.8657 43.7964 44.9142 43.8477 44.9483C43.899 44.9823 43.9592 45.0003 44.0207 45H52.6707C52.7115 45.0002 52.752 44.9924 52.7897 44.9769C52.8275 44.9615 52.8618 44.9387 52.8907 44.91L64.2707 33.53C64.3144 33.4866 64.3442 33.4313 64.3563 33.3709C64.3684 33.3106 64.3623 33.248 64.3387 33.1912C64.3151 33.1343 64.2751 33.0858 64.2238 33.0517C64.1725 33.0177 64.1123 32.9997 64.0507 33H55.3907C55.35 32.9998 55.3095 33.0076 55.2718 33.0231C55.234 33.0385 55.1997 33.0613 55.1707 33.09L43.8007 44.47ZM61.6907 44.55C61.6559 44.5863 61.6323 44.632 61.6229 44.6814C61.6134 44.7308 61.6186 44.782 61.6376 44.8286C61.6567 44.8751 61.6889 44.9152 61.7302 44.9439C61.7716 44.9725 61.8204 44.9885 61.8707 44.99L74.2507 45C74.4497 45 74.6404 44.921 74.7811 44.7803C74.9217 44.6397 75.0007 44.4489 75.0007 44.25V33.83C75.0009 33.6202 74.9389 33.4151 74.8224 33.2406C74.7059 33.0661 74.5403 32.9301 74.3465 32.8498C74.1527 32.7695 73.9394 32.7485 73.7337 32.7895C73.5279 32.8305 73.339 32.9316 73.1907 33.08L61.6907 44.55Z" fill="white"/>
</svg>
