<svg width="411" height="357" viewBox="0 0 411 357" fill="none" xmlns="http://www.w3.org/2000/svg">
<g clip-path="url(#clip0_556_9)">
<path d="M380.536 330.866L391.607 327.351C392.987 321.405 392.895 315.211 391.341 309.308C386.893 319.205 373.843 321.63 366.408 329.53C364.108 332.012 362.395 334.979 361.397 338.214C360.399 341.448 360.141 344.865 360.642 348.212L358.312 356.12C363.753 355.655 369.027 354.015 373.773 351.313C378.519 348.612 382.623 344.912 385.803 340.47C387.562 337.961 388.999 335.24 390.078 332.371C385.357 331.898 380.536 330.866 380.536 330.866Z" fill="#F2F2F2"/>
<path d="M368.706 316.243L377.049 308.156C375.634 302.218 372.792 296.715 368.77 292.126C369.199 302.97 358.6 310.964 355.466 321.353C354.513 324.601 354.303 328.022 354.85 331.362C355.398 334.702 356.69 337.876 358.63 340.649L360.069 348.766C364.731 345.921 368.721 342.099 371.765 337.563C374.809 333.027 376.834 327.884 377.7 322.489C378.156 319.458 378.229 316.381 377.917 313.331C373.481 315.015 368.706 316.243 368.706 316.243Z" fill="#F2F2F2"/>
<path d="M313.245 23.7038H1.21291C0.888359 23.697 0.579429 23.5631 0.35233 23.331C0.125232 23.0988 -0.00195312 22.7869 -0.00195312 22.462C-0.00195312 22.1372 0.125232 21.8252 0.35233 21.5931C0.579429 21.3609 0.888359 21.2271 1.21291 21.2202H313.245C313.569 21.2271 313.878 21.3609 314.105 21.5931C314.332 21.8252 314.46 22.1372 314.46 22.462C314.46 22.7869 314.332 23.0988 314.105 23.331C313.878 23.5631 313.569 23.697 313.245 23.7038Z" fill="#072885"/>
<path d="M22.4537 14.8796C26.4699 14.8796 29.7257 11.5487 29.7257 7.43979C29.7257 3.33091 26.4699 0 22.4537 0C18.4374 0 15.1816 3.33091 15.1816 7.43979C15.1816 11.5487 18.4374 14.8796 22.4537 14.8796Z" fill="#072885"/>
<path d="M47.5767 14.8796C51.593 14.8796 54.8488 11.5487 54.8488 7.43979C54.8488 3.33091 51.593 0 47.5767 0C43.5605 0 40.3047 3.33091 40.3047 7.43979C40.3047 11.5487 43.5605 14.8796 47.5767 14.8796Z" fill="#072885"/>
<path d="M72.6978 14.8796C76.7141 14.8796 79.9699 11.5487 79.9699 7.43979C79.9699 3.33091 76.7141 0 72.6978 0C68.6816 0 65.4258 3.33091 65.4258 7.43979C65.4258 11.5487 68.6816 14.8796 72.6978 14.8796Z" fill="#072885"/>
<path d="M298.121 1.84424H280.276C279.922 1.85129 279.585 1.99685 279.338 2.24967C279.09 2.5025 278.951 2.84242 278.951 3.19646C278.951 3.5505 279.09 3.89043 279.338 4.14325C279.585 4.39608 279.922 4.54164 280.276 4.54869H298.121C298.475 4.54164 298.811 4.39608 299.059 4.14325C299.307 3.89043 299.445 3.5505 299.445 3.19646C299.445 2.84242 299.307 2.5025 299.059 2.24967C298.811 1.99685 298.475 1.85129 298.121 1.84424Z" fill="#072885"/>
<path d="M298.121 6.91992H280.276C279.922 6.92693 279.585 7.07248 279.338 7.3253C279.09 7.57813 278.951 7.91808 278.951 8.27215C278.951 8.62622 279.09 8.96617 279.338 9.219C279.585 9.47183 279.922 9.61737 280.276 9.62437H298.121C298.475 9.61737 298.812 9.47183 299.059 9.219C299.307 8.96617 299.446 8.62622 299.446 8.27215C299.446 7.91808 299.307 7.57813 299.059 7.3253C298.812 7.07248 298.475 6.92693 298.121 6.91992Z" fill="#072885"/>
<path d="M298.121 11.9893H280.276C279.922 11.9963 279.585 12.1418 279.338 12.3946C279.09 12.6475 278.951 12.9874 278.951 13.3415C278.951 13.6956 279.09 14.0355 279.338 14.2883C279.585 14.5412 279.922 14.6867 280.276 14.6937H298.121C298.475 14.6867 298.812 14.5412 299.059 14.2883C299.307 14.0355 299.446 13.6956 299.446 13.3415C299.446 12.9874 299.307 12.6475 299.059 12.3946C298.812 12.1418 298.475 11.9963 298.121 11.9893Z" fill="#072885"/>
<path d="M24.1721 74.1573C29.1374 74.1573 33.1625 70.129 33.1625 65.1599C33.1625 60.1908 29.1374 56.1626 24.1721 56.1626C19.2068 56.1626 15.1816 60.1908 15.1816 65.1599C15.1816 70.129 19.2068 74.1573 24.1721 74.1573Z" fill="#E6E7E8"/>
<path d="M253.115 85.0831H17.8588C17.1488 85.0831 16.4678 84.8008 15.9658 84.2983C15.4637 83.7959 15.1816 83.1144 15.1816 82.4038C15.1816 81.6933 15.4637 81.0118 15.9658 80.5093C16.4678 80.0069 17.1488 79.7246 17.8588 79.7246H253.115C253.825 79.7246 254.506 80.0069 255.008 80.5093C255.51 81.0118 255.792 81.6933 255.792 82.4038C255.792 83.1144 255.51 83.7959 255.008 84.2983C254.506 84.8008 253.825 85.0831 253.115 85.0831Z" fill="#E6E7E8"/>
<path d="M191.415 95.6702H17.859C17.1489 95.6702 16.4679 95.3879 15.9658 94.8855C15.4637 94.383 15.1816 93.7015 15.1816 92.9909C15.1816 92.2803 15.4637 91.5988 15.9658 91.0963C16.4679 90.5938 17.1489 90.3115 17.859 90.3115H191.415C192.125 90.3115 192.806 90.5938 193.308 91.0963C193.81 91.5988 194.092 92.2803 194.092 92.9909C194.092 93.7015 193.81 94.383 193.308 94.8855C192.806 95.3879 192.125 95.6702 191.415 95.6702Z" fill="#E6E7E8"/>
<path d="M24.1721 214.592C29.1374 214.592 33.1625 210.564 33.1625 205.594C33.1625 200.625 29.1374 196.597 24.1721 196.597C19.2068 196.597 15.1816 200.625 15.1816 205.594C15.1816 210.564 19.2068 214.592 24.1721 214.592Z" fill="#E6E7E8"/>
<path d="M253.116 225.518H17.8592C17.5073 225.518 17.1587 225.449 16.8334 225.315C16.5081 225.181 16.2124 224.983 15.9634 224.734C15.7143 224.486 15.5167 224.19 15.3819 223.865C15.2471 223.539 15.1777 223.191 15.1777 222.838C15.1777 222.486 15.2471 222.137 15.3819 221.812C15.5167 221.487 15.7143 221.191 15.9634 220.942C16.2124 220.694 16.5081 220.496 16.8334 220.362C17.1587 220.227 17.5073 220.159 17.8592 220.159H253.116C253.861 220.201 254.565 220.52 255.088 221.054C255.61 221.588 255.915 222.298 255.941 223.045C255.919 223.394 255.829 223.734 255.674 224.048C255.52 224.361 255.306 224.64 255.043 224.87C254.78 225.1 254.475 225.276 254.144 225.387C253.813 225.498 253.464 225.542 253.116 225.518Z" fill="#E6E7E8"/>
<path d="M191.415 236.104H17.859C17.1489 236.104 16.4679 235.822 15.9658 235.32C15.4637 234.817 15.1816 234.136 15.1816 233.425C15.1816 232.714 15.4637 232.033 15.9658 231.53C16.4679 231.028 17.1489 230.746 17.859 230.746H191.415C192.125 230.746 192.806 231.028 193.308 231.53C193.81 232.033 194.092 232.714 194.092 233.425C194.092 234.136 193.81 234.817 193.308 235.32C192.806 235.822 192.125 236.104 191.415 236.104Z" fill="#E6E7E8"/>
<path d="M24.1721 139.081C29.1374 139.081 33.1625 135.053 33.1625 130.084C33.1625 125.115 29.1374 121.086 24.1721 121.086C19.2068 121.086 15.1816 125.115 15.1816 130.084C15.1816 135.053 19.2068 139.081 24.1721 139.081Z" fill="#E6E7E8"/>
<path d="M253.115 150.007H17.8588C17.1488 150.007 16.4678 149.725 15.9658 149.222C15.4637 148.72 15.1816 148.038 15.1816 147.328C15.1816 146.617 15.4637 145.936 15.9658 145.433C16.4678 144.931 17.1488 144.648 17.8588 144.648H253.115C253.825 144.648 254.506 144.931 255.008 145.433C255.51 145.936 255.792 146.617 255.792 147.328C255.792 148.038 255.51 148.72 255.008 149.222C254.506 149.725 253.825 150.007 253.115 150.007Z" fill="#E6E7E8"/>
<path d="M220.354 160.594H17.859C17.1489 160.594 16.4679 160.312 15.9658 159.809C15.4637 159.307 15.1816 158.625 15.1816 157.915C15.1816 157.204 15.4637 156.523 15.9658 156.02C16.4679 155.518 17.1489 155.235 17.859 155.235H220.354C221.064 155.235 221.745 155.518 222.247 156.02C222.749 156.523 223.031 157.204 223.031 157.915C223.031 158.625 222.749 159.307 222.247 159.809C221.745 160.312 221.064 160.594 220.354 160.594Z" fill="#E6E7E8"/>
<path d="M206.61 171.181H17.859C17.1489 171.181 16.4679 170.899 15.9658 170.396C15.4637 169.894 15.1816 169.212 15.1816 168.502C15.1816 167.791 15.4637 167.11 15.9658 166.607C16.4679 166.105 17.1489 165.822 17.859 165.822H206.61C207.32 165.822 208.001 166.105 208.503 166.607C209.005 167.11 209.288 167.791 209.288 168.502C209.288 169.212 209.005 169.894 208.503 170.396C208.001 170.899 207.32 171.181 206.61 171.181Z" fill="#E6E7E8"/>
<path d="M210.516 289.629C247.287 289.629 277.096 259.798 277.096 223C277.096 186.201 247.287 156.37 210.516 156.37C173.746 156.37 143.938 186.201 143.938 223C143.938 259.798 173.746 289.629 210.516 289.629Z" fill="#08A6EC"/>
<path d="M210.425 246.247C215.678 246.247 219.937 241.985 219.937 236.728C219.937 231.471 215.678 227.209 210.425 227.209C205.172 227.209 200.914 231.471 200.914 236.728C200.914 241.985 205.172 246.247 210.425 246.247Z" fill="#072885"/>
<path d="M210.425 241.121C212.849 241.121 214.815 239.154 214.815 236.728C214.815 234.302 212.849 232.335 210.425 232.335C208.001 232.335 206.035 234.302 206.035 236.728C206.035 239.154 208.001 241.121 210.425 241.121Z" fill="#08A6EC"/>
<path d="M228.08 257.917H192.952C189.474 257.913 186.139 256.528 183.679 254.067C181.22 251.606 179.836 248.268 179.832 244.787V228.669C179.836 225.188 181.22 221.851 183.679 219.389C186.139 216.928 189.474 215.543 192.952 215.539H228.08C231.559 215.543 234.893 216.928 237.353 219.389C239.812 221.851 241.196 225.188 241.2 228.669V244.787C241.196 248.268 239.812 251.606 237.353 254.067C234.893 256.528 231.559 257.913 228.08 257.917ZM192.952 216.914C189.838 216.917 186.852 218.157 184.65 220.361C182.448 222.565 181.209 225.552 181.206 228.669V244.787C181.209 247.904 182.448 250.892 184.65 253.095C186.852 255.299 189.838 256.539 192.952 256.542H228.08C231.194 256.539 234.18 255.299 236.382 253.095C238.584 250.892 239.823 247.904 239.826 244.787V228.669C239.823 225.552 238.584 222.565 236.382 220.361C234.18 218.157 231.194 216.917 228.08 216.914L192.952 216.914Z" fill="white"/>
<path d="M190.871 249.167H222.051C223.67 249.167 225.272 248.848 226.767 248.228C228.263 247.609 229.621 246.7 230.766 245.555C231.91 244.41 232.818 243.05 233.437 241.554C234.056 240.057 234.375 238.454 234.375 236.834V223.345C234.373 221.849 234.097 220.366 233.562 218.97C235.083 220.116 236.318 221.6 237.168 223.306C238.018 225.011 238.46 226.89 238.46 228.796V242.285C238.46 243.904 238.141 245.508 237.522 247.004C236.903 248.501 235.995 249.86 234.85 251.006C233.706 252.151 232.348 253.059 230.852 253.679C229.357 254.299 227.755 254.618 226.136 254.618H194.956C192.457 254.617 190.018 253.855 187.962 252.433C185.906 251.012 184.331 248.998 183.445 246.66C185.58 248.287 188.188 249.168 190.871 249.167Z" fill="#072885"/>
<path d="M286.355 348.185L278.694 348.185L275.049 318.609L286.357 318.61L286.355 348.185Z" fill="#A0616A"/>
<path d="M286.625 356.184L263.064 356.183V355.885C263.065 353.451 264.031 351.117 265.751 349.396C267.47 347.675 269.803 346.708 272.235 346.707L276.539 343.44L284.569 346.708L286.626 346.708L286.625 356.184Z" fill="#072885"/>
<path d="M340.568 348.185L348.23 348.185L351.875 318.609L340.566 318.61L340.568 348.185Z" fill="#A0616A"/>
<path d="M340.297 356.184L363.858 356.183V355.885C363.858 353.451 362.892 351.117 361.172 349.396C359.452 347.675 357.12 346.708 354.688 346.707L350.383 343.44L342.354 346.708L340.297 346.708L340.297 356.184Z" fill="#072885"/>
<path d="M274.712 296.875C274.825 295.188 275.725 285.855 275.725 285.855L277.88 266.062L281.678 213.596L281.926 210.162L301.822 206.339L315.42 199.815L331.583 204.986L344.168 209.709C344.168 209.709 344.19 211.73 344.287 214.173C344.416 217.37 344.642 221.29 345.181 222.309C346.081 224.11 345.854 233.777 345.854 233.777C345.854 233.777 346.749 253.446 347.875 255.602C349.001 257.759 349.227 262.25 348.887 263.151C348.548 264.051 350.013 287.672 350.013 287.672C350.013 287.672 353.775 329.472 351.415 335.775C349.055 342.078 340.138 337.949 340.138 337.949C340.138 337.949 340.569 336.267 337.983 335.474C335.397 334.682 327.521 275.411 327.521 275.411C327.521 275.411 326.055 263.258 324.708 259.775C323.361 256.293 322.122 246.507 322.122 246.507C322.122 246.507 313.804 230.31 313.696 226.708C313.696 226.708 312.608 223.339 311.579 227.048C310.55 230.758 307.517 239.643 307.517 239.643L304.559 250.556L301.079 266.86L298.827 280.587C298.827 280.587 295.454 298.806 294.915 299.593C294.376 300.38 294.915 317.024 294.915 317.024C294.915 317.024 292.308 331.199 288.623 333.673C284.938 336.148 275.174 333.713 275.174 333.713C275.174 333.713 274.599 298.563 274.712 296.875Z" fill="#072885"/>
<path d="M283.198 162.31L287.622 175.644L282.164 182.146L284.567 184.621L282.794 188.12L278.172 224.794L303.515 234.413L312.049 223.705L318.778 234.413L348.102 227.242L340.624 180.475V177.418L338.512 171.514V159.016L344.088 121.814L327.446 115.98L319.489 109.677L316.914 118.541L305.95 116.59L305.664 109.93L297.276 117.862L290.212 119.878L281.754 121.814L280.677 124.509L282.831 123.971L282.482 159.043L283.198 162.31Z" fill="#072885"/>
<path d="M275.625 211.097L279.881 169.866L281.004 152.897L269.091 150.742C269.091 150.742 269.563 162.875 268.003 169.721C266.463 176.476 267.798 210.191 267.893 211.093C267.019 211.876 266.402 212.906 266.125 214.048C265.848 215.189 265.923 216.388 266.342 217.485C266.76 218.582 267.502 219.527 268.468 220.193C269.435 220.86 270.581 221.217 271.754 221.217C272.928 221.218 274.074 220.862 275.041 220.196C276.008 219.531 276.751 218.587 277.17 217.49C277.59 216.393 277.667 215.195 277.391 214.053C277.115 212.911 276.499 211.88 275.625 211.097Z" fill="#A0616A"/>
<path d="M264.003 178.41L267.317 179.094L278.684 181.451L279.315 181.58L280.656 176.242L282.213 174.582L285.176 159.043L285.333 158.234L289.81 148.659L292.907 119.878L281.389 121.948C281.329 122.008 281.276 122.072 281.222 122.137C279.568 124.013 278.388 126.623 276.459 129.249C270.183 137.794 265.367 158.558 265.555 169.934C265.56 170.117 265.372 170.317 265.146 170.522C264.077 171.504 263.381 172.825 263.173 174.262C262.965 175.699 263.258 177.164 264.003 178.41Z" fill="#072885"/>
<path d="M349.682 211.097L345.426 169.866L344.303 152.897L356.216 150.742C356.216 150.742 355.744 162.875 357.305 169.721C358.845 176.476 357.509 210.191 357.414 211.093C358.289 211.876 358.905 212.906 359.182 214.048C359.46 215.189 359.384 216.388 358.965 217.485C358.547 218.582 357.805 219.527 356.839 220.193C355.872 220.86 354.727 221.217 353.553 221.217C352.379 221.218 351.233 220.862 350.266 220.196C349.299 219.531 348.556 218.587 348.137 217.49C347.717 216.393 347.641 215.195 347.917 214.053C348.192 212.911 348.808 211.88 349.682 211.097Z" fill="#A0616A"/>
<path d="M361.302 178.41L357.989 179.094L346.621 181.451L345.991 181.58L344.649 176.242L343.093 174.582L340.129 159.043L339.973 158.234L335.496 148.659L336.52 119.878L343.917 121.948C343.976 122.008 344.03 122.072 344.084 122.137C345.738 124.013 346.918 126.623 348.847 129.249C355.123 137.794 359.939 158.558 359.751 169.934C359.745 170.117 359.934 170.317 360.16 170.522C361.228 171.504 361.925 172.825 362.133 174.262C362.341 175.699 362.048 177.164 361.302 178.41Z" fill="#072885"/>
<path d="M300.253 124.137L305.666 109.931L319.49 109.677L324.077 124.137L340.566 216.316C340.566 216.316 290.052 230.394 290.564 213.472C291.103 195.679 293.534 172.045 293.534 172.045L300.253 124.137Z" fill="#08A6EC"/>
<path d="M312.268 105.957C321.262 105.957 328.553 98.66 328.553 89.659C328.553 80.6581 321.262 73.3613 312.268 73.3613C303.274 73.3613 295.982 80.6581 295.982 89.659C295.982 98.66 303.274 105.957 312.268 105.957Z" fill="#A0616A"/>
<path d="M295.023 77.836C297.674 74.9481 300.99 69.6617 311.035 67.4419C323.446 64.6989 329.311 75.9197 326.181 76.1037C335.334 78.8773 329.454 97.832 326.83 96.2424C326.808 96.2267 326.786 96.2098 326.766 96.1917C325.354 95.1517 324.17 93.8347 323.285 92.3212C322.399 90.8076 321.832 89.1293 321.616 87.3888L321.118 82.9034C321.047 86.5528 317.32 87.0356 313.512 85.6915C313.737 84.8914 314.167 84.1638 314.759 83.5806C315.35 82.9974 316.084 82.5787 316.887 82.3658C314.233 84.7741 310.861 86.2423 307.291 86.5445C307.478 85.6307 307.858 84.7676 308.406 84.0131C308.954 83.2585 309.657 82.6301 310.467 82.1699L310.317 82.0221C308.83 83.2771 307.123 84.2445 305.282 84.875C303.183 85.4771 300.668 85.1514 299.23 83.507C298.843 83.0532 298.55 82.5264 298.37 81.9576C298.681 84.8478 296.744 88.147 295.239 87.5806C293.987 87.3371 293.258 79.7585 295.023 77.836Z" fill="#072885"/>
<path d="M411 356.182C411 356.29 410.979 356.396 410.938 356.496C410.898 356.595 410.837 356.685 410.761 356.761C410.685 356.837 410.595 356.898 410.496 356.939C410.396 356.98 410.29 357.001 410.183 357H217.665C217.448 357 217.24 356.914 217.087 356.761C216.934 356.607 216.848 356.399 216.848 356.182C216.848 355.965 216.934 355.757 217.087 355.604C217.24 355.45 217.448 355.364 217.665 355.364H410.183C410.29 355.364 410.396 355.385 410.496 355.426C410.595 355.467 410.685 355.527 410.761 355.603C410.837 355.679 410.898 355.769 410.938 355.869C410.979 355.968 411 356.075 411 356.182Z" fill="#CCCCCC"/>
<path d="M211.057 186.872C204.545 186.872 198.821 189.822 195.58 194.251C199.045 191.727 203.228 190.384 207.513 190.419C217.597 190.419 225.801 197.488 225.801 206.178V213.4H229.345V202.63C229.345 193.941 221.141 186.872 211.057 186.872Z" fill="#072885"/>
<path d="M231.78 217.097H189.252V204.574C189.252 194.471 198.791 186.251 210.516 186.251C222.241 186.251 231.78 194.471 231.78 204.574V217.097ZM190.626 215.722H230.407V204.574C230.407 195.229 221.484 187.626 210.516 187.626C199.548 187.626 190.626 195.229 190.626 204.574V215.722Z" fill="white"/>
<path d="M221.407 212.316H199.624C198.644 212.315 197.704 211.925 197.011 211.231C196.319 210.538 195.929 209.597 195.928 208.617V203.633C195.928 196.685 202.472 191.032 210.516 191.032C218.559 191.032 225.103 196.685 225.103 203.633V208.617C225.102 209.597 224.713 210.538 224.02 211.231C223.327 211.925 222.387 212.315 221.407 212.316ZM210.516 192.407C203.229 192.407 197.301 197.443 197.301 203.633V208.617C197.302 209.233 197.547 209.824 197.982 210.26C198.418 210.695 199.008 210.941 199.624 210.941H221.407C222.023 210.941 222.613 210.695 223.049 210.26C223.484 209.824 223.729 209.233 223.73 208.617V203.633C223.73 197.443 217.802 192.407 210.516 192.407Z" fill="white"/>
</g>
<defs>
<clipPath id="clip0_556_9">
<rect width="411" height="357" fill="white"/>
</clipPath>
</defs>
</svg>
