<svg width="579" height="359" viewBox="0 0 579 359" fill="none" xmlns="http://www.w3.org/2000/svg">
<g clip-path="url(#clip0_572_292)">
<path d="M40.1802 332.558C42.8206 333.487 45.6556 333.72 48.412 333.234C51.1684 332.748 53.7533 331.559 55.9177 329.782C61.4298 325.149 63.1601 317.517 64.5641 310.45L68.7231 289.547L60.0158 295.551C53.7536 299.868 47.3509 304.324 43.0148 310.578C38.6786 316.832 36.7863 325.37 40.2698 332.136" fill="#E6E6E6"/>
<path d="M40.9257 357.865C40.0444 351.437 39.138 344.926 39.7562 338.429C40.3054 332.659 42.063 327.023 45.6426 322.402C47.5425 319.954 49.8543 317.856 52.4741 316.203C53.1575 315.773 53.7856 316.856 53.1058 317.285C48.5731 320.154 45.0671 324.39 43.0934 329.382C40.9135 334.934 40.5636 340.986 40.9422 346.883C41.1695 350.449 41.6507 353.992 42.1361 357.531C42.1752 357.692 42.1517 357.861 42.0704 358.004C41.989 358.147 41.8561 358.254 41.6987 358.302C41.5386 358.346 41.3679 358.324 41.2237 358.242C41.0795 358.16 40.9734 358.024 40.9286 357.865L40.9257 357.865Z" fill="#F2F2F2"/>
<path d="M215.551 219.369C214.912 219.673 214.215 219.837 213.507 219.85L147.819 221.656C145.084 221.715 142.439 220.685 140.463 218.791C138.488 216.897 137.345 214.295 137.286 211.557C137.226 208.82 138.255 206.171 140.147 204.193C142.038 202.215 144.636 201.07 147.37 201.011L213.059 199.206C214.39 199.178 215.677 199.68 216.638 200.602C217.599 201.523 218.156 202.789 218.187 204.121L218.417 214.716C218.437 215.685 218.177 216.64 217.669 217.465C217.161 218.29 216.425 218.951 215.551 219.369Z" fill="#08A6EC"/>
<path d="M131.265 357.999H120.682C119.351 357.997 118.075 357.467 117.134 356.525C116.193 355.583 115.664 354.305 115.662 352.973V264.646C115.664 263.313 116.193 262.036 117.134 261.093C118.075 260.151 119.351 259.621 120.682 259.62H131.265C132.596 259.621 133.872 260.151 134.813 261.093C135.754 262.036 136.283 263.313 136.285 264.646V352.973C136.283 354.305 135.754 355.583 134.813 356.525C133.872 357.467 132.596 357.997 131.265 357.999Z" fill="#08A6EC"/>
<path d="M159.369 357.999H148.785C147.454 357.997 146.178 357.467 145.237 356.525C144.296 355.583 143.767 354.305 143.766 352.973V264.646C143.767 263.313 144.296 262.036 145.237 261.093C146.178 260.151 147.454 259.621 148.785 259.62H159.369C160.7 259.621 161.976 260.151 162.917 261.093C163.858 262.036 164.387 263.313 164.388 264.646V352.973C164.387 354.305 163.858 355.583 162.917 356.525C161.976 357.467 160.7 357.997 159.369 357.999Z" fill="#08A6EC"/>
<path d="M141.059 167.8C161.256 167.8 177.629 151.405 177.629 131.181C177.629 110.956 161.256 94.5615 141.059 94.5615C120.861 94.5615 104.488 110.956 104.488 131.181C104.488 151.405 120.861 167.8 141.059 167.8Z" fill="#08A6EC"/>
<path d="M153.472 290.941H127.163C121.696 290.962 116.321 289.536 111.581 286.807C106.841 284.079 102.905 280.145 100.171 275.404C97.4376 270.663 96.0034 265.283 96.0137 259.809C96.024 254.334 97.4786 248.959 100.23 244.229L137.022 180.418C137.431 179.709 138.02 179.119 138.728 178.71C139.437 178.3 140.241 178.084 141.059 178.084C141.877 178.084 142.681 178.3 143.389 178.71C144.098 179.119 144.686 179.709 145.095 180.418L181.147 242.944C183.952 247.808 185.428 253.326 185.428 258.943C185.428 264.56 183.951 270.078 181.147 274.942C178.342 279.806 174.308 283.846 169.45 286.654C164.592 289.462 159.082 290.941 153.472 290.941Z" fill="#072885"/>
<path d="M149.69 146.553C152.061 146.487 155.011 146.405 157.284 144.742C157.961 144.227 158.517 143.569 158.913 142.816C159.31 142.063 159.537 141.232 159.579 140.382C159.62 139.777 159.521 139.172 159.289 138.612C159.058 138.052 158.7 137.554 158.245 137.156C157.058 136.151 155.324 135.916 153.456 136.465L155.391 122.302L153.971 122.107L151.695 138.758L152.882 138.213C154.257 137.581 156.146 137.259 157.319 138.252C157.607 138.512 157.832 138.834 157.975 139.195C158.118 139.556 158.177 139.944 158.146 140.331C158.111 140.964 157.94 141.582 157.646 142.143C157.351 142.704 156.939 143.195 156.438 143.582C154.669 144.876 152.318 145.043 149.65 145.118L149.69 146.553Z" fill="#072885"/>
<path d="M170.142 123.523H162.418V124.959H170.142V123.523Z" fill="#072885"/>
<path d="M145.763 123.523H138.039V124.959H145.763V123.523Z" fill="#072885"/>
<path d="M132.456 282.751C132.152 282.11 131.988 281.412 131.975 280.704L130.172 214.928C130.113 212.19 131.142 209.541 133.033 207.563C134.925 205.585 137.523 204.44 140.257 204.381C142.991 204.321 145.637 205.352 147.612 207.246C149.587 209.139 150.73 211.741 150.79 214.479L152.592 280.255C152.62 281.587 152.119 282.876 151.198 283.839C150.278 284.801 149.014 285.359 147.684 285.389L137.103 285.62C136.135 285.64 135.181 285.38 134.357 284.871C133.533 284.362 132.873 283.626 132.456 282.751Z" fill="#08A6EC"/>
<path d="M137.666 104.112C142.109 109.93 149.162 113.833 156.617 112.909C163.716 112.029 169.573 107.074 171.043 99.9808C171.684 96.627 171.511 93.168 170.538 89.8952C169.565 86.6225 167.821 83.6318 165.452 81.1754C160.427 75.8833 153.236 73.0366 146.117 72.0604C132.633 70.2112 118.785 74.9674 108.589 83.8377C103.469 88.2475 99.3826 93.7328 96.6197 99.9035C93.9581 106.029 92.6906 112.67 92.9088 119.346C93.3006 132.54 99.0721 145.708 109.031 154.458C110.267 155.541 111.562 156.556 112.908 157.499C114.044 158.297 115.12 156.43 113.994 155.639C103.796 148.475 97.2911 136.819 95.5058 124.571C94.5707 118.4 94.9877 112.1 96.7277 106.106C98.4678 100.112 101.489 94.5698 105.583 89.8625C113.817 80.4865 125.892 74.3925 138.398 73.8464C150.982 73.297 166.707 78.9224 169.062 92.9489C170.117 99.2358 167.77 105.844 162.017 108.992C155.857 112.361 148.304 110.975 143.01 106.623C141.714 105.561 140.544 104.354 139.523 103.025C138.693 101.938 136.824 103.01 137.666 104.112Z" fill="#072885"/>
<path d="M507.724 8.49872L197.445 53.3804L218.714 200.809L528.993 155.927L507.724 8.49872Z" fill="#F1F1F1"/>
<path d="M500.676 22.4244L208.143 64.7393L225.888 187.743L518.422 145.428L500.676 22.4244Z" fill="white"/>
<path d="M506.362 0.000186956L196.084 44.8818L197.988 58.0809L508.267 13.1993L506.362 0.000186956Z" fill="#E5E5E5"/>
<path d="M207 53.698C208.363 53.698 209.468 52.5913 209.468 51.2262C209.468 49.8611 208.363 48.7544 207 48.7544C205.636 48.7544 204.531 49.8611 204.531 51.2262C204.531 52.5913 205.636 53.698 207 53.698Z" fill="white"/>
<path d="M216.273 52.3567C217.637 52.3567 218.742 51.25 218.742 49.8849C218.742 48.5197 217.637 47.4131 216.273 47.4131C214.91 47.4131 213.805 48.5197 213.805 49.8849C213.805 51.25 214.91 52.3567 216.273 52.3567Z" fill="white"/>
<path d="M225.547 51.0149C226.91 51.0149 228.015 49.9082 228.015 48.5431C228.015 47.1779 226.91 46.0713 225.547 46.0713C224.183 46.0713 223.078 47.1779 223.078 48.5431C223.078 49.9082 224.183 51.0149 225.547 51.0149Z" fill="white"/>
<path d="M578.999 71.9336H265.5V220.892H578.999V71.9336Z" fill="#E6E6E6"/>
<path d="M570.035 84.707H274.465V208.988H570.035V84.707Z" fill="white"/>
<path d="M578.866 63.3276H265.367V76.6637H578.866V63.3276Z" fill="#CBCBCB"/>
<path d="M275.265 73.6413C276.629 73.6413 277.734 72.5347 277.734 71.1695C277.734 69.8044 276.629 68.6978 275.265 68.6978C273.902 68.6978 272.797 69.8044 272.797 71.1695C272.797 72.5347 273.902 73.6413 275.265 73.6413Z" fill="white"/>
<path d="M284.633 73.6413C285.996 73.6413 287.101 72.5347 287.101 71.1695C287.101 69.8044 285.996 68.6978 284.633 68.6978C283.269 68.6978 282.164 69.8044 282.164 71.1695C282.164 72.5347 283.269 73.6413 284.633 73.6413Z" fill="white"/>
<path d="M294.004 73.6413C295.367 73.6413 296.472 72.5347 296.472 71.1695C296.472 69.8044 295.367 68.6978 294.004 68.6978C292.64 68.6978 291.535 69.8044 291.535 71.1695C291.535 72.5347 292.64 73.6413 294.004 73.6413Z" fill="white"/>
<path d="M486.409 103.603H444.781V106.736H486.409V103.603Z" fill="#E6E6E6"/>
<path d="M509.063 112.8H444.781V115.933H509.063V112.8Z" fill="#E6E6E6"/>
<path d="M497.838 121.559H445.449V124.692H497.838V121.559Z" fill="#E6E6E6"/>
<path d="M475.365 131.17H444.781V134.303H475.365V131.17Z" fill="#E6E6E6"/>
<path d="M490.94 140.558H444.781V143.691H490.94V140.558Z" fill="#E6E6E6"/>
<path d="M430.906 102.617H425.809V107.721H430.906V102.617Z" fill="#E6E6E6"/>
<path d="M430.906 111.814H425.809V116.918H430.906V111.814Z" fill="#E6E6E6"/>
<path d="M430.906 120.574H425.809V125.678H430.906V120.574Z" fill="#E6E6E6"/>
<path d="M430.906 130.185H425.809V135.289H430.906V130.185Z" fill="#E6E6E6"/>
<path d="M430.906 139.572H425.809V144.676H430.906V139.572Z" fill="#E6E6E6"/>
<path d="M486.409 150.004H444.781V153.137H486.409V150.004Z" fill="#E6E6E6"/>
<path d="M509.063 159.202H444.781V162.335H509.063V159.202Z" fill="#E6E6E6"/>
<path d="M497.838 167.961H445.449V171.094H497.838V167.961Z" fill="#E6E6E6"/>
<path d="M475.365 177.572H444.781V180.705H475.365V177.572Z" fill="#E6E6E6"/>
<path d="M490.94 186.959H444.781V190.092H490.94V186.959Z" fill="#E6E6E6"/>
<path d="M430.906 149.019H425.809V154.123H430.906V149.019Z" fill="#E6E6E6"/>
<path d="M430.906 158.216H425.809V163.32H430.906V158.216Z" fill="#E6E6E6"/>
<path d="M430.906 166.976H425.809V172.08H430.906V166.976Z" fill="#E6E6E6"/>
<path d="M430.906 176.586H425.809V181.69H430.906V176.586Z" fill="#E6E6E6"/>
<path d="M430.906 185.974H425.809V191.078H430.906V185.974Z" fill="#E6E6E6"/>
<path d="M354.721 174.579H313.094V177.712H354.721V174.579Z" fill="#E6E6E6"/>
<path d="M359.912 182.72H307.523V185.853H359.912V182.72Z" fill="#E6E6E6"/>
<path d="M360.965 135.058C360.964 139.767 359.742 144.395 357.421 148.49C355.099 152.585 351.757 156.007 347.72 158.421C343.683 160.836 339.09 162.162 334.388 162.268C329.687 162.374 325.038 161.257 320.897 159.027L320.892 159.022C316.661 156.74 313.11 153.376 310.601 149.272C308.092 145.168 306.714 140.472 306.608 135.661C306.502 130.851 307.671 126.098 309.997 121.888C312.322 117.677 315.721 114.159 319.847 111.692C323.972 109.225 328.677 107.897 333.482 107.843C338.287 107.79 343.021 109.013 347.2 111.388C351.379 113.763 354.855 117.205 357.273 121.363C359.691 125.521 360.965 130.247 360.965 135.058Z" fill="#E6E6E6"/>
<path d="M333.92 133.737C338.001 133.737 341.309 130.425 341.309 126.339C341.309 122.252 338.001 118.94 333.92 118.94C329.839 118.94 326.531 122.252 326.531 126.339C326.531 130.425 329.839 133.737 333.92 133.737Z" fill="white"/>
<path d="M346.537 149.024C338.277 151.928 329.27 151.893 321.033 148.926L321.027 148.922L326.532 138.042H341.31L346.537 149.024Z" fill="white"/>
<path d="M252.114 202.615C239.235 202.615 228.758 191.471 228.758 177.771C228.758 164.073 239.235 152.928 252.114 152.928C264.993 152.928 275.47 164.073 275.47 177.771C275.47 191.471 264.993 202.615 252.114 202.615ZM252.114 159.205C242.692 159.205 235.027 167.534 235.027 177.771C235.027 188.009 242.692 196.338 252.114 196.338C261.536 196.338 269.201 188.009 269.201 177.771C269.201 167.534 261.536 159.205 252.114 159.205Z" fill="#08A6EC"/>
<path d="M274.232 245.911H229.996C226.096 245.907 222.356 244.353 219.597 241.591C216.839 238.829 215.288 235.085 215.283 231.179V187.731C215.286 185.057 216.348 182.493 218.237 180.602C220.125 178.711 222.686 177.648 225.356 177.645H278.872C281.542 177.648 284.103 178.711 285.991 180.602C287.88 182.493 288.942 185.057 288.945 187.731V231.179C288.94 235.085 287.389 238.829 284.631 241.591C281.872 244.353 278.132 245.907 274.232 245.911Z" fill="#072885"/>
<path d="M260.734 202.362C260.735 200.828 260.328 199.321 259.554 197.997C258.78 196.672 257.668 195.578 256.331 194.828C254.995 194.077 253.483 193.697 251.951 193.726C250.419 193.755 248.922 194.192 247.615 194.993C246.308 195.794 245.238 196.929 244.515 198.282C243.791 199.634 243.441 201.156 243.501 202.689C243.56 204.222 244.026 205.712 244.851 207.004C245.677 208.297 246.831 209.346 248.196 210.044V223.548H256.032V210.044C257.447 209.322 258.635 208.222 259.465 206.867C260.294 205.511 260.734 203.952 260.734 202.362Z" fill="white"/>
<path d="M273.921 359H0.71707C0.526891 359 0.344501 358.924 0.210024 358.79C0.0755477 358.655 0 358.472 0 358.282C0 358.092 0.0755477 357.909 0.210024 357.774C0.344501 357.64 0.526891 357.564 0.71707 357.564H273.921C274.111 357.564 274.293 357.64 274.428 357.774C274.562 357.909 274.638 358.092 274.638 358.282C274.638 358.472 274.562 358.655 274.428 358.79C274.293 358.924 274.111 359 273.921 359Z" fill="#3F3D56"/>
</g>
<defs>
<clipPath id="clip0_572_292">
<rect width="579" height="359" fill="white"/>
</clipPath>
</defs>
</svg>
