<svg width="256" height="256" viewBox="0 0 256 256" fill="none" xmlns="http://www.w3.org/2000/svg">
<g clip-path="url(#clip0_681_23)">
<path d="M36 16.0003C34.9391 16.0003 33.9217 16.4218 33.1716 17.1719C32.4214 17.9221 32 18.9395 32 20.0003V236.016C32 237.077 32.4214 238.095 33.1716 238.845C33.9217 239.595 34.9391 240.016 36 240.016H188C189.061 240.016 190.078 239.595 190.828 238.845C191.579 238.095 192 237.077 192 236.016V212C192 210.939 191.579 209.922 190.828 209.172C190.078 208.422 189.061 208 188 208C186.939 208 185.922 208.422 185.172 209.172C184.421 209.922 184 210.939 184 212V232.016H40V24.0003H152V52.0163C152 53.0772 152.421 54.0946 153.172 54.8448C153.922 55.5949 154.939 56.0163 156 56.0163H184V76.7203C184 77.7812 184.421 78.7986 185.172 79.5488C185.922 80.2989 186.939 80.7203 188 80.7203C189.061 80.7203 190.078 80.2989 190.828 79.5488C191.579 78.7986 192 77.7812 192 76.7203V52.2723C192.002 52.2083 192.002 52.1443 192 52.0803C192.009 51.544 191.911 51.0112 191.71 50.5137C191.51 50.0161 191.211 49.5641 190.832 49.1843L158.832 17.1843C158.452 16.8054 158 16.5067 157.503 16.3061C157.005 16.1054 156.472 16.0069 155.936 16.0163C155.765 16.016 155.594 16.0267 155.424 16.0483C155.202 16.0135 154.977 15.9974 154.752 16.0003H36ZM160 29.6723L178.344 48.0163H160V29.6723ZM59.6 40.0163C58.5391 40.0694 57.5428 40.5417 56.8302 41.3293C56.1175 42.117 55.747 43.1555 55.8 44.2163C55.853 45.2772 56.3253 46.2735 57.113 46.9862C57.9006 47.6988 58.9391 48.0694 60 48.0163H68C69.0609 48.0163 70.0783 47.5949 70.8284 46.8448C71.5786 46.0946 72 45.0772 72 44.0163C72 42.9555 71.5786 41.9381 70.8284 41.1879C70.0783 40.4378 69.0609 40.0163 68 40.0163H60C59.8668 40.0097 59.7332 40.0097 59.6 40.0163ZM83.72 40.0163C83.1947 40.0426 82.6797 40.1721 82.2045 40.3974C81.7292 40.6226 81.303 40.9393 80.9501 41.3293C80.5973 41.7193 80.3247 42.175 80.1479 42.6704C79.9712 43.1657 79.8937 43.691 79.92 44.2163C79.9463 44.7416 80.0757 45.2566 80.301 45.7318C80.5263 46.2071 80.843 46.6333 81.233 46.9862C81.623 47.339 82.0787 47.6116 82.574 47.7884C83.0694 47.9651 83.5947 48.0426 84.12 48.0163H115.936C116.997 48.0163 118.014 47.5949 118.764 46.8448C119.515 46.0946 119.936 45.0772 119.936 44.0163C119.936 42.9555 119.515 41.9381 118.764 41.1879C118.014 40.4378 116.997 40.0163 115.936 40.0163H84.128C83.9921 40.0094 83.8559 40.0094 83.72 40.0163ZM59.592 56.0163C58.5311 56.0704 57.5352 56.5438 56.8233 57.3322C56.1114 58.1206 55.7419 59.1595 55.796 60.2203C55.8501 61.2812 56.3234 62.2771 57.1118 62.989C57.9002 63.7009 58.9391 64.0704 60 64.0163H68C69.0609 64.0163 70.0783 63.5949 70.8284 62.8448C71.5786 62.0946 72 61.0772 72 60.0163C72 58.9555 71.5786 57.9381 70.8284 57.1879C70.0783 56.4378 69.0609 56.0163 68 56.0163H60C59.8668 56.0097 59.7252 56.0097 59.592 56.0163ZM83.72 56.0163C83.1947 56.0426 82.6797 56.1721 82.2045 56.3974C81.7292 56.6226 81.303 56.9393 80.9501 57.3293C80.2375 58.117 79.867 59.1555 79.92 60.2163C79.973 61.2772 80.4453 62.2735 81.233 62.9862C82.0206 63.6988 83.0591 64.0694 84.12 64.0163H115.936C116.997 64.0163 118.014 63.5949 118.764 62.8448C119.515 62.0946 119.936 61.0772 119.936 60.0163C119.936 58.9555 119.515 57.9381 118.764 57.1879C118.014 56.4378 116.997 56.0163 115.936 56.0163H84.128C83.9921 56.0094 83.8559 56.0094 83.72 56.0163ZM203.672 67.2003C202.611 67.2534 201.615 67.7257 200.902 68.5133C200.19 69.301 199.819 70.3395 199.872 71.4003C199.925 72.4612 200.397 73.4575 201.185 74.1702C201.973 74.8828 203.011 75.2534 204.072 75.2003H206.232L179 103.312L149.44 91.8323C148.823 91.5915 148.155 91.5078 147.497 91.5888C146.84 91.6698 146.212 91.9129 145.672 92.2963L105.688 120.752C105.226 121.042 104.829 121.422 104.52 121.87C104.21 122.319 103.996 122.826 103.889 123.36C103.783 123.894 103.787 124.444 103.9 124.977C104.014 125.51 104.235 126.013 104.551 126.458C104.866 126.902 105.269 127.277 105.734 127.56C106.2 127.843 106.718 128.028 107.257 128.103C107.797 128.179 108.346 128.143 108.871 127.999C109.397 127.855 109.887 127.605 110.312 127.264L148.552 100.08L178.576 111.736C179.309 112.024 180.111 112.088 180.881 111.922C181.651 111.755 182.355 111.365 182.904 110.8L212.024 80.7363V83.1603C212.024 84.2212 212.445 85.2386 213.196 85.9888C213.946 86.7389 214.963 87.1603 216.024 87.1603C217.085 87.1603 218.102 86.7389 218.852 85.9888C219.603 85.2386 220.024 84.2212 220.024 83.1603V71.2003C220.024 70.1395 219.603 69.1221 218.852 68.3719C218.102 67.6218 217.085 67.2003 216.024 67.2003H204.08C203.944 67.1934 203.808 67.1934 203.672 67.2003ZM91.936 71.9523C90.8779 71.9692 89.8696 72.4047 89.1319 73.1634C88.3942 73.9221 87.9872 74.9422 88 76.0003V180C88 181.061 88.4214 182.079 89.1716 182.829C89.9217 183.579 90.9391 184 92 184H228C229.061 184 230.078 183.579 230.828 182.829C231.579 182.079 232 181.061 232 180C232 178.939 231.579 177.922 230.828 177.172C230.078 176.422 229.061 176 228 176H224V100C224 98.9395 223.579 97.9221 222.828 97.1719C222.078 96.4218 221.061 96.0003 220 96.0003H204C202.939 96.0003 201.922 96.4218 201.172 97.1719C200.421 97.9221 200 98.9395 200 100V176H192V124C192 122.939 191.579 121.922 190.828 121.172C190.078 120.422 189.061 120 188 120H172C170.939 120 169.922 120.422 169.172 121.172C168.421 121.922 168 122.939 168 124V176H160V115.984C160 114.923 159.579 113.906 158.828 113.156C158.078 112.406 157.061 111.984 156 111.984H140C138.939 111.984 137.922 112.406 137.172 113.156C136.421 113.906 136 114.923 136 115.984V176H128V140C128 138.939 127.579 137.922 126.828 137.172C126.078 136.422 125.061 136 124 136H108C106.939 136 105.922 136.422 105.172 137.172C104.421 137.922 104 138.939 104 140V176H96V76.0003C96.0065 75.4656 95.9057 74.935 95.7035 74.4399C95.5014 73.9448 95.202 73.4952 94.8231 73.1178C94.4442 72.7404 93.9935 72.4428 93.4976 72.2426C93.0017 72.0425 92.4707 71.9437 91.936 71.9523ZM208 104H216V175.888H208V104ZM144 119.984H152V175.888H144V119.984ZM176 128H184V175.888H176V128ZM112 144H120V175.888H112V144ZM115.608 192.016C114.547 192.068 113.55 192.54 112.837 193.327C112.124 194.113 111.752 195.151 111.804 196.212C111.856 197.273 112.327 198.27 113.114 198.983C113.901 199.697 114.939 200.068 116 200.016H203.968C205.029 200.016 206.046 199.595 206.796 198.845C207.547 198.095 207.968 197.077 207.968 196.016C207.968 194.955 207.547 193.938 206.796 193.188C206.046 192.438 205.029 192.016 203.968 192.016H116C115.869 192.01 115.739 192.01 115.608 192.016Z" fill="white"/>
</g>
<defs>
<clipPath id="clip0_681_23">
<rect width="256" height="256" fill="white"/>
</clipPath>
</defs>
</svg>
