<svg width="256" height="256" viewBox="0 0 256 256" fill="none" xmlns="http://www.w3.org/2000/svg">
<path d="M205.283 178.567L177.117 192.159C173.222 184.766 165.769 180.067 157.554 179.832L131.548 179.109C127.423 178.982 123.387 177.916 119.722 176L117.085 174.608C103.541 167.396 87.3783 167.414 73.8529 174.662L74.0122 168.534C74.0653 166.51 72.5074 164.811 70.5246 164.757L42.0045 163.961C40.0217 163.907 38.3576 165.498 38.3045 167.522L36.5873 231.42C36.5341 233.445 38.092 235.144 40.0748 235.198L68.595 235.993H68.7012C70.6486 235.993 72.2419 234.403 72.295 232.414L72.3835 229.359L79.7835 225.31C82.6869 223.72 86.0859 223.34 89.2725 224.244L133.513 236.915C133.513 236.915 133.673 236.951 133.743 236.969C136.948 237.656 140.205 238 143.463 238C150.385 238 157.218 236.481 163.503 233.535C163.662 233.463 163.804 233.372 163.945 233.282L228.085 190.912C229.678 189.864 230.191 187.713 229.271 186.014C224.509 177.392 213.94 174.102 205.283 178.548V178.567ZM65.1959 228.528L43.8633 227.931L45.3858 171.372L66.7184 171.969L65.1959 228.528ZM160.263 226.973C152.456 230.57 143.728 231.565 135.337 229.811L91.2199 217.158C86.2453 215.73 80.9342 216.327 76.4022 218.821L72.6137 220.9L73.6227 183.302C85.6256 175.15 101.01 174.319 113.774 181.115L116.412 182.507C121.032 184.947 126.131 186.285 131.336 186.448L157.342 187.171C164.654 187.387 170.85 192.702 172.337 200.004L133.602 198.92C131.619 198.866 129.955 200.456 129.902 202.481C129.849 204.505 131.407 206.204 133.389 206.259L176.143 207.452H176.249C178.197 207.452 179.79 205.861 179.843 203.873C179.878 202.282 179.772 200.673 179.489 199.101L208.381 185.164C208.381 185.164 208.434 185.146 208.469 185.128C212.559 183.013 217.516 183.718 220.897 186.899L160.245 226.955L160.263 226.973Z" fill="white"/>
<path d="M223.395 71.0704C225.342 68.7206 226.51 65.6838 226.51 62.3579C226.51 54.9288 220.615 48.8734 213.357 48.8734C211.339 48.8734 209.427 49.3434 207.727 50.1748C205.514 47.8792 203.213 45.674 200.823 43.5953C201.372 42.095 201.69 40.4862 201.69 38.7871C201.69 31.358 195.795 25.3026 188.537 25.3026C184.978 25.3026 181.739 26.7667 179.366 29.1166C164.991 21.8501 148.987 18 132.86 18C116.732 18 100.002 22.0128 85.3614 29.6227C82.9537 26.9656 79.5193 25.3026 75.713 25.3026C68.4547 25.3026 62.5594 31.358 62.5594 38.7871C62.5594 40.8478 63.0197 42.7819 63.8164 44.5352C60.2757 47.6985 56.9297 51.1148 53.8494 54.7299C52.6278 56.1579 52.7695 58.3451 54.168 59.5923C54.8053 60.1707 55.602 60.4419 56.3809 60.4419C57.3192 60.4419 58.2575 60.0442 58.9302 59.2669C61.7982 55.9229 64.8963 52.7597 68.1537 49.8314C70.2958 51.3678 72.8982 52.2897 75.713 52.2897C80.8116 52.2897 85.2375 49.2891 87.4327 44.9329C98.9222 48.3311 109.916 53.1754 120.149 59.3935C119.865 60.5142 119.706 61.671 119.706 62.8821C119.706 65.0693 120.219 67.1118 121.122 68.9375C112.695 76.3847 105.083 84.808 98.4796 94.0266C97.3112 93.6832 96.0719 93.4844 94.7973 93.4844C89.5394 93.4844 84.9896 96.6657 82.8829 101.257C69.4283 101.329 55.9384 102.811 42.6785 105.667C41.5101 103.48 39.7575 101.673 37.6685 100.444C40.1646 90.538 44.1125 81.1205 49.4235 72.408C50.4149 70.7993 49.9192 68.6663 48.3436 67.6541C46.768 66.6419 44.679 67.148 43.6876 68.7567C38.0225 78.0477 33.8268 88.0978 31.1536 98.654C23.8952 98.654 18 104.709 18 112.139C18 118.375 22.1603 123.635 27.79 125.171C27.79 125.388 27.79 125.605 27.79 125.822C27.79 135.402 29.0292 144.819 31.4015 153.875C33.2426 152.393 35.3493 151.327 37.5799 150.73C35.5795 142.687 34.5527 134.336 34.5527 125.84C34.5527 125.623 34.5527 125.406 34.5527 125.189C40.1115 123.671 44.2364 118.519 44.3249 112.374C56.6642 109.734 69.2159 108.325 81.7145 108.162C81.98 111.289 83.2901 114.091 85.2729 116.242C79.8379 127.431 75.8016 139.162 73.2346 151.182C75.5537 151.562 77.7135 152.429 79.6255 153.677C82.0331 142.054 85.8571 130.72 91.0442 119.893C92.2303 120.255 93.5049 120.453 94.815 120.453C101.188 120.453 106.499 115.808 107.721 109.644C122.91 111.56 137.71 115.32 151.962 120.815C150.74 124.34 150.085 128.136 150.067 132.076C150.067 141.421 153.75 149.881 159.698 156.081C156.494 159.443 153.165 162.714 149.749 165.824L157.981 166.059C158.459 166.059 158.919 166.095 159.397 166.131C161.274 164.305 163.115 162.425 164.92 160.509C170.267 164.197 176.711 166.348 183.651 166.348C193.618 166.348 202.593 161.883 208.736 154.815C211.834 157.491 214.862 160.238 217.8 163.094C222.102 163.691 226.192 165.191 229.856 167.45C235.167 154.436 238 140.319 238 125.822C238 106.481 232.972 87.6097 223.448 71.0523L223.395 71.0704ZM75.713 45.3848C72.1724 45.3848 69.3044 42.4203 69.3044 38.7871C69.3044 35.1539 72.1724 32.1895 75.713 32.1895C79.2537 32.1895 82.1217 35.1539 82.1217 38.7871C82.1217 42.4203 79.2537 45.3848 75.713 45.3848ZM31.1182 118.736C27.5775 118.736 24.7096 115.772 24.7096 112.139C24.7096 108.505 27.5775 105.541 31.1182 105.541C34.6589 105.541 37.5268 108.505 37.5268 112.139C37.5268 115.772 34.6589 118.736 31.1182 118.736ZM94.7796 113.567C91.2389 113.567 88.371 110.602 88.371 106.969C88.371 103.336 91.2389 100.371 94.7796 100.371C98.3203 100.371 101.188 103.336 101.188 106.969C101.188 110.602 98.3203 113.567 94.7796 113.567ZM213.357 55.7783C216.898 55.7783 219.766 58.7427 219.766 62.376C219.766 66.0092 216.898 68.9736 213.357 68.9736C209.816 68.9736 206.948 66.0092 206.948 62.376C206.948 58.7427 209.816 55.7783 213.357 55.7783ZM188.519 32.2075C192.06 32.2075 194.928 35.172 194.928 38.8052C194.928 42.4384 192.06 45.4028 188.519 45.4028C184.978 45.4028 182.11 42.4384 182.11 38.8052C182.11 35.172 184.978 32.2075 188.519 32.2075ZM188.519 52.2897C191.688 52.2897 194.591 51.1329 196.857 49.2349C198.822 50.9702 200.734 52.7958 202.558 54.6757C201.071 56.8629 200.186 59.52 200.186 62.376C200.186 67.4191 202.894 71.8115 206.895 74.1252C204.24 83.2354 200.929 92.1106 197.034 100.697C192.909 98.8528 188.36 97.8225 183.58 97.8225C179.278 97.8225 175.153 98.6721 171.364 100.209C163.876 88.6039 154.829 78.0296 144.579 68.9556C145.482 67.1299 145.995 65.0693 145.995 62.9002C145.995 61.6891 145.836 60.5322 145.553 59.4116C155.414 53.4285 165.965 48.7107 176.994 45.3305C179.242 49.488 183.562 52.3078 188.519 52.3078V52.2897ZM88.849 38.1725C88.8135 37.3411 88.6896 36.5096 88.5126 35.7323C102.162 28.6466 117.422 24.923 132.842 24.923C148.262 24.923 162.566 28.4297 175.879 35.0816C175.56 36.2023 175.383 37.3953 175.365 38.6244C163.734 42.1492 152.599 47.12 142.207 53.4104C139.817 50.934 136.506 49.3976 132.86 49.3976C129.213 49.3976 125.902 50.934 123.512 53.4104C112.678 46.8489 101.047 41.7335 88.8667 38.1725H88.849ZM139.25 62.8821C139.25 66.5153 136.383 69.4797 132.842 69.4797C129.301 69.4797 126.433 66.5153 126.433 62.8821C126.433 59.2489 129.301 56.2844 132.842 56.2844C136.383 56.2844 139.25 59.2489 139.25 62.8821ZM107.225 102.649C106.588 100.751 105.561 99.0517 104.233 97.6418C110.465 89.0016 117.617 81.1025 125.548 74.1071C127.637 75.5351 130.133 76.3666 132.824 76.3666C135.515 76.3666 138.011 75.5351 140.1 74.1071C149.731 82.6208 158.229 92.5083 165.328 103.372C161.043 106.228 157.414 110.06 154.776 114.561C139.463 108.614 123.565 104.619 107.207 102.649H107.225ZM183.597 159.913C168.567 159.913 156.334 147.422 156.334 132.076C156.334 116.748 168.585 104.257 183.597 104.239C198.628 104.239 210.861 116.73 210.861 132.076C210.861 147.422 198.628 159.913 183.597 159.913ZM225.112 160.78C221.129 156.749 216.951 152.881 212.649 149.194C215.517 144.151 217.163 138.312 217.163 132.076C217.163 120.526 211.533 110.295 202.93 104.095C207.09 94.9666 210.613 85.531 213.428 75.8424C214.968 75.8424 216.455 75.5532 217.836 75.029C226.581 90.4115 231.184 107.891 231.184 125.822C231.184 137.915 229.095 149.718 225.112 160.762V160.78Z" fill="white"/>
<path d="M183.596 120.073C185.915 120.073 187.809 122.007 187.809 124.375C187.809 126.146 189.225 127.592 190.96 127.592C192.695 127.592 194.112 126.146 194.112 124.375C194.112 119.585 190.925 115.355 186.464 114.036V112.662C186.464 110.89 185.047 109.444 183.312 109.444C181.578 109.444 180.161 110.89 180.161 112.662V114.216C175.488 115.861 172.496 120.724 173.168 125.803C173.859 131.117 178.338 135.112 183.596 135.112C185.879 135.112 187.774 137.01 187.809 139.342C187.845 141.637 186.092 143.571 183.844 143.716C183.56 143.662 183.277 143.662 183.012 143.68C180.94 143.373 179.382 141.565 179.382 139.414C179.382 137.643 177.966 136.196 176.231 136.196C174.496 136.196 173.08 137.643 173.08 139.414C173.08 144.005 175.966 148.072 180.161 149.573V151.199C180.161 152.971 181.578 154.417 183.312 154.417C185.047 154.417 186.464 152.971 186.464 151.199V149.753C191.35 148.343 194.59 143.553 194.058 138.311C193.51 132.816 188.995 128.677 183.596 128.677C181.277 128.677 179.382 126.743 179.382 124.375C179.382 122.007 181.277 120.073 183.596 120.073Z" fill="white"/>
</svg>
