<svg width="256" height="256" viewBox="0 0 256 256" fill="none" xmlns="http://www.w3.org/2000/svg">
<path d="M130.523 139.2C123.873 135.7 117.248 132.175 110.598 128.675C100.073 123.125 89.5484 117.55 79.0234 112C76.6234 110.725 74.1984 109.45 71.7984 108.175C72.6234 109.625 73.4484 111.05 74.2734 112.5V50.5254C71.7734 51.9754 69.2484 53.4004 66.7484 54.8504C73.3984 58.3504 80.0234 61.8754 86.6734 65.3754C97.1984 70.9504 107.723 76.5004 118.248 82.0754C120.648 83.3504 123.073 84.6254 125.473 85.9004C124.648 84.4504 123.823 83.0254 122.998 81.5754V143.525C122.998 146.15 125.298 148.65 127.998 148.525C130.698 148.4 132.998 146.325 132.998 143.525V81.5754C132.998 79.8754 132.048 78.0754 130.523 77.2504C123.873 73.7504 117.248 70.2254 110.598 66.7254C100.073 61.1504 89.5484 55.6004 79.0234 50.0254C76.6234 48.7504 74.1984 47.4754 71.7984 46.2004C68.4984 44.4504 64.2734 46.6004 64.2734 50.5254V112.5C64.2734 114.2 65.2234 116 66.7484 116.825C73.3984 120.325 80.0234 123.85 86.6734 127.35C97.1984 132.9 107.723 138.475 118.248 144.025C120.648 145.3 123.073 146.575 125.473 147.85C127.773 149.075 131.023 148.525 132.323 146.05C133.548 143.725 132.998 140.5 130.523 139.2Z" fill="white"/>
<path d="M184.225 108.175C177.575 111.675 170.95 115.2 164.3 118.7C153.775 124.25 143.225 129.825 132.7 135.375C130.3 136.65 127.875 137.925 125.475 139.2C127.975 140.65 130.5 142.075 133 143.525V81.5754C132.175 83.0254 131.35 84.4504 130.525 85.9004C137.175 82.4004 143.8 78.8754 150.45 75.3754C160.975 69.8004 171.525 64.2504 182.05 58.6754C184.45 57.4004 186.875 56.1254 189.275 54.8504C186.775 53.4004 184.25 51.9754 181.75 50.5254V112.5C181.75 115.125 184.05 117.625 186.75 117.5C189.45 117.375 191.75 115.3 191.75 112.5V50.5254C191.75 46.6004 187.525 44.4504 184.225 46.2004C177.575 49.7004 170.95 53.2254 164.3 56.7254C153.775 62.3004 143.225 67.8504 132.7 73.4254C130.3 74.7004 127.875 75.9754 125.475 77.2504C123.925 78.0504 123 79.8754 123 81.5754V143.525C123 147.45 127.225 149.6 130.525 147.85C137.175 144.35 143.8 140.825 150.45 137.325C160.975 131.775 171.525 126.2 182.05 120.65C184.45 119.375 186.875 118.1 189.275 116.825C191.6 115.6 192.5 112.175 191.075 109.975C189.55 107.625 186.7 106.875 184.225 108.175Z" fill="white"/>
<path d="M184.223 46.2001C177.573 49.7001 170.948 53.2251 164.298 56.7251C153.773 62.3001 143.223 67.8501 132.698 73.4251C130.298 74.7001 127.873 75.9751 125.473 77.2501H130.523C123.873 73.7501 117.248 70.2251 110.598 66.7251C100.073 61.1501 89.5484 55.6001 79.0234 50.0251C76.6234 48.7501 74.1984 47.4751 71.7984 46.2001V54.8251C78.4484 51.3251 85.0734 47.8251 91.7234 44.3001C102.248 38.7501 112.773 33.1751 123.298 27.6251C125.698 26.3501 128.123 25.0751 130.523 23.8001H125.473C132.123 27.3001 138.748 30.8001 145.398 34.3251C155.923 39.8751 166.473 45.4501 176.998 51.0001C179.398 52.2751 181.823 53.5501 184.223 54.8251C186.523 56.0501 189.773 55.5001 191.073 53.0251C192.298 50.7251 191.748 47.5001 189.273 46.1751C182.573 42.6251 175.848 39.1001 169.148 35.5501C158.623 29.9751 148.073 24.4251 137.548 18.8501C135.223 17.6251 132.948 16.3501 130.598 15.1751C128.423 14.1001 126.573 14.5751 124.673 15.5751C123.473 16.2001 122.273 16.8251 121.098 17.4751C111.048 22.7751 101.023 28.0751 90.9734 33.3751C83.0484 37.5751 74.9984 41.6001 67.1484 45.9501C67.0234 46.0251 66.8984 46.0751 66.7734 46.1501C63.5234 47.8751 63.5234 53.0751 66.7734 54.7751C73.4734 58.3251 80.1984 61.8751 86.8984 65.4001C97.4234 70.9751 107.973 76.5251 118.498 82.1001C120.823 83.3251 123.098 84.6001 125.448 85.7751C127.623 86.8501 129.473 86.3751 131.373 85.3751C132.573 84.7501 133.773 84.1001 134.948 83.4751C144.998 78.1751 155.023 72.8751 165.073 67.5501C172.998 63.3501 181.048 59.3001 188.898 54.9751C189.023 54.9001 189.148 54.8501 189.273 54.7751C191.598 53.5501 192.498 50.1251 191.073 47.9251C189.548 45.6251 186.698 44.8751 184.223 46.2001Z" fill="white"/>
<path d="M154.826 30.6998C148.201 34.1998 141.551 37.7248 134.926 41.2248C124.401 46.7998 113.876 52.3498 103.351 57.9248C100.951 59.1998 98.5258 60.4748 96.1258 61.7498C93.8008 62.9748 92.9008 66.3998 94.3258 68.5998C95.8508 70.9498 98.7008 71.6998 101.176 70.3998C107.801 66.8998 114.451 63.3748 121.076 59.8748C131.601 54.2998 142.126 48.7498 152.651 43.1748C155.051 41.8998 157.476 40.6248 159.876 39.3498C162.201 38.1248 163.101 34.6998 161.676 32.4998C160.151 30.1248 157.301 29.3748 154.826 30.6998ZM71.7758 232.2C65.1508 228.7 58.5008 225.2 51.8758 221.7C41.3508 216.15 30.8258 210.575 20.3008 205.025C17.9008 203.75 15.4758 202.475 13.0758 201.2C13.9008 202.65 14.7258 204.075 15.5508 205.525V143.575C13.0508 145.025 10.5258 146.45 8.02578 147.9C14.6508 151.4 21.3008 154.925 27.9258 158.425C38.4508 164 48.9758 169.55 59.5008 175.125C61.9008 176.4 64.3258 177.675 66.7258 178.95C65.9008 177.5 65.0758 176.075 64.2508 174.625V236.55C64.2508 239.175 66.5508 241.675 69.2508 241.55C71.9508 241.425 74.2508 239.35 74.2508 236.55V174.625C74.2508 172.925 73.3008 171.125 71.7758 170.3C65.1258 166.75 58.5008 163.25 51.8758 159.75C41.3508 154.175 30.8258 148.625 20.3008 143.05C17.9008 141.775 15.4758 140.5 13.0758 139.225C9.77578 137.475 5.55078 139.625 5.55078 143.55V205.5C5.55078 207.2 6.50078 209 8.02578 209.825C14.6508 213.325 21.3008 216.825 27.9258 220.325C38.4508 225.875 48.9758 231.45 59.5008 237C61.9008 238.275 64.3258 239.55 66.7258 240.825C69.0258 242.05 72.2758 241.5 73.5758 239.025C74.7758 236.725 74.2508 233.5 71.7758 232.2Z" fill="white"/>
<path d="M125.475 201.175C118.825 204.675 112.2 208.175 105.55 211.675C95.025 217.225 84.475 222.8 73.95 228.35C71.55 229.625 69.125 230.9 66.725 232.175C69.225 233.625 71.75 235.05 74.25 236.5V174.575C73.425 176.025 72.6 177.45 71.775 178.9C78.425 175.4 85.05 171.875 91.7 168.375C102.225 162.8 112.775 157.25 123.3 151.675C125.7 150.4 128.125 149.125 130.525 147.85C128.025 146.4 125.5 144.975 123 143.525V205.5C123 208.125 125.3 210.625 128 210.5C130.7 210.375 133 208.3 133 205.5V143.525C133 139.625 128.775 137.45 125.475 139.2C118.825 142.7 112.2 146.225 105.55 149.725C95.025 155.3 84.475 160.85 73.95 166.425C71.55 167.7 69.125 168.975 66.725 170.25C65.175 171.075 64.25 172.875 64.25 174.575V236.5C64.25 240.425 68.475 242.575 71.775 240.825C78.425 237.325 85.05 233.825 91.7 230.325C102.225 224.775 112.775 219.2 123.3 213.65C125.7 212.375 128.125 211.1 130.525 209.825C132.85 208.6 133.75 205.175 132.325 202.975C130.8 200.625 127.95 199.875 125.475 201.175Z" fill="white"/>
<path d="M125.473 139.2C118.823 142.7 112.198 146.225 105.548 149.725C95.0234 155.3 84.4734 160.85 73.9484 166.425C71.5484 167.7 69.1234 168.975 66.7234 170.25H71.7734C65.1234 166.75 58.4984 163.25 51.8734 159.75C41.3484 154.175 30.8234 148.625 20.2984 143.05C17.8984 141.775 15.4734 140.5 13.0734 139.225V147.85C19.7234 144.35 26.3484 140.825 32.9984 137.325C43.5234 131.75 54.0484 126.2 64.5734 120.625C66.9734 119.35 69.3984 118.075 71.7984 116.8H66.7484C73.3984 120.3 80.0234 123.825 86.6734 127.325C97.1984 132.875 107.723 138.45 118.248 144C120.648 145.275 123.073 146.55 125.473 147.825C127.773 149.05 131.023 148.5 132.323 146.025C133.548 143.725 132.998 140.5 130.523 139.175C123.823 135.625 117.098 132.1 110.398 128.55C99.8734 122.975 89.3234 117.425 78.7984 111.85C76.4734 110.625 74.1984 109.35 71.8484 108.175C69.6734 107.1 67.8234 107.575 65.9234 108.575C64.7234 109.2 63.5234 109.85 62.3484 110.475C52.2984 115.775 42.2734 121.1 32.2234 126.4C24.2984 130.6 16.2484 134.65 8.39844 139C8.27344 139.075 8.14844 139.125 8.02344 139.2C4.77344 140.925 4.77344 146.125 8.02344 147.825C14.7234 151.375 21.4484 154.925 28.1484 158.45C38.6734 164.025 49.1984 169.575 59.7484 175.15C62.0734 176.375 64.3484 177.65 66.6984 178.825C68.8734 179.9 70.7234 179.425 72.6234 178.425C73.8234 177.8 75.0234 177.15 76.1984 176.525C86.2484 171.225 96.2734 165.9 106.323 160.6C114.248 156.4 122.298 152.35 130.148 148C130.273 147.925 130.398 147.875 130.523 147.8C132.848 146.575 133.748 143.15 132.323 140.95C130.798 138.65 127.948 137.9 125.473 139.2Z" fill="white"/>
<path d="M96.0742 123.725C89.4492 127.225 82.7992 130.75 76.1742 134.25C65.6492 139.825 55.1242 145.375 44.5992 150.95C42.1992 152.225 39.7742 153.5 37.3742 154.775C35.0492 156 34.1492 159.425 35.5742 161.625C37.0992 163.975 39.9492 164.725 42.4242 163.425C49.0492 159.925 55.6992 156.4 62.3242 152.9C72.8492 147.325 83.3742 141.775 93.8992 136.2C96.2992 134.925 98.7242 133.65 101.124 132.375C103.449 131.15 104.349 127.725 102.924 125.525C101.399 123.175 98.5492 122.425 96.0742 123.725ZM189.274 232.2C182.624 228.7 175.999 225.2 169.349 221.7C158.824 216.15 148.274 210.575 137.749 205.025C135.349 203.75 132.924 202.475 130.524 201.2C131.349 202.65 132.174 204.075 132.999 205.525V143.55C130.499 145 127.974 146.425 125.474 147.875C132.124 151.375 138.749 154.9 145.399 158.4C155.924 163.975 166.474 169.525 176.999 175.1C179.399 176.375 181.824 177.65 184.224 178.925C183.399 177.475 182.574 176.05 181.749 174.6V236.525C181.749 239.15 184.049 241.65 186.749 241.525C189.449 241.4 191.749 239.325 191.749 236.525V174.6C191.749 172.9 190.799 171.1 189.274 170.275C182.624 166.775 175.999 163.25 169.349 159.75C158.824 154.175 148.274 148.625 137.749 143.05C135.349 141.775 132.924 140.5 130.524 139.225C127.224 137.475 122.999 139.625 122.999 143.55V205.525C122.999 207.225 123.949 209.025 125.474 209.85C132.124 213.35 138.749 216.85 145.399 220.35C155.924 225.9 166.474 231.475 176.999 237.025C179.399 238.3 181.824 239.575 184.224 240.85C186.524 242.075 189.774 241.525 191.074 239.05C192.299 236.725 191.749 233.5 189.274 232.2Z" fill="white"/>
<path d="M242.948 201.175C236.323 204.675 229.673 208.175 223.048 211.675C212.523 217.225 201.998 222.8 191.473 228.35C189.073 229.625 186.648 230.9 184.248 232.175C186.748 233.625 189.273 235.05 191.773 236.5V174.575C190.948 176.025 190.123 177.45 189.298 178.9C195.923 175.4 202.573 171.875 209.198 168.375C219.723 162.8 230.248 157.25 240.773 151.675C243.173 150.4 245.598 149.125 247.998 147.85C245.498 146.4 242.973 144.975 240.473 143.525V205.475C240.473 208.1 242.773 210.6 245.473 210.475C248.173 210.35 250.473 208.275 250.473 205.475V143.525C250.473 139.6 246.248 137.45 242.948 139.2C236.323 142.7 229.673 146.225 223.048 149.725C212.523 155.3 201.998 160.85 191.473 166.425C189.073 167.7 186.648 168.975 184.248 170.25C182.698 171.075 181.773 172.875 181.773 174.575V236.5C181.773 240.425 185.998 242.575 189.298 240.825C195.923 237.325 202.573 233.825 209.198 230.325C219.723 224.775 230.248 219.2 240.773 213.65C243.173 212.375 245.598 211.1 247.998 209.825C250.323 208.6 251.223 205.175 249.798 202.975C248.273 200.625 245.423 199.875 242.948 201.175Z" fill="white"/>
<path d="M242.95 139.225C236.325 142.725 229.675 146.25 223.05 149.75C212.525 155.325 202 160.875 191.475 166.45C189.075 167.725 186.65 169 184.25 170.275H189.3C182.65 166.775 176.025 163.25 169.375 159.75C158.85 154.175 148.3 148.625 137.775 143.05C135.375 141.775 132.95 140.5 130.55 139.225V147.85C137.2 144.35 143.825 140.825 150.475 137.325C161 131.775 171.55 126.2 182.075 120.65C184.475 119.375 186.9 118.1 189.3 116.825H184.25C190.875 120.325 197.525 123.85 204.15 127.35C214.675 132.925 225.2 138.475 235.725 144.05C238.125 145.325 240.55 146.6 242.95 147.875C245.25 149.1 248.5 148.55 249.8 146.075C251.025 143.775 250.475 140.55 248 139.225C241.3 135.675 234.575 132.125 227.875 128.575C217.35 123 206.825 117.45 196.275 111.875C193.95 110.65 191.675 109.375 189.325 108.2C187.15 107.125 185.3 107.6 183.4 108.6C182.2 109.225 181 109.85 179.825 110.5C169.775 115.8 159.75 121.1 149.7 126.4C141.775 130.6 133.725 134.625 125.875 138.975C125.75 139.05 125.625 139.1 125.5 139.175C122.25 140.9 122.25 146.1 125.5 147.8C132.2 151.35 138.925 154.9 145.625 158.45C156.15 164.025 166.7 169.6 177.225 175.15C179.55 176.375 181.825 177.65 184.175 178.825C186.35 179.9 188.2 179.425 190.1 178.425C191.3 177.8 192.5 177.15 193.675 176.525C203.7 171.225 213.75 165.925 223.775 160.6C231.7 156.4 239.725 152.35 247.575 148.025C247.7 147.95 247.825 147.9 247.95 147.825C250.275 146.6 251.175 143.175 249.75 140.975C248.275 138.675 245.425 137.925 242.95 139.225Z" fill="white"/>
<path d="M213.574 123.725C206.949 127.225 200.299 130.75 193.674 134.25C183.149 139.825 172.624 145.375 162.099 150.95C159.699 152.225 157.274 153.5 154.874 154.775C152.549 156 151.649 159.425 153.074 161.625C154.599 163.975 157.449 164.725 159.924 163.425C166.549 159.925 173.199 156.4 179.824 152.9C190.349 147.325 200.874 141.775 211.399 136.2C213.799 134.925 216.224 133.65 218.624 132.375C220.949 131.15 221.849 127.725 220.424 125.525C218.899 123.175 216.074 122.425 213.574 123.725Z" fill="white"/>
</svg>
