<svg width="2343" height="893" viewBox="0 0 2343 893" fill="none" xmlns="http://www.w3.org/2000/svg">
<g clip-path="url(#clip0_885_610)">
<path d="M342.291 72.5591C382.681 39.0091 429.431 13.2791 480.671 0.929059C482.184 0.562392 483.681 0.579059 485.161 0.979059C497.547 4.27906 509.254 7.84573 520.281 11.6791C546.261 20.7191 569.29 33.6691 591.491 49.4691C592.584 50.2424 592.461 50.6057 591.121 50.5591C551.107 49.1457 512.841 52.8191 476.321 61.5791C426.121 73.6124 381.061 95.2624 341.141 126.529C277.351 176.479 230.871 247.039 205.901 324.629C199.627 344.129 195.101 363.652 192.321 383.199C190.914 393.079 190.401 402.706 190.781 412.079C190.807 412.599 190.561 412.876 190.041 412.909L186.031 413.179C185.631 413.206 185.424 413.019 185.411 412.619C183.677 368.612 189.237 325.432 202.091 283.079C226.911 201.349 276.831 126.959 342.291 72.5591Z" fill="#00A9E0"/>
<path d="M222.098 150.609C190.812 194.303 170.028 243.169 159.748 297.209C129.108 458.279 200.938 635.359 345.838 717.169C346.238 717.403 346.438 717.749 346.438 718.209V892.199C346.438 892.813 346.182 892.956 345.668 892.629C335.348 886.143 325.412 879.536 315.858 872.809C259.545 833.183 208.458 788.399 162.598 738.459C71.5484 639.299 3.41837 515.849 0.478374 378.999C-0.788293 320.279 11.6584 265.146 37.8184 213.599C101.218 88.6692 234.788 13.4792 374.658 25.3392C375.945 25.4458 376.002 25.7725 374.828 26.3192C314.098 54.5592 260.858 96.4792 222.098 150.609Z" fill="#003DA5"/>
<path d="M718.03 371.611C717.64 447.141 692.93 519.251 647.2 579.561C603.04 637.791 541.55 679.761 472.51 701.041C440.604 710.881 406.617 715.854 370.55 715.961C370.11 715.961 369.7 715.848 369.32 715.621C365.9 713.594 362.827 711.474 360.1 709.261C301.554 661.721 262.114 601.621 241.78 528.961C241.759 528.881 241.756 528.797 241.772 528.716C241.788 528.635 241.823 528.559 241.873 528.493C241.923 528.427 241.988 528.374 242.062 528.337C242.136 528.3 242.217 528.281 242.3 528.281C283.66 528.221 324.924 528.234 366.09 528.321C373.57 528.334 380.214 528.088 386.02 527.581C467.68 520.481 530.74 451.471 530.37 369.311C530.01 288.411 468.42 220.681 387.98 212.481C382.42 211.914 375.837 211.651 368.23 211.691C351.437 211.778 334.1 211.791 316.22 211.731C316.151 211.729 316.085 211.708 316.027 211.67C315.97 211.631 315.925 211.577 315.898 211.514C315.871 211.451 315.862 211.381 315.873 211.313C315.884 211.246 315.914 211.182 315.96 211.131C357.167 164.798 406.544 131.671 464.09 111.751C500.82 99.0309 539.87 92.8709 578.49 93.2509C579.265 93.2638 580.018 93.515 580.65 93.9709C605.377 111.944 627.264 133.688 646.31 159.201C692.03 220.461 718.42 295.541 718.03 371.611Z" fill="#C8102E"/>
<path d="M1190.99 111.19C1209.21 107.69 1228.54 108.12 1246.2 113.22C1278.97 122.68 1302.73 150.37 1308.19 183.92C1311.32 203.1 1310.13 221.134 1304.64 238.02C1294.49 269.23 1267.35 292.36 1235.26 298.22C1218.3 301.314 1201.7 300.91 1185.47 297.01C1158.92 290.63 1137.74 272.42 1126.53 247.62C1117.11 226.77 1115.87 200.44 1120.97 178.3C1128.99 143.43 1156.07 117.9 1190.99 111.19ZM1162.11 197.19C1161.29 206.81 1162.07 215.68 1164.44 223.8C1169.82 242.17 1184.11 256.04 1203.05 259.65C1224.85 263.81 1245.19 256.1 1257.43 237.44C1266.14 224.15 1267.95 205.34 1264.71 190.01C1259.76 166.56 1241.22 149.49 1217.05 148.31C1186.83 146.83 1164.62 167.71 1162.11 197.19Z" fill="#00A9E0"/>
<path d="M868.742 239.03L868.722 296.7C868.722 296.788 868.704 296.875 868.671 296.957C868.637 297.038 868.588 297.112 868.525 297.174C868.463 297.236 868.389 297.286 868.308 297.319C868.227 297.353 868.14 297.37 868.052 297.37L826.322 297.38C825.948 297.38 825.762 297.194 825.762 296.82V112.29C825.762 111.937 825.935 111.76 826.282 111.76C847.188 111.694 868.222 111.704 889.382 111.79C901.442 111.837 912.975 113.294 923.982 116.16C948.152 122.45 960.522 139.71 963.052 163.57C965.042 182.26 962.682 203.66 949.422 217.54C940.795 226.567 930.225 232.457 917.712 235.21C901.912 238.69 885.172 239.13 869.262 238.52C869.194 238.518 869.127 238.529 869.064 238.553C869.001 238.578 868.944 238.615 868.895 238.662C868.847 238.71 868.808 238.767 868.782 238.83C868.755 238.894 868.742 238.962 868.742 239.03ZM893.352 147.6C885.918 146.874 877.888 146.657 869.262 146.95C868.908 146.957 868.732 147.137 868.732 147.49L868.742 202.8C868.742 202.921 868.789 203.036 868.873 203.122C868.957 203.208 869.071 203.258 869.192 203.26C883.282 203.46 911.452 204.88 917.652 187.7C920.718 179.2 920.665 170.41 917.492 161.33C914.162 151.81 902.682 148.52 893.352 147.6Z" fill="#00A9E0"/>
<path d="M1017.67 235.529C1017.59 235.529 1017.52 235.561 1017.46 235.617C1017.41 235.674 1017.38 235.75 1017.38 235.829V297.009C1017.38 297.11 1017.34 297.207 1017.26 297.278C1017.19 297.349 1017.09 297.389 1016.99 297.389L974.779 297.349C974.697 297.349 974.618 297.316 974.56 297.256C974.501 297.196 974.469 297.114 974.469 297.029L974.489 112.289C974.489 111.943 974.659 111.769 974.999 111.769C1000.02 111.663 1021.78 111.693 1040.28 111.859C1055.53 111.999 1072.23 115.539 1085.67 122.809C1100.55 130.859 1107.02 145.819 1108.61 162.129C1111.22 188.939 1105.67 218.689 1077.02 229.049C1076.96 229.071 1076.91 229.105 1076.87 229.15C1076.82 229.194 1076.79 229.248 1076.77 229.306C1076.75 229.365 1076.75 229.427 1076.75 229.488C1076.76 229.549 1076.78 229.608 1076.82 229.659L1122.52 296.939C1122.55 296.981 1122.57 297.031 1122.57 297.082C1122.57 297.133 1122.56 297.184 1122.54 297.229C1122.51 297.275 1122.48 297.313 1122.43 297.339C1122.39 297.366 1122.34 297.38 1122.29 297.379H1071.8C1071.33 297.379 1070.98 297.183 1070.73 296.789L1032.31 236.139C1032.05 235.733 1031.68 235.529 1031.21 235.529H1017.67ZM1060.05 191.579C1066.83 183.559 1066 168.859 1062.55 159.409C1060.73 154.416 1056.99 151.166 1051.34 149.659C1040.09 146.649 1028.91 147.209 1017.71 147.149C1017.32 147.149 1017.13 147.343 1017.13 147.729L1017.12 199.709C1017.12 200.016 1017.27 200.176 1017.58 200.189C1025.35 200.476 1033.05 200.179 1040.66 199.299C1047.13 198.559 1055.8 196.599 1060.05 191.579Z" fill="#00A9E0"/>
<path d="M1229.25 431.95C1229.03 431.577 1228.89 431.6 1228.82 432.02L1214.19 513.19C1214.12 513.543 1213.91 513.72 1213.55 513.72L1177.06 513.73C1177.01 513.73 1176.96 513.718 1176.91 513.695C1176.86 513.672 1176.82 513.639 1176.79 513.598C1176.76 513.557 1176.73 513.509 1176.72 513.457C1176.71 513.406 1176.71 513.352 1176.72 513.3L1211.97 336.21C1212.03 335.883 1212.23 335.713 1212.56 335.7L1214.42 335.62C1214.72 335.607 1214.94 335.733 1215.1 336L1278.32 447.72C1278.35 447.777 1278.4 447.823 1278.45 447.856C1278.51 447.888 1278.57 447.904 1278.64 447.903C1278.71 447.902 1278.77 447.884 1278.83 447.85C1278.89 447.816 1278.93 447.768 1278.97 447.71L1342.15 336.06C1342.29 335.813 1342.5 335.687 1342.79 335.68L1344.65 335.63C1345.01 335.623 1345.22 335.797 1345.29 336.15L1380.56 513.29C1380.62 513.583 1380.5 513.73 1380.2 513.73L1344.63 513.72C1344.21 513.72 1343.96 513.513 1343.88 513.1L1328.5 432.5C1328.39 431.94 1328.2 431.907 1327.92 432.4L1280.89 515.37C1280.69 515.72 1280.4 516.012 1280.05 516.214C1279.71 516.417 1279.31 516.523 1278.91 516.523C1278.5 516.523 1278.11 516.417 1277.76 516.214C1277.41 516.012 1277.12 515.72 1276.92 515.37L1229.25 431.95Z" fill="#193C6A"/>
<path d="M2131.37 438.119L2131.42 338.799C2131.42 338.539 2131.55 338.409 2131.82 338.409L2167.2 338.429C2167.34 338.429 2167.47 338.484 2167.57 338.582C2167.66 338.679 2167.72 338.812 2167.72 338.949V515.759C2167.72 516.119 2167.54 516.303 2167.19 516.309C2166.23 516.329 2165.59 516.323 2165.26 516.289C2164.95 516.257 2164.66 516.139 2164.41 515.949C2164.27 515.849 2127.48 481.803 2054.04 413.809C2053.6 413.403 2053.38 413.499 2053.38 414.099V513.369C2053.38 513.465 2053.34 513.556 2053.27 513.624C2053.2 513.692 2053.11 513.729 2053.01 513.729H2017.52C2017.46 513.729 2017.4 513.718 2017.34 513.694C2017.29 513.671 2017.24 513.637 2017.19 513.595C2017.15 513.552 2017.12 513.501 2017.09 513.445C2017.07 513.39 2017.06 513.33 2017.06 513.269V336.339C2017.06 335.853 2017.3 335.616 2017.79 335.629L2019.27 335.689C2019.7 335.703 2020.07 335.856 2020.38 336.149L2131.06 438.259C2131.09 438.282 2131.12 438.296 2131.15 438.301C2131.19 438.305 2131.22 438.3 2131.26 438.285C2131.29 438.271 2131.32 438.248 2131.34 438.218C2131.36 438.189 2131.37 438.155 2131.37 438.119Z" fill="#193C6A"/>
<path d="M2228.43 486.91L2217.14 513.17C2216.98 513.536 2216.7 513.72 2216.3 513.72L2178.93 513.73C2178.53 513.73 2178.41 513.547 2178.58 513.18L2258.74 336.75C2258.91 336.383 2259.17 336.072 2259.51 335.854C2259.85 335.636 2260.24 335.52 2260.65 335.52C2261.05 335.52 2261.44 335.636 2261.78 335.854C2262.12 336.072 2262.39 336.383 2262.55 336.75L2342.45 513.17C2342.62 513.543 2342.5 513.73 2342.09 513.73H2303.28C2303.13 513.73 2302.98 513.686 2302.86 513.602C2302.73 513.518 2302.63 513.399 2302.57 513.26L2291.59 487.11C2291.48 486.837 2291.27 486.7 2290.97 486.7H2228.74C2228.67 486.699 2228.61 486.719 2228.55 486.757C2228.5 486.794 2228.46 486.848 2228.43 486.91ZM2239.87 457.12C2239.85 457.171 2239.84 457.226 2239.85 457.281C2239.85 457.336 2239.87 457.389 2239.9 457.434C2239.93 457.48 2239.97 457.517 2240.02 457.543C2240.07 457.568 2240.13 457.581 2240.18 457.58H2280.02C2280.08 457.581 2280.13 457.568 2280.18 457.543C2280.23 457.517 2280.27 457.48 2280.3 457.434C2280.33 457.389 2280.35 457.336 2280.36 457.281C2280.36 457.226 2280.35 457.171 2280.33 457.12L2260.4 409.92C2260.37 409.862 2260.33 409.814 2260.28 409.78C2260.23 409.745 2260.16 409.727 2260.1 409.727C2260.04 409.727 2259.98 409.745 2259.92 409.78C2259.87 409.814 2259.83 409.862 2259.8 409.92L2239.87 457.12Z" fill="#193C6A"/>
<path d="M1062.48 515.35C1032.52 511.55 1008.54 493.99 996.009 466.28C990.039 453.1 987.929 437.64 988.309 422.71C988.839 401.74 994.829 382.12 1008.12 366.31C1021.65 350.197 1039.27 340.454 1060.97 337.08C1089.37 332.67 1119.47 337.67 1141.03 357.14C1164.52 378.33 1172.38 408.34 1168.68 439.19C1164.1 477.44 1136.86 507.45 1098.88 514.51C1087.25 516.677 1075.12 516.957 1062.48 515.35ZM1110.98 471.57C1126.54 459.14 1132.23 441.16 1131.12 421.46C1130.38 408.24 1126.12 396.07 1117.35 386.47C1107.11 375.257 1094.37 369.634 1079.12 369.6C1063.03 369.56 1049.94 375.31 1039.83 386.85C1026.07 402.57 1023.85 424.84 1028.96 444.58C1030.63 451.02 1033.58 456.984 1037.82 462.47C1048.3 476.05 1062.92 482.28 1079.85 482.12C1091.4 482.01 1101.99 478.75 1110.98 471.57Z" fill="#193C6A"/>
<path d="M1574.05 438.041L1574.04 338.701C1574.04 338.635 1574.07 338.571 1574.11 338.524C1574.16 338.477 1574.23 338.451 1574.3 338.451L1610 338.431C1610.09 338.431 1610.17 338.465 1610.23 338.525C1610.29 338.585 1610.33 338.666 1610.33 338.751V515.751C1610.33 516.138 1610.13 516.328 1609.75 516.321L1607.78 516.281C1607.55 516.275 1607.33 516.186 1607.16 516.031L1496.43 413.601C1496.39 413.567 1496.35 413.543 1496.3 413.534C1496.26 413.525 1496.21 413.531 1496.16 413.55C1496.12 413.57 1496.08 413.602 1496.05 413.643C1496.03 413.685 1496.02 413.733 1496.02 413.781V513.231C1496.02 513.564 1495.85 513.731 1495.52 513.731H1459.98C1459.82 513.731 1459.74 513.648 1459.74 513.481V336.231C1459.74 336.077 1459.8 335.93 1459.91 335.821C1460.02 335.712 1460.16 335.651 1460.32 335.651C1461.42 335.671 1462.28 335.451 1463.18 336.281C1500.01 370.268 1536.84 404.244 1573.66 438.211C1573.69 438.243 1573.73 438.264 1573.78 438.272C1573.82 438.28 1573.87 438.275 1573.91 438.257C1573.95 438.238 1573.99 438.208 1574.01 438.17C1574.04 438.131 1574.05 438.087 1574.05 438.041Z" fill="#193C6A"/>
<path d="M1832.63 383.821C1810.14 368.301 1773.95 362.781 1751.19 380.601C1734.16 393.931 1728.33 413.931 1730.95 435.161C1734.38 462.991 1755.38 480.601 1782.97 482.021C1797.63 482.781 1811.7 480.017 1825.18 473.731C1827.51 472.644 1830.94 470.691 1835.48 467.871C1835.91 467.604 1836.13 467.727 1836.13 468.241V504.051C1836.13 504.255 1836.08 504.456 1835.97 504.633C1835.87 504.81 1835.73 504.958 1835.55 505.061C1832.66 506.754 1829.71 508.154 1826.69 509.261C1809.31 515.594 1790.5 517.694 1770.27 515.561C1751.55 513.581 1733.93 506.651 1720.25 494.081C1704.58 479.681 1695.5 461.201 1692.97 440.291C1690.69 421.501 1692.78 401.301 1700.9 384.531C1714.97 355.461 1742.29 338.331 1774.69 336.011C1794.55 334.591 1815.6 336.881 1832.78 347.151C1833.12 347.357 1833.29 347.661 1833.29 348.061L1833.3 383.471C1833.3 384.017 1833.08 384.134 1832.63 383.821Z" fill="#193C6A"/>
<path d="M1892.13 486.971L1880.89 513.161C1880.73 513.541 1880.45 513.731 1880.04 513.731L1842.77 513.721C1842.69 513.721 1842.62 513.702 1842.55 513.666C1842.48 513.63 1842.43 513.578 1842.39 513.514C1842.35 513.45 1842.32 513.377 1842.32 513.301C1842.31 513.225 1842.33 513.15 1842.36 513.081L1922.49 336.741C1922.65 336.376 1922.92 336.066 1923.26 335.85C1923.59 335.633 1923.98 335.518 1924.39 335.52C1924.79 335.521 1925.18 335.637 1925.52 335.856C1925.85 336.074 1926.12 336.385 1926.29 336.751L2006.24 513.291C2006.26 513.336 2006.27 513.386 2006.27 513.437C2006.26 513.487 2006.25 513.536 2006.22 513.579C2006.19 513.621 2006.15 513.657 2006.11 513.682C2006.06 513.707 2006.01 513.72 2005.96 513.721L1967.02 513.731C1966.87 513.73 1966.72 513.686 1966.6 513.602C1966.47 513.518 1966.37 513.399 1966.32 513.261L1955.33 487.111C1955.22 486.838 1955.01 486.701 1954.72 486.701H1892.54C1892.45 486.701 1892.37 486.727 1892.3 486.775C1892.22 486.823 1892.16 486.891 1892.13 486.971ZM1903.62 457.121C1903.6 457.171 1903.59 457.225 1903.59 457.279C1903.6 457.334 1903.62 457.386 1903.65 457.431C1903.67 457.477 1903.72 457.514 1903.76 457.54C1903.81 457.566 1903.86 457.58 1903.92 457.581H1943.76C1943.81 457.58 1943.87 457.566 1943.91 457.54C1943.96 457.514 1944 457.477 1944.03 457.431C1944.06 457.386 1944.08 457.334 1944.08 457.279C1944.09 457.225 1944.08 457.171 1944.06 457.121L1924.14 409.911C1924.11 409.854 1924.07 409.805 1924.02 409.771C1923.96 409.737 1923.9 409.718 1923.84 409.718C1923.78 409.718 1923.71 409.737 1923.66 409.771C1923.61 409.805 1923.56 409.854 1923.54 409.911L1903.62 457.121Z" fill="#193C6A"/>
<path d="M1396.88 338.43L1433.23 338.42C1433.6 338.42 1433.79 338.607 1433.79 338.98V513.21C1433.79 513.61 1433.59 513.803 1433.19 513.79C1428.62 513.637 1423.84 513.64 1418.84 513.8C1413.41 513.967 1409.4 513.507 1406.82 512.42C1400.58 509.81 1396.44 503.86 1396.44 497.09C1396.41 442.163 1396.42 389.413 1396.47 338.84C1396.47 338.567 1396.61 338.43 1396.88 338.43Z" fill="#193C6A"/>
<path d="M974.34 452.101C971.11 468.391 962.85 483.851 949.45 493.261C927.94 508.361 900 513.521 872.98 513.671C857.267 513.751 841.607 513.761 826 513.701C825.833 513.701 825.75 513.621 825.75 513.461V338.781C825.75 338.587 825.85 338.487 826.05 338.481C840.983 338.381 855.967 338.374 871 338.461C887.46 338.541 902.09 339.701 916.99 342.821C923.55 344.201 930.08 346.001 936.26 348.791C946.953 353.611 956.057 361.161 963.57 371.441C969.67 379.791 973.47 390.361 975.16 400.681C977.98 418.001 977.707 435.141 974.34 452.101ZM919.24 378.841C903.01 369.701 883.04 368.831 863.73 368.731C863.257 368.731 863.02 368.967 863.02 369.441V482.511C863.02 482.744 863.137 482.864 863.37 482.871C874.45 483.244 884.923 482.464 894.79 480.531C912.23 477.101 927.7 468.501 934.33 451.171C939.25 438.291 939.73 423.421 937.83 409.821C936.03 396.921 930.64 385.271 919.24 378.841Z" fill="#193C6A"/>
<path d="M1636.15 486.59C1636.09 437.303 1636.08 388.043 1636.13 338.81C1636.13 338.709 1636.17 338.612 1636.24 338.541C1636.32 338.47 1636.42 338.43 1636.52 338.43L1672.98 338.44C1673.35 338.44 1673.53 338.623 1673.53 338.99V513.2C1673.53 513.606 1673.33 513.803 1672.92 513.79C1668.11 513.643 1663.25 513.643 1658.34 513.79C1652.69 513.956 1648.59 513.426 1646.03 512.2C1638.05 508.39 1635.91 501.64 1636.08 493.43C1636.13 491.17 1636.15 488.89 1636.15 486.59Z" fill="#193C6A"/>
<path d="M1751.7 561.71L1758.04 551.43C1758.08 551.361 1758.14 551.308 1758.22 551.28C1758.29 551.253 1758.37 551.253 1758.45 551.28L1762.48 552.74C1762.53 552.757 1762.58 552.787 1762.62 552.826C1762.65 552.865 1762.68 552.912 1762.7 552.964C1762.71 553.016 1762.72 553.07 1762.71 553.124C1762.7 553.177 1762.67 553.227 1762.64 553.27L1756.11 562.08C1756.08 562.123 1756.04 562.158 1755.99 562.182C1755.94 562.206 1755.89 562.219 1755.84 562.22L1751.99 562.23C1751.93 562.23 1751.87 562.214 1751.82 562.184C1751.76 562.153 1751.72 562.109 1751.69 562.056C1751.66 562.002 1751.65 561.942 1751.65 561.882C1751.65 561.821 1751.67 561.762 1751.7 561.71Z" fill="#193C6A"/>
<path d="M2248.8 561.75L2255.2 551.42C2255.24 551.359 2255.3 551.313 2255.36 551.289C2255.43 551.265 2255.5 551.266 2255.57 551.29L2259.65 552.74C2259.7 552.757 2259.74 552.784 2259.77 552.819C2259.8 552.855 2259.83 552.898 2259.84 552.944C2259.86 552.991 2259.86 553.041 2259.85 553.088C2259.84 553.136 2259.82 553.181 2259.79 553.22L2253.28 562.08C2253.25 562.12 2253.22 562.152 2253.17 562.175C2253.13 562.198 2253.08 562.21 2253.03 562.21L2249.07 562.23C2249.01 562.232 2248.96 562.218 2248.91 562.19C2248.86 562.163 2248.82 562.122 2248.79 562.072C2248.76 562.023 2248.75 561.966 2248.75 561.91C2248.75 561.853 2248.77 561.797 2248.8 561.75Z" fill="#193C6A"/>
<path d="M878.272 577.051L874.772 580.791C874.639 580.924 874.505 580.928 874.372 580.801C867.072 573.748 858.912 571.918 849.892 575.311C837.122 580.111 831.772 597.021 840.242 608.351C848.692 619.661 864.212 620.781 874.202 610.581C874.247 610.534 874.301 610.498 874.361 610.473C874.421 610.448 874.486 610.436 874.551 610.437C874.616 610.438 874.681 610.452 874.741 610.478C874.802 610.505 874.856 610.543 874.902 610.591L878.182 614.041C878.335 614.208 878.332 614.368 878.172 614.521C872.198 620.461 865.072 623.278 856.792 622.971C841.742 622.411 829.082 609.851 830.022 594.311C831.522 569.651 861.162 559.731 878.272 576.801C878.352 576.881 878.352 576.964 878.272 577.051Z" fill="#193C6A"/>
<path d="M1140.28 595.571C1140.29 599.174 1139.56 602.744 1138.16 606.075C1136.75 609.407 1134.68 612.435 1132.07 614.988C1129.46 617.541 1126.36 619.567 1122.95 620.952C1119.53 622.337 1115.88 623.053 1112.18 623.06C1108.48 623.066 1104.82 622.363 1101.4 620.99C1097.98 619.617 1094.88 617.601 1092.26 615.057C1089.64 612.514 1087.56 609.493 1086.14 606.166C1084.72 602.839 1083.99 599.272 1083.98 595.669C1083.97 592.065 1084.7 588.496 1086.11 585.164C1087.51 581.833 1089.58 578.804 1092.19 576.251C1094.8 573.699 1097.9 571.672 1101.31 570.287C1104.73 568.902 1108.39 568.186 1112.08 568.18C1115.78 568.173 1119.44 568.877 1122.86 570.25C1126.28 571.623 1129.38 573.639 1132 576.182C1134.62 578.725 1136.7 581.747 1138.12 585.074C1139.54 588.4 1140.27 591.967 1140.28 595.571ZM1134.08 595.63C1134.08 589.811 1131.77 584.23 1127.65 580.116C1123.54 576.001 1117.96 573.69 1112.14 573.69C1106.32 573.69 1100.74 576.001 1096.63 580.116C1092.51 584.23 1090.2 589.811 1090.2 595.63C1090.2 601.449 1092.51 607.029 1096.63 611.144C1100.74 615.258 1106.32 617.57 1112.14 617.57C1117.96 617.57 1123.54 615.258 1127.65 611.144C1131.77 607.029 1134.08 601.449 1134.08 595.63Z" fill="#193C6A"/>
<path d="M1503.97 595.619C1503.97 599.222 1503.24 602.788 1501.82 606.116C1500.41 609.444 1498.34 612.468 1495.72 615.015C1493.11 617.562 1490 619.583 1486.58 620.961C1483.17 622.34 1479.51 623.049 1475.81 623.049C1468.34 623.049 1461.18 620.16 1455.9 615.015C1450.62 609.871 1447.65 602.894 1447.65 595.619C1447.65 588.345 1450.62 581.368 1455.9 576.224C1461.18 571.079 1468.34 568.189 1475.81 568.189C1479.51 568.189 1483.17 568.899 1486.58 570.277C1490 571.656 1493.11 573.676 1495.72 576.224C1498.34 578.771 1500.41 581.794 1501.82 585.122C1503.24 588.45 1503.97 592.017 1503.97 595.619ZM1497.75 595.629C1497.75 589.811 1495.44 584.23 1491.32 580.116C1487.21 576.001 1481.63 573.689 1475.81 573.689C1469.99 573.689 1464.41 576.001 1460.29 580.116C1456.18 584.23 1453.87 589.811 1453.87 595.629C1453.87 601.448 1456.18 607.029 1460.29 611.143C1464.41 615.258 1469.99 617.569 1475.81 617.569C1481.63 617.569 1487.21 615.258 1491.32 611.143C1495.44 607.029 1497.75 601.448 1497.75 595.629Z" fill="#193C6A"/>
<path d="M1694.57 610.59C1694.71 610.464 1694.85 610.46 1695 610.58C1696.65 611.967 1697.81 613.22 1698.49 614.34C1698.52 614.387 1698.51 614.427 1698.47 614.46C1687.6 625.17 1671.41 625.95 1659.84 616.31C1651.04 608.98 1647.86 596.54 1652 585.96C1659.39 567.12 1684.05 562.08 1698.29 576.63C1698.5 576.837 1698.5 577.047 1698.3 577.26L1695.16 580.62C1695.11 580.674 1695.05 580.717 1694.98 580.746C1694.91 580.776 1694.84 580.792 1694.77 580.792C1694.69 580.793 1694.62 580.78 1694.55 580.752C1694.48 580.724 1694.42 580.682 1694.37 580.63C1690.2 576.377 1685.35 574.087 1679.82 573.76C1660.07 572.6 1648.79 595.85 1662.17 610.48C1664.14 612.633 1666.27 614.227 1668.54 615.26C1677.97 619.534 1686.64 617.977 1694.57 610.59Z" fill="#193C6A"/>
<path d="M1782.94 595.62C1782.94 602.897 1779.97 609.877 1774.7 615.023C1769.42 620.169 1762.26 623.06 1754.79 623.06C1747.32 623.06 1740.16 620.169 1734.89 615.023C1729.61 609.877 1726.64 602.897 1726.64 595.62C1726.64 588.342 1729.61 581.363 1734.89 576.217C1740.16 571.071 1747.32 568.18 1754.79 568.18C1762.26 568.18 1769.42 571.071 1774.7 576.217C1779.97 581.363 1782.94 588.342 1782.94 595.62ZM1776.74 595.63C1776.74 589.811 1774.43 584.23 1770.31 580.116C1766.2 576.001 1760.62 573.69 1754.8 573.69C1748.98 573.69 1743.4 576.001 1739.29 580.116C1735.17 584.23 1732.86 589.811 1732.86 595.63C1732.86 601.449 1735.17 607.029 1739.29 611.144C1743.4 615.258 1748.98 617.57 1754.8 617.57C1760.62 617.57 1766.2 615.258 1770.31 611.144C1774.43 607.029 1776.74 601.449 1776.74 595.63Z" fill="#193C6A"/>
<path d="M2191.72 578.59C2186.91 576.09 2182.15 574.537 2177.45 573.93C2171.11 573.12 2162.74 574.58 2161.71 582.2C2160.87 588.44 2167.1 590.9 2172.12 591.52C2181.32 592.66 2194.57 594.57 2195.09 606.45C2195.5 616.02 2188.75 621.23 2180.01 622.54C2170.42 623.987 2161.63 622.467 2153.64 617.98C2153.52 617.913 2153.49 617.817 2153.54 617.69L2155.69 612.69C2155.7 612.659 2155.72 612.632 2155.75 612.609C2155.77 612.586 2155.8 612.569 2155.84 612.559C2155.87 612.549 2155.9 612.545 2155.94 612.549C2155.97 612.552 2156 612.563 2156.03 612.58C2163.22 616.54 2170.49 618.13 2177.82 617.35C2183.95 616.69 2189.75 613.14 2188.67 606.09C2187.51 598.43 2175.87 597.17 2169.38 596.27C2162.59 595.33 2155.35 591.77 2155.41 583.72C2155.47 574 2162.64 569.04 2171.65 568.33C2179.05 567.757 2186.4 569.44 2193.71 573.38C2193.87 573.473 2193.92 573.603 2193.85 573.77L2192.15 578.42C2192.07 578.647 2191.93 578.703 2191.72 578.59Z" fill="#193C6A"/>
<path d="M2280.09 595.423C2280.14 602.701 2277.22 609.7 2271.98 614.883C2266.74 620.066 2259.6 623.007 2252.13 623.059C2248.43 623.085 2244.77 622.401 2241.34 621.046C2237.92 619.69 2234.8 617.691 2232.17 615.161C2229.54 612.631 2227.44 609.621 2226.01 606.302C2224.57 602.983 2223.81 599.42 2223.79 595.816C2223.74 588.539 2226.66 581.539 2231.9 576.356C2237.14 571.173 2244.28 568.233 2251.75 568.18C2255.44 568.155 2259.11 568.839 2262.53 570.194C2265.96 571.549 2269.08 573.548 2271.71 576.078C2274.34 578.608 2276.43 581.618 2277.87 584.938C2279.31 588.257 2280.06 591.82 2280.09 595.423ZM2273.88 595.63C2273.88 589.811 2271.57 584.23 2267.45 580.116C2263.34 576.001 2257.76 573.69 2251.94 573.69C2246.12 573.69 2240.54 576.001 2236.42 580.116C2232.31 584.23 2230 589.811 2230 595.63C2230 601.449 2232.31 607.029 2236.42 611.144C2240.54 615.258 2246.12 617.57 2251.94 617.57C2257.76 617.57 2263.34 615.258 2267.45 611.144C2271.57 607.029 2273.88 601.449 2273.88 595.63Z" fill="#193C6A"/>
<path d="M895.478 598.999L895.468 616.189C895.468 616.277 895.503 616.361 895.565 616.423C895.627 616.485 895.711 616.519 895.798 616.519H923.928C924.016 616.519 924.1 616.554 924.162 616.616C924.224 616.678 924.258 616.762 924.258 616.849L924.268 621.749C924.268 621.837 924.234 621.921 924.172 621.983C924.11 622.045 924.026 622.079 923.938 622.079H889.568C889.481 622.079 889.397 622.045 889.335 621.983C889.273 621.921 889.238 621.837 889.238 621.749V569.779C889.238 569.692 889.273 569.608 889.335 569.546C889.397 569.484 889.481 569.449 889.568 569.449L923.678 569.439C923.766 569.439 923.85 569.474 923.912 569.536C923.974 569.598 924.008 569.682 924.008 569.769L923.978 574.679C923.978 574.723 923.97 574.766 923.953 574.806C923.937 574.846 923.912 574.882 923.882 574.913C923.851 574.943 923.815 574.968 923.775 574.984C923.735 575.001 923.692 575.009 923.648 575.009L895.808 574.979C895.721 574.979 895.637 575.014 895.575 575.076C895.513 575.138 895.478 575.222 895.478 575.309L895.468 592.919C895.468 593.007 895.503 593.091 895.565 593.153C895.627 593.215 895.711 593.249 895.798 593.249H919.918C920.006 593.249 920.09 593.284 920.152 593.346C920.213 593.408 920.248 593.492 920.248 593.579V598.329C920.248 598.417 920.213 598.501 920.152 598.563C920.09 598.625 920.006 598.659 919.918 598.659L895.808 598.669C895.765 598.669 895.722 598.678 895.682 598.695C895.642 598.711 895.606 598.735 895.575 598.766C895.544 598.797 895.52 598.833 895.503 598.873C895.487 598.913 895.478 598.956 895.478 598.999Z" fill="#193C6A"/>
<path d="M1876.01 599.019L1875.99 616.169C1875.99 616.262 1876.03 616.351 1876.09 616.417C1876.16 616.483 1876.25 616.519 1876.34 616.519L1904.47 616.529C1904.56 616.529 1904.65 616.566 1904.72 616.632C1904.78 616.698 1904.82 616.787 1904.82 616.879L1904.84 621.719C1904.84 621.812 1904.8 621.901 1904.74 621.967C1904.67 622.033 1904.58 622.069 1904.49 622.069H1870.1C1870.01 622.069 1869.92 622.033 1869.85 621.967C1869.79 621.901 1869.75 621.812 1869.75 621.719L1869.74 569.799C1869.74 569.707 1869.78 569.618 1869.84 569.552C1869.91 569.486 1870 569.449 1870.09 569.449L1904.18 569.439C1904.27 569.439 1904.36 569.476 1904.43 569.542C1904.49 569.608 1904.53 569.697 1904.53 569.789L1904.51 574.659C1904.51 574.752 1904.47 574.841 1904.41 574.907C1904.34 574.973 1904.25 575.009 1904.16 575.009L1876.33 574.969C1876.24 574.969 1876.15 575.006 1876.08 575.072C1876.02 575.138 1875.98 575.227 1875.98 575.319L1876.01 592.899C1876.01 592.992 1876.05 593.081 1876.11 593.147C1876.18 593.213 1876.27 593.249 1876.36 593.249L1900.46 593.259C1900.55 593.259 1900.64 593.296 1900.71 593.362C1900.77 593.428 1900.81 593.517 1900.81 593.609L1900.85 598.309C1900.85 598.402 1900.81 598.491 1900.75 598.557C1900.68 598.623 1900.59 598.659 1900.5 598.659L1876.36 598.669C1876.27 598.669 1876.18 598.706 1876.11 598.772C1876.05 598.838 1876.01 598.927 1876.01 599.019Z" fill="#193C6A"/>
<path d="M2069.8 593.249H2093.92C2094.01 593.249 2094.09 593.284 2094.15 593.346C2094.21 593.408 2094.25 593.492 2094.25 593.579L2094.26 598.329C2094.26 598.417 2094.22 598.501 2094.16 598.563C2094.1 598.625 2094.02 598.659 2093.93 598.659L2069.8 598.669C2069.76 598.669 2069.71 598.678 2069.67 598.695C2069.63 598.711 2069.6 598.735 2069.56 598.766C2069.53 598.797 2069.51 598.833 2069.49 598.873C2069.48 598.913 2069.47 598.956 2069.47 598.999V616.189C2069.47 616.233 2069.48 616.276 2069.49 616.316C2069.51 616.356 2069.53 616.392 2069.56 616.423C2069.6 616.453 2069.63 616.478 2069.67 616.494C2069.71 616.511 2069.76 616.519 2069.8 616.519H2097.93C2098.02 616.519 2098.1 616.554 2098.16 616.616C2098.22 616.678 2098.26 616.762 2098.26 616.849V621.749C2098.26 621.837 2098.22 621.921 2098.16 621.983C2098.1 622.045 2098.02 622.079 2097.93 622.079H2063.57C2063.53 622.079 2063.48 622.071 2063.44 622.054C2063.4 622.038 2063.37 622.013 2063.33 621.983C2063.3 621.952 2063.28 621.916 2063.26 621.876C2063.25 621.836 2063.24 621.793 2063.24 621.749V569.779C2063.24 569.736 2063.25 569.693 2063.26 569.653C2063.28 569.613 2063.3 569.577 2063.33 569.546C2063.37 569.515 2063.4 569.491 2063.44 569.475C2063.48 569.458 2063.53 569.449 2063.57 569.449L2097.68 569.439C2097.77 569.439 2097.85 569.474 2097.91 569.536C2097.97 569.598 2098.01 569.682 2098.01 569.769L2097.97 574.679C2097.97 574.723 2097.96 574.766 2097.94 574.806C2097.93 574.846 2097.9 574.882 2097.87 574.913C2097.84 574.943 2097.8 574.968 2097.76 574.984C2097.72 575.001 2097.68 575.009 2097.64 575.009L2069.8 574.979C2069.76 574.979 2069.71 574.988 2069.67 575.005C2069.63 575.021 2069.6 575.045 2069.56 575.076C2069.53 575.107 2069.51 575.143 2069.49 575.183C2069.48 575.223 2069.47 575.266 2069.47 575.309V592.919C2069.47 592.963 2069.48 593.006 2069.49 593.046C2069.51 593.086 2069.53 593.122 2069.56 593.153C2069.6 593.183 2069.63 593.208 2069.67 593.224C2069.71 593.241 2069.76 593.249 2069.8 593.249Z" fill="#193C6A"/>
<path d="M940.502 581.019V621.779C940.502 621.862 940.469 621.941 940.411 621.999C940.353 622.057 940.274 622.089 940.192 622.089L934.572 622.079C934.531 622.079 934.491 622.071 934.453 622.056C934.415 622.04 934.381 622.017 934.352 621.989C934.324 621.96 934.301 621.926 934.285 621.888C934.27 621.85 934.262 621.81 934.262 621.769V569.759C934.262 569.677 934.294 569.598 934.352 569.54C934.411 569.482 934.489 569.449 934.572 569.449H939.372C939.418 569.45 939.464 569.461 939.505 569.482C939.547 569.503 939.583 569.533 939.612 569.569L972.232 610.459C972.272 610.509 972.328 610.545 972.39 610.562C972.452 610.579 972.517 610.577 972.578 610.555C972.638 610.533 972.69 610.492 972.727 610.44C972.763 610.387 972.783 610.324 972.782 610.259L972.772 569.749C972.772 569.709 972.78 569.668 972.795 569.631C972.811 569.593 972.834 569.559 972.862 569.53C972.891 569.501 972.925 569.479 972.963 569.463C973.001 569.447 973.041 569.439 973.082 569.439L978.732 569.459C978.814 569.459 978.893 569.492 978.951 569.55C979.009 569.608 979.042 569.687 979.042 569.769L979.022 621.739C979.022 621.822 978.989 621.901 978.931 621.959C978.873 622.017 978.794 622.049 978.712 622.049L973.962 622.089C973.915 622.089 973.87 622.078 973.828 622.057C973.787 622.036 973.75 622.006 973.722 621.969L941.052 580.829C941.012 580.78 940.957 580.745 940.896 580.727C940.835 580.71 940.77 580.712 940.71 580.733C940.65 580.753 940.598 580.792 940.561 580.843C940.524 580.894 940.503 580.956 940.502 581.019Z" fill="#193C6A"/>
<path d="M1011.18 575.149V621.709C1011.18 621.805 1011.14 621.896 1011.08 621.964C1011.01 622.031 1010.92 622.069 1010.82 622.069L1005.33 622.099C1005.28 622.099 1005.24 622.09 1005.19 622.072C1005.15 622.054 1005.11 622.027 1005.08 621.994C1005.04 621.96 1005.02 621.921 1005 621.877C1004.98 621.833 1004.97 621.786 1004.97 621.739L1004.96 575.149C1004.96 575.054 1004.92 574.962 1004.86 574.895C1004.79 574.827 1004.7 574.789 1004.6 574.789L988.282 574.779C988.186 574.779 988.095 574.741 988.027 574.674C987.96 574.606 987.922 574.515 987.922 574.419L987.972 569.809C987.972 569.714 988.01 569.622 988.077 569.555C988.145 569.487 988.236 569.449 988.332 569.449H1027.76C1027.86 569.449 1027.95 569.487 1028.02 569.555C1028.08 569.622 1028.12 569.714 1028.12 569.809L1028.14 574.419C1028.14 574.515 1028.1 574.606 1028.04 574.674C1027.97 574.741 1027.88 574.779 1027.78 574.779L1011.54 574.789C1011.45 574.789 1011.35 574.827 1011.29 574.895C1011.22 574.962 1011.18 575.054 1011.18 575.149Z" fill="#193C6A"/>
<path d="M1065.54 602.009L1077.76 621.899C1077.77 621.914 1077.77 621.931 1077.77 621.948C1077.77 621.965 1077.77 621.981 1077.76 621.996C1077.75 622.012 1077.74 622.024 1077.73 622.033C1077.71 622.043 1077.7 622.048 1077.68 622.049L1070.99 622.089C1070.75 622.089 1070.57 621.986 1070.45 621.779L1058.91 602.529C1058.75 602.269 1058.52 602.139 1058.22 602.139L1043.95 602.129C1043.51 602.129 1043.29 602.349 1043.29 602.789V621.779C1043.29 621.82 1043.28 621.86 1043.27 621.898C1043.25 621.935 1043.23 621.97 1043.2 621.998C1043.17 622.027 1043.14 622.05 1043.1 622.066C1043.06 622.081 1043.02 622.089 1042.98 622.089L1037.33 622.099C1037.26 622.099 1037.2 622.073 1037.15 622.026C1037.1 621.979 1037.07 621.916 1037.07 621.849V569.999C1037.07 569.599 1037.27 569.403 1037.67 569.409C1044.62 569.503 1051.41 569.496 1058.04 569.389C1067.2 569.229 1074.95 573.339 1076.4 583.009C1077.61 591.099 1073.81 598.679 1065.85 601.179C1065.39 601.319 1065.29 601.596 1065.54 602.009ZM1043.24 575.369V596.109C1043.24 596.195 1043.26 596.279 1043.29 596.358C1043.32 596.437 1043.37 596.509 1043.43 596.569C1043.49 596.629 1043.56 596.677 1043.64 596.71C1043.72 596.742 1043.81 596.759 1043.89 596.759H1059.17C1062.17 596.759 1065.05 595.616 1067.17 593.581C1069.29 591.547 1070.48 588.787 1070.48 585.909V585.569C1070.48 582.692 1069.29 579.932 1067.17 577.897C1065.05 575.862 1062.17 574.719 1059.17 574.719H1043.89C1043.81 574.719 1043.72 574.736 1043.64 574.769C1043.56 574.801 1043.49 574.849 1043.43 574.91C1043.37 574.97 1043.32 575.042 1043.29 575.121C1043.26 575.199 1043.24 575.284 1043.24 575.369Z" fill="#193C6A"/>
<path d="M1168.68 569.77C1168.68 569.69 1168.71 569.614 1168.77 569.558C1168.82 569.501 1168.9 569.47 1168.98 569.47L1190.08 569.43C1193.4 569.423 1196.7 570.053 1199.77 571.284C1202.84 572.515 1205.63 574.322 1207.99 576.603C1210.34 578.883 1212.21 581.593 1213.49 584.576C1214.76 587.56 1215.42 590.758 1215.43 593.99V597.41C1215.44 603.932 1212.79 610.192 1208.05 614.812C1203.32 619.433 1196.89 622.036 1190.18 622.05L1169.08 622.09C1169 622.09 1168.92 622.058 1168.87 622.002C1168.81 621.946 1168.78 621.869 1168.78 621.79L1168.68 569.77ZM1174.98 575.12V616.22C1174.98 616.302 1175.01 616.381 1175.07 616.439C1175.13 616.497 1175.21 616.53 1175.29 616.53H1189.52C1192.1 616.53 1194.66 616.026 1197.04 615.048C1199.43 614.07 1201.6 612.637 1203.42 610.83C1205.25 609.023 1206.7 606.878 1207.68 604.517C1208.67 602.156 1209.18 599.625 1209.18 597.07V594.27C1209.18 591.714 1208.67 589.184 1207.68 586.823C1206.7 584.462 1205.25 582.316 1203.42 580.509C1201.6 578.702 1199.43 577.269 1197.04 576.291C1194.66 575.313 1192.1 574.81 1189.52 574.81H1175.29C1175.21 574.81 1175.13 574.842 1175.07 574.901C1175.01 574.959 1174.98 575.038 1174.98 575.12Z" fill="#193C6A"/>
<path d="M1232.94 593.249H1257.05C1257.1 593.249 1257.15 593.259 1257.19 593.277C1257.23 593.295 1257.27 593.321 1257.31 593.355C1257.34 593.388 1257.37 593.428 1257.38 593.471C1257.4 593.515 1257.41 593.562 1257.41 593.609L1257.43 598.309C1257.43 598.356 1257.42 598.403 1257.4 598.447C1257.39 598.491 1257.36 598.53 1257.33 598.564C1257.29 598.597 1257.25 598.624 1257.21 598.642C1257.17 598.66 1257.12 598.669 1257.07 598.669H1232.95C1232.86 598.669 1232.76 598.707 1232.7 598.775C1232.63 598.842 1232.59 598.934 1232.59 599.029L1232.58 616.159C1232.58 616.206 1232.59 616.253 1232.61 616.297C1232.63 616.341 1232.65 616.38 1232.69 616.414C1232.72 616.447 1232.76 616.474 1232.8 616.492C1232.85 616.51 1232.89 616.519 1232.94 616.519H1261.08C1261.13 616.519 1261.18 616.529 1261.22 616.547C1261.26 616.565 1261.3 616.591 1261.34 616.625C1261.37 616.658 1261.4 616.698 1261.41 616.741C1261.43 616.785 1261.44 616.832 1261.44 616.879L1261.45 621.719C1261.45 621.815 1261.41 621.906 1261.35 621.974C1261.28 622.041 1261.19 622.079 1261.09 622.079H1226.74C1226.65 622.079 1226.55 622.041 1226.49 621.974C1226.42 621.906 1226.38 621.815 1226.38 621.719L1226.37 569.809C1226.37 569.762 1226.38 569.715 1226.4 569.671C1226.42 569.628 1226.44 569.588 1226.48 569.555C1226.51 569.521 1226.55 569.495 1226.59 569.477C1226.64 569.459 1226.68 569.449 1226.73 569.449H1260.8C1260.9 569.449 1260.99 569.487 1261.06 569.555C1261.12 569.622 1261.16 569.714 1261.16 569.809L1261.14 574.649C1261.14 574.697 1261.13 574.743 1261.11 574.787C1261.1 574.831 1261.07 574.87 1261.04 574.904C1261 574.937 1260.96 574.964 1260.92 574.982C1260.88 575 1260.83 575.009 1260.78 575.009L1232.95 574.979C1232.86 574.979 1232.76 575.017 1232.7 575.085C1232.63 575.152 1232.59 575.244 1232.59 575.339L1232.58 592.889C1232.58 592.936 1232.59 592.983 1232.61 593.027C1232.63 593.071 1232.65 593.11 1232.69 593.144C1232.72 593.177 1232.76 593.204 1232.8 593.222C1232.85 593.24 1232.89 593.249 1232.94 593.249Z" fill="#193C6A"/>
<path d="M1313.05 593.249H1337.16C1337.25 593.249 1337.34 593.285 1337.4 593.349C1337.46 593.413 1337.5 593.499 1337.5 593.589V598.329C1337.5 598.419 1337.46 598.506 1337.4 598.57C1337.34 598.633 1337.25 598.669 1337.16 598.669H1313.07C1312.98 598.669 1312.89 598.705 1312.83 598.769C1312.77 598.833 1312.73 598.919 1312.73 599.009L1312.71 616.179C1312.71 616.269 1312.75 616.356 1312.81 616.42C1312.87 616.483 1312.96 616.519 1313.05 616.519H1341.16C1341.25 616.519 1341.34 616.555 1341.4 616.619C1341.46 616.683 1341.5 616.769 1341.5 616.859L1341.52 621.739C1341.52 621.829 1341.48 621.916 1341.42 621.98C1341.36 622.043 1341.27 622.079 1341.18 622.079L1306.83 622.069C1306.74 622.069 1306.65 622.033 1306.59 621.97C1306.53 621.906 1306.49 621.819 1306.49 621.729L1306.48 569.799C1306.48 569.709 1306.52 569.623 1306.58 569.559C1306.64 569.495 1306.73 569.459 1306.82 569.459L1340.93 569.449C1341.02 569.449 1341.11 569.485 1341.17 569.549C1341.23 569.613 1341.27 569.699 1341.27 569.789L1341.26 574.679C1341.26 574.769 1341.22 574.856 1341.16 574.92C1341.1 574.983 1341.01 575.019 1340.92 575.019L1313.05 574.959C1312.96 574.959 1312.87 574.995 1312.81 575.059C1312.75 575.123 1312.71 575.209 1312.71 575.299V592.909C1312.71 592.999 1312.75 593.086 1312.81 593.15C1312.87 593.213 1312.96 593.249 1313.05 593.249Z" fill="#193C6A"/>
<path d="M1370.42 590.111L1385.44 569.601C1385.47 569.558 1385.51 569.522 1385.56 569.498C1385.61 569.474 1385.66 569.461 1385.71 569.461L1392.35 569.551C1392.41 569.551 1392.47 569.569 1392.52 569.602C1392.58 569.634 1392.62 569.681 1392.64 569.736C1392.67 569.791 1392.68 569.852 1392.68 569.913C1392.67 569.974 1392.65 570.032 1392.61 570.081L1374.21 594.491C1374.17 594.548 1374.14 594.619 1374.14 594.691C1374.14 594.763 1374.17 594.833 1374.21 594.891L1393.93 621.511C1393.97 621.56 1393.99 621.618 1394 621.679C1394 621.74 1393.99 621.801 1393.96 621.856C1393.94 621.911 1393.9 621.958 1393.84 621.99C1393.79 622.023 1393.73 622.04 1393.67 622.041L1387.06 622.101C1387.01 622.101 1386.96 622.088 1386.91 622.064C1386.86 622.04 1386.82 622.004 1386.79 621.961L1370.42 599.381C1370.39 599.338 1370.35 599.302 1370.3 599.278C1370.26 599.253 1370.2 599.241 1370.15 599.241C1370.1 599.241 1370.05 599.253 1370 599.278C1369.95 599.302 1369.91 599.338 1369.88 599.381L1353.52 621.941C1353.49 621.984 1353.45 622.02 1353.4 622.044C1353.36 622.068 1353.3 622.081 1353.25 622.081L1346.62 622.041C1346.56 622.039 1346.5 622.021 1346.45 621.989C1346.4 621.957 1346.36 621.912 1346.34 621.859C1346.31 621.805 1346.3 621.746 1346.3 621.686C1346.31 621.627 1346.33 621.57 1346.36 621.521L1366.07 594.911C1366.11 594.853 1366.14 594.783 1366.14 594.711C1366.14 594.639 1366.11 594.568 1366.07 594.511L1347.74 570.071C1347.71 570.022 1347.69 569.965 1347.68 569.906C1347.68 569.846 1347.69 569.787 1347.72 569.733C1347.74 569.68 1347.78 569.635 1347.83 569.603C1347.88 569.571 1347.94 569.553 1348 569.551L1354.64 569.501C1354.69 569.501 1354.75 569.514 1354.79 569.538C1354.84 569.562 1354.88 569.598 1354.91 569.641L1369.88 590.111C1369.91 590.154 1369.95 590.19 1370 590.214C1370.05 590.238 1370.1 590.251 1370.15 590.251C1370.2 590.251 1370.26 590.238 1370.3 590.214C1370.35 590.19 1370.39 590.154 1370.42 590.111Z" fill="#193C6A"/>
<path d="M1408.87 604.04L1408.89 621.69C1408.89 621.943 1408.77 622.07 1408.51 622.07L1403.13 622.09C1402.83 622.097 1402.67 621.943 1402.67 621.63V569.8C1402.67 569.54 1402.8 569.413 1403.06 569.42C1409.44 569.507 1416.02 569.493 1422.82 569.38C1426.18 569.32 1429.04 569.797 1431.4 570.81C1445.7 576.94 1444.42 598.51 1429.54 602.75C1427.13 603.437 1423.82 603.703 1419.62 603.55C1416.2 603.43 1412.78 603.427 1409.36 603.54C1409.04 603.547 1408.87 603.713 1408.87 604.04ZM1408.7 575.58L1408.82 597.24C1408.82 597.464 1408.92 597.677 1409.07 597.835C1409.23 597.992 1409.45 598.08 1409.67 598.08L1423.72 598.01C1425.24 598.002 1426.74 597.696 1428.14 597.109C1429.54 596.521 1430.81 595.665 1431.88 594.588C1432.95 593.51 1433.79 592.234 1434.36 590.831C1434.94 589.428 1435.23 587.925 1435.22 586.41V586.13C1435.21 584.615 1434.91 583.115 1434.32 581.718C1433.73 580.321 1432.87 579.054 1431.79 577.988C1430.71 576.921 1429.44 576.078 1428.03 575.505C1426.62 574.933 1425.12 574.642 1423.6 574.65L1409.55 574.72C1409.44 574.72 1409.33 574.742 1409.22 574.786C1409.12 574.829 1409.03 574.893 1408.95 574.972C1408.87 575.052 1408.81 575.147 1408.76 575.252C1408.72 575.356 1408.7 575.468 1408.7 575.58Z" fill="#193C6A"/>
<path d="M1543.45 601.271C1543.4 601.287 1543.35 601.315 1543.31 601.353C1543.27 601.39 1543.24 601.436 1543.22 601.487C1543.2 601.538 1543.19 601.593 1543.2 601.647C1543.2 601.702 1543.22 601.754 1543.25 601.801L1555.6 621.901C1555.61 621.909 1555.61 621.919 1555.61 621.929C1555.61 621.94 1555.61 621.951 1555.61 621.961C1555.6 621.971 1555.59 621.98 1555.58 621.987C1555.57 621.994 1555.56 621.999 1555.55 622.001C1554.64 622.088 1552.35 622.104 1548.68 622.051C1548.62 622.051 1548.55 622.035 1548.5 622.003C1548.44 621.972 1548.39 621.926 1548.36 621.871L1536.65 602.391C1536.6 602.312 1536.53 602.246 1536.45 602.201C1536.37 602.155 1536.27 602.131 1536.18 602.131H1521.75C1521.33 602.131 1521.12 602.341 1521.12 602.761L1521.13 621.721C1521.13 621.767 1521.12 621.812 1521.1 621.855C1521.09 621.897 1521.06 621.936 1521.03 621.968C1521 622.001 1520.96 622.027 1520.91 622.044C1520.87 622.062 1520.83 622.071 1520.78 622.071L1515.25 622.101C1515.16 622.101 1515.08 622.066 1515.02 622.004C1514.95 621.942 1514.92 621.858 1514.92 621.771L1514.91 569.841C1514.91 569.784 1514.92 569.727 1514.94 569.674C1514.97 569.621 1515 569.573 1515.04 569.533C1515.08 569.493 1515.13 569.462 1515.18 569.441C1515.24 569.42 1515.29 569.41 1515.35 569.411C1522.32 569.504 1529.21 569.498 1536.02 569.391C1541.7 569.301 1546.83 570.631 1550.56 574.841C1558.16 583.421 1554.59 597.901 1543.45 601.271ZM1521.11 575.281L1521.07 596.201C1521.07 596.344 1521.13 596.482 1521.23 596.583C1521.33 596.684 1521.47 596.741 1521.61 596.741L1537.18 596.761C1538.63 596.764 1540.07 596.491 1541.42 595.958C1542.76 595.425 1543.98 594.643 1545.01 593.656C1546.04 592.669 1546.86 591.496 1547.42 590.205C1547.98 588.914 1548.27 587.53 1548.27 586.131V585.431C1548.28 582.606 1547.11 579.896 1545.04 577.895C1542.97 575.894 1540.16 574.766 1537.22 574.761L1521.65 574.741C1521.51 574.741 1521.37 574.798 1521.27 574.899C1521.17 575 1521.11 575.138 1521.11 575.281Z" fill="#193C6A"/>
<path d="M1583.22 575.139L1583.21 621.739C1583.21 621.785 1583.2 621.831 1583.18 621.873C1583.17 621.916 1583.14 621.954 1583.11 621.987C1583.08 622.019 1583.04 622.045 1582.99 622.063C1582.95 622.08 1582.91 622.089 1582.86 622.089L1577.33 622.099C1577.24 622.099 1577.15 622.062 1577.08 621.997C1577.02 621.931 1576.98 621.842 1576.98 621.749V575.139C1576.98 575.046 1576.94 574.957 1576.88 574.892C1576.81 574.826 1576.72 574.789 1576.63 574.789L1560.33 574.779C1560.24 574.779 1560.15 574.742 1560.08 574.677C1560.02 574.611 1559.98 574.522 1559.98 574.429L1560.01 569.799C1560.01 569.706 1560.05 569.617 1560.11 569.552C1560.18 569.486 1560.27 569.449 1560.36 569.449H1599.82C1599.91 569.449 1600 569.486 1600.07 569.552C1600.13 569.617 1600.17 569.706 1600.17 569.799V574.429C1600.17 574.522 1600.13 574.611 1600.07 574.677C1600 574.742 1599.91 574.779 1599.82 574.779L1583.57 574.789C1583.48 574.789 1583.39 574.826 1583.32 574.892C1583.26 574.957 1583.22 575.046 1583.22 575.139Z" fill="#193C6A"/>
<path d="M1634.95 609.749H1608.31C1608.25 609.751 1608.19 609.769 1608.14 609.803C1608.09 609.837 1608.05 609.884 1608.03 609.939L1602.92 621.9C1602.89 621.956 1602.85 622.005 1602.8 622.039C1602.75 622.073 1602.69 622.09 1602.63 622.09L1596.71 622.079C1596.66 622.08 1596.61 622.068 1596.56 622.044C1596.52 622.02 1596.48 621.986 1596.45 621.943C1596.42 621.9 1596.4 621.851 1596.4 621.8C1596.39 621.749 1596.4 621.697 1596.42 621.65L1618.54 569.629C1618.56 569.573 1618.6 569.524 1618.65 569.49C1618.71 569.456 1618.77 569.439 1618.83 569.439L1624.49 569.46C1624.55 569.461 1624.61 569.479 1624.66 569.513C1624.71 569.547 1624.75 569.594 1624.77 569.65L1646.82 621.639C1646.84 621.687 1646.85 621.739 1646.84 621.79C1646.84 621.841 1646.82 621.89 1646.79 621.933C1646.76 621.975 1646.72 622.01 1646.68 622.034C1646.63 622.058 1646.58 622.07 1646.53 622.069L1640.55 622.049C1640.49 622.048 1640.43 622.03 1640.38 621.996C1640.33 621.962 1640.29 621.915 1640.27 621.859L1635.24 609.939C1635.21 609.883 1635.17 609.834 1635.12 609.8C1635.07 609.766 1635.01 609.749 1634.95 609.749ZM1610.58 603.889C1610.56 603.938 1610.55 603.991 1610.55 604.044C1610.56 604.097 1610.57 604.148 1610.6 604.193C1610.63 604.237 1610.67 604.274 1610.72 604.3C1610.76 604.325 1610.82 604.339 1610.87 604.34H1632.37C1632.42 604.339 1632.47 604.325 1632.52 604.3C1632.57 604.274 1632.61 604.237 1632.64 604.193C1632.66 604.148 1632.68 604.097 1632.69 604.044C1632.69 603.991 1632.68 603.938 1632.66 603.889L1621.91 578.579C1621.88 578.524 1621.84 578.478 1621.79 578.445C1621.74 578.412 1621.68 578.395 1621.62 578.395C1621.56 578.395 1621.5 578.412 1621.45 578.445C1621.4 578.478 1621.35 578.524 1621.33 578.579L1610.58 603.889Z" fill="#193C6A"/>
<path d="M1715.3 569.461H1709.94C1709.74 569.461 1709.57 569.627 1709.57 569.831V621.711C1709.57 621.915 1709.74 622.081 1709.94 622.081H1715.3C1715.5 622.081 1715.67 621.915 1715.67 621.711V569.831C1715.67 569.627 1715.5 569.461 1715.3 569.461Z" fill="#193C6A"/>
<path d="M1832.36 610.15L1832.37 569.82C1832.37 569.732 1832.4 569.648 1832.47 569.586C1832.53 569.524 1832.61 569.49 1832.7 569.49L1838.22 569.43C1838.31 569.43 1838.39 569.464 1838.45 569.526C1838.51 569.588 1838.55 569.672 1838.55 569.76L1838.56 621.77C1838.56 621.857 1838.52 621.941 1838.46 622.003C1838.4 622.065 1838.32 622.1 1838.23 622.1L1833.51 622.08C1833.46 622.081 1833.41 622.07 1833.37 622.049C1833.32 622.029 1833.28 621.998 1833.25 621.96L1800.61 581.02C1800.57 580.966 1800.51 580.926 1800.44 580.907C1800.38 580.887 1800.31 580.888 1800.24 580.91C1800.18 580.932 1800.12 580.974 1800.08 581.029C1800.04 581.085 1800.02 581.151 1800.02 581.22L1800.07 621.72C1800.07 621.807 1800.03 621.891 1799.97 621.953C1799.91 622.015 1799.83 622.05 1799.74 622.05L1794.29 622.06C1794.2 622.06 1794.12 622.025 1794.06 621.963C1793.99 621.901 1793.96 621.817 1793.96 621.73L1793.95 569.8C1793.95 569.712 1793.98 569.628 1794.05 569.566C1794.11 569.504 1794.19 569.47 1794.28 569.47L1798.96 569.44C1799.01 569.44 1799.06 569.452 1799.1 569.475C1799.15 569.497 1799.19 569.53 1799.22 569.57L1831.77 610.35C1831.81 610.404 1831.87 610.443 1831.93 610.463C1832 610.482 1832.07 610.481 1832.14 610.459C1832.2 610.437 1832.26 610.396 1832.3 610.34C1832.34 610.285 1832.36 610.218 1832.36 610.15Z" fill="#193C6A"/>
<path d="M1938.13 569.5H1932.97C1932.69 569.5 1932.47 569.724 1932.47 570V621.6C1932.47 621.876 1932.69 622.1 1932.97 622.1H1938.13C1938.4 622.1 1938.63 621.876 1938.63 621.6V570C1938.63 569.724 1938.4 569.5 1938.13 569.5Z" fill="#193C6A"/>
<path d="M1990.75 610.169L1990.74 569.769C1990.74 569.685 1990.77 569.603 1990.83 569.543C1990.89 569.483 1990.98 569.449 1991.06 569.449L1996.66 569.459C1996.75 569.459 1996.83 569.493 1996.89 569.553C1996.95 569.613 1996.98 569.695 1996.98 569.779L1996.97 621.729C1996.97 621.814 1996.94 621.896 1996.88 621.956C1996.82 622.016 1996.74 622.049 1996.65 622.049L1991.92 622.089C1991.87 622.091 1991.82 622.081 1991.78 622.06C1991.73 622.039 1991.69 622.008 1991.66 621.969L1959.14 581.179C1959.1 581.128 1959.04 581.091 1958.98 581.072C1958.92 581.054 1958.85 581.055 1958.79 581.075C1958.73 581.096 1958.67 581.135 1958.63 581.188C1958.6 581.241 1958.57 581.304 1958.57 581.369V621.769C1958.57 621.854 1958.54 621.936 1958.48 621.996C1958.42 622.056 1958.34 622.089 1958.25 622.089H1952.69C1952.61 622.089 1952.52 622.056 1952.46 621.996C1952.4 621.936 1952.37 621.854 1952.37 621.769V569.759C1952.37 569.675 1952.4 569.593 1952.46 569.533C1952.52 569.473 1952.61 569.439 1952.69 569.439L1957.4 569.449C1957.45 569.449 1957.5 569.46 1957.54 569.481C1957.58 569.502 1957.62 569.532 1957.65 569.569L1990.18 610.359C1990.22 610.411 1990.28 610.448 1990.34 610.467C1990.4 610.485 1990.47 610.484 1990.53 610.463C1990.59 610.443 1990.65 610.403 1990.69 610.351C1990.73 610.298 1990.75 610.235 1990.75 610.169Z" fill="#193C6A"/>
<path d="M2048.96 569.44L2054.89 569.469C2054.95 569.47 2055 569.484 2055.05 569.511C2055.1 569.538 2055.14 569.576 2055.17 569.622C2055.2 569.669 2055.22 569.722 2055.23 569.777C2055.23 569.832 2055.22 569.888 2055.2 569.94L2033.01 621.859C2032.98 621.919 2032.94 621.97 2032.89 622.005C2032.83 622.041 2032.77 622.06 2032.7 622.059L2027.41 622.099C2027.34 622.101 2027.28 622.081 2027.22 622.044C2027.16 622.006 2027.12 621.953 2027.09 621.89L2004.9 569.95C2004.88 569.898 2004.87 569.842 2004.88 569.787C2004.88 569.732 2004.9 569.679 2004.93 569.632C2004.96 569.586 2005 569.548 2005.05 569.521C2005.1 569.494 2005.16 569.48 2005.21 569.479L2011.08 569.44C2011.15 569.438 2011.22 569.458 2011.27 569.495C2011.33 569.533 2011.37 569.586 2011.4 569.65L2029.73 613.099C2029.76 613.159 2029.8 613.21 2029.86 613.245C2029.91 613.281 2029.98 613.3 2030.04 613.3C2030.11 613.3 2030.17 613.281 2030.23 613.245C2030.28 613.21 2030.32 613.159 2030.35 613.099L2048.64 569.65C2048.67 569.586 2048.71 569.533 2048.77 569.495C2048.83 569.458 2048.89 569.438 2048.96 569.44Z" fill="#193C6A"/>
<path d="M2114.5 602.819V621.739C2114.5 621.979 2114.38 622.096 2114.14 622.089L2108.55 622.079C2108.36 622.079 2108.26 621.982 2108.26 621.789L2108.25 569.769C2108.25 569.529 2108.37 569.412 2108.6 569.419C2114.16 569.519 2120.61 569.502 2127.96 569.369C2132.15 569.296 2135.46 569.739 2137.89 570.699C2151.79 576.189 2150.98 596.569 2136.88 601.259C2136.53 601.372 2136.45 601.586 2136.64 601.899L2148.94 621.899C2148.95 621.916 2148.95 621.934 2148.95 621.953C2148.95 621.972 2148.95 621.99 2148.94 622.006C2148.93 622.022 2148.92 622.035 2148.91 622.045C2148.89 622.054 2148.88 622.059 2148.86 622.059C2147.95 622.099 2145.68 622.106 2142.06 622.079C2141.98 622.079 2141.9 622.058 2141.83 622.018C2141.76 621.978 2141.7 621.919 2141.66 621.849L2130.19 602.699C2129.96 602.319 2129.62 602.129 2129.17 602.129L2115.18 602.139C2114.73 602.139 2114.5 602.366 2114.5 602.819ZM2114.47 575.239V596.279C2114.47 596.406 2114.52 596.529 2114.61 596.619C2114.7 596.709 2114.82 596.759 2114.95 596.759H2130.33C2133.33 596.759 2136.21 595.623 2138.33 593.602C2140.46 591.58 2141.65 588.838 2141.65 585.979V585.539C2141.65 582.68 2140.46 579.938 2138.33 577.916C2136.21 575.895 2133.33 574.759 2130.33 574.759H2114.95C2114.82 574.759 2114.7 574.81 2114.61 574.9C2114.52 574.99 2114.47 575.112 2114.47 575.239Z" fill="#193C6A"/>
<path d="M2212.57 569.449H2206.97C2206.81 569.449 2206.68 569.579 2206.68 569.739V621.779C2206.68 621.939 2206.81 622.069 2206.97 622.069H2212.57C2212.73 622.069 2212.86 621.939 2212.86 621.779V569.739C2212.86 569.579 2212.73 569.449 2212.57 569.449Z" fill="#193C6A"/>
<path d="M2296.91 622.099L2291.36 622.049C2291.27 622.049 2291.18 622.012 2291.11 621.947C2291.05 621.881 2291.01 621.792 2291.01 621.699L2291.02 569.809C2291.02 569.716 2291.06 569.627 2291.12 569.562C2291.19 569.496 2291.28 569.459 2291.37 569.459L2296.1 569.449C2296.16 569.448 2296.21 569.459 2296.26 569.482C2296.31 569.504 2296.35 569.538 2296.38 569.579L2328.92 610.349C2328.97 610.405 2329.03 610.445 2329.1 610.464C2329.17 610.483 2329.24 610.48 2329.31 610.456C2329.38 610.432 2329.44 610.388 2329.48 610.33C2329.52 610.271 2329.54 610.201 2329.54 610.129V569.799C2329.54 569.706 2329.58 569.617 2329.64 569.552C2329.71 569.486 2329.8 569.449 2329.89 569.449L2335.32 569.459C2335.41 569.459 2335.5 569.496 2335.57 569.562C2335.63 569.627 2335.67 569.716 2335.67 569.809L2335.66 621.739C2335.66 621.832 2335.62 621.921 2335.56 621.987C2335.49 622.052 2335.4 622.089 2335.31 622.089L2330.66 622.079C2330.61 622.079 2330.56 622.067 2330.51 622.045C2330.47 622.022 2330.42 621.99 2330.39 621.949L2297.88 581.169C2297.84 581.114 2297.77 581.074 2297.71 581.055C2297.64 581.035 2297.56 581.038 2297.49 581.062C2297.43 581.086 2297.37 581.13 2297.33 581.189C2297.28 581.248 2297.26 581.317 2297.26 581.389V621.749C2297.26 621.795 2297.25 621.841 2297.24 621.883C2297.22 621.926 2297.19 621.964 2297.16 621.997C2297.13 622.029 2297.09 622.055 2297.05 622.073C2297 622.09 2296.96 622.099 2296.91 622.099Z" fill="#193C6A"/>
<path d="M1225.78 656.571L1232.17 646.291C1232.21 646.232 1232.27 646.187 1232.34 646.166C1232.4 646.144 1232.48 646.146 1232.54 646.171L1236.61 647.641C1236.66 647.658 1236.7 647.685 1236.73 647.72C1236.76 647.754 1236.78 647.796 1236.8 647.841C1236.81 647.887 1236.81 647.935 1236.81 647.981C1236.8 648.028 1236.78 648.072 1236.75 648.111L1230.25 656.891C1230.22 656.927 1230.19 656.957 1230.14 656.978C1230.1 656.999 1230.06 657.01 1230.01 657.011L1226.04 657.051C1225.99 657.051 1225.93 657.036 1225.88 657.007C1225.83 656.979 1225.79 656.938 1225.77 656.888C1225.74 656.839 1225.73 656.784 1225.73 656.728C1225.73 656.672 1225.75 656.618 1225.78 656.571Z" fill="#193C6A"/>
<path d="M1377.44 694.959C1379.51 705.469 1389.05 712.769 1399.71 712.389C1405.5 712.183 1410.55 709.913 1414.88 705.579C1415.23 705.226 1415.58 705.233 1415.91 705.599L1418.77 708.709C1419.08 709.043 1419.06 709.363 1418.73 709.669C1411.2 716.703 1402.46 719.203 1392.5 717.169C1379.08 714.429 1369.64 701.709 1370.87 688.179C1372.19 673.549 1384.34 663.129 1398.95 663.109C1406.34 663.096 1412.91 665.796 1418.64 671.209C1419.04 671.589 1419.05 671.976 1418.67 672.369L1415.85 675.329C1415.46 675.736 1415.08 675.733 1414.69 675.319C1412.76 673.266 1410.63 671.716 1408.29 670.669C1391.77 663.259 1373.86 676.859 1377.44 694.959Z" fill="#193C6A"/>
<path d="M1609.76 690.294C1609.81 697.569 1606.89 704.566 1601.65 709.747C1596.41 714.928 1589.27 717.868 1581.8 717.92C1574.34 717.972 1567.16 715.132 1561.84 710.025C1556.53 704.918 1553.51 697.962 1553.46 690.687C1553.41 683.412 1556.33 676.415 1561.57 671.234C1566.81 666.053 1573.95 663.113 1581.42 663.061C1588.89 663.009 1596.07 665.849 1601.38 670.956C1606.69 676.063 1609.71 683.019 1609.76 690.294ZM1603.56 690.491C1603.56 684.672 1601.25 679.091 1597.13 674.977C1593.02 670.862 1587.44 668.551 1581.62 668.551C1575.8 668.551 1570.22 670.862 1566.11 674.977C1561.99 679.091 1559.68 684.672 1559.68 690.491C1559.68 696.309 1561.99 701.89 1566.11 706.004C1570.22 710.119 1575.8 712.431 1581.62 712.431C1587.44 712.431 1593.02 710.119 1597.13 706.004C1601.25 701.89 1603.56 696.309 1603.56 690.491Z" fill="#193C6A"/>
<path d="M1807.95 712.35C1814.41 712.87 1821.17 710.39 1825.64 705.52C1825.7 705.458 1825.77 705.408 1825.85 705.373C1825.92 705.338 1826.01 705.32 1826.09 705.319C1826.18 705.318 1826.26 705.335 1826.34 705.368C1826.41 705.4 1826.48 705.449 1826.54 705.51L1829.56 708.7C1829.87 709.027 1829.86 709.34 1829.53 709.64C1824.54 714.28 1819.19 716.93 1813.47 717.59C1804.38 718.65 1796.64 716.237 1790.24 710.35C1782.03 702.81 1779.16 690.66 1783.53 680.26C1791.31 661.73 1815.36 657.29 1829.49 671.37C1829.78 671.663 1829.78 671.96 1829.5 672.26L1826.5 675.43C1826.45 675.483 1826.39 675.526 1826.32 675.555C1826.25 675.584 1826.18 675.6 1826.1 675.601C1826.03 675.602 1825.96 675.588 1825.89 675.561C1825.82 675.533 1825.75 675.492 1825.7 675.44C1820.25 670.1 1813.97 667.863 1806.87 668.73C1797.7 669.86 1790.31 676.63 1788.25 685.73C1785.27 698.83 1794.73 711.29 1807.95 712.35Z" fill="#193C6A"/>
<path d="M832.781 664.62C832.781 664.574 832.79 664.528 832.808 664.486C832.825 664.443 832.851 664.405 832.884 664.372C832.916 664.34 832.955 664.314 832.997 664.296C833.04 664.279 833.085 664.27 833.131 664.27H854.021C860.742 664.27 867.187 666.848 871.939 671.437C876.692 676.026 879.361 682.25 879.361 688.74V692.44C879.361 698.929 876.692 705.153 871.939 709.742C867.187 714.331 860.742 716.909 854.021 716.909H833.131C833.038 716.909 832.949 716.873 832.884 716.807C832.818 716.741 832.781 716.652 832.781 716.56V664.62ZM838.941 670.01L838.861 711.049C838.861 711.126 838.892 711.2 838.946 711.255C839.001 711.309 839.074 711.34 839.151 711.34L853.591 711.37C856.157 711.375 858.698 710.875 861.07 709.9C863.443 708.924 865.599 707.491 867.416 705.683C869.234 703.875 870.676 701.727 871.662 699.362C872.648 696.997 873.157 694.461 873.161 691.9V689.28C873.169 684.11 871.121 679.148 867.466 675.486C863.811 671.823 858.849 669.76 853.671 669.75L839.231 669.719C839.154 669.719 839.081 669.75 839.026 669.804C838.972 669.859 838.941 669.933 838.941 670.01Z" fill="#193C6A"/>
<path d="M896.9 711.311H925.03C925.126 711.311 925.217 711.349 925.285 711.416C925.352 711.484 925.39 711.575 925.39 711.671L925.36 716.531C925.36 716.626 925.322 716.718 925.255 716.785C925.187 716.853 925.096 716.891 925 716.891L890.69 716.881C890.595 716.881 890.503 716.843 890.436 716.775C890.368 716.708 890.33 716.616 890.33 716.521L890.32 664.591C890.32 664.495 890.358 664.404 890.426 664.336C890.493 664.269 890.585 664.231 890.68 664.231L924.75 664.221C924.846 664.221 924.937 664.259 925.005 664.326C925.072 664.394 925.11 664.485 925.11 664.581L925.07 669.401C925.07 669.496 925.032 669.588 924.965 669.655C924.897 669.723 924.806 669.761 924.71 669.761L896.91 669.751C896.863 669.751 896.816 669.76 896.773 669.778C896.729 669.796 896.689 669.823 896.656 669.856C896.622 669.89 896.596 669.929 896.578 669.973C896.56 670.017 896.55 670.063 896.55 670.111L896.54 687.671C896.54 687.766 896.578 687.858 896.646 687.925C896.713 687.993 896.805 688.031 896.9 688.031L920.98 688.021C921.076 688.021 921.167 688.059 921.235 688.126C921.302 688.194 921.34 688.285 921.34 688.381L921.38 693.191C921.38 693.286 921.342 693.378 921.275 693.445C921.207 693.513 921.116 693.551 921.02 693.551H896.91C896.815 693.551 896.723 693.589 896.656 693.656C896.588 693.724 896.55 693.815 896.55 693.911L896.54 710.951C896.54 711.046 896.578 711.138 896.646 711.205C896.713 711.273 896.805 711.311 896.9 711.311Z" fill="#193C6A"/>
<path d="M959.429 711.31H984.769C984.867 711.31 984.961 711.349 985.031 711.419C985.1 711.488 985.139 711.582 985.139 711.68L985.089 716.51C985.089 716.609 985.05 716.703 984.981 716.772C984.911 716.841 984.817 716.88 984.719 716.88H953.329C953.231 716.88 953.137 716.841 953.068 716.772C952.998 716.703 952.959 716.609 952.959 716.51L952.949 664.62C952.949 664.522 952.988 664.428 953.058 664.359C953.127 664.289 953.221 664.25 953.319 664.25L958.699 664.23C958.797 664.23 958.891 664.269 958.961 664.339C959.03 664.408 959.069 664.502 959.069 664.6L959.059 710.94C959.059 711.039 959.098 711.133 959.168 711.202C959.237 711.271 959.331 711.31 959.429 711.31Z" fill="#193C6A"/>
<path d="M1027.89 704.691L1001.31 704.681C1001.22 704.682 1001.14 704.708 1001.07 704.756C1001 704.804 1000.94 704.872 1000.91 704.951L995.958 716.601C995.925 716.68 995.87 716.748 995.799 716.795C995.727 716.843 995.644 716.87 995.558 716.871L989.878 716.911C989.804 716.912 989.731 716.895 989.665 716.86C989.599 716.826 989.544 716.775 989.503 716.714C989.462 716.652 989.437 716.58 989.431 716.507C989.425 716.433 989.438 716.358 989.468 716.291L1011.49 664.491C1011.52 664.412 1011.58 664.344 1011.65 664.296C1011.72 664.248 1011.8 664.222 1011.89 664.221L1017.33 664.231C1017.41 664.232 1017.5 664.258 1017.57 664.306C1017.64 664.354 1017.7 664.422 1017.73 664.501L1039.72 716.341C1039.75 716.409 1039.76 716.483 1039.75 716.556C1039.74 716.629 1039.72 716.7 1039.67 716.76C1039.63 716.821 1039.58 716.87 1039.51 716.904C1039.44 716.937 1039.37 716.953 1039.3 716.951L1033.57 716.851C1033.48 716.85 1033.4 716.823 1033.33 716.775C1033.26 716.727 1033.2 716.66 1033.17 716.581L1028.29 704.961C1028.26 704.882 1028.2 704.814 1028.13 704.766C1028.06 704.718 1027.97 704.692 1027.89 704.691ZM1003.58 698.681C1003.56 698.732 1003.55 698.788 1003.55 698.843C1003.56 698.898 1003.58 698.952 1003.61 698.998C1003.64 699.044 1003.68 699.082 1003.73 699.109C1003.78 699.136 1003.83 699.15 1003.89 699.151H1025.29C1025.34 699.15 1025.4 699.136 1025.45 699.109C1025.5 699.082 1025.54 699.044 1025.57 698.998C1025.6 698.952 1025.62 698.898 1025.62 698.843C1025.63 698.788 1025.62 698.732 1025.6 698.681L1014.9 673.481C1014.87 673.421 1014.83 673.37 1014.77 673.335C1014.72 673.299 1014.65 673.28 1014.59 673.28C1014.52 673.28 1014.46 673.299 1014.4 673.335C1014.35 673.37 1014.31 673.421 1014.28 673.481L1003.58 698.681Z" fill="#193C6A"/>
<path d="M1093.46 696.74C1097.65 703.493 1101.75 710.173 1105.77 716.78C1105.78 716.791 1105.78 716.803 1105.78 716.816C1105.78 716.829 1105.78 716.842 1105.77 716.853C1105.77 716.865 1105.76 716.874 1105.75 716.881C1105.73 716.887 1105.72 716.89 1105.71 716.89C1103.36 716.93 1101.09 716.927 1098.88 716.88C1098.71 716.873 1098.59 716.8 1098.5 716.66L1086.95 697.48C1086.79 697.207 1086.55 697.07 1086.23 697.07H1071.74C1071.62 697.07 1071.51 697.116 1071.43 697.199C1071.34 697.281 1071.3 697.393 1071.3 697.51V716.29C1071.3 716.69 1071.1 716.89 1070.7 716.89L1065.74 716.91C1065.29 716.917 1065.06 716.693 1065.06 716.24V664.53C1065.06 664.448 1065.09 664.369 1065.15 664.311C1065.21 664.253 1065.29 664.22 1065.37 664.22C1071.9 664.26 1078.68 664.247 1085.71 664.18C1089.1 664.147 1091.86 664.507 1093.97 665.26C1100.24 667.49 1104.15 672.55 1104.63 679.32C1105.17 686.95 1101.22 693.83 1093.71 696.06C1093.64 696.079 1093.58 696.114 1093.53 696.162C1093.48 696.209 1093.44 696.268 1093.42 696.334C1093.39 696.4 1093.38 696.471 1093.39 696.541C1093.4 696.612 1093.42 696.68 1093.46 696.74ZM1071.13 670.64L1071.17 690.62C1071.17 690.874 1071.27 691.119 1071.45 691.299C1071.63 691.479 1071.87 691.58 1072.13 691.58L1087.45 691.56C1090.38 691.554 1093.19 690.414 1095.26 688.388C1097.33 686.363 1098.49 683.619 1098.49 680.76V680.42C1098.49 679.004 1098.2 677.603 1097.64 676.296C1097.08 674.989 1096.26 673.802 1095.24 672.803C1094.21 671.804 1092.99 671.012 1091.64 670.473C1090.3 669.933 1088.86 669.657 1087.41 669.66L1072.09 669.68C1071.83 669.68 1071.59 669.781 1071.41 669.961C1071.23 670.141 1071.13 670.385 1071.13 670.64Z" fill="#193C6A"/>
<path d="M1121 670.171L1121.03 687.621C1121.03 687.732 1121.08 687.839 1121.15 687.918C1121.23 687.996 1121.34 688.041 1121.45 688.041L1145.44 688.021C1145.55 688.021 1145.66 688.065 1145.74 688.144C1145.82 688.223 1145.86 688.329 1145.86 688.441L1145.9 693.131C1145.9 693.242 1145.86 693.349 1145.78 693.428C1145.7 693.507 1145.59 693.551 1145.48 693.551L1121.45 693.561C1121.34 693.561 1121.23 693.605 1121.15 693.684C1121.08 693.763 1121.03 693.869 1121.03 693.981L1121.07 710.881C1121.07 710.936 1121.08 710.99 1121.1 711.041C1121.12 711.092 1121.16 711.139 1121.19 711.178C1121.23 711.217 1121.28 711.248 1121.33 711.269C1121.38 711.29 1121.44 711.301 1121.49 711.301L1149.47 711.321C1149.58 711.321 1149.69 711.365 1149.77 711.444C1149.85 711.522 1149.89 711.629 1149.89 711.741V716.451C1149.89 716.562 1149.85 716.669 1149.77 716.748C1149.69 716.827 1149.58 716.871 1149.47 716.871L1115.2 716.891C1115.09 716.891 1114.98 716.846 1114.9 716.768C1114.83 716.689 1114.78 716.582 1114.78 716.471V664.651C1114.78 664.539 1114.83 664.433 1114.9 664.354C1114.98 664.275 1115.09 664.231 1115.2 664.231L1149.16 664.221C1149.27 664.221 1149.38 664.265 1149.46 664.344C1149.54 664.423 1149.58 664.529 1149.58 664.641L1149.54 669.341C1149.54 669.396 1149.53 669.451 1149.51 669.501C1149.49 669.552 1149.46 669.599 1149.42 669.638C1149.38 669.677 1149.33 669.708 1149.28 669.729C1149.23 669.75 1149.18 669.761 1149.12 669.761L1121.42 669.751C1121.31 669.751 1121.2 669.795 1121.12 669.874C1121.05 669.952 1121 670.059 1121 670.171Z" fill="#193C6A"/>
<path d="M1166.11 698.719L1166.13 716.249C1166.13 716.676 1165.92 716.889 1165.49 716.889L1160.5 716.909C1160.06 716.909 1159.84 716.689 1159.84 716.249L1159.82 664.679C1159.82 664.359 1159.98 664.203 1160.31 664.209C1165.8 664.289 1171.73 664.273 1178.1 664.159C1182.19 664.086 1185.4 664.466 1187.72 665.299C1205.19 671.589 1200.94 698.589 1181.21 698.329C1176.34 698.263 1171.44 698.256 1166.51 698.309C1166.24 698.316 1166.11 698.453 1166.11 698.719ZM1165.97 670.379V692.339C1165.97 692.512 1166.04 692.677 1166.16 692.799C1166.28 692.921 1166.45 692.989 1166.62 692.989H1180.96C1184.01 692.989 1186.93 691.776 1189.09 689.615C1191.24 687.455 1192.45 684.525 1192.45 681.469V681.249C1192.45 678.194 1191.24 675.264 1189.09 673.103C1186.93 670.943 1184.01 669.729 1180.96 669.729H1166.62C1166.45 669.729 1166.28 669.798 1166.16 669.92C1166.04 670.042 1165.97 670.207 1165.97 670.379Z" fill="#193C6A"/>
<path d="M1234.01 711.351C1239.99 709.091 1243.54 703.171 1243.54 696.891C1243.54 685.851 1243.54 675.041 1243.54 664.461C1243.54 664.314 1243.61 664.241 1243.76 664.241L1249.49 664.221C1249.69 664.221 1249.79 664.324 1249.79 664.531C1249.71 672.917 1249.72 681.914 1249.84 691.521C1249.9 697.081 1249.51 701.157 1248.67 703.751C1242.54 722.441 1214.65 722.801 1207.84 704.491C1206.88 701.917 1206.42 698.491 1206.47 694.211C1206.58 683.257 1206.59 673.364 1206.51 664.531C1206.5 664.331 1206.6 664.231 1206.8 664.231H1212.43C1212.6 664.231 1212.69 664.317 1212.69 664.491C1212.63 675.317 1212.64 686.154 1212.72 697.001C1212.79 708.311 1223.31 715.401 1234.01 711.351Z" fill="#193C6A"/>
<path d="M1293.21 689.29C1306.53 694.05 1305.17 712.4 1291.89 716.18C1290.01 716.714 1287.64 716.964 1284.77 716.93C1277.12 716.83 1269.82 716.83 1262.88 716.93C1262.82 716.932 1262.77 716.922 1262.71 716.901C1262.66 716.881 1262.61 716.85 1262.57 716.811C1262.53 716.772 1262.5 716.725 1262.48 716.673C1262.45 716.622 1262.44 716.566 1262.44 716.51V664.79C1262.44 664.437 1262.62 664.257 1262.97 664.25C1272.46 664.157 1280.1 664.187 1285.9 664.34C1294.19 664.55 1300.41 671.23 1299.31 679.65C1298.79 683.637 1296.74 686.66 1293.16 688.72C1292.77 688.947 1292.79 689.137 1293.21 689.29ZM1268.51 669.76L1268.49 686.92C1268.49 687.001 1268.52 687.078 1268.58 687.136C1268.63 687.194 1268.71 687.228 1268.79 687.23L1283.87 687.26C1285.08 687.263 1286.29 687.039 1287.41 686.6C1288.53 686.162 1289.55 685.518 1290.41 684.705C1291.27 683.893 1291.95 682.927 1292.41 681.864C1292.88 680.801 1293.12 679.662 1293.12 678.51V678.25C1293.12 675.929 1292.16 673.701 1290.43 672.057C1288.7 670.412 1286.36 669.486 1283.91 669.48L1268.83 669.45C1268.79 669.449 1268.75 669.456 1268.71 669.471C1268.67 669.486 1268.64 669.508 1268.61 669.537C1268.58 669.566 1268.55 669.601 1268.54 669.639C1268.52 669.678 1268.51 669.719 1268.51 669.76ZM1268.45 692.99L1268.39 710.73C1268.39 710.958 1268.48 711.177 1268.64 711.338C1268.8 711.5 1269.02 711.59 1269.25 711.59L1285.81 711.65C1288.53 711.659 1291.13 710.667 1293.06 708.893C1294.98 707.12 1296.07 704.709 1296.08 702.19V701.73C1296.09 700.482 1295.83 699.245 1295.32 698.09C1294.81 696.935 1294.05 695.884 1293.11 694.998C1292.16 694.112 1291.03 693.408 1289.79 692.927C1288.55 692.445 1287.22 692.195 1285.87 692.19L1269.31 692.13C1269.08 692.13 1268.86 692.221 1268.7 692.382C1268.54 692.543 1268.45 692.762 1268.45 692.99Z" fill="#193C6A"/>
<path d="M1319.13 711.301L1344.5 711.321C1344.6 711.321 1344.69 711.36 1344.76 711.429C1344.83 711.498 1344.87 711.593 1344.87 711.691V716.511C1344.87 716.609 1344.83 716.703 1344.76 716.772C1344.69 716.842 1344.6 716.881 1344.5 716.881H1312.93C1312.88 716.881 1312.83 716.871 1312.79 716.853C1312.74 716.834 1312.7 716.807 1312.67 716.772C1312.63 716.738 1312.61 716.697 1312.59 716.652C1312.57 716.607 1312.56 716.559 1312.56 716.511V664.591C1312.56 664.542 1312.57 664.494 1312.59 664.449C1312.61 664.404 1312.63 664.363 1312.67 664.329C1312.7 664.295 1312.74 664.267 1312.79 664.249C1312.83 664.23 1312.88 664.221 1312.93 664.221L1318.41 664.261C1318.51 664.261 1318.6 664.3 1318.67 664.369C1318.74 664.438 1318.78 664.533 1318.78 664.631L1318.76 710.931C1318.76 711.029 1318.8 711.123 1318.87 711.192C1318.94 711.262 1319.03 711.301 1319.13 711.301Z" fill="#193C6A"/>
<path d="M1359.38 664.24H1353.98C1353.76 664.24 1353.58 664.419 1353.58 664.64V716.5C1353.58 716.721 1353.76 716.9 1353.98 716.9H1359.38C1359.6 716.9 1359.78 716.721 1359.78 716.5V664.64C1359.78 664.419 1359.6 664.24 1359.38 664.24Z" fill="#193C6A"/>
<path d="M1434.46 704.981L1429.56 716.561C1429.52 716.649 1429.46 716.725 1429.38 716.778C1429.3 716.832 1429.21 716.86 1429.11 716.861L1423.53 716.921C1423.45 716.922 1423.37 716.903 1423.3 716.866C1423.22 716.828 1423.16 716.773 1423.12 716.705C1423.07 716.638 1423.04 716.56 1423.03 716.479C1423.03 716.398 1423.04 716.316 1423.07 716.241L1445.04 664.521C1445.08 664.432 1445.14 664.356 1445.22 664.303C1445.3 664.25 1445.39 664.221 1445.49 664.221L1450.87 664.231C1450.97 664.231 1451.06 664.26 1451.14 664.313C1451.22 664.366 1451.28 664.442 1451.32 664.531L1473.25 716.221C1473.28 716.295 1473.29 716.376 1473.29 716.456C1473.28 716.537 1473.25 716.614 1473.21 716.681C1473.16 716.748 1473.1 716.804 1473.03 716.842C1472.96 716.88 1472.88 716.9 1472.8 716.901L1467.21 716.891C1467.11 716.89 1467.02 716.862 1466.94 716.808C1466.86 716.755 1466.8 716.679 1466.76 716.591L1461.88 704.991C1461.84 704.9 1461.78 704.824 1461.7 704.77C1461.61 704.717 1461.52 704.689 1461.42 704.691L1434.91 704.681C1434.81 704.681 1434.72 704.71 1434.64 704.763C1434.56 704.816 1434.5 704.892 1434.46 704.981ZM1437.15 698.711C1437.13 698.759 1437.12 698.811 1437.13 698.862C1437.13 698.914 1437.15 698.964 1437.18 699.007C1437.21 699.05 1437.25 699.086 1437.29 699.111C1437.34 699.136 1437.39 699.15 1437.44 699.151H1458.9C1458.95 699.15 1459 699.136 1459.05 699.111C1459.09 699.086 1459.13 699.05 1459.16 699.007C1459.19 698.964 1459.21 698.914 1459.21 698.862C1459.22 698.811 1459.21 698.759 1459.19 698.711L1448.46 673.441C1448.43 673.386 1448.39 673.339 1448.34 673.306C1448.29 673.273 1448.23 673.256 1448.17 673.256C1448.11 673.256 1448.05 673.273 1448 673.306C1447.95 673.339 1447.91 673.386 1447.88 673.441L1437.15 698.711Z" fill="#193C6A"/>
<path d="M1498.75 664.481C1498.75 664.412 1498.78 664.346 1498.82 664.297C1498.87 664.248 1498.94 664.221 1499.01 664.221L1519.92 664.261C1526.67 664.274 1533.13 666.87 1537.9 671.478C1542.66 676.085 1545.33 682.327 1545.32 688.831V692.451C1545.31 695.673 1544.65 698.863 1543.37 701.838C1542.08 704.812 1540.2 707.514 1537.83 709.788C1535.47 712.063 1532.66 713.865 1529.56 715.092C1526.47 716.319 1523.16 716.947 1519.82 716.941L1498.91 716.901C1498.84 716.901 1498.77 716.873 1498.72 716.825C1498.68 716.776 1498.65 716.71 1498.65 716.641L1498.75 664.481ZM1504.92 670.061L1504.84 710.921C1504.84 711.019 1504.88 711.113 1504.95 711.182C1505.02 711.252 1505.11 711.291 1505.21 711.291L1519.58 711.321C1522.12 711.326 1524.64 710.842 1526.99 709.897C1529.33 708.951 1531.47 707.562 1533.27 705.81C1535.07 704.058 1536.5 701.976 1537.47 699.684C1538.45 697.391 1538.95 694.934 1538.96 692.451V688.651C1538.97 683.64 1536.94 678.831 1533.32 675.281C1529.7 671.732 1524.79 669.731 1519.66 669.721L1505.29 669.691C1505.19 669.691 1505.1 669.73 1505.03 669.799C1504.96 669.869 1504.92 669.963 1504.92 670.061Z" fill="#193C6A"/>
<path d="M1626.97 675.461L1626.99 716.511C1626.99 716.614 1626.95 716.713 1626.88 716.786C1626.81 716.86 1626.71 716.901 1626.61 716.901L1621.1 716.911C1620.87 716.911 1620.75 716.794 1620.75 716.561V664.741C1620.75 664.394 1620.92 664.221 1621.26 664.221L1625.54 664.231C1625.89 664.231 1626.18 664.371 1626.39 664.651L1646.05 690.551C1646.34 690.931 1646.62 690.931 1646.91 690.551L1666.63 664.561C1666.8 664.341 1667.02 664.231 1667.29 664.231H1671.75C1672.1 664.231 1672.28 664.404 1672.28 664.751L1672.27 716.691C1672.27 716.837 1672.2 716.911 1672.06 716.911L1666.33 716.871C1666.14 716.871 1666.05 716.777 1666.05 716.591L1666.08 675.511C1666.08 674.964 1665.91 674.907 1665.58 675.341L1647.86 698.671C1647.69 698.888 1647.48 699.063 1647.24 699.184C1646.99 699.305 1646.72 699.367 1646.45 699.366C1646.17 699.365 1645.91 699.301 1645.66 699.178C1645.42 699.056 1645.2 698.879 1645.04 698.661L1627.47 675.291C1627.14 674.844 1626.97 674.901 1626.97 675.461Z" fill="#193C6A"/>
<path d="M1691.9 664.23H1686.36C1686.16 664.23 1686 664.392 1686 664.591V716.531C1686 716.729 1686.16 716.891 1686.36 716.891H1691.9C1692.1 716.891 1692.26 716.729 1692.26 716.531V664.591C1692.26 664.392 1692.1 664.23 1691.9 664.23Z" fill="#193C6A"/>
<path d="M1712.23 676.301L1712.22 716.551C1712.22 716.644 1712.18 716.733 1712.12 716.798C1712.05 716.864 1711.96 716.901 1711.87 716.901L1706.32 716.891C1706.23 716.891 1706.14 716.854 1706.07 716.788C1706.01 716.723 1705.97 716.634 1705.97 716.541V664.591C1705.97 664.498 1706.01 664.409 1706.07 664.343C1706.14 664.278 1706.23 664.241 1706.32 664.241L1710.97 664.221C1711.02 664.22 1711.08 664.231 1711.12 664.253C1711.17 664.276 1711.22 664.309 1711.25 664.351L1743.88 705.271C1743.92 705.326 1743.99 705.366 1744.06 705.385C1744.12 705.405 1744.2 705.402 1744.27 705.378C1744.33 705.354 1744.39 705.31 1744.43 705.251C1744.48 705.193 1744.5 705.123 1744.5 705.051V664.581C1744.5 664.488 1744.54 664.399 1744.6 664.333C1744.67 664.268 1744.76 664.231 1744.85 664.231H1750.22C1750.31 664.231 1750.4 664.268 1750.47 664.333C1750.53 664.399 1750.57 664.488 1750.57 664.581L1750.56 716.571C1750.56 716.664 1750.52 716.753 1750.46 716.818C1750.39 716.884 1750.3 716.921 1750.21 716.921L1745.54 716.871C1745.49 716.87 1745.44 716.859 1745.39 716.836C1745.34 716.814 1745.3 716.781 1745.27 716.741L1712.85 676.081C1712.8 676.025 1712.74 675.985 1712.67 675.966C1712.6 675.947 1712.53 675.95 1712.46 675.974C1712.39 675.998 1712.34 676.042 1712.29 676.1C1712.25 676.159 1712.23 676.229 1712.23 676.301Z" fill="#193C6A"/>
<path d="M1770.15 664.221H1764.69C1764.48 664.221 1764.31 664.391 1764.31 664.601V716.541C1764.31 716.751 1764.48 716.921 1764.69 716.921H1770.15C1770.36 716.921 1770.53 716.751 1770.53 716.541V664.601C1770.53 664.391 1770.36 664.221 1770.15 664.221Z" fill="#193C6A"/>
<path d="M1845.21 704.951L1840.31 716.601C1840.28 716.68 1840.22 716.748 1840.15 716.795C1840.08 716.843 1840 716.87 1839.91 716.871L1834.22 716.911C1834.15 716.912 1834.07 716.895 1834.01 716.86C1833.94 716.826 1833.89 716.775 1833.85 716.714C1833.81 716.652 1833.78 716.58 1833.77 716.507C1833.77 716.433 1833.78 716.358 1833.81 716.291L1855.82 664.491C1855.86 664.412 1855.91 664.344 1855.98 664.296C1856.05 664.248 1856.14 664.222 1856.22 664.221L1861.66 664.241C1861.75 664.242 1861.83 664.268 1861.9 664.316C1861.97 664.364 1862.03 664.432 1862.06 664.511L1884.04 716.311C1884.07 716.378 1884.08 716.451 1884.07 716.524C1884.07 716.596 1884.04 716.666 1884 716.726C1883.96 716.787 1883.91 716.836 1883.84 716.87C1883.78 716.904 1883.7 716.921 1883.63 716.921L1877.94 716.871C1877.86 716.87 1877.77 716.843 1877.7 716.795C1877.63 716.748 1877.58 716.68 1877.54 716.601L1872.59 704.961C1872.56 704.882 1872.5 704.814 1872.43 704.766C1872.36 704.718 1872.28 704.692 1872.19 704.691L1845.61 704.681C1845.53 704.682 1845.44 704.708 1845.37 704.756C1845.3 704.804 1845.25 704.872 1845.21 704.951ZM1847.9 698.691C1847.88 698.741 1847.87 698.795 1847.88 698.849C1847.88 698.903 1847.9 698.956 1847.93 699.001C1847.96 699.047 1848 699.084 1848.05 699.11C1848.09 699.136 1848.15 699.15 1848.2 699.151H1869.64C1869.7 699.15 1869.75 699.136 1869.8 699.11C1869.84 699.084 1869.89 699.047 1869.92 699.001C1869.94 698.956 1869.96 698.903 1869.97 698.849C1869.97 698.795 1869.96 698.741 1869.94 698.691L1859.22 673.461C1859.2 673.403 1859.15 673.355 1859.1 673.32C1859.05 673.286 1858.99 673.268 1858.92 673.268C1858.86 673.268 1858.8 673.286 1858.74 673.32C1858.69 673.355 1858.65 673.403 1858.62 673.461L1847.9 698.691Z" fill="#193C6A"/>
<path d="M1930.31 705.231L1930.32 664.471C1930.32 664.317 1930.39 664.241 1930.54 664.241L1936.25 664.221C1936.33 664.221 1936.4 664.25 1936.45 664.303C1936.5 664.355 1936.53 664.426 1936.53 664.501V716.441C1936.53 716.761 1936.37 716.917 1936.06 716.911L1931.77 716.881C1931.62 716.878 1931.48 716.842 1931.35 716.776C1931.21 716.711 1931.1 716.617 1931 716.501L1898.6 675.871C1898.31 675.511 1898.16 675.561 1898.16 676.021L1898.21 716.461C1898.21 716.573 1898.17 716.681 1898.09 716.761C1898.01 716.842 1897.9 716.888 1897.79 716.891L1892.28 716.901C1892.19 716.901 1892.1 716.865 1892.04 716.801C1891.98 716.737 1891.94 716.651 1891.94 716.561V665.021C1891.94 664.501 1892.2 664.237 1892.72 664.231H1896.31C1896.81 664.224 1897.22 664.417 1897.53 664.811L1929.9 705.381C1929.93 705.419 1929.97 705.446 1930.02 705.459C1930.07 705.472 1930.12 705.47 1930.16 705.454C1930.21 705.437 1930.25 705.407 1930.27 705.367C1930.3 705.327 1930.31 705.279 1930.31 705.231Z" fill="#193C6A"/>
<path d="M1982.75 704.69L1956.2 704.68C1956.11 704.682 1956.03 704.708 1955.96 704.756C1955.89 704.804 1955.83 704.871 1955.8 704.951L1950.86 716.581C1950.83 716.658 1950.77 716.723 1950.7 716.769C1950.63 716.816 1950.55 716.84 1950.46 716.841L1944.76 716.92C1944.69 716.921 1944.62 716.904 1944.55 716.87C1944.49 716.836 1944.43 716.786 1944.39 716.726C1944.35 716.665 1944.33 716.596 1944.32 716.523C1944.31 716.451 1944.32 716.378 1944.35 716.31L1966.37 664.5C1966.4 664.421 1966.46 664.354 1966.53 664.306C1966.6 664.258 1966.68 664.232 1966.77 664.23H1972.21C1972.3 664.232 1972.38 664.258 1972.45 664.306C1972.52 664.354 1972.58 664.421 1972.61 664.5L1994.59 716.331C1994.62 716.398 1994.63 716.473 1994.62 716.546C1994.62 716.619 1994.59 716.69 1994.55 716.75C1994.51 716.811 1994.45 716.86 1994.38 716.893C1994.32 716.927 1994.24 716.943 1994.17 716.94L1988.46 716.85C1988.38 716.85 1988.29 716.826 1988.22 716.779C1988.15 716.733 1988.1 716.668 1988.06 716.591L1983.15 704.961C1983.12 704.881 1983.06 704.814 1982.99 704.766C1982.92 704.718 1982.84 704.692 1982.75 704.69ZM1958.43 698.711C1958.41 698.759 1958.4 698.812 1958.41 698.865C1958.41 698.917 1958.43 698.967 1958.46 699.011C1958.49 699.054 1958.53 699.09 1958.58 699.114C1958.63 699.139 1958.68 699.151 1958.73 699.151H1980.21C1980.26 699.151 1980.32 699.139 1980.36 699.114C1980.41 699.09 1980.45 699.054 1980.48 699.011C1980.51 698.967 1980.53 698.917 1980.53 698.865C1980.54 698.812 1980.53 698.759 1980.51 698.711L1969.76 673.47C1969.73 673.415 1969.69 673.369 1969.64 673.336C1969.59 673.303 1969.53 673.286 1969.47 673.286C1969.41 673.286 1969.35 673.303 1969.3 673.336C1969.25 673.369 1969.21 673.415 1969.18 673.47L1958.43 698.711Z" fill="#193C6A"/>
<path d="M2005.34 717.78C2007.6 717.78 2009.44 715.944 2009.44 713.68C2009.44 711.416 2007.6 709.58 2005.34 709.58C2003.07 709.58 2001.24 711.416 2001.24 713.68C2001.24 715.944 2003.07 717.78 2005.34 717.78Z" fill="#193C6A"/>
</g>
<defs>
<clipPath id="clip0_885_610">
<rect width="2343" height="893" fill="white"/>
</clipPath>
</defs>
</svg>
