<svg width="1254" height="174" viewBox="0 0 1254 174" fill="none" xmlns="http://www.w3.org/2000/svg">
<g clip-path="url(#clip0_145_2)">
<path d="M310.54 104.18C310.54 128.04 291.23 147.4 267.38 147.46H226.21C224.54 147.46 222.94 146.8 221.76 145.62C220.58 144.44 219.92 142.84 219.92 141.17V67.1901C219.92 65.5201 220.58 63.9201 221.76 62.7401C222.94 61.5601 224.54 60.9001 226.21 60.9001H267.38C291.24 60.9701 310.54 80.3301 310.54 104.18ZM298.07 104.18C298.07 87.2301 284.33 73.4801 267.37 73.4801H232.5V134.87H267.37C284.32 134.87 298.07 121.13 298.07 104.17V104.18Z" fill="white"/>
<path d="M408.95 146.65C405.94 148.39 402.09 147.36 400.35 144.35L390.52 127.33H335.62L325.79 144.35C324.05 147.36 320.2 148.39 317.19 146.65C314.18 144.91 313.15 141.06 314.89 138.05L357.36 64.4901C358.4 62.2801 360.63 60.8601 363.07 60.8601C365.51 60.8601 367.74 62.2701 368.78 64.4901L411.25 138.05C412.99 141.06 411.96 144.91 408.95 146.65ZM383.26 114.73L363.08 79.7801L342.9 114.73H383.26Z" fill="white"/>
<path d="M489.3 60.9001C492.78 60.9001 495.59 63.7201 495.59 67.1901C495.59 70.6601 492.77 73.4801 489.3 73.4801H455.15V141.16C455.17 143.42 453.97 145.51 452.02 146.65C450.07 147.79 447.65 147.78 445.7 146.65C443.75 145.52 442.55 143.42 442.57 141.16V73.4801H408.42C404.94 73.4801 402.13 70.6601 402.13 67.1901C402.13 63.7201 404.95 60.9001 408.42 60.9001H489.31H489.3Z" fill="white"/>
<path d="M580.51 146.65C577.5 148.39 573.65 147.36 571.91 144.35L562.08 127.33H507.18L497.35 144.35C495.61 147.36 491.76 148.39 488.75 146.65C485.74 144.91 484.71 141.06 486.45 138.05L528.92 64.4901C529.96 62.2801 532.19 60.8601 534.63 60.8601C537.07 60.8601 539.3 62.2701 540.34 64.4901L582.81 138.05C584.55 141.06 583.52 144.91 580.51 146.65ZM554.82 114.73L534.64 79.7801L514.46 114.73H554.82Z" fill="white"/>
<path d="M650.81 61.0302C653.08 60.5602 655.42 61.3802 656.91 63.1602C657.06 63.3402 657.2 63.5202 657.32 63.7102L703.15 130.1L748.98 63.7102C749.11 63.5202 749.25 63.3302 749.39 63.1602C751.04 61.1902 753.72 60.4202 756.17 61.2102C758.61 62.0102 760.33 64.2102 760.5 66.7802C760.51 66.9502 760.52 67.1202 760.51 67.2902V141.18C760.51 144.66 757.69 147.47 754.22 147.47C750.75 147.47 747.93 144.65 747.93 141.18V87.4002L708.41 144.64C707.24 146.41 705.27 147.48 703.15 147.48C701.03 147.48 699.05 146.41 697.89 144.64L658.37 87.4002V141.18C658.35 144.64 655.53 147.43 652.08 147.43C648.63 147.43 645.81 144.64 645.79 141.18V67.2902C645.79 67.1202 645.79 66.9502 645.8 66.7802C645.99 63.9602 648.04 61.6102 650.81 61.0302Z" fill="white"/>
<path d="M867.59 146.65C864.58 148.39 860.73 147.36 858.99 144.35L849.16 127.33H794.26L784.43 144.35C782.69 147.36 778.84 148.39 775.83 146.65C772.82 144.91 771.79 141.06 773.53 138.05L816 64.4901C817.04 62.2801 819.27 60.8601 821.71 60.8601C824.15 60.8601 826.38 62.2701 827.42 64.4901L869.89 138.05C871.63 141.06 870.6 144.91 867.59 146.65ZM841.9 114.73L821.72 79.7801L801.54 114.73H841.9Z" fill="white"/>
<path d="M963.65 137.77C964.87 139.66 964.99 142.06 963.96 144.07C962.93 146.07 960.9 147.37 958.65 147.47C956.4 147.57 954.27 146.46 953.05 144.56L933.14 113.51H895.62V141.16C895.64 143.42 894.44 145.51 892.49 146.65C890.54 147.78 888.12 147.78 886.17 146.65C884.22 145.52 883.02 143.42 883.04 141.16V67.1801C883.04 63.7001 885.86 60.8901 889.33 60.8901H938.34C951.15 60.8901 962.1 70.1201 964.27 82.7401C966.44 95.3601 959.21 107.72 947.13 112L963.65 137.76V137.77ZM938.34 100.93C945.89 100.89 952 94.7601 952 87.2101C952 79.6601 945.9 73.5201 938.34 73.4901H895.62V100.94H938.34V100.93Z" fill="white"/>
<path d="M1059.71 63.58C1060.67 64.95 1061.04 66.64 1060.75 68.28C1060.46 69.92 1059.53 71.39 1058.16 72.34L1025.17 95.46L1060.38 137.1C1062.62 139.75 1062.29 143.73 1059.64 145.97C1056.99 148.21 1053.01 147.88 1050.77 145.23L1014.82 102.72L993.57 117.62V141.17C993.54 144.63 990.73 147.42 987.28 147.42C983.83 147.42 981.01 144.63 980.99 141.17V67.19C980.97 64.93 982.17 62.84 984.12 61.7C986.07 60.57 988.49 60.57 990.44 61.7C992.39 62.83 993.59 64.93 993.57 67.19V102.25L1050.94 62.04C1053.79 60.04 1057.71 60.73 1059.71 63.58Z" fill="white"/>
<path d="M1082.03 60.9001H1145.9C1149.38 60.9001 1152.19 63.7201 1152.19 67.1901C1152.19 70.6601 1149.37 73.4801 1145.9 73.4801H1088.33V94.8401H1145.9C1149.36 94.8701 1152.15 97.6801 1152.15 101.13C1152.15 104.58 1149.36 107.4 1145.9 107.42H1088.33V134.87H1145.9C1149.36 134.9 1152.15 137.71 1152.15 141.16C1152.15 144.61 1149.36 147.43 1145.9 147.45H1082.03C1080.36 147.45 1078.76 146.79 1077.58 145.61C1076.4 144.43 1075.74 142.83 1075.74 141.16V67.1801C1075.74 63.7001 1078.56 60.8901 1082.03 60.8901V60.9001Z" fill="white"/>
<path d="M1247.65 60.9001C1251.13 60.9001 1253.94 63.7201 1253.94 67.1901C1253.94 70.6601 1251.12 73.4801 1247.65 73.4801H1213.5V141.16C1213.52 143.42 1212.32 145.51 1210.37 146.65C1208.42 147.79 1206 147.78 1204.05 146.65C1202.1 145.52 1200.9 143.42 1200.92 141.16V73.4801H1166.77C1163.29 73.4801 1160.48 70.6601 1160.48 67.1901C1160.48 63.7201 1163.3 60.9001 1166.77 60.9001H1247.66H1247.65Z" fill="white"/>
<path d="M128.23 0H44.91C20.1069 0 0 20.1069 0 44.91V128.23C0 153.033 20.1069 173.14 44.91 173.14H128.23C153.033 173.14 173.14 153.033 173.14 128.23V44.91C173.14 20.1069 153.033 0 128.23 0Z" fill="white"/>
<path d="M129.73 114.54L113.82 122.06C111.62 117.97 107.41 115.37 102.77 115.24L88.0797 114.84C85.7497 114.77 83.4697 114.18 81.3997 113.12L79.9097 112.35C72.2597 108.36 63.1297 108.37 55.4897 112.38L55.5797 108.99C55.6097 107.87 54.7297 106.93 53.6097 106.9L37.4997 106.46C36.3797 106.43 35.4397 107.31 35.4097 108.43L34.4397 143.78C34.4097 144.9 35.2897 145.84 36.4097 145.87L52.5197 146.31H52.5797C53.6797 146.31 54.5797 145.43 54.6097 144.33L54.6597 142.64L58.8397 140.4C60.4797 139.52 62.3997 139.31 64.1997 139.81L89.1897 146.82C89.1897 146.82 89.2797 146.84 89.3197 146.85C91.1297 147.23 92.9697 147.42 94.8097 147.42C98.7197 147.42 102.58 146.58 106.13 144.95C106.22 144.91 106.3 144.86 106.38 144.81L142.61 121.37C143.51 120.79 143.8 119.6 143.28 118.66C140.59 113.89 134.62 112.07 129.73 114.53V114.54ZM50.5997 142.18L38.5497 141.85L39.4097 110.56L51.4597 110.89L50.5997 142.18ZM104.3 141.32C99.8897 143.31 94.9597 143.86 90.2197 142.89L65.2997 135.89C62.4897 135.1 59.4897 135.43 56.9297 136.81L54.7897 137.96L55.3597 117.16C62.1397 112.65 70.8297 112.19 78.0397 115.95L79.5297 116.72C82.1397 118.07 85.0197 118.81 87.9597 118.9L102.65 119.3C106.78 119.42 110.28 122.36 111.12 126.4L89.2397 125.8C88.1197 125.77 87.1797 126.65 87.1497 127.77C87.1197 128.89 87.9997 129.83 89.1197 129.86L113.27 130.52H113.33C114.43 130.52 115.33 129.64 115.36 128.54C115.38 127.66 115.32 126.77 115.16 125.9L131.48 118.19C131.48 118.19 131.51 118.18 131.53 118.17C133.84 117 136.64 117.39 138.55 119.15L104.29 141.31L104.3 141.32Z" fill="url(#paint0_linear_145_2)"/>
<path d="M139.96 55.07C141.06 53.77 141.72 52.09 141.72 50.25C141.72 46.14 138.39 42.79 134.29 42.79C133.15 42.79 132.07 43.05 131.11 43.51C129.86 42.24 128.56 41.02 127.21 39.87C127.52 39.04 127.7 38.15 127.7 37.21C127.7 33.1 124.37 29.75 120.27 29.75C118.26 29.75 116.43 30.56 115.09 31.86C106.97 27.84 97.9299 25.71 88.8199 25.71C79.7099 25.71 70.2599 27.93 61.9899 32.14C60.6299 30.67 58.6899 29.75 56.5399 29.75C52.4399 29.75 49.1099 33.1 49.1099 37.21C49.1099 38.35 49.3699 39.42 49.8199 40.39C47.8199 42.14 45.9299 44.03 44.1899 46.03C43.4999 46.82 43.5799 48.03 44.3699 48.72C44.7299 49.04 45.1799 49.19 45.6199 49.19C46.1499 49.19 46.6799 48.97 47.0599 48.54C48.6799 46.69 50.4299 44.94 52.2699 43.32C53.4799 44.17 54.9499 44.68 56.5399 44.68C59.4199 44.68 61.9199 43.02 63.1599 40.61C69.6499 42.49 75.8599 45.17 81.6399 48.61C81.4799 49.23 81.3899 49.87 81.3899 50.54C81.3899 51.75 81.6799 52.88 82.1899 53.89C77.4299 58.01 73.1299 62.67 69.3999 67.77C68.7399 67.58 68.0399 67.47 67.3199 67.47C64.3499 67.47 61.7799 69.23 60.5899 71.77C52.9899 71.81 45.3699 72.63 37.8799 74.21C37.2199 73 36.2299 72 35.0499 71.32C36.4599 65.84 38.6899 60.63 41.6899 55.81C42.2499 54.92 41.9699 53.74 41.0799 53.18C40.1899 52.62 39.0099 52.9 38.4499 53.79C35.2499 58.93 32.8799 64.49 31.3699 70.33C27.2699 70.33 23.9399 73.68 23.9399 77.79C23.9399 81.24 26.2899 84.15 29.4699 85C29.4699 85.12 29.4699 85.24 29.4699 85.36C29.4699 90.66 30.1699 95.87 31.5099 100.88C32.5499 100.06 33.7399 99.47 34.9999 99.14C33.8699 94.69 33.2899 90.07 33.2899 85.37C33.2899 85.25 33.2899 85.13 33.2899 85.01C36.4299 84.17 38.7599 81.32 38.8099 77.92C45.7799 76.46 52.8699 75.68 59.9299 75.59C60.0799 77.32 60.8199 78.87 61.9399 80.06C58.8699 86.25 56.5899 92.74 55.1399 99.39C56.4499 99.6 57.6699 100.08 58.7499 100.77C60.1099 94.34 62.2699 88.07 65.1999 82.08C65.8699 82.28 66.5899 82.39 67.3299 82.39C70.9299 82.39 73.9299 79.82 74.6199 76.41C83.1999 77.47 91.5599 79.55 99.6099 82.59C98.9199 84.54 98.5499 86.64 98.5399 88.82C98.5399 93.99 100.62 98.67 103.98 102.1C102.17 103.96 100.29 105.77 98.3599 107.49L103.01 107.62C103.28 107.62 103.54 107.64 103.81 107.66C104.87 106.65 105.91 105.61 106.93 104.55C109.95 106.59 113.59 107.78 117.51 107.78C123.14 107.78 128.21 105.31 131.68 101.4C133.43 102.88 135.14 104.4 136.8 105.98C139.23 106.31 141.54 107.14 143.61 108.39C146.61 101.19 148.21 93.38 148.21 85.36C148.21 74.66 145.37 64.22 139.99 55.06L139.96 55.07ZM56.5399 40.86C54.5399 40.86 52.9199 39.22 52.9199 37.21C52.9199 35.2 54.5399 33.56 56.5399 33.56C58.5399 33.56 60.1599 35.2 60.1599 37.21C60.1599 39.22 58.5399 40.86 56.5399 40.86ZM31.3499 81.44C29.3499 81.44 27.7299 79.8 27.7299 77.79C27.7299 75.78 29.3499 74.14 31.3499 74.14C33.3499 74.14 34.9699 75.78 34.9699 77.79C34.9699 79.8 33.3499 81.44 31.3499 81.44ZM67.3099 78.58C65.3099 78.58 63.6899 76.94 63.6899 74.93C63.6899 72.92 65.3099 71.28 67.3099 71.28C69.3099 71.28 70.9299 72.92 70.9299 74.93C70.9299 76.94 69.3099 78.58 67.3099 78.58ZM134.29 46.61C136.29 46.61 137.91 48.25 137.91 50.26C137.91 52.27 136.29 53.91 134.29 53.91C132.29 53.91 130.67 52.27 130.67 50.26C130.67 48.25 132.29 46.61 134.29 46.61ZM120.26 33.57C122.26 33.57 123.88 35.21 123.88 37.22C123.88 39.23 122.26 40.87 120.26 40.87C118.26 40.87 116.64 39.23 116.64 37.22C116.64 35.21 118.26 33.57 120.26 33.57ZM120.26 44.68C122.05 44.68 123.69 44.04 124.97 42.99C126.08 43.95 127.16 44.96 128.19 46C127.35 47.21 126.85 48.68 126.85 50.26C126.85 53.05 128.38 55.48 130.64 56.76C129.14 61.8 127.27 66.71 125.07 71.46C122.74 70.44 120.17 69.87 117.47 69.87C115.04 69.87 112.71 70.34 110.57 71.19C106.34 64.77 101.23 58.92 95.4399 53.9C95.9499 52.89 96.2399 51.75 96.2399 50.55C96.2399 49.88 96.1499 49.24 95.9899 48.62C101.56 45.31 107.52 42.7 113.75 40.83C115.02 43.13 117.46 44.69 120.26 44.69V44.68ZM63.9599 36.87C63.9399 36.41 63.8699 35.95 63.7699 35.52C71.4799 31.6 80.0999 29.54 88.8099 29.54C97.5199 29.54 105.6 31.48 113.12 35.16C112.94 35.78 112.84 36.44 112.83 37.12C106.26 39.07 99.9699 41.82 94.0999 45.3C92.7499 43.93 90.8799 43.08 88.8199 43.08C86.7599 43.08 84.8899 43.93 83.5399 45.3C77.4199 41.67 70.8499 38.84 63.9699 36.87H63.9599ZM92.4299 50.54C92.4299 52.55 90.8099 54.19 88.8099 54.19C86.8099 54.19 85.1899 52.55 85.1899 50.54C85.1899 48.53 86.8099 46.89 88.8099 46.89C90.8099 46.89 92.4299 48.53 92.4299 50.54ZM74.3399 72.54C73.9799 71.49 73.3999 70.55 72.6499 69.77C76.1699 64.99 80.2099 60.62 84.6899 56.75C85.8699 57.54 87.2799 58 88.7999 58C90.3199 58 91.7299 57.54 92.9099 56.75C98.3499 61.46 103.15 66.93 107.16 72.94C104.74 74.52 102.69 76.64 101.2 79.13C92.5499 75.84 83.5699 73.63 74.3299 72.54H74.3399ZM117.48 104.22C108.99 104.22 102.08 97.31 102.08 88.82C102.08 80.34 109 73.43 117.48 73.42C125.97 73.42 132.88 80.33 132.88 88.82C132.88 97.31 125.97 104.22 117.48 104.22ZM140.93 104.7C138.68 102.47 136.32 100.33 133.89 98.29C135.51 95.5 136.44 92.27 136.44 88.82C136.44 82.43 133.26 76.77 128.4 73.34C130.75 68.29 132.74 63.07 134.33 57.71C135.2 57.71 136.04 57.55 136.82 57.26C141.76 65.77 144.36 75.44 144.36 85.36C144.36 92.05 143.18 98.58 140.93 104.69V104.7Z" fill="url(#paint1_linear_145_2)"/>
<path d="M117.48 82.18C118.79 82.18 119.86 83.25 119.86 84.56C119.86 85.54 120.66 86.34 121.64 86.34C122.62 86.34 123.42 85.54 123.42 84.56C123.42 81.91 121.62 79.57 119.1 78.84V78.08C119.1 77.1 118.3 76.3 117.32 76.3C116.34 76.3 115.54 77.1 115.54 78.08V78.94C112.9 79.85 111.21 82.54 111.59 85.35C111.98 88.29 114.51 90.5 117.48 90.5C118.77 90.5 119.84 91.55 119.86 92.84C119.88 94.11 118.89 95.18 117.62 95.26C117.46 95.23 117.3 95.23 117.15 95.24C115.98 95.07 115.1 94.07 115.1 92.88C115.1 91.9 114.3 91.1 113.32 91.1C112.34 91.1 111.54 91.9 111.54 92.88C111.54 95.42 113.17 97.67 115.54 98.5V99.4C115.54 100.38 116.34 101.18 117.32 101.18C118.3 101.18 119.1 100.38 119.1 99.4V98.6C121.86 97.82 123.69 95.17 123.39 92.27C123.08 89.23 120.53 86.94 117.48 86.94C116.17 86.94 115.1 85.87 115.1 84.56C115.1 83.25 116.17 82.18 117.48 82.18Z" fill="url(#paint2_linear_145_2)"/>
<path d="M237.87 29.29C237.87 33.26 235.33 35.56 230.92 35.56H226.88V40.86H223.92V23.29H230.92C235.34 23.29 237.87 25.47 237.87 29.29ZM235.03 29.37C235.03 27.06 233.5 25.96 230.79 25.96H226.87V32.91H230.79C233.5 32.91 235.03 31.76 235.03 29.37Z" fill="white"/>
<path d="M251.95 40.86L248.74 35.54C248.49 35.56 248.21 35.56 247.94 35.56H243.77V40.86H240.81V23.29H247.94C252.43 23.29 255.02 25.47 255.02 29.29C255.02 32.1 253.71 34.08 251.38 34.99L255.32 40.86H251.96H251.95ZM247.93 32.9C250.64 32.9 252.2 31.75 252.2 29.36C252.2 26.97 250.64 25.95 247.93 25.95H243.76V32.9H247.93Z" fill="white"/>
<path d="M276.12 32.07C276.12 37.09 272.05 40.98 266.81 40.98C261.57 40.98 257.5 37.09 257.5 32.07C257.5 27.05 261.57 23.21 266.81 23.21C272.05 23.21 276.12 27.05 276.12 32.07ZM260.51 32.07C260.51 35.56 263.4 38.32 266.84 38.32C270.28 38.32 273.09 35.56 273.09 32.07C273.09 28.58 270.28 25.87 266.84 25.87C263.4 25.87 260.51 28.58 260.51 32.07Z" fill="white"/>
<path d="M295.58 32.07C295.58 37.14 291.74 40.86 286.42 40.86H279.29V23.29H286.49C291.76 23.29 295.58 26.98 295.58 32.08V32.07ZM292.59 32.09C292.59 28.5 289.9 25.94 286.44 25.94H282.25V38.19H286.57C289.98 38.19 292.59 35.65 292.59 32.09Z" fill="white"/>
<path d="M315.21 32.07C315.21 37.09 311.14 40.98 305.9 40.98C300.66 40.98 296.59 37.09 296.59 32.07C296.59 27.05 300.66 23.21 305.9 23.21C311.14 23.21 315.21 27.05 315.21 32.07ZM299.6 32.07C299.6 35.56 302.49 38.32 305.93 38.32C309.37 38.32 312.18 35.56 312.18 32.07C312.18 28.58 309.37 25.87 305.93 25.87C302.49 25.87 299.6 28.58 299.6 32.07Z" fill="white"/>
<path d="M321.89 23.29L327.69 34.96L333.46 23.29H336.95V40.86H334.21L334.18 27.73L328.63 39.03H326.7L321.15 27.73V40.86H318.36V23.29H321.87H321.89Z" fill="white"/>
<path d="M344.55 23.29V40.86H341.59V23.29H344.55Z" fill="white"/>
<path d="M352.08 23.29L361.49 35.92V23.29H364.4V40.86H361.49L352.13 28.26V40.86H349.17V23.29H352.08Z" fill="white"/>
<path d="M372.01 23.29V40.86H369.05V23.29H372.01Z" fill="white"/>
<path d="M384.46 25.85C380.95 25.85 378.19 28.56 378.19 32.02C378.19 35.48 380.95 38.22 384.46 38.22C386.22 38.22 388.02 37.42 389.35 36.14L391.11 38.1C389.33 39.86 386.79 40.99 384.31 40.99C379.16 40.99 375.17 37.1 375.17 32.05C375.17 27 379.21 23.21 384.41 23.21C386.9 23.21 389.38 24.24 391.09 25.92L389.36 28.08C388.08 26.7 386.25 25.85 384.47 25.85H384.46Z" fill="white"/>
<path d="M405.35 36.89H396.49L394.81 40.86H391.72L399.48 23.29H402.52L410.2 40.86H407.04L405.36 36.89H405.35ZM404.22 34.25L400.91 26.44L397.6 34.25H404.23H404.22Z" fill="white"/>
<path d="M415.44 23.29L424.85 35.92V23.29H427.76V40.86H424.85L415.49 28.26V40.86H412.53V23.29H415.44Z" fill="white"/>
<path d="M443.75 36.89H434.89L433.21 40.86H430.12L437.88 23.29H440.92L448.6 40.86H445.44L443.76 36.89H443.75ZM442.62 34.25L439.31 26.44L436 34.25H442.63H442.62Z" fill="white"/>
<path d="M464.01 25.9499C462.28 25.9499 461.15 26.5999 461.15 27.7799C461.15 31.6199 470.64 29.5599 470.61 35.8899C470.61 39.0299 467.85 40.9599 463.98 40.9599C461.22 40.9599 458.61 39.8299 456.8 38.1699L458.08 35.6099C459.89 37.2699 462.15 38.1699 464.03 38.1699C466.09 38.1699 467.32 37.3899 467.32 36.0399C467.32 32.1199 457.83 34.3099 457.83 28.0599C457.83 25.0499 460.42 23.1699 464.23 23.1699C466.51 23.1699 468.75 23.8999 470.38 24.9799L469.15 27.5899C467.24 26.4399 465.34 25.9599 464 25.9599L464.01 25.9499Z" fill="white"/>
<path d="M477.04 23.29V40.86H474.08V23.29H477.04Z" fill="white"/>
<path d="M484.57 23.29L493.98 35.92V23.29H496.89V40.86H493.98L484.62 28.26V40.86H481.66V23.29H484.57Z" fill="white"/>
<path d="M504.5 23.29V40.86H501.54V23.29H504.5Z" fill="white"/>
<path d="M512.63 23.29L518.43 34.96L524.2 23.29H527.69V40.86H524.95L524.92 27.73L519.37 39.03H517.44L511.89 27.73V40.86H509.1V23.29H512.61H512.63Z" fill="white"/>
</g>
<defs>
<linearGradient id="paint0_linear_145_2" x1="34.4397" y1="126.93" x2="143.55" y2="126.93" gradientUnits="userSpaceOnUse">
<stop stop-color="#AE4CFB"/>
<stop offset="0.55" stop-color="#00AEEF"/>
<stop offset="1" stop-color="#3AD77E"/>
</linearGradient>
<linearGradient id="paint1_linear_145_2" x1="23.9199" y1="67.05" x2="148.18" y2="67.05" gradientUnits="userSpaceOnUse">
<stop stop-color="#AE4CFB"/>
<stop offset="0.55" stop-color="#00AEEF"/>
<stop offset="1" stop-color="#3AD77E"/>
</linearGradient>
<linearGradient id="paint2_linear_145_2" x1="111.54" y1="88.74" x2="123.42" y2="88.74" gradientUnits="userSpaceOnUse">
<stop stop-color="#AE4CFB"/>
<stop offset="0.55" stop-color="#00AEEF"/>
<stop offset="1" stop-color="#3AD77E"/>
</linearGradient>
<clipPath id="clip0_145_2">
<rect width="1253.95" height="173.14" fill="white"/>
</clipPath>
</defs>
</svg>
