<svg width="553" height="516" viewBox="0 0 553 516" fill="none" xmlns="http://www.w3.org/2000/svg">
<g clip-path="url(#clip0_614_154)">
<path d="M372.634 365.415H174.326C157.657 365.415 144.096 351.854 144.096 335.185V136.877C144.096 120.208 157.657 106.647 174.326 106.647H372.634C389.302 106.647 402.863 120.208 402.863 136.877V335.185C402.863 351.854 389.302 365.415 372.634 365.415ZM174.326 111.484C160.301 111.484 148.932 122.853 148.932 136.877V335.185C148.932 349.209 160.301 360.578 174.326 360.578H313.235C360.064 360.578 398.027 322.616 398.027 275.787V136.877C398.027 122.853 386.658 111.484 372.634 111.484L174.326 111.484Z" fill="#F2F2F2"/>
<path d="M195.705 132.106C186.319 132.106 178.684 139.742 178.684 149.128V175.769C178.684 185.155 186.319 192.79 195.705 192.79H222.346C231.732 192.79 239.368 185.155 239.368 175.769V149.128C239.368 139.742 231.732 132.106 222.346 132.106H195.705Z" fill="#F2F2F2"/>
<path d="M195.705 207.106C186.319 207.106 178.684 214.742 178.684 224.128V250.769C178.684 260.155 186.319 267.79 195.705 267.79H222.346C231.732 267.79 239.368 260.155 239.368 250.769V224.128C239.368 214.742 231.732 207.106 222.346 207.106H195.705Z" fill="#F2F2F2"/>
<path d="M195.705 282.106C186.319 282.106 178.684 289.742 178.684 299.128V325.769C178.684 335.155 186.319 342.79 195.705 342.79H222.346C231.732 342.79 239.368 335.155 239.368 325.769V299.128C239.368 289.742 231.732 282.106 222.346 282.106H195.705Z" fill="#F2F2F2"/>
<path d="M213.371 67.1064C201.545 67.1064 191.924 76.7272 191.924 88.5536V122.123C191.924 133.949 201.545 143.57 213.371 143.57H246.94C258.767 143.57 268.387 133.949 268.387 122.123V88.5536C268.387 76.7272 258.767 67.1064 246.94 67.1064H213.371Z" fill="#072885"/>
<path d="M323.89 160.919C312.064 160.919 302.443 170.54 302.443 182.366V215.935C302.443 227.762 312.064 237.383 323.89 237.383H357.46C369.286 237.383 378.907 227.762 378.907 215.935V182.366C378.907 170.54 369.286 160.919 357.46 160.919H323.89Z" fill="#072885"/>
<path d="M275.842 498.808L269.023 498.751L266.004 471.833L276.069 471.918L275.842 498.808Z" fill="#A0616A"/>
<path d="M253.998 509.653C253.983 511.332 255.336 512.713 257.021 512.729L270.58 512.842L272.954 508.03L273.826 512.866L278.942 512.913L277.65 495.664L275.87 495.546L268.61 495.046L266.267 494.889L266.226 499.769L255.334 507.157C254.506 507.72 254.006 508.652 253.998 509.653Z" fill="#072885"/>
<path d="M310.54 498.808L303.72 498.751L300.701 471.833L310.766 471.918L310.54 498.808Z" fill="#A0616A"/>
<path d="M288.695 509.653C288.681 511.332 290.034 512.713 291.718 512.729L305.277 512.842L307.651 508.03L308.523 512.866L313.639 512.913L312.347 495.664L310.567 495.546L303.307 495.046L300.965 494.889L300.924 499.769L290.031 507.157C289.203 507.72 288.704 508.652 288.695 509.653Z" fill="#072885"/>
<path d="M249.082 281.179L276.725 282.052L302.914 287.871C302.914 287.871 300.295 291.072 309.024 299.802C309.024 299.802 320.664 320.171 312.516 339.957L309.024 419.105C309.024 419.105 319.205 474.899 311.426 492.656L301.146 493.299L283.749 419.749L275.27 340.539L271.196 418.523C271.196 418.523 286.781 472.05 276.94 493.299L265.805 492.656L246.754 418.523C246.754 418.523 238.606 332.974 239.77 316.679C240.934 300.384 249.082 281.179 249.082 281.179Z" fill="#072885"/>
<path d="M341.915 156.113C338.136 157.092 335.866 160.948 336.845 164.727C337.293 166.459 338.349 167.867 339.722 168.798L339.722 168.808L339.185 181.793L349.122 186.391L349.915 166.41L349.846 166.412C350.708 164.877 351.005 163.022 350.529 161.184C349.551 157.405 345.694 155.135 341.915 156.113Z" fill="#A0616A"/>
<path d="M286.378 202.455C284.291 200.386 283.08 197.58 283.035 194.53C282.974 190.438 285.024 186.723 288.52 184.595C292.546 182.143 297.58 182.391 301.345 185.226L332.548 208.719L338.108 174.875L350.045 178.718L347.197 222.788C346.997 225.87 345.255 228.586 342.536 230.052C339.817 231.518 336.591 231.481 333.906 229.954L288.813 204.299C287.907 203.783 287.091 203.162 286.378 202.455Z" fill="#08A6EC"/>
<path d="M238.799 137.182C240.793 140.538 239.69 144.875 236.335 146.869C234.797 147.783 233.055 148.04 231.425 147.734L231.419 147.742L222.657 157.34L212.363 153.61L225.868 138.862L225.916 138.912C226.385 137.215 227.479 135.689 229.111 134.718C232.467 132.723 236.804 133.827 238.799 137.182Z" fill="#A0616A"/>
<path d="M242.583 208.787L192.498 195.258C189.516 194.453 187.199 192.208 186.3 189.252C185.402 186.297 186.076 183.142 188.105 180.812L217.11 147.511L228.293 153.186L208.413 181.135L247.112 186.42C251.782 187.057 255.531 190.426 256.664 195.001C257.648 198.974 256.489 203.055 253.564 205.919C251.385 208.053 248.55 209.193 245.61 209.192C244.606 209.192 243.59 209.059 242.583 208.787Z" fill="#08A6EC"/>
<path d="M313.988 292.822L243.95 296.035C242.026 293.114 242.547 288.721 245.241 283.221C255.413 262.454 247.688 223.167 242.491 202.709C241.033 196.97 244.947 191.264 250.84 190.674L257.444 190.014L263.548 171.38H284.927L293.796 181.513L308.848 190.656C306.108 218.877 294.434 258.727 311.065 278.712C314.702 283.082 315.734 287.809 313.988 292.822Z" fill="#08A6EC"/>
<path d="M271.519 171.81C283.019 171.81 292.342 162.487 292.342 150.987C292.342 139.486 283.019 130.163 271.519 130.163C260.018 130.163 250.695 139.486 250.695 150.987C250.695 162.487 260.018 171.81 271.519 171.81Z" fill="#A0616A"/>
<path d="M295.082 137.658C297.979 127.095 266.403 118.037 260.266 126.544C259.413 125.334 256.26 124.6 254.813 124.971C253.366 125.342 252.15 126.269 250.962 127.167C249.33 128.421 247.638 129.719 246.637 131.522C245.628 133.318 245.472 135.766 246.83 137.324C247.906 138.563 249.796 145.148 251.414 145.474C252.541 145.704 253.491 145.89 254.307 146.023C255.034 144.962 256.888 143.629 256.755 142.346C257.853 143.073 257.452 144.352 257.23 145.66C256.493 150.013 239.884 183.715 249.397 173.784C250.339 174.34 251.504 174.86 252.847 175.334C255.125 171.899 256.994 167.848 258.226 163.612L258.235 163.69C258.659 167.372 261.349 170.392 264.909 171.424C279.189 175.561 290.739 169.49 294.712 158.544C293.258 155.591 292.624 155.912 292.754 155.824C294.57 154.6 297.066 155.4 297.846 157.446C298.076 158.049 298.285 158.564 298.467 158.952C300.537 151.547 302.999 152.616 295.082 137.658Z" fill="#072885"/>
<path d="M285.231 129.995L283.772 122.538C283.649 121.911 283.533 121.231 283.816 120.658C284.179 119.922 285.112 119.617 285.925 119.734C286.737 119.852 287.344 120.594 288.152 120.736C290.962 121.233 294.676 118.458 295.683 125.479C296.103 128.406 300.774 128.715 302.334 131.228C303.894 133.74 304.085 137.366 301.956 139.419C300.256 141.058 297.525 141.247 295.317 140.41C293.109 139.573 291.336 137.881 289.788 136.098C288.24 134.314 286.838 132.384 285.052 130.838" fill="#072885"/>
<path d="M296.194 141.337C290.496 140.541 286.612 138.468 284.65 135.178C282.082 130.87 283.802 126.128 283.877 125.928L285.081 126.375C285.065 126.419 283.505 130.761 285.761 134.531C287.515 137.464 291.086 139.326 296.371 140.064L296.194 141.337Z" fill="#072885"/>
<path d="M322.934 60.7623C306.183 60.7623 292.553 47.1323 292.553 30.3812C292.553 13.63 306.183 0 322.934 0C339.685 0 353.315 13.63 353.315 30.3812C353.315 47.1323 339.685 60.7623 322.934 60.7623ZM322.934 12.1525C312.882 12.1525 304.705 20.3293 304.705 30.3812C304.705 40.4331 312.882 48.6099 322.934 48.6099C332.986 48.6099 341.163 40.4331 341.163 30.3812C341.163 20.3293 332.986 12.1525 322.934 12.1525Z" fill="#072885"/>
<path d="M369.677 81.4092C368.188 81.4092 366.696 80.8663 365.524 79.7656L337.009 53.0426C334.558 50.7492 334.433 46.9041 336.73 44.4564C339.02 41.9998 342.865 41.8781 345.316 44.1775L373.831 70.9004C376.282 73.1938 376.406 77.039 374.11 79.4867C372.914 80.7654 371.297 81.4092 369.677 81.4092Z" fill="#072885"/>
<path d="M498.552 498.126C500.618 498.256 501.76 495.689 500.197 494.193L500.041 493.575C500.062 493.525 500.082 493.476 500.103 493.426C502.192 488.444 509.273 488.479 511.344 493.468C513.183 497.896 515.524 502.332 516.1 507.014C516.358 509.081 516.242 511.186 515.784 513.214C520.092 503.804 522.359 493.528 522.359 483.194C522.359 480.597 522.217 478.001 521.926 475.411C521.687 473.292 521.358 471.187 520.931 469.1C518.626 457.823 513.633 447.082 506.431 438.111C502.969 436.218 500.082 433.26 498.338 429.714C497.712 428.435 497.221 427.06 496.988 425.658C497.382 425.71 498.474 419.709 498.177 419.341C498.726 418.508 499.708 418.094 500.308 417.281C503.29 413.237 507.399 413.943 509.544 419.438C514.127 421.751 514.171 425.586 511.359 429.275C509.571 431.622 509.325 434.797 507.755 437.31C507.917 437.516 508.085 437.717 508.246 437.923C511.207 441.721 513.768 445.803 515.927 450.092C515.317 445.326 516.218 439.584 517.754 435.882C519.502 431.665 522.778 428.113 525.664 424.467C529.13 420.088 536.237 421.999 536.848 427.551C536.854 427.605 536.86 427.658 536.865 427.712C536.437 427.954 536.017 428.211 535.607 428.482C533.267 430.029 534.076 433.656 536.848 434.084L536.911 434.093C536.755 435.637 536.491 437.168 536.103 438.673C539.805 452.988 531.813 458.203 520.402 458.437C520.15 458.566 519.904 458.695 519.652 458.818C520.809 462.073 521.732 465.412 522.417 468.797C523.03 471.787 523.457 474.81 523.696 477.846C523.993 481.676 523.967 485.525 523.644 489.349L523.663 489.213C524.484 485.002 526.77 481.069 530.09 478.343C535.036 474.28 542.023 472.784 547.358 469.519C549.927 467.947 553.218 469.978 552.769 472.956L552.748 473.098C551.953 473.421 551.178 473.796 550.429 474.216C550 474.458 549.58 474.714 549.17 474.986C546.831 476.533 547.639 480.16 550.411 480.587L550.474 480.597C550.519 480.604 550.558 480.61 550.603 480.617C549.24 483.852 547.342 486.856 544.965 489.446C542.65 501.943 532.709 503.129 522.075 499.489H522.068C520.905 504.553 519.207 509.501 517.024 514.216H499.003C498.939 514.015 498.881 513.809 498.823 513.608C500.489 513.712 502.168 513.615 503.809 513.311C502.472 511.671 501.135 510.017 499.798 508.377C499.766 508.344 499.74 508.312 499.714 508.28C499.036 507.44 498.351 506.607 497.673 505.767L497.673 505.766C497.63 503.189 497.94 500.619 498.552 498.126Z" fill="#F2F2F2"/>
<path d="M0 514.269C0 514.929 0.53003 515.459 1.19006 515.459H551.48C552.14 515.459 552.67 514.929 552.67 514.269C552.67 513.609 552.14 513.079 551.48 513.079H1.19006C0.53003 513.079 0 513.609 0 514.269Z" fill="#CCCCCC"/>
</g>
<defs>
<clipPath id="clip0_614_154">
<rect width="552.81" height="515.459" fill="white"/>
</clipPath>
</defs>
</svg>
