<svg width="176" height="173" viewBox="0 0 176 173" fill="none" xmlns="http://www.w3.org/2000/svg">
<g clip-path="url(#clip0_310_105)">
<path d="M128.23 0H44.91C20.1069 0 0 20.1069 0 44.91V128.23C0 153.033 20.1069 173.14 44.91 173.14H128.23C153.033 173.14 173.14 153.033 173.14 128.23V44.91C173.14 20.1069 153.033 0 128.23 0Z" fill="white"/>
<path d="M90.6202 146.83H83.1602V145.05C83.1402 129.32 63.2202 122.55 53.3102 134.47L42.7302 123.89C49.8802 117.84 50.7702 107.13 44.7202 99.9799C41.1802 95.7899 35.8302 93.5799 30.3602 94.0299V79.1099C39.6802 79.9299 47.9002 73.0299 48.7202 63.7099C49.2002 58.1999 46.9702 52.8099 42.7302 49.2499L53.3102 38.6699C59.2802 45.8599 69.9402 46.8399 77.1302 40.8799C81.4202 37.3199 83.6802 31.8699 83.1702 26.3099H90.6302C91.9102 26.2899 92.9302 25.2299 92.9102 23.9499C92.8902 22.6999 91.8802 21.6899 90.6302 21.6699H80.8502C79.5702 21.6699 78.5302 22.7099 78.5302 23.9899V28.0899C78.4502 34.8099 72.9302 40.1999 66.2002 40.1099C63.0502 40.0699 60.0402 38.8099 57.8002 36.5999L54.9502 33.7499C54.0402 32.8499 52.5802 32.8499 51.6702 33.7499L37.8102 47.6099C35.5602 49.8099 39.3602 52.2499 40.7002 53.7599C48.2702 61.0199 42.6102 74.7099 32.1202 74.4699H28.0402C26.7602 74.4699 25.7202 75.5099 25.7202 76.7899V96.3499C25.7202 97.6299 26.7602 98.6699 28.0402 98.6699H32.1402C42.6202 98.4299 48.2502 112.13 40.7102 119.37L37.8102 122.24C36.9102 123.15 36.9002 124.61 37.8102 125.52L51.6702 139.38C52.5902 140.25 54.0302 140.25 54.9502 139.38L57.8002 136.52C62.5902 131.8 70.3002 131.86 75.0202 136.64C77.2302 138.88 78.4802 141.89 78.5202 145.03V149.13C78.5202 150.41 79.5602 151.45 80.8402 151.45H90.6202C91.9002 151.43 92.9202 150.37 92.8902 149.09C92.8702 147.84 91.8602 146.84 90.6202 146.82V146.83Z" fill="url(#paint0_linear_310_105)"/>
<path d="M80.84 151.96C79.28 151.96 78.02 150.69 78.02 149.14V145.04C77.98 142.01 76.79 139.16 74.66 137C72.47 134.78 69.55 133.54 66.43 133.52C63.31 133.53 60.37 134.69 58.15 136.88L55.3 139.73C54.18 140.79 52.44 140.79 51.33 139.73L37.46 125.86C36.37 124.76 36.37 122.97 37.46 121.87L40.36 119C44.37 115.15 44.21 109.95 42.72 106.36C41.24 102.79 37.69 99.0099 32.16 99.1499H28.05C26.49 99.1499 25.23 97.8799 25.23 96.3299V76.7699C25.23 76.0199 25.52 75.3099 26.06 74.7799C26.59 74.2499 27.3 73.9599 28.05 73.9599H32.13C37.69 74.0699 41.24 70.3099 42.72 66.7399C44.21 63.1599 44.37 57.9499 40.36 54.1099C40.08 53.7999 39.72 53.4699 39.34 53.1099C38.14 51.9999 36.64 50.6199 36.62 49.1099C36.62 48.4299 36.9 47.7999 37.47 47.2499L51.33 33.3899C52.43 32.2999 54.22 32.2999 55.31 33.3899L58.16 36.2399C60.32 38.3699 63.18 39.5599 66.21 39.5999C69.34 39.6199 72.28 38.4599 74.51 36.2799C76.74 34.0999 77.99 31.1899 78.03 28.0699V23.9799C78.03 22.4199 79.29 21.1599 80.85 21.1599H90.63C92.17 21.1899 93.38 22.3999 93.41 23.9299C93.42 24.6799 93.14 25.3999 92.62 25.9399C92.1 26.4799 91.39 26.7899 90.64 26.7999H83.71C84.05 32.3299 81.73 37.6999 77.45 41.2499C73.87 44.2199 69.35 45.6199 64.72 45.1899C60.27 44.7799 56.23 42.7199 53.29 39.3899L43.47 49.1999C47.56 52.8499 49.7 58.2399 49.22 63.7299C48.81 68.3699 46.62 72.5799 43.06 75.5699C39.63 78.4499 35.32 79.8799 30.87 79.6199V93.4699C36.29 93.1899 41.59 95.4699 45.11 99.6299C51.21 106.84 50.44 117.61 43.47 123.89L53.29 133.71C58.03 128.35 65.44 126.48 72.31 128.96C79.31 131.49 83.66 137.64 83.67 145.02V146.3H90.64C92.16 146.33 93.38 147.54 93.41 149.07C93.44 150.62 92.2 151.91 90.64 151.94H80.85L80.84 151.96ZM66.35 132.52C69.63 132.52 72.9 133.78 75.38 136.29C77.69 138.63 78.99 141.74 79.03 145.03V149.14C79.03 150.14 79.84 150.96 80.85 150.96H90.63C91.62 150.94 92.42 150.11 92.4 149.11C92.38 148.13 91.6 147.35 90.62 147.33H82.66V145.05C82.66 138.1 78.55 132.31 71.96 129.93C65.31 127.53 58.14 129.44 53.69 134.79L53.34 135.21L41.99 123.86L42.4 123.51C49.33 117.65 50.2 107.24 44.33 100.3C40.9 96.2399 35.69 94.0899 30.39 94.5299L29.85 94.5799V78.5699L30.39 78.6199C39.42 79.4199 47.41 72.6999 48.2 63.6699C48.67 58.3299 46.49 53.0899 42.39 49.6399L41.97 49.2899L53.32 37.9399L53.67 38.3599C56.47 41.7299 60.42 43.8099 64.78 44.2199C69.15 44.6199 73.41 43.2999 76.78 40.4999C80.95 37.0399 83.14 31.7499 82.64 26.3599L82.59 25.8099H90.6C91.08 25.8099 91.53 25.5999 91.87 25.2599C92.21 24.9099 92.39 24.4499 92.38 23.9699C92.36 22.9799 91.58 22.1999 90.59 22.1799H80.82C79.82 22.1799 79 22.9899 79 23.9999V28.0999C78.96 31.4899 77.6 34.6599 75.17 37.0199C72.75 39.3799 69.55 40.6399 66.16 40.6199C62.87 40.5799 59.76 39.2799 57.42 36.9699L54.57 34.1199C53.86 33.4199 52.71 33.4199 52 34.1199L38.14 47.9799C37.76 48.3499 37.58 48.7199 37.59 49.1199C37.61 50.1999 38.93 51.4199 39.99 52.3999C40.39 52.7699 40.77 53.1199 41.05 53.4399C44.68 56.9199 45.68 62.1799 43.62 67.1499C41.56 72.0999 37.15 75.0899 32.09 74.9899H28.02C27.54 74.9899 27.08 75.1799 26.74 75.5199C26.4 75.8599 26.21 76.3199 26.21 76.7999V96.3599C26.21 97.3599 27.02 98.1799 28.03 98.1799H32.13C37.16 98.0799 41.57 101.06 43.62 106C45.65 110.89 44.64 116.28 41.04 119.74L38.15 122.61C37.44 123.32 37.44 124.48 38.15 125.19L52.01 139.05C52.73 139.73 53.86 139.73 54.59 139.05L57.43 136.2C59.9 133.77 63.12 132.56 66.33 132.56L66.35 132.52Z" fill="url(#paint1_linear_310_105)"/>
<path d="M90.6198 52.96C72.0598 52.96 57.0098 68 57.0098 86.57C57.0098 105.13 72.0598 120.18 90.6198 120.18C91.8998 120.16 92.9198 119.1 92.8898 117.82C92.8698 116.57 91.8598 115.57 90.6198 115.55C52.1798 113.96 52.1998 59.19 90.6198 57.61C91.8998 57.59 92.9198 56.54 92.8998 55.26C92.8798 54.01 91.8698 52.99 90.6198 52.98V52.96Z" fill="url(#paint2_linear_310_105)"/>
<path d="M90.6198 120.68C81.4998 120.68 72.9398 117.13 66.4998 110.69C60.0598 104.25 56.5098 95.68 56.5098 86.57C56.5098 67.76 71.8098 52.46 90.6198 52.46C92.1498 52.48 93.3698 53.7 93.3998 55.24C93.4098 55.99 93.1298 56.7 92.5998 57.24C92.0698 57.78 91.3698 58.08 90.6198 58.09C76.9798 58.65 62.2898 67.8 62.2898 86.56C62.2898 99.71 71.1598 114.23 90.6298 115.03C92.1398 115.06 93.3498 116.27 93.3798 117.79C93.3898 118.54 93.1098 119.26 92.5898 119.8C92.0698 120.34 91.3698 120.65 90.6098 120.66H90.5998L90.6198 120.68ZM90.6198 53.47C72.3598 53.47 57.5098 68.32 57.5098 86.58C57.5098 95.43 60.9498 103.74 67.2098 109.99C73.4598 116.24 81.7698 119.68 90.6098 119.68H90.6198C91.0998 119.68 91.5498 119.47 91.8898 119.12C92.2298 118.77 92.4098 118.31 92.3998 117.83C92.3798 116.85 91.5998 116.06 90.6198 116.05C70.4698 115.22 61.3098 100.19 61.3098 86.58C61.3098 72.97 70.4798 57.94 90.6098 57.11C91.1098 57.11 91.5598 56.91 91.8998 56.56C92.2398 56.21 92.4198 55.75 92.4098 55.27C92.3998 54.28 91.6098 53.5 90.6198 53.48V53.47Z" fill="url(#paint3_linear_310_105)"/>
<path d="M88.3101 69.0497C88.3101 70.3297 89.3501 71.3697 90.6301 71.3697H102.6C107.19 71.3697 111.59 69.5297 114.84 66.2797L124.67 56.4797C128.79 58.7897 134.01 57.3097 136.31 53.1897C138.62 49.0697 137.14 43.8497 133.02 41.5497C128.9 39.2397 123.68 40.7197 121.38 44.8397C119.93 47.4397 119.93 50.6097 121.39 53.2097L111.56 63.0197C109.19 65.3997 105.97 66.7397 102.61 66.7397H90.6401C89.3601 66.7397 88.3201 67.7797 88.3201 69.0597L88.3101 69.0497ZM128.82 45.0897C131 45.1197 132.74 46.8997 132.71 49.0797C132.68 51.2197 130.96 52.9397 128.82 52.9697C126.64 52.9497 124.9 51.1697 124.92 48.9897C124.94 46.8497 126.67 45.1097 128.82 45.0897Z" fill="url(#paint4_linear_310_105)"/>
<path d="M102.59 71.8698H90.6201C89.8601 71.8698 89.1601 71.5798 88.6301 71.0398C88.1001 70.5098 87.8101 69.7998 87.8101 69.0498C87.8101 68.2898 88.1001 67.5898 88.6401 67.0598C89.1701 66.5298 89.8801 66.2398 90.6301 66.2398H102.6C105.85 66.2398 108.9 64.9698 111.2 62.6698L120.77 53.1298C119.42 50.4598 119.47 47.2298 120.94 44.6098C122.12 42.4998 124.05 40.9698 126.38 40.3198C128.71 39.6598 131.15 39.9498 133.26 41.1298C135.37 42.3098 136.9 44.2398 137.56 46.5698C138.22 48.8998 137.93 51.3398 136.75 53.4498C135.57 55.5598 133.64 57.0898 131.31 57.7398C129.1 58.3598 126.79 58.1398 124.76 57.1098L115.19 66.6498C111.83 70.0198 107.36 71.8698 102.6 71.8798L102.59 71.8698ZM90.6201 67.2298C90.1401 67.2298 89.6801 67.4198 89.3401 67.7598C89.0001 68.0998 88.8101 68.5598 88.8101 69.0398C88.8101 69.5298 89.0001 69.9798 89.3401 70.3298C89.6801 70.6698 90.1401 70.8598 90.6201 70.8598H102.59C107.08 70.8598 111.3 69.0998 114.47 65.9198L124.57 55.8498L124.9 56.0298C126.78 57.0798 128.95 57.3398 131.02 56.7498C133.09 56.1598 134.81 54.8098 135.86 52.9298C136.91 51.0498 137.17 48.8798 136.58 46.8098C135.99 44.7398 134.64 43.0198 132.76 41.9698C130.88 40.9198 128.71 40.6598 126.64 41.2498C124.57 41.8398 122.85 43.1898 121.8 45.0698C120.44 47.4998 120.44 50.5198 121.81 52.9498L122 53.2798L111.9 63.3498C109.42 65.8398 106.11 67.2098 102.59 67.2198H90.6201V67.2298ZM128.82 53.4598C127.62 53.4498 126.51 52.9698 125.68 52.1298C124.85 51.2798 124.4 50.1598 124.41 48.9798C124.43 46.5798 126.41 44.6098 128.8 44.5898H128.81C130 44.6098 131.1 45.0798 131.93 45.9298C132.76 46.7798 133.21 47.8998 133.19 49.0898C133.16 51.5198 131.23 53.4398 128.81 53.4698L128.82 53.4598ZM128.82 45.5798C126.97 45.5998 125.44 47.1298 125.42 48.9798C125.42 49.8998 125.76 50.7698 126.4 51.4198C127.04 52.0798 127.9 52.4398 128.82 52.4498C130.69 52.4298 132.18 50.9298 132.2 49.0498C132.21 48.1298 131.87 47.2598 131.22 46.6098C130.58 45.9498 129.72 45.5798 128.81 45.5698L128.82 45.5798Z" fill="url(#paint5_linear_310_105)"/>
<path d="M138.83 77.99C135 78 131.64 80.56 130.61 84.25H90.6198C89.3398 84.28 88.3298 85.35 88.3698 86.63C88.3998 87.86 89.3898 88.85 90.6198 88.88H130.61C131.9 93.43 136.63 96.07 141.18 94.78C145.73 93.49 148.37 88.76 147.08 84.21C146.03 80.52 142.66 77.98 138.83 77.99ZM138.83 90.51C136.65 90.51 134.89 88.75 134.89 86.57C134.89 84.39 136.65 82.63 138.83 82.63C141.01 82.67 142.74 84.47 142.7 86.64C142.66 88.76 140.95 90.47 138.83 90.51Z" fill="url(#paint6_linear_310_105)"/>
<path d="M138.84 95.61C137.32 95.61 135.81 95.22 134.44 94.46C132.44 93.34 130.96 91.55 130.25 89.39H90.6299C89.1199 89.35 87.9199 88.15 87.8799 86.65C87.8399 85.1 89.0699 83.8 90.6199 83.76H130.25C131.45 80.07 134.93 77.52 138.83 77.5H138.85C142.88 77.5 146.46 80.21 147.56 84.09C148.22 86.42 147.93 88.86 146.76 90.98C145.58 93.09 143.65 94.62 141.32 95.28C140.5 95.51 139.66 95.63 138.83 95.63L138.84 95.61ZM130.62 88.38H131L131.1 88.74C131.69 90.81 133.05 92.53 134.93 93.58C136.81 94.63 138.99 94.88 141.06 94.3C143.13 93.71 144.85 92.35 145.9 90.47C146.95 88.59 147.2 86.41 146.62 84.34C145.64 80.89 142.45 78.48 138.87 78.48H138.85C135.26 78.49 132.08 80.92 131.11 84.37L131.01 84.74H90.6399C89.6499 84.77 88.8599 85.6 88.8899 86.61C88.9199 87.58 89.6899 88.35 90.6599 88.38H130.64H130.62ZM138.84 91C136.39 91 134.4 89.01 134.4 86.56C134.4 85.37 134.86 84.26 135.7 83.42C136.54 82.58 137.65 82.12 138.84 82.12C140.04 82.14 141.14 82.62 141.97 83.48C142.79 84.33 143.24 85.46 143.21 86.64C143.17 89.04 141.25 90.96 138.85 91H138.84ZM138.83 83.12C137.92 83.12 137.06 83.48 136.41 84.13C135.76 84.78 135.4 85.64 135.4 86.56C135.4 88.46 136.94 90 138.84 90C140.7 89.96 142.18 88.48 142.21 86.62C142.23 85.7 141.88 84.83 141.25 84.17C140.62 83.51 139.75 83.14 138.84 83.12H138.83Z" fill="url(#paint7_linear_310_105)"/>
<path d="M128.82 115.54C127.36 115.54 125.93 115.94 124.66 116.66L114.84 106.87C111.59 103.61 107.19 101.78 102.59 101.77H90.6201C89.3401 101.79 88.3201 102.84 88.3401 104.12C88.3601 105.37 89.3701 106.38 90.6201 106.4H102.59C105.96 106.4 109.18 107.75 111.56 110.13L121.38 119.92C119.07 124.06 120.55 129.28 124.69 131.59C128.83 133.9 134.05 132.42 136.36 128.28C138.67 124.14 137.19 118.92 133.05 116.61C131.76 115.89 130.3 115.52 128.83 115.52L128.82 115.54ZM128.82 128.05C126.64 128 124.92 126.2 124.96 124.03C125 121.92 126.71 120.22 128.82 120.17C130.99 120.23 132.71 122.05 132.64 124.22C132.58 126.31 130.9 127.98 128.82 128.04V128.05Z" fill="url(#paint8_linear_310_105)"/>
<path d="M128.85 133.19C127.32 133.19 125.81 132.8 124.44 132.04C122.32 130.86 120.79 128.92 120.13 126.59C119.5 124.38 119.73 122.07 120.76 120.03L111.2 110.5C108.9 108.19 105.84 106.92 102.59 106.91H90.6201C89.0801 106.89 87.8601 105.67 87.8401 104.14C87.8301 103.39 88.1101 102.68 88.6301 102.13C89.1501 101.58 89.8601 101.29 90.6101 101.27H102.59C107.35 101.27 111.83 103.14 115.19 106.51L124.74 116.04C125.99 115.39 127.39 115.04 128.81 115.03C130.37 115.03 131.92 115.42 133.28 116.18C135.4 117.36 136.93 119.3 137.59 121.63C138.25 123.96 137.97 126.41 136.79 128.53C135.61 130.65 133.67 132.18 131.34 132.84C130.52 133.07 129.68 133.19 128.85 133.19ZM102.59 105.91C106.11 105.91 109.42 107.29 111.91 109.79L122 119.85L121.82 120.18C120.77 122.06 120.51 124.24 121.1 126.32C121.69 128.39 123.05 130.12 124.93 131.17C126.81 132.22 128.99 132.48 131.07 131.89C133.14 131.3 134.87 129.94 135.92 128.06C136.97 126.18 137.23 124 136.64 121.92C136.05 119.85 134.69 118.12 132.81 117.07C131.6 116.39 130.21 116.04 128.83 116.05C127.46 116.05 126.11 116.42 124.92 117.11L124.59 117.3L114.5 107.24C111.32 104.05 107.1 102.3 102.6 102.29H90.6301C90.1501 102.29 89.7001 102.49 89.3601 102.84C89.0201 103.19 88.8401 103.65 88.8501 104.13C88.8701 105.12 89.6501 105.9 90.6401 105.92H102.6L102.59 105.91ZM128.82 128.55H128.81C126.36 128.5 124.41 126.47 124.46 124.02C124.51 121.63 126.42 119.72 128.81 119.67C130.02 119.7 131.12 120.2 131.94 121.06C132.75 121.92 133.18 123.05 133.15 124.24C133.08 126.59 131.19 128.48 128.84 128.55H128.83H128.82ZM128.8 120.67C126.98 120.71 125.5 122.19 125.46 124.04C125.42 125.93 126.92 127.5 128.81 127.55C130.62 127.49 132.08 126.02 132.14 124.21C132.17 123.29 131.83 122.42 131.2 121.75C130.57 121.08 129.72 120.7 128.8 120.67Z" fill="url(#paint9_linear_310_105)"/>
</g>
<defs>
<linearGradient id="paint0_linear_310_105" x1="25.7302" y1="86.5699" x2="92.9002" y2="86.5699" gradientUnits="userSpaceOnUse">
<stop stop-color="#AE4CFB"/>
<stop offset="0.55" stop-color="#00AEEF"/>
<stop offset="1" stop-color="#3AD77E"/>
</linearGradient>
<linearGradient id="paint1_linear_310_105" x1="25.23" y1="86.5699" x2="93.4" y2="86.5699" gradientUnits="userSpaceOnUse">
<stop stop-color="#AE4CFB"/>
<stop offset="0.55" stop-color="#00AEEF"/>
<stop offset="1" stop-color="#3AD77E"/>
</linearGradient>
<linearGradient id="paint2_linear_310_105" x1="57.0098" y1="86.57" x2="92.9098" y2="86.57" gradientUnits="userSpaceOnUse">
<stop stop-color="#AE4CFB"/>
<stop offset="0.55" stop-color="#00AEEF"/>
<stop offset="1" stop-color="#3AD77E"/>
</linearGradient>
<linearGradient id="paint3_linear_310_105" x1="56.5098" y1="86.57" x2="93.4098" y2="86.57" gradientUnits="userSpaceOnUse">
<stop stop-color="#AE4CFB"/>
<stop offset="0.55" stop-color="#00AEEF"/>
<stop offset="1" stop-color="#3AD77E"/>
</linearGradient>
<linearGradient id="paint4_linear_310_105" x1="88.3101" y1="55.9097" x2="137.39" y2="55.9097" gradientUnits="userSpaceOnUse">
<stop stop-color="#AE4CFB"/>
<stop offset="0.55" stop-color="#00AEEF"/>
<stop offset="1" stop-color="#3AD77E"/>
</linearGradient>
<linearGradient id="paint5_linear_310_105" x1="87.8101" y1="55.9098" x2="137.9" y2="55.9098" gradientUnits="userSpaceOnUse">
<stop stop-color="#AE4CFB"/>
<stop offset="0.55" stop-color="#00AEEF"/>
<stop offset="1" stop-color="#3AD77E"/>
</linearGradient>
<linearGradient id="paint6_linear_310_105" x1="88.3698" y1="86.55" x2="147.41" y2="86.55" gradientUnits="userSpaceOnUse">
<stop stop-color="#AE4CFB"/>
<stop offset="0.55" stop-color="#00AEEF"/>
<stop offset="1" stop-color="#3AD77E"/>
</linearGradient>
<linearGradient id="paint7_linear_310_105" x1="87.8699" y1="86.55" x2="147.91" y2="86.55" gradientUnits="userSpaceOnUse">
<stop stop-color="#AE4CFB"/>
<stop offset="0.55" stop-color="#00AEEF"/>
<stop offset="1" stop-color="#3AD77E"/>
</linearGradient>
<linearGradient id="paint8_linear_310_105" x1="88.3401" y1="117.23" x2="137.44" y2="117.23" gradientUnits="userSpaceOnUse">
<stop stop-color="#AE4CFB"/>
<stop offset="0.55" stop-color="#00AEEF"/>
<stop offset="1" stop-color="#3AD77E"/>
</linearGradient>
<linearGradient id="paint9_linear_310_105" x1="87.8401" y1="117.23" x2="137.95" y2="117.23" gradientUnits="userSpaceOnUse">
<stop stop-color="#AE4CFB"/>
<stop offset="0.55" stop-color="#00AEEF"/>
<stop offset="1" stop-color="#3AD77E"/>
</linearGradient>
<clipPath id="clip0_310_105">
<rect width="176" height="173" fill="white"/>
</clipPath>
</defs>
</svg>
