<svg width="173" height="173" viewBox="0 0 173 173" fill="none" xmlns="http://www.w3.org/2000/svg">
<path d="M115.417 131.604C119.519 131.604 122.864 128.256 122.864 124.15V121.052H136.48C137.677 121.052 138.656 120.073 138.656 118.874C138.656 117.675 137.677 116.696 136.48 116.696C135.671 116.696 135.012 116.036 135.012 115.227V99.9393C135.012 91.9058 130.161 84.9814 123.233 81.9538V56.4944C123.233 56.4245 123.233 56.3645 123.233 56.3046C123.233 56.2946 123.233 56.2746 123.233 56.2646C123.233 56.1947 123.213 56.1247 123.203 56.0548C123.203 56.0348 123.193 56.0148 123.183 55.9948C123.173 55.9449 123.163 55.8949 123.143 55.8449C123.133 55.815 123.123 55.775 123.103 55.745C123.093 55.715 123.083 55.6751 123.063 55.6451C123.043 55.5951 123.023 55.5552 122.993 55.5052C122.993 55.4852 122.973 55.4653 122.963 55.4553C122.933 55.3953 122.893 55.3354 122.854 55.2754C122.854 55.2654 122.834 55.2554 122.824 55.2454C122.794 55.1955 122.754 55.1555 122.724 55.1055C122.724 55.1055 122.694 55.0656 122.674 55.0456C122.644 55.0156 122.614 54.9856 122.584 54.9557C122.554 54.9257 122.524 54.9057 122.504 54.8757C122.484 54.8557 122.454 54.8358 122.434 54.8158C122.404 54.7858 122.364 54.7658 122.334 54.7458C122.314 54.7259 122.285 54.7159 122.265 54.6959C122.235 54.6759 122.195 54.6559 122.165 54.6359C122.135 54.6159 122.115 54.6059 122.085 54.586C122.055 54.566 122.015 54.556 121.985 54.536C121.955 54.526 121.925 54.506 121.895 54.496C121.865 54.486 121.835 54.4761 121.795 54.4561C121.765 54.4461 121.726 54.4361 121.696 54.4161C121.666 54.4161 121.636 54.3961 121.596 54.3861C121.556 54.3861 121.526 54.3661 121.486 54.3562C121.446 54.3562 121.416 54.3462 121.376 54.3362C121.346 54.3362 121.306 54.3262 121.276 54.3262C121.226 54.3262 121.176 54.3262 121.127 54.3262C121.107 54.3262 121.087 54.3262 121.067 54.3262H51.3495C51.3495 54.3262 51.2996 54.3262 51.2796 54.3262C51.2297 54.3262 51.1898 54.3262 51.1399 54.3262C51.1099 54.3262 51.07 54.3262 51.0401 54.3362C51.0001 54.3362 50.9702 54.3362 50.9302 54.3562C50.8903 54.3562 50.8604 54.3761 50.8204 54.3861C50.7905 54.3861 50.7605 54.4061 50.7206 54.4061C50.6807 54.4161 50.6507 54.4261 50.6208 54.4461C50.5908 54.4561 50.5509 54.4661 50.521 54.486C50.491 54.496 50.4611 54.516 50.4311 54.526C50.4012 54.546 50.3612 54.556 50.3313 54.576C50.3014 54.586 50.2814 54.6059 50.2514 54.6159C50.2115 54.6359 50.1816 54.6559 50.1416 54.6759C50.1217 54.6959 50.0917 54.7059 50.0718 54.7258C50.0418 54.7458 50.0019 54.7758 49.9719 54.7958C49.942 54.8158 49.922 54.8358 49.9021 54.8557C49.8721 54.8857 49.8422 54.9057 49.8222 54.9357C49.7923 54.9657 49.7623 54.9956 49.7324 55.0256C49.7124 55.0456 49.7024 55.0656 49.6824 55.0756C49.6425 55.1255 49.6126 55.1755 49.5826 55.2254C49.5826 55.2354 49.5627 55.2454 49.5527 55.2554C49.5127 55.3154 49.4728 55.3753 49.4429 55.4353C49.4429 55.4553 49.4229 55.4752 49.4129 55.4852C49.393 55.5352 49.363 55.5752 49.343 55.6251C49.3331 55.6551 49.3231 55.6951 49.3031 55.725C49.2931 55.755 49.2732 55.795 49.2632 55.825C49.2432 55.8749 49.2332 55.9249 49.2233 55.9748C49.2233 55.9948 49.2133 56.0148 49.2033 56.0348C49.1933 56.1047 49.1733 56.1747 49.1733 56.2446C49.1733 56.2546 49.1733 56.2746 49.1733 56.2846C49.1733 56.3445 49.1733 56.4045 49.1733 56.4644V100.918C49.1733 102.117 50.1516 103.097 51.3495 103.097H95.8311V115.207C95.8311 116.016 95.1723 116.676 94.3637 116.676C93.1658 116.676 92.1876 117.655 92.1876 118.854C92.1876 120.053 93.1658 121.032 94.3637 121.032H107.98V124.13C107.98 128.236 111.324 131.584 115.427 131.584L115.417 131.604ZM118.511 124.15C118.511 125.858 117.124 127.247 115.417 127.247C113.71 127.247 112.322 125.858 112.322 124.15V121.052H118.511V124.15ZM86.1981 82.943L57.319 58.6627H115.077L86.1981 82.943ZM53.5157 61.1606L84.8006 87.4594C84.8006 87.4594 84.8305 87.4793 84.8505 87.4993C84.8804 87.5193 84.9004 87.5393 84.9303 87.5593C84.9703 87.5893 85.0002 87.6092 85.0401 87.6292C85.0601 87.6492 85.0901 87.6592 85.11 87.6792C85.1699 87.7191 85.2298 87.7491 85.2997 87.7791C85.2997 87.7791 85.3097 87.7791 85.3197 87.7791C85.3796 87.8091 85.4394 87.8291 85.4993 87.849C85.5193 87.849 85.5393 87.859 85.5592 87.869C85.6091 87.889 85.6591 87.899 85.709 87.909C85.7289 87.909 85.7489 87.909 85.7689 87.919C85.8188 87.929 85.8787 87.939 85.9286 87.949C85.9485 87.949 85.9685 87.949 85.9885 87.949C86.0584 87.949 86.1282 87.959 86.1981 87.959C86.268 87.959 86.3379 87.959 86.4077 87.949C86.4277 87.949 86.4477 87.949 86.4676 87.949C86.5175 87.949 86.5774 87.929 86.6273 87.919C86.6473 87.919 86.6673 87.919 86.6872 87.909C86.7372 87.899 86.7871 87.879 86.847 87.869C86.8669 87.869 86.8869 87.859 86.9069 87.849C86.9668 87.8291 87.0366 87.7991 87.0965 87.7791C87.0965 87.7791 87.1065 87.7791 87.1165 87.7791C87.1764 87.7491 87.2463 87.7191 87.3062 87.6792C87.3261 87.6692 87.3561 87.6492 87.376 87.6392C87.416 87.6192 87.4459 87.5893 87.4858 87.5693C87.5158 87.5493 87.5358 87.5293 87.5657 87.5093C87.5857 87.4993 87.5956 87.4893 87.6156 87.4694L118.9 61.1706V80.6449C117.772 80.445 116.625 80.3351 115.437 80.3351C105.025 80.3351 96.49 88.4985 95.881 98.7702H53.5357V61.1806L53.5157 61.1606ZM100.173 115.217V99.9293C100.173 91.5161 107.011 84.6716 115.417 84.6716C123.822 84.6716 130.66 91.5161 130.66 99.9293V115.217C130.66 115.726 130.73 116.216 130.849 116.686H99.9838C100.104 116.216 100.173 115.726 100.173 115.217Z" fill="white"/>
<path d="M93.6448 139.567C82.6342 139.567 73.68 130.605 73.68 119.584C73.68 118.384 72.7017 117.405 71.5038 117.405C70.3059 117.405 69.3276 118.384 69.3276 119.584C69.3276 133.003 80.2384 143.924 93.6448 143.924C94.8427 143.924 95.821 142.945 95.821 141.746C95.821 140.547 94.8427 139.567 93.6448 139.567Z" fill="white"/>
<path d="M93.645 128.946C88.4841 128.946 84.2815 124.739 84.2815 119.574C84.2815 118.374 83.3033 117.395 82.1054 117.395C80.9075 117.395 79.9292 118.374 79.9292 119.574C79.9292 127.147 86.0784 133.302 93.645 133.302C94.8429 133.302 95.8212 132.323 95.8212 131.124C95.8212 129.925 94.8429 128.946 93.645 128.946Z" fill="white"/>
<path d="M83.5826 47.5417V50.2595C83.5826 51.6784 84.7306 52.8174 86.1381 52.8174C87.5457 52.8174 88.6936 51.6684 88.6936 50.2595V47.5417C92.4171 46.4326 95.1323 42.9854 95.1323 38.8987C95.1323 33.9327 91.0894 29.886 86.1282 29.886C81.1669 29.886 77.124 33.9327 77.124 38.8987C77.124 42.9754 79.8492 46.4326 83.5627 47.5417H83.5826ZM86.1381 34.2525C88.7036 34.2525 90.7899 36.3408 90.7899 38.9087C90.7899 41.4766 88.7036 43.5649 86.1381 43.5649C83.5727 43.5649 81.4863 41.4766 81.4863 38.9087C81.4863 36.3408 83.5727 34.2525 86.1381 34.2525Z" fill="white"/>
<path d="M111.554 53.5968C112.751 53.5968 113.73 52.6176 113.73 51.4186V36.3008H127.915C128.893 40.2176 132.437 43.1353 136.649 43.1353C141.611 43.1353 145.654 39.0886 145.654 34.1226C145.654 29.1566 141.611 25.1099 136.649 25.1099C132.437 25.1099 128.893 28.0275 127.915 31.9443H111.554C110.356 31.9443 109.377 32.9235 109.377 34.1226V51.4186C109.377 52.6176 110.356 53.5968 111.554 53.5968ZM136.649 29.4663C139.215 29.4663 141.301 31.5547 141.301 34.1226C141.301 36.6905 139.215 38.7788 136.649 38.7788C134.084 38.7788 131.998 36.6905 131.998 34.1226C131.998 31.5547 134.084 29.4663 136.649 29.4663Z" fill="white"/>
<path d="M35.6174 43.1253C39.83 43.1253 43.3737 40.2076 44.352 36.2908H58.537V51.1488C58.537 52.3478 59.5153 53.327 60.7132 53.327C61.9111 53.327 62.8894 52.3478 62.8894 51.1488V34.1126C62.8894 32.9135 61.9111 31.9343 60.7132 31.9343H44.352C43.3737 28.0175 39.83 25.0999 35.6174 25.0999C30.6562 25.0999 26.6133 29.1466 26.6133 34.1126C26.6133 39.0785 30.6562 43.1253 35.6174 43.1253ZM35.6174 29.4563C38.1829 29.4563 40.2692 31.5446 40.2692 34.1126C40.2692 36.6805 38.1829 38.7688 35.6174 38.7688C33.0519 38.7688 30.9656 36.6805 30.9656 34.1126C30.9656 31.5446 33.0519 29.4563 35.6174 29.4563Z" fill="white"/>
<path d="M60.723 104.076C59.5251 104.076 58.5468 105.055 58.5468 106.254V135.94H44.3618C43.3835 132.023 39.8398 129.106 35.6272 129.106C30.6659 129.106 26.623 133.152 26.623 138.118C26.623 143.084 30.6659 147.131 35.6272 147.131C39.8398 147.131 43.3835 144.213 44.3618 140.297H60.723C61.9209 140.297 62.8991 139.317 62.8991 138.118V106.254C62.8991 105.055 61.9209 104.076 60.723 104.076ZM35.6272 142.775C33.0617 142.775 30.9754 140.686 30.9754 138.118C30.9754 135.55 33.0617 133.462 35.6272 133.462C38.1927 133.462 40.279 135.55 40.279 138.118C40.279 140.686 38.1927 142.775 35.6272 142.775Z" fill="white"/>
<path d="M136.659 129.875C132.447 129.875 128.903 132.793 127.925 136.709H111.563C110.365 136.709 109.387 137.689 109.387 138.888C109.387 140.087 110.365 141.066 111.563 141.066H127.925C128.903 144.983 132.447 147.9 136.659 147.9C141.62 147.9 145.663 143.854 145.663 138.888C145.663 133.922 141.62 129.875 136.659 129.875ZM136.659 143.544C134.094 143.544 132.007 141.456 132.007 138.888C132.007 136.32 134.094 134.231 136.659 134.231C139.225 134.231 141.311 136.32 141.311 138.888C141.311 141.456 139.225 143.544 136.659 143.544Z" fill="white"/>
<path d="M33.3113 87.7991C37.5238 87.7991 41.0676 84.8815 42.0459 80.9646H45.9789C47.1768 80.9646 48.1551 79.9854 48.1551 78.7864C48.1551 77.5874 47.1768 76.6081 45.9789 76.6081H42.0459C41.0676 72.6913 37.5238 69.7737 33.3113 69.7737C28.35 69.7737 24.3071 73.8204 24.3071 78.7864C24.3071 83.7524 28.35 87.7991 33.3113 87.7991ZM33.3113 74.1302C35.8767 74.1302 37.9631 76.2185 37.9631 78.7864C37.9631 81.3543 35.8767 83.4426 33.3113 83.4426C30.7458 83.4426 28.6595 81.3543 28.6595 78.7864C28.6595 76.2185 30.7458 74.1302 33.3113 74.1302Z" fill="white"/>
<path d="M139.514 69.7737C135.302 69.7737 131.758 72.6913 130.78 76.6081H126.847C125.649 76.6081 124.67 77.5874 124.67 78.7864C124.67 79.9854 125.649 80.9646 126.847 80.9646H130.78C131.758 84.8815 135.302 87.7991 139.514 87.7991C144.476 87.7991 148.518 83.7524 148.518 78.7864C148.518 73.8204 144.476 69.7737 139.514 69.7737ZM139.514 83.4426C136.949 83.4426 134.862 81.3543 134.862 78.7864C134.862 76.2185 136.949 74.1302 139.514 74.1302C142.08 74.1302 144.166 76.2185 144.166 78.7864C144.166 81.3543 142.08 83.4426 139.514 83.4426Z" fill="white"/>
</svg>
