<svg width="566" height="174" viewBox="0 0 566 174" fill="none" xmlns="http://www.w3.org/2000/svg">
<g clip-path="url(#clip0_145_68)">
<path d="M247.32 57.69C261.09 56.54 278.14 60.44 293.34 70.64C296.23 72.58 297 76.49 295.06 79.37C293.12 82.26 289.21 83.03 286.33 81.09C273.4 72.41 259.17 69.33 248.38 70.23C242.96 70.68 238.79 72.1 236.09 73.92C233.5 75.67 232.45 77.6 232.31 79.6C232.12 82.24 232.68 83.89 233.46 85.06C234.3 86.33 235.75 87.58 238.14 88.75C243.17 91.22 250.46 92.5 259.13 93.78C259.84 93.89 260.56 93.99 261.29 94.1C268.89 95.21 277.32 96.44 284.06 98.97C291.66 101.83 299.06 107.14 299.83 117.39C300.58 127.38 295.3 134.6 287.83 138.81C280.68 142.84 271.37 144.34 262.25 144.01C253.04 143.68 243.32 141.47 235.06 137.39C226.85 133.34 219.45 127.12 216.05 118.42C214.78 115.18 216.38 111.53 219.62 110.27C222.86 109 226.51 110.6 227.77 113.84C229.63 118.6 234.08 122.88 240.63 126.11C247.12 129.31 255.06 131.16 262.71 131.44C270.45 131.72 277.21 130.37 281.65 127.86C285.77 125.53 287.6 122.51 287.29 118.34C287.06 115.23 285.24 112.87 279.64 110.76C274.24 108.73 267.17 107.69 259.15 106.51C258.54 106.42 257.92 106.33 257.3 106.24C249.06 105.02 239.71 103.55 232.6 100.06C228.92 98.25 225.43 95.72 222.98 92.02C220.47 88.23 219.4 83.74 219.77 78.7C220.25 72.08 223.98 66.93 229.07 63.49C234.06 60.13 240.49 58.27 247.35 57.69H247.32Z" fill="white"/>
<path d="M403.01 143.24C400 144.98 396.15 143.95 394.41 140.94L384.58 123.92H329.68L319.85 140.94C318.11 143.95 314.26 144.98 311.25 143.24C308.24 141.5 307.21 137.65 308.95 134.64L351.42 61.08C352.46 58.87 354.69 57.45 357.13 57.45C359.57 57.45 361.8 58.86 362.84 61.08L405.31 134.64C407.05 137.65 406.02 141.5 403.01 143.24ZM377.32 111.32L357.14 76.37L336.96 111.32H377.32Z" fill="white"/>
<path d="M424.74 57.49C428.22 57.49 431.03 60.31 431.03 63.78V137.76C431.03 141.24 428.21 144.05 424.74 144.05C421.27 144.05 418.45 141.23 418.45 137.76V63.79C418.45 60.31 421.27 57.5 424.74 57.5V57.49Z" fill="white"/>
<path d="M455.5 57.62C457.77 57.15 460.11 57.97 461.6 59.75C461.75 59.93 461.88 60.11 462.01 60.3L507.84 126.69L553.67 60.3C553.8 60.11 553.94 59.92 554.08 59.75C555.73 57.78 558.41 57.01 560.86 57.8C563.3 58.6 565.02 60.8 565.19 63.37C565.2 63.54 565.21 63.71 565.2 63.88V137.77C565.2 141.25 562.38 144.06 558.91 144.06C555.44 144.06 552.62 141.24 552.62 137.77V83.99L513.1 141.23C511.93 143 509.96 144.07 507.84 144.07C505.72 144.07 503.74 143 502.58 141.23L463.06 83.99V137.77C463.03 141.23 460.22 144.02 456.77 144.02C453.32 144.02 450.5 141.23 450.48 137.77V63.88C450.48 63.71 450.48 63.54 450.49 63.37C450.68 60.55 452.73 58.2 455.5 57.62Z" fill="white"/>
<path d="M128.23 0H44.91C20.1069 0 0 20.1069 0 44.91V128.23C0 153.033 20.1069 173.14 44.91 173.14H128.23C153.033 173.14 173.14 153.033 173.14 128.23V44.91C173.14 20.1069 153.033 0 128.23 0Z" fill="white"/>
<path d="M115.62 131.71C119.73 131.71 123.08 128.36 123.08 124.25V121.15H136.72C137.92 121.15 138.9 120.17 138.9 118.97C138.9 117.77 137.92 116.79 136.72 116.79C135.91 116.79 135.25 116.13 135.25 115.32V100.02C135.25 91.9801 130.39 85.0501 123.45 82.0201V56.5401C123.45 56.4701 123.45 56.4101 123.45 56.3501C123.45 56.3401 123.45 56.3201 123.45 56.3101C123.45 56.2401 123.43 56.1701 123.42 56.1001C123.42 56.0801 123.41 56.0601 123.4 56.0401C123.39 55.9901 123.38 55.9401 123.36 55.8901C123.35 55.8601 123.34 55.8201 123.32 55.7901C123.31 55.7601 123.3 55.7201 123.28 55.6901C123.26 55.6401 123.24 55.6001 123.21 55.5501C123.21 55.5301 123.19 55.5101 123.18 55.5001C123.15 55.4401 123.11 55.3801 123.07 55.3201C123.07 55.3101 123.05 55.3001 123.04 55.2901C123.01 55.2401 122.97 55.2001 122.94 55.1501C122.94 55.1501 122.91 55.1101 122.89 55.0901C122.86 55.0601 122.83 55.0301 122.8 55.0001C122.77 54.9701 122.74 54.9501 122.72 54.9201C122.7 54.9001 122.67 54.8801 122.65 54.8601C122.62 54.8301 122.58 54.8101 122.55 54.7901C122.53 54.7701 122.5 54.7601 122.48 54.7401C122.45 54.7201 122.41 54.7001 122.38 54.6801C122.35 54.6601 122.33 54.6501 122.3 54.6301C122.27 54.6101 122.23 54.6001 122.2 54.5801C122.17 54.5701 122.14 54.5501 122.11 54.5401C122.08 54.5301 122.05 54.5201 122.01 54.5001C121.98 54.4901 121.94 54.4801 121.91 54.4601C121.88 54.4601 121.85 54.4401 121.81 54.4301C121.77 54.4301 121.74 54.4101 121.7 54.4001C121.66 54.4001 121.63 54.3901 121.59 54.3801C121.56 54.3801 121.52 54.3701 121.49 54.3701C121.44 54.3701 121.39 54.3701 121.34 54.3701C121.32 54.3701 121.3 54.3701 121.28 54.3701H51.4403C51.4403 54.3701 51.3903 54.3701 51.3703 54.3701C51.3203 54.3701 51.2803 54.3701 51.2303 54.3701C51.2003 54.3701 51.1603 54.3701 51.1303 54.3801C51.0903 54.3801 51.0603 54.3801 51.0203 54.4001C50.9803 54.4001 50.9503 54.4201 50.9103 54.4301C50.8803 54.4301 50.8503 54.4501 50.8103 54.4501C50.7703 54.4601 50.7403 54.4701 50.7103 54.4901C50.6803 54.5001 50.6403 54.5101 50.6103 54.5301C50.5803 54.5401 50.5503 54.5601 50.5203 54.5701C50.4903 54.5901 50.4503 54.6001 50.4203 54.6201C50.3903 54.6301 50.3703 54.6501 50.3403 54.6601C50.3003 54.6801 50.2703 54.7001 50.2303 54.7201C50.2103 54.7401 50.1803 54.7501 50.1603 54.7701C50.1303 54.7901 50.0903 54.8201 50.0603 54.8401C50.0303 54.8601 50.0103 54.8801 49.9903 54.9001C49.9603 54.9301 49.9303 54.9501 49.9103 54.9801C49.8803 55.0101 49.8503 55.0401 49.8203 55.0701C49.8003 55.0901 49.7903 55.1101 49.7703 55.1201C49.7303 55.1701 49.7003 55.2201 49.6703 55.2701C49.6703 55.2801 49.6503 55.2901 49.6403 55.3001C49.6003 55.3601 49.5603 55.4201 49.5303 55.4801C49.5303 55.5001 49.5103 55.5201 49.5003 55.5301C49.4803 55.5801 49.4503 55.6201 49.4303 55.6701C49.4203 55.7001 49.4103 55.7401 49.3903 55.7701C49.3803 55.8001 49.3603 55.8401 49.3503 55.8701C49.3303 55.9201 49.3203 55.9701 49.3103 56.0201C49.3103 56.0401 49.3003 56.0601 49.2903 56.0801C49.2803 56.1501 49.2603 56.2201 49.2603 56.2901C49.2603 56.3001 49.2603 56.3201 49.2603 56.3301C49.2603 56.3901 49.2603 56.4501 49.2603 56.5101V101C49.2603 102.2 50.2403 103.18 51.4403 103.18H96.0003V115.3C96.0003 116.11 95.3403 116.77 94.5303 116.77C93.3303 116.77 92.3503 117.75 92.3503 118.95C92.3503 120.15 93.3303 121.13 94.5303 121.13H108.17V124.23C108.17 128.34 111.52 131.69 115.63 131.69L115.62 131.71ZM118.72 124.25C118.72 125.96 117.33 127.35 115.62 127.35C113.91 127.35 112.52 125.96 112.52 124.25V121.15H118.72V124.25ZM86.3503 83.0101L57.4203 58.7101H115.28L86.3503 83.0101ZM53.6103 61.2101L84.9503 87.5301C84.9503 87.5301 84.9803 87.5501 85.0003 87.5701C85.0303 87.5901 85.0503 87.6101 85.0803 87.6301C85.1203 87.6601 85.1503 87.6801 85.1903 87.7001C85.2103 87.7201 85.2403 87.7301 85.2603 87.7501C85.3203 87.7901 85.3803 87.8201 85.4503 87.8501C85.4503 87.8501 85.4603 87.8501 85.4703 87.8501C85.5303 87.8801 85.5903 87.9001 85.6503 87.9201C85.6703 87.9201 85.6903 87.9301 85.7103 87.9401C85.7603 87.9601 85.8103 87.9701 85.8603 87.9801C85.8803 87.9801 85.9003 87.9801 85.9203 87.9901C85.9703 88.0001 86.0303 88.0101 86.0803 88.0201C86.1003 88.0201 86.1203 88.0201 86.1403 88.0201C86.2103 88.0201 86.2803 88.0301 86.3503 88.0301C86.4203 88.0301 86.4903 88.0301 86.5603 88.0201C86.5803 88.0201 86.6003 88.0201 86.6203 88.0201C86.6703 88.0201 86.7303 88.0001 86.7803 87.9901C86.8003 87.9901 86.8203 87.9901 86.8403 87.9801C86.8903 87.9701 86.9403 87.9501 87.0003 87.9401C87.0203 87.9401 87.0403 87.9301 87.0603 87.9201C87.1203 87.9001 87.1903 87.8701 87.2503 87.8501C87.2503 87.8501 87.2603 87.8501 87.2703 87.8501C87.3303 87.8201 87.4003 87.7901 87.4603 87.7501C87.4803 87.7401 87.5103 87.7201 87.5303 87.7101C87.5703 87.6901 87.6003 87.6601 87.6403 87.6401C87.6703 87.6201 87.6903 87.6001 87.7203 87.5801C87.7403 87.5701 87.7503 87.5601 87.7703 87.5401L119.11 61.2201V80.7101C117.98 80.5101 116.83 80.4001 115.64 80.4001C105.21 80.4001 96.6603 88.5701 96.0503 98.8501H53.6303V61.2301L53.6103 61.2101ZM100.35 115.31V100.01C100.35 91.5901 107.2 84.7401 115.62 84.7401C124.04 84.7401 130.89 91.5901 130.89 100.01V115.31C130.89 115.82 130.96 116.31 131.08 116.78H100.16C100.28 116.31 100.35 115.82 100.35 115.31Z" fill="url(#paint0_linear_145_68)"/>
<path d="M93.8102 139.68C82.7802 139.68 73.8102 130.71 73.8102 119.68C73.8102 118.48 72.8302 117.5 71.6302 117.5C70.4302 117.5 69.4502 118.48 69.4502 119.68C69.4502 133.11 80.3802 144.04 93.8102 144.04C95.0102 144.04 95.9902 143.06 95.9902 141.86C95.9902 140.66 95.0102 139.68 93.8102 139.68Z" fill="url(#paint1_linear_145_68)"/>
<path d="M93.8103 129.05C88.6403 129.05 84.4303 124.84 84.4303 119.67C84.4303 118.47 83.4503 117.49 82.2503 117.49C81.0503 117.49 80.0703 118.47 80.0703 119.67C80.0703 127.25 86.2303 133.41 93.8103 133.41C95.0103 133.41 95.9903 132.43 95.9903 131.23C95.9903 130.03 95.0103 129.05 93.8103 129.05Z" fill="url(#paint2_linear_145_68)"/>
<path d="M83.7303 47.5802V50.3002C83.7303 51.7202 84.8803 52.8602 86.2903 52.8602C87.7003 52.8602 88.8503 51.7102 88.8503 50.3002V47.5802C92.5802 46.4702 95.3003 43.0202 95.3003 38.9302C95.3003 33.9602 91.2502 29.9102 86.2803 29.9102C81.3103 29.9102 77.2603 33.9602 77.2603 38.9302C77.2603 43.0102 79.9903 46.4702 83.7103 47.5802H83.7303ZM86.2903 34.2802C88.8603 34.2802 90.9502 36.3702 90.9502 38.9402C90.9502 41.5102 88.8603 43.6002 86.2903 43.6002C83.7203 43.6002 81.6302 41.5102 81.6302 38.9402C81.6302 36.3702 83.7203 34.2802 86.2903 34.2802Z" fill="url(#paint3_linear_145_68)"/>
<path d="M111.75 53.6401C112.95 53.6401 113.93 52.6601 113.93 51.4601V36.3301H128.14C129.12 40.2501 132.67 43.1701 136.89 43.1701C141.86 43.1701 145.91 39.1201 145.91 34.1501C145.91 29.1801 141.86 25.1301 136.89 25.1301C132.67 25.1301 129.12 28.0501 128.14 31.9701H111.75C110.55 31.9701 109.57 32.9501 109.57 34.1501V51.4601C109.57 52.6601 110.55 53.6401 111.75 53.6401ZM136.89 29.4901C139.46 29.4901 141.55 31.5801 141.55 34.1501C141.55 36.7201 139.46 38.8101 136.89 38.8101C134.32 38.8101 132.23 36.7201 132.23 34.1501C132.23 31.5801 134.32 29.4901 136.89 29.4901Z" fill="url(#paint4_linear_145_68)"/>
<path d="M35.6802 43.1601C39.9002 43.1601 43.4502 40.2401 44.4302 36.3201H58.6402V51.1901C58.6402 52.3901 59.6202 53.3701 60.8202 53.3701C62.0202 53.3701 63.0002 52.3901 63.0002 51.1901V34.1401C63.0002 32.9401 62.0202 31.9601 60.8202 31.9601H44.4302C43.4502 28.0401 39.9002 25.1201 35.6802 25.1201C30.7102 25.1201 26.6602 29.1701 26.6602 34.1401C26.6602 39.1101 30.7102 43.1601 35.6802 43.1601ZM35.6802 29.4801C38.2502 29.4801 40.3402 31.5701 40.3402 34.1401C40.3402 36.7101 38.2502 38.8001 35.6802 38.8001C33.1102 38.8001 31.0202 36.7101 31.0202 34.1401C31.0202 31.5701 33.1102 29.4801 35.6802 29.4801Z" fill="url(#paint5_linear_145_68)"/>
<path d="M60.8299 104.16C59.6299 104.16 58.6499 105.14 58.6499 106.34V136.05H44.4399C43.4599 132.13 39.9099 129.21 35.6899 129.21C30.7199 129.21 26.6699 133.26 26.6699 138.23C26.6699 143.2 30.7199 147.25 35.6899 147.25C39.9099 147.25 43.4599 144.33 44.4399 140.41H60.8299C62.0299 140.41 63.0099 139.43 63.0099 138.23V106.34C63.0099 105.14 62.0299 104.16 60.8299 104.16ZM35.6899 142.89C33.1199 142.89 31.0299 140.8 31.0299 138.23C31.0299 135.66 33.1199 133.57 35.6899 133.57C38.2599 133.57 40.3499 135.66 40.3499 138.23C40.3499 140.8 38.2599 142.89 35.6899 142.89Z" fill="url(#paint6_linear_145_68)"/>
<path d="M136.9 129.98C132.68 129.98 129.13 132.9 128.15 136.82H111.76C110.56 136.82 109.58 137.8 109.58 139C109.58 140.2 110.56 141.18 111.76 141.18H128.15C129.13 145.1 132.68 148.02 136.9 148.02C141.87 148.02 145.92 143.97 145.92 139C145.92 134.03 141.87 129.98 136.9 129.98ZM136.9 143.66C134.33 143.66 132.24 141.57 132.24 139C132.24 136.43 134.33 134.34 136.9 134.34C139.47 134.34 141.56 136.43 141.56 139C141.56 141.57 139.47 143.66 136.9 143.66Z" fill="url(#paint7_linear_145_68)"/>
<path d="M33.3701 87.8701C37.5901 87.8701 41.1401 84.9501 42.1201 81.0301H46.0601C47.2601 81.0301 48.2401 80.0501 48.2401 78.8501C48.2401 77.6501 47.2601 76.6701 46.0601 76.6701H42.1201C41.1401 72.7501 37.5901 69.8301 33.3701 69.8301C28.4001 69.8301 24.3501 73.8801 24.3501 78.8501C24.3501 83.8201 28.4001 87.8701 33.3701 87.8701ZM33.3701 74.1901C35.9401 74.1901 38.0301 76.2801 38.0301 78.8501C38.0301 81.4201 35.9401 83.5101 33.3701 83.5101C30.8001 83.5101 28.7101 81.4201 28.7101 78.8501C28.7101 76.2801 30.8001 74.1901 33.3701 74.1901Z" fill="url(#paint8_linear_145_68)"/>
<path d="M139.76 69.8301C135.54 69.8301 131.99 72.7501 131.01 76.6701H127.07C125.87 76.6701 124.89 77.6501 124.89 78.8501C124.89 80.0501 125.87 81.0301 127.07 81.0301H131.01C131.99 84.9501 135.54 87.8701 139.76 87.8701C144.73 87.8701 148.78 83.8201 148.78 78.8501C148.78 73.8801 144.73 69.8301 139.76 69.8301ZM139.76 83.5101C137.19 83.5101 135.1 81.4201 135.1 78.8501C135.1 76.2801 137.19 74.1901 139.76 74.1901C142.33 74.1901 144.42 76.2801 144.42 78.8501C144.42 81.4201 142.33 83.5101 139.76 83.5101Z" fill="url(#paint9_linear_145_68)"/>
<path d="M239.14 30.44C239.14 34.41 236.6 36.72 232.19 36.72H228.15V42.02H225.19V24.45H232.19C236.61 24.45 239.14 26.63 239.14 30.45V30.44ZM236.3 30.52C236.3 28.21 234.77 27.11 232.06 27.11H228.14V34.06H232.06C234.77 34.06 236.3 32.91 236.3 30.52Z" fill="white"/>
<path d="M253.23 42.0099L250.02 36.6899C249.77 36.7199 249.49 36.72 249.22 36.72H245.05V42.02H242.09V24.45H249.22C253.71 24.45 256.3 26.63 256.3 30.45C256.3 33.26 254.99 35.24 252.66 36.15L256.6 42.02H253.24L253.23 42.0099ZM249.21 34.0499C251.92 34.0499 253.48 32.9 253.48 30.51C253.48 28.12 251.92 27.1 249.21 27.1H245.04V34.0499H249.21Z" fill="white"/>
<path d="M277.4 33.2201C277.4 38.2401 273.33 42.1301 268.09 42.1301C262.85 42.1301 258.78 38.2401 258.78 33.2201C258.78 28.2001 262.85 24.3601 268.09 24.3601C273.33 24.3601 277.4 28.2001 277.4 33.2201ZM261.79 33.2201C261.79 36.7101 264.68 39.4701 268.12 39.4701C271.56 39.4701 274.37 36.7101 274.37 33.2201C274.37 29.7301 271.56 27.0201 268.12 27.0201C264.68 27.0201 261.79 29.7301 261.79 33.2201Z" fill="white"/>
<path d="M296.85 33.2202C296.85 38.2902 293.01 42.0102 287.69 42.0102H280.56V24.4402H287.76C293.03 24.4402 296.85 28.1302 296.85 33.2302V33.2202ZM293.86 33.2502C293.86 29.6602 291.17 27.1002 287.71 27.1002H283.52V39.3502H287.84C291.25 39.3502 293.86 36.8102 293.86 33.2502Z" fill="white"/>
<path d="M316.48 33.2201C316.48 38.2401 312.41 42.1301 307.17 42.1301C301.93 42.1301 297.86 38.2401 297.86 33.2201C297.86 28.2001 301.93 24.3601 307.17 24.3601C312.41 24.3601 316.48 28.2001 316.48 33.2201ZM300.87 33.2201C300.87 36.7101 303.76 39.4701 307.2 39.4701C310.64 39.4701 313.45 36.7101 313.45 33.2201C313.45 29.7301 310.64 27.0201 307.2 27.0201C303.76 27.0201 300.87 29.7301 300.87 33.2201Z" fill="white"/>
<path d="M323.16 24.4402L328.96 36.1102L334.73 24.4402H338.22V42.0102H335.48L335.45 28.8802L329.9 40.1802H327.97L322.42 28.8802V42.0102H319.63V24.4402H323.14H323.16Z" fill="white"/>
<path d="M345.83 24.4402V42.0102H342.87V24.4402H345.83Z" fill="white"/>
<path d="M353.36 24.4402L362.77 37.0702V24.4402H365.68V42.0102H362.77L353.41 29.4102V42.0102H350.45V24.4402H353.36Z" fill="white"/>
<path d="M373.29 24.4402V42.0102H370.33V24.4402H373.29Z" fill="white"/>
<path d="M385.74 27.0001C382.23 27.0001 379.47 29.7101 379.47 33.1701C379.47 36.6301 382.23 39.3701 385.74 39.3701C387.5 39.3701 389.3 38.5701 390.63 37.2901L392.39 39.2501C390.61 41.0101 388.07 42.1401 385.59 42.1401C380.44 42.1401 376.45 38.2501 376.45 33.2001C376.45 28.1501 380.49 24.3601 385.69 24.3601C388.18 24.3601 390.66 25.3901 392.37 27.0701L390.64 29.2301C389.36 27.8501 387.53 27.0001 385.75 27.0001H385.74Z" fill="white"/>
<path d="M406.62 38.0402H397.76L396.08 42.0102H392.99L400.75 24.4402H403.79L411.47 42.0102H408.31L406.63 38.0402H406.62ZM405.49 35.4002L402.18 27.5902L398.87 35.4002H405.5H405.49Z" fill="white"/>
<path d="M416.72 24.4402L426.13 37.0702V24.4402H429.04V42.0102H426.13L416.77 29.4102V42.0102H413.81V24.4402H416.72Z" fill="white"/>
<path d="M445.03 38.0402H436.17L434.49 42.0102H431.4L439.16 24.4402H442.2L449.88 42.0102H446.72L445.04 38.0402H445.03ZM443.9 35.4002L440.59 27.5902L437.28 35.4002H443.91H443.9Z" fill="white"/>
<path d="M465.29 27.1001C463.56 27.1001 462.43 27.7501 462.43 28.9301C462.43 32.7701 471.92 30.7101 471.89 37.0401C471.89 40.1801 469.13 42.1101 465.26 42.1101C462.5 42.1101 459.89 40.9801 458.08 39.3201L459.36 36.7601C461.17 38.4201 463.43 39.3201 465.31 39.3201C467.37 39.3201 468.6 38.5401 468.6 37.1901C468.6 33.2701 459.11 35.4601 459.11 29.2101C459.11 26.2001 461.7 24.3201 465.51 24.3201C467.79 24.3201 470.03 25.0501 471.66 26.1301L470.43 28.7401C468.52 27.5901 466.62 27.1101 465.28 27.1101L465.29 27.1001Z" fill="white"/>
<path d="M478.32 24.4402V42.0102H475.36V24.4402H478.32Z" fill="white"/>
<path d="M485.85 24.4402L495.26 37.0702V24.4402H498.17V42.0102H495.26L485.9 29.4102V42.0102H482.94V24.4402H485.85Z" fill="white"/>
<path d="M505.78 24.4402V42.0102H502.82V24.4402H505.78Z" fill="white"/>
<path d="M513.91 24.4402L519.71 36.1102L525.48 24.4402H528.97V42.0102H526.23L526.2 28.8802L520.65 40.1802H518.72L513.17 28.8802V42.0102H510.38V24.4402H513.89H513.91Z" fill="white"/>
</g>
<defs>
<linearGradient id="paint0_linear_145_68" x1="35.1603" y1="20.6901" x2="129.61" y2="127.87" gradientUnits="userSpaceOnUse">
<stop stop-color="#AE4CFB"/>
<stop offset="0.55" stop-color="#00AEEF"/>
<stop offset="1" stop-color="#3AD77E"/>
</linearGradient>
<linearGradient id="paint1_linear_145_68" x1="5.25019" y1="47.04" x2="99.7002" y2="154.22" gradientUnits="userSpaceOnUse">
<stop stop-color="#AE4CFB"/>
<stop offset="0.55" stop-color="#00AEEF"/>
<stop offset="1" stop-color="#3AD77E"/>
</linearGradient>
<linearGradient id="paint2_linear_145_68" x1="11.8703" y1="41.2002" x2="106.32" y2="148.39" gradientUnits="userSpaceOnUse">
<stop stop-color="#AE4CFB"/>
<stop offset="0.55" stop-color="#00AEEF"/>
<stop offset="1" stop-color="#3AD77E"/>
</linearGradient>
<linearGradient id="paint3_linear_145_68" x1="54.4903" y1="3.65016" x2="148.94" y2="110.84" gradientUnits="userSpaceOnUse">
<stop stop-color="#AE4CFB"/>
<stop offset="0.55" stop-color="#00AEEF"/>
<stop offset="1" stop-color="#3AD77E"/>
</linearGradient>
<linearGradient id="paint4_linear_145_68" x1="76.9503" y1="-16.1399" x2="171.4" y2="91.0501" gradientUnits="userSpaceOnUse">
<stop stop-color="#AE4CFB"/>
<stop offset="0.55" stop-color="#00AEEF"/>
<stop offset="1" stop-color="#3AD77E"/>
</linearGradient>
<linearGradient id="paint5_linear_145_68" x1="33.2902" y1="22.3301" x2="127.74" y2="129.52" gradientUnits="userSpaceOnUse">
<stop stop-color="#AE4CFB"/>
<stop offset="0.55" stop-color="#00AEEF"/>
<stop offset="1" stop-color="#3AD77E"/>
</linearGradient>
<linearGradient id="paint6_linear_145_68" x1="-10.4301" y1="60.8602" x2="84.0199" y2="168.04" gradientUnits="userSpaceOnUse">
<stop stop-color="#AE4CFB"/>
<stop offset="0.55" stop-color="#00AEEF"/>
<stop offset="1" stop-color="#3AD77E"/>
</linearGradient>
<linearGradient id="paint7_linear_145_68" x1="29.2301" y1="25.9102" x2="123.68" y2="133.09" gradientUnits="userSpaceOnUse">
<stop stop-color="#AE4CFB"/>
<stop offset="0.55" stop-color="#00AEEF"/>
<stop offset="1" stop-color="#3AD77E"/>
</linearGradient>
<linearGradient id="paint8_linear_145_68" x1="6.3101" y1="46.1101" x2="100.76" y2="153.29" gradientUnits="userSpaceOnUse">
<stop stop-color="#AE4CFB"/>
<stop offset="0.55" stop-color="#00AEEF"/>
<stop offset="1" stop-color="#3AD77E"/>
</linearGradient>
<linearGradient id="paint9_linear_145_68" x1="64.1801" y1="-4.88993" x2="158.63" y2="102.3" gradientUnits="userSpaceOnUse">
<stop stop-color="#AE4CFB"/>
<stop offset="0.55" stop-color="#00AEEF"/>
<stop offset="1" stop-color="#3AD77E"/>
</linearGradient>
<clipPath id="clip0_145_68">
<rect width="565.21" height="173.14" fill="white"/>
</clipPath>
</defs>
</svg>
