<svg width="531" height="174" viewBox="0 0 531 174" fill="none" xmlns="http://www.w3.org/2000/svg">
<g clip-path="url(#clip0_145_38)">
<path d="M247.32 60.97C261.09 59.82 278.14 63.72 293.34 73.92C296.23 75.86 297 79.77 295.06 82.65C293.12 85.54 289.21 86.31 286.33 84.37C273.4 75.69 259.17 72.61 248.38 73.51C242.96 73.96 238.79 75.38 236.09 77.2C233.5 78.95 232.45 80.88 232.31 82.88C232.12 85.52 232.68 87.17 233.46 88.34C234.3 89.61 235.75 90.86 238.14 92.03C243.17 94.5 250.46 95.78 259.13 97.06C259.84 97.16 260.56 97.27 261.29 97.38C268.89 98.49 277.32 99.72 284.06 102.25C291.66 105.11 299.06 110.42 299.83 120.67C300.58 130.66 295.3 137.88 287.83 142.09C280.68 146.12 271.37 147.62 262.25 147.29C253.04 146.96 243.32 144.75 235.06 140.67C226.85 136.62 219.45 130.4 216.05 121.7C214.78 118.46 216.38 114.81 219.62 113.55C222.86 112.28 226.51 113.88 227.77 117.12C229.63 121.88 234.08 126.16 240.63 129.39C247.12 132.59 255.06 134.44 262.71 134.72C270.45 135 277.21 133.65 281.65 131.14C285.77 128.81 287.6 125.79 287.29 121.62C287.06 118.51 285.24 116.15 279.64 114.04C274.24 112.01 267.17 110.97 259.15 109.79C258.54 109.7 257.92 109.61 257.3 109.52C249.06 108.3 239.71 106.83 232.6 103.34C228.92 101.53 225.43 99 222.98 95.3C220.47 91.51 219.4 87.02 219.77 81.98C220.25 75.36 223.98 70.21 229.07 66.77C234.06 63.41 240.49 61.55 247.35 60.98L247.32 60.97Z" fill="white"/>
<path d="M321.7 60.78C325.18 60.78 327.99 63.6 327.99 67.07V141.05C327.99 144.53 325.17 147.34 321.7 147.34C318.23 147.34 315.41 144.52 315.41 141.05V67.07C315.41 63.59 318.23 60.78 321.7 60.78Z" fill="white"/>
<path d="M353.86 60.78H417.73C421.21 60.78 424.02 63.6 424.02 67.07C424.02 70.54 421.2 73.36 417.73 73.36H360.16V94.72H417.73C421.19 94.75 423.98 97.56 423.98 101.01C423.98 104.46 421.19 107.28 417.73 107.3H360.16V134.75H417.73C421.19 134.78 423.98 137.59 423.98 141.04C423.98 144.49 421.19 147.31 417.73 147.33H353.86C352.19 147.33 350.59 146.67 349.41 145.49C348.23 144.31 347.57 142.71 347.57 141.04V67.06C347.57 63.58 350.39 60.77 353.86 60.77V60.78Z" fill="white"/>
<path d="M530.71 104.06C530.71 127.92 511.4 147.28 487.55 147.34H446.38C444.71 147.34 443.11 146.68 441.93 145.5C440.75 144.32 440.09 142.72 440.09 141.05V67.07C440.09 65.4 440.75 63.8 441.93 62.62C443.11 61.44 444.71 60.78 446.38 60.78H487.55C511.41 60.85 530.71 80.21 530.71 104.06ZM518.24 104.06C518.24 87.11 504.5 73.36 487.54 73.36H452.67V134.75H487.54C504.49 134.75 518.24 121.01 518.24 104.05V104.06Z" fill="white"/>
<path d="M128.23 0H44.91C20.1069 0 0 20.1069 0 44.91V128.23C0 153.033 20.1069 173.14 44.91 173.14H128.23C153.033 173.14 173.14 153.033 173.14 128.23V44.91C173.14 20.1069 153.033 0 128.23 0Z" fill="white"/>
<path d="M129.73 114.54L113.82 122.06C111.62 117.97 107.41 115.37 102.77 115.24L88.0797 114.84C85.7497 114.77 83.4697 114.18 81.3997 113.12L79.9097 112.35C72.2597 108.36 63.1297 108.37 55.4897 112.38L55.5797 108.99C55.6097 107.87 54.7297 106.93 53.6097 106.9L37.4997 106.46C36.3797 106.43 35.4397 107.31 35.4097 108.43L34.4397 143.78C34.4097 144.9 35.2897 145.84 36.4097 145.87L52.5197 146.31H52.5797C53.6797 146.31 54.5797 145.43 54.6097 144.33L54.6597 142.64L58.8397 140.4C60.4797 139.52 62.3997 139.31 64.1997 139.81L89.1897 146.82C89.1897 146.82 89.2797 146.84 89.3197 146.85C91.1297 147.23 92.9697 147.42 94.8097 147.42C98.7197 147.42 102.58 146.58 106.13 144.95C106.22 144.91 106.3 144.86 106.38 144.81L142.61 121.37C143.51 120.79 143.8 119.6 143.28 118.66C140.59 113.89 134.62 112.07 129.73 114.53V114.54ZM50.5997 142.18L38.5497 141.85L39.4097 110.56L51.4597 110.89L50.5997 142.18ZM104.3 141.32C99.8897 143.31 94.9597 143.86 90.2197 142.89L65.2997 135.89C62.4897 135.1 59.4897 135.43 56.9297 136.81L54.7897 137.96L55.3597 117.16C62.1397 112.65 70.8297 112.19 78.0397 115.95L79.5297 116.72C82.1397 118.07 85.0197 118.81 87.9597 118.9L102.65 119.3C106.78 119.42 110.28 122.36 111.12 126.4L89.2397 125.8C88.1197 125.77 87.1797 126.65 87.1497 127.77C87.1197 128.89 87.9997 129.83 89.1197 129.86L113.27 130.52H113.33C114.43 130.52 115.33 129.64 115.36 128.54C115.38 127.66 115.32 126.77 115.16 125.9L131.48 118.19C131.48 118.19 131.51 118.18 131.53 118.17C133.84 117 136.64 117.39 138.55 119.15L104.29 141.31L104.3 141.32Z" fill="url(#paint0_linear_145_38)"/>
<path d="M139.96 55.07C141.06 53.77 141.72 52.09 141.72 50.25C141.72 46.14 138.39 42.79 134.29 42.79C133.15 42.79 132.07 43.05 131.11 43.51C129.86 42.24 128.56 41.02 127.21 39.87C127.52 39.04 127.7 38.15 127.7 37.21C127.7 33.1 124.37 29.75 120.27 29.75C118.26 29.75 116.43 30.56 115.09 31.86C106.97 27.84 97.9299 25.71 88.8199 25.71C79.7099 25.71 70.2599 27.93 61.9899 32.14C60.6299 30.67 58.6899 29.75 56.5399 29.75C52.4399 29.75 49.1099 33.1 49.1099 37.21C49.1099 38.35 49.3699 39.42 49.8199 40.39C47.8199 42.14 45.9299 44.03 44.1899 46.03C43.4999 46.82 43.5799 48.03 44.3699 48.72C44.7299 49.04 45.1799 49.19 45.6199 49.19C46.1499 49.19 46.6799 48.97 47.0599 48.54C48.6799 46.69 50.4299 44.94 52.2699 43.32C53.4799 44.17 54.9499 44.68 56.5399 44.68C59.4199 44.68 61.9199 43.02 63.1599 40.61C69.6499 42.49 75.8599 45.17 81.6399 48.61C81.4799 49.23 81.3899 49.87 81.3899 50.54C81.3899 51.75 81.6799 52.88 82.1899 53.89C77.4299 58.01 73.1299 62.67 69.3999 67.77C68.7399 67.58 68.0399 67.47 67.3199 67.47C64.3499 67.47 61.7799 69.23 60.5899 71.77C52.9899 71.81 45.3699 72.63 37.8799 74.21C37.2199 73 36.2299 72 35.0499 71.32C36.4599 65.84 38.6899 60.63 41.6899 55.81C42.2499 54.92 41.9699 53.74 41.0799 53.18C40.1899 52.62 39.0099 52.9 38.4499 53.79C35.2499 58.93 32.8799 64.49 31.3699 70.33C27.2699 70.33 23.9399 73.68 23.9399 77.79C23.9399 81.24 26.2899 84.15 29.4699 85C29.4699 85.12 29.4699 85.24 29.4699 85.36C29.4699 90.66 30.1699 95.87 31.5099 100.88C32.5499 100.06 33.7399 99.47 34.9999 99.14C33.8699 94.69 33.2899 90.07 33.2899 85.37C33.2899 85.25 33.2899 85.13 33.2899 85.01C36.4299 84.17 38.7599 81.32 38.8099 77.92C45.7799 76.46 52.8699 75.68 59.9299 75.59C60.0799 77.32 60.8199 78.87 61.9399 80.06C58.8699 86.25 56.5899 92.74 55.1399 99.39C56.4499 99.6 57.6699 100.08 58.7499 100.77C60.1099 94.34 62.2699 88.07 65.1999 82.08C65.8699 82.28 66.5899 82.39 67.3299 82.39C70.9299 82.39 73.9299 79.82 74.6199 76.41C83.1999 77.47 91.5599 79.55 99.6099 82.59C98.9199 84.54 98.5499 86.64 98.5399 88.82C98.5399 93.99 100.62 98.67 103.98 102.1C102.17 103.96 100.29 105.77 98.3599 107.49L103.01 107.62C103.28 107.62 103.54 107.64 103.81 107.66C104.87 106.65 105.91 105.61 106.93 104.55C109.95 106.59 113.59 107.78 117.51 107.78C123.14 107.78 128.21 105.31 131.68 101.4C133.43 102.88 135.14 104.4 136.8 105.98C139.23 106.31 141.54 107.14 143.61 108.39C146.61 101.19 148.21 93.38 148.21 85.36C148.21 74.66 145.37 64.22 139.99 55.06L139.96 55.07ZM56.5399 40.86C54.5399 40.86 52.9199 39.22 52.9199 37.21C52.9199 35.2 54.5399 33.56 56.5399 33.56C58.5399 33.56 60.1599 35.2 60.1599 37.21C60.1599 39.22 58.5399 40.86 56.5399 40.86ZM31.3499 81.44C29.3499 81.44 27.7299 79.8 27.7299 77.79C27.7299 75.78 29.3499 74.14 31.3499 74.14C33.3499 74.14 34.9699 75.78 34.9699 77.79C34.9699 79.8 33.3499 81.44 31.3499 81.44ZM67.3099 78.58C65.3099 78.58 63.6899 76.94 63.6899 74.93C63.6899 72.92 65.3099 71.28 67.3099 71.28C69.3099 71.28 70.9299 72.92 70.9299 74.93C70.9299 76.94 69.3099 78.58 67.3099 78.58ZM134.29 46.61C136.29 46.61 137.91 48.25 137.91 50.26C137.91 52.27 136.29 53.91 134.29 53.91C132.29 53.91 130.67 52.27 130.67 50.26C130.67 48.25 132.29 46.61 134.29 46.61ZM120.26 33.57C122.26 33.57 123.88 35.21 123.88 37.22C123.88 39.23 122.26 40.87 120.26 40.87C118.26 40.87 116.64 39.23 116.64 37.22C116.64 35.21 118.26 33.57 120.26 33.57ZM120.26 44.68C122.05 44.68 123.69 44.04 124.97 42.99C126.08 43.95 127.16 44.96 128.19 46C127.35 47.21 126.85 48.68 126.85 50.26C126.85 53.05 128.38 55.48 130.64 56.76C129.14 61.8 127.27 66.71 125.07 71.46C122.74 70.44 120.17 69.87 117.47 69.87C115.04 69.87 112.71 70.34 110.57 71.19C106.34 64.77 101.23 58.92 95.4399 53.9C95.9499 52.89 96.2399 51.75 96.2399 50.55C96.2399 49.88 96.1499 49.24 95.9899 48.62C101.56 45.31 107.52 42.7 113.75 40.83C115.02 43.13 117.46 44.69 120.26 44.69V44.68ZM63.9599 36.87C63.9399 36.41 63.8699 35.95 63.7699 35.52C71.4799 31.6 80.0999 29.54 88.8099 29.54C97.5199 29.54 105.6 31.48 113.12 35.16C112.94 35.78 112.84 36.44 112.83 37.12C106.26 39.07 99.9699 41.82 94.0999 45.3C92.7499 43.93 90.8799 43.08 88.8199 43.08C86.7599 43.08 84.8899 43.93 83.5399 45.3C77.4199 41.67 70.8499 38.84 63.9699 36.87H63.9599ZM92.4299 50.54C92.4299 52.55 90.8099 54.19 88.8099 54.19C86.8099 54.19 85.1899 52.55 85.1899 50.54C85.1899 48.53 86.8099 46.89 88.8099 46.89C90.8099 46.89 92.4299 48.53 92.4299 50.54ZM74.3399 72.54C73.9799 71.49 73.3999 70.55 72.6499 69.77C76.1699 64.99 80.2099 60.62 84.6899 56.75C85.8699 57.54 87.2799 58 88.7999 58C90.3199 58 91.7299 57.54 92.9099 56.75C98.3499 61.46 103.15 66.93 107.16 72.94C104.74 74.52 102.69 76.64 101.2 79.13C92.5499 75.84 83.5699 73.63 74.3299 72.54H74.3399ZM117.48 104.22C108.99 104.22 102.08 97.31 102.08 88.82C102.08 80.34 109 73.43 117.48 73.42C125.97 73.42 132.88 80.33 132.88 88.82C132.88 97.31 125.97 104.22 117.48 104.22ZM140.93 104.7C138.68 102.47 136.32 100.33 133.89 98.29C135.51 95.5 136.44 92.27 136.44 88.82C136.44 82.43 133.26 76.77 128.4 73.34C130.75 68.29 132.74 63.07 134.33 57.71C135.2 57.71 136.04 57.55 136.82 57.26C141.76 65.77 144.36 75.44 144.36 85.36C144.36 92.05 143.18 98.58 140.93 104.69V104.7Z" fill="url(#paint1_linear_145_38)"/>
<path d="M117.48 82.18C118.79 82.18 119.86 83.25 119.86 84.56C119.86 85.54 120.66 86.34 121.64 86.34C122.62 86.34 123.42 85.54 123.42 84.56C123.42 81.91 121.62 79.57 119.1 78.84V78.08C119.1 77.1 118.3 76.3 117.32 76.3C116.34 76.3 115.54 77.1 115.54 78.08V78.94C112.9 79.85 111.21 82.54 111.59 85.35C111.98 88.29 114.51 90.5 117.48 90.5C118.77 90.5 119.84 91.55 119.86 92.84C119.88 94.11 118.89 95.18 117.62 95.26C117.46 95.23 117.3 95.23 117.15 95.24C115.98 95.07 115.1 94.07 115.1 92.88C115.1 91.9 114.3 91.1 113.32 91.1C112.34 91.1 111.54 91.9 111.54 92.88C111.54 95.42 113.17 97.67 115.54 98.5V99.4C115.54 100.38 116.34 101.18 117.32 101.18C118.3 101.18 119.1 100.38 119.1 99.4V98.6C121.86 97.82 123.69 95.17 123.39 92.27C123.08 89.23 120.53 86.94 117.48 86.94C116.17 86.94 115.1 85.87 115.1 84.56C115.1 83.25 116.17 82.18 117.48 82.18Z" fill="url(#paint2_linear_145_38)"/>
<path d="M236.24 33.72C236.24 37.69 233.7 40 229.29 40H225.25V45.3H222.29V27.73H229.29C233.71 27.73 236.24 29.91 236.24 33.73V33.72ZM233.4 33.8C233.4 31.49 231.87 30.39 229.16 30.39H225.24V37.34H229.16C231.87 37.34 233.4 36.19 233.4 33.8Z" fill="white"/>
<path d="M250.32 45.29L247.11 39.97C246.86 40 246.58 40 246.31 40H242.14V45.3H239.18V27.73H246.31C250.8 27.73 253.39 29.91 253.39 33.73C253.39 36.54 252.08 38.52 249.75 39.43L253.69 45.3H250.33L250.32 45.29ZM246.3 37.33C249.01 37.33 250.57 36.18 250.57 33.79C250.57 31.4 249.01 30.38 246.3 30.38H242.13V37.33H246.3Z" fill="white"/>
<path d="M274.5 36.5101C274.5 41.5301 270.43 45.4201 265.19 45.4201C259.95 45.4201 255.88 41.5301 255.88 36.5101C255.88 31.4901 259.95 27.6501 265.19 27.6501C270.43 27.6501 274.5 31.4901 274.5 36.5101ZM258.89 36.5101C258.89 40.0001 261.78 42.7601 265.22 42.7601C268.66 42.7601 271.47 40.0001 271.47 36.5101C271.47 33.0201 268.66 30.3101 265.22 30.3101C261.78 30.3101 258.89 33.0201 258.89 36.5101Z" fill="white"/>
<path d="M293.95 36.51C293.95 41.58 290.11 45.3 284.79 45.3H277.66V27.73H284.86C290.13 27.73 293.95 31.42 293.95 36.52V36.51ZM290.96 36.54C290.96 32.95 288.27 30.39 284.81 30.39H280.62V42.64H284.94C288.35 42.64 290.96 40.1 290.96 36.54Z" fill="white"/>
<path d="M313.58 36.5101C313.58 41.5301 309.51 45.4201 304.27 45.4201C299.03 45.4201 294.96 41.5301 294.96 36.5101C294.96 31.4901 299.03 27.6501 304.27 27.6501C309.51 27.6501 313.58 31.4901 313.58 36.5101ZM297.97 36.5101C297.97 40.0001 300.86 42.7601 304.3 42.7601C307.74 42.7601 310.55 40.0001 310.55 36.5101C310.55 33.0201 307.74 30.3101 304.3 30.3101C300.86 30.3101 297.97 33.0201 297.97 36.5101Z" fill="white"/>
<path d="M320.26 27.7202L326.06 39.3902L331.83 27.7202H335.32V45.2902H332.58L332.55 32.1602L327 43.4602H325.07L319.52 32.1602V45.2902H316.73V27.7202H320.24H320.26Z" fill="white"/>
<path d="M342.92 27.7202V45.2902H339.96V27.7202H342.92Z" fill="white"/>
<path d="M350.46 27.7202L359.87 40.3502V27.7202H362.78V45.2902H359.87L350.51 32.6902V45.2902H347.55V27.7202H350.46Z" fill="white"/>
<path d="M370.39 27.7202V45.2902H367.43V27.7202H370.39Z" fill="white"/>
<path d="M382.84 30.2801C379.33 30.2801 376.57 32.9901 376.57 36.4501C376.57 39.9101 379.33 42.6501 382.84 42.6501C384.6 42.6501 386.4 41.8501 387.73 40.5701L389.49 42.5301C387.71 44.2901 385.17 45.4201 382.69 45.4201C377.54 45.4201 373.55 41.5301 373.55 36.4801C373.55 31.4301 377.59 27.6401 382.79 27.6401C385.28 27.6401 387.76 28.6701 389.47 30.3501L387.74 32.5101C386.46 31.1301 384.63 30.2801 382.85 30.2801H382.84Z" fill="white"/>
<path d="M403.72 41.33H394.86L393.18 45.3H390.09L397.85 27.73H400.89L408.57 45.3H405.41L403.73 41.33H403.72ZM402.59 38.69L399.28 30.88L395.97 38.69H402.6H402.59Z" fill="white"/>
<path d="M413.81 27.7202L423.22 40.3502V27.7202H426.13V45.2902H423.22L413.86 32.6902V45.2902H410.9V27.7202H413.81Z" fill="white"/>
<path d="M442.13 41.33H433.27L431.59 45.3H428.5L436.26 27.73H439.3L446.98 45.3H443.82L442.14 41.33H442.13ZM441 38.69L437.69 30.88L434.38 38.69H441.01H441Z" fill="white"/>
<path d="M462.38 30.3801C460.65 30.3801 459.52 31.0301 459.52 32.2101C459.52 36.0501 469.01 33.9901 468.98 40.3201C468.98 43.4601 466.22 45.3901 462.35 45.3901C459.59 45.3901 456.98 44.2601 455.17 42.6001L456.45 40.0401C458.26 41.7001 460.52 42.6001 462.4 42.6001C464.46 42.6001 465.69 41.8201 465.69 40.4701C465.69 36.5501 456.2 38.7401 456.2 32.4901C456.2 29.4801 458.79 27.6001 462.6 27.6001C464.88 27.6001 467.12 28.3301 468.75 29.4101L467.52 32.0201C465.61 30.8701 463.71 30.3901 462.37 30.3901L462.38 30.3801Z" fill="white"/>
<path d="M475.41 27.7202V45.2902H472.45V27.7202H475.41Z" fill="white"/>
<path d="M482.94 27.7202L492.35 40.3502V27.7202H495.26V45.2902H492.35L482.99 32.6902V45.2902H480.03V27.7202H482.94Z" fill="white"/>
<path d="M502.87 27.7202V45.2902H499.91V27.7202H502.87Z" fill="white"/>
<path d="M511.01 27.7202L516.81 39.3902L522.58 27.7202H526.07V45.2902H523.33L523.3 32.1602L517.75 43.4602H515.82L510.27 32.1602V45.2902H507.48V27.7202H510.99H511.01Z" fill="white"/>
</g>
<defs>
<linearGradient id="paint0_linear_145_38" x1="34.4397" y1="126.93" x2="143.55" y2="126.93" gradientUnits="userSpaceOnUse">
<stop stop-color="#AE4CFB"/>
<stop offset="0.55" stop-color="#00AEEF"/>
<stop offset="1" stop-color="#3AD77E"/>
</linearGradient>
<linearGradient id="paint1_linear_145_38" x1="23.9199" y1="67.05" x2="148.18" y2="67.05" gradientUnits="userSpaceOnUse">
<stop stop-color="#AE4CFB"/>
<stop offset="0.55" stop-color="#00AEEF"/>
<stop offset="1" stop-color="#3AD77E"/>
</linearGradient>
<linearGradient id="paint2_linear_145_38" x1="111.54" y1="88.74" x2="123.42" y2="88.74" gradientUnits="userSpaceOnUse">
<stop stop-color="#AE4CFB"/>
<stop offset="0.55" stop-color="#00AEEF"/>
<stop offset="1" stop-color="#3AD77E"/>
</linearGradient>
<clipPath id="clip0_145_38">
<rect width="530.71" height="173.14" fill="white"/>
</clipPath>
</defs>
</svg>
