
<svg
  width="500"
  height="500"
  fill="white"
  fill-opacity="0.4"
  xmlns="http://www.w3.org/2000/svg"
>
  <path
    d="M239.517 0H254.432C348.466 11.5029 393.665 117.717 328.807 191.301C324.943 195.665 317.216 201.561 313.807 193.555C312.633 190.8 313.343 187.881 315.938 184.798L327.671 170.78C328.618 169.624 328.296 169.046 326.705 169.046L291.904 169.075C291.361 169.073 290.843 169.211 290.431 169.468C290.019 169.725 289.738 170.085 289.631 170.491L284.631 189.856C284.321 191.044 283.709 191.997 282.926 192.514C278.04 195.886 274.328 194.855 271.79 189.422C271.648 189.114 271.58 188.682 271.59 188.157C271.6 187.632 271.688 187.027 271.847 186.387L275.767 170.578C275.811 170.398 275.802 170.211 275.74 170.031C275.677 169.85 275.564 169.681 275.408 169.536C275.252 169.391 275.057 169.275 274.839 169.195C274.621 169.115 274.384 169.074 274.148 169.075H220.171C219.896 169.073 219.622 169.126 219.37 169.231C219.119 169.336 218.896 169.49 218.72 169.68C218.544 169.87 218.42 170.092 218.356 170.328C218.292 170.564 218.291 170.808 218.352 171.04L222.273 186.416C222.53 187.426 222.49 188.398 222.159 189.162C217.813 198.902 210.398 194.48 208.352 186.561C206.989 181.262 205.682 176.012 204.432 170.809C204.312 170.316 204.048 169.878 203.683 169.564C203.317 169.25 202.871 169.078 202.415 169.075H166.904C165.748 169.075 165.511 169.576 166.193 170.578C171.44 178.401 177.661 185.289 184.858 191.243C185.197 191.524 185.476 191.901 185.677 192.35C185.878 192.798 185.996 193.308 186.023 193.844C186.563 203.757 178.665 204.306 172.813 198.902C98.2672 130.087 140.54 9.71098 239.517 0ZM259.886 14.6821C250.852 13.2948 241.809 13.343 232.756 14.8266C232.415 14.8867 232.075 15.0943 231.774 15.4261C231.473 15.7579 231.223 16.2009 231.051 16.7052L220.682 46.9075C220.621 47.0861 220.622 47.2759 220.686 47.4614C220.75 47.6469 220.874 47.8229 221.048 47.975C221.223 48.1271 221.442 48.251 221.69 48.3367C221.937 48.4224 222.205 48.4675 222.472 48.4682L272.017 48.4393C272.231 48.4408 272.445 48.3994 272.641 48.3186C272.837 48.2379 273.009 48.1202 273.143 47.9755C273.277 47.8308 273.368 47.6634 273.41 47.4876C273.451 47.3117 273.441 47.1326 273.381 46.9653L262.841 16.6185C262.679 16.1509 262.315 15.7213 261.793 15.3787C261.27 15.0362 260.61 14.7948 259.886 14.6821ZM206.847 47.0231L214.943 20.7514C215.341 19.4605 214.943 19.0462 213.75 19.5087C198.201 25.5395 184.792 34.7592 173.523 47.1676C172.5 48.2852 172.718 48.8343 174.176 48.815L204.546 48.4971C205.082 48.4894 205.594 48.3427 206.007 48.078C206.421 47.8132 206.714 47.444 206.847 47.0231ZM281.932 20.2601C279.735 19.3931 278.996 20.1156 279.716 22.4277L287.415 47.1676C287.524 47.5262 287.742 47.8401 288.039 48.0637C288.335 48.2872 288.694 48.4087 289.063 48.4104H319.602C320.871 48.4104 321.089 47.948 320.256 47.0231C309.536 35.0771 296.761 26.1561 281.932 20.2601ZM162.33 62.6012C154.754 75.896 150.199 90.2023 148.665 105.52C148.649 105.699 148.686 105.879 148.775 106.05C148.864 106.22 149.002 106.377 149.181 106.51C149.36 106.643 149.575 106.749 149.814 106.823C150.053 106.896 150.31 106.935 150.568 106.936H196.733C197.271 106.936 197.787 106.708 198.169 106.303C198.552 105.897 198.771 105.346 198.779 104.769C198.949 91.1464 200.369 77.6493 203.04 64.2775C203.092 64.0188 203.097 63.7519 203.055 63.4959C203.013 63.2399 202.925 63.0011 202.798 62.7967C202.67 62.5923 202.506 62.4272 202.317 62.3135C202.128 62.1997 201.919 62.1401 201.705 62.1387H163.352C163.122 62.139 162.904 62.1823 162.724 62.2639C162.543 62.3454 162.407 62.4621 162.33 62.6012ZM216.676 63.6127C215.057 77.6012 212.386 90.6936 212.159 105.202C212.155 105.429 212.195 105.654 212.274 105.864C212.354 106.074 212.473 106.266 212.623 106.427C212.774 106.589 212.954 106.717 213.152 106.804C213.351 106.892 213.563 106.937 213.779 106.936H280.54C280.746 106.936 280.951 106.897 281.141 106.822C281.33 106.747 281.502 106.637 281.645 106.5C281.789 106.362 281.9 106.199 281.974 106.021C282.048 105.843 282.082 105.653 282.074 105.462C281.525 91.3777 279.877 77.4085 277.131 63.5549C277.053 63.1568 276.784 62.7974 276.369 62.5388C275.954 62.2803 275.42 62.1387 274.858 62.1387H218.04C217.713 62.138 217.393 62.2877 217.142 62.5593C216.891 62.831 216.725 63.2058 216.676 63.6127ZM291.108 63.9306C293.239 77.9191 294.347 91.2139 295.796 105.202C295.845 105.678 296.055 106.118 296.385 106.439C296.715 106.759 297.143 106.936 297.585 106.936H343.75C343.958 106.938 344.162 106.881 344.35 106.77C344.537 106.659 344.703 106.496 344.837 106.291C344.971 106.087 345.07 105.845 345.127 105.583C345.185 105.321 345.2 105.043 345.171 104.769C343.655 90.1638 339.375 76.474 332.33 63.6994C332.061 63.225 331.662 62.8308 331.173 62.5568C330.684 62.2827 330.123 62.1385 329.546 62.1387H292.642C292.416 62.141 292.193 62.1914 291.988 62.2865C291.783 62.3816 291.601 62.5191 291.455 62.6896C291.309 62.86 291.203 63.0592 291.143 63.2735C291.083 63.4878 291.071 63.712 291.108 63.9306ZM148.665 122.052C149.953 132.958 152.585 143.497 156.563 153.671C156.756 154.162 157.034 154.587 157.359 154.887C157.684 155.187 158.041 155.347 158.381 155.347H199.574C199.824 155.348 200.072 155.296 200.301 155.195C200.53 155.094 200.735 154.946 200.904 154.761C201.072 154.576 201.2 154.357 201.28 154.12C201.359 153.882 201.388 153.631 201.364 153.382L198.494 122.081C198.466 121.696 198.268 121.337 197.942 121.074C197.615 120.812 197.184 120.665 196.733 120.665H149.858C149.689 120.663 149.521 120.699 149.366 120.77C149.211 120.841 149.073 120.946 148.96 121.077C148.847 121.208 148.762 121.363 148.711 121.531C148.661 121.699 148.645 121.877 148.665 122.052ZM279.006 153.902L282.074 122.11C282.09 121.925 282.061 121.739 281.991 121.563C281.921 121.388 281.81 121.227 281.665 121.091C281.521 120.955 281.346 120.847 281.152 120.773C280.958 120.7 280.75 120.663 280.54 120.665H213.779C213.52 120.666 213.263 120.705 213.024 120.78C212.786 120.855 212.57 120.964 212.391 121.099C212.212 121.235 212.074 121.395 211.985 121.569C211.897 121.743 211.859 121.927 211.875 122.11L214.915 154.104C214.944 154.444 215.136 154.761 215.452 154.991C215.767 155.221 216.184 155.348 216.619 155.347H276.989C277.504 155.345 277.997 155.197 278.37 154.929C278.743 154.662 278.969 154.296 279.006 153.902ZM295.682 121.185L292.642 153.902C292.626 154.085 292.651 154.27 292.713 154.444C292.776 154.619 292.876 154.779 293.007 154.915C293.138 155.051 293.297 155.159 293.474 155.234C293.651 155.308 293.841 155.347 294.034 155.347H335.227C335.631 155.349 336.035 155.207 336.389 154.939C336.743 154.672 337.031 154.29 337.216 153.844C341.458 143.69 344.091 133.112 345.114 122.11C345.13 121.926 345.106 121.741 345.045 121.567C344.983 121.392 344.885 121.232 344.757 121.096C344.629 120.96 344.473 120.851 344.3 120.777C344.126 120.703 343.939 120.665 343.75 120.665H296.875C296.57 120.663 296.278 120.716 296.058 120.812C295.837 120.908 295.703 121.041 295.682 121.185Z"
    
  />
  <path
    d="M500 144.682V153.353C491.449 192.688 442.216 196.185 429.687 157.803C429.521 157.3 429.226 156.861 428.844 156.55C428.462 156.239 428.011 156.071 427.557 156.069H404.119C403.743 156.069 403.381 156.222 403.115 156.493C402.849 156.764 402.699 157.131 402.699 157.514V361.994C402.699 362.377 402.849 362.745 403.115 363.016C403.381 363.287 403.743 363.439 404.119 363.439H426.847C427.297 363.439 427.741 363.252 428.103 362.91C428.465 362.568 428.724 362.092 428.835 361.561C437.983 320.26 489.659 320.376 500 362.89V371.561C492.386 409.74 445.114 415.029 430.455 378.699C430.27 378.245 429.963 377.857 429.573 377.585C429.184 377.312 428.729 377.167 428.267 377.168H257.102C256.537 377.168 255.995 377.32 255.596 377.591C255.196 377.862 254.972 378.229 254.972 378.613V424.133C254.97 424.586 255.134 425.039 255.439 425.427C255.745 425.816 256.177 426.121 256.676 426.301C310.142 445.145 268.722 522.341 225.455 490.318C201.193 472.312 208.295 435.896 236.08 426.185C236.583 426.008 237.02 425.715 237.331 425.347C237.642 424.979 237.811 424.554 237.812 424.133L237.585 378.439C237.577 378.098 237.385 377.774 237.05 377.536C236.715 377.298 236.265 377.166 235.795 377.168H72.4432C71.9711 377.166 71.5111 377.303 71.1217 377.56C70.7322 377.818 70.4308 378.184 70.2557 378.613C61.25 399.913 38.6648 410.26 18.3239 398.468C-4.40341 385.26 -5.51136 350.983 16.4489 336.763C38.4375 322.543 66.9034 335.318 71.5341 361.936C71.6073 362.357 71.8097 362.738 72.1058 363.013C72.4019 363.288 72.7728 363.439 73.1534 363.439H95.8807C96.2574 363.439 96.6187 363.287 96.8851 363.016C97.1515 362.745 97.3011 362.377 97.3011 361.994V196.532C97.3011 196.026 97.1515 195.541 96.8851 195.183C96.6187 194.825 96.2574 194.624 95.8807 194.624L71.733 195C71.4315 194.999 71.1169 195.164 70.839 195.467C70.5611 195.771 70.3358 196.196 70.1989 196.676C58.9205 235.318 9.80114 231.85 0 192.023V182.63C9.80114 143.439 59.1761 140.029 70.3693 178.844C70.5095 179.314 70.787 179.725 71.1607 180.016C71.5343 180.308 71.9841 180.464 72.4432 180.462L104.403 180.607C109.176 180.626 111.572 183.054 111.591 187.89L111.875 252.168C111.875 252.551 112.061 252.918 112.391 253.189C112.721 253.46 113.169 253.613 113.636 253.613L152.699 253.671C157.396 253.671 159.744 256.301 159.744 261.561L159.801 361.994C159.801 362.416 159.969 362.82 160.267 363.118C160.565 363.416 160.97 363.584 161.392 363.584L176.847 363.468C177.223 363.468 177.585 363.313 177.851 363.036C178.117 362.76 178.267 362.385 178.267 361.994L178.295 228.324C178.295 223.468 180.644 221.04 185.341 221.04L234.403 221.069C238.608 221.069 240.71 223.304 240.71 227.775L240.739 361.994C240.739 362.184 240.776 362.372 240.849 362.547C240.922 362.723 241.028 362.882 241.163 363.016C241.298 363.15 241.457 363.257 241.633 363.329C241.809 363.402 241.997 363.439 242.187 363.439L257.812 363.468C258.006 363.468 258.199 363.407 258.378 363.288C258.557 363.169 258.72 362.994 258.857 362.774C258.994 362.554 259.103 362.293 259.177 362.005C259.252 361.718 259.29 361.41 259.29 361.098V253.613C259.29 248.314 261.866 245.665 267.017 245.665H316.051C319.801 245.665 321.676 247.649 321.676 251.618L321.705 361.994C321.705 362.377 321.857 362.745 322.129 363.016C322.401 363.287 322.769 363.439 323.153 363.439L338.068 363.41C338.602 363.411 339.103 363.324 339.524 363.157C339.946 362.99 340.276 362.75 340.483 362.457C341.241 361.378 341.316 360.183 340.71 358.873C340.199 357.775 339.943 356.888 339.943 356.214L340.909 214.595C340.917 213.655 341.312 212.755 342.008 212.089C342.704 211.424 343.646 211.048 344.631 211.04L385.625 210.983C386.306 210.983 386.959 210.725 387.443 210.265C387.927 209.805 388.203 209.18 388.21 208.526C388.513 191.397 388.617 173.892 388.523 156.012C388.466 145.954 387.386 140.549 400.54 141.676C403.93 141.946 413.04 141.84 427.869 141.358C428.264 141.35 428.647 141.208 428.96 140.952C429.272 140.697 429.498 140.342 429.602 139.942C440.17 100.173 493.693 105.231 500 144.682ZM482.33 148.555C482.33 143.703 480.435 139.049 477.062 135.619C473.69 132.188 469.116 130.26 464.347 130.26C459.577 130.26 455.003 132.188 451.631 135.619C448.258 139.049 446.364 143.703 446.364 148.555C446.364 153.407 448.258 158.06 451.631 161.491C455.003 164.922 459.577 166.85 464.347 166.85C469.116 166.85 473.69 164.922 477.062 161.491C480.435 158.06 482.33 153.407 482.33 148.555ZM53.6932 187.63C53.6932 182.778 51.7986 178.125 48.4261 174.694C45.0536 171.263 40.4796 169.335 35.7102 169.335C30.9408 169.335 26.3668 171.263 22.9944 174.694C19.6219 178.125 17.7273 182.778 17.7273 187.63C17.7273 192.482 19.6219 197.136 22.9944 200.566C26.3668 203.997 30.9408 205.925 35.7102 205.925C40.4796 205.925 45.0536 203.997 48.4261 200.566C51.7986 197.136 53.6932 192.482 53.6932 187.63ZM388.4 224.707C388.399 224.609 388.38 224.511 388.342 224.42C388.305 224.329 388.25 224.246 388.182 224.177C388.113 224.107 388.031 224.052 387.941 224.015C387.852 223.977 387.755 223.958 387.658 223.958L354.193 224.077C353.997 224.078 353.809 224.158 353.671 224.299C353.533 224.441 353.456 224.632 353.457 224.831L353.93 362.749C353.93 362.848 353.95 362.946 353.987 363.037C354.024 363.128 354.079 363.21 354.148 363.28C354.217 363.35 354.298 363.405 354.388 363.442C354.478 363.48 354.574 363.499 354.671 363.498L388.137 363.379C388.333 363.379 388.52 363.299 388.658 363.157C388.796 363.016 388.873 362.825 388.873 362.625L388.4 224.707ZM227.273 235.723C227.273 235.59 227.247 235.458 227.197 235.335C227.147 235.213 227.074 235.101 226.981 235.007C226.889 234.913 226.78 234.839 226.659 234.788C226.538 234.737 226.409 234.711 226.278 234.711H192.756C192.625 234.711 192.496 234.737 192.375 234.788C192.255 234.839 192.145 234.913 192.053 235.007C191.96 235.101 191.887 235.213 191.837 235.335C191.787 235.458 191.761 235.59 191.761 235.723V362.428C191.761 362.696 191.866 362.953 192.053 363.143C192.239 363.333 192.492 363.439 192.756 363.439H226.278C226.542 363.439 226.795 363.333 226.981 363.143C227.168 362.953 227.273 362.696 227.273 362.428V235.723ZM308.239 260.896C308.239 260.497 308.083 260.115 307.806 259.833C307.529 259.551 307.153 259.393 306.761 259.393H274.205C273.813 259.393 273.437 259.551 273.16 259.833C272.883 260.115 272.727 260.497 272.727 260.896V361.994C272.727 362.393 272.883 362.775 273.16 363.057C273.437 363.339 273.813 363.497 274.205 363.497H306.761C307.153 363.497 307.529 363.339 307.806 363.057C308.083 362.775 308.239 362.393 308.239 361.994V260.896ZM146.573 269.227C146.574 268.996 146.531 268.766 146.445 268.552C146.359 268.338 146.232 268.143 146.072 267.978C145.912 267.814 145.721 267.683 145.512 267.593C145.302 267.503 145.077 267.456 144.849 267.455L113.032 267.286C112.804 267.285 112.578 267.329 112.368 267.417C112.157 267.504 111.965 267.633 111.803 267.796C111.642 267.959 111.513 268.152 111.425 268.366C111.337 268.579 111.291 268.808 111.289 269.04L110.813 361.582C110.812 361.813 110.856 362.043 110.942 362.257C111.028 362.472 111.154 362.667 111.314 362.831C111.475 362.996 111.665 363.127 111.875 363.216C112.085 363.306 112.31 363.353 112.537 363.354L144.355 363.523C144.582 363.525 144.808 363.48 145.019 363.393C145.229 363.305 145.421 363.176 145.583 363.014C145.745 362.851 145.873 362.657 145.961 362.444C146.05 362.23 146.096 362.001 146.097 361.77L146.573 269.227ZM54.0341 367.081C54.0341 362.237 52.1425 357.591 48.7753 354.165C45.4082 350.739 40.8414 348.815 36.0795 348.815C31.3177 348.815 26.7509 350.739 23.3838 354.165C20.0166 357.591 18.125 362.237 18.125 367.081C18.125 371.925 20.0166 376.571 23.3838 379.997C26.7509 383.422 31.3177 385.347 36.0795 385.347C40.8414 385.347 45.4082 383.422 48.7753 379.997C52.1425 376.571 54.0341 371.925 54.0341 367.081ZM482.301 367.081C482.301 362.244 480.412 357.606 477.051 354.185C473.689 350.765 469.129 348.844 464.375 348.844C462.021 348.844 459.69 349.316 457.515 350.232C455.34 351.149 453.364 352.492 451.699 354.185C450.035 355.879 448.714 357.889 447.813 360.102C446.913 362.315 446.449 364.686 446.449 367.081C446.449 369.476 446.913 371.847 447.813 374.06C448.714 376.273 450.035 378.283 451.699 379.976C453.364 381.67 455.34 383.013 457.515 383.93C459.69 384.846 462.021 385.318 464.375 385.318C469.129 385.318 473.689 383.397 477.051 379.976C480.412 376.556 482.301 371.918 482.301 367.081ZM264.29 460.954C264.29 456.109 262.398 451.463 259.031 448.038C255.664 444.612 251.097 442.688 246.335 442.688C241.573 442.688 237.007 444.612 233.639 448.038C230.272 451.463 228.381 456.109 228.381 460.954C228.381 465.798 230.272 470.444 233.639 473.87C237.007 477.295 241.573 479.22 246.335 479.22C251.097 479.22 255.664 477.295 259.031 473.87C262.398 470.444 264.29 465.798 264.29 460.954Z"
   
  />
</svg>
 