<svg width="500" height="500" viewBox="0 0 500 500" fill="none" xmlns="http://www.w3.org/2000/svg">
<path d="M360.369 103.208C342.168 100.314 323.428 98.4669 304.903 98.4392C286.726 98.4116 267.441 102.189 251.767 111.802C222.358 129.841 211.232 161.544 211.18 194.731C211.15 213.122 211.142 231.514 211.156 249.907C211.156 250.026 211.096 250.086 210.976 250.086H148.135C148.089 250.086 148.045 250.105 148.013 250.137C147.98 250.169 147.962 250.213 147.962 250.259V321.823C147.962 321.869 147.98 321.913 148.013 321.945C148.045 321.978 148.089 321.996 148.135 321.996H210.98C211.095 321.996 211.153 322.053 211.153 322.169V495.76C211.153 495.845 211.11 495.881 211.025 495.867C92.8549 476.899 4.83694 377.044 1.25269 257.445C-3.02217 114.917 113.476 -2.14778 255.783 1.28454C294.784 2.22607 331.458 11.6759 365.804 29.634C443.711 70.366 494.833 150.736 498.68 238.619C504.222 365.238 414.502 475.805 289.098 495.86C288.99 495.878 288.936 495.832 288.936 495.722L288.929 322.137C288.929 322.043 288.976 321.996 289.07 321.996H346.688C346.81 321.996 346.881 321.935 346.902 321.813L357.879 250.256C357.895 250.143 357.847 250.086 357.734 250.086H289.108C288.996 250.086 288.939 250.03 288.939 249.917C288.921 233.561 288.922 217.218 288.943 200.887C288.947 196.903 289.747 192.538 291.342 187.794C296.101 173.629 307.637 166.443 321.985 164.855C323.545 164.682 325.845 164.579 328.884 164.544C339.481 164.42 350.075 164.551 360.669 164.448C360.784 164.448 360.842 164.39 360.842 164.275V103.76C360.842 103.44 360.684 103.256 360.369 103.208Z" fill="white"/>
</svg>
