<svg width="500" height="500" viewBox="0 0 500 500" fill="none" xmlns="http://www.w3.org/2000/svg">
<g clip-path="url(#clip0_526_9)">
<path d="M499.641 353.418C499.572 392.362 484.036 429.683 456.45 457.173C428.865 484.662 391.489 500.067 352.545 500L146.582 499.641C107.638 499.572 70.3164 484.036 42.827 456.45C15.3375 428.865 -0.0676963 391.489 0.000223639 352.545L0.359653 146.582C0.427729 107.638 15.9634 70.3164 43.5491 42.827C71.1347 15.3375 108.511 -0.0676963 147.455 0.000223639L353.418 0.359653C392.362 0.427729 429.683 15.9634 457.173 43.5491C484.662 71.1347 500.067 108.511 500 147.455L499.641 353.418ZM415.991 104.201C415.991 98.8099 413.849 93.6375 410.036 89.8245C406.223 86.0113 401.052 83.8692 395.659 83.8692C390.266 83.8692 385.095 86.0113 381.282 89.8245C377.469 93.6375 375.327 98.8099 375.327 104.201C375.327 109.594 377.469 114.766 381.282 118.578C385.095 122.393 390.266 124.535 395.659 124.535C401.052 124.535 406.223 122.393 410.036 118.578C413.849 114.766 415.991 109.594 415.991 104.201ZM374.424 249.931C374.424 216.913 361.309 185.248 337.962 161.9C314.614 138.553 282.948 125.436 249.931 125.436C216.913 125.436 185.248 138.553 161.9 161.9C138.553 185.248 125.436 216.913 125.436 249.931C125.436 282.948 138.553 314.614 161.9 337.962C185.248 361.309 216.913 374.424 249.931 374.424C282.948 374.424 314.614 361.309 337.962 337.962C361.309 314.614 374.424 282.948 374.424 249.931Z" fill="white"/>
<path d="M250 333C295.839 333 333 295.839 333 250C333 204.161 295.839 167 250 167C204.159 167 167 204.161 167 250C167 295.839 204.159 333 250 333Z" fill="white"/>
</g>
<defs>
<clipPath id="clip0_526_9">
<rect width="500" height="500" fill="white"/>
</clipPath>
</defs>
</svg>
