<svg width="500" height="500" viewBox="0 0 500 500" fill="none" xmlns="http://www.w3.org/2000/svg">
<path d="M494.444 448.962C494.444 461.023 489.652 472.592 481.122 481.122C472.592 489.652 461.024 494.443 448.962 494.443H51.0362C38.9737 494.443 27.4053 489.652 18.876 481.122C10.3465 472.592 5.55469 461.023 5.55469 448.962V51.0357C5.55469 38.9732 10.3465 27.4048 18.876 18.8755C27.4053 10.346 38.9737 5.5542 51.0362 5.5542H448.962C461.024 5.5542 472.592 10.346 481.122 18.8755C489.652 27.4048 494.444 38.9732 494.444 51.0357V448.962ZM164.444 126.221C164.444 121.25 163.464 116.328 161.562 111.736C159.66 107.143 156.872 102.97 153.357 99.4555C149.842 95.9407 145.669 93.1525 141.077 91.2503C136.485 89.348 131.562 88.369 126.592 88.369C116.553 88.369 106.925 92.357 99.8265 99.4555C92.7278 106.554 88.7398 116.182 88.7398 126.221C88.7398 136.26 92.7278 145.887 99.8265 152.986C106.925 160.085 116.553 164.073 126.592 164.073C131.562 164.073 136.485 163.094 141.077 161.191C145.669 159.289 149.842 156.501 153.357 152.986C156.872 149.471 159.66 145.299 161.562 140.706C163.464 136.114 164.444 131.192 164.444 126.221ZM264.517 206.74L264.295 201.555C264.219 199.642 263.405 197.833 262.024 196.507C260.642 195.182 258.802 194.442 256.889 194.443H209.407C207.442 194.443 205.557 195.223 204.169 196.613C202.779 198.002 201.999 199.887 201.999 201.85L201.555 398.147C201.555 400.112 202.335 401.995 203.724 403.385C205.114 404.773 206.997 405.555 208.962 405.555H258.889C260.852 405.555 262.737 404.773 264.125 403.385C265.515 401.995 266.295 400.112 266.295 398.147C266.147 361.035 247.48 230.517 317.259 249.11C330.245 252.567 337.259 261.085 338.295 274.665C341.357 315.555 341.85 356.592 339.777 397.777C339.727 398.78 339.88 399.783 340.23 400.725C340.58 401.667 341.119 402.528 341.81 403.255C342.504 403.983 343.337 404.562 344.262 404.957C345.185 405.352 346.179 405.555 347.184 405.555H397.555C399.482 405.555 401.332 404.805 402.715 403.463C404.099 402.122 404.904 400.295 404.962 398.368C405.999 362.617 405.825 320.418 404.444 271.777C402.665 211.035 371.629 184.197 311.332 191.258C297.505 192.888 285.332 199.307 274.814 210.517C268.394 217.332 264.962 216.073 264.517 206.74ZM159.807 197.76C159.808 197.342 159.726 196.927 159.567 196.54C159.407 196.153 159.173 195.802 158.878 195.505C158.583 195.21 158.232 194.973 157.846 194.813C157.46 194.653 157.045 194.57 156.627 194.568L97.8132 194.467C97.395 194.465 96.9807 194.547 96.5938 194.707C96.2072 194.865 95.8555 195.1 95.5592 195.395C95.2628 195.69 95.0276 196.04 94.8668 196.427C94.706 196.813 94.6228 197.227 94.6222 197.645L94.265 402.238C94.2643 402.657 94.3462 403.07 94.5055 403.457C94.665 403.843 94.899 404.195 95.1943 404.492C95.4896 404.788 95.8403 405.023 96.2265 405.183C96.6127 405.345 97.0268 405.428 97.445 405.428L156.259 405.532C156.677 405.532 157.092 405.45 157.478 405.292C157.865 405.132 158.217 404.898 158.513 404.602C158.809 404.307 159.045 403.957 159.205 403.57C159.366 403.185 159.449 402.77 159.45 402.352L159.807 197.76Z" fill="white"/>
</svg>
