<svg width="500" height="500" viewBox="0 0 500 500" fill="none" xmlns="http://www.w3.org/2000/svg">
<path d="M241.167 281.334C236.093 279.334 231.555 276.481 227.555 272.778L46.167 103.722C43.5374 101.241 44.0189 100 47.6114 100H452.667C456.186 100 456.667 101.204 454.112 103.611C392.816 160.796 330.834 217.907 268.167 274.945C259.463 282.834 250.463 284.963 241.167 281.334Z" fill="white"/>
<path d="M18.998 123.277L147.498 246.166C147.669 246.333 147.806 246.53 147.898 246.75C147.992 246.97 148.039 247.205 148.039 247.444C148.039 247.683 147.992 247.919 147.898 248.138C147.806 248.358 147.669 248.556 147.498 248.721L20.3313 372.944C20.0798 373.183 19.7642 373.341 19.4233 373.403C19.0824 373.464 18.731 373.425 18.4124 373.289C18.0938 373.153 17.8217 372.928 17.6297 372.639C17.4375 372.35 17.3339 372.013 17.3313 371.666L15.998 124.555C16.0005 124.209 16.1042 123.871 16.2963 123.583C16.4883 123.294 16.7604 123.068 17.079 122.933C17.3977 122.797 17.749 122.757 18.09 122.819C18.4309 122.88 18.7464 123.039 18.998 123.277Z" fill="white"/>
<path d="M480.723 373.221C437.278 332.61 396.834 288.444 354.334 247.444C353.983 247.099 353.705 246.685 353.517 246.23C353.329 245.775 353.235 245.286 353.24 244.794C353.245 244.3 353.35 243.814 353.548 243.362C353.744 242.911 354.03 242.504 354.389 242.166L480.723 124.055C482.463 122.425 483.334 122.796 483.334 125.166V372.11C483.334 374.481 482.463 374.851 480.723 373.221Z" fill="white"/>
<path d="M453.834 393.666C454.983 394.37 456.001 395.389 456.89 396.721C458.445 398.907 457.871 400 455.167 400H43.834C41.7229 400 41.4266 399.24 42.9451 397.721L168.723 272C169.946 270.775 171.608 270.087 173.346 270.087C175.084 270.087 176.758 270.775 178.001 272C198.279 291.832 224.445 320.889 256.667 316.166C281.667 312.5 305.501 290.277 322.334 271.221C322.844 270.651 323.464 270.19 324.158 269.867C324.853 269.545 325.605 269.367 326.37 269.347C327.134 269.326 327.895 269.462 328.606 269.746C329.316 270.03 329.961 270.457 330.501 271L452.111 392.277C452.63 392.796 453.205 393.259 453.834 393.666Z" fill="white"/>
</svg>
