<svg width="500" height="500" viewBox="0 0 500 500" fill="white" fill-opacity="0.4" xmlns="http://www.w3.org/2000/svg">
<path d="M40.6535 0H50.5967C65.2179 3.33333 75.0759 12.1965 80.1706 26.5896C80.3387 27.0551 80.6413 27.457 81.0375 27.7412C81.4336 28.0254 81.9044 28.1783 82.3865 28.1792L147.727 28.1503C152.008 28.1503 154.148 30.3276 154.148 34.6821L154.119 108.382C154.119 108.894 154.031 109.391 153.86 109.842C153.69 110.294 153.44 110.691 153.125 111.012C147.5 116.773 142.368 116.378 137.727 109.827C137.307 109.214 137.073 108.179 137.074 106.936V46.9653C137.074 46.5821 136.924 46.2145 136.658 45.9435C136.392 45.6725 136.03 45.5202 135.654 45.5202H82.3865C81.9272 45.522 81.4753 45.6747 81.09 45.9584C80.7047 46.242 80.404 46.6434 80.2274 47.1098C73.5513 65.4335 56.8751 76.6185 38.2388 72.4855C-1.98852 63.5838 0.653529 7.97688 40.6535 0ZM63.5228 36.6763C63.5228 31.7399 61.5953 27.0057 58.1642 23.5151C54.7332 20.0246 50.0796 18.0636 45.2274 18.0636C40.3751 18.0636 35.7216 20.0246 32.2905 23.5151C28.8595 27.0057 26.9319 31.7399 26.9319 36.6763C26.9319 41.6127 28.8595 46.3469 32.2905 49.8375C35.7216 53.328 40.3751 55.289 45.2274 55.289C50.0796 55.289 54.7332 53.328 58.1642 49.8375C61.5953 46.3469 63.5228 41.6127 63.5228 36.6763Z" fill="white" />
<path d="M444.773 0H454.716C475.17 4.19075 489.915 23.9306 484.943 44.5087C475.966 81.4451 426.193 83.237 415.028 47.0231C414.898 46.5877 414.664 46.2058 414.362 45.9348C414.059 45.6638 413.705 45.5183 413.352 45.5202H359.375C358.998 45.5202 358.637 45.6725 358.371 45.9435C358.104 46.2145 357.955 46.5821 357.955 46.9653V108.382C357.955 112.351 356.013 114.682 352.131 115.376C342.614 117.11 340.312 111.069 340.256 102.659C340.142 80.3083 340.152 57.9287 340.284 35.5202C340.322 30.9923 342.566 28.5838 347.017 28.2948C368.977 26.9653 390.881 28.7283 412.926 27.8035C413.339 27.7862 413.738 27.6422 414.072 27.3898C414.407 27.1375 414.66 26.7884 414.801 26.3873C419.877 12.0328 429.867 3.23699 444.773 0ZM468.011 36.7052C468.011 31.7688 466.084 27.0346 462.653 23.544C459.222 20.0535 454.568 18.0925 449.716 18.0925C444.864 18.0925 440.21 20.0535 436.779 23.544C433.348 27.0346 431.42 31.7688 431.42 36.7052C431.42 41.6416 433.348 46.3758 436.779 49.8664C440.21 53.3569 444.864 55.3179 449.716 55.3179C452.119 55.3179 454.498 54.8365 456.717 53.9011C458.937 52.9657 460.954 51.5947 462.653 49.8664C464.352 48.138 465.699 46.0862 466.619 43.828C467.538 41.5698 468.011 39.1495 468.011 36.7052Z" fill="white" fill-opacity="0.4"  />
<path d="M243.778 112.081C239.422 111.098 237.235 108.179 237.216 103.324V93.2081C237.215 92.763 237.056 92.3124 236.759 91.9119C236.461 91.5113 236.037 91.1783 235.54 90.9537C202.585 76.1272 203.722 28.2948 239.347 20.289C282.443 10.6069 302.216 72.8902 259.176 91.185C258.781 91.3464 258.443 91.6226 258.205 91.9781C257.967 92.3335 257.84 92.7518 257.841 93.1792C257.926 103.121 258.239 115.347 243.778 112.081ZM265.739 56.185C265.739 53.7445 265.266 51.3279 264.348 49.0732C263.43 46.8186 262.085 44.7699 260.388 43.0442C258.692 41.3186 256.678 39.9497 254.462 39.0158C252.246 38.0818 249.87 37.6011 247.472 37.6011C242.627 37.6011 237.981 39.5591 234.555 43.0442C231.129 46.5294 229.204 51.2562 229.204 56.185C229.204 61.1137 231.129 65.8406 234.555 69.3257C237.981 72.8108 242.627 74.7688 247.472 74.7688C249.87 74.7688 252.246 74.2881 254.462 73.3542C256.678 72.4202 258.692 71.0514 260.388 69.3257C262.085 67.6 263.43 65.5514 264.348 63.2967C265.266 61.042 265.739 58.6254 265.739 56.185Z" fill="white" />
<path d="M446.165 372.023L453.352 373.988C454.118 374.192 454.81 374.73 455.284 375.491C461.705 385.694 454.631 390.954 444.972 390.925C428.532 390.886 412.301 390.877 396.279 390.896C395.923 390.896 395.571 390.974 395.248 391.125C394.925 391.276 394.637 391.496 394.405 391.771C394.173 392.045 394.002 392.367 393.904 392.715C393.806 393.063 393.782 393.428 393.835 393.786C400.966 443.497 332.869 450.896 334.375 392.399C334.379 392.203 334.349 392.007 334.286 391.825C334.224 391.643 334.13 391.476 334.011 391.336C333.892 391.196 333.75 391.085 333.593 391.01C333.436 390.934 333.267 390.895 333.097 390.896L279.119 390.867C277.761 390.866 276.447 390.478 275.355 389.755C274.263 389.031 273.446 388.008 273.011 386.821C269.943 378.401 272.86 373.671 281.761 372.63C282.982 372.487 284.109 371.839 284.926 370.81C285.744 369.781 286.195 368.443 286.193 367.052L286.222 319.364C286.222 318.981 286.072 318.613 285.806 318.342C285.539 318.071 285.178 317.919 284.801 317.919L107.443 317.89C102.102 317.871 99.4319 315.231 99.4319 309.971V126.445C99.4319 121.57 101.818 119.104 106.591 119.046C177.822 118.43 249.271 118.285 320.938 118.613C338.494 118.671 363.068 119.48 384.375 118.353C391.894 117.948 395.654 121.59 395.654 129.277L395.625 229.74C395.624 230.147 395.743 230.552 395.969 230.909C396.194 231.266 396.518 231.562 396.904 231.763C452.955 260.087 443.324 313.96 443.154 367.081C443.155 368.265 443.452 369.393 443.998 370.288C444.543 371.183 445.305 371.793 446.165 372.023ZM361.449 138.121C361.58 138.001 361.672 137.844 361.714 137.67C361.756 137.496 361.746 137.313 361.685 137.145C361.623 136.977 361.514 136.832 361.371 136.727C361.228 136.623 361.057 136.565 360.881 136.561H134.574C134.398 136.565 134.227 136.623 134.084 136.727C133.941 136.832 133.831 136.977 133.77 137.145C133.709 137.313 133.699 137.496 133.741 137.67C133.783 137.844 133.875 138.001 134.006 138.121L247.159 234.942C247.318 235.079 247.519 235.154 247.727 235.154C247.935 235.154 248.137 235.079 248.296 234.942L361.449 138.121ZM242.443 254.393C201.648 219.277 160.739 182.803 118.636 148.96C117.671 148.189 117.188 148.391 117.188 149.566V298.41C117.188 298.794 117.337 299.161 117.604 299.432C117.87 299.703 118.231 299.855 118.608 299.855H284.801C285.224 299.854 285.634 299.679 285.953 299.365C286.272 299.051 286.479 298.619 286.534 298.15C292.5 250.665 329.943 219.942 376.903 225.607C377.11 225.631 377.32 225.608 377.518 225.537C377.717 225.467 377.9 225.351 378.055 225.199C378.211 225.046 378.335 224.859 378.421 224.65C378.506 224.442 378.551 224.216 378.551 223.988V149.566C378.551 147.794 377.945 147.428 376.733 148.468L252.898 254.393C249.394 257.399 245.909 257.399 242.443 254.393ZM422.898 286.821C405.653 228.526 324.602 229.046 306.875 286.04C304.849 292.534 303.892 302.813 304.006 316.879C304.157 334.99 303.996 353.141 303.523 371.329C303.519 371.526 303.546 371.722 303.603 371.904C303.66 372.087 303.745 372.253 303.853 372.393C303.962 372.533 304.092 372.644 304.235 372.72C304.378 372.795 304.532 372.833 304.688 372.832H424.716C424.868 372.834 425.018 372.795 425.158 372.718C425.298 372.641 425.424 372.528 425.53 372.386C425.636 372.243 425.719 372.073 425.774 371.887C425.83 371.701 425.856 371.501 425.852 371.301C425.227 346.156 429.205 308.15 422.898 286.821ZM352.813 392.341C346.761 413.931 371.563 428.786 377.784 399.595C379.034 393.757 377.008 390.838 371.705 390.838L354.46 390.896C354.099 390.898 353.742 391.041 353.444 391.302C353.147 391.563 352.925 391.928 352.813 392.341Z" fill="white" />
<path d="M0 223.092V213.699C7.86932 174.162 57.7557 170.78 70.9943 208.41C71.1443 208.804 71.4094 209.139 71.7515 209.368C72.0936 209.596 72.4949 209.706 72.8977 209.682C78.4375 209.306 89.5739 208.092 93.3239 212.861C101.818 223.699 88.2102 228.844 79.1477 226.965C74.4129 226.002 71.2311 227.823 69.6023 232.428C57.0739 267.543 7.27273 260.376 0 223.092ZM54.3182 218.613C54.3182 216.168 53.845 213.748 52.9255 211.49C52.0061 209.232 50.6585 207.18 48.9596 205.452C47.2607 203.723 45.2438 202.352 43.0241 201.417C40.8044 200.481 38.4253 200 36.0227 200C31.1705 200 26.5169 201.961 23.0859 205.452C19.6548 208.942 17.7273 213.676 17.7273 218.613C17.7273 223.549 19.6548 228.283 23.0859 231.774C26.5169 235.264 31.1705 237.225 36.0227 237.225C38.4253 237.225 40.8044 236.744 43.0241 235.809C45.2438 234.873 47.2607 233.502 48.9596 231.774C50.6585 230.046 52.0061 227.994 52.9255 225.736C53.845 223.477 54.3182 221.057 54.3182 218.613Z" fill="white" />
<path d="M424.034 210.058C424.504 210.131 424.972 210.069 425.357 209.884C425.742 209.699 426.018 209.402 426.136 209.046C443.494 154.422 520.568 192.11 491.222 238.902C474.631 265.376 436.648 258.15 426.733 229.422C426.587 229.005 426.337 228.638 426.01 228.362C425.684 228.087 425.295 227.913 424.886 227.861C416.847 226.792 391.989 230.173 404.972 211.647C405.233 211.272 405.544 210.955 405.885 210.717C406.227 210.479 406.593 210.323 406.96 210.26C412.642 209.22 418.333 209.152 424.034 210.058ZM479.375 218.584C479.375 213.663 477.453 208.943 474.033 205.464C470.613 201.984 465.974 200.029 461.136 200.029C456.299 200.029 451.66 201.984 448.24 205.464C444.819 208.943 442.898 213.663 442.898 218.584C442.898 223.505 444.819 228.224 448.24 231.704C451.66 235.184 456.299 237.139 461.136 237.139C465.974 237.139 470.613 235.184 474.033 231.704C477.453 228.224 479.375 223.505 479.375 218.584Z" fill="white" />
<path d="M137.074 449.422V329.48C137.074 328.782 137.131 328.142 137.239 327.61C137.348 327.078 137.505 326.669 137.699 326.416C142.339 320.347 147.528 319.952 153.267 325.231C153.53 325.473 153.745 325.854 153.893 326.342C154.042 326.829 154.119 327.41 154.119 328.035V462.428C154.119 466.744 151.979 468.902 147.699 468.902L81.6761 468.931C81.314 468.933 80.9553 469.074 80.6534 469.335C80.3514 469.595 80.1223 469.96 79.9999 470.376C70.4829 501.734 31.1647 505.694 14.3465 479.277C4.11926 463.266 9.8863 438.584 26.392 428.757C47.6704 416.098 71.534 426.647 80.1988 449.913C80.3476 450.31 80.6115 450.649 80.9531 450.882C81.2947 451.116 81.6968 451.232 82.1022 451.214C104.29 450.376 118.04 452.63 135.483 450.838C135.916 450.793 136.319 450.624 136.612 450.362C136.906 450.1 137.071 449.766 137.074 449.422ZM63.5227 460.202C63.5227 455.274 61.5981 450.547 58.1724 447.062C54.7466 443.576 50.1003 441.619 45.2556 441.619C40.4109 441.619 35.7646 443.576 32.3389 447.062C28.9131 450.547 26.9886 455.274 26.9886 460.202C26.9886 465.131 28.9131 469.858 32.3389 473.343C35.7646 476.828 40.4109 478.786 45.2556 478.786C50.1003 478.786 54.7466 476.828 58.1724 473.343C61.5981 469.858 63.5227 465.131 63.5227 460.202Z" fill="white" />
<path d="M282.472 468.295C292.159 478.035 282.415 484.595 272.898 483.757C219.261 479.133 179.034 437.139 180.341 382.225C180.455 376.734 183.542 374.557 189.602 375.694C194.413 376.58 196.989 379.47 197.33 384.364C200.227 425.087 225.199 459.682 266.165 464.769C270.824 465.366 275.455 466.118 280.057 467.023C280.983 467.211 281.822 467.653 282.472 468.295Z" fill="white" />
<path d="M282.415 424.971C292.159 435.318 281.989 441.676 272.244 440.462C245.682 437.052 223.295 415.26 222.869 387.139C222.727 377.139 230.767 371.185 238.409 379.798C239.069 380.544 239.462 381.365 239.517 382.11C241.468 407.543 254.934 421.272 279.915 423.295C280.232 423.323 280.624 423.489 281.059 423.781C281.493 424.073 281.958 424.481 282.415 424.971Z" fill="white" />
<path d="M454.375 500H444.432C429.735 496.667 419.867 487.861 414.83 473.584C414.689 473.183 414.435 472.834 414.101 472.581C413.767 472.329 413.368 472.185 412.955 472.168C386.818 471.243 368.21 473.988 346.051 471.647C340.71 471.089 338.788 468.054 340.284 462.543C342.813 453.295 348.239 454.509 355.909 454.509C374.924 454.566 393.958 454.499 413.011 454.306C413.42 454.299 413.818 454.163 414.153 453.915C414.487 453.667 414.743 453.32 414.886 452.919C428.864 411.59 488.011 421.763 485.199 466.59C484.138 483.719 473.864 494.855 454.375 500ZM468.011 463.324C468.011 458.387 466.084 453.653 462.653 450.162C459.222 446.672 454.568 444.711 449.716 444.711C444.864 444.711 440.21 446.672 436.779 450.162C433.348 453.653 431.42 458.387 431.42 463.324C431.42 468.26 433.348 472.994 436.779 476.485C440.21 479.975 444.864 481.936 449.716 481.936C454.568 481.936 459.222 479.975 462.653 476.485C466.084 472.994 468.011 468.26 468.011 463.324Z" fill="white" />
</svg>
