<svg width="173" height="173" viewBox="0 0 173 173" fill="none" xmlns="http://www.w3.org/2000/svg">
<path d="M89.075 146.83H81.7422V145.05C81.7225 129.32 62.142 122.55 52.401 134.47L42.0013 123.89C49.0294 117.84 49.9043 107.13 43.9574 99.9799C40.4777 95.7899 35.2189 93.5799 29.8422 94.0299V79.1099C39.0033 79.9299 47.0832 73.0299 47.8892 63.7099C48.361 58.1999 46.169 52.8099 42.0013 49.2499L52.401 38.6699C58.2692 45.8599 68.7475 46.8399 75.8149 40.8799C80.0318 37.3199 82.2533 31.8699 81.752 26.3099H89.0848C90.343 26.2899 91.3456 25.2299 91.326 23.9499C91.3063 22.6999 90.3135 21.6899 89.0848 21.6699H79.4715C78.2134 21.6699 77.1911 22.7099 77.1911 23.9899V28.0899C77.1124 34.8099 71.6865 40.1999 65.0712 40.1099C61.9749 40.0699 59.0163 38.8099 56.8144 36.5999L54.013 33.7499C53.1185 32.8499 51.6834 32.8499 50.7889 33.7499L37.1652 47.6099C34.9535 49.8099 38.6888 52.2499 40.0059 53.7599C47.4469 61.0199 41.8834 74.7099 31.5722 74.4699H27.5617C26.3035 74.4699 25.2812 75.5099 25.2812 76.7899V96.3499C25.2812 97.6299 26.3035 98.6699 27.5617 98.6699H31.5918C41.8932 98.4299 47.4272 112.13 40.0157 119.37L37.1652 122.24C36.2805 123.15 36.2707 124.61 37.1652 125.52L50.7889 139.38C51.6932 140.25 53.1087 140.25 54.013 139.38L56.8144 136.52C61.5228 131.8 69.1014 131.86 73.7409 136.64C75.9132 138.88 77.1419 141.89 77.1812 145.03V149.13C77.1812 150.41 78.2035 151.45 79.4617 151.45H89.075C90.3332 151.43 91.3358 150.37 91.3063 149.09C91.2866 147.84 90.2939 146.84 89.075 146.82V146.83Z" fill="white"/>
<path d="M79.4619 151.96C77.9285 151.96 76.69 150.69 76.69 149.14V145.04C76.6507 142.01 75.4809 139.16 73.3872 137C71.2346 134.78 68.3643 133.54 65.2975 133.52C62.2307 133.53 59.3408 134.69 57.1587 136.88L54.3572 139.73C53.2563 140.79 51.546 140.79 50.4549 139.73L36.8213 125.86C35.7499 124.76 35.7499 122.97 36.8213 121.87L39.6719 119C43.6136 115.15 43.4563 109.95 41.9917 106.36C40.5369 102.79 37.0474 99.0099 31.6117 99.1499H27.5717C26.0383 99.1499 24.7998 97.8799 24.7998 96.3299V76.7699C24.7998 76.0199 25.0849 75.3099 25.6157 74.7799C26.1366 74.2499 26.8345 73.9599 27.5717 73.9599H31.5822C37.0474 74.0699 40.5369 70.3099 41.9917 66.7399C43.4563 63.1599 43.6136 57.9499 39.6719 54.1099C39.3967 53.7999 39.0428 53.4699 38.6693 53.1099C37.4897 51.9999 36.0153 50.6199 35.9957 49.1099C35.9957 48.4299 36.2709 47.7999 36.8312 47.2499L50.4549 33.3899C51.5362 32.2999 53.2957 32.2999 54.3671 33.3899L57.1685 36.2399C59.2917 38.3699 62.1029 39.5599 65.0813 39.5999C68.1579 39.6199 71.0478 38.4599 73.2398 36.2799C75.4318 34.0999 76.6605 31.1899 76.6998 28.0699V23.9799C76.6998 22.4199 77.9383 21.1599 79.4717 21.1599H89.085C90.5988 21.1899 91.7882 22.3999 91.8177 23.9299C91.8275 24.6799 91.5522 25.3999 91.0411 25.9399C90.53 26.4799 89.8321 26.7899 89.0949 26.7999H82.283C82.6172 32.3299 80.3367 37.6999 76.1297 41.2499C72.6107 44.2199 68.1678 45.6199 63.6167 45.1899C59.2425 44.7799 55.2714 42.7199 52.3815 39.3899L42.7289 49.1999C46.7492 52.8499 48.8527 58.2399 48.3809 63.7299C47.9779 68.3699 45.8252 72.5799 42.3259 75.5699C38.9544 78.4499 34.7178 79.8799 30.3437 79.6199V93.4699C35.6713 93.1899 40.8809 95.4699 44.3409 99.6299C50.337 106.84 49.5801 117.61 42.7289 123.89L52.3815 133.71C57.0407 128.35 64.3244 126.48 71.0773 128.96C77.958 131.49 82.2338 137.64 82.2437 145.02V146.3H89.0949C90.589 146.33 91.7882 147.54 91.8177 149.07C91.8471 150.62 90.6283 151.91 89.0949 151.94H79.4717L79.4619 151.96ZM65.2189 132.52C68.443 132.52 71.6572 133.78 74.095 136.29C76.3656 138.63 77.6434 141.74 77.6828 145.03V149.14C77.6828 150.14 78.4789 150.96 79.4717 150.96H89.085C90.0581 150.94 90.8445 150.11 90.8249 149.11C90.8052 148.13 90.0385 147.35 89.0752 147.33H81.2509V145.05C81.2509 138.1 77.2109 132.31 70.7333 129.93C64.1966 127.53 57.1488 129.44 52.7747 134.79L52.4307 135.21L41.2741 123.86L41.6771 123.51C48.489 117.65 49.3442 107.24 43.5742 100.3C40.2027 96.2399 35.0815 94.0899 29.8718 94.5299L29.3411 94.5799V78.5699L29.8718 78.6199C38.7479 79.4199 46.6017 72.6999 47.3783 63.6699C47.8403 58.3299 45.6974 53.0899 41.6673 49.6399L41.2545 49.2899L52.411 37.9399L52.755 38.3599C55.5073 41.7299 59.39 43.8099 63.6757 44.2199C67.9712 44.6199 72.1586 43.2999 75.4711 40.4999C79.57 37.0399 81.7227 31.7499 81.2312 26.3599L81.1821 25.8099H89.0555C89.5274 25.8099 89.9697 25.5999 90.3039 25.2599C90.6381 24.9099 90.815 24.4499 90.8052 23.9699C90.7855 22.9799 90.0188 22.1999 89.0457 22.1799H79.4422C78.4593 22.1799 77.6533 22.9899 77.6533 23.9999V28.0999C77.614 31.4899 76.2771 34.6599 73.8886 37.0199C71.5098 39.3799 68.3644 40.6399 65.0321 40.6199C61.7982 40.5799 58.7412 39.2799 56.4411 36.9699L53.6397 34.1199C52.9418 33.4199 51.8114 33.4199 51.1135 34.1199L37.4897 47.9799C37.1162 48.3499 36.9393 48.7199 36.9491 49.1199C36.9688 50.1999 38.2663 51.4199 39.3082 52.3999C39.7014 52.7699 40.0749 53.1199 40.3501 53.4399C43.9183 56.9199 44.9012 62.1799 42.8763 67.1499C40.8515 72.0999 36.5166 75.0899 31.5429 74.9899H27.5422C27.0704 74.9899 26.6183 75.1799 26.2841 75.5199C25.9499 75.8599 25.7631 76.3199 25.7631 76.7999V96.3599C25.7631 97.3599 26.5593 98.1799 27.5521 98.1799H31.5822C36.5265 98.0799 40.8613 101.06 42.8763 106C44.8717 110.89 43.879 116.28 40.3403 119.74L37.4996 122.61C36.8017 123.32 36.8017 124.48 37.4996 125.19L51.1233 139.05C51.8311 139.73 52.9418 139.73 53.6593 139.05L56.4509 136.2C58.8788 133.77 62.044 132.56 65.1992 132.56L65.2189 132.52Z" fill="white"/>
<path d="M89.0752 52.96C70.8316 52.96 56.0381 68 56.0381 86.57C56.0381 105.13 70.8316 120.18 89.0752 120.18C90.3334 120.16 91.336 119.1 91.3065 117.82C91.2868 116.57 90.2941 115.57 89.0752 115.55C51.2904 113.96 51.3101 59.19 89.0752 57.61C90.3334 57.59 91.336 56.54 91.3163 55.26C91.2967 54.01 90.3039 52.99 89.0752 52.98V52.96Z" fill="white"/>
<path d="M89.075 120.68C80.1104 120.68 71.6963 117.13 65.3661 110.69C59.0359 104.25 55.5464 95.68 55.5464 86.57C55.5464 67.76 70.5856 52.46 89.075 52.46C90.5789 52.48 91.7781 53.7 91.8076 55.24C91.8174 55.99 91.5422 56.7 91.0212 57.24C90.5003 57.78 89.8122 58.08 89.075 58.09C75.6675 58.65 61.2279 67.8 61.2279 86.56C61.2279 99.71 69.9467 114.23 89.0848 115.03C90.5691 115.06 91.7584 116.27 91.7879 117.79C91.7977 118.54 91.5225 119.26 91.0114 119.8C90.5002 120.34 89.8122 120.65 89.0651 120.66H89.0553L89.075 120.68ZM89.075 53.47C71.1262 53.47 56.5293 68.32 56.5293 86.58C56.5293 95.43 59.9107 103.74 66.064 109.99C72.2075 116.24 80.3758 119.68 89.0651 119.68H89.075C89.5468 119.68 89.9891 119.47 90.3233 119.12C90.6575 118.77 90.8345 118.31 90.8246 117.83C90.805 116.85 90.0383 116.06 89.075 116.05C69.2684 115.22 60.2646 100.19 60.2646 86.58C60.2646 72.97 69.2783 57.94 89.0651 57.11C89.5566 57.11 89.9989 56.91 90.3332 56.56C90.6674 56.21 90.8443 55.75 90.8345 55.27C90.8246 54.28 90.0481 53.5 89.075 53.48V53.47Z" fill="white"/>
<path d="M86.8047 69.0497C86.8047 70.3297 87.827 71.3697 89.0851 71.3697H100.851C105.363 71.3697 109.688 69.5297 112.882 66.2797L122.545 56.4797C126.595 58.7897 131.726 57.3097 133.987 53.1897C136.257 49.0697 134.802 43.8497 130.753 41.5497C126.703 39.2397 121.572 40.7197 119.311 44.8397C117.886 47.4397 117.886 50.6097 119.321 53.2097L109.658 63.0197C107.329 65.3997 104.164 66.7397 100.861 66.7397H89.095C87.8368 66.7397 86.8145 67.7797 86.8145 69.0597L86.8047 69.0497ZM126.624 45.0897C128.767 45.1197 130.477 46.8997 130.448 49.0797C130.418 51.2197 128.728 52.9397 126.624 52.9697C124.481 52.9497 122.771 51.1697 122.791 48.9897C122.81 46.8497 124.511 45.1097 126.624 45.0897Z" fill="white"/>
<path d="M100.841 71.8698H89.0751C88.3281 71.8698 87.64 71.5798 87.119 71.0398C86.598 70.5098 86.313 69.7998 86.313 69.0498C86.313 68.2898 86.598 67.5898 87.1288 67.0598C87.6498 66.5298 88.3477 66.2398 89.0849 66.2398H100.851C104.045 66.2398 107.043 64.9698 109.304 62.6698L118.711 53.1298C117.384 50.4598 117.433 47.2298 118.878 44.6098C120.038 42.4998 121.935 40.9698 124.226 40.3198C126.516 39.6598 128.914 39.9498 130.988 41.1298C133.062 42.3098 134.566 44.2398 135.215 46.5698C135.864 48.8998 135.579 51.3398 134.419 53.4498C133.259 55.5598 131.362 57.0898 129.072 57.7398C126.899 58.3598 124.629 58.1398 122.633 57.1098L113.226 66.6498C109.924 70.0198 105.53 71.8698 100.851 71.8798L100.841 71.8698ZM89.0751 67.2298C88.6033 67.2298 88.1511 67.4198 87.8169 67.7598C87.4827 68.0998 87.2959 68.5598 87.2959 69.0398C87.2959 69.5298 87.4827 69.9798 87.8169 70.3298C88.1511 70.6698 88.6033 70.8598 89.0751 70.8598H100.841C105.255 70.8598 109.403 69.0998 112.519 65.9198L122.446 55.8498L122.771 56.0298C124.619 57.0798 126.752 57.3398 128.786 56.7498C130.821 56.1598 132.512 54.8098 133.544 52.9298C134.576 51.0498 134.832 48.8798 134.252 46.8098C133.672 44.7398 132.345 43.0198 130.497 41.9698C128.649 40.9198 126.516 40.6598 124.481 41.2498C122.446 41.8398 120.756 43.1898 119.724 45.0698C118.387 47.4998 118.387 50.5198 119.733 52.9498L119.92 53.2798L109.992 63.3498C107.555 65.8398 104.301 67.2098 100.841 67.2198H89.0751V67.2298ZM126.624 53.4598C125.444 53.4498 124.353 52.9698 123.537 52.1298C122.722 51.2798 122.279 50.1598 122.289 48.9798C122.309 46.5798 124.255 44.6098 126.604 44.5898H126.614C127.784 44.6098 128.865 45.0798 129.681 45.9298C130.497 46.7798 130.939 47.8998 130.919 49.0898C130.89 51.5198 128.993 53.4398 126.614 53.4698L126.624 53.4598ZM126.624 45.5798C124.805 45.5998 123.302 47.1298 123.282 48.9798C123.282 49.8998 123.616 50.7698 124.245 51.4198C124.874 52.0798 125.72 52.4398 126.624 52.4498C128.462 52.4298 129.927 50.9298 129.946 49.0498C129.956 48.1298 129.622 47.2598 128.983 46.6098C128.354 45.9498 127.509 45.5798 126.614 45.5698L126.624 45.5798Z" fill="white"/>
<path d="M136.463 77.99C132.699 78 129.396 80.56 128.383 84.25H89.0751C87.8169 84.28 86.8241 85.35 86.8634 86.63C86.8929 87.86 87.866 88.85 89.0751 88.88H128.383C129.651 93.43 134.301 96.07 138.773 94.78C143.246 93.49 145.841 88.76 144.573 84.21C143.541 80.52 140.228 77.98 136.463 77.99ZM136.463 90.51C134.32 90.51 132.59 88.75 132.59 86.57C132.59 84.39 134.32 82.63 136.463 82.63C138.606 82.67 140.307 84.47 140.267 86.64C140.228 88.76 138.547 90.47 136.463 90.51Z" fill="white"/>
<path d="M136.473 95.61C134.979 95.61 133.495 95.22 132.148 94.46C130.182 93.34 128.727 91.55 128.03 89.39H89.0849C87.6007 89.35 86.4211 88.15 86.3818 86.65C86.3425 85.1 87.5515 83.8 89.0751 83.76H128.03C129.209 80.07 132.63 77.52 136.463 77.5H136.483C140.444 77.5 143.963 80.21 145.045 84.09C145.693 86.42 145.408 88.86 144.258 90.98C143.098 93.09 141.201 94.62 138.911 95.28C138.105 95.51 137.279 95.63 136.463 95.63L136.473 95.61ZM128.393 88.38H128.767L128.865 88.74C129.445 90.81 130.782 92.53 132.63 93.58C134.478 94.63 136.621 94.88 138.655 94.3C140.69 93.71 142.381 92.35 143.413 90.47C144.445 88.59 144.691 86.41 144.121 84.34C143.157 80.89 140.022 78.48 136.503 78.48H136.483C132.954 78.49 129.828 80.92 128.875 84.37L128.777 84.74H89.0947C88.1216 84.77 87.3451 85.6 87.3746 86.61C87.4041 87.58 88.1609 88.35 89.1144 88.38H128.413H128.393ZM136.473 91C134.065 91 132.109 89.01 132.109 86.56C132.109 85.37 132.561 84.26 133.387 83.42C134.212 82.58 135.303 82.12 136.473 82.12C137.653 82.14 138.734 82.62 139.55 83.48C140.356 84.33 140.798 85.46 140.769 86.64C140.729 89.04 138.842 90.96 136.483 91H136.473ZM136.463 83.12C135.569 83.12 134.724 83.48 134.085 84.13C133.446 84.78 133.092 85.64 133.092 86.56C133.092 88.46 134.606 90 136.473 90C138.301 89.96 139.756 88.48 139.786 86.62C139.805 85.7 139.461 84.83 138.842 84.17C138.223 83.51 137.368 83.14 136.473 83.12H136.463Z" fill="white"/>
<path d="M126.624 115.54C125.189 115.54 123.783 115.94 122.535 116.66L112.882 106.87C109.687 103.61 105.362 101.78 100.841 101.77H89.0749C87.8167 101.79 86.8141 102.84 86.8338 104.12C86.8534 105.37 87.8462 106.38 89.0749 106.4H100.841C104.153 106.4 107.319 107.75 109.658 110.13L119.311 119.92C117.04 124.06 118.495 129.28 122.564 131.59C126.634 133.9 131.765 132.42 134.035 128.28C136.306 124.14 134.851 118.92 130.782 116.61C129.514 115.89 128.079 115.52 126.634 115.52L126.624 115.54ZM126.624 128.05C124.481 128 122.79 126.2 122.83 124.03C122.869 121.92 124.55 120.22 126.624 120.17C128.757 120.23 130.447 122.05 130.379 124.22C130.32 126.31 128.668 127.98 126.624 128.04V128.05Z" fill="white"/>
<path d="M126.654 133.19C125.15 133.19 123.665 132.8 122.319 132.04C120.235 130.86 118.731 128.92 118.082 126.59C117.463 124.38 117.689 122.07 118.701 120.03L109.304 110.5C107.044 108.19 104.036 106.92 100.841 106.91H89.0752C87.5614 106.89 86.3622 105.67 86.3425 104.14C86.3327 103.39 86.6079 102.68 87.1191 102.13C87.6302 101.58 88.3281 101.29 89.0653 101.27H100.841C105.52 101.27 109.924 103.14 113.226 106.51L122.614 116.04C123.842 115.39 125.218 115.04 126.614 115.03C128.148 115.03 129.671 115.42 131.008 116.18C133.092 117.36 134.596 119.3 135.245 121.63C135.893 123.96 135.618 126.41 134.458 128.53C133.298 130.65 131.391 132.18 129.101 132.84C128.295 133.07 127.469 133.19 126.654 133.19ZM100.841 105.91C104.301 105.91 107.555 107.29 110.002 109.79L119.92 119.85L119.743 120.18C118.711 122.06 118.456 124.24 119.036 126.32C119.616 128.39 120.952 130.12 122.8 131.17C124.648 132.22 126.791 132.48 128.836 131.89C130.87 131.3 132.571 129.94 133.603 128.06C134.635 126.18 134.891 124 134.311 121.92C133.731 119.85 132.394 118.12 130.546 117.07C129.357 116.39 127.99 116.04 126.634 116.05C125.287 116.05 123.96 116.42 122.79 117.11L122.466 117.3L112.548 107.24C109.422 104.05 105.274 102.3 100.851 102.29H89.085C88.6132 102.29 88.1708 102.49 87.8366 102.84C87.5024 103.19 87.3255 103.65 87.3353 104.13C87.355 105.12 88.1217 105.9 89.0948 105.92H100.851L100.841 105.91ZM126.624 128.55H126.614C124.206 128.5 122.289 126.47 122.338 124.02C122.387 121.63 124.265 119.72 126.614 119.67C127.804 119.7 128.885 120.2 129.691 121.06C130.487 121.92 130.91 123.05 130.88 124.24C130.811 126.59 128.954 128.48 126.644 128.55H126.634H126.624ZM126.604 120.67C124.815 120.71 123.361 122.19 123.321 124.04C123.282 125.93 124.756 127.5 126.614 127.55C128.393 127.49 129.828 126.02 129.887 124.21C129.917 123.29 129.583 122.42 128.963 121.75C128.344 121.08 127.509 120.7 126.604 120.67Z" fill="white"/>
</svg>
