<svg width="500" height="500" viewBox="0 0 500 500" fill="none" xmlns="http://www.w3.org/2000/svg">
<path d="M223.182 0H265.085C277.415 9.65318 269.631 18.4104 257.614 18.1214C250.379 17.948 243.22 17.9672 236.136 18.1792C235.752 18.1938 235.388 18.3546 235.118 18.6287C234.849 18.9028 234.695 19.2693 234.687 19.6532C232.926 83.1503 165.369 113.699 122.045 66.5607C121.928 66.4324 121.786 66.3312 121.626 66.263C121.466 66.1947 121.291 66.161 121.114 66.1637C120.936 66.1664 120.758 66.2055 120.591 66.2787C120.424 66.3518 120.272 66.4576 120.142 66.5896L82.5284 104.942C82.3899 105.081 82.2844 105.251 82.2181 105.442C82.1517 105.634 82.1256 105.843 82.1415 106.058C82.1573 106.273 82.2147 106.489 82.3103 106.694C82.406 106.9 82.538 107.09 82.6988 107.254C126.449 151.763 98.5795 222.428 36.3636 221.416C36.1587 221.412 35.9551 221.438 35.7649 221.493C35.5746 221.548 35.4015 221.63 35.2559 221.735C35.1103 221.841 34.995 221.966 34.9168 222.105C34.8387 222.244 34.7994 222.393 34.8011 222.543V276.734C34.8039 277.149 34.9853 277.547 35.3077 277.849C35.6301 278.15 36.069 278.33 36.534 278.353C98.125 280.723 127.812 348.902 82.6988 392.832C82.39 393.136 82.2015 393.54 82.1749 393.957C82.1482 394.375 82.2856 394.771 82.5568 395.058L119.858 432.977C120.01 433.13 120.195 433.247 120.4 433.322C120.606 433.396 120.829 433.426 121.056 433.41C121.283 433.394 121.51 433.332 121.724 433.228C121.938 433.124 122.134 432.979 122.301 432.803C140.227 413.671 164.205 406.676 189.46 414.509C218.4 423.487 233.532 445.424 234.858 480.318C234.873 480.745 235.056 481.15 235.368 481.446C235.681 481.743 236.099 481.908 236.534 481.908L262.074 481.936C262.727 481.936 263.325 481.976 263.815 482.051C264.305 482.127 264.673 482.236 264.886 482.37C273.542 487.958 273.494 493.834 264.744 500H222.841C212.472 494.162 217.841 477.775 215.824 467.601C210.057 438.786 180.028 420.809 152.869 432.803C143.381 436.994 135.085 445.26 128.068 453.353C123.977 458.054 119.82 458.247 115.597 453.931L62.3295 399.74C58.3712 395.732 58.3996 391.753 62.4147 387.803C79.2613 371.301 92.4431 356.243 84.2045 330.145C76.3636 305.347 58.0018 294.277 29.1193 296.936C20.7954 297.717 17.0454 293.41 17.0454 285C17.0454 260.356 17.0549 236.137 17.0738 212.341C17.0738 206.503 19.9431 203.478 25.6818 203.266C35.3125 202.89 46.1363 204.075 54.659 201.272C82.3863 192.197 95.0852 157.428 80.2556 132.197C75.909 124.827 67.4715 117.775 61.2784 110.52C58.4943 107.245 58.6174 104.075 61.6477 101.012L115.597 46.0405C119.65 41.9171 123.665 42.0231 127.642 46.3584C134.29 53.6127 141.733 61.4451 149.972 65.8093C177.045 80.1156 209.46 62.9769 215.682 33.1503C217.812 22.8324 212.585 4.71098 223.182 0Z" fill="white" fill-opacity="0.4"/>
<path d="M344.46 156.792C355.559 145.424 366.61 133.969 377.614 122.428C377.9 122.121 378.091 121.735 378.161 121.319C378.232 120.902 378.18 120.473 378.011 120.087C365.796 92.5145 390.568 64.3064 418.466 74.422C457.614 88.6127 437.955 152.428 392.074 134.971C391.676 134.823 391.247 134.793 390.838 134.886C390.43 134.978 390.06 135.188 389.773 135.491C367.519 158.844 353.57 172.89 347.926 177.63C325.625 196.358 288.977 191.618 261.335 191.445C259.916 191.437 258.531 191.002 257.357 190.194C256.184 189.386 255.274 188.242 254.744 186.908C250.597 176.474 258.523 173.324 267.102 173.382C294.972 173.526 323.068 178.728 344.46 156.792ZM421.421 105.347C421.421 103.415 421.046 101.502 420.32 99.7172C419.593 97.9323 418.528 96.3106 417.185 94.9446C415.842 93.5785 414.248 92.4949 412.494 91.7556C410.74 91.0164 408.859 90.6358 406.96 90.6358C403.125 90.6358 399.447 92.1857 396.735 94.9446C394.024 97.7034 392.5 101.445 392.5 105.347C392.5 109.248 394.024 112.99 396.735 115.749C399.447 118.508 403.125 120.058 406.96 120.058C408.859 120.058 410.74 119.677 412.494 118.938C414.248 118.199 415.842 117.115 417.185 115.749C418.528 114.383 419.593 112.761 420.32 110.976C421.046 109.192 421.421 107.279 421.421 105.347Z" fill="white" fill-opacity="0.4"/>
<path d="M257.67 138.931C119.659 146.821 120.17 352.775 256.676 360.867C267.301 361.503 278.58 368.555 265.426 378.902C264.711 379.461 263.816 379.748 262.898 379.711C198.125 377.37 143.523 331.994 136.222 265.405C127.699 187.688 186.193 120.694 263.409 120.491C264.346 120.491 265.247 120.807 265.966 121.387C277.955 131.156 268.239 138.324 257.67 138.931Z" fill="white" fill-opacity="0.4"/>
<path d="M463.239 223.092C483.381 236.387 481.222 267.486 460.256 278.844C441.733 288.902 421.591 279.451 413.75 260.058C413.579 259.662 413.316 259.325 412.993 259.088C412.67 258.852 412.301 258.727 411.932 258.728L260.653 258.699C260.136 258.699 259.661 258.649 259.27 258.553C258.878 258.457 258.582 258.319 258.409 258.15C252.405 252.717 252.405 247.283 258.409 241.85C258.58 241.69 258.874 241.558 259.266 241.467C259.657 241.377 260.134 241.329 260.653 241.329H411.932C412.31 241.33 412.687 241.204 413.015 240.968C413.343 240.732 413.608 240.395 413.778 240C422.756 218.439 443.949 210.347 463.239 223.092ZM459.233 250C459.233 246.083 457.704 242.327 454.981 239.557C452.259 236.787 448.566 235.231 444.716 235.231C440.866 235.231 437.173 236.787 434.451 239.557C431.728 242.327 430.199 246.083 430.199 250C430.199 253.917 431.728 257.673 434.451 260.443C437.173 263.213 440.866 264.769 444.716 264.769C448.566 264.769 452.259 263.213 454.981 260.443C457.704 257.673 459.233 253.917 459.233 250Z" fill="white" fill-opacity="0.4"/>
<path d="M377.443 378.064C368.655 368.102 356.686 355.78 341.534 341.098C320.227 320.491 288.551 326.59 262.017 326.59C260.692 326.589 259.39 326.226 258.246 325.54C257.103 324.855 256.158 323.87 255.511 322.688C250.17 312.977 257.756 308.526 266.364 308.526C289.006 308.555 318.58 304.74 339.034 316.532C356.165 326.416 374.915 349.249 390.199 364.682C390.491 364.979 390.864 365.18 391.269 365.257C391.675 365.334 392.094 365.285 392.472 365.116C429.062 347.919 456.96 398.266 427.727 420.405C399.602 441.676 364.347 413.006 377.813 380.491C377.975 380.083 378.027 379.64 377.961 379.212C377.896 378.784 377.717 378.386 377.443 378.064ZM421.335 394.595C421.335 390.709 419.818 386.982 417.117 384.234C414.415 381.486 410.752 379.942 406.932 379.942C405.04 379.942 403.167 380.321 401.42 381.058C399.672 381.794 398.085 382.873 396.747 384.234C395.41 385.595 394.349 387.21 393.625 388.988C392.901 390.766 392.528 392.671 392.528 394.595C392.528 396.52 392.901 398.425 393.625 400.203C394.349 401.981 395.41 403.596 396.747 404.957C398.085 406.317 399.672 407.397 401.42 408.133C403.167 408.87 405.04 409.249 406.932 409.249C410.752 409.249 414.415 407.705 417.117 404.957C419.818 402.209 421.335 398.482 421.335 394.595Z" fill="white" fill-opacity="0.4"/>
</svg>
