<svg width="500" height="500" viewBox="0 0 500 500" fill="none" xmlns="http://www.w3.org/2000/svg">
<path d="M103.864 61.9942C95.7101 29.6243 125.142 6.30058 152.983 27.4277C153.315 27.6796 153.703 27.837 154.104 27.8829C154.505 27.9287 154.903 27.8613 155.256 27.6879C224.025 -5.12524 292.964 -5.42389 362.074 26.7919C362.472 26.983 362.913 27.0573 363.345 27.0061C363.778 26.9549 364.184 26.7805 364.517 26.5029C388.693 6.6474 417.784 28.3815 412.159 58.6705C412.055 59.2002 412.056 59.7217 412.161 60.1831C412.265 60.6446 412.47 61.0298 412.756 61.3006L425.568 73.526C425.891 73.8371 426.304 74.0455 426.762 74.1273C427.219 74.209 427.701 74.1609 428.153 73.9884C457.017 63.2081 479.062 94.0173 462.954 120.145C462.714 120.537 462.569 120.967 462.534 121.389C462.499 121.811 462.575 122.21 462.756 122.543C499.403 190.867 504.176 261.705 477.074 335.058C476.98 335.319 476.831 335.557 476.639 335.754C476.447 335.952 476.215 336.104 475.961 336.2C475.706 336.297 475.435 336.335 475.166 336.312C474.897 336.29 474.637 336.207 474.403 336.069C467.093 331.773 459.29 328.863 450.994 327.341C450.401 327.241 449.865 327.099 449.419 326.925C448.974 326.751 448.63 326.548 448.409 326.33L430.511 309.884C430.175 309.578 429.745 309.405 429.308 309.399C428.87 309.394 428.458 309.557 428.153 309.855C399.706 337.274 367.775 341.532 332.358 322.63C331.83 322.349 331.283 322.179 330.805 322.147C330.326 322.116 329.943 322.225 329.716 322.457L319.773 332.543C319.332 332.991 318.886 333.361 318.481 333.616C318.077 333.87 317.728 333.999 317.472 333.988L299.006 333.035C297.756 332.958 297.67 332.399 298.75 331.358L318.04 312.746C318.385 312.406 318.584 311.937 318.594 311.437C318.605 310.937 318.427 310.443 318.097 310.058C299.328 288.189 293.74 262.919 301.335 234.249C301.452 233.792 301.418 233.315 301.239 232.909C301.061 232.504 300.751 232.198 300.369 232.052C269.593 220.356 237.898 212.331 205.284 207.977C204.818 207.91 204.34 208.017 203.931 208.28C203.522 208.543 203.207 208.947 203.04 209.422C197.055 226.243 185.076 233.487 167.102 231.156C166.753 231.104 166.362 231.237 165.987 231.534C165.613 231.832 165.276 232.277 165.028 232.803C154.441 255.636 146.42 279.403 140.966 304.104C140.921 304.314 140.831 304.51 140.702 304.681C140.572 304.851 140.407 304.99 140.218 305.089C140.029 305.189 139.819 305.245 139.605 305.254C139.391 305.264 139.177 305.226 138.977 305.145L127.784 300.694C127.338 300.515 126.967 300.19 126.738 299.776C126.509 299.363 126.437 298.889 126.534 298.439C132.367 272.543 140.994 247.649 152.415 223.757C152.631 223.3 152.747 222.826 152.747 222.397C152.747 221.969 152.631 221.606 152.415 221.358C148.57 216.965 146.269 211.821 145.511 205.925C145.45 205.487 145.208 205.086 144.831 204.799C144.455 204.512 143.97 204.357 143.466 204.364C116.458 205.019 89.7253 208.044 63.267 213.439C62.766 213.541 62.3116 213.78 61.9695 214.123C61.6273 214.466 61.4151 214.894 61.3636 215.347C59.981 228.584 53.1912 237.418 40.9942 241.85C40.6814 241.964 40.4083 242.252 40.2142 242.673C40.0202 243.094 39.9153 243.625 39.9147 244.191C40.0851 262.033 42.1874 279.624 46.2215 296.965C46.3699 297.579 46.4587 298.173 46.4693 298.625C46.4798 299.077 46.4115 299.352 46.2783 299.393L34.3181 305.173C34.1222 305.267 33.908 305.314 33.6906 305.311C33.4733 305.308 33.2581 305.255 33.0602 305.156C32.8624 305.057 32.6868 304.914 32.5458 304.737C32.4048 304.56 32.3018 304.354 32.2442 304.133C27.3011 284.73 24.8011 265 24.7442 244.942C24.744 244.399 24.6677 243.888 24.5207 243.444C24.3736 243 24.1591 242.634 23.892 242.37C22.159 240.723 19.2897 240.491 17.4147 239.249C-7.92622 222.89 1.36355 186.474 30.9942 182.775C31.3793 182.732 31.7423 182.574 32.0361 182.321C32.33 182.069 32.541 181.733 32.642 181.358C38.7594 158.276 47.9545 136.541 60.2272 116.156C60.5994 115.532 60.9809 114.986 61.3345 114.57C61.688 114.155 62.0015 113.885 62.2442 113.786C69.6874 110.915 73.6173 113.43 74.034 121.329C74.089 122.307 73.8007 123.359 73.2101 124.335C61.7518 143.449 53.1249 163.825 47.3295 185.462C47.2133 185.905 47.2444 186.376 47.4183 186.808C47.5921 187.24 47.8995 187.609 48.2954 187.861C52.1022 190.289 55.1136 193.478 57.3295 197.428C57.5365 197.791 57.8675 198.076 58.2754 198.242C58.6833 198.408 59.1475 198.447 59.6022 198.353C88.2007 192.341 117.102 189.143 146.307 188.757C146.731 188.748 147.137 188.647 147.485 188.465C147.833 188.283 148.112 188.026 148.295 187.717C155.663 175.212 166.591 169.961 181.079 171.965C181.619 172.045 182.153 171.998 182.623 171.83C183.094 171.662 183.484 171.379 183.75 171.012C197.992 151.705 213.968 134.008 231.676 117.919C232.094 117.537 232.408 117.083 232.572 116.624C232.736 116.166 232.74 115.728 232.585 115.376C229.953 109.403 229.384 103.227 230.881 96.8497C230.972 96.4518 230.894 96.0088 230.659 95.5869C230.423 95.1649 230.043 94.7867 229.574 94.5087C207.49 81.4258 184.214 71.1657 159.744 63.7283C159.339 63.6012 158.893 63.6221 158.47 63.788C158.047 63.954 157.668 64.2566 157.386 64.6532C146.761 79.8748 132.936 83.343 115.909 75.0578C115.546 74.8809 115.115 74.8472 114.677 74.9613C114.238 75.0754 113.815 75.3316 113.466 75.6936L93.0113 96.763C92.7174 97.072 92.3273 97.3169 91.8669 97.4813C91.4066 97.6458 90.8864 97.726 90.3408 97.7168C64.517 97.1098 99.1192 67.948 103.153 64.3353C103.469 64.0567 103.702 63.691 103.827 63.2781C103.953 62.8652 103.965 62.421 103.864 61.9942ZM164.318 48.4682C189.735 56.657 214.025 67.4374 237.187 80.8092C237.566 81.0313 237.973 81.1584 238.353 81.1739C238.733 81.1894 239.07 81.0925 239.318 80.896C252.595 70.3372 265.956 70.2312 279.403 80.578C279.796 80.885 280.247 81.0796 280.699 81.1364C281.15 81.1931 281.58 81.1093 281.932 80.896C304.148 67.736 327.528 57.3025 352.074 49.5954C352.578 49.4396 353.036 49.2086 353.422 48.9158C353.807 48.623 354.112 48.2743 354.318 47.8902C356.733 43.5549 355.199 40.578 350.767 38.6416C287.699 10.9345 224.981 11.869 162.614 41.4451C162.154 41.6611 161.753 41.9453 161.443 42.276C161.133 42.6066 160.921 42.9749 160.824 43.3526C160.028 46.3873 161.619 47.5723 164.318 48.4682ZM145.909 49.3064C145.909 45.5121 144.427 41.8732 141.79 39.1902C139.153 36.5073 135.576 35 131.846 35C128.117 35 124.54 36.5073 121.903 39.1902C119.266 41.8732 117.784 45.5121 117.784 49.3064C117.784 51.1851 118.148 53.0454 118.854 54.7812C119.561 56.5169 120.597 58.094 121.903 59.4225C123.209 60.751 124.759 61.8048 126.465 62.5237C128.171 63.2427 130 63.6127 131.846 63.6127C133.693 63.6127 135.522 63.2427 137.228 62.5237C138.934 61.8048 140.484 60.751 141.79 59.4225C143.096 58.094 144.132 56.5169 144.839 54.7812C145.545 53.0454 145.909 51.1851 145.909 49.3064ZM397.983 49.2775C397.983 47.3949 397.618 45.5308 396.91 43.7916C396.202 42.0524 395.164 40.472 393.856 39.1409C392.547 37.8097 390.994 36.7538 389.284 36.0334C387.575 35.313 385.742 34.9422 383.892 34.9422C382.042 34.9422 380.209 35.313 378.5 36.0334C376.79 36.7538 375.237 37.8097 373.928 39.1409C372.62 40.472 371.582 42.0524 370.874 43.7916C370.166 45.5308 369.801 47.3949 369.801 49.2775C369.801 51.16 370.166 53.0241 370.874 54.7633C371.582 56.5026 372.62 58.0829 373.928 59.414C375.237 60.7452 376.79 61.8011 378.5 62.5215C380.209 63.2419 382.042 63.6127 383.892 63.6127C385.742 63.6127 387.575 63.2419 389.284 62.5215C390.994 61.8011 392.547 60.7452 393.856 59.414C395.164 58.0829 396.202 56.5026 396.91 54.7633C397.618 53.0241 397.983 51.16 397.983 49.2775ZM346.903 185.607C365.966 179.306 382.954 180 401.392 186.647C401.788 186.792 402.224 186.777 402.614 186.605C403.003 186.434 403.317 186.119 403.494 185.723C411.581 167.534 418.542 148.902 424.375 129.827C424.491 129.454 424.479 129.043 424.342 128.651C424.205 128.258 423.949 127.902 423.608 127.63C409.422 116.416 406.345 102.437 414.375 85.6936C414.58 85.2804 414.65 84.8118 414.573 84.3584C414.496 83.905 414.277 83.4911 413.949 83.1792L403.949 73.9017C403.641 73.6254 403.212 73.4767 402.723 73.4767C402.233 73.4767 401.708 73.6254 401.221 73.9017C384.441 83.4971 370.322 80.6936 358.864 65.4913C358.551 65.0722 358.161 64.7461 357.748 64.5593C357.335 64.3725 356.92 64.3346 356.562 64.4509C333.153 71.9268 310.833 81.9268 289.602 94.4509C289.165 94.7115 288.812 95.0772 288.593 95.497C288.374 95.9167 288.299 96.3694 288.381 96.7919C289.65 103.304 288.92 109.586 286.193 115.636C286.065 115.925 286.108 116.322 286.314 116.762C286.52 117.202 286.877 117.66 287.329 118.064C309.261 137.813 328.352 160.067 344.602 184.827C344.838 185.191 345.191 185.465 345.607 185.606C346.023 185.746 346.478 185.747 346.903 185.607ZM453.409 101.908C453.409 100.025 453.045 98.1609 452.336 96.4216C451.628 94.6824 450.59 93.1021 449.282 91.771C447.973 90.4398 446.42 89.3839 444.71 88.6635C443.001 87.943 441.169 87.5723 439.318 87.5723C435.581 87.5723 431.997 89.0826 429.354 91.771C426.712 94.4593 425.227 98.1056 425.227 101.908C425.227 105.709 426.712 109.356 429.354 112.044C431.997 114.732 435.581 116.243 439.318 116.243C441.169 116.243 443.001 115.872 444.71 115.152C446.42 114.431 447.973 113.375 449.282 112.044C450.59 110.713 451.628 109.133 452.336 107.393C453.045 105.654 453.409 103.79 453.409 101.908ZM273.551 103.092C273.551 99.2982 272.069 95.6593 269.432 92.9764C266.795 90.2934 263.218 88.7861 259.489 88.7861C255.759 88.7861 252.182 90.2934 249.545 92.9764C246.908 95.6593 245.426 99.2982 245.426 103.092C245.426 106.887 246.908 110.526 249.545 113.209C252.182 115.892 255.759 117.399 259.489 117.399C263.218 117.399 266.795 115.892 269.432 113.209C272.069 110.526 273.551 106.887 273.551 103.092ZM276.108 128.786C276.021 128.694 275.873 128.652 275.687 128.668C275.5 128.684 275.288 128.756 275.085 128.873C264.934 134.422 254.735 134.499 244.489 129.104C244.089 128.891 243.614 128.827 243.126 128.92C242.638 129.013 242.162 129.259 241.761 129.624C225.132 144.634 210.199 161.233 196.96 179.422C196.707 179.766 196.564 180.185 196.549 180.627C196.534 181.07 196.647 181.515 196.875 181.908L202.187 190.954C202.355 191.246 202.659 191.509 203.072 191.716C203.484 191.923 203.991 192.069 204.545 192.139C239.716 196.647 273.873 205.251 307.017 217.948C307.426 218.103 307.876 218.11 308.289 217.968C308.703 217.826 309.056 217.543 309.29 217.168C315.047 208.112 322.235 200.482 330.852 194.277C331.147 194.066 331.33 193.718 331.362 193.312C331.394 192.906 331.272 192.474 331.023 192.11C315.284 168.699 296.979 147.592 276.108 128.786ZM420.596 198.41C449.252 225.617 455.36 257.794 438.92 294.942C438.746 295.334 438.697 295.769 438.778 296.185C438.86 296.601 439.069 296.975 439.375 297.254L464.346 320.231C464.501 320.378 464.689 320.482 464.894 320.535C465.099 320.587 465.314 320.586 465.518 320.531C465.722 320.476 465.91 320.37 466.063 320.221C466.215 320.073 466.329 319.887 466.392 319.682C487.415 254.518 482.074 192.004 450.369 132.139C450.121 131.679 449.773 131.304 449.379 131.069C448.984 130.834 448.564 130.753 448.182 130.838L440.142 132.659C439.903 132.713 439.622 133.006 439.34 133.496C439.058 133.986 438.792 134.645 438.579 135.376C432.67 155.106 425.521 174.355 417.131 193.121C416.901 193.62 416.785 194.14 416.795 194.617C416.805 195.094 416.941 195.509 417.187 195.809C418.096 196.936 419.886 197.717 420.596 198.41ZM188.523 201.59C188.523 197.78 187.035 194.126 184.387 191.433C181.739 188.739 178.148 187.225 174.403 187.225C170.659 187.225 167.067 188.739 164.419 191.433C161.772 194.126 160.284 197.78 160.284 201.59C160.284 205.399 161.772 209.053 164.419 211.747C167.067 214.44 170.659 215.954 174.403 215.954C178.148 215.954 181.739 214.44 184.387 211.747C187.035 209.053 188.523 205.399 188.523 201.59ZM433.608 257.688C433.608 241.307 427.212 225.598 415.826 214.015C404.441 202.432 388.999 195.925 372.898 195.925C356.796 195.925 341.354 202.432 329.969 214.015C318.584 225.598 312.187 241.307 312.187 257.688C312.187 274.068 318.584 289.778 329.969 301.361C341.354 312.944 356.796 319.451 372.898 319.451C388.999 319.451 404.441 312.944 415.826 301.361C427.212 289.778 433.608 274.068 433.608 257.688ZM46.3635 213.15C46.3635 209.348 44.879 205.702 42.2364 203.014C39.5939 200.325 36.0098 198.815 32.2726 198.815C28.5355 198.815 24.9514 200.325 22.3089 203.014C19.6663 205.702 18.1817 209.348 18.1817 213.15C18.1817 216.952 19.6663 220.598 22.3089 223.287C24.9514 225.975 28.5355 227.486 32.2726 227.486C36.0098 227.486 39.5939 225.975 42.2364 223.287C44.879 220.598 46.3635 216.952 46.3635 213.15Z" fill="white" fill-opacity="0.4"/>
<path d="M367.983 248.208C370.862 249.383 373.826 250.241 376.875 250.78C400.739 254.942 402.614 285.867 382.33 296.04C379.432 297.486 378.551 298.237 379.176 301.618C379.284 302.216 379.288 302.794 379.187 303.278C379.085 303.762 378.884 304.13 378.608 304.335C370.634 310.135 366.004 307.919 364.716 297.688C364.673 297.283 364.53 296.897 364.301 296.568C364.072 296.239 363.765 295.977 363.409 295.809C355.473 291.936 350.843 285.578 349.517 276.734C348.797 271.994 350.388 268.863 354.29 267.341C367.5 262.197 358.409 286.358 376.335 282.775C377.276 282.586 378.143 282.079 378.807 281.329C383.864 275.568 383.314 270.405 377.159 265.838C376.401 265.273 375.429 264.95 374.375 264.913C347.756 263.757 339.46 230.52 363.92 218.237C364.281 218.058 364.579 217.769 364.777 217.408C364.974 217.047 365.062 216.631 365.028 216.214C364.062 204.711 379.915 203.699 379.432 215.838C379.417 216.253 379.506 216.655 379.689 216.991C379.872 217.326 380.139 217.58 380.455 217.717C390.701 221.956 396.032 229.827 396.449 241.329C396.486 242.262 396.154 243.245 395.511 244.104C392.14 248.593 388.295 248.969 383.977 245.231C383.612 244.914 383.316 244.523 383.111 244.085C382.905 243.647 382.794 243.17 382.784 242.688C382.159 223.584 356.222 230.954 365.852 246.445C366.351 247.234 367.096 247.851 367.983 248.208Z" fill="white" fill-opacity="0.4"/>
<path d="M129.318 351.098C154.981 339.499 180.947 337.592 207.216 345.376C222.898 350 237.074 361.561 256.818 362.37C271.496 362.987 286.165 363.507 300.824 363.931C327.557 364.682 344.119 368.266 358.04 390.347C358.254 390.683 358.575 390.932 358.946 391.049C359.316 391.166 359.71 391.142 360.057 390.983C379.261 381.734 398.39 372.514 417.443 363.324C440.587 352.148 459.204 356.195 473.295 375.462C478.949 383.15 475.256 387.312 468.75 391.59C429.318 417.563 389.924 443.584 350.568 469.653C333.958 480.655 321.089 487.505 311.96 490.202C289.119 496.994 270.881 494.566 246.023 487.543C217.689 479.528 189.365 471.445 161.051 463.295C149.375 459.942 137.216 467.543 125.341 474.682C124.99 474.897 124.712 475.221 124.545 475.614C124.377 476.006 124.328 476.447 124.403 476.879C125.937 486.301 120.966 489.913 112.187 489.653C91.6003 489.094 71.373 488.536 51.5056 487.977C46.7518 487.842 44.4222 485.356 44.5169 480.52C45.445 434.682 46.676 388.873 48.2101 343.092C48.4658 335.376 47.8408 328.613 58.0397 328.844C79.6685 329.306 101.079 329.923 122.273 330.694C125.947 330.829 127.784 332.832 127.784 336.705L127.812 350.405C127.813 350.555 127.859 350.7 127.944 350.825C128.03 350.95 128.153 351.051 128.303 351.12C128.452 351.189 128.623 351.223 128.801 351.219C128.978 351.215 129.156 351.174 129.318 351.098ZM111.581 348.196C111.59 347.851 111.464 347.517 111.23 347.267C110.997 347.017 110.675 346.871 110.337 346.862L65.4655 345.667C65.1266 345.658 64.7981 345.786 64.5522 346.023C64.3062 346.261 64.1631 346.588 64.1542 346.933L60.9757 470.416C60.9669 470.761 61.093 471.095 61.3263 471.346C61.5597 471.596 61.8812 471.741 62.2201 471.751L107.091 472.946C107.43 472.955 107.759 472.827 108.004 472.589C108.25 472.352 108.394 472.025 108.402 471.68L111.581 348.196ZM254.915 420.636C248.892 409.711 257.756 406.503 266.506 406.879C292.831 407.938 319.29 408.603 345.881 408.873C346.047 408.873 346.212 408.835 346.362 408.762C346.512 408.689 346.643 408.582 346.745 408.451C346.847 408.319 346.917 408.166 346.949 408.003C346.982 407.841 346.976 407.674 346.932 407.514C332.926 358.786 260.454 393.179 225.909 372.139C194.148 352.775 162.112 352.187 129.801 370.376C129.04 370.799 128.401 371.449 127.947 372.261C127.493 373.072 127.241 374.017 127.216 375L124.915 453.757C124.858 455.703 125.606 456.127 127.159 455.029C142.756 443.988 155.909 444.624 175.028 450.058C203.816 458.227 232.585 466.464 261.335 474.769C287.614 482.399 310.881 475.983 334.432 460.434C374.564 433.979 414.687 407.495 454.801 380.983C454.951 380.88 455.075 380.743 455.162 380.582C455.25 380.421 455.298 380.242 455.304 380.058C455.309 379.875 455.272 379.692 455.194 379.526C455.117 379.36 455.001 379.216 454.858 379.104C447.112 373.227 438.807 372.312 429.943 376.358C408.182 386.301 386.553 396.503 365.057 406.965C364.799 407.087 364.58 407.36 364.427 407.747C364.275 408.135 364.197 408.619 364.204 409.133L364.318 419.075C364.375 423.776 361.96 426.06 357.074 425.925L259.233 423.295C258.348 423.269 257.486 423.011 256.729 422.545C255.972 422.079 255.347 421.421 254.915 420.636Z" fill="white" fill-opacity="0.4"/>
</svg>
