<svg width="280" height="280" viewBox="0 0 280 280" fill="none" xmlns="http://www.w3.org/2000/svg">
<path d="M145.047 21.0841C144.444 21.0321 143.851 20.9648 143.245 20.925C142.878 20.9005 142.517 20.8638 142.15 20.8424C140.329 20.7414 138.502 20.6802 136.657 20.6802C82.8087 20.6771 39 64.4877 39 118.338C39 207.539 136.657 265.973 136.657 265.973V216.458C67.9682 178.074 56.8117 62.1928 145.047 21.0841Z" fill="url(#paint0_linear_906_73)"/>
<path d="M202.485 40.2183C202.142 40.2153 201.805 40.1938 201.466 40.1938C172.204 40.1938 145.935 53.1562 128.022 73.6126H143.771C143.796 73.6126 143.817 73.6156 143.842 73.6156C143.878 73.6156 143.912 73.6126 143.949 73.6126C168.602 73.6126 188.66 93.6712 188.66 118.326C188.66 142.981 168.602 163.04 143.949 163.04C143.909 163.04 143.872 163.037 143.836 163.037C143.814 163.037 143.793 163.04 143.771 163.04H107.15C112.674 183.67 124.775 201.636 141.094 214.516C141.807 215.012 142.517 215.491 143.227 215.969C143.468 215.969 143.707 215.987 143.949 215.987C197.797 215.987 241.606 172.176 241.606 118.329C241.606 84.0504 222.463 54.1323 202.488 40.2214" fill="url(#paint1_linear_906_73)"/>
<path d="M204.232 26.7114C194.416 19.9028 186.839 17.1059 175.453 14.0459L175.276 14L175.099 14.0398C153.517 18.8961 131.945 33.7954 115.917 54.9189C99.2434 76.8931 90.5013 102.955 91.1836 128.528C91.1866 129.223 91.2112 129.884 91.2539 130.511L92.7288 130.426C92.7075 129.939 92.689 129.452 92.6737 128.969C92.5391 116.732 99.6963 85.3143 123.64 60.0782C144.31 38.2906 171.268 27.4948 203.798 28.0548L206.23 28.0945L204.229 26.7084L204.232 26.7114Z" fill="url(#paint2_linear_906_73)"/>
<defs>
<linearGradient id="paint0_linear_906_73" x1="42.7086" y1="56.0267" x2="198.122" y2="198.783" gradientUnits="userSpaceOnUse">
<stop stop-color="#AE4CFB"/>
<stop offset="0.55" stop-color="#00AEEF"/>
<stop offset="1" stop-color="#3AD77E"/>
</linearGradient>
<linearGradient id="paint1_linear_906_73" x1="66.3647" y1="30.2701" x2="221.777" y2="173.027" gradientUnits="userSpaceOnUse">
<stop stop-color="#AE4CFB"/>
<stop offset="0.55" stop-color="#00AEEF"/>
<stop offset="1" stop-color="#3AD77E"/>
</linearGradient>
<linearGradient id="paint2_linear_906_73" x1="79.6386" y1="15.8207" x2="235.052" y2="158.577" gradientUnits="userSpaceOnUse">
<stop stop-color="#AE4CFB"/>
<stop offset="0.55" stop-color="#00AEEF"/>
<stop offset="1" stop-color="#3AD77E"/>
</linearGradient>
</defs>
</svg>
