<svg width="256" height="256" viewBox="0 0 256 256" fill="none" xmlns="http://www.w3.org/2000/svg">
<g clip-path="url(#clip0_682_27)">
<path d="M197.556 66.972H224.528C227.709 66.9688 230.76 65.7035 233.009 63.4538C235.259 61.204 236.524 58.1536 236.528 54.972V28C236.524 24.8184 235.259 21.768 233.009 19.5182C230.76 17.2685 227.709 16.0032 224.528 16H197.556C194.374 16.0032 191.324 17.2685 189.074 19.5182C186.824 21.768 185.559 24.8184 185.556 28V37.484H175.704C170.977 37.4893 166.445 39.3693 163.103 42.7115C159.761 46.0538 157.881 50.5853 157.876 55.312V124.028H118.608V119.592C118.604 116.41 117.339 113.36 115.089 111.11C112.84 108.86 109.789 107.595 106.608 107.592H102.008V90.78H106.608C109.789 90.7768 112.84 89.5115 115.089 87.2618C117.339 85.012 118.604 81.9616 118.608 78.78V61.92C118.604 58.7384 117.339 55.688 115.089 53.4382C112.84 51.1885 109.789 49.9232 106.608 49.92H27.5195C24.3379 49.9232 21.2875 51.1885 19.0378 53.4382C16.788 55.688 15.5227 58.7384 15.5195 61.92V78.784C15.5227 81.9656 16.788 85.016 19.0378 87.2658C21.2875 89.5155 24.3379 90.7808 27.5195 90.784H32.1235V107.596H27.5235C24.3419 107.599 21.2915 108.864 19.0418 111.114C16.792 113.364 15.5267 116.414 15.5235 119.596V136.464C15.5267 139.646 16.792 142.696 19.0418 144.946C21.2915 147.196 24.3419 148.461 27.5235 148.464H32.1235V165.276H27.5235C24.3419 165.279 21.2915 166.544 19.0418 168.794C16.792 171.044 15.5267 174.094 15.5235 177.276V194.144C15.5267 197.326 16.792 200.376 19.0418 202.626C21.2915 204.876 24.3419 206.141 27.5235 206.144H106.608C109.789 206.141 112.84 204.876 115.089 202.626C117.339 200.376 118.604 197.326 118.608 194.144V177.276C118.604 174.094 117.339 171.044 115.089 168.794C112.84 166.544 109.789 165.279 106.608 165.276H102.008V148.464H106.608C109.789 148.461 112.84 147.196 115.089 144.946C117.339 142.696 118.604 139.646 118.608 136.464V132.032H157.876V200.692C157.881 205.419 159.761 209.95 163.103 213.292C166.445 216.635 170.977 218.515 175.704 218.52H185.556V228C185.559 231.182 186.824 234.232 189.074 236.482C191.324 238.732 194.374 239.997 197.556 240H224.528C227.709 239.997 230.76 238.732 233.009 236.482C235.259 234.232 236.524 231.182 236.528 228V201.028C236.524 197.846 235.259 194.796 233.009 192.546C230.76 190.296 227.709 189.031 224.528 189.028H197.556C194.374 189.031 191.324 190.296 189.074 192.546C186.824 194.796 185.559 197.846 185.556 201.028V210.516H175.704C173.098 210.513 170.6 209.476 168.758 207.634C166.915 205.792 165.879 203.294 165.876 200.688V132.028H185.556V141.484C185.559 144.666 186.824 147.716 189.074 149.966C191.324 152.216 194.374 153.481 197.556 153.484H224.528C227.709 153.481 230.76 152.216 233.009 149.966C235.259 147.716 236.524 144.666 236.528 141.484V114.52C236.524 111.338 235.259 108.288 233.009 106.038C230.76 103.788 227.709 102.523 224.528 102.52H197.556C194.374 102.523 191.324 103.788 189.074 106.038C186.824 108.288 185.559 111.338 185.556 114.52V124.032H165.876V55.312C165.879 52.7064 166.915 50.2085 168.758 48.3661C170.6 46.5236 173.098 45.4872 175.704 45.484H185.556V54.972C185.559 58.1536 186.824 61.204 189.074 63.4538C191.324 65.7035 194.374 66.9688 197.556 66.972ZM23.5195 78.78V61.92C23.5206 60.8595 23.9424 59.8427 24.6923 59.0927C25.4422 58.3428 26.459 57.9211 27.5195 57.92H106.608C107.668 57.9211 108.685 58.3428 109.435 59.0927C110.185 59.8427 110.606 60.8595 110.608 61.92V78.784C110.606 79.8445 110.185 80.8613 109.435 81.6113C108.685 82.3612 107.668 82.7829 106.608 82.784H27.5195C26.459 82.7829 25.4422 82.3612 24.6923 81.6113C23.9424 80.8613 23.5206 79.8405 23.5195 78.78ZM40.1235 90.78H94.0035V107.592H40.1235V90.78ZM110.608 177.272V194.14C110.606 195.201 110.185 196.217 109.435 196.967C108.685 197.717 107.668 198.139 106.608 198.14H27.5195C26.459 198.139 25.4422 197.717 24.6923 196.967C23.9424 196.217 23.5206 195.201 23.5195 194.14V177.272C23.5206 176.211 23.9424 175.195 24.6923 174.445C25.4422 173.695 26.459 173.273 27.5195 173.272H106.608C107.668 173.273 108.685 173.695 109.435 174.445C110.185 175.195 110.606 176.211 110.608 177.272ZM94.0075 165.272H40.1275V148.46H94.0075V165.272ZM110.608 136.46C110.606 137.521 110.185 138.537 109.435 139.287C108.685 140.037 107.668 140.459 106.608 140.46H27.5195C26.459 140.459 25.4422 140.037 24.6923 139.287C23.9424 138.537 23.5206 137.521 23.5195 136.46V119.592C23.5206 118.531 23.9424 117.515 24.6923 116.765C25.4422 116.015 26.459 115.593 27.5195 115.592H106.608C107.668 115.593 108.685 116.015 109.435 116.765C110.185 117.515 110.606 118.531 110.608 119.592V136.46ZM193.56 201.028C193.56 199.967 193.981 198.95 194.731 198.2C195.481 197.449 196.499 197.028 197.56 197.028H224.532C225.592 197.028 226.61 197.449 227.36 198.2C228.11 198.95 228.532 199.967 228.532 201.028V228C228.532 229.061 228.11 230.078 227.36 230.828C226.61 231.579 225.592 232 224.532 232H197.56C196.499 232 195.481 231.579 194.731 230.828C193.981 230.078 193.56 229.061 193.56 228V201.028ZM193.56 114.516C193.56 113.455 193.981 112.438 194.731 111.688C195.481 110.937 196.499 110.516 197.56 110.516H224.532C225.592 110.516 226.61 110.937 227.36 111.688C228.11 112.438 228.532 113.455 228.532 114.516V141.484C228.532 142.545 228.11 143.562 227.36 144.312C226.61 145.063 225.592 145.484 224.532 145.484H197.56C196.499 145.484 195.481 145.063 194.731 144.312C193.981 143.562 193.56 142.545 193.56 141.484V114.516ZM193.56 28C193.56 26.9391 193.981 25.9217 194.731 25.1716C195.481 24.4214 196.499 24 197.56 24H224.532C225.592 24 226.61 24.4214 227.36 25.1716C228.11 25.9217 228.532 26.9391 228.532 28V54.972C228.532 56.0329 228.11 57.0503 227.36 57.8004C226.61 58.5506 225.592 58.972 224.532 58.972H197.56C196.499 58.972 195.481 58.5506 194.731 57.8004C193.981 57.0503 193.56 56.0329 193.56 54.972V28Z" fill="white"/>
<path d="M41.2734 70.3477C41.2734 69.2868 40.852 68.2694 40.1019 67.5192C39.3517 66.7691 38.3343 66.3477 37.2734 66.3477C36.2126 66.3477 35.1952 66.7691 34.445 67.5192C33.6949 68.2694 33.2734 69.2868 33.2734 70.3477C33.2734 71.4085 33.6949 72.4259 34.445 73.1761C35.1952 73.9262 36.2126 74.3477 37.2734 74.3477C38.3343 74.3477 39.3517 73.9262 40.1019 73.1761C40.852 72.4259 41.2734 71.4085 41.2734 70.3477ZM70.5974 74.3477H100.861C101.922 74.3477 102.94 73.9262 103.69 73.1761C104.44 72.4259 104.861 71.4085 104.861 70.3477C104.861 69.2868 104.44 68.2694 103.69 67.5192C102.94 66.7691 101.922 66.3477 100.861 66.3477H70.5974C69.5366 66.3477 68.5192 66.7691 67.769 67.5192C67.0189 68.2694 66.5974 69.2868 66.5974 70.3477C66.5974 71.4085 67.0189 72.4259 67.769 73.1761C68.5192 73.9262 69.5366 74.3477 70.5974 74.3477ZM37.2734 124.028C36.2126 124.028 35.1952 124.449 34.445 125.199C33.6949 125.949 33.2734 126.967 33.2734 128.028C33.2734 129.089 33.6949 130.106 34.445 130.856C35.1952 131.606 36.2126 132.028 37.2734 132.028C38.3343 132.028 39.3517 131.606 40.1019 130.856C40.852 130.106 41.2734 129.089 41.2734 128.028C41.2734 126.967 40.852 125.949 40.1019 125.199C39.3517 124.449 38.3343 124.028 37.2734 124.028ZM100.861 124.028H70.5974C69.5366 124.028 68.5192 124.449 67.769 125.199C67.0189 125.949 66.5974 126.967 66.5974 128.028C66.5974 129.089 67.0189 130.106 67.769 130.856C68.5192 131.606 69.5366 132.028 70.5974 132.028H100.861C101.922 132.028 102.94 131.606 103.69 130.856C104.44 130.106 104.861 129.089 104.861 128.028C104.861 126.967 104.44 125.949 103.69 125.199C102.94 124.449 101.922 124.028 100.861 124.028ZM37.2734 181.708C36.2126 181.708 35.1952 182.129 34.445 182.879C33.6949 183.629 33.2734 184.647 33.2734 185.708C33.2734 186.769 33.6949 187.786 34.445 188.536C35.1952 189.286 36.2126 189.708 37.2734 189.708C38.3343 189.708 39.3517 189.286 40.1019 188.536C40.852 187.786 41.2734 186.769 41.2734 185.708C41.2734 184.647 40.852 183.629 40.1019 182.879C39.3517 182.129 38.3343 181.708 37.2734 181.708ZM66.5974 185.708C66.5974 186.769 67.0189 187.786 67.769 188.536C68.5192 189.286 69.5366 189.708 70.5974 189.708H100.861C101.922 189.708 102.94 189.286 103.69 188.536C104.44 187.786 104.861 186.769 104.861 185.708C104.861 184.647 104.44 183.629 103.69 182.879C102.94 182.129 101.922 181.708 100.861 181.708H70.5974C69.5366 181.708 68.5192 182.129 67.769 182.879C67.0189 183.629 66.5974 184.647 66.5974 185.708Z" fill="white"/>
</g>
<defs>
<clipPath id="clip0_682_27">
<rect width="256" height="256" fill="white"/>
</clipPath>
</defs>
</svg>
