<svg width="256" height="256" viewBox="0 0 256 256" fill="none" xmlns="http://www.w3.org/2000/svg">
<g clip-path="url(#clip0_680_14)">
<path d="M133 204H139V210H133V204ZM147.999 204H153.999V210H147.999V204ZM163 204H169V210H163V204ZM178.001 204H184.001V210H178.001V204ZM193 204H199V210H193V204Z" fill="white"/>
<path d="M124.498 117C123.57 117 122.68 117.37 122.024 118.029C121.367 118.688 120.998 119.582 120.998 120.514V152.809C119.026 153.093 117.194 153.999 115.768 155.397C114.342 156.795 113.396 158.612 113.067 160.586L109.784 180.257H99.476C98.417 180.255 97.3736 180.513 96.437 181.009C95.5004 181.506 94.6991 182.225 94.1033 183.104C93.5181 183.967 93.1525 184.961 93.0384 185.998C92.9243 187.036 93.0652 188.086 93.4488 189.057L111.959 235.916C112.437 237.127 113.268 238.165 114.343 238.893C115.418 239.622 116.688 240.008 117.985 240H218.055C219.342 240.007 220.601 239.627 221.671 238.909C222.741 238.191 223.572 237.169 224.058 235.973L239.529 197.901C239.923 196.928 240.074 195.873 239.966 194.829C239.859 193.785 239.497 192.783 238.913 191.912C238.319 191.027 237.516 190.301 236.577 189.801C235.637 189.301 234.59 189.04 233.526 189.043H226.002V174.986C226.002 174.054 225.634 173.16 224.977 172.501C224.321 171.842 223.431 171.471 222.502 171.471H217.252V157.414C217.252 156.482 216.883 155.588 216.227 154.929C215.571 154.27 214.68 153.9 213.752 153.9H208.502V139.843C208.502 138.911 208.133 138.017 207.477 137.358C206.82 136.699 205.93 136.329 205.002 136.329H187.501C186.573 136.329 185.682 136.699 185.026 137.358C184.37 138.017 184.001 138.911 184.001 139.843V153.9H178.751C177.822 153.9 176.932 154.27 176.276 154.929C175.619 155.588 175.25 156.482 175.25 157.414V171.471H170C169.072 171.471 168.182 171.842 167.525 172.501C166.869 173.16 166.5 174.054 166.5 174.986V189.043H153.193L148.439 160.588C148.102 158.571 147.121 156.719 145.643 155.312C144.166 153.905 142.272 153.018 140.249 152.786V138.086C140.249 137.154 139.88 136.26 139.224 135.601C138.568 134.942 137.677 134.571 136.749 134.571C135.821 134.571 134.93 134.942 134.274 135.601C133.618 136.26 133.249 137.154 133.249 138.086V152.684H127.999V120.514C127.999 119.582 127.63 118.688 126.973 118.029C126.317 117.37 125.427 117 124.498 117ZM217.718 232.971H118.328L100.281 187.286H135.282C135.57 187.274 135.85 187.375 136.066 187.566C136.281 187.758 136.414 188.026 136.437 188.314C136.533 190.414 137.436 192.396 138.956 193.842C140.476 195.289 142.495 196.088 144.589 196.071H232.714L217.718 232.971ZM191.001 178.5H201.501V189.043H191.001V178.5ZM219.002 189.043H208.502V178.5H219.002V189.043ZM210.252 171.471H199.751V160.929H210.252V171.471ZM191.001 143.357H201.501V153.9H191.001V143.357ZM182.251 160.929H192.751V171.471H182.251V160.929ZM173.5 178.5H184.001V189.043H173.5V178.5ZM141.535 161.749L145.981 188.366H143.522C143.47 188.256 143.439 188.137 143.431 188.015C143.335 185.915 142.433 183.934 140.913 182.488C139.394 181.041 137.376 180.242 135.282 180.257H116.882L119.973 161.747C120.07 161.174 120.368 160.655 120.812 160.282C121.256 159.91 121.818 159.708 122.397 159.713H139.113C139.692 159.708 140.254 159.911 140.697 160.284C141.141 160.657 141.438 161.176 141.535 161.749Z" fill="white"/>
<path d="M131.923 164.476C131.923 163.548 131.554 162.657 130.897 162.001C130.24 161.344 129.348 160.975 128.419 160.975H125.433C124.503 160.975 123.612 161.344 122.955 162.001C122.297 162.657 121.928 163.548 121.928 164.476C121.928 165.405 122.297 166.295 122.955 166.952C123.612 167.609 124.503 167.977 125.433 167.977H128.417C129.347 167.977 130.238 167.609 130.895 166.952C131.552 166.295 131.923 165.405 131.923 164.476ZM133.513 168.998C132.583 168.998 131.692 169.367 131.035 170.023C130.377 170.68 130.008 171.57 130.008 172.499C130.008 173.428 130.377 174.318 131.035 174.975C131.692 175.631 132.583 176 133.513 176H136.495C137.425 176 138.316 175.631 138.974 174.975C139.631 174.318 140 173.428 140 172.499C140 171.57 139.631 170.68 138.974 170.023C138.316 169.367 137.425 168.998 136.495 168.998H133.513ZM16.3844 86.2376C16.816 86.5635 17.3172 86.7854 17.8487 86.8862C18.3803 86.987 18.928 86.9639 19.4492 86.8188C19.635 86.768 38.2484 81.6565 52.3617 86.7417C57.5598 88.3888 62.9968 89.1567 68.4483 89.0139C75.4564 88.9477 82.4432 88.2316 89.3187 86.8748C90.1059 86.7097 90.8122 86.2791 91.3192 85.6553C91.8262 85.0315 92.103 84.2525 92.1032 83.449V44.7454C92.0998 44.1682 91.9541 43.6007 91.6791 43.0931C91.4041 42.5855 91.0082 42.1533 90.5264 41.8348C90.0445 41.5162 89.4915 41.3211 88.9163 41.2667C88.3411 41.2123 87.7613 41.3002 87.2281 41.5227C87.116 41.5682 75.9027 46.0793 54.3051 41.3249C41.1853 38.4366 19.0076 41.1533 18.0701 41.2706C17.2226 41.3764 16.443 41.7877 15.8777 42.4272C15.3123 43.0667 15.0002 43.8905 15 44.7436V83.4473C14.9998 83.9877 15.1248 84.5208 15.3653 85.0049C15.6058 85.489 15.9534 85.9109 16.3844 86.2376ZM53.5516 53.5207C55.6311 53.5207 57.6639 54.1367 59.3929 55.2907C61.1219 56.4448 62.4695 58.0852 63.2653 60.0044C64.0611 61.9235 64.2693 64.0353 63.8636 66.0727C63.4579 68.1101 62.4566 69.9816 60.9862 71.4505C59.5157 72.9193 57.6423 73.9196 55.6028 74.3249C53.5632 74.7302 51.4492 74.5222 49.528 73.7272C47.6068 72.9323 45.9648 71.5861 44.8095 69.8589C43.6542 68.1316 43.0375 66.101 43.0375 64.0237C43.0408 61.2391 44.1495 58.5695 46.1206 56.6005C48.0917 54.6315 50.7641 53.5239 53.5516 53.5207ZM85.0938 49.3667V80.5257C79.5651 81.443 66.957 83.0884 57.7397 81.0018C60.9644 80.2148 63.8981 78.5269 66.1978 76.1356C68.4976 73.7442 70.0683 70.7483 70.7263 67.4981C71.3843 64.2478 71.1025 60.8776 69.9136 57.7815C68.7248 54.6854 66.6782 51.9913 64.0131 50.0144C71.0311 50.8918 78.143 50.6733 85.0938 49.3667ZM22.0094 47.8893C30.6464 46.9584 39.3496 46.8043 48.0142 47.4289C45.0228 48.4204 42.3551 50.2008 40.2931 52.5819C38.2311 54.9631 36.8513 57.8565 36.2997 60.9563C35.748 64.0562 36.045 67.2473 37.1591 70.1925C38.2732 73.1377 40.1632 75.7275 42.6292 77.6881C40.9294 77.5551 39.2472 77.4868 37.607 77.4868C32.3697 77.5157 27.1471 78.0415 22.0094 79.057V47.8893Z" fill="white"/>
<path d="M50.0736 70.3221C50.4345 70.3829 50.8037 70.4291 51.181 70.4607C51.5584 70.491 51.9697 70.5062 52.415 70.5062V72.4593C52.6572 72.5205 52.9042 72.561 53.1533 72.5803C53.3994 72.5978 53.6068 72.6066 53.7773 72.6066C53.9478 72.6066 54.157 72.5996 54.4101 72.5803C54.6559 72.5628 54.8996 72.5223 55.1378 72.4593V70.2643C56.2337 70.0678 57.2435 69.5431 58.0329 68.76C58.5319 68.1987 58.8617 67.5082 58.9842 66.7681C59.1068 66.028 59.0171 65.2684 58.7255 64.5769C58.5273 64.1549 58.2401 63.7805 57.8835 63.4794C57.515 63.1723 57.1027 62.9217 56.6601 62.736C56.178 62.5301 55.6851 62.3505 55.1835 62.1978L53.8915 61.8068C53.5341 61.6991 53.1898 61.5521 52.865 61.3685C52.7177 61.2925 52.595 61.1764 52.5113 61.0336C52.4276 60.8909 52.3863 60.7273 52.3921 60.562C52.3826 60.3908 52.4357 60.222 52.5416 60.0869C52.6485 59.9634 52.7835 59.8673 52.9353 59.8064C53.1043 59.7373 53.2826 59.6936 53.4644 59.6766C53.6578 59.6591 53.8529 59.6503 54.0533 59.6503C54.7122 59.6355 55.3706 59.6979 56.015 59.8362C56.5384 59.9641 57.0547 60.1192 57.5619 60.3008C58.0429 59.4888 58.3639 58.5926 58.5076 57.6604C57.8911 57.4875 57.3099 57.3449 56.7638 57.2327C56.2266 57.1225 55.6838 57.0417 55.1378 56.9907V55.3743C54.8998 55.3104 54.656 55.2699 54.4101 55.2533C54.157 55.2358 53.946 55.2252 53.7773 55.2252C53.6085 55.2252 53.3994 55.234 53.1533 55.2533C52.904 55.2724 52.657 55.3134 52.415 55.376V57.0468C51.3014 57.1565 50.2455 57.5934 49.381 58.3021C49.0171 58.6304 48.7303 59.0348 48.541 59.4863C48.3517 59.9378 48.2646 60.4255 48.2859 60.9144C48.27 61.3508 48.3496 61.7854 48.5189 62.188C48.6883 62.5906 48.9435 62.9517 49.2668 63.2462C49.5854 63.5383 49.947 63.7801 50.339 63.9632C50.7669 64.1669 51.2059 64.3466 51.6539 64.5015L52.8773 64.9117C53.3362 65.0577 53.7801 65.2474 54.2027 65.478C54.3679 65.5588 54.5067 65.6847 54.6029 65.8412C54.699 65.9976 54.7486 66.1781 54.7458 66.3616C54.7513 66.5655 54.6946 66.7661 54.5831 66.9371C54.4717 67.108 54.3108 67.2412 54.1218 67.3189C53.5602 67.5513 52.9537 67.6561 52.3464 67.6257C51.7806 67.6229 51.2164 67.5636 50.6625 67.4486C49.9973 67.3091 49.342 67.1264 48.7007 66.9016C48.4851 67.4217 48.3041 67.9109 48.1576 68.3691C48.0155 68.8118 47.9114 69.2658 47.8464 69.7261C48.2625 69.8628 48.6468 69.9809 48.9996 70.0802C49.3525 70.1795 49.7122 70.2603 50.0736 70.3221ZM104.487 237L101.333 229.07L95.2159 213.681C90.7651 207.846 87.012 201.514 84.0327 194.812C85.1358 194.499 86.2433 194.201 87.3549 193.918L86.2616 191.166C85.7634 189.892 85.464 188.55 85.3739 187.186C83.9887 187.54 82.6387 187.917 81.3098 188.305C74.9609 171.3 71.4181 153.382 70.8192 135.247C70.7595 133.794 70.756 132.31 70.7278 130.834H113.437V123.821H70.7173C70.8473 114.509 71.6639 105.219 73.1606 96.026C70.7918 96.1439 68.4191 96.1638 66.0486 96.0856C64.6042 105.264 63.8142 114.532 63.6843 123.821H22.1069C22.4583 113.091 24.4664 102.478 28.0606 92.3583C25.8072 92.6831 23.5719 93.122 21.3633 93.6732C20.9473 93.7883 20.5247 93.8779 20.0977 93.9414C16.71 104.748 14.9911 116.006 15 127.328C15 130.098 15.102 132.893 15.3041 135.643C17.2056 159.876 26.9201 182.845 42.9953 201.114C59.0704 219.384 80.6426 231.973 104.487 237ZM99.8371 228.655C84.7818 224.528 70.8271 217.133 58.9716 206.999C64.3494 202.533 70.5345 199.135 77.1931 196.988C83.21 210.46 90.9444 221.333 99.8371 228.655ZM63.795 135.536C64.3954 154.315 68.0132 172.876 74.5106 190.512C66.8911 193.022 59.8447 197.012 53.7773 202.25C35.4184 184.463 24.2271 160.586 22.3178 135.13C22.2123 133.708 22.142 132.272 22.0963 130.834H63.6966C63.7265 132.407 63.73 133.988 63.795 135.536ZM131.787 15.3554C128.314 14.8564 124.786 14.883 121.321 15.4343C100.276 16.5703 79.9794 23.6101 62.7685 35.7435C66.678 36.3228 70.6292 36.5761 74.581 36.5009C82.2972 32.0205 90.5537 28.5375 99.1516 26.1359C96.2506 28.6401 93.5706 31.3881 91.1413 34.3497C92.3798 34.6195 93.5617 35.1024 94.634 35.7769C95.5821 36.3778 96.4174 37.1397 97.102 38.028C104.465 29.4022 112.966 23.869 122.08 22.4121C122.715 22.3788 123.346 22.3385 123.984 22.3175V66.267C115.747 66.1835 107.525 65.545 99.3748 64.356V71.4389C107.53 72.5815 115.75 73.1964 123.984 73.2798V109.673C126.581 109.672 129.087 110.633 131.015 112.368V73.264C145.251 73.0689 159.405 71.0856 173.143 67.361C179.597 85.4955 182.965 104.579 183.106 123.821H134.531V127.363C136.313 127.049 138.147 127.205 139.85 127.813C141.554 128.422 143.069 129.463 144.246 130.834H181.262C182.116 130.244 183.051 129.783 184.04 129.465L184.071 129.453C184.523 129.313 184.984 129.204 185.451 129.127C185.569 129.107 185.686 129.088 185.805 129.072C186.288 129 186.776 128.962 187.265 128.958H204.843C206.99 128.956 209.085 129.611 210.846 130.834H232.887C232.513 142.416 230.207 153.854 226.064 164.68C228.469 165.563 230.471 167.287 231.697 169.531C238.515 152.845 241.196 134.763 239.511 116.823C237.825 98.8824 231.825 81.6124 222.018 66.4791C212.211 51.3458 198.888 38.7962 183.18 29.8957C167.471 20.9952 149.841 16.0084 131.787 15.3554ZM196.576 48.0318C192.189 52.2009 185.493 55.8389 177.168 58.7439C175.687 55.2936 174.044 51.9149 172.243 48.6191C167.658 39.9 161.489 32.1063 154.05 25.6345C169.767 29.7295 184.322 37.395 196.576 48.0318ZM131.015 66.2477V22.349L131.219 22.3543C147.036 24.6107 161.044 39.1167 170.513 60.8197C157.616 64.2155 144.353 66.037 131.015 66.2477ZM190.138 123.823C190.001 103.855 186.504 84.0509 179.791 65.2378C189.13 61.926 196.691 57.7078 201.751 52.79C220.859 71.6218 231.999 97.0438 232.879 123.821L190.138 123.823Z" fill="white"/>
</g>
<defs>
<clipPath id="clip0_680_14">
<rect width="256" height="256" fill="white"/>
</clipPath>
</defs>
</svg>
