<svg width="256" height="256" viewBox="0 0 256 256" fill="none" xmlns="http://www.w3.org/2000/svg">
<g clip-path="url(#clip0_679_7)">
<path d="M20 220H28V228H20V220ZM84 224H92V232H84V224Z" fill="white"/>
<path d="M240 208H228V196C228 194.939 227.579 193.922 226.828 193.172C226.078 192.422 225.061 192 224 192H200V180H216C219.183 180 222.235 178.736 224.485 176.485C226.736 174.235 228 171.183 228 168V16.0002C228 13.8785 227.157 11.8436 225.657 10.3433C224.157 8.84305 222.122 8.0002 220 8.0002H126C125.382 7.99402 124.772 8.13093 124.216 8.4002L101.004 20.0002H28C26.9391 20.0002 25.9217 20.4216 25.1716 21.1718C24.4214 21.9219 24 22.9393 24 24.0002V168C24 171.183 25.2643 174.235 27.5147 176.485C29.7652 178.736 32.8174 180 36 180H56V192H28C26.9391 192 25.9217 192.422 25.1716 193.172C24.4214 193.922 24 194.939 24 196V208H12C10.9391 208 9.92172 208.422 9.17157 209.172C8.42143 209.922 8 210.939 8 212V244C8 245.061 8.42143 246.078 9.17157 246.829C9.92172 247.579 10.9391 248 12 248H44C45.0609 248 46.0783 247.579 46.8284 246.829C47.5786 246.078 48 245.061 48 244V212C48 210.939 47.5786 209.922 46.8284 209.172C46.0783 208.422 45.0609 208 44 208H32V200H88V208H76C74.9391 208 73.9217 208.422 73.1716 209.172C72.4214 209.922 72 210.939 72 212V244C72 245.061 72.4214 246.078 73.1716 246.829C73.9217 247.579 74.9391 248 76 248H108C109.061 248 110.078 247.579 110.828 246.829C111.579 246.078 112 245.061 112 244V212C112 210.939 111.579 209.922 110.828 209.172C110.078 208.422 109.061 208 108 208H96V200H160V208H148C146.939 208 145.922 208.422 145.172 209.172C144.421 209.922 144 210.939 144 212V244C144 245.061 144.421 246.078 145.172 246.829C145.922 247.579 146.939 248 148 248H180C181.061 248 182.078 247.579 182.828 246.829C183.579 246.078 184 245.061 184 244V212C184 210.939 183.579 209.922 182.828 209.172C182.078 208.422 181.061 208 180 208H168V200H220V208H208C206.939 208 205.922 208.422 205.172 209.172C204.421 209.922 204 210.939 204 212V244C204 245.061 204.421 246.078 205.172 246.829C205.922 247.579 206.939 248 208 248H240C241.061 248 242.078 247.579 242.828 246.829C243.579 246.078 244 245.061 244 244V212C244 210.939 243.579 209.922 242.828 209.172C242.078 208.422 241.061 208 240 208ZM40 240H16V216H40V240ZM104 240H80V216H104V240ZM176 240H152V216H176V240ZM101.944 28.0002C102.565 28.0008 103.177 27.857 103.732 27.5802L126.94 16.0002H220V36.0002H32V28.0002H101.944ZM36 172C34.9391 172 33.9217 171.579 33.1716 170.829C32.4214 170.078 32 169.061 32 168V44.0002H220V168C220 169.061 219.579 170.078 218.828 170.829C218.078 171.579 217.061 172 216 172H200V108C200 106.939 199.579 105.922 198.828 105.172C198.078 104.422 197.061 104 196 104H183.796C183.175 94.9159 180.34 86.1217 175.539 78.3845C170.739 70.6474 164.118 64.2025 156.254 59.6119C148.39 55.0213 139.523 52.4245 130.425 52.0481C121.328 51.6716 112.276 53.5269 104.06 57.4522L103.884 57.5162C94.9724 61.7812 87.3477 68.3278 81.7838 76.4917C76.2199 84.6556 72.9148 94.1462 72.204 104H60C58.9391 104 57.9217 104.422 57.1716 105.172C56.4214 105.922 56 106.939 56 108V172H36ZM72.204 112C73.1908 126.126 79.4985 139.352 89.8544 149.01C100.21 158.667 113.844 164.038 128.004 164.038C142.164 164.038 155.798 158.667 166.154 149.01C176.51 139.352 182.817 126.126 183.804 112H192V172H64V112H72.204ZM108.248 69.3802C108.599 70.3369 109.301 71.1238 110.212 71.5802L125.26 79.1002L132.672 90.2202C133.224 91.0471 134.064 91.6388 135.028 91.8802L150.356 95.7122L161.78 103.312C162.161 103.566 162.583 103.753 163.028 103.864L175.956 107.096C175.956 107.392 176 107.684 176 107.984C175.998 114.148 174.801 120.252 172.476 125.96L167.388 117.856C166.841 116.987 165.982 116.361 164.988 116.104L149.28 112.192L137.28 108.192C136.702 107.999 136.088 107.941 135.484 108.021C134.881 108.101 134.303 108.319 133.796 108.656L121.796 116.656C121.056 117.15 120.501 117.876 120.22 118.72L116.392 130.212L109.06 141.204L101.548 146.9L103.076 148.9C99.8521 146.95 96.869 144.628 94.188 141.98L98.908 134.848L110.236 127.296C110.455 127.151 110.659 126.983 110.844 126.796L118.844 118.796C119.581 118.051 119.996 117.048 120 116V104C119.999 103.161 119.735 102.343 119.244 101.663C118.753 100.982 118.06 100.473 117.264 100.208L107.164 96.8362L103.796 86.7362C103.704 86.4662 103.584 86.2063 103.44 85.9602L95.6 72.7002C98.9146 69.6496 102.642 67.0805 106.672 65.0682L108.248 69.3802ZM114.084 62.0722C120.494 60.124 127.242 59.5406 133.892 60.3597C140.541 61.1788 146.946 63.3822 152.692 66.8279C158.438 70.2735 163.398 74.885 167.253 80.3649C171.107 85.8449 173.771 92.0718 175.072 98.6442L165.644 96.2882L154.22 88.6882C153.839 88.4341 153.417 88.2474 152.972 88.1362L138.472 84.5122L131.328 73.7962C130.939 73.2187 130.409 72.7504 129.788 72.4362L115.2 65.1322L114.084 62.0722ZM168.18 134.18C161.966 143.783 152.515 150.839 141.543 154.068C130.571 157.297 118.805 156.486 108.38 151.78L114.4 147.2C114.755 146.929 115.063 146.602 115.312 146.232L123.312 134.232C123.507 133.934 123.664 133.613 123.78 133.276L127.344 122.58L136.592 116.4L147.028 119.864L161.468 123.464L168.18 134.18ZM89.944 78.8642L96.344 89.6642L100.208 101.264C100.405 101.853 100.736 102.388 101.176 102.827C101.615 103.266 102.151 103.596 102.74 103.792L112 106.884V114.344L105.452 120.892L93.78 128.672C93.3366 128.967 92.9571 129.348 92.664 129.792L88.8 135.62C82.8811 127.288 79.7965 117.274 80.0011 107.055C80.2056 96.8359 83.6885 86.9533 89.936 78.8642H89.944ZM64 180H192V192H64V180ZM236 240H212V216H236V240Z" fill="white"/>
<path d="M164 220H172V228H164V220ZM216 228H224V236H216V228ZM40 52H56V60H40V52ZM40 68H64V76H40V68Z" fill="white"/>
</g>
<defs>
<clipPath id="clip0_679_7">
<rect width="256" height="256" fill="white"/>
</clipPath>
</defs>
</svg>
