<svg width="256" height="256" viewBox="0 0 256 256" fill="none" xmlns="http://www.w3.org/2000/svg">
<g clip-path="url(#clip0_680_14)">
<g clip-path="url(#clip1_680_14)">
<path d="M134.555 214.77H141.363V221.54H134.555V214.77ZM151.575 214.77H158.383V221.54H151.575V214.77ZM168.597 214.77H175.405V221.54H168.597V214.77ZM185.619 214.77H192.427V221.54H185.619V214.77ZM202.639 214.77H209.447V221.54H202.639V214.77Z" fill="white"/>
<path d="M124.001 116C122.94 116 121.922 116.421 121.172 117.172C120.422 117.922 120.001 118.939 120.001 120V156.758C117.746 157.081 115.653 158.113 114.024 159.704C112.394 161.295 111.313 163.364 110.937 165.61L107.185 188H95.4048C94.1945 187.997 93.0021 188.291 91.9317 188.856C90.8614 189.421 89.9457 190.239 89.2648 191.24C88.5961 192.222 88.1782 193.354 88.0478 194.535C87.9174 195.716 88.0784 196.911 88.5168 198.016L109.671 251.352C110.217 252.73 111.167 253.911 112.395 254.74C113.624 255.57 115.074 256.009 116.557 256H230.919C232.389 256.008 233.828 255.576 235.051 254.759C236.273 253.942 237.223 252.777 237.779 251.416L255.459 208.082C255.91 206.975 256.082 205.775 255.959 204.586C255.836 203.397 255.423 202.257 254.755 201.266C254.076 200.258 253.159 199.433 252.085 198.863C251.012 198.293 249.814 197.997 248.599 198H240.001V182C240.001 180.939 239.579 179.922 238.829 179.172C238.079 178.421 237.062 178 236.001 178H230.001V162C230.001 160.939 229.579 159.922 228.829 159.172C228.079 158.421 227.062 158 226.001 158H220.001V142C220.001 140.939 219.579 139.922 218.829 139.172C218.079 138.421 217.062 138 216.001 138H196.001C194.94 138 193.922 138.421 193.172 139.172C192.422 139.922 192.001 140.939 192.001 142V158H186.001C184.94 158 183.922 158.421 183.172 159.172C182.422 159.922 182.001 160.939 182.001 162V178H176.001C174.94 178 173.922 178.421 173.172 179.172C172.422 179.922 172.001 180.939 172.001 182V198H156.793L151.361 165.612C150.975 163.317 149.854 161.209 148.165 159.607C146.477 158.005 144.313 156.996 142.001 156.732V140C142.001 138.939 141.579 137.922 140.829 137.172C140.079 136.421 139.062 136 138.001 136C136.94 136 135.922 136.421 135.172 137.172C134.422 137.922 134.001 138.939 134.001 140V156.616H128.001V120C128.001 118.939 127.579 117.922 126.829 117.172C126.079 116.421 125.062 116 124.001 116ZM230.533 248H116.949L96.3248 196H136.325C136.653 195.987 136.974 196.102 137.22 196.32C137.466 196.538 137.618 196.842 137.645 197.17C137.754 199.561 138.786 201.816 140.523 203.463C142.26 205.109 144.567 206.019 146.961 206H247.671L230.533 248ZM200.001 186H212.001V198H200.001V186ZM232.001 198H220.001V186H232.001V198ZM222.001 178H210.001V166H222.001V178ZM200.001 146H212.001V158H200.001V146ZM190.001 166H202.001V178H190.001V166ZM180.001 186H192.001V198H180.001V186ZM143.471 166.934L148.551 197.23H145.741C145.682 197.104 145.647 196.969 145.637 196.83C145.527 194.44 144.496 192.185 142.76 190.539C141.024 188.892 138.717 187.982 136.325 188H115.297L118.829 166.932C118.94 166.28 119.28 165.689 119.788 165.265C120.295 164.84 120.937 164.61 121.599 164.616H140.703C141.364 164.611 142.006 164.841 142.513 165.266C143.02 165.691 143.36 166.282 143.471 166.934Z" fill="white"/>
<path d="M133.448 170.77C133.448 169.71 133.027 168.692 132.276 167.942C131.526 167.192 130.509 166.77 129.448 166.77H126.04C124.979 166.77 123.962 167.192 123.212 167.942C122.461 168.692 122.04 169.71 122.04 170.77C122.04 171.831 122.461 172.849 123.212 173.599C123.962 174.349 124.979 174.77 126.04 174.77H129.446C130.507 174.77 131.524 174.349 132.274 173.599C133.025 172.849 133.448 171.831 133.448 170.77ZM135.262 175.936C134.201 175.936 133.184 176.358 132.434 177.108C131.683 177.858 131.262 178.876 131.262 179.936C131.262 180.997 131.683 182.015 132.434 182.765C133.184 183.515 134.201 183.936 135.262 183.936H138.666C139.727 183.936 140.744 183.515 141.494 182.765C142.245 182.015 142.666 180.997 142.666 179.936C142.666 178.876 142.245 177.858 141.494 177.108C140.744 176.358 139.727 175.936 138.666 175.936H135.262ZM1.58 81.3805C2.0727 81.7528 2.64465 82.0064 3.25135 82.1215C3.85806 82.2367 4.48315 82.2103 5.078 82.0445C5.29 81.9865 26.534 76.1465 42.642 81.9565C48.5747 83.8382 54.7801 84.7156 61.002 84.5525C69.0005 84.4769 76.9748 83.6587 84.822 82.1085C85.7204 81.9198 86.5266 81.4279 87.1053 80.7152C87.6839 80.0025 87.9999 79.1125 88 78.1945V33.9745C87.9961 33.315 87.8299 32.6667 87.516 32.0867C87.2022 31.5067 86.7503 31.0129 86.2003 30.649C85.6504 30.2851 85.0193 30.0622 84.3628 30C83.7062 29.9378 83.0445 30.0383 82.436 30.2925C82.308 30.3445 69.51 35.4985 44.86 30.0665C29.886 26.7665 4.574 29.8705 3.504 30.0045C2.53675 30.1253 1.64693 30.5952 1.00171 31.3259C0.356486 32.0566 0.000275414 32.9977 3.11789e-07 33.9725V78.1925C-0.000243453 78.8099 0.142452 79.419 0.416913 79.9721C0.691373 80.5252 1.08815 81.0072 1.58 81.3805ZM44 44.0005C46.3734 44.0005 48.6935 44.7042 50.6668 46.0228C52.6402 47.3414 54.1783 49.2155 55.0866 51.4083C55.9948 53.601 56.2324 56.0138 55.7694 58.3415C55.3064 60.6693 54.1635 62.8075 52.4853 64.4857C50.8071 66.164 48.6689 67.3069 46.3411 67.7699C44.0133 68.2329 41.6005 67.9953 39.4078 67.087C37.2151 66.1788 35.3409 64.6407 34.0224 62.6673C32.7038 60.6939 32 58.3738 32 56.0005C32.0037 52.819 33.2692 49.7689 35.5188 47.5193C37.7684 45.2696 40.8185 44.0042 44 44.0005ZM80 39.2545V74.8545C73.69 75.9025 59.3 77.7825 48.78 75.3985C52.4604 74.4992 55.8088 72.5708 58.4335 69.8386C61.0583 67.1065 62.851 63.6835 63.602 59.97C64.353 56.2565 64.0313 52.4059 62.6745 48.8686C61.3176 45.3312 58.9818 42.2532 55.94 39.9945C63.9498 40.9969 72.0669 40.7473 80 39.2545ZM8 37.5665C17.8576 36.5029 27.7909 36.3269 37.68 37.0405C34.2658 38.1733 31.2211 40.2075 28.8677 42.928C26.5143 45.6485 24.9395 48.9542 24.3099 52.4959C23.6803 56.0376 24.0192 59.6835 25.2908 63.0485C26.5624 66.4134 28.7195 69.3723 31.534 71.6125C29.594 71.4605 27.674 71.3825 25.802 71.3825C19.8246 71.4154 13.8638 72.0161 8 73.1765V37.5665Z" fill="white"/>
<path d="M39.906 63.1105C40.3167 63.1798 40.7367 63.2325 41.166 63.2685C41.5954 63.3031 42.0634 63.3205 42.57 63.3205V65.5485C42.8456 65.6182 43.1266 65.6644 43.41 65.6865C43.69 65.7065 43.926 65.7165 44.12 65.7165C44.314 65.7165 44.552 65.7085 44.84 65.6865C45.1198 65.6665 45.397 65.6203 45.668 65.5485V63.0445C46.9148 62.8203 48.0638 62.2218 48.962 61.3285C49.5298 60.6882 49.905 59.9004 50.0444 59.0561C50.1838 58.2118 50.0818 57.3453 49.75 56.5565C49.5245 56.0751 49.1977 55.648 48.792 55.3045C48.3728 54.9542 47.9036 54.6683 47.4 54.4565C46.8515 54.2216 46.2907 54.0167 45.72 53.8425L44.25 53.3965C43.8434 53.2736 43.4516 53.1059 43.082 52.8965C42.9144 52.8098 42.7749 52.6773 42.6796 52.5145C42.5844 52.3516 42.5374 52.165 42.544 51.9765C42.5332 51.7812 42.5936 51.5886 42.714 51.4345C42.8357 51.2936 42.9893 51.1839 43.162 51.1145C43.3543 51.0357 43.5572 50.9858 43.764 50.9665C43.984 50.9465 44.206 50.9365 44.434 50.9365C45.1838 50.9196 45.9329 50.9907 46.666 51.1485C47.2615 51.2944 47.849 51.4713 48.426 51.6785C48.9734 50.7522 49.3386 49.7299 49.502 48.6665C48.8007 48.4691 48.1394 48.3065 47.518 48.1785C46.9069 48.0528 46.2893 47.9607 45.668 47.9025V46.0585C45.3972 45.9857 45.1199 45.9394 44.84 45.9205C44.552 45.9005 44.312 45.8885 44.12 45.8885C43.928 45.8885 43.69 45.8985 43.41 45.9205C43.1265 45.9422 42.8454 45.9891 42.57 46.0605V47.9665C41.303 48.0916 40.1016 48.59 39.118 49.3985C38.704 49.773 38.3776 50.2342 38.1623 50.7493C37.9469 51.2644 37.8478 51.8207 37.872 52.3785C37.854 52.8762 37.9445 53.372 38.1372 53.8313C38.3299 54.2906 38.6202 54.7025 38.988 55.0385C39.3506 55.3717 39.762 55.6476 40.208 55.8565C40.6949 56.0888 41.1943 56.2938 41.704 56.4705L43.096 56.9385C43.6182 57.105 44.1232 57.3213 44.604 57.5845C44.792 57.6766 44.9499 57.8203 45.0594 57.9988C45.1688 58.1772 45.2252 58.3831 45.222 58.5925C45.2283 58.825 45.1637 59.0539 45.0369 59.2489C44.9101 59.4439 44.7271 59.5958 44.512 59.6845C43.873 59.9496 43.183 60.0691 42.492 60.0345C41.8482 60.0312 41.2064 59.9636 40.576 59.8325C39.8192 59.6733 39.0737 59.4648 38.344 59.2085C38.0987 59.8018 37.8927 60.3598 37.726 60.8825C37.5644 61.3875 37.446 61.9054 37.372 62.4305C37.8454 62.5865 38.2827 62.7211 38.684 62.8345C39.0856 62.9478 39.4948 63.0399 39.906 63.1105ZM101.816 253.25L98.228 244.204L91.268 226.648C86.2041 219.993 81.9339 212.77 78.544 205.124C79.7991 204.767 81.0593 204.426 82.324 204.104L81.08 200.964C80.5132 199.512 80.1726 197.981 80.07 196.424C78.494 196.828 76.958 197.258 75.446 197.7C68.2224 178.303 64.1914 157.862 63.51 137.174C63.442 135.516 63.438 133.824 63.406 132.14H112V124.14H63.394C63.5419 113.517 64.4711 102.919 66.174 92.4325C63.4788 92.5669 60.7792 92.5896 58.082 92.5005C56.4387 102.97 55.5398 113.543 55.392 124.14H8.08604C8.48586 111.899 10.7707 99.7932 14.86 88.2485C12.2963 88.619 9.75299 89.1197 7.24004 89.7485C6.76675 89.8798 6.28584 89.982 5.80004 90.0545C1.94565 102.382 -0.0100804 115.224 3.90694e-05 128.14C3.90694e-05 131.3 0.116039 134.488 0.346039 137.626C2.50951 165.271 13.5625 191.472 31.8525 212.313C50.1424 233.154 74.6868 247.516 101.816 253.25ZM96.526 243.73C79.3963 239.023 63.5189 230.587 50.03 219.026C56.1488 213.932 63.186 210.056 70.762 207.606C77.608 222.974 86.408 235.378 96.526 243.73ZM55.518 137.504C56.2011 158.927 60.3174 180.101 67.71 200.218C59.0406 203.082 51.0234 207.633 44.12 213.608C23.2317 193.318 10.4984 166.08 8.32604 137.04C8.20604 135.418 8.12604 133.78 8.07404 132.14H55.406C55.44 133.934 55.444 135.738 55.518 137.504ZM132.878 0.406457C128.927 -0.162844 124.912 -0.132502 120.97 0.496457C97.0249 1.79226 73.9323 9.82303 54.35 23.6645C58.7983 24.3253 63.2938 24.6143 67.79 24.5285C76.5695 19.4173 85.9636 15.444 95.746 12.7045C92.4453 15.5611 89.3961 18.6959 86.632 22.0745C88.0412 22.3822 89.386 22.9331 90.606 23.7025C91.6848 24.388 92.6351 25.2571 93.414 26.2705C101.792 16.4305 111.464 10.1185 121.834 8.45646C122.556 8.41846 123.274 8.37246 124 8.34846V58.4845C114.628 58.3892 105.274 57.6609 96 56.3045V64.3845C105.278 65.6879 114.631 66.3894 124 66.4845V108C126.955 108 129.806 109.095 132 111.074V66.4665C148.197 66.2438 164.301 63.9813 179.932 59.7325C187.275 80.4196 191.107 102.189 191.268 124.14H136V128.18C138.028 127.823 140.114 128 142.052 128.694C143.991 129.389 145.715 130.576 147.054 132.14H189.17C190.141 131.467 191.206 130.941 192.33 130.578L192.366 130.564C192.88 130.405 193.405 130.281 193.936 130.192C194.07 130.17 194.204 130.149 194.338 130.13C194.888 130.049 195.444 130.005 196 130H216C218.442 129.998 220.826 130.745 222.83 132.14H247.908C247.482 145.352 244.858 158.401 240.144 170.75C242.881 171.757 245.159 173.724 246.554 176.284C254.311 157.249 257.361 136.623 255.444 116.157C253.526 95.691 246.699 75.99 235.541 58.7265C224.383 41.463 209.224 27.1468 191.352 16.9934C173.479 6.84005 153.42 1.15135 132.878 0.406457ZM206.594 37.6825C201.602 42.4385 193.984 46.5885 184.512 49.9025C182.827 45.9664 180.957 42.1122 178.908 38.3525C173.691 28.406 166.672 19.5152 158.208 12.1325C176.091 16.8038 192.652 25.5484 206.594 37.6825ZM132 58.4625V8.38446L132.232 8.39046C150.228 10.9645 166.166 27.5125 176.94 52.2705C162.266 56.1442 147.175 58.2221 132 58.4625ZM199.268 124.142C199.113 101.363 195.134 78.7717 187.496 57.3105C198.122 53.5325 206.724 48.7205 212.482 43.1105C234.222 64.593 246.897 93.5935 247.898 124.14L199.268 124.142Z" fill="white"/>
</g>
</g>
<defs>
<clipPath id="clip0_680_14">
<rect width="256" height="256" fill="white"/>
</clipPath>
<clipPath id="clip1_680_14">
<rect width="256" height="256" fill="white"/>
</clipPath>
</defs>
</svg>
