<svg width="256" height="256" viewBox="0 0 256 256" fill="none" xmlns="http://www.w3.org/2000/svg">
<path d="M178.514 207.467C185.697 207.467 191.552 201.606 191.552 194.416V188.993H215.391C217.489 188.993 219.201 187.279 219.201 185.18C219.201 183.08 217.489 181.366 215.391 181.366C213.976 181.366 212.822 180.211 212.822 178.794V152.029C212.822 137.964 204.328 125.84 192.199 120.54V75.9651C192.199 75.8427 192.199 75.7377 192.199 75.6327C192.199 75.6152 192.199 75.5803 192.199 75.5628C192.199 75.4403 192.164 75.3178 192.147 75.1954C192.147 75.1604 192.129 75.1254 192.112 75.0904C192.094 75.003 192.077 74.9155 192.042 74.828C192.024 74.7755 192.007 74.7056 191.972 74.6531C191.954 74.6006 191.937 74.5306 191.902 74.4781C191.867 74.3907 191.832 74.3207 191.78 74.2332C191.78 74.1982 191.745 74.1633 191.727 74.1458C191.675 74.0408 191.605 73.9358 191.535 73.8309C191.535 73.8134 191.5 73.7959 191.482 73.7784C191.43 73.6909 191.36 73.6209 191.308 73.5335C191.308 73.5335 191.255 73.4635 191.22 73.4285C191.168 73.376 191.115 73.3235 191.063 73.2711C191.011 73.2186 190.958 73.1836 190.923 73.1311C190.888 73.0961 190.836 73.0611 190.801 73.0261C190.748 72.9737 190.679 72.9387 190.626 72.9037C190.591 72.8687 190.539 72.8512 190.504 72.8162C190.451 72.7812 190.381 72.7462 190.329 72.7113C190.277 72.6763 190.242 72.6588 190.189 72.6238C190.137 72.5888 190.067 72.5713 190.014 72.5363C189.962 72.5188 189.91 72.4838 189.857 72.4663C189.805 72.4489 189.752 72.4314 189.682 72.3964C189.63 72.3789 189.56 72.3614 189.508 72.3264C189.455 72.3264 189.403 72.2914 189.333 72.2739C189.263 72.2739 189.21 72.2389 189.141 72.2214C189.071 72.2214 189.018 72.2039 188.948 72.1864C188.896 72.1864 188.826 72.1689 188.773 72.1689C188.686 72.1689 188.599 72.1689 188.511 72.1689C188.476 72.1689 188.441 72.1689 188.406 72.1689H66.3452C66.3452 72.1689 66.2578 72.1689 66.2229 72.1689C66.1355 72.1689 66.0656 72.1689 65.9782 72.1689C65.9257 72.1689 65.8558 72.1689 65.8034 72.1864C65.7335 72.1864 65.6811 72.1864 65.6112 72.2214C65.5413 72.2214 65.4888 72.2564 65.4189 72.2739C65.3665 72.2739 65.314 72.3089 65.2441 72.3089C65.1742 72.3264 65.1218 72.3439 65.0694 72.3789C65.0169 72.3964 64.947 72.4139 64.8946 72.4488C64.8422 72.4663 64.7897 72.5013 64.7373 72.5188C64.6849 72.5538 64.615 72.5713 64.5625 72.6063C64.5101 72.6238 64.4751 72.6588 64.4227 72.6763C64.3528 72.7113 64.3004 72.7462 64.2305 72.7812C64.1955 72.8162 64.1431 72.8337 64.1081 72.8687C64.0557 72.9037 63.9858 72.9562 63.9333 72.9912C63.8809 73.0261 63.846 73.0611 63.811 73.0961C63.7586 73.1486 63.7061 73.1836 63.6712 73.2361C63.6187 73.2886 63.5663 73.341 63.5139 73.3935C63.4789 73.4285 63.4615 73.4635 63.4265 73.481C63.3566 73.5685 63.3042 73.6559 63.2517 73.7434C63.2517 73.7609 63.2168 73.7784 63.1993 73.7959C63.1294 73.9008 63.0595 74.0058 63.007 74.1108C63.007 74.1458 62.9721 74.1807 62.9546 74.1982C62.9197 74.2857 62.8672 74.3557 62.8323 74.4432C62.8148 74.4956 62.7973 74.5656 62.7624 74.6181C62.7449 74.6706 62.7099 74.7405 62.6925 74.793C62.6575 74.8805 62.64 74.968 62.6225 75.0554C62.6225 75.0904 62.6051 75.1254 62.5876 75.1604C62.5701 75.2829 62.5352 75.4053 62.5352 75.5278C62.5352 75.5453 62.5352 75.5803 62.5352 75.5978C62.5352 75.7027 62.5352 75.8077 62.5352 75.9126V153.743C62.5352 155.842 64.2479 157.557 66.3452 157.557H144.224V178.759C144.224 180.176 143.07 181.331 141.655 181.331C139.557 181.331 137.845 183.045 137.845 185.145C137.845 187.244 139.557 188.958 141.655 188.958H165.494V194.381C165.494 201.571 171.349 207.432 178.532 207.432L178.514 207.467ZM183.932 194.416C183.932 197.408 181.503 199.839 178.514 199.839C175.526 199.839 173.096 197.408 173.096 194.416V188.993H183.932V194.416ZM127.358 122.272L76.7966 79.7613H177.92L127.358 122.272ZM70.1378 84.1348L124.912 130.179C124.912 130.179 124.964 130.214 124.999 130.249C125.051 130.284 125.086 130.319 125.139 130.354C125.209 130.406 125.261 130.441 125.331 130.476C125.366 130.511 125.418 130.529 125.453 130.564C125.558 130.634 125.663 130.686 125.785 130.739C125.785 130.739 125.803 130.739 125.82 130.739C125.925 130.791 126.03 130.826 126.135 130.861C126.17 130.861 126.205 130.879 126.24 130.896C126.327 130.931 126.415 130.948 126.502 130.966C126.537 130.966 126.572 130.966 126.607 130.983C126.694 131.001 126.799 131.018 126.886 131.036C126.921 131.036 126.956 131.036 126.991 131.036C127.114 131.036 127.236 131.053 127.358 131.053C127.481 131.053 127.603 131.053 127.725 131.036C127.76 131.036 127.795 131.036 127.83 131.036C127.918 131.036 128.022 131.001 128.11 130.983C128.145 130.983 128.18 130.983 128.215 130.966C128.302 130.948 128.39 130.913 128.494 130.896C128.529 130.896 128.564 130.878 128.599 130.861C128.704 130.826 128.826 130.774 128.931 130.739C128.931 130.739 128.949 130.739 128.966 130.739C129.071 130.686 129.193 130.634 129.298 130.564C129.333 130.546 129.386 130.511 129.421 130.494C129.491 130.459 129.543 130.406 129.613 130.371C129.665 130.336 129.7 130.301 129.753 130.266C129.788 130.249 129.805 130.231 129.84 130.196L184.614 84.1523V118.248C182.639 117.898 180.629 117.706 178.549 117.706C160.32 117.706 145.377 131.998 144.311 149.982H70.1727V84.1698L70.1378 84.1348ZM151.827 178.777V152.011C151.827 137.281 163.798 125.298 178.514 125.298C193.23 125.298 205.202 137.281 205.202 152.011V178.777C205.202 179.669 205.324 180.526 205.534 181.348H151.494C151.704 180.526 151.827 179.669 151.827 178.777Z" fill="white"/>
<path d="M140.399 221.41C121.121 221.41 105.444 205.718 105.444 186.422C105.444 184.323 103.732 182.608 101.634 182.608C99.537 182.608 97.8242 184.323 97.8242 186.422C97.8242 209.916 116.927 229.037 140.399 229.037C142.496 229.037 144.209 227.323 144.209 225.224C144.209 223.124 142.496 221.41 140.399 221.41Z" fill="white"/>
<path d="M140.397 202.815C131.361 202.815 124.003 195.45 124.003 186.405C124.003 184.306 122.29 182.592 120.193 182.592C118.096 182.592 116.383 184.306 116.383 186.405C116.383 199.666 127.149 210.442 140.397 210.442C142.494 210.442 144.207 208.728 144.207 206.628C144.207 204.529 142.494 202.815 140.397 202.815Z" fill="white"/>
<path d="M122.777 60.2906V65.049C122.777 67.5331 124.786 69.5274 127.251 69.5274C129.715 69.5274 131.725 67.5156 131.725 65.049V60.2906C138.244 58.3488 142.998 52.3134 142.998 45.1584C142.998 36.4639 135.919 29.3789 127.233 29.3789C118.547 29.3789 111.469 36.4639 111.469 45.1584C111.469 52.2959 116.24 58.3488 122.742 60.2906H122.777ZM127.251 37.0237C131.742 37.0237 135.395 40.68 135.395 45.1759C135.395 49.6718 131.742 53.3281 127.251 53.3281C122.759 53.3281 119.106 49.6718 119.106 45.1759C119.106 40.68 122.759 37.0237 127.251 37.0237Z" fill="white"/>
<path d="M171.748 70.8927C173.845 70.8927 175.558 69.1783 175.558 67.079V40.6108H200.393C202.106 47.4684 208.31 52.5766 215.685 52.5766C224.372 52.5766 231.45 45.4916 231.45 36.7971C231.45 28.1026 224.372 21.0176 215.685 21.0176C208.31 21.0176 202.106 26.1258 200.393 32.9834H171.748C169.65 32.9834 167.938 34.6978 167.938 36.7971V67.079C167.938 69.1783 169.65 70.8927 171.748 70.8927ZM215.685 28.6449C220.177 28.6449 223.83 32.3012 223.83 36.7971C223.83 41.293 220.177 44.9492 215.685 44.9492C211.194 44.9492 207.541 41.293 207.541 36.7971C207.541 32.3012 211.194 28.6449 215.685 28.6449Z" fill="white"/>
<path d="M38.8075 52.559C46.1829 52.559 52.3873 47.4508 54.1001 40.5932H78.9353V66.6066C78.9353 68.7059 80.648 70.4203 82.7453 70.4203C84.8426 70.4203 86.5554 68.7059 86.5554 66.6066V36.7795C86.5554 34.6802 84.8426 32.9658 82.7453 32.9658H54.1001C52.3873 26.1082 46.1829 21 38.8075 21C30.1213 21 23.043 28.085 23.043 36.7795C23.043 45.474 30.1213 52.559 38.8075 52.559ZM38.8075 28.6273C43.2991 28.6273 46.9519 32.2836 46.9519 36.7795C46.9519 41.2754 43.2991 44.9317 38.8075 44.9317C34.3158 44.9317 30.6631 41.2754 30.6631 36.7795C30.6631 32.2836 34.3158 28.6273 38.8075 28.6273Z" fill="white"/>
<path d="M82.757 159.271C80.6598 159.271 78.947 160.986 78.947 163.085V215.06H54.1118C52.399 208.202 46.1946 203.094 38.8192 203.094C30.133 203.094 23.0547 210.179 23.0547 218.873C23.0547 227.568 30.133 234.653 38.8192 234.653C46.1946 234.653 52.399 229.545 54.1118 222.687H82.757C84.8543 222.687 86.5671 220.972 86.5671 218.873V163.085C86.5671 160.986 84.8543 159.271 82.757 159.271ZM38.8192 227.025C34.3275 227.025 30.6748 223.369 30.6748 218.873C30.6748 214.377 34.3275 210.721 38.8192 210.721C43.3108 210.721 46.9636 214.377 46.9636 218.873C46.9636 223.369 43.3108 227.025 38.8192 227.025Z" fill="white"/>
<path d="M215.709 204.44C208.333 204.44 202.129 209.549 200.416 216.406H171.771C169.674 216.406 167.961 218.121 167.961 220.22C167.961 222.319 169.674 224.034 171.771 224.034H200.416C202.129 230.891 208.333 235.999 215.709 235.999C224.395 235.999 231.473 228.914 231.473 220.22C231.473 211.525 224.395 204.44 215.709 204.44ZM215.709 228.372C211.217 228.372 207.564 224.716 207.564 220.22C207.564 215.724 211.217 212.068 215.709 212.068C220.2 212.068 223.853 215.724 223.853 220.22C223.853 224.716 220.2 228.372 215.709 228.372Z" fill="white"/>
<path d="M34.7645 130.775C42.1399 130.775 48.3443 125.667 50.0571 118.809H56.9432C59.0404 118.809 60.7532 117.095 60.7532 114.995C60.7532 112.896 59.0404 111.182 56.9432 111.182H50.0571C48.3443 104.324 42.1399 99.2158 34.7645 99.2158C26.0783 99.2158 19 106.301 19 114.995C19 123.69 26.0783 130.775 34.7645 130.775ZM34.7645 106.843C39.2562 106.843 42.9089 110.499 42.9089 114.995C42.9089 119.491 39.2562 123.147 34.7645 123.147C30.2728 123.147 26.6201 119.491 26.6201 114.995C26.6201 110.499 30.2728 106.843 34.7645 106.843Z" fill="white"/>
<path d="M220.707 99.2158C213.332 99.2158 207.128 104.324 205.415 111.182H198.529C196.432 111.182 194.719 112.896 194.719 114.995C194.719 117.095 196.432 118.809 198.529 118.809H205.415C207.128 125.667 213.332 130.775 220.707 130.775C229.394 130.775 236.472 123.69 236.472 114.995C236.472 106.301 229.394 99.2158 220.707 99.2158ZM220.707 123.147C216.216 123.147 212.563 119.491 212.563 114.995C212.563 110.499 216.216 106.843 220.707 106.843C225.199 106.843 228.852 110.499 228.852 114.995C228.852 119.491 225.199 123.147 220.707 123.147Z" fill="white"/>
</svg>
