<svg width="176" height="173" viewBox="0 0 176 173" fill="none" xmlns="http://www.w3.org/2000/svg">
<g clip-path="url(#clip0_310_68)">
<path d="M130.224 0H45.6084C20.4196 0 0 20.0906 0 44.8737V128.126C0 152.909 20.4196 173 45.6084 173H130.224C155.413 173 175.833 152.909 175.833 128.126V44.8737C175.833 20.0906 155.413 0 130.224 0Z" fill="white"/>
<path d="M117.418 131.604C121.592 131.604 124.994 128.256 124.994 124.15V121.052H138.847C140.065 121.052 141.06 120.073 141.06 118.874C141.06 117.675 140.065 116.696 138.847 116.696C138.024 116.696 137.354 116.036 137.354 115.227V99.9393C137.354 91.9058 132.418 84.9814 125.37 81.9538V56.4944C125.37 56.4245 125.37 56.3645 125.37 56.3046C125.37 56.2946 125.37 56.2746 125.37 56.2646C125.37 56.1947 125.35 56.1247 125.34 56.0548C125.34 56.0348 125.33 56.0148 125.319 55.9948C125.309 55.9449 125.299 55.8949 125.279 55.8449C125.269 55.815 125.258 55.775 125.238 55.745C125.228 55.715 125.218 55.6751 125.198 55.6451C125.177 55.5951 125.157 55.5552 125.126 55.5052C125.126 55.4852 125.106 55.4653 125.096 55.4553C125.065 55.3953 125.025 55.3354 124.984 55.2754C124.984 55.2654 124.964 55.2554 124.954 55.2454C124.923 55.1955 124.883 55.1555 124.852 55.1055C124.852 55.1055 124.822 55.0656 124.801 55.0456C124.771 55.0156 124.741 54.9856 124.71 54.9557C124.68 54.9257 124.649 54.9057 124.629 54.8757C124.608 54.8557 124.578 54.8358 124.558 54.8158C124.527 54.7858 124.487 54.7658 124.456 54.7458C124.436 54.7259 124.405 54.7159 124.385 54.6959C124.355 54.6759 124.314 54.6559 124.284 54.6359C124.253 54.6159 124.233 54.6059 124.202 54.586C124.172 54.566 124.131 54.556 124.101 54.536C124.07 54.526 124.04 54.506 124.009 54.496C123.979 54.486 123.948 54.4761 123.908 54.4561C123.877 54.4461 123.837 54.4361 123.806 54.4161C123.776 54.4161 123.745 54.3961 123.705 54.3861C123.664 54.3861 123.634 54.3661 123.593 54.3562C123.552 54.3562 123.522 54.3462 123.481 54.3362C123.451 54.3362 123.41 54.3262 123.38 54.3262C123.329 54.3262 123.278 54.3262 123.227 54.3262C123.207 54.3262 123.187 54.3262 123.166 54.3262H52.2403C52.2403 54.3262 52.1895 54.3262 52.1692 54.3262C52.1184 54.3262 52.0778 54.3262 52.027 54.3262C51.9965 54.3262 51.9559 54.3262 51.9255 54.3362C51.8848 54.3362 51.8544 54.3362 51.8137 54.3562C51.7731 54.3562 51.7427 54.3761 51.702 54.3861C51.6716 54.3861 51.6411 54.4061 51.6005 54.4061C51.5599 54.4161 51.5294 54.4261 51.4989 54.4461C51.4685 54.4561 51.4278 54.4661 51.3974 54.486C51.3669 54.496 51.3364 54.516 51.306 54.526C51.2755 54.546 51.2349 54.556 51.2044 54.576C51.1739 54.586 51.1536 54.6059 51.1232 54.6159C51.0825 54.6359 51.0521 54.6559 51.0115 54.6759C50.9911 54.6959 50.9607 54.7059 50.9404 54.7258C50.9099 54.7458 50.8693 54.7758 50.8388 54.7958C50.8083 54.8158 50.788 54.8358 50.7677 54.8557C50.7373 54.8857 50.7068 54.9057 50.6865 54.9357C50.656 54.9657 50.6255 54.9956 50.5951 55.0256C50.5748 55.0456 50.5646 55.0656 50.5443 55.0756C50.5037 55.1255 50.4732 55.1755 50.4427 55.2254C50.4427 55.2354 50.4224 55.2454 50.4123 55.2554C50.3717 55.3154 50.331 55.3753 50.3006 55.4353C50.3006 55.4553 50.2803 55.4752 50.2701 55.4852C50.2498 55.5352 50.2193 55.5752 50.199 55.6251C50.1889 55.6551 50.1787 55.6951 50.1584 55.725C50.1482 55.755 50.1279 55.795 50.1178 55.825C50.0975 55.8749 50.0873 55.9249 50.0771 55.9748C50.0771 55.9948 50.067 56.0148 50.0568 56.0348C50.0467 56.1047 50.0264 56.1747 50.0264 56.2446C50.0264 56.2546 50.0264 56.2746 50.0264 56.2846C50.0264 56.3445 50.0264 56.4045 50.0264 56.4644V100.918C50.0264 102.117 51.0216 103.097 52.2403 103.097H97.4933V115.207C97.4933 116.016 96.823 116.676 96.0004 116.676C94.7817 116.676 93.7865 117.655 93.7865 118.854C93.7865 120.053 94.7817 121.032 96.0004 121.032H109.853V124.13C109.853 128.236 113.255 131.584 117.429 131.584L117.418 131.604ZM120.567 124.15C120.567 125.858 119.155 127.247 117.418 127.247C115.682 127.247 114.27 125.858 114.27 124.15V121.052H120.567V124.15ZM87.6932 82.943L58.3133 58.6627H117.073L87.6932 82.943ZM54.444 61.1606L86.2714 87.4594C86.2714 87.4594 86.3019 87.4793 86.3222 87.4993C86.3527 87.5193 86.373 87.5393 86.4034 87.5593C86.4441 87.5893 86.4745 87.6092 86.5151 87.6292C86.5355 87.6492 86.5659 87.6592 86.5862 87.6792C86.6472 87.7192 86.7081 87.7491 86.7792 87.7791C86.7792 87.7791 86.7893 87.7791 86.7995 87.7791C86.8604 87.8091 86.9214 87.8291 86.9823 87.849C87.0026 87.849 87.0229 87.859 87.0432 87.869C87.094 87.889 87.1448 87.899 87.1956 87.909C87.2159 87.909 87.2362 87.909 87.2565 87.919C87.3073 87.929 87.3682 87.939 87.419 87.949C87.4393 87.949 87.4596 87.949 87.4799 87.949C87.551 87.949 87.6221 87.959 87.6932 87.959C87.7643 87.959 87.8354 87.959 87.9064 87.949C87.9268 87.949 87.9471 87.949 87.9674 87.949C88.0182 87.949 88.0791 87.929 88.1299 87.919C88.1502 87.919 88.1705 87.919 88.1908 87.909C88.2416 87.899 88.2924 87.879 88.3533 87.869C88.3736 87.869 88.3939 87.859 88.4142 87.849C88.4752 87.8291 88.5462 87.7991 88.6072 87.7791C88.6072 87.7791 88.6173 87.7791 88.6275 87.7791C88.6884 87.7491 88.7595 87.7192 88.8204 87.6792C88.8408 87.6692 88.8712 87.6492 88.8915 87.6392C88.9322 87.6192 88.9626 87.5893 89.0032 87.5693C89.0337 87.5493 89.054 87.5293 89.0845 87.5093C89.1048 87.4993 89.1149 87.4893 89.1353 87.4694L120.963 61.1706V80.6449C119.815 80.445 118.647 80.3351 117.439 80.3351C106.846 80.3351 98.1635 88.4985 97.544 98.7702H54.4643V61.1806L54.444 61.1606ZM101.911 115.217V99.9293C101.911 91.5161 108.867 84.6716 117.418 84.6716C125.969 84.6716 132.926 91.5161 132.926 99.9293V115.217C132.926 115.726 132.997 116.216 133.119 116.686H101.718C101.84 116.216 101.911 115.726 101.911 115.217Z" fill="url(#paint0_linear_310_68)"/>
<path d="M95.2691 139.567C84.0676 139.567 74.9581 130.605 74.9581 119.584C74.9581 118.384 73.9628 117.405 72.7442 117.405C71.5255 117.405 70.5303 118.384 70.5303 119.584C70.5303 133.003 81.6303 143.924 95.2691 143.924C96.4878 143.924 97.483 142.945 97.483 141.746C97.483 140.547 96.4878 139.567 95.2691 139.567Z" fill="url(#paint1_linear_310_68)"/>
<path d="M95.2691 128.946C90.0187 128.946 85.7432 124.739 85.7432 119.574C85.7432 118.374 84.748 117.395 83.5293 117.395C82.3107 117.395 81.3154 118.374 81.3154 119.574C81.3154 127.147 87.5712 133.302 95.2691 133.302C96.4878 133.302 97.483 132.323 97.483 131.124C97.483 129.925 96.4878 128.946 95.2691 128.946Z" fill="url(#paint2_linear_310_68)"/>
<path d="M85.0325 47.5417V50.2595C85.0325 51.6784 86.2004 52.8174 87.6323 52.8174C89.0643 52.8174 90.2322 51.6684 90.2322 50.2595V47.5417C94.0202 46.4326 96.7825 42.9854 96.7825 38.8987C96.7825 33.9327 92.6695 29.886 87.6222 29.886C82.5749 29.886 78.4619 33.9327 78.4619 38.8987C78.4619 42.9754 81.2344 46.4326 85.0122 47.5417H85.0325ZM87.6323 34.2525C90.2423 34.2525 92.3648 36.3408 92.3648 38.9087C92.3648 41.4766 90.2423 43.5649 87.6323 43.5649C85.0224 43.5649 82.8999 41.4766 82.8999 38.9087C82.8999 36.3408 85.0224 34.2525 87.6323 34.2525Z" fill="url(#paint3_linear_310_68)"/>
<path d="M113.488 53.5968C114.707 53.5968 115.702 52.6176 115.702 51.4186V36.3008H130.133C131.128 40.2176 134.734 43.1353 139.019 43.1353C144.067 43.1353 148.18 39.0886 148.18 34.1226C148.18 29.1566 144.067 25.1099 139.019 25.1099C134.734 25.1099 131.128 28.0275 130.133 31.9443H113.488C112.27 31.9443 111.274 32.9235 111.274 34.1226V51.4186C111.274 52.6176 112.27 53.5968 113.488 53.5968ZM139.019 29.4663C141.629 29.4663 143.752 31.5547 143.752 34.1226C143.752 36.6905 141.629 38.7788 139.019 38.7788C136.409 38.7788 134.287 36.6905 134.287 34.1226C134.287 31.5547 136.409 29.4663 139.019 29.4663Z" fill="url(#paint4_linear_310_68)"/>
<path d="M36.235 43.1253C40.5206 43.1253 44.1258 40.2076 45.1211 36.2908H59.552V51.1488C59.552 52.3478 60.5473 53.327 61.766 53.327C62.9846 53.327 63.9799 52.3478 63.9799 51.1488V34.1126C63.9799 32.9135 62.9846 31.9343 61.766 31.9343H45.1211C44.1258 28.0175 40.5206 25.0999 36.235 25.0999C31.1877 25.0999 27.0747 29.1466 27.0747 34.1126C27.0747 39.0785 31.1877 43.1253 36.235 43.1253ZM36.235 29.4563C38.845 29.4563 40.9675 31.5446 40.9675 34.1126C40.9675 36.6805 38.845 38.7688 36.235 38.7688C33.625 38.7688 31.5025 36.6805 31.5025 34.1126C31.5025 31.5446 33.625 29.4563 36.235 29.4563Z" fill="url(#paint5_linear_310_68)"/>
<path d="M61.7762 104.076C60.5575 104.076 59.5623 105.055 59.5623 106.254V135.94H45.1313C44.1361 132.023 40.5309 129.106 36.2452 129.106C31.1979 129.106 27.085 133.152 27.085 138.118C27.085 143.084 31.1979 147.131 36.2452 147.131C40.5309 147.131 44.1361 144.213 45.1313 140.297H61.7762C62.9949 140.297 63.9901 139.317 63.9901 138.118V106.254C63.9901 105.055 62.9949 104.076 61.7762 104.076ZM36.2452 142.775C33.6353 142.775 31.5128 140.686 31.5128 138.118C31.5128 135.55 33.6353 133.462 36.2452 133.462C38.8552 133.462 40.9777 135.55 40.9777 138.118C40.9777 140.686 38.8552 142.775 36.2452 142.775Z" fill="url(#paint6_linear_310_68)"/>
<path d="M139.03 129.875C134.744 129.875 131.139 132.793 130.143 136.709H113.499C112.28 136.709 111.285 137.689 111.285 138.888C111.285 140.087 112.28 141.066 113.499 141.066H130.143C131.139 144.983 134.744 147.9 139.03 147.9C144.077 147.9 148.19 143.854 148.19 138.888C148.19 133.922 144.077 129.875 139.03 129.875ZM139.03 143.544C136.42 143.544 134.297 141.456 134.297 138.888C134.297 136.32 136.42 134.231 139.03 134.231C141.639 134.231 143.762 136.32 143.762 138.888C143.762 141.456 141.639 143.544 139.03 143.544Z" fill="url(#paint7_linear_310_68)"/>
<path d="M33.8893 87.7991C38.1749 87.7991 41.7801 84.8815 42.7754 80.9646H46.7766C47.9953 80.9646 48.9905 79.9854 48.9905 78.7864C48.9905 77.5874 47.9953 76.6081 46.7766 76.6081H42.7754C41.7801 72.6913 38.1749 69.7737 33.8893 69.7737C28.842 69.7737 24.729 73.8204 24.729 78.7864C24.729 83.7524 28.842 87.7991 33.8893 87.7991ZM33.8893 74.1302C36.4992 74.1302 38.6217 76.2185 38.6217 78.7864C38.6217 81.3543 36.4992 83.4426 33.8893 83.4426C31.2793 83.4426 29.1568 81.3543 29.1568 78.7864C29.1568 76.2185 31.2793 74.1302 33.8893 74.1302Z" fill="url(#paint8_linear_310_68)"/>
<path d="M141.934 69.7737C137.648 69.7737 134.043 72.6913 133.048 76.6081H129.046C127.828 76.6081 126.833 77.5874 126.833 78.7864C126.833 79.9854 127.828 80.9646 129.046 80.9646H133.048C134.043 84.8815 137.648 87.7991 141.934 87.7991C146.981 87.7991 151.094 83.7524 151.094 78.7864C151.094 73.8204 146.981 69.7737 141.934 69.7737ZM141.934 83.4426C139.324 83.4426 137.201 81.3543 137.201 78.7864C137.201 76.2185 139.324 74.1302 141.934 74.1302C144.544 74.1302 146.666 76.2185 146.666 78.7864C146.666 81.3543 144.544 83.4426 141.934 83.4426Z" fill="url(#paint9_linear_310_68)"/>
</g>
<defs>
<linearGradient id="paint0_linear_310_68" x1="35.7071" y1="20.6734" x2="129.876" y2="129.284" gradientUnits="userSpaceOnUse">
<stop stop-color="#AE4CFB"/>
<stop offset="0.55" stop-color="#00AEEF"/>
<stop offset="1" stop-color="#3AD77E"/>
</linearGradient>
<linearGradient id="paint1_linear_310_68" x1="5.33185" y1="47.0023" x2="99.5007" y2="155.613" gradientUnits="userSpaceOnUse">
<stop stop-color="#AE4CFB"/>
<stop offset="0.55" stop-color="#00AEEF"/>
<stop offset="1" stop-color="#3AD77E"/>
</linearGradient>
<linearGradient id="paint2_linear_310_68" x1="12.0548" y1="41.1669" x2="106.224" y2="149.788" gradientUnits="userSpaceOnUse">
<stop stop-color="#AE4CFB"/>
<stop offset="0.55" stop-color="#00AEEF"/>
<stop offset="1" stop-color="#3AD77E"/>
</linearGradient>
<linearGradient id="paint3_linear_310_68" x1="55.3378" y1="3.64722" x2="149.507" y2="112.268" gradientUnits="userSpaceOnUse">
<stop stop-color="#AE4CFB"/>
<stop offset="0.55" stop-color="#00AEEF"/>
<stop offset="1" stop-color="#3AD77E"/>
</linearGradient>
<linearGradient id="paint4_linear_310_68" x1="78.1471" y1="-16.1268" x2="172.316" y2="92.4939" gradientUnits="userSpaceOnUse">
<stop stop-color="#AE4CFB"/>
<stop offset="0.55" stop-color="#00AEEF"/>
<stop offset="1" stop-color="#3AD77E"/>
</linearGradient>
<linearGradient id="paint5_linear_310_68" x1="33.8078" y1="22.3121" x2="127.977" y2="130.933" gradientUnits="userSpaceOnUse">
<stop stop-color="#AE4CFB"/>
<stop offset="0.55" stop-color="#00AEEF"/>
<stop offset="1" stop-color="#3AD77E"/>
</linearGradient>
<linearGradient id="paint6_linear_310_68" x1="-10.592" y1="60.8109" x2="83.5768" y2="169.422" gradientUnits="userSpaceOnUse">
<stop stop-color="#AE4CFB"/>
<stop offset="0.55" stop-color="#00AEEF"/>
<stop offset="1" stop-color="#3AD77E"/>
</linearGradient>
<linearGradient id="paint7_linear_310_68" x1="29.6851" y1="25.8891" x2="123.854" y2="134.5" gradientUnits="userSpaceOnUse">
<stop stop-color="#AE4CFB"/>
<stop offset="0.55" stop-color="#00AEEF"/>
<stop offset="1" stop-color="#3AD77E"/>
</linearGradient>
<linearGradient id="paint8_linear_310_68" x1="6.40845" y1="46.0729" x2="100.577" y2="154.684" gradientUnits="userSpaceOnUse">
<stop stop-color="#AE4CFB"/>
<stop offset="0.55" stop-color="#00AEEF"/>
<stop offset="1" stop-color="#3AD77E"/>
</linearGradient>
<linearGradient id="paint9_linear_310_68" x1="65.1784" y1="-4.8859" x2="159.347" y2="103.735" gradientUnits="userSpaceOnUse">
<stop stop-color="#AE4CFB"/>
<stop offset="0.55" stop-color="#00AEEF"/>
<stop offset="1" stop-color="#3AD77E"/>
</linearGradient>
<clipPath id="clip0_310_68">
<rect width="176" height="173" fill="white"/>
</clipPath>
</defs>
</svg>
