<svg width="30" height="30" viewBox="0 0 30 30" fill="none" xmlns="http://www.w3.org/2000/svg">
<path d="M10.3125 3.125C6.35399 3.125 3.125 6.35399 3.125 10.3125V19.6875C3.125 23.6455 6.35388 26.875 10.3125 26.875H19.6875C23.6456 26.875 26.875 23.6456 26.875 19.6875V10.3125C26.875 6.35388 23.6455 3.125 19.6875 3.125H10.3125ZM10.3125 5H19.6875C22.632 5 25 7.36737 25 10.3125V19.6875C25 22.6319 22.6319 25 19.6875 25H10.3125C7.36737 25 5 22.632 5 19.6875V10.3125C5 7.36726 7.36726 5 10.3125 5ZM21.25 7.5C20.5594 7.5 20 8.05937 20 8.75C20 9.44063 20.5594 10 21.25 10C21.9406 10 22.5 9.44063 22.5 8.75C22.5 8.05937 21.9406 7.5 21.25 7.5ZM15 8.75C11.5595 8.75 8.75 11.5595 8.75 15C8.75 18.4405 11.5595 21.25 15 21.25C18.4405 21.25 21.25 18.4405 21.25 15C21.25 11.5595 18.4405 8.75 15 8.75ZM15 10.625C17.427 10.625 19.375 12.573 19.375 15C19.375 17.427 17.427 19.375 15 19.375C12.573 19.375 10.625 17.427 10.625 15C10.625 12.573 12.573 10.625 15 10.625Z" fill="white"/>
</svg>
