<svg width="30" height="30" viewBox="0 0 30 30" fill="none" xmlns="http://www.w3.org/2000/svg">
<path d="M24.5984 2.40039H5.39844C3.74244 2.40039 2.39844 3.74439 2.39844 5.40039V24.6004C2.39844 26.2564 3.74244 27.6004 5.39844 27.6004H24.5984C26.2544 27.6004 27.5984 26.2564 27.5984 24.6004V5.40039C27.5984 3.74439 26.2544 2.40039 24.5984 2.40039ZM10.1984 12.0004V23.4004H6.59844V12.0004H10.1984ZM6.59844 8.68239C6.59844 7.84239 7.31844 7.20039 8.39844 7.20039C9.47844 7.20039 10.1564 7.84239 10.1984 8.68239C10.1984 9.52239 9.52644 10.2004 8.39844 10.2004C7.31844 10.2004 6.59844 9.52239 6.59844 8.68239ZM23.3984 23.4004H19.7984C19.7984 23.4004 19.7984 17.8444 19.7984 17.4004C19.7984 16.2004 19.1984 15.0004 17.6984 14.9764H17.6504C16.1984 14.9764 15.5984 16.2124 15.5984 17.4004C15.5984 17.9464 15.5984 23.4004 15.5984 23.4004H11.9984V12.0004H15.5984V13.5364C15.5984 13.5364 16.7564 12.0004 19.0844 12.0004C21.4664 12.0004 23.3984 13.6384 23.3984 16.9564V23.4004Z" fill="white"/>
</svg>
