<svg width="30" height="30" viewBox="0 0 30 30" fill="none" xmlns="http://www.w3.org/2000/svg">
<path d="M26.9398 8.70039C26.7008 7.38086 25.5617 6.41992 24.2398 6.11992C22.2617 5.70039 18.6008 5.40039 14.6398 5.40039C10.6812 5.40039 6.96172 5.70039 4.98125 6.11992C3.66172 6.41992 2.52031 7.31992 2.28125 8.70039C2.03984 10.2004 1.80078 12.3004 1.80078 15.0004C1.80078 17.7004 2.03984 19.8004 2.33984 21.3004C2.58125 22.6199 3.72031 23.5809 5.03984 23.8809C7.13984 24.3004 10.7398 24.6004 14.7008 24.6004C18.6617 24.6004 22.2617 24.3004 24.3617 23.8809C25.6812 23.5809 26.8203 22.6809 27.0617 21.3004C27.3008 19.8004 27.6008 17.6395 27.6617 15.0004C27.5398 12.3004 27.2398 10.2004 26.9398 8.70039ZM11.4008 19.2004V10.8004L18.7203 15.0004L11.4008 19.2004Z" fill="white"/>
</svg>
